<svg xmlns="http://www.w3.org/2000/svg" xmlns:xlink="http://www.w3.org/1999/xlink" width="65" height="65" viewBox="0 0 65 65">
  <defs>
    <linearGradient id="linear-gradient" x1="0.5" x2="0.5" y2="1" gradientUnits="objectBoundingBox">
      <stop offset="0" stop-color="#64f9a0"/>
      <stop offset="1" stop-color="#5ff5f9"/>
    </linearGradient>
  </defs>
  <g id="Group_5831" data-name="Group 5831" transform="translate(1780 -2292)">
    <rect id="Rectangle_2920" data-name="Rectangle 2920" width="65" height="65" transform="translate(-1780 2292)" fill="#fff" opacity="0"/>
    <g id="Group_5830" data-name="Group 5830" transform="translate(-1767.101 2298.287)">
      <path id="Path_9323" data-name="Path 9323" d="M933.925,555.659l-3.03.628a4.756,4.756,0,0,1-4.835-1.893l-1.066-1.493a.951.951,0,0,0-1.641.165l-4.993,11.178a.95.95,0,0,0,1.052,1.32l2.328-.46a4.756,4.756,0,0,1,4.906,2.07l1.4,2.147a.951.951,0,0,0,1.669-.142l5.278-12.214A.95.95,0,0,0,933.925,555.659Z" transform="translate(-915.293 -517.328)" fill="url(#linear-gradient)"/>
      <path id="Path_9324" data-name="Path 9324" d="M973.874,553.71a1.085,1.085,0,0,0-1.922-.141l-1.549,2.516a2.875,2.875,0,0,1-3.338,1.227l-.79-.257a1.593,1.593,0,0,0-1.839.662l-.713,1.126a1.593,1.593,0,0,0-.123,1.468l3.7,8.833a1.231,1.231,0,0,0,2.2.143l1.451-2.493a2.875,2.875,0,0,1,3.07-1.368l3.365.7a1.056,1.056,0,0,0,1.185-1.45Z" transform="translate(-942.472 -517.657)" fill="url(#linear-gradient)"/>
      <circle id="Ellipse_164" data-name="Ellipse 164" cx="4.92" cy="4.92" r="4.92" transform="translate(13.956 12.037) rotate(-9.217)" fill="url(#linear-gradient)"/>
      <path id="Path_9325" data-name="Path 9325" d="M939.044,476.206a13.867,13.867,0,1,0,13.867,13.867A13.882,13.882,0,0,0,939.044,476.206Zm10.045,21.039a1.8,1.8,0,0,1-1.455.9c-.759-2.222-4.315-3.9-8.59-3.9-4.037,0-7.433,1.5-8.438,3.538-1.4.035-1.618-.177-2.688-2.428-3.894-8.2,2.06-17.587,11.97-17.581a11.541,11.541,0,0,1,10.121,6.682C952.267,488.827,951.833,493.143,949.089,497.245Z" transform="translate(-919.443 -471.45)" fill="url(#linear-gradient)"/>
      <path id="Path_9326" data-name="Path 9326" d="M949.191,481.6A7.424,7.424,0,0,1,946.3,473c.4-1.393-.2-2.194-1.674-2.225a7.194,7.194,0,0,1-7.071-5.09c-.554-1.46-1.427-1.813-2.749-.927-2.92,1.958-5.828,2.3-8.79.037-1.238-.947-2.241-.431-2.721.883a7.126,7.126,0,0,1-7.048,5.093c-1.456.043-2.125.794-1.732,2.193a7.413,7.413,0,0,1-2.861,8.6c-.878.669-1.251,1.615-.3,2.337,3.167,2.419,4.3,5.433,3.1,9.18-.146,1.4.565,1.884,1.758,1.9a7.108,7.108,0,0,1,6.982,4.92c.666,1.7,1.548,1.924,3.023.978a7.28,7.28,0,0,1,8.4,0c1.675,1.056,2.257.866,2.956-.942a7.033,7.033,0,0,1,6.757-4.928c1.723-.053,2.281-.922,1.914-2.383a7.416,7.416,0,0,1,2.916-8.413C950.252,483.384,950.289,482.441,949.191,481.6Zm-18.8,15.968A14.664,14.664,0,1,1,945.059,482.9,14.681,14.681,0,0,1,930.4,497.563Z" transform="translate(-910.795 -464.276)" fill="url(#linear-gradient)"/>
    </g>
  </g>
</svg>
