<svg id="Layer_1" data-name="Layer 1" xmlns="http://www.w3.org/2000/svg" xmlns:xlink="http://www.w3.org/1999/xlink" viewBox="0 0 227 168.66"><defs><style>.cls-1{fill:none;}.cls-2{fill:#fff;}.cls-3{fill:#663a89;}.cls-4,.cls-6{fill:#251d36;}.cls-5{fill:#422859;}.cls-6,.cls-7{opacity:0.44;}.cls-6{isolation:isolate;}.cls-8{opacity:0.15;}.cls-9{clip-path:url(#clip-path);}.cls-10{fill:#6e3590;}.cls-11{fill:#46255c;}.cls-12{fill:#9b9b9b;}.cls-13{fill:#885daa;}</style><clipPath id="clip-path"><path class="cls-1" d="M113.46,155.18c3-1.51,7.27-3.71,8-4.14,15.05-8.71,27.14-22,36-39.7,0,0-27.36,2.57-44,2.27h-.08c-16.66.3-44-2.27-44-2.27,8.87,17.66,21,31,36,39.7.74.43,5,2.63,8,4.14Z"/></clipPath></defs><g id="Group_5733" data-name="Group 5733"><path id="Path_9182" data-name="Path 9182" class="cls-2" d="M110.3,167.71a67.74,67.74,0,0,1-11.53-5.26c-15.09-8.73-27.6-21.46-37.2-37.85a134.47,134.47,0,0,1-7.18-14.17c-15.29-1.54-30.68-3.7-45.8-6.41L0,102.48,8.3,60.33l8.08,1.18c8.3,1.22,16.8,2.29,25.33,3.2a205.72,205.72,0,0,1-2.26-38.25l.35-6.14L113.43,0l73.33,20.33.35,6.13a204.64,204.64,0,0,1-2.25,38.15c8.63-.91,17.26-2,25.73-3.2l8.06-1.16L227,102.36l-8.66,1.57c-15.24,2.75-30.76,4.93-46.17,6.49A133.28,133.28,0,0,1,165,124.58c-9.6,16.39-22.11,29.12-37.19,37.85a62.6,62.6,0,0,1-12,5.33l-2.76.9Z"/><g id="Group_5722" data-name="Group 5722"><path id="Path_9183" data-name="Path 9183" class="cls-1" d="M123.52,155c60.41-35,55-128.06,55-128.06l-65.12-18L48,27s-5.38,93.11,55,128.07a58.64,58.64,0,0,0,10.07,4.59h0A54.68,54.68,0,0,0,123.52,155Z"/></g><g id="Group_5723" data-name="Group 5723"><path id="Path_9184" data-name="Path 9184" class="cls-3" d="M112,163a63.48,63.48,0,0,1-10.68-4.87c-14.33-8.29-26.23-20.41-35.39-36-7.26-12.39-12.8-27-16.49-43.4a206.39,206.39,0,0,1-4.94-51.91l.14-2.56,68.83-19,68.53,19,.15,2.55a206.78,206.78,0,0,1-4.94,51.9c-3.69,16.4-9.23,31-16.49,43.4-9.15,15.62-21.05,27.75-35.37,36A58.78,58.78,0,0,1,114.25,163l-1.15.37Z"/><path id="Path_9185" data-name="Path 9185" class="cls-4" d="M123.52,155c60.41-35,55-128.06,55-128.06l-65.12-18L48,27s-5.38,93.11,55,128.07a58.64,58.64,0,0,0,10.07,4.59h0A54.68,54.68,0,0,0,123.52,155Z"/></g><g id="Group_5724" data-name="Group 5724"><path id="Path_9186" data-name="Path 9186" class="cls-2" d="M111.86,22.32q-7.27,0-14.53.73c-.37,1.85-.76,3.69-1.15,5.54a11,11,0,0,1,1.18-1.08,7,7,0,0,1,1.09-.79,2.65,2.65,0,0,1,1.09-.39c.93-.08,1.86-.14,2.81-.2q0,3.6,0,7.22a2.29,2.29,0,0,1,0,.25,1.72,1.72,0,0,1-.18.54,4.36,4.36,0,0,1-.52.75,5.18,5.18,0,0,1-1,.85,8.76,8.76,0,0,1,.82.66,3.24,3.24,0,0,1,.58.59,1.58,1.58,0,0,1,.28.62c0,3,0,6,0,9a1.32,1.32,0,0,1-.2.7,4.81,4.81,0,0,1-.45.66,5.42,5.42,0,0,1-.65.71c2.3-.17,4.62-.3,6.94-.36a3,3,0,0,1-.7-.62,4.27,4.27,0,0,1-.45-.6,1.22,1.22,0,0,1-.2-.66q0-4.55,0-9.07a1.55,1.55,0,0,1,.3-.65,4.57,4.57,0,0,1,.58-.66c.25-.24.53-.48.82-.73a5.18,5.18,0,0,1-1-.73,2.55,2.55,0,0,1-.5-.67,3.24,3.24,0,0,1-.19-.52,1.45,1.45,0,0,1,0-.28V25.9c1,0,2-.07,3-.08a2.06,2.06,0,0,1,1.09.28,8,8,0,0,1,1.12.68,10.89,10.89,0,0,1,1.18.95Z"/><path id="Path_9187" data-name="Path 9187" class="cls-2" d="M115.08,33.28a1.58,1.58,0,0,1-.18.53,3.26,3.26,0,0,1-.52.7,4.82,4.82,0,0,1-1,.78,9.28,9.28,0,0,1,.82.71,3.84,3.84,0,0,1,.58.63,1.52,1.52,0,0,1,.28.62V46a1.89,1.89,0,0,1-.2.84,4.64,4.64,0,0,1-.45.7c-.2.24-.4.48-.62.7,2.27,0,4.55.08,6.83.2a3.65,3.65,0,0,1-.66-.7,3.17,3.17,0,0,1-.43-.76,2.32,2.32,0,0,1-.19-.94c0-2.87,0-5.75,0-8.63a1.22,1.22,0,0,1,.28-.61,4,4,0,0,1,.58-.59,9,9,0,0,1,.83-.67,5.08,5.08,0,0,1-1-.82,3.68,3.68,0,0,1-.51-.73,2.1,2.1,0,0,1-.19-.53,2.35,2.35,0,0,1,0-.26c0-2.87,0-5.74,0-8.6a1.85,1.85,0,0,1,.19-.84,2.88,2.88,0,0,1,.43-.66,2.56,2.56,0,0,1,.66-.57c-2.28-.11-4.53-.19-6.8-.2a4.21,4.21,0,0,1,.62.71,5.41,5.41,0,0,1,.45.72,1.62,1.62,0,0,1,.2.78V33A1.94,1.94,0,0,1,115.08,33.28Z"/><path id="Path_9188" data-name="Path 9188" class="cls-2" d="M96.53,44.42a8.55,8.55,0,0,1-1.91,1.29,3.89,3.89,0,0,1-1.15.38c-1.28.17-2.55.35-3.83.56,0-2.49,0-5,0-7.47a1.86,1.86,0,0,1,.31-.67,5.14,5.14,0,0,1,.59-.72c.25-.28.5-.54.78-.82a3.68,3.68,0,0,1-.93-.62,2.92,2.92,0,0,1-.48-.63,1.46,1.46,0,0,1-.2-.5,1.26,1.26,0,0,1,0-.28c0-2.86,0-5.7,0-8.57A3.15,3.15,0,0,1,91,24.05c-2.26.35-4.51.74-6.77,1.17a2.59,2.59,0,0,1,.61.48,2.7,2.7,0,0,1,.43.63,1.81,1.81,0,0,1,.2.91c0,2.82,0,5.62,0,8.44a1.93,1.93,0,0,1,0,.24,2.25,2.25,0,0,1-.19.57,5.16,5.16,0,0,1-.51.8,5.82,5.82,0,0,1-1,1,8.77,8.77,0,0,1,.81.54,3.06,3.06,0,0,1,.56.52,1.19,1.19,0,0,1,.28.56c0,2.8,0,5.6,0,8.4v.08a2.56,2.56,0,0,1-.2.9,9.61,9.61,0,0,1-.45.91,9.33,9.33,0,0,1-.66,1c3.81-.74,7.66-1.33,11.5-1.8.49-1.82,1-3.64,1.45-5.44A6.51,6.51,0,0,1,96.53,44.42Z"/><path id="Path_9189" data-name="Path 9189" class="cls-2" d="M81.64,37.28a1.93,1.93,0,0,1-.2-.52,2.85,2.85,0,0,1,0-.3c0-2.81,0-5.61,0-8.43a2.17,2.17,0,0,1,.2-.87,7.22,7.22,0,0,1,.46-.82,3.92,3.92,0,0,1,.65-.81c-2.24.46-4.48,1-6.7,1.54.2.17.4.34.59.52a3.32,3.32,0,0,1,.44.55,1.19,1.19,0,0,1,.2.6c0,2.88,0,5.78-.05,8.66a2.27,2.27,0,0,1-.17.77,5,5,0,0,1-.51.86,6.23,6.23,0,0,1-1,1.07c.27.16.53.33.79.51a2.67,2.67,0,0,1,.56.5,1.42,1.42,0,0,1,.28.58c0,1.82,0,3.63,0,5.43a2.32,2.32,0,0,1-.64,1.52,2.89,2.89,0,0,1-1.56,1l-1.2.31a1.88,1.88,0,0,1-1.52-.14,1.22,1.22,0,0,1-.64-1.18c0-1.83,0-3.65,0-5.49a2.2,2.2,0,0,1,.31-.7,8.75,8.75,0,0,1,.58-.78c.24-.31.49-.6.76-.89a2.49,2.49,0,0,1-.92-.46,2.26,2.26,0,0,1-.46-.56,1.64,1.64,0,0,1-.2-.5c0-.16,0-.25,0-.3,0-2.9,0-5.79.07-8.68a1.61,1.61,0,0,1,.2-.77,5.7,5.7,0,0,1,.43-.76,8.12,8.12,0,0,1,.64-.81c-2.22.61-4.43,1.28-6.63,2a3.36,3.36,0,0,1,.6.45,2.92,2.92,0,0,1,.43.5,1.27,1.27,0,0,1,.19.68v.43c0,2.72,0,5.46-.06,8.18a3,3,0,0,1-.17.79,6,6,0,0,1-.5.89,9,9,0,0,1-1,1.15,7,7,0,0,1,.79.45,2.2,2.2,0,0,1,.54.47,1,1,0,0,1,.28.54c0,1.82,0,3.63,0,5.43a3.94,3.94,0,0,0,.48,2,3.72,3.72,0,0,0,1.34,1.36,4.87,4.87,0,0,0,2,.62,7.41,7.41,0,0,0,2.48-.25l1.2-.31a8.32,8.32,0,0,0,2.47-1.06,8.76,8.76,0,0,0,2-1.68,8,8,0,0,0,1.37-2.07,5.42,5.42,0,0,0,.51-2.28c0-1.84,0-3.66,0-5.5a2.2,2.2,0,0,1,.31-.68,6.29,6.29,0,0,1,.59-.75c.25-.28.52-.56.78-.82a2.31,2.31,0,0,1-.92-.56A2.65,2.65,0,0,1,81.64,37.28Z"/><path id="Path_9190" data-name="Path 9190" class="cls-2" d="M142.68,38.94a8.77,8.77,0,0,1,.81-.54,6.23,6.23,0,0,1-1-1,4.25,4.25,0,0,1-.51-.81,1.77,1.77,0,0,1-.19-.56,1.94,1.94,0,0,1,0-.24c0-2.76,0-5.51,0-8.27a1.9,1.9,0,0,1,.17-.88,4.06,4.06,0,0,1,.42-.7,3.47,3.47,0,0,1,.64-.63q-3.87-.77-7.78-1.35a6.18,6.18,0,0,1,.66.78,2.43,2.43,0,0,1,.38.71,1.48,1.48,0,0,1,.07.78q-1.71,4.89-3.43,9.82l-3.54-10.8a1,1,0,0,1,0-.75,2.92,2.92,0,0,1,.4-.59,2.88,2.88,0,0,1,.65-.56c-2.61-.31-5.22-.54-7.84-.71a5,5,0,0,1,.66.71,4.36,4.36,0,0,1,.45.67,1.37,1.37,0,0,1,.2.65c0,2.91,0,5.84,0,8.75a2.18,2.18,0,0,1,0,.25,1.57,1.57,0,0,1-.19.51,3.7,3.7,0,0,1-.51.67,4.25,4.25,0,0,1-1,.71,10.09,10.09,0,0,1,.83.77,4,4,0,0,1,.57.65,1.51,1.51,0,0,1,.3.64c0,2.86,0,5.74,0,8.6a1.7,1.7,0,0,1-.2.74c-.14.27-.29.52-.45.77a8.35,8.35,0,0,1-.66.81c2.24.15,4.48.34,6.72.59a5.38,5.38,0,0,1-.65-.78,6.18,6.18,0,0,1-.45-.79,2.25,2.25,0,0,1-.2-1l0-14.52q2.44,7.35,4.87,14.8,2.4-6.84,4.79-13.56c0,5,.05,10,.06,15a1.11,1.11,0,0,1-.2.61,4.6,4.6,0,0,1-.45.56c-.19.2-.39.4-.61.6q3.31.54,6.63,1.18a5.37,5.37,0,0,1-.65-.84,4.16,4.16,0,0,1-.44-.8,2.59,2.59,0,0,1-.19-.9c0-2.91,0-5.8,0-8.7a1.22,1.22,0,0,1,.28-.57A2.11,2.11,0,0,1,142.68,38.94Z"/><path id="Path_9191" data-name="Path 9191" class="cls-2" d="M159.92,41.86a5,5,0,0,1-.48-.84,2.49,2.49,0,0,1-.2-.6,2.34,2.34,0,0,1-.05-.3c0-1.78,0-3.56,0-5.35a6,6,0,0,0-.52-2.33,8.68,8.68,0,0,0-1.35-2.19,9.44,9.44,0,0,0-2-1.8,8,8,0,0,0-2.46-1.12L151.59,27a6,6,0,0,0-2.46-.17,4.89,4.89,0,0,0-2,.74,4.11,4.11,0,0,0-1.39,1.48,4.07,4.07,0,0,0-.5,2.07c0,1.79,0,3.56,0,5.35a.75.75,0,0,1,0,.3,1.74,1.74,0,0,1-.2.49,2.6,2.6,0,0,1-.48.57,3.36,3.36,0,0,1-.94.58c.28.3.53.59.78.87A5.1,5.1,0,0,1,145,40a2.69,2.69,0,0,1,.32.69c0,1.83,0,3.65,0,5.49a5.55,5.55,0,0,0,.51,2.3,7.78,7.78,0,0,0,1.4,2.1,10.71,10.71,0,0,0,2,1.7,8.89,8.89,0,0,0,2.47,1.07l1.2.28a6.81,6.81,0,0,0,2.46.24,4.94,4.94,0,0,0,2-.64,3.7,3.7,0,0,0,1.35-1.37,4,4,0,0,0,.48-2c0-1.84,0-3.66-.05-5.5a1.15,1.15,0,0,1,.28-.52,1.82,1.82,0,0,1,.55-.45,7.75,7.75,0,0,1,.79-.46A4.57,4.57,0,0,1,159.92,41.86Zm-5.49,7.84a1.59,1.59,0,0,1-1.54.26l-1.22-.28a2.8,2.8,0,0,1-1.56-1.1,2.86,2.86,0,0,1-.63-1.65c0-1.76,0-3.51,0-5.27a1.07,1.07,0,0,1,.3-.55,3,3,0,0,1,.58-.48l.76-.51a7.35,7.35,0,0,1-.93-1,4.79,4.79,0,0,1-.48-.81,2.49,2.49,0,0,1-.2-.58c0-.1,0-.2-.05-.3,0-1.71,0-3.42,0-5.13a1.67,1.67,0,0,1,1.66-1.69,1.52,1.52,0,0,1,.52.07l1.24.33a2.83,2.83,0,0,1,1.53,1.1,2.76,2.76,0,0,1,.65,1.65c0,1.71,0,3.42,0,5.13a1.27,1.27,0,0,1,0,.28,1.74,1.74,0,0,1-.2.49,2.84,2.84,0,0,1-.5.54,3.63,3.63,0,0,1-.93.5l.76.89a4.66,4.66,0,0,1,.56.76,2.81,2.81,0,0,1,.33.7c0,1.79,0,3.56,0,5.35a1.56,1.56,0,0,1-.61,1.3Z"/><path id="Path_9192" data-name="Path 9192" class="cls-2" d="M109.34,62.75a.65.65,0,0,1-.15-.23c-.11-.33-.24-.66-.36-1s-.24-.61-.36-1a2.06,2.06,0,0,0,.64-.57,1.41,1.41,0,0,0,.25-.77c0-.57,0-1.13,0-1.71a1.23,1.23,0,0,0-.12-.59,1.6,1.6,0,0,0-.36-.46,1.51,1.51,0,0,0-.53-.32,1.68,1.68,0,0,0-.67-.09c-.73,0-1.44.09-2.17.16a1.53,1.53,0,0,0,.14.21,2,2,0,0,1,.11.2.57.57,0,0,1,0,.22c0,.77-.11,1.53-.15,2.29a.24.24,0,0,1,0,.08.39.39,0,0,1-.06.15,1.43,1.43,0,0,1-.14.2,2.09,2.09,0,0,1-.28.24.87.87,0,0,1,.22.17s.09.1.14.15a.49.49,0,0,1,.06.17c-.06.83-.11,1.67-.17,2.49a.35.35,0,0,1-.06.17l-.14.19c-.07.08-.13.14-.19.22l1.91-.14c-.06-.07-.12-.13-.17-.2a1.18,1.18,0,0,1-.11-.19.41.41,0,0,1,0-.19l.09-1.74.62,0c.19.57.37,1.13.58,1.71a.46.46,0,0,1,0,.26.66.66,0,0,1-.09.19,1.14,1.14,0,0,1-.11.11s-.06,0-.08,0l2.13-.1a1.88,1.88,0,0,1-.23-.16A1.54,1.54,0,0,1,109.34,62.75Zm-1.15-3.45a.47.47,0,0,1-.19.37.63.63,0,0,1-.43.19h0l-.81,0c.06-.92.11-1.85.15-2.77l.77,0a.54.54,0,0,1,.42.12.48.48,0,0,1,.15.37C108.24,58.16,108.21,58.72,108.19,59.3Z"/><path id="Path_9193" data-name="Path 9193" class="cls-2" d="M121.35,63.43l-.14-.21a.92.92,0,0,1-.08-.27c-.06-.79-.14-1.59-.21-2.38a.2.2,0,0,1,.06-.15.36.36,0,0,1,.14-.16l.2-.17-.28-.25a1.77,1.77,0,0,1-.16-.22.59.59,0,0,1-.06-.14.19.19,0,0,1,0-.08c-.08-.79-.14-1.58-.22-2.38a.46.46,0,0,1,0-.23.56.56,0,0,1,.09-.17,1.07,1.07,0,0,1,.16-.14c-.59-.08-1.19-.14-1.79-.2l.17.22a1.43,1.43,0,0,1,.14.2.42.42,0,0,1,.08.22c.06.77.12,1.57.18,2.34v.07a.18.18,0,0,1,0,.14.57.57,0,0,1-.12.18,1.1,1.1,0,0,1-.25.19l.23.22a1.54,1.54,0,0,1,.17.19,1.62,1.62,0,0,1,.1.18l.18,2.4a.51.51,0,0,1,0,.24.54.54,0,0,1-.11.18.52.52,0,0,1-.16.17l1.93.22A.67.67,0,0,1,121.35,63.43Z"/><path id="Path_9194" data-name="Path 9194" class="cls-2" d="M94.84,58.12a.34.34,0,0,1,0,.17.83.83,0,0,1,0,.22c-.47,1.35-1,2.69-1.45,4,0-1.2,0-2.41,0-3.61v0a.42.42,0,0,1,.09-.24,1.5,1.5,0,0,1,.19-.25,3.19,3.19,0,0,1,.26-.26.79.79,0,0,1-.22.06l-1.51.4-.22.07a.85.85,0,0,1,.19.14.5.5,0,0,1,.11.17.45.45,0,0,1,0,.23l0,0,0,0-1.5,4c0-1.22.07-2.45.12-3.68a.54.54,0,0,1,0-.22.94.94,0,0,1,.12-.22,2,2,0,0,1,.17-.23c-.57.17-1.13.34-1.71.53a.57.57,0,0,1,.16.11.3.3,0,0,1,.1.14.38.38,0,0,1,0,.21c0,.75-.06,1.5-.09,2.23a.9.9,0,0,1-.06.22,2.4,2.4,0,0,1-.18.26,1.85,1.85,0,0,1-.37.37l.28.13a1.39,1.39,0,0,1,.19.15.35.35,0,0,1,.08.24l-.05,2.14a.92.92,0,0,1-.08.27,1.38,1.38,0,0,1-.14.24,1.31,1.31,0,0,1-.22.25h0c.64-.18,1.26-.37,1.9-.54l0,0L91,65.78a.24.24,0,0,1-.06-.11.47.47,0,0,1,0-.17.59.59,0,0,1,0-.23c.43-1.14.87-2.27,1.29-3.41v3.06a.59.59,0,0,1,0,.23.91.91,0,0,1-.11.22.66.66,0,0,1-.12.17.52.52,0,0,0-.1.11l0,0q1-.25,1.92-.48h0a.32.32,0,0,1-.14-.14.7.7,0,0,1-.06-.19.57.57,0,0,1,0-.26c.3-.8.59-1.58.87-2.37a1,1,0,0,1,.19-.3l.3-.28.39-.3a.62.62,0,0,1-.25-.17A.48.48,0,0,1,95,61a.19.19,0,0,1,0-.15.34.34,0,0,1,0-.1c.3-.81.58-1.63.89-2.51a.87.87,0,0,1,.14-.27l.18-.22.24-.21c-.59.12-1.17.26-1.75.4A.31.31,0,0,1,94.84,58.12Z"/><path id="Path_9195" data-name="Path 9195" class="cls-2" d="M116.61,62.87a.74.74,0,0,1-.17-.25c-.14-.34-.3-.66-.44-1s-.28-.62-.43-1a1.45,1.45,0,0,0,.59-.51,1.17,1.17,0,0,0,.2-.75c0-.57,0-1.13-.08-1.71a1.73,1.73,0,0,0-.56-1.12,2.19,2.19,0,0,0-.56-.35,1.73,1.73,0,0,0-.67-.16c-.72,0-1.45,0-2.18,0a1.84,1.84,0,0,1,.17.22,1.37,1.37,0,0,1,.13.2.43.43,0,0,1,.06.22c0,.76,0,1.52,0,2.29,0,0,0,0,0,.07l-.06.14a.94.94,0,0,1-.14.19l-.27.2.24.2a1.22,1.22,0,0,1,.15.17.53.53,0,0,1,.08.17c0,.83,0,1.65,0,2.48a.39.39,0,0,1-.06.15,1.22,1.22,0,0,1-.12.19,1.63,1.63,0,0,1-.17.2c.64,0,1.27,0,1.91,0-.06-.08-.12-.14-.19-.22a1.32,1.32,0,0,1-.12-.2.3.3,0,0,1-.06-.18c0-.58,0-1.17,0-1.75l.62,0c.23.59.48,1.18.71,1.77a.5.5,0,0,1,0,.27.65.65,0,0,1-.08.17l-.11.11a.12.12,0,0,1-.08,0c.7,0,1.42.06,2.14.14a2.7,2.7,0,0,1-.25-.18A1.89,1.89,0,0,1,116.61,62.87ZM115,59.62a.65.65,0,0,1-.44.14h-.81c0-.94,0-1.85-.05-2.77h.77a.74.74,0,0,1,.43.17.51.51,0,0,1,.19.39c0,.58.05,1.14.06,1.71a.4.4,0,0,1-.15.36Z"/><path id="Path_9196" data-name="Path 9196" class="cls-2" d="M102.2,60.29a1.88,1.88,0,0,1,.24-.25.57.57,0,0,1-.28-.11.36.36,0,0,1-.16-.14.63.63,0,0,1-.11-.28c0-.76-.08-1.52-.12-2.28a.28.28,0,0,1,0-.2c0-.1.1-.16.14-.24a2.31,2.31,0,0,1,.2-.24q-1.35.18-2.67.42l.14.2.09.18a.41.41,0,0,1,0,.22s-.09.26-.22.7-.28,1-.48,1.7a.45.45,0,0,1-.11.23,2.5,2.5,0,0,1-.22.24,2.76,2.76,0,0,1-.39.28c.07.06.11.14.18.2l.1.21a.29.29,0,0,1,0,.27l-.7,2.43a.56.56,0,0,1-.09.17l-.14.18a1.8,1.8,0,0,1-.19.2l1.88-.32c0-.07-.11-.13-.15-.2s-.07-.13-.1-.2a.33.33,0,0,1,0-.24l.24-.82,1.52-.23c0,.07,0,.17,0,.24s0,.16,0,.25,0,.19,0,.28a.6.6,0,0,1-.06.27,2,2,0,0,1-.14.25,2.62,2.62,0,0,1-.22.25c.64-.1,1.27-.18,1.91-.31a2.09,2.09,0,0,0-.14-.17l-.09-.16a.49.49,0,0,1-.06-.17,2.11,2.11,0,0,0,0-.25c0-.14,0-.33,0-.54s0-.45,0-.72,0-.51,0-.76a.45.45,0,0,1,.06-.28A2.94,2.94,0,0,1,102.2,60.29Zm-1.54-2.4c0,1.17.1,2.35.16,3.52l-1.18.18q.52-1.86,1-3.69Z"/><path id="Path_9197" data-name="Path 9197" class="cls-2" d="M128.26,61.49a.58.58,0,0,1,.19-.16.67.67,0,0,1-.25-.3,1.28,1.28,0,0,1-.17-.22,1.09,1.09,0,0,1-.08-.15l0-.08c-.08-.5-.17-1-.25-1.49a1.59,1.59,0,0,0-.23-.64,3.6,3.6,0,0,0-.45-.58,3.68,3.68,0,0,0-.59-.45,2.49,2.49,0,0,0-.69-.25l-.33-.06a1.34,1.34,0,0,0-.63,0,1.13,1.13,0,0,0-.5.25,1.16,1.16,0,0,0-.32.44,1.23,1.23,0,0,0-.06.57c.06.48.13,1,.19,1.48v.08a.35.35,0,0,1,0,.14.62.62,0,0,1-.11.17.48.48,0,0,1-.23.17l.23.23c.06.07.12.13.17.2a.52.52,0,0,1,.11.19c.06.51.12,1,.19,1.53a1.44,1.44,0,0,0,.22.63,2.5,2.5,0,0,0,.46.57,3.27,3.27,0,0,0,.62.43,2.42,2.42,0,0,0,.74.26l.34.07a1.94,1.94,0,0,0,.68,0,1.18,1.18,0,0,0,.53-.22.88.88,0,0,0,.31-.42,1.22,1.22,0,0,0,.05-.57c-.08-.52-.17-1-.25-1.54a.3.3,0,0,1,0-.16A.49.49,0,0,1,128.26,61.49ZM127,63.37a.43.43,0,0,1-.42.11h0a1.61,1.61,0,0,1-.36-.1.85.85,0,0,1-.46-.28.8.8,0,0,1-.24-.45c-.06-.49-.14-1-.2-1.47a.23.23,0,0,1,.07-.15l.14-.14.18-.16a2.27,2.27,0,0,1-.28-.26,1.07,1.07,0,0,1-.15-.22.44.44,0,0,1-.08-.15s0-.06,0-.08c-.08-.48-.14-1-.2-1.43a.43.43,0,0,1,.1-.38.38.38,0,0,1,.39-.1,2.63,2.63,0,0,1,.34.06.85.85,0,0,1,.46.28,1,1,0,0,1,.23.45c.08.48.14,1,.22,1.43v.08l0,.14a1,1,0,0,1-.11.17,1.2,1.2,0,0,1-.24.15l.24.24a.86.86,0,0,1,.18.2.49.49,0,0,1,.11.18l.24,1.5a.44.44,0,0,1-.12.38Z"/><path id="Path_9198" data-name="Path 9198" class="cls-2" d="M135.74,66.36a1.66,1.66,0,0,1-.22-.3c-.21-.39-.42-.76-.62-1.15s-.39-.72-.6-1.14a.74.74,0,0,0,.46-.39,1.08,1.08,0,0,0,.05-.71c-.13-.59-.27-1.18-.4-1.78a2.26,2.26,0,0,0-.28-.66A3.43,3.43,0,0,0,133,59.11a2.43,2.43,0,0,0-.67-.32c-.72-.21-1.42-.4-2.13-.59l.2.27a1.5,1.5,0,0,1,.15.25.67.67,0,0,1,.1.23c.15.78.31,1.57.47,2.35v.08a.74.74,0,0,1,0,.14.46.46,0,0,1-.09.15.6.6,0,0,1-.22.16,3.32,3.32,0,0,1,.27.25l.18.22a.49.49,0,0,1,.11.2c.16.85.33,1.7.5,2.55a.21.21,0,0,1,0,.15l-.09.16a.7.7,0,0,1-.13.17l1.87.51a1.13,1.13,0,0,1-.23-.26l-.16-.24a.61.61,0,0,1-.09-.2c-.13-.59-.25-1.2-.38-1.78.2.06.4.1.61.17.34.67.69,1.32,1,2a.67.67,0,0,1,.06.28c0,.06,0,.12-.05.15s0,.07-.07.08l-.07,0c.69.2,1.37.42,2.1.59l-.26-.24Zm-2.17-3.64a.49.49,0,0,1-.39,0h0l-.77-.22c-.2-1-.38-1.9-.59-2.85l.73.22a1,1,0,0,1,.46.28.91.91,0,0,1,.24.44c.13.59.27,1.18.39,1.77a.29.29,0,0,1-.07.33Z"/></g><g id="Group_5725" data-name="Group 5725"><path id="Path_9199" data-name="Path 9199" class="cls-3" d="M77,60.78a.5.5,0,0,1-.45-.22l-.12-.23-2.77.16h0l2.92.95A1.77,1.77,0,0,1,77,60.78Z"/><path id="Path_9200" data-name="Path 9200" class="cls-5" d="M76.6,61.44l-2.92-.95,1.92,1.56a.56.56,0,0,0,.5.16.41.41,0,0,1,.42.15A1.69,1.69,0,0,1,76.6,61.44Z"/><path id="Path_9201" data-name="Path 9201" class="cls-5" d="M79.4,63.46l1.76,2.42h0c-.22-.82-.43-1.6-.63-2.38a.36.36,0,0,0-.3-.31.43.43,0,0,1-.34-.32A1.86,1.86,0,0,1,79.4,63.46Z"/><path id="Path_9202" data-name="Path 9202" class="cls-3" d="M78.84,63.77a1.27,1.27,0,0,1-.28.06.55.55,0,0,1,.23.38.41.41,0,0,0,.17.27c.67.45,1.35.89,2,1.33l.17.07-1.75-2.42A1.76,1.76,0,0,1,78.84,63.77Z"/><path id="Path_9203" data-name="Path 9203" class="cls-5" d="M75.44,65.92h0l2.22-1.43a.36.36,0,0,0,.11-.25.56.56,0,0,1,.22-.41,1.71,1.71,0,0,1-.78-.34Z"/><path id="Path_9204" data-name="Path 9204" class="cls-3" d="M76.64,62.77a.57.57,0,0,1-.28.39.53.53,0,0,0-.24.29c-.21.72-.39,1.45-.59,2.17a1.86,1.86,0,0,1-.1.25l0,0,1.76-2.42A1.77,1.77,0,0,1,76.64,62.77Z"/><path id="Path_9205" data-name="Path 9205" class="cls-5" d="M78.31,60.26V57.13h0c-.36.92-.68,1.75-1,2.6,0,.07,0,.18.09.26a.53.53,0,0,1,.06.49,1.67,1.67,0,0,1,.85-.2Z"/><path id="Path_9206" data-name="Path 9206" class="cls-3" d="M79.15,60.48l0,0a.47.47,0,0,1,.11-.59.3.3,0,0,0,0-.26c-.18-.51-.38-1-.57-1.53l-.38-.93v3.14A1.79,1.79,0,0,1,79.15,60.48Z"/><path id="Path_9207" data-name="Path 9207" class="cls-5" d="M80,61.43l2.94-1-2.83-.15a.22.22,0,0,0,0,.08.46.46,0,0,1-.51.32l0,0A1.94,1.94,0,0,1,80,61.43Z"/><path id="Path_9208" data-name="Path 9208" class="cls-3" d="M80,61.5a1.91,1.91,0,0,1,.06.82.59.59,0,0,1,.45-.09.45.45,0,0,0,.34-.07c.59-.46,1.17-.94,1.75-1.42l.31-.27-2.94,1S80,61.47,80,61.5Z"/><path id="Path_9209" data-name="Path 9209" class="cls-3" d="M77.84,61.84a.5.5,0,0,1,.29-.26.55.55,0,0,1,.18,0v-1.3a1.67,1.67,0,0,0-.85.2.5.5,0,0,1-.16.22.56.56,0,0,1-.28.1,1.73,1.73,0,0,0-.42.65Z"/><path id="Path_9210" data-name="Path 9210" class="cls-3" d="M78.31,61.56a.49.49,0,0,1,.41.27l1.25-.4a1.83,1.83,0,0,0-.5-.72.68.68,0,0,1-.32-.23,1.92,1.92,0,0,0-.85-.22Z"/><path id="Path_9211" data-name="Path 9211" class="cls-3" d="M77.21,63.49,78,62.44a.49.49,0,0,1-.14-.6l-1.24-.4a1.81,1.81,0,0,0-.09.92.61.61,0,0,1,.11.21.5.5,0,0,1,0,.21A1.72,1.72,0,0,0,77.21,63.49Z"/><path id="Path_9212" data-name="Path 9212" class="cls-3" d="M79.41,63.46l-.77-1.06a.48.48,0,0,1-.66,0l-.77,1.05a1.71,1.71,0,0,0,.78.34.39.39,0,0,1,.26-.09.49.49,0,0,1,.31.09,1.64,1.64,0,0,0,.84-.37Z"/><path id="Path_9213" data-name="Path 9213" class="cls-3" d="M80.06,62.33A1.94,1.94,0,0,0,80,61.5s0,0,0-.07l-1.25.4a.16.16,0,0,1,0,.07.51.51,0,0,1-.13.5l.77,1.06a1.86,1.86,0,0,0,.49-.59.48.48,0,0,1,0-.29A.45.45,0,0,1,80.06,62.33Z"/></g><g id="Group_5726" data-name="Group 5726"><path id="Path_9214" data-name="Path 9214" class="cls-3" d="M144.44,60.78a.5.5,0,0,1-.45-.22l-.12-.23-2.77.16h0l2.92.95A1.77,1.77,0,0,1,144.44,60.78Z"/><path id="Path_9215" data-name="Path 9215" class="cls-5" d="M144,61.44l-2.92-.95c.68.55,1.3,1,1.91,1.56a.58.58,0,0,0,.5.16.4.4,0,0,1,.42.15A1.8,1.8,0,0,1,144,61.44Z"/><path id="Path_9216" data-name="Path 9216" class="cls-5" d="M146.82,63.46l1.76,2.42h0c-.22-.82-.43-1.6-.63-2.38a.38.38,0,0,0-.3-.31.46.46,0,0,1-.35-.32A1.71,1.71,0,0,1,146.82,63.46Z"/><path id="Path_9217" data-name="Path 9217" class="cls-3" d="M146.26,63.77a1.4,1.4,0,0,1-.28.06.63.63,0,0,1,.23.38.41.41,0,0,0,.17.27c.67.45,1.35.89,2,1.33l.17.07-1.76-2.42A1.82,1.82,0,0,1,146.26,63.77Z"/><path id="Path_9218" data-name="Path 9218" class="cls-5" d="M142.86,65.92h0l2.22-1.43a.39.39,0,0,0,.1-.25.56.56,0,0,1,.22-.41,1.76,1.76,0,0,1-.78-.34Z"/><path id="Path_9219" data-name="Path 9219" class="cls-3" d="M144.05,62.77a.56.56,0,0,1-.27.39.49.49,0,0,0-.24.29c-.21.72-.4,1.45-.59,2.17a1.86,1.86,0,0,1-.1.25v0l1.77-2.42A1.88,1.88,0,0,1,144.05,62.77Z"/><path id="Path_9220" data-name="Path 9220" class="cls-5" d="M145.72,60.26V57.13h0c-.35.92-.68,1.75-1,2.6,0,.07,0,.18.08.26a.53.53,0,0,1,.07.49,1.65,1.65,0,0,1,.84-.2Z"/><path id="Path_9221" data-name="Path 9221" class="cls-3" d="M146.57,60.48l0,0a.47.47,0,0,1,.11-.59.3.3,0,0,0,0-.26c-.18-.51-.38-1-.58-1.53-.11-.29-.23-.57-.37-.93v3.14A1.79,1.79,0,0,1,146.57,60.48Z"/><path id="Path_9222" data-name="Path 9222" class="cls-5" d="M147.38,61.43l3-1-2.83-.15a.22.22,0,0,0-.05.08.46.46,0,0,1-.51.32l-.05,0A1.81,1.81,0,0,1,147.38,61.43Z"/><path id="Path_9223" data-name="Path 9223" class="cls-3" d="M147.41,61.5a1.77,1.77,0,0,1,.07.82.59.59,0,0,1,.45-.09.44.44,0,0,0,.33-.07c.59-.46,1.17-.94,1.75-1.42l.32-.27-3,1Z"/><path id="Path_9224" data-name="Path 9224" class="cls-3" d="M145.26,61.84a.48.48,0,0,1,.46-.28v-1.3a1.72,1.72,0,0,0-.85.2.44.44,0,0,1-.16.22.52.52,0,0,1-.27.1,1.73,1.73,0,0,0-.42.65Z"/><path id="Path_9225" data-name="Path 9225" class="cls-3" d="M145.72,61.56a.49.49,0,0,1,.42.27l1.24-.4a1.65,1.65,0,0,0-.5-.72.7.7,0,0,1-.31-.23,1.92,1.92,0,0,0-.85-.22Z"/><path id="Path_9226" data-name="Path 9226" class="cls-3" d="M144.63,63.49l.76-1.05a.49.49,0,0,1-.13-.6l-1.24-.4a1.81,1.81,0,0,0-.09.92.61.61,0,0,1,.11.21.5.5,0,0,1,0,.21A1.82,1.82,0,0,0,144.63,63.49Z"/><path id="Path_9227" data-name="Path 9227" class="cls-3" d="M146.82,63.46l-.77-1.06a.48.48,0,0,1-.66,0l-.77,1.05a1.76,1.76,0,0,0,.78.34.43.43,0,0,1,.26-.09.5.5,0,0,1,.32.09l.28-.06A1.82,1.82,0,0,0,146.82,63.46Z"/><path id="Path_9228" data-name="Path 9228" class="cls-3" d="M147.48,62.33a1.8,1.8,0,0,0-.07-.83.15.15,0,0,0,0-.07l-1.24.4,0,.07a.49.49,0,0,1-.12.5l.77,1.06a1.71,1.71,0,0,0,.48-.59.48.48,0,0,1,0-.29A.42.42,0,0,1,147.48,62.33Z"/></g><path id="Path_9229" data-name="Path 9229" class="cls-6" d="M178.55,27l-65.12-18L48,27s-5.38,93.11,55,128.07a58.64,58.64,0,0,0,10.07,4.59,54.68,54.68,0,0,0,10.38-4.6C183.93,120,178.55,27,178.55,27Zm-7.14,50.52c-3.55,15.8-8.88,29.82-15.83,41.67-8.62,14.71-19.8,26.11-33.21,33.87a52.1,52.1,0,0,1-9.2,4.16,55.87,55.87,0,0,1-9-4.15C90.79,145.25,79.6,133.84,71,119.1,64,107.23,58.68,93.2,55.13,77.37a207.76,207.76,0,0,1-4.87-48.65l63.17-17.43,62.88,17.43a208.12,208.12,0,0,1-4.9,48.76Z"/><g id="Group_5727" data-name="Group 5727" class="cls-7"><path id="Path_9230" data-name="Path 9230" class="cls-4" d="M179.27,67.92c-22.42,2.19-44.8,3.3-66.85,3.3-21.7,0-43.49-1.08-65.1-3.2.58,3.44,1.27,7,2.09,10.64a164.11,164.11,0,0,0,9.46,29.48c18.16,1.7,36.33,2.56,54.37,2.56h0c18.07,0,36.27-.86,54.47-2.57a164.91,164.91,0,0,0,9.46-29.48C178,75,178.68,71.39,179.27,67.92Z"/></g><g id="Group_5728" data-name="Group 5728"><path id="Path_9231" data-name="Path 9231" class="cls-3" d="M113.23,108.4A587.89,587.89,0,0,1,9.48,99.08l-3.57-.64L12.3,66l3.36.49a669.5,669.5,0,0,0,96.76,7,699.21,699.21,0,0,0,98.89-7.15l3.35-.48,6.44,32.45-3.65.66a588.33,588.33,0,0,1-104.21,9.4Z"/><path id="Path_9232" data-name="Path 9232" class="cls-4" d="M211.82,69.9A681.86,681.86,0,0,1,15.14,70l-5,25.57a578.74,578.74,0,0,0,206.71-.08v-.16Z"/></g><g id="Group_5729" data-name="Group 5729"><path id="Path_9233" data-name="Path 9233" class="cls-2" d="M25.34,89l-1.5,1-3.68-.55L19,88l.6-4-.36-.46.48-.34.6-4,1.5-1,3.65.55,1.15,1.36L26.39,82l-2-.31.13-.85-2.21-.34-.47,3.1.37.46-.49.33-.46,3.1,2.21.33.37-2.47-1.4-.21.31-2,3.44.52-.1.63.37.46-.49.33Z"/><path id="Path_9234" data-name="Path 9234" class="cls-2" d="M31.33,91l-5.08-.69.7-5.15-.37-.45.48-.34.7-5.15,2,.28-.7,5.15.38.46L29,85.4l-.42,3.1,3,.42Z"/><path id="Path_9235" data-name="Path 9235" class="cls-2" d="M39,90.75l-1.47,1-3.82-.47L32.58,90l.5-4-.38-.45.48-.35.49-4,1.46-1,3.81.48L40.12,82l-.49,4,.37.45-.47.34ZM37.47,86.5l-.39-.45.48-.35L38,82.6l-2.34-.29-.39,3.1.39.46-.48.34-.39,3.1,2.34.29Z"/><path id="Path_9236" data-name="Path 9236" class="cls-2" d="M40.56,86.87l-.39-.44.47-.35.58-5.17,4.91.55,1.18,1.32-.38,3.42-.9.87.68,1.07-.38,3.43-1.45,1L40,92Zm1.7,3.34,2.11.24L44.65,88l-2.11-.24Zm.51-4.54,2.11.24.28-2.48-2.11-.23Z"/><path id="Path_9237" data-name="Path 9237" class="cls-2" d="M52.27,93.35,52,90.82l-2.16-.22L49.12,93,47,92.82l3.34-10.91,2.89.29,1.11,11.35Zm-.46-4.63-.33-3.4-1,3.26Z"/><path id="Path_9238" data-name="Path 9238" class="cls-2" d="M60.58,94.11l-5.1-.46.46-5.17L55.55,88l.46-.36.46-5.17,2.06.18-.46,5.17.4.44-.47.36-.27,3.12,3,.27Z"/><path id="Path_9239" data-name="Path 9239" class="cls-2" d="M70.63,94.88l-.32-2.52-2.16-.16-.67,2.45-2.1-.15,3-11,2.9.21L72.74,95Zm-.58-4.61-.43-3.39-.91,3.29Z"/><path id="Path_9240" data-name="Path 9240" class="cls-2" d="M81.56,95.56l-2.07-.12.37-6.29-2,3.73-1.57-3.95-.37,6.3-2.06-.12.3-5.19-.41-.42.46-.38.31-5.19,2.06.13L78.13,88l2-3.73,2.07.12-.3,5.19.4.43-.46.37Z"/><path id="Path_9241" data-name="Path 9241" class="cls-2" d="M87.93,95.87l-.38-2.52-2.17-.1-.61,2.47-2.11-.1,2.76-11.08,2.9.14L90,96Zm-.7-4.6-.51-3.38-.83,3.31Z"/><path id="Path_9242" data-name="Path 9242" class="cls-2" d="M95.71,87l-2-.08-.12,3.13.42.42-.45.38-.2,5.19L91.24,96l.2-5.19L91,90.4l.45-.39.12-3.13-2-.07.08-2.07,6.17.23Z"/><path id="Path_9243" data-name="Path 9243" class="cls-2" d="M101.88,96.34l-5.4-.15L96.63,91l-.43-.41.45-.4L96.79,85l5.35.15-.06,2.06-3.28-.09-.07,2.5,2.83.07-.06,2.08-2.83-.08-.06,2.49,3.32.09Z"/><path id="Path_9244" data-name="Path 9244" class="cls-2" d="M109.46,95.3l-1.37,1.15-3.77-.06L103,95.2l.07-4-.43-.4.44-.4.09-5.2,2.06,0-.08,5.19.43.42-.44.39-.06,3.12,2.32,0,0-3.12-.43-.41.44-.4.09-5.19,2.07,0-.09,5.19.42.42-.43.39Z"/><path id="Path_9245" data-name="Path 9245" class="cls-2" d="M110.56,91.29l-.42-.4.43-.4Zm6.64,5.23H115l-1.73-4.57h-.62l0,4.56h-2.07l0-11.19,5,0,1.31,1.18,0,4.11-1.42,1.31Zm-4.56-6.66h2.15v-2.5h-2.15Z"/><path id="Path_9246" data-name="Path 9246" class="cls-2" d="M128.36,95.24,127,96.43l-3.72,0L122,95.32l-.06-4-.43-.39.42-.41,0-4,1.32-1.19,3.7-.05,1.36,1.15,0,1.76-2.07,0v-.86l-2.23,0,0,3.13.44.4-.43.4,0,3.13,2.24,0,0-2.5-1.4,0,0-2.07,3.47,0v.64l.44.4-.43.4Z"/><path id="Path_9247" data-name="Path 9247" class="cls-2" d="M134.48,96.26l-.57-2.48-2.16.06-.44,2.5-2.1.06,1.94-11.25,2.91-.07,2.53,11.13Zm-1-4.53-.76-3.33-.58,3.36Z"/><path id="Path_9248" data-name="Path 9248" class="cls-2" d="M145.42,95.86l-2.07.08-.26-6.3-1.64,3.92-1.95-3.78.25,6.31-2.06.08L137.48,91,137,90.6l.41-.42L137.23,85l2.07-.09,1.95,3.77,1.64-3.91,2.07-.09.21,5.19.45.39-.41.42Z"/><path id="Path_9249" data-name="Path 9249" class="cls-2" d="M148.6,95.69l-2.07.1-.26-5.18-.46-.38.42-.43L146,84.62l2.07-.11.27,5.19.44.38-.4.42Z"/><path id="Path_9250" data-name="Path 9250" class="cls-2" d="M154,95.38l-2.61-5.72.35,5.86-2,.12-.31-5.18-.46-.38.41-.43L149,84.47l2.22-.13,2.61,5.72-.35-5.86,2-.12.32,5.18.46.38-.41.42.31,5.17v0Z"/><path id="Path_9251" data-name="Path 9251" class="cls-2" d="M163.6,93.53l-1.25,1.27-3.7.27L157.25,94l-.3-4-.46-.36.4-.44-.3-4,1.25-1.27,3.69-.27L163,84.71l.13,1.75-2.06.15-.07-.86-2.23.17L159,89l.47.37-.4.43.23,3.12,2.23-.17-.18-2.48-1.41.1-.15-2.07,3.46-.26.05.64.46.37-.4.43Z"/><path id="Path_9252" data-name="Path 9252" class="cls-2" d="M173.56,93.82l-5.1.47L168,89.12l-.47-.35.39-.45-.48-5.17,2.06-.19.49,5.17.47.36-.4.44.29,3.11,3-.28Z"/><path id="Path_9253" data-name="Path 9253" class="cls-2" d="M180,93.13l-5.36.57-.55-5.16-.47-.35.39-.45-.55-5.16,5.32-.57.22,2-3.27.35.26,2.48,2.81-.3.22,2.06-2.81.3.26,2.48,3.31-.35Z"/><path id="Path_9254" data-name="Path 9254" class="cls-2" d="M186.36,92.38l-.8-2.41-2.15.26-.19,2.53-2.09.26L182,81.64l2.88-.35,3.57,10.84ZM184.91,88l-1.07-3.25-.26,3.4Z"/><path id="Path_9255" data-name="Path 9255" class="cls-2" d="M195.45,90l-1.16,1.34-3.69.51-1.46-1-.55-4-.48-.34.37-.46-.55-4,1.17-1.34,3.66-.5,1.49,1,.24,1.73-2.05.29-.12-.86-2.21.3.42,3.1.49.35-.38.45.43,3.1,2.22-.3L193,86.92l-1.4.19-.29-2,3.45-.48.08.63.49.35-.38.45Z"/><path id="Path_9256" data-name="Path 9256" class="cls-2" d="M202.89,88.85l-1.15,1.36-3.73.58-1.49-1-.61-4-.49-.33.37-.47L195,79.93l2-.32.79,5.14.49.33-.37.46.48,3.09,2.29-.35-.48-3.09-.49-.33.37-.46-.79-5.14,2-.31.79,5.13.49.34-.37.46Z"/><path id="Path_9257" data-name="Path 9257" class="cls-2" d="M209.48,88.92l-5.32.91-.87-5.12-.5-.32.36-.48-.87-5.12,5.27-.9.35,2-3.24.55.42,2.46,2.79-.48.34,2.05-2.78.47.41,2.46,3.28-.56Z"/></g><path id="Path_9258" data-name="Path 9258" class="cls-4" d="M216.49,63.3l-5.51.79c-9.7,1.39-19.55,2.6-29.34,3.59a204.62,204.62,0,0,0,2.76-41.06l-.24-4.2L113.43,2.82l-71,19.6-.24,4.2a205,205,0,0,0,2.78,41.17c-9.7-1-19.42-2.2-28.95-3.59l-5.53-.81L3.2,100.29l5.87,1.06c15.58,2.8,31.44,5,47.18,6.54a132.94,132.94,0,0,0,7.66,15.34c9.36,16,21.54,28.38,36.22,36.87a64.26,64.26,0,0,0,11.07,5.05l1.87.66,1.89-.62a60.3,60.3,0,0,0,11.5-5.1c14.67-8.49,26.85-20.9,36.21-36.87a134.5,134.5,0,0,0,7.65-15.34c15.86-1.56,31.85-3.78,47.55-6.61l5.94-1.08Zm1,35.7c-16.17,2.91-32.45,5.16-48.73,6.72a132.21,132.21,0,0,1-8,16.33c-9.16,15.63-21.06,27.76-35.38,36a58.06,58.06,0,0,1-11,4.91l-1.15.38L112,163a63.12,63.12,0,0,1-10.68-4.87C87,149.82,75.05,137.69,65.89,122.06a132.27,132.27,0,0,1-8-16.33C41.68,104.18,25.52,102,9.48,99.08l-3.57-.64L12.3,66l3.36.49q15.93,2.34,32.07,3.9a203.17,203.17,0,0,1-3.27-43.62l.15-2.55,68.82-19L182,24.2l.15,2.55a203.51,203.51,0,0,1-3.25,43.52q16.23-1.58,32.45-3.9l3.35-.48,6.43,32.44Z"/><g id="Group_5730" data-name="Group 5730" class="cls-8"><path id="Path_9259" data-name="Path 9259" class="cls-2" d="M216.49,63.3l-5.51.79c-9.7,1.39-19.55,2.6-29.34,3.59a204.62,204.62,0,0,0,2.76-41.06l-.24-4.2L113.43,2.82l-.4.11.2,162.83,1.73-.57a60.93,60.93,0,0,0,11.5-5.1c14.67-8.49,26.85-20.9,36.21-36.87a135.33,135.33,0,0,0,7.65-15.34c15.86-1.56,31.85-3.78,47.55-6.62l5.94-1.08Z"/></g><g id="Group_5732" data-name="Group 5732"><g class="cls-9"><g id="Group_5731" data-name="Group 5731"><g id="Group_2679" data-name="Group 2679"><path id="Path_5730" data-name="Path 5730" class="cls-2" d="M123.83,153.67l-.2-.13a19.77,19.77,0,0,0-14.8-2.52,25.62,25.62,0,0,0-7.1,2.53l-.19.11-8-4.93c-2.16-1.53-3.71-2.73-3.88-2.86l-.21-.17.06-.23a73.31,73.31,0,0,1,3.15-9.12L79.79,120.7l.68-.9a9.32,9.32,0,0,1,1.38-1.43,8.14,8.14,0,0,1,2.42-1.4l1-.35,7.92,9.9a5.93,5.93,0,0,1,.51-4.07,14.64,14.64,0,0,1,1.86-3.11l.22-.28.29.21A15.56,15.56,0,0,1,98.13,122l0,0,0,0h0l0,0v0l.1-.09s.09-.11.14-.17l0,0,.16-.18,0,0,.13-.14q.69-.94,1.47-1.83l0,0,.2-.22.26-.28.18-.18a37.78,37.78,0,0,1-3.73-7.37l-.08-.22-.05-.11a1.91,1.91,0,0,0-.16-.32v0c-.11-.19-.2-.2-.27-.2a.54.54,0,0,0-.22,0l-.13,0a5.76,5.76,0,0,0-1.91,1.66l-.38.52-.26-.59a6.47,6.47,0,0,1-.49-2v-.71c0-.12,0-.23,0-.35s0-.1,0-.14,0,0,0-.06a.22.22,0,0,0,0-.08s0,0,0,0a.59.59,0,0,1,0-.13s0-.07,0-.11v-.06l0-.13,0-.16,0-.13.08-.3.08-.29,0-.15.1-.27.08-.19h0c0-.06.05-.13.08-.19l0-.07v0a.33.33,0,0,0,0-.06v0l0-.06,0-.11,0-.06,0,0,.06-.13,0,0,.07-.14,0,0c.06-.11.12-.22.19-.33l0-.07.08-.12.11-.18.12-.18.12-.17a1.77,1.77,0,0,0,.12-.17c0-.06.08-.11.13-.16l.25-.33.13-.15.14-.16.14-.15.13-.15.14-.15.14-.15.14-.14.14-.13.18-.18.12-.11.13-.12,0,0,.12-.1.13-.12.16-.13a14.75,14.75,0,0,1,1.89-1.35c.59-.36,1.18-.69,1.67-1,.67-.36,1.36-.7,1.94-1l1-.49.16-.08.45-.2.76-.51v.7a24.83,24.83,0,0,1-1.49,3.07c-2.12,4.24-1.72,8.92,1.15,13.93l.32-.23.06,0,.06,0,.07-.05-.26-.52,0-.14c.29-.93,1.45-1.91,3.46-2.91h0a12.71,12.71,0,0,1,2-.7,11.29,11.29,0,0,0-.57-1.79,4.42,4.42,0,0,0-.51-1h0l-.11-.13-.64-.68,0,0h0l.19-.25.54-.63,0,0a13.53,13.53,0,0,0,1.41-2.18l.08-.17a8.13,8.13,0,0,0,.44-1c0-.07,0-.14.07-.2l1-3.18.31,0c.23,0,.29.21.34.38l.88,2.75c0,.07,0,.13.07.2.13.35.28.69.44,1l.09.16a12.58,12.58,0,0,0,1.41,2.19l0,0h0l.73.87h0l0,0-.63.68-.12.14a4.35,4.35,0,0,0-.51,1,12.42,12.42,0,0,0-.57,1.79,12.39,12.39,0,0,1,2,.7h0c2,1,3.17,2,3.45,2.91l0,.14-.25.52.06.05.06,0,.06,0,.32.23c2.88-5,3.27-9.68,1.15-13.92l-1.74-3.49.65,0a31.23,31.23,0,0,1,3.07,1.41l.07,0h0l.28.14.06,0h.05l.24.13.42.24.11.06.08,0,.11.07.42.26.17.1.2.13c.23.15.46.3.68.46l.07,0,.3.22.1.07.07.06.13.1c.21.16.43.33.65.52l.12.1a16.46,16.46,0,0,1,1.36,1.28l.14.15.15.17.12.13.25.3.09.12,0,0a1148157675068.14,1148157675068.14,0,0,1,.2.26l.12.16.11.15,0,0,.12.17.1.16,0,0a.86.86,0,0,1,.1.16l.15.24.06.12c0,.09.1.17.14.26s.05.09.07.14l.1.2,0,.1a1,1,0,0,0,0,.1l0,0s0,0,0,.06l0,.09.05.12s0,.07,0,.11l.08.21.12.4c0,.14.08.29.11.43s0,.13,0,.19v0s0,.07,0,.1a.11.11,0,0,1,0,0v.06a.17.17,0,0,1,0,.07l0,.15a.13.13,0,0,1,0,.06v.1s0,.06,0,.09v.22s0,.11,0,.17q0,.32,0,.6a.41.41,0,0,1,0,.11v.09a6.51,6.51,0,0,1-.48,1.88l-.26.59-.38-.52a5.71,5.71,0,0,0-1.91-1.65l-.13-.05a.78.78,0,0,0-.21,0c-.08,0-.17,0-.28.2l0,0-.15.31s0,.08,0,.12l-.09.22a37.7,37.7,0,0,1-3.73,7.36l.18.19h0l.2.21,0,.06.19.2,0,.06c.29.32.56.65.84,1s.41.53.63.83l.12.13,0,0,.08.09,0,.05,0,0,0,0,.13.17.1.09v0l0,0,0,0,0,0,0,0,.12-.19.3-.43.09-.12a8.32,8.32,0,0,1,1.6-1.94l.12-.05h.12c.22,0,.26.06.69.67q.47.68.87,1.38a8.66,8.66,0,0,1,1.28,4.07,4.46,4.46,0,0,1-.17,1.2l7.91-9.9,1,.34a8.17,8.17,0,0,1,2.42,1.41,8.49,8.49,0,0,1,1.38,1.43l.69.89-12.86,15.65a73.87,73.87,0,0,1,3.15,9.12l.07.26Zm-29.89-5.56,7.62,4.69a26.45,26.45,0,0,1,7.1-2.5,20.52,20.52,0,0,1,15.17,2.48l11.88-7.4a77.34,77.34,0,0,0-3.14-9l-.08-.2,12.76-15.54-.33-.42a7.16,7.16,0,0,0-1.27-1.31,7.41,7.41,0,0,0-2.19-1.28l-.46-.16L130.19,131l-.26-.52-.38-.71-.05-.1a.45.45,0,0,1-.06-.12l-.14-.28.25-.18a17.74,17.74,0,0,0,1.88-1.68,2.86,2.86,0,0,0,.84-2.12c0-2-1.54-4.37-2.14-5.2a17.25,17.25,0,0,0-1.16,1.51l-.09.13-.29.42-.21.31-.06.09,0,.07-.06.09,0,0v0l0,.06,0,0-.38.38-.22-.48,0,0,0-.05,0,0,0-.06-.07-.11v0l0,0,0-.07v0l0,0,0-.07,0,0h0l-.09-.09v0L127,122l-.1-.12-.07-.08,0,0h0l-.13-.15,0,0-.62-.83c-.27-.33-.53-.64-.82-1l0,0-.18-.19,0-.06-.19-.2,0,0-.24-.24-.36-.36.18-.26a36.06,36.06,0,0,0,3.82-7.47l.09-.22.05-.14c.06-.14.13-.28.2-.41l0,0a1.05,1.05,0,0,1,1.34-.47l.19.06a5.55,5.55,0,0,1,1.8,1.39,4.66,4.66,0,0,0,.21-1.05v-.17a5,5,0,0,0,0-.55.76.76,0,0,0,0-.15V109a.13.13,0,0,0,0-.06v-.09s0,0,0-.05l0-.3s0-.06,0-.09v-.05l0-.16c0-.13-.07-.26-.1-.39s-.07-.24-.12-.37,0-.13-.07-.2l0-.07v0a.42.42,0,0,1,0-.1l-.08-.19a.59.59,0,0,0,0-.08l0-.1-.09-.19-.06-.13-.13-.24L131,106a2.53,2.53,0,0,0-.13-.22,1.4,1.4,0,0,0-.1-.16l0,0-.1-.15c0-.06-.07-.11-.1-.16l0,0-.1-.15-.11-.15-.09-.12-.09-.12,0,0-.1-.12-.23-.28-.12-.13-.14-.16-.13-.14c-.41-.43-.85-.84-1.3-1.23l-.11-.08a6.88,6.88,0,0,0-.63-.5l-.13-.1-.07,0-.09-.07-.28-.21-.07,0-.65-.44-.2-.13-.16-.1-.42-.25-.1-.06-.07,0-.1-.06-.41-.23-.19-.1,0,0,0,0-.08,0-.2-.1,0,0,0,0-.05,0-2-.93,1,2c2.28,4.58,1.82,9.63-1.39,15l-.21.35-.59-.43-.38-.27-.06,0-.06,0-.32-.22-.26-.18.4-.83c-.3-.68-1.36-1.5-3-2.32a12,12,0,0,0-2.27-.74l-.36-.08.08-.36a12.69,12.69,0,0,1,.7-2.27,5.27,5.27,0,0,1,.62-1.14l.14-.16.2-.22h0l-.33-.38h0l-.06-.07a13.92,13.92,0,0,1-1.5-2.32l-.09-.18a10.53,10.53,0,0,1-.47-1.09c0-.08,0-.15-.08-.22-.15-.48-.38-1.19-.57-1.78l-.57,1.78a1.87,1.87,0,0,1-.07.22c-.14.37-.3.74-.47,1.09l-.09.18a15.32,15.32,0,0,1-1.5,2.32l-.06.07h0l-.34.4.22.23.12.15h0a5.23,5.23,0,0,1,.62,1.14,13.56,13.56,0,0,1,.7,2.27l.08.37-.37.07A12,12,0,0,0,109,112c-1.65.82-2.71,1.64-3,2.33l.4.82-.27.18-.33.23,0,0-.07,0-.36.27,0,0-.56.41-.21-.36c-3.2-5.36-3.67-10.4-1.39-15l1-1.89-.8.41c-.59.3-1.27.64-1.93,1-.49.26-1.07.58-1.64.93a14.09,14.09,0,0,0-1.8,1.29l-.15.12-.13.12-.13.12,0,0-.1.1-.12.1-.17.17-.13.13-.14.13-.13.14-.13.14-.13.15-.13.14-.13.15-.12.14-.24.31-.12.15-.11.16-.11.16-.11.16-.1.16-.08.12,0,.06a2.58,2.58,0,0,0-.18.32l0,0,0,.11,0,0a.91.91,0,0,0-.07.14l0,.06,0,0-.06.12,0,0,0,.05v0l0,.06-.07.18c0,.06,0,.12-.07.19l-.09.24,0,.13-.11.38s0,0,0,0l0,.13,0,.13,0,.14a.5.5,0,0,1,0,.12v.06s0,.06,0,.08,0,.09,0,.13V109s0,.1,0,.14,0,.2,0,.3V110a5.26,5.26,0,0,0,.22,1.13,5.52,5.52,0,0,1,1.8-1.38l.19-.07a1.08,1.08,0,0,1,1.34.47.08.08,0,0,1,0,0,2.22,2.22,0,0,1,.2.41l.06.13.09.22a36.06,36.06,0,0,0,3.82,7.47l.17.26-.25.25-.1.1-.24.25,0,0-.23.26-.19.2,0,0a22.54,22.54,0,0,0-1.44,1.79l0,0a1.66,1.66,0,0,0-.13.14l0,0a1.15,1.15,0,0,0-.14.17l0,0-.07.09v0l-.1.1,0,0,0,.06,0,0,0,0,0,.06,0,.06v0l-.06.1,0,0,0,0a.45.45,0,0,0-.06.12l-.29.6-.36-.56a28,28,0,0,0-2-2.73c-.84,1.17-3.47,5.19-1.3,7.33a18.78,18.78,0,0,0,1.88,1.68l.27.2-.17.29q-.2.35-.48.9l-.26.52L85,117.52l-.46.16A7.63,7.63,0,0,0,82.32,119a8.28,8.28,0,0,0-1.27,1.31l-.33.43,12.76,15.54-.08.2a77.15,77.15,0,0,0-3.14,9c.5.35,1.88,1.4,3.68,2.68Zm36.32-18.58.08.14.52-.64-.6.5ZM95.14,129l.51.65.08-.14-.59-.5Z"/><g id="Group_2168" data-name="Group 2168"><path id="Path_5731" data-name="Path 5731" class="cls-10" d="M126.41,146.47l0-.06Z"/><path id="Path_5732" data-name="Path 5732" class="cls-10" d="M125.32,148.06a2.35,2.35,0,0,0,.19-.25A2.35,2.35,0,0,1,125.32,148.06Z"/><path id="Path_5733" data-name="Path 5733" class="cls-10" d="M126.54,146.28l.06-.07Z"/><path id="Path_5734" data-name="Path 5734" class="cls-10" d="M127.08,145.61l0-.05Z"/><path id="Path_5735" data-name="Path 5735" class="cls-10" d="M127.26,145.41l.07-.08Z"/><path id="Path_5736" data-name="Path 5736" class="cls-10" d="M126.69,146.08l.06-.07Z"/><path id="Path_5737" data-name="Path 5737" class="cls-10" d="M126.86,145.87l0-.06Z"/><path id="Path_5738" data-name="Path 5738" class="cls-10" d="M128.19,147.51l-.33.21Z"/><path id="Path_5739" data-name="Path 5739" class="cls-10" d="M127.48,148l-.33.2Z"/><path id="Path_5740" data-name="Path 5740" class="cls-10" d="M127.12,148.18l-.33.2Z"/><path id="Path_5741" data-name="Path 5741" class="cls-10" d="M127.84,147.73l-.34.21Z"/><path id="Path_5742" data-name="Path 5742" class="cls-10" d="M127.45,145.2l.08-.08Z"/><path id="Path_5743" data-name="Path 5743" class="cls-10" d="M125.57,147.72l.22-.3Z"/><path id="Path_5744" data-name="Path 5744" class="cls-10" d="M126.66,148.46l.11-.07-.11.07Z"/><path id="Path_5745" data-name="Path 5745" class="cls-10" d="M127.87,144.77l.06-.06Z"/><path id="Path_5746" data-name="Path 5746" class="cls-10" d="M128.55,144.11l.1-.09Z"/><path id="Path_5747" data-name="Path 5747" class="cls-10" d="M126.29,146.66h0c-.16.26-.33.52-.5.76C126,147.18,126.13,146.92,126.29,146.66Z"/><path id="Path_5748" data-name="Path 5748" class="cls-10" d="M131.81,141.4s-1.46,1.08-2.93,2.41a10.4,10.4,0,0,0-.33,3.47l-.34.22a28.73,28.73,0,0,0,4.32-3.12C132.7,143.93,131.81,141.4,131.81,141.4Z"/><path id="Path_5749" data-name="Path 5749" class="cls-10" d="M128.77,143.91l.1-.09Z"/><path id="Path_5750" data-name="Path 5750" class="cls-10" d="M128.34,144.31l.09-.08Z"/><path id="Path_5751" data-name="Path 5751" class="cls-10" d="M128.13,144.51l.08-.07Z"/><path id="Path_5752" data-name="Path 5752" class="cls-10" d="M127.65,145l.08-.08Z"/><path id="Path_5753" data-name="Path 5753" class="cls-11" d="M125.33,148.06l-.08.1h0Z"/><path id="Path_5754" data-name="Path 5754" class="cls-11" d="M127.15,148.16l0,0Z"/><path id="Path_5755" data-name="Path 5755" class="cls-11" d="M128.88,143.81h0Z"/><path id="Path_5756" data-name="Path 5756" class="cls-11" d="M127.5,147.94l0,0Z"/><path id="Path_5757" data-name="Path 5757" class="cls-11" d="M127.32,145.33l.13-.13Z"/><path id="Path_5758" data-name="Path 5758" class="cls-11" d="M127.86,147.72h0Z"/><path id="Path_5759" data-name="Path 5759" class="cls-11" d="M126.79,148.38h0Z"/><path id="Path_5760" data-name="Path 5760" class="cls-11" d="M128.2,147.5h0Z"/><path id="Path_5761" data-name="Path 5761" class="cls-11" d="M127.93,144.71l.2-.2Z"/><path id="Path_5762" data-name="Path 5762" class="cls-11" d="M126.74,146l.12-.14Z"/><path id="Path_5763" data-name="Path 5763" class="cls-11" d="M126.6,146.21l.1-.13Z"/><path id="Path_5764" data-name="Path 5764" class="cls-11" d="M126.45,146.41l.09-.13Z"/><path id="Path_5765" data-name="Path 5765" class="cls-11" d="M127.53,145.12l.12-.13Z"/><path id="Path_5766" data-name="Path 5766" class="cls-11" d="M127.73,144.91l.14-.14Z"/><path id="Path_5767" data-name="Path 5767" class="cls-11" d="M126.29,146.66l.12-.19Z"/><path id="Path_5768" data-name="Path 5768" class="cls-11" d="M127.12,145.57l.14-.16Z"/><path id="Path_5769" data-name="Path 5769" class="cls-11" d="M126.91,145.81c.06-.06.11-.13.17-.2Z"/><path id="Path_5770" data-name="Path 5770" class="cls-11" d="M128.43,144.22l.12-.11Z"/><path id="Path_5771" data-name="Path 5771" class="cls-11" d="M128.65,144l.12-.11Z"/><path id="Path_5772" data-name="Path 5772" class="cls-11" d="M125.51,147.81l.07-.08Z"/><path id="Path_5773" data-name="Path 5773" class="cls-11" d="M128.21,144.44l.13-.12Z"/><path id="Path_5774" data-name="Path 5774" class="cls-11" d="M125.25,148.17l.07-.1.19-.25.07-.09.21-.3c.17-.24.34-.5.5-.76h0l.12-.18,0-.07.09-.13,0-.07.1-.13.06-.07.12-.14,0-.06.17-.2,0,0,.14-.16.07-.08.12-.13.08-.08.12-.13.08-.08.14-.14.06-.06.2-.2.08-.08.13-.12.1-.09.11-.11.1-.09.12-.11.1-.09h0a10.44,10.44,0,0,0-.34,3.47l-.34.23h0l-.34.22h0l-.33.21h0l-.34.2,0,0-.33.2h0l-.11.06-2.9,2A8.92,8.92,0,0,0,125.25,148.17Z"/></g><g id="Group_2169" data-name="Group 2169"><path id="Path_5775" data-name="Path 5775" class="cls-10" d="M97.34,144l.1.09Z"/><path id="Path_5776" data-name="Path 5776" class="cls-10" d="M97.78,144.44l.08.07Z"/><path id="Path_5777" data-name="Path 5777" class="cls-10" d="M97.12,143.82l.1.09Z"/><path id="Path_5778" data-name="Path 5778" class="cls-10" d="M98.49,147.94l-.34-.21Z"/><path id="Path_5779" data-name="Path 5779" class="cls-10" d="M98.87,145.57l0,0Z"/><path id="Path_5780" data-name="Path 5780" class="cls-10" d="M98.66,145.33l.07.08Z"/><path id="Path_5781" data-name="Path 5781" class="cls-10" d="M98.46,145.12l.08.08Z"/><path id="Path_5782" data-name="Path 5782" class="cls-10" d="M98.27,144.92l.07.07Z"/><path id="Path_5783" data-name="Path 5783" class="cls-10" d="M98.06,144.71l.06.06Z"/><path id="Path_5784" data-name="Path 5784" class="cls-10" d="M97.56,144.23l.09.08Z"/><path id="Path_5785" data-name="Path 5785" class="cls-10" d="M98.84,148.17l-.33-.2Z"/><path id="Path_5786" data-name="Path 5786" class="cls-10" d="M98.14,147.72l-.34-.21Z"/><path id="Path_5787" data-name="Path 5787" class="cls-10" d="M98.87,148.17l.24.15h0Z"/><path id="Path_5788" data-name="Path 5788" class="cls-10" d="M99.54,146.41l0,.06Z"/><path id="Path_5789" data-name="Path 5789" class="cls-10" d="M97.11,143.81c-1.47-1.32-2.92-2.41-2.92-2.41s-.9,2.53-.73,3a28.82,28.82,0,0,0,4.33,3.12l-.34-.22A10.41,10.41,0,0,0,97.11,143.81Z"/><path id="Path_5790" data-name="Path 5790" class="cls-10" d="M99.24,146l.06.07Z"/><path id="Path_5791" data-name="Path 5791" class="cls-10" d="M99.4,146.21l0,.07Z"/><path id="Path_5792" data-name="Path 5792" class="cls-10" d="M99.82,146.86l.21.31Z"/><path id="Path_5793" data-name="Path 5793" class="cls-10" d="M100.36,147.65l.18.25Z"/><path id="Path_5794" data-name="Path 5794" class="cls-10" d="M99.08,145.82l0,.05Z"/><path id="Path_5795" data-name="Path 5795" class="cls-10" d="M99.82,146.86l-.12-.2h0Z"/><path id="Path_5796" data-name="Path 5796" class="cls-11" d="M100.66,148.05l-.12-.15Z"/><path id="Path_5797" data-name="Path 5797" class="cls-11" d="M97.86,144.51l.2.2Z"/><path id="Path_5798" data-name="Path 5798" class="cls-11" d="M99.3,146.08a1.13,1.13,0,0,0,.1.13Z"/><path id="Path_5799" data-name="Path 5799" class="cls-11" d="M98.12,144.77l.15.14Z"/><path id="Path_5800" data-name="Path 5800" class="cls-11" d="M98.91,145.61l.17.2Z"/><path id="Path_5801" data-name="Path 5801" class="cls-11" d="M98.87,148.18l0,0Z"/><path id="Path_5802" data-name="Path 5802" class="cls-11" d="M99.13,145.87l.11.14A1.34,1.34,0,0,0,99.13,145.87Z"/><path id="Path_5803" data-name="Path 5803" class="cls-11" d="M98.34,145l.13.13Z"/><path id="Path_5804" data-name="Path 5804" class="cls-11" d="M98.54,145.2l.12.13Z"/><path id="Path_5805" data-name="Path 5805" class="cls-11" d="M98.73,145.41l.14.16Z"/><path id="Path_5806" data-name="Path 5806" class="cls-11" d="M99.45,146.28l.09.13Z"/><path id="Path_5807" data-name="Path 5807" class="cls-11" d="M97.65,144.31l.13.13Z"/><path id="Path_5808" data-name="Path 5808" class="cls-11" d="M100,147.17c.11.17.22.32.33.48C100.25,147.49,100.14,147.34,100,147.17Z"/><path id="Path_5809" data-name="Path 5809" class="cls-11" d="M98.15,147.74v0Z"/><path id="Path_5810" data-name="Path 5810" class="cls-11" d="M98.51,148l0,0Z"/><path id="Path_5811" data-name="Path 5811" class="cls-11" d="M97.8,147.5h0Z"/><path id="Path_5812" data-name="Path 5812" class="cls-11" d="M97.44,144.11l.12.11Z"/><path id="Path_5813" data-name="Path 5813" class="cls-11" d="M97.11,143.81Z"/><path id="Path_5814" data-name="Path 5814" class="cls-11" d="M97.22,143.91l.12.11Z"/><path id="Path_5815" data-name="Path 5815" class="cls-11" d="M99.58,146.47a1.45,1.45,0,0,1,.12.19Z"/><path id="Path_5816" data-name="Path 5816" class="cls-11" d="M100.66,148.05l-.12-.15-.18-.25c-.11-.16-.22-.31-.33-.48s-.13-.2-.21-.31l-.12-.2h0a2,2,0,0,0-.12-.19l0-.06-.09-.13,0-.07a1.13,1.13,0,0,0-.1-.13l0-.07-.12-.14,0-.06-.17-.2,0,0-.15-.16-.06-.08-.13-.13-.07-.08-.12-.13-.08-.08-.15-.14-.05-.06-.2-.2-.08-.08-.13-.12-.1-.09-.11-.11-.1-.09-.12-.11-.1-.09h0a10.41,10.41,0,0,1,.34,3.47l.34.22h0l.34.22h0l.33.21h0l.34.2h0l.24.15.09,0,3.32,2.32S100.72,149,100.66,148.05Z"/></g><path id="Path_5817" data-name="Path 5817" class="cls-2" d="M139.92,123c-.29-.54-.77-1.37-.77-1.37a3.9,3.9,0,0,1,1.76.16l0,0L140,123Z"/><path id="Path_5818" data-name="Path 5818" class="cls-12" d="M141.36,123.19A6.69,6.69,0,0,1,140,123l1-1.19C141.47,122.87,141.36,123.19,141.36,123.19Z"/><path id="Path_5819" data-name="Path 5819" class="cls-2" d="M141.43,121.26c-.29-.53-.77-1.36-.77-1.36a3.76,3.76,0,0,1,1.76.15l0,0-1,1.18Z"/><path id="Path_5820" data-name="Path 5820" class="cls-12" d="M142.86,121.5a6.51,6.51,0,0,1-1.39-.23l1-1.18C143,121.17,142.86,121.5,142.86,121.5Z"/><path id="Path_5821" data-name="Path 5821" class="cls-2" d="M137.91,123.31a4.27,4.27,0,0,1,1.67.12l-1,1.17C138.35,124.07,137.91,123.31,137.91,123.31Z"/><path id="Path_5822" data-name="Path 5822" class="cls-12" d="M140.11,124.91a7,7,0,0,1-1.44-.24l0-.07,1-1.17.07,0C140.22,124.57,140.11,124.91,140.11,124.91Z"/><path id="Path_5823" data-name="Path 5823" class="cls-2" d="M136.58,125a4.47,4.47,0,0,1,1.63.11l-.93,1.14C137,125.73,136.58,125,136.58,125Z"/><path id="Path_5824" data-name="Path 5824" class="cls-12" d="M138.79,126.61a7.72,7.72,0,0,1-1.44-.23l-.06-.12.92-1.14.13,0C138.9,126.28,138.79,126.61,138.79,126.61Z"/><path id="Path_5825" data-name="Path 5825" class="cls-2" d="M135.39,126.44a4.59,4.59,0,0,1,1.65.12l-.94,1.16C135.82,127.18,135.39,126.44,135.39,126.44Z"/><path id="Path_5826" data-name="Path 5826" class="cls-12" d="M137.59,128a7.72,7.72,0,0,1-1.44-.23l-.05-.1.94-1.15.1,0C137.7,127.71,137.59,128,137.59,128Z"/><path id="Path_5827" data-name="Path 5827" class="cls-2" d="M134.23,127.88a4.19,4.19,0,0,1,1.65.12l-.94,1.15C134.65,128.61,134.23,127.88,134.23,127.88Z"/><path id="Path_5828" data-name="Path 5828" class="cls-12" d="M136.43,129.48a7,7,0,0,1-1.44-.24l-.05-.1.94-1.15.1,0C136.54,129.15,136.43,129.48,136.43,129.48Z"/><path id="Path_5829" data-name="Path 5829" class="cls-2" d="M133,129.39a4.42,4.42,0,0,1,1.62.1l-.92,1.13C133.45,130.09,133,129.39,133,129.39Z"/><path id="Path_5830" data-name="Path 5830" class="cls-12" d="M135.24,131a7,7,0,0,1-1.43-.24l-.07-.13.92-1.13.14,0C135.36,130.66,135.24,131,135.24,131Z"/><path id="Path_5831" data-name="Path 5831" class="cls-2" d="M131.84,130.87a4.43,4.43,0,0,1,1.62.11l-.92,1.13C132.25,131.58,131.84,130.87,131.84,130.87Z"/><path id="Path_5832" data-name="Path 5832" class="cls-12" d="M134,132.47a7.85,7.85,0,0,1-1.44-.23l-.06-.13.91-1.13.14.05C134.16,132.13,134,132.47,134,132.47Z"/><path id="Path_5833" data-name="Path 5833" class="cls-2" d="M131.22,132.35c.13.28.27.57.4.88l.62-.76A3.85,3.85,0,0,0,131.22,132.35Z"/><path id="Path_5834" data-name="Path 5834" class="cls-12" d="M132.38,132.53l-.14-.05-.62.76.27.62a4.94,4.94,0,0,0,.93.12S132.94,133.64,132.38,132.53Z"/><path id="Path_5835" data-name="Path 5835" class="cls-2" d="M85.53,120.1a4,4,0,0,0-1.72.14l1,1.2C85.07,120.9,85.53,120.1,85.53,120.1Z"/><path id="Path_5836" data-name="Path 5836" class="cls-12" d="M83.33,121.7a7,7,0,0,0,1.44-.24v0l-1-1.2h0C83.22,121.37,83.33,121.7,83.33,121.7Z"/><path id="Path_5837" data-name="Path 5837" class="cls-2" d="M86.07,123c.29-.54.77-1.37.77-1.37a3.9,3.9,0,0,0-1.76.16v0L86,123Z"/><path id="Path_5838" data-name="Path 5838" class="cls-12" d="M84.63,123.19A6.59,6.59,0,0,0,86,123l-1-1.19C84.53,122.87,84.63,123.19,84.63,123.19Z"/><path id="Path_5839" data-name="Path 5839" class="cls-2" d="M88.08,123.31a4.27,4.27,0,0,0-1.67.12l1,1.17C87.64,124.07,88.08,123.31,88.08,123.31Z"/><path id="Path_5840" data-name="Path 5840" class="cls-12" d="M85.88,124.91a7,7,0,0,0,1.44-.24l0-.07-1-1.17-.07,0C85.77,124.57,85.88,124.91,85.88,124.91Z"/><path id="Path_5841" data-name="Path 5841" class="cls-2" d="M89.41,125a4.47,4.47,0,0,0-1.63.11l.92,1.14Z"/><path id="Path_5842" data-name="Path 5842" class="cls-12" d="M87.2,126.61a7.72,7.72,0,0,0,1.44-.23l.06-.12-.92-1.14-.13,0C87.09,126.28,87.2,126.61,87.2,126.61Z"/><path id="Path_5843" data-name="Path 5843" class="cls-2" d="M90.6,126.44a4.59,4.59,0,0,0-1.65.12l.94,1.16C90.17,127.18,90.6,126.44,90.6,126.44Z"/><path id="Path_5844" data-name="Path 5844" class="cls-12" d="M88.4,128a7.72,7.72,0,0,0,1.44-.23l0-.1L89,126.56l-.1,0C88.29,127.71,88.4,128,88.4,128Z"/><path id="Path_5845" data-name="Path 5845" class="cls-2" d="M91.77,127.88a4.19,4.19,0,0,0-1.65.12l.94,1.15C91.34,128.61,91.77,127.88,91.77,127.88Z"/><path id="Path_5846" data-name="Path 5846" class="cls-12" d="M89.56,129.48a7,7,0,0,0,1.44-.24l0-.1L90.11,128,90,128C89.45,129.15,89.56,129.48,89.56,129.48Z"/><path id="Path_5847" data-name="Path 5847" class="cls-2" d="M93,129.39a4.42,4.42,0,0,0-1.62.1l.92,1.13C92.54,130.09,93,129.39,93,129.39Z"/><path id="Path_5848" data-name="Path 5848" class="cls-12" d="M90.75,131a7,7,0,0,0,1.43-.24l.07-.13-.92-1.13-.14,0C90.63,130.66,90.75,131,90.75,131Z"/><path id="Path_5849" data-name="Path 5849" class="cls-2" d="M94.15,130.87a4.36,4.36,0,0,0-1.61.11l.92,1.13C93.74,131.58,94.15,130.87,94.15,130.87Z"/><path id="Path_5850" data-name="Path 5850" class="cls-12" d="M91.94,132.47a7.72,7.72,0,0,0,1.44-.23l.07-.13L92.53,131l-.14.05C91.83,132.13,91.94,132.47,91.94,132.47Z"/><path id="Path_5851" data-name="Path 5851" class="cls-2" d="M94.77,132.35l-.4.88-.62-.76A3.85,3.85,0,0,1,94.77,132.35Z"/><path id="Path_5852" data-name="Path 5852" class="cls-12" d="M93.61,132.53l.14-.05.62.76-.27.62a4.94,4.94,0,0,1-.93.12S93.05,133.64,93.61,132.53Z"/><path id="Path_5853" data-name="Path 5853" class="cls-12" d="M113,120.67a1.69,1.69,0,0,1,1.61,1.41,1.75,1.75,0,0,0,0-.4,1.65,1.65,0,0,0-1.53-1.77,1.67,1.67,0,0,0-1.77,1.46,1.61,1.61,0,0,0,0,.31,2.57,2.57,0,0,0,.05.4A1.69,1.69,0,0,1,113,120.67Z"/><path id="Path_5854" data-name="Path 5854" class="cls-12" d="M114,124.19a1.44,1.44,0,0,1-1,.46h0a1.44,1.44,0,0,1-1-.46,2.34,2.34,0,0,0,.94,1.41l0,0,0,0A2.35,2.35,0,0,0,114,124.19Z"/><path id="Path_5855" data-name="Path 5855" class="cls-10" d="M119.3,126.82a1.42,1.42,0,0,0,.8-.54,1.38,1.38,0,0,1-.94,0,4.7,4.7,0,0,0,2.69-2.28,17.82,17.82,0,0,1-6.85,1.62,2,2,0,1,1-4,0h0a17.77,17.77,0,0,1-6.84-1.62,4.67,4.67,0,0,0,2.69,2.28,1.41,1.41,0,0,1-1,0,1.45,1.45,0,0,0,.81.54s-2.67-.6-3.59-1.64c0,0,.5,1.88,3.41,2.53a34.93,34.93,0,0,0,6.37.65h.21a34.91,34.91,0,0,0,6.36-.65c2.9-.65,3.41-2.53,3.41-2.53C122,126.22,119.3,126.82,119.3,126.82Z"/><path id="Path_5856" data-name="Path 5856" class="cls-10" d="M96.28,123.34a4.76,4.76,0,0,0-.79,2.81,31.64,31.64,0,0,1,3.59,2.93,8.94,8.94,0,0,1,1.72,2.77,15.78,15.78,0,0,0-2.16-5.31Z"/><path id="Path_5857" data-name="Path 5857" class="cls-10" d="M98.13,131.82a8.67,8.67,0,0,0-.94,2.11,24,24,0,0,0,6,5.3,8.67,8.67,0,0,1-1.44-2.21C101.16,135.73,99.41,132.75,98.13,131.82Z"/><path id="Path_5858" data-name="Path 5858" class="cls-10" d="M96.16,136.29s-1.46,2.94-1.26,3.48,3.9,3.53,8.17,4.76a12.57,12.57,0,0,1-2.67-2.92C99.72,140.31,98,137.18,96.16,136.29Z"/><path id="Path_5859" data-name="Path 5859" class="cls-10" d="M127.86,131.82a8.7,8.7,0,0,1,1,2.11,24.19,24.19,0,0,1-6,5.3,8.67,8.67,0,0,0,1.44-2.21C124.83,135.73,126.58,132.75,127.86,131.82Z"/><path id="Path_5860" data-name="Path 5860" class="cls-10" d="M129.83,136.29s1.46,2.94,1.27,3.48-3.9,3.53-8.17,4.76a12.57,12.57,0,0,0,2.67-2.92C126.27,140.31,128.05,137.18,129.83,136.29Z"/><path id="Path_5861" data-name="Path 5861" class="cls-2" d="M96.28,123.34a4.76,4.76,0,0,0-.79,2.81l.79.58A4.94,4.94,0,0,1,96.28,123.34Z"/><path id="Path_5862" data-name="Path 5862" class="cls-11" d="M98.63,126.54l-.52-.71a3.82,3.82,0,0,1-.2,2.19,13,13,0,0,1,1.16,1.06,9.11,9.11,0,0,1,1.72,2.78A15.75,15.75,0,0,0,98.63,126.54Z"/><path id="Path_5863" data-name="Path 5863" class="cls-2" d="M98.13,131.82a8.67,8.67,0,0,0-.94,2.11,3.27,3.27,0,0,0,.55.72A10.39,10.39,0,0,1,98.13,131.82Z"/><path id="Path_5864" data-name="Path 5864" class="cls-11" d="M101.72,137a20.14,20.14,0,0,0-1.5-2.68,6.36,6.36,0,0,1-.17,2.57,18.18,18.18,0,0,0,3.12,2.32A8.13,8.13,0,0,1,101.72,137Z"/><path id="Path_5865" data-name="Path 5865" class="cls-2" d="M96.16,136.29s-1.46,2.94-1.26,3.48a3.12,3.12,0,0,0,.75.79A11.45,11.45,0,0,1,96.16,136.29Z"/><path id="Path_5866" data-name="Path 5866" class="cls-11" d="M100.39,141.61c-.27-.51-.69-1.3-1.23-2.12a10.06,10.06,0,0,1-.27,3.28,20.41,20.41,0,0,0,4.17,1.77A12.62,12.62,0,0,1,100.39,141.61Z"/><path id="Path_5867" data-name="Path 5867" class="cls-2" d="M94.19,141.4s-.91,2.53-.73,3a4.36,4.36,0,0,0,.86.74A11.06,11.06,0,0,1,94.19,141.4Z"/><path id="Path_5868" data-name="Path 5868" class="cls-13" d="M97.43,126.08c0,.11-.07.25-.23.31s-.33,0-.37-.09.07-.25.24-.31S97.4,126,97.43,126.08Z"/><path id="Path_5869" data-name="Path 5869" class="cls-11" d="M97.62,125.93a.38.38,0,0,1,.06.13.53.53,0,0,1-.49.56.63.63,0,0,1-.36,0,.56.56,0,0,0,.59.2.53.53,0,0,0,.49-.56A.45.45,0,0,0,97.62,125.93Z"/><path id="Path_5870" data-name="Path 5870" class="cls-2" d="M113,119.86a1.6,1.6,0,0,0-1.23.62,1.66,1.66,0,0,0,.7.29,1.52,1.52,0,0,1,1.07,0,1.82,1.82,0,0,0,.71-.28A1.62,1.62,0,0,0,113,119.86Z"/><path id="Path_5873" data-name="Path 5873" class="cls-11" d="M108.81,127.38a6.64,6.64,0,0,1-2.14-.82,9,9,0,0,0,1.79-.21c-2.75-.45-3.4-1.93-3.4-1.93h0l-.92-.39a4.68,4.68,0,0,0,2.69,2.27,1.32,1.32,0,0,1-.94,0,1.5,1.5,0,0,0,.81.54s-2.67-.6-3.59-1.64A6.5,6.5,0,0,0,108.81,127.38Z"/><path id="Path_5874" data-name="Path 5874" class="cls-2" d="M127.86,131.82a8.7,8.7,0,0,1,1,2.11,3,3,0,0,1-.56.72A10,10,0,0,0,127.86,131.82Z"/><path id="Path_5875" data-name="Path 5875" class="cls-11" d="M124.27,137a22.66,22.66,0,0,1,1.5-2.68,6.36,6.36,0,0,0,.17,2.57,18.5,18.5,0,0,1-3.11,2.32A8.33,8.33,0,0,0,124.27,137Z"/><path id="Path_5876" data-name="Path 5876" class="cls-2" d="M129.83,136.29s1.46,2.94,1.27,3.48a3.31,3.31,0,0,1-.75.79A11.45,11.45,0,0,0,129.83,136.29Z"/><path id="Path_5877" data-name="Path 5877" class="cls-11" d="M125.6,141.61c.26-.51.69-1.3,1.22-2.12a10.35,10.35,0,0,0,.28,3.28,20.41,20.41,0,0,1-4.17,1.77A12.62,12.62,0,0,0,125.6,141.61Z"/><path id="Path_5878" data-name="Path 5878" class="cls-2" d="M131.81,141.4s.9,2.53.72,3a4.31,4.31,0,0,1-.85.74A11.33,11.33,0,0,0,131.81,141.4Z"/><g id="Group_2170" data-name="Group 2170"><path id="Path_5879" data-name="Path 5879" class="cls-10" d="M129.88,123.24a4.81,4.81,0,0,1,.82,2.87,32.12,32.12,0,0,0-3.68,3,9.46,9.46,0,0,0-1.77,2.85,16.45,16.45,0,0,1,2.22-5.45Z"/><path id="Path_5880" data-name="Path 5880" class="cls-2" d="M129.89,123.24a4.88,4.88,0,0,1,.82,2.87l-.82.59A4.91,4.91,0,0,0,129.89,123.24Z"/><path id="Path_5881" data-name="Path 5881" class="cls-11" d="M127.47,126.51l.54-.73a4,4,0,0,0,.2,2.24,15.5,15.5,0,0,0-1.19,1.1,9.29,9.29,0,0,0-1.77,2.84A16.53,16.53,0,0,1,127.47,126.51Z"/><path id="Path_5882" data-name="Path 5882" class="cls-13" d="M128.71,126c0,.11.07.25.24.32s.33,0,.37-.09-.07-.26-.24-.32S128.74,125.93,128.71,126Z"/><path id="Path_5883" data-name="Path 5883" class="cls-11" d="M128.51,125.89a.29.29,0,0,0,0,.13.54.54,0,0,0,.5.58.78.78,0,0,0,.37,0,.57.57,0,0,1-.61.21.54.54,0,0,1-.5-.57A.4.4,0,0,1,128.51,125.89Z"/></g><path id="Path_5884" data-name="Path 5884" class="cls-11" d="M117.18,127.38a6.55,6.55,0,0,0,2.14-.82,9,9,0,0,1-1.79-.21c2.76-.45,3.41-1.93,3.41-1.93h0c.3-.12.61-.25.91-.39a4.65,4.65,0,0,1-2.69,2.27,1.32,1.32,0,0,0,.94,0,1.42,1.42,0,0,1-.8.54s2.67-.6,3.58-1.64A6.48,6.48,0,0,1,117.18,127.38Z"/><path id="Path_5886" data-name="Path 5886" class="cls-10" d="M120.86,131.87c-.74.24-2.15,2.28-2.45,2.36a24.48,24.48,0,0,1-3,.27c-.37-.05-1.91-1.89-2.45-1.89s-2.09,1.84-2.46,1.89a24.48,24.48,0,0,1-3-.27c-.3-.08-1.71-2.12-2.45-2.36a1.2,1.2,0,0,0-1.29.22s2.42,6.16,2.73,7.07.55,1,1.25,1.69,2.6,2.91,3.51,3.25a5,5,0,0,0,3.33,0c.92-.34,2.82-2.56,3.52-3.25s.94-.78,1.25-1.69,2.73-7.07,2.73-7.07A1.22,1.22,0,0,0,120.86,131.87Z"/><path id="Path_5887" data-name="Path 5887" class="cls-2" d="M115.64,132.68a4,4,0,0,1,3.44-1.78s-.56,1.22-.88,1.34S116.25,132.29,115.64,132.68Z"/><path id="Path_5888" data-name="Path 5888" class="cls-10" d="M105.13,131.87c.74.24,2.16,2.28,2.45,2.36a24.48,24.48,0,0,0,3,.27c.37-.05,1.91-1.89,2.46-1.89s2.08,1.84,2.45,1.89a24.48,24.48,0,0,0,3-.27c.3-.08,1.71-2.12,2.45-2.36a1.2,1.2,0,0,1,1.29.22s-2.42,6.16-2.72,7.07-.55,1-1.25,1.69-2.6,2.91-3.52,3.25a5,5,0,0,1-3.33,0c-.91-.34-2.82-2.56-3.52-3.25s-.94-.78-1.25-1.69-2.72-7.07-2.72-7.07A1.2,1.2,0,0,1,105.13,131.87Z"/><path id="Path_5889" data-name="Path 5889" class="cls-2" d="M110.35,132.68a4,4,0,0,0-3.44-1.78s.57,1.22.88,1.34S109.74,132.29,110.35,132.68Z"/><path id="Path_5890" data-name="Path 5890" class="cls-11" d="M113,142.89h0a4.23,4.23,0,0,1,1.93,1c-.62-2.69-1.93-7.27-1.93-8,0,.7-1.31,5.28-1.93,8A4.18,4.18,0,0,1,113,142.89Z"/><path id="Path_5891" data-name="Path 5891" class="cls-10" d="M113,142.88a4.28,4.28,0,0,0-1.93,1V144a1.25,1.25,0,0,0,.28.15,5.13,5.13,0,0,0,3.33,0A1.91,1.91,0,0,0,115,144l0-.06A4.18,4.18,0,0,0,113,142.88Z"/><path id="Path_5895" data-name="Path 5895" class="cls-10" d="M119.16,138.37a6.89,6.89,0,0,0,.34-2c0,.3,0,.6-.08.87A4.1,4.1,0,0,1,119.16,138.37Z"/><path id="Path_5896" data-name="Path 5896" class="cls-10" d="M119.61,135.43s0,0,0,.1Z"/><path id="Path_5897" data-name="Path 5897" class="cls-10" d="M119.6,135.52h0l0,.2Z"/><path id="Path_5898" data-name="Path 5898" class="cls-10" d="M119.57,135.73l0,.21C119.56,135.87,119.56,135.79,119.57,135.73Z"/><path id="Path_5899" data-name="Path 5899" class="cls-11" d="M116,140.85c-.08.39,0,.77.43.71s2.47-2.79,2.73-3.19a4.1,4.1,0,0,0,.26-1.14l.09-.87a1.23,1.23,0,0,1,0-.2h0a1.49,1.49,0,0,1,0-.21h0c0-.07,0-.14,0-.21h0l0-.2s0-.08,0-.1c0,.28-.09.6-.38.76a14.19,14.19,0,0,1-2.38,1.09c-.08,0-.13-.08-.19-.22h0A20.18,20.18,0,0,1,116,140.85Z"/><path id="Path_5900" data-name="Path 5900" class="cls-11" d="M110,140.85c.08.39,0,.77-.43.71s-2.47-2.79-2.73-3.19a4.1,4.1,0,0,1-.26-1.14c0-.28-.06-.58-.08-.87l0-.2h0a1.49,1.49,0,0,1,0-.21h0l0-.21h0c0-.07,0-.14,0-.2a.87.87,0,0,0,0-.1c.05.28.09.6.38.76a13.93,13.93,0,0,0,2.39,1.09c.07,0,.13-.08.19-.22h0A21,21,0,0,0,110,140.85Z"/><path id="Path_5901" data-name="Path 5901" class="cls-10" d="M119.52,136.16c0,.06,0,.13,0,.2A1.41,1.41,0,0,0,119.52,136.16Z"/><path id="Path_5902" data-name="Path 5902" class="cls-10" d="M119.55,135.94a1.49,1.49,0,0,0,0,.21A1.49,1.49,0,0,1,119.55,135.94Z"/><path id="Path_5903" data-name="Path 5903" class="cls-11" d="M113.36,131.51a.58.58,0,0,1,.57,0,1.13,1.13,0,0,0-.59-.55s0-.1.38-.2a7,7,0,0,1-.24-1.28h-1a8,8,0,0,1-.25,1.28c.37.1.38.2.38.2a1.21,1.21,0,0,0-.59.55.6.6,0,0,1,.58,0,1.62,1.62,0,0,0-.92,1,1.86,1.86,0,0,1,2.56,0A1.61,1.61,0,0,0,113.36,131.51Z"/><path id="Path_5904" data-name="Path 5904" class="cls-10" d="M111.65,138.84a.3.3,0,0,1,0-.2.51.51,0,0,1,.13-.16,1.34,1.34,0,0,1,.36-.22,2.4,2.4,0,0,1,1.63,0,1,1,0,0,1,.36.22.54.54,0,0,1,.14.16.36.36,0,0,1,0,.2.3.3,0,0,0-.08-.16.72.72,0,0,0-.15-.11,1.4,1.4,0,0,0-.36-.13,3.5,3.5,0,0,0-1.51,0,1.48,1.48,0,0,0-.35.13.42.42,0,0,0-.15.11A.32.32,0,0,0,111.65,138.84Z"/><path id="Path_5905" data-name="Path 5905" class="cls-10" d="M111.22,140.6a.52.52,0,0,1,0-.27.44.44,0,0,1,.08-.11l.05-.06,0,0a1.72,1.72,0,0,1,.47-.28,2.63,2.63,0,0,1,.53-.15,3.32,3.32,0,0,1,1.09,0,2.46,2.46,0,0,1,.53.15,1.64,1.64,0,0,1,.48.28l0,0,.05.06a1,1,0,0,1,.08.11.43.43,0,0,1,0,.27.45.45,0,0,0-.12-.21.75.75,0,0,0-.2-.15,2.29,2.29,0,0,0-.46-.17,2.78,2.78,0,0,0-.49-.08l-.5,0a4.07,4.07,0,0,0-.5,0,2.64,2.64,0,0,0-.49.08,2.38,2.38,0,0,0-.47.17,1,1,0,0,0-.2.15A.45.45,0,0,0,111.22,140.6Z"/><path id="Path_5906" data-name="Path 5906" class="cls-10" d="M110.65,142.88a1.06,1.06,0,0,1,.19-.77,1.79,1.79,0,0,1,.6-.56,3.21,3.21,0,0,1,3.12,0,1.89,1.89,0,0,1,.6.56,1.16,1.16,0,0,1,.19.77,1.26,1.26,0,0,0-.35-.65,2.19,2.19,0,0,0-.59-.4,3.75,3.75,0,0,0-2.83,0,2,2,0,0,0-.59.4A1.18,1.18,0,0,0,110.65,142.88Z"/><path id="Path_5907" data-name="Path 5907" class="cls-13" d="M113.86,133.15l0,0Z"/><path id="Path_5908" data-name="Path 5908" class="cls-13" d="M108.84,134.39h0Z"/><path id="Path_5909" data-name="Path 5909" class="cls-13" d="M114,133.26l0,0Z"/><path id="Path_5911" data-name="Path 5911" class="cls-13" d="M113.75,133.05l0,0Z"/><path id="Path_5912" data-name="Path 5912" class="cls-13" d="M109,134.4h0Z"/><path id="Path_5913" data-name="Path 5913" class="cls-13" d="M113.42,132.8l0,0Z"/><path id="Path_5914" data-name="Path 5914" class="cls-13" d="M109.2,134.43h0Z"/><path id="Path_5915" data-name="Path 5915" class="cls-13" d="M113.52,132.87l0,0Z"/><path id="Path_5916" data-name="Path 5916" class="cls-13" d="M113.65,133l0,0Z"/><path id="Path_5917" data-name="Path 5917" class="cls-13" d="M109.09,134.42h0Z"/><path id="Path_5918" data-name="Path 5918" class="cls-13" d="M114.87,134.08l.06,0Z"/><path id="Path_5919" data-name="Path 5919" class="cls-13" d="M108.59,134.37h0Z"/><path id="Path_5920" data-name="Path 5920" class="cls-13" d="M114.94,134.14a2.61,2.61,0,0,0,.3.24A2.61,2.61,0,0,1,114.94,134.14Z"/><path id="Path_5923" data-name="Path 5923" class="cls-13" d="M108.46,134.35h0Z"/><path id="Path_5924" data-name="Path 5924" class="cls-13" d="M108.7,134.38h0Z"/><path id="Path_5925" data-name="Path 5925" class="cls-13" d="M114.72,133.94l.06.06Z"/><path id="Path_5926" data-name="Path 5926" class="cls-13" d="M114.32,133.57l.4.37Z"/><path id="Path_5927" data-name="Path 5927" class="cls-13" d="M114.22,133.48l.06.05Z"/><path id="Path_5928" data-name="Path 5928" class="cls-13" d="M114.8,134l.06.05Z"/><path id="Path_5929" data-name="Path 5929" class="cls-13" d="M113.33,132.74h0Z"/><path id="Path_5930" data-name="Path 5930" class="cls-13" d="M114.11,133.37l0,0Z"/><path id="Path_5931" data-name="Path 5931" class="cls-13" d="M112.34,133l.1-.08Z"/><path id="Path_5932" data-name="Path 5932" class="cls-13" d="M112.24,133.05l.08-.06Z"/><path id="Path_5933" data-name="Path 5933" class="cls-13" d="M111.12,134.08h0Z"/><path id="Path_5935" data-name="Path 5935" class="cls-13" d="M112.47,132.87l.07-.05Z"/><path id="Path_5936" data-name="Path 5936" class="cls-13" d="M112.13,133.15l.07-.06Z"/><path id="Path_5937" data-name="Path 5937" class="cls-13" d="M111.88,133.37l.09-.08Z"/><path id="Path_5938" data-name="Path 5938" class="cls-13" d="M112.58,132.8l.06-.05Z"/><path id="Path_5939" data-name="Path 5939" class="cls-13" d="M111.77,133.47l.06-.05Z"/><path id="Path_5940" data-name="Path 5940" class="cls-13" d="M109.33,134.44h0Z"/><path id="Path_5941" data-name="Path 5941" class="cls-13" d="M111.19,134l0,0Z"/><path id="Path_5942" data-name="Path 5942" class="cls-13" d="M112,133.26l.08-.08Z"/><path id="Path_5943" data-name="Path 5943" class="cls-13" d="M113.06,132.62h0Z"/><path id="Path_5944" data-name="Path 5944" class="cls-13" d="M109.45,134.45h0Z"/><path id="Path_5945" data-name="Path 5945" class="cls-13" d="M112.93,132.61h0Z"/><path id="Path_5946" data-name="Path 5946" class="cls-13" d="M113.13,132.64h0Z"/><path id="Path_5947" data-name="Path 5947" class="cls-13" d="M113.22,132.68h0Z"/><path id="Path_5948" data-name="Path 5948" class="cls-13" d="M112.85,132.64l.06,0Z"/><path id="Path_5949" data-name="Path 5949" class="cls-13" d="M112.77,132.68l.06,0Z"/><path id="Path_5950" data-name="Path 5950" class="cls-13" d="M109.69,134.47h0Z"/><path id="Path_5951" data-name="Path 5951" class="cls-13" d="M112.67,132.74l.09-.05Z"/><path id="Path_5952" data-name="Path 5952" class="cls-13" d="M109.57,134.46h0Z"/><path id="Path_5953" data-name="Path 5953" class="cls-13" d="M108,134.3h0Z"/><path id="Path_5954" data-name="Path 5954" class="cls-13" d="M107.79,134.27h0Z"/><path id="Path_5958" data-name="Path 5958" class="cls-13" d="M107.73,134.26h0Z"/><path id="Path_5960" data-name="Path 5960" class="cls-13" d="M108,134.29h0Z"/><path id="Path_5963" data-name="Path 5963" class="cls-13" d="M107.87,134.28h0Z"/><path id="Path_5965" data-name="Path 5965" class="cls-13" d="M107.58,134.23h0Z"/><path id="Path_5966" data-name="Path 5966" class="cls-13" d="M118.9,133.77a2,2,0,0,1-.49.46h0A2,2,0,0,0,118.9,133.77Z"/><path id="Path_5968" data-name="Path 5968" class="cls-13" d="M119,133.69l.3-.34Z"/><path id="Path_5970" data-name="Path 5970" class="cls-13" d="M107.67,134.25h0Z"/><path id="Path_5973" data-name="Path 5973" class="cls-13" d="M107.62,134.24h0Z"/><path id="Path_5975" data-name="Path 5975" class="cls-13" d="M108.14,134.32h0Z"/><path id="Path_5980" data-name="Path 5980" class="cls-13" d="M108.24,134.33h0Z"/><path id="Path_5981" data-name="Path 5981" class="cls-13" d="M108.36,134.34h0Z"/><path id="Path_5985" data-name="Path 5985" class="cls-13" d="M111.67,133.57l0,0Z"/><path id="Path_5990" data-name="Path 5990" class="cls-13" d="M111.06,134.14l.06,0Z"/><path id="Path_5993" data-name="Path 5993" class="cls-13" d="M111.21,134l.06-.06Z"/><path id="Path_5995" data-name="Path 5995" class="cls-13" d="M106.73,133.35l.3.35Z"/><path id="Path_5996" data-name="Path 5996" class="cls-13" d="M106.57,133.16l.16.19Z"/><path id="Path_5997" data-name="Path 5997" class="cls-13" d="M111.14,134.07l0,0Z"/><path id="Path_6004" data-name="Path 6004" class="cls-13" d="M110.76,134.39a2.48,2.48,0,0,0,.3-.25Z"/><path id="Path_6015" data-name="Path 6015" class="cls-13" d="M111.27,133.94c.13-.11.27-.24.4-.37Z"/><path id="Path_6016" data-name="Path 6016" class="cls-13" d="M117,134.41h0Z"/><path id="Path_6018" data-name="Path 6018" class="cls-13" d="M117.32,134.37h0Z"/><path id="Path_6019" data-name="Path 6019" class="cls-13" d="M117.19,134.39h0Z"/><path id="Path_6020" data-name="Path 6020" class="cls-13" d="M117.55,134.35h0Z"/><path id="Path_6021" data-name="Path 6021" class="cls-13" d="M117.44,134.36h0Z"/><path id="Path_6022" data-name="Path 6022" class="cls-13" d="M116.45,134.46h0Z"/><path id="Path_6023" data-name="Path 6023" class="cls-13" d="M117.67,134.34h0Z"/><path id="Path_6024" data-name="Path 6024" class="cls-13" d="M116.34,134.46h0Z"/><path id="Path_6025" data-name="Path 6025" class="cls-13" d="M116.24,134.47h0Z"/><path id="Path_6026" data-name="Path 6026" class="cls-13" d="M116.83,134.42h0Z"/><path id="Path_6027" data-name="Path 6027" class="cls-13" d="M116.58,134.44h0Z"/><path id="Path_6028" data-name="Path 6028" class="cls-13" d="M116.69,134.43h0Z"/><path id="Path_6029" data-name="Path 6029" class="cls-13" d="M117.08,134.4h0Z"/><path id="Path_6030" data-name="Path 6030" class="cls-13" d="M118.28,134.26h0Z"/><path id="Path_6031" data-name="Path 6031" class="cls-13" d="M118.34,134.25h0Z"/><path id="Path_6032" data-name="Path 6032" class="cls-13" d="M118.38,134.24h0Z"/><path id="Path_6033" data-name="Path 6033" class="cls-13" d="M107.58,134.23h0a1.91,1.91,0,0,1-.48-.46A1.91,1.91,0,0,0,107.58,134.23Z"/><path id="Path_6035" data-name="Path 6035" class="cls-13" d="M118.14,134.28h0Z"/><path id="Path_6036" data-name="Path 6036" class="cls-13" d="M118,134.3h0Z"/><path id="Path_6037" data-name="Path 6037" class="cls-13" d="M118.22,134.27h0Z"/><path id="Path_6038" data-name="Path 6038" class="cls-13" d="M117.88,134.31h0Z"/><path id="Path_6039" data-name="Path 6039" class="cls-13" d="M118.06,134.29h0Z"/><path id="Path_6040" data-name="Path 6040" class="cls-13" d="M117.76,134.33h0Z"/><path id="Path_6041" data-name="Path 6041" class="cls-13" d="M112.54,132.82l0,0Z"/><path id="Path_6042" data-name="Path 6042" class="cls-13" d="M112.76,132.69h0Z"/><path id="Path_6043" data-name="Path 6043" class="cls-13" d="M111.72,133.53l0-.06Z"/><path id="Path_6044" data-name="Path 6044" class="cls-13" d="M112.64,132.75h0Z"/><path id="Path_6045" data-name="Path 6045" class="cls-13" d="M112.83,132.65h0Z"/><path id="Path_6046" data-name="Path 6046" class="cls-13" d="M113,132.61h0Z"/><path id="Path_6047" data-name="Path 6047" class="cls-13" d="M112.91,132.62h0Z"/><path id="Path_6048" data-name="Path 6048" class="cls-13" d="M113.08,132.62l0,0Z"/><path id="Path_6049" data-name="Path 6049" class="cls-13" d="M112,133.29l0,0Z"/><path id="Path_6050" data-name="Path 6050" class="cls-13" d="M111.83,133.42l0,0Z"/><path id="Path_6051" data-name="Path 6051" class="cls-13" d="M112.09,133.18l0,0Z"/><path id="Path_6052" data-name="Path 6052" class="cls-13" d="M112.32,133l0,0Z"/><path id="Path_6053" data-name="Path 6053" class="cls-13" d="M112.2,133.09l0,0Z"/><path id="Path_6054" data-name="Path 6054" class="cls-13" d="M112.44,132.89l0,0Z"/><path id="Path_6055" data-name="Path 6055" class="cls-13" d="M114.86,134.07h0Z"/><path id="Path_6056" data-name="Path 6056" class="cls-13" d="M113.79,133.09l.07.06Z"/><path id="Path_6057" data-name="Path 6057" class="cls-13" d="M114,133.29l.08.08Z"/><path id="Path_6058" data-name="Path 6058" class="cls-13" d="M113.9,133.18l.09.08Z"/><path id="Path_6059" data-name="Path 6059" class="cls-13" d="M114.16,133.42l.06.05Z"/><path id="Path_6060" data-name="Path 6060" class="cls-13" d="M114.28,133.53l0,0Z"/><path id="Path_6061" data-name="Path 6061" class="cls-13" d="M113.16,132.65l.06,0Z"/><path id="Path_6062" data-name="Path 6062" class="cls-13" d="M114.78,134l0,0Z"/><path id="Path_6063" data-name="Path 6063" class="cls-13" d="M113.67,133l.08.07Z"/><path id="Path_6064" data-name="Path 6064" class="cls-13" d="M113.24,132.69l.09.05Z"/><path id="Path_6065" data-name="Path 6065" class="cls-13" d="M113.35,132.75l.07.05Z"/><path id="Path_6066" data-name="Path 6066" class="cls-13" d="M113.55,132.89l.1.08Z"/><path id="Path_6067" data-name="Path 6067" class="cls-13" d="M113.45,132.82l.07.05Z"/><path id="Path_6068" data-name="Path 6068" class="cls-10" d="M118.08,138.89l.34-1,1-.63s0,0,0,0,0-.1,0-.15l-1,.66.23-.67.76-.33a1.1,1.1,0,0,1,0-.18l-.72.36.2-.58-.19.1-.18.56-.76.37.21-.57-.18.09-.19.56-1.07.52v0l1-.45-.35,1-.93.65v0l.9-.58-.43,1.26-.76.63v0l.74-.57-.53,1.57h0l.6-1.63,1-.79-.44,1.41,0,0,.5-1.44,1.24-1q0-.1.06-.24Zm-.28-1.42.75-.33-.22.71-.9.63ZM118,139l-1,.86.47-1.27.89-.58Z"/><path id="Path_6069" data-name="Path 6069" class="cls-10" d="M106.68,137.88c0,.09,0,.17.06.23l1.24,1,.5,1.44,0,0-.44-1.42,1,.8.6,1.63h0l-.53-1.57.74.57v0l-.77-.62-.43-1.26.9.58v0l-.92-.64-.36-1,1,.46v0l-1.07-.52-.19-.56-.17-.09.21.57-.77-.37-.18-.56-.19-.1.2.57-.72-.35,0,.18.76.33.23.67-1-.67c0,.05,0,.1,0,.15s0,0,0,0l1,.64.34,1Zm1.88.59-.9-.63-.22-.7.75.33Zm-.85-.48.89.58.47,1.27-1-.86Z"/><path id="Path_6070" data-name="Path 6070" class="cls-13" d="M119.26,133.35l-.3.34-.07.08a1.91,1.91,0,0,1-.48.46H116.2a.42.42,0,0,0-.43.41v.09a2,2,0,0,0-.54-.59h0l-.3-.25h0l-.06-.05v0l-.06,0,0,0-.06-.05h0l-.4-.37,0,0-.06,0-.06-.06,0,0-.09-.09,0,0-.09-.08,0,0-.07-.06,0,0-.08-.07,0,0-.1-.08,0,0-.07,0,0,0-.07,0,0,0-.09-.05h0l-.06,0h-.33l-.06,0h0l-.08.05,0,0-.07,0,0,0-.07,0,0,0-.1.08,0,0-.08.07,0,0-.07.06,0,0-.09.08,0,0-.09.09,0,0-.06.06,0,0,0,0-.4.37h0l-.06.06,0,0-.06.05h0l-.06.05h0a2.82,2.82,0,0,1-.3.25h0a2.21,2.21,0,0,0-.55.59.42.42,0,0,0-.34-.49h-2.27a2.14,2.14,0,0,1-.49-.46l-.07-.08-.3-.35-.16-.18a6.6,6.6,0,0,0-1.23-1.19,7.59,7.59,0,0,1,1,3.4v.05c0,.28.09.61.38.77a16,16,0,0,0,2.38,1.09c.19,0,.27-.59.48-1a6,6,0,0,1,2-1.09c.41-.15,1.35,0,1.35.7,0-.71.94-.85,1.36-.7a6,6,0,0,1,2,1.09c.22.38.3,1,.48,1a15.64,15.64,0,0,0,2.39-1.09c.29-.16.33-.49.38-.77v-.05a7.58,7.58,0,0,1,1-3.4A8.25,8.25,0,0,0,119.26,133.35Z"/></g></g></g></g></g></svg>