<svg id="Layer_1" data-name="Layer 1" xmlns="http://www.w3.org/2000/svg" viewBox="0 0 67.89 58.86"><defs><style>.cls-1{fill:#c25cff;}</style></defs><path id="Path_5499-2" data-name="Path 5499-2" class="cls-1" d="M59.94,53.54a2.47,2.47,0,0,1-2.57-1.48Q47.59,34.48,37.67,17a2.51,2.51,0,0,1,0-2.8c2.15-3.8,4.2-7.65,6.36-11.63L39.36,0c-1.83,3.34-3.6,6.55-5.51,10C32.05,6.85,30.37,3.9,28.63.86c-1.58.87-3.05,1.71-4.64,2.6,2,3.64,3.92,7.13,6,10.53a3,3,0,0,1,0,3.35Q20.47,34.52,11.15,51.75a2.89,2.89,0,0,1-3,1.8c-2.72,0-5.44.19-8.15.31v4.93c.48,0,1,.07,1.43.07h65a12.19,12.19,0,0,0,1.48-.17V53.5C65.13,53.5,62.53,53.43,59.94,53.54ZM41.88,43.31a1.13,1.13,0,0,0,0,.18,3.35,3.35,0,0,1-.31,1.11,1.43,1.43,0,0,1-1.91.63l-.16-.09a2.22,2.22,0,0,1-.84-1c-.28-.68-.53-1.37-.78-2a.61.61,0,0,0-.3-.35l0,0H30.31a.55.55,0,0,0-.27.33c-.2.56-.41,1.12-.62,1.68A2.77,2.77,0,0,1,28.66,45a1.42,1.42,0,0,1-1.58.33,1.67,1.67,0,0,1-.94-1.24c-.05-.24-.08-.48-.13-.73v-1c0-.22,0-.44.08-.66.17-.93.32-1.87.52-2.8a11.79,11.79,0,0,1,.5-1.76A8.49,8.49,0,0,1,27.79,36a1.39,1.39,0,0,1,.23-.25c0-.09.07-.14.19-.19a2.49,2.49,0,0,1,1.68-.05c.14,0,.25.07.21.22.37.22.77.1,1.15.15H36.7a2.17,2.17,0,0,0,1-.12c0-.09.07-.19.12-.2a2.49,2.49,0,0,1,1.82,0c.09,0,.19.06.17.19s0,0,.06.07a.53.53,0,0,1,.14.12c.17.26.35.52.5.8a3.43,3.43,0,0,1,.32.67,28.67,28.67,0,0,1,.87,4c.06.33.09.66.12,1v1Z"/></svg>