<svg xmlns="http://www.w3.org/2000/svg" xmlns:xlink="http://www.w3.org/1999/xlink" width="85.886" height="76.855" viewBox="0 0 85.886 76.855"><defs><style>.a{fill:url(#a);}.b{filter:url(#b);}</style><linearGradient id="a" x1="0.5" x2="0.5" y2="1" gradientUnits="objectBoundingBox"><stop offset="0" stop-color="#64f9a0"/><stop offset="1" stop-color="#5ff5f9"/></linearGradient><filter id="b" x="0" y="0" width="85.886" height="76.855" filterUnits="userSpaceOnUse"><feOffset dy="3" input="SourceAlpha"/><feGaussianBlur stdDeviation="3" result="c"/><feFlood flood-color="#030312" flood-opacity="0.639"/><feComposite operator="in" in2="c"/><feComposite in="SourceGraphic"/></filter></defs><g class="b" transform="matrix(1, 0, 0, 1, 0, 0)"><path class="a" d="M59.94,53.525a2.458,2.458,0,0,1-2.567-1.48q-9.781-17.573-19.7-35.084a2.474,2.474,0,0,1,0-2.8c2.143-3.8,4.193-7.653,6.359-11.63C42.452,1.67,40.964.861,39.361-.01c-1.834,3.337-3.607,6.551-5.511,10.019-1.8-3.168-3.484-6.12-5.226-9.164-1.572.879-3.044,1.711-4.64,2.605,2.042,3.638,3.923,7.129,5.95,10.528a2.947,2.947,0,0,1-.015,3.353Q20.463,34.5,11.145,51.744a2.9,2.9,0,0,1-3,1.8c-2.713-.046-5.434.185-8.147.308v4.933c.478.023.956.062,1.434.062q32.486,0,64.98-.008a11.724,11.724,0,0,0,1.472-.17V53.494C65.127,53.494,62.529,53.425,59.94,53.525ZM41.874,43.3c-.008.062-.023.123-.031.177a3.1,3.1,0,0,1-.308,1.11,1.422,1.422,0,0,1-2.066.54,2.212,2.212,0,0,1-.84-1c-.277-.678-.532-1.364-.778-2.05a.63.63,0,0,0-.3-.347c-.008.008-.023.015-.031.023H30.313a.551.551,0,0,0-.277.324c-.2.563-.408,1.125-.617,1.688a2.745,2.745,0,0,1-.763,1.187,1.407,1.407,0,0,1-1.58.324,1.636,1.636,0,0,1-.933-1.233c-.054-.239-.085-.486-.131-.732v-.963c.023-.216.039-.439.077-.655.17-.933.324-1.873.524-2.8a11.538,11.538,0,0,1,.5-1.765,8.106,8.106,0,0,1,.678-1.172,1.413,1.413,0,0,1,.231-.247c-.015-.092.069-.139.185-.193a2.516,2.516,0,0,1,1.68-.046c.139.039.247.069.216.216.362.224.763.108,1.148.154l5.449-.008a2.171,2.171,0,0,0,1.04-.123c.046-.085.069-.185.116-.2a2.492,2.492,0,0,1,1.827.015c.085.039.185.054.162.185,0,.023.039.046.062.069a.732.732,0,0,1,.146.123c.17.262.347.524.5.8a3.342,3.342,0,0,1,.316.671,29.134,29.134,0,0,1,.871,3.985c.054.331.085.663.123.994V43.3Z" transform="translate(9 6.01)"/></g></svg>