<svg xmlns="http://www.w3.org/2000/svg" xmlns:xlink="http://www.w3.org/1999/xlink" width="1142.713" height="1142.717" viewBox="0 0 1142.713 1142.717">
  <defs>
    <linearGradient id="linear-gradient" x1="0.5" x2="0.5" y2="1" gradientUnits="objectBoundingBox">
      <stop offset="0" stop-color="#64f9a0"/>
      <stop offset="1" stop-color="#5ff5f9"/>
    </linearGradient>
  </defs>
  <g id="Group_5854" data-name="Group 5854" opacity="0.087">
    <path id="Path_9436" data-name="Path 9436" d="M471.559,909.933l0-8.128a432.733,432.733,0,0,0,95.772-10.75l1.809,7.921A440.4,440.4,0,0,1,471.559,909.933Zm-24.584-.666a442.421,442.421,0,0,1-48.872-5.414l1.345-8.019a435.093,435.093,0,0,0,47.97,5.32ZM373.966,899.1a436.406,436.406,0,0,1-92.745-32.375l3.528-7.328a427.94,427.94,0,0,0,91.017,31.774Zm218.99-6.259-2.251-7.811a428.251,428.251,0,0,0,45.547-15.96l3.117,7.511A437.588,437.588,0,0,1,592.956,892.839Zm68.823-26.316-3.536-7.319a431.455,431.455,0,0,0,81.531-51.351l5.072,6.348A439.735,439.735,0,0,1,661.779,866.524ZM259.34,855.417A441.487,441.487,0,0,1,217.7,829.235l4.7-6.629a431.741,431.741,0,0,0,40.873,25.7Zm-61.308-40.979a441.937,441.937,0,0,1-69.489-69.392l6.348-5.08A433.305,433.305,0,0,0,203.1,808.077Zm565.591-16.11-5.418-6.056a434.209,434.209,0,0,0,34.131-34.143l6.06,5.422A442.832,442.832,0,0,1,763.623,798.327Zm50.656-53.566-6.352-5.072A431.414,431.414,0,0,0,859.273,658.1l7.324,3.532A439.419,439.419,0,0,1,814.279,744.761ZM113.732,725.424A440.937,440.937,0,0,1,87.5,683.843L94.61,679.9a433.326,433.326,0,0,0,25.742,40.813ZM76.187,662.039a436.168,436.168,0,0,1-32.526-92.663l7.925-1.813A428.014,428.014,0,0,0,83.5,658.5Zm800.485-22.89-7.511-3.113a428.924,428.924,0,0,0,15.94-45.58l7.811,2.247A438.243,438.243,0,0,1,876.672,639.149Zm22.365-70.27-7.929-1.8a432.936,432.936,0,0,0,10.7-95.781l0-.992h8.128l0,.967A441.148,441.148,0,0,1,899.037,568.88ZM38.866,545.247a441.81,441.81,0,0,1-5.507-48.86l8.116-.459a434.344,434.344,0,0,0,5.4,47.961Zm1.918-73.456H32.656v-.5a441.115,441.115,0,0,1,10.782-97.1l7.929,1.8a433,433,0,0,0-10.583,95.3Zm860.3-25.621a434.03,434.03,0,0,0-5.454-47.949l8.01-1.374A441.88,441.88,0,0,1,909.2,445.7Zm-10.193-71.623a428.121,428.121,0,0,0-32.022-90.9l7.316-3.548A436.313,436.313,0,0,1,898.81,372.73ZM57.35,352.609l-7.811-2.239a436.359,436.359,0,0,1,16.188-46.462l7.515,3.105A428.878,428.878,0,0,0,57.35,352.609ZM83.1,284.936l-7.328-3.524A439.78,439.78,0,0,1,128,198.227l6.356,5.064A431.593,431.593,0,0,0,83.1,284.936Zm764.639-22.674a432.188,432.188,0,0,0-25.791-40.784l6.616-4.723a440.12,440.12,0,0,1,26.279,41.556ZM807.39,202.234A433.444,433.444,0,0,0,739.1,134.2l5.06-6.36a441.564,441.564,0,0,1,69.566,69.311Zm-657.466-17.4-6.064-5.414A442.749,442.749,0,0,1,178.589,144.6l5.426,6.056A433.455,433.455,0,0,0,149.924,184.831Zm52.505-49.786-5.08-6.344a439.2,439.2,0,0,1,83.011-52.42L283.9,83.6A431.449,431.449,0,0,0,202.429,135.045ZM719.787,119.7a430.985,430.985,0,0,0-40.9-25.649l3.922-7.12a439.783,439.783,0,0,1,41.678,26.133ZM657.393,82.979a427.613,427.613,0,0,0-91.05-31.664l1.788-7.929a435.861,435.861,0,0,1,92.781,32.266Zm-351.511-9.27-3.129-7.5a436.856,436.856,0,0,1,46.4-16.318l2.26,7.807A428.353,428.353,0,0,0,305.883,73.708Zm68.9-22.064-1.813-7.921a440.951,440.951,0,0,1,97.565-11.067l.008,8.128A432.846,432.846,0,0,0,374.779,51.644Zm167.875-4.975a432.668,432.668,0,0,0-47.978-5.255l.435-8.12a441.069,441.069,0,0,1,48.88,5.361Z" transform="translate(100.064 100.064)" fill="url(#linear-gradient)"/>
    <path id="Path_9437" data-name="Path 9437" d="M496.846,969.381c-260.55,0-472.53-211.979-472.53-472.534S236.3,24.317,496.846,24.317,969.38,236.3,969.38,496.847,757.4,969.381,496.846,969.381Zm0-928.807c-251.589,0-456.273,204.684-456.273,456.273S245.257,953.124,496.846,953.124,953.123,748.436,953.123,496.847,748.439,40.574,496.846,40.574Z" transform="translate(74.509 74.512)" fill="url(#linear-gradient)"/>
    <path id="Path_9438" data-name="Path 9438" d="M543.452,1077.8a535.89,535.89,0,0,1-141.677-18.988l10.754-39.2a494.975,494.975,0,0,0,130.923,17.545,501.361,501.361,0,0,0,59.776-3.581l4.869,40.345A541.13,541.13,0,0,1,543.452,1077.8Zm113.907-12.172-8.624-39.711a489.11,489.11,0,0,0,175.3-76.175l23.125,33.416A529.3,529.3,0,0,1,657.359,1065.631Zm-303.094-22.3A531.75,531.75,0,0,1,178.643,933.891L206.4,904.206a491.376,491.376,0,0,0,162.258,101.121Zm532.6-90.485L860.73,921.727A493.177,493.177,0,0,0,980.745,772.843l35.976,18.915A533.668,533.668,0,0,1,886.867,952.85Zm-743.09-54.724A531.457,531.457,0,0,1,38.88,719.749l38.366-13.408a490.83,490.83,0,0,0,96.923,164.794Zm894.095-151.643-37.59-15.456a490.847,490.847,0,0,0,36.879-187.574l0-1.134H1077.8l0,1.028A531.475,531.475,0,0,1,1037.872,746.483ZM24.639,671.849A539.177,539.177,0,0,1,14.8,465.209l40.207,5.905a498.658,498.658,0,0,0,9.092,191Zm1010.29-175.609A488.824,488.824,0,0,0,980.25,313.116l35.932-18.988A529.177,529.177,0,0,1,1075.388,492.4ZM63.842,425.828l-39.479-9.652A529.865,529.865,0,0,1,111.7,228.569l32.818,23.975A489.357,489.357,0,0,0,63.842,425.828ZM956.8,273.364a493.632,493.632,0,0,0-133.638-136.8l23.052-33.477A534.288,534.288,0,0,1,990.8,251.1Zm-783.338-56.8-30.445-26.917A533.173,533.173,0,0,1,307.38,63.961l17.976,36.448A492.912,492.912,0,0,0,173.461,216.563Zm610.5-104.376A488.527,488.527,0,0,0,602.167,53.2l4.78-40.357a528.993,528.993,0,0,1,196.84,63.864ZM367.648,81.961,353.175,43.986A532.285,532.285,0,0,1,543.452,9.107q6.871,0,13.692.175l-1.032,40.626q-6.31-.159-12.66-.158A491.79,491.79,0,0,0,367.648,81.961Z" transform="translate(27.902 27.905)" fill="url(#linear-gradient)"/>
    <path id="Path_9439" data-name="Path 9439" d="M454.168,870.1c-229.342,0-415.924-186.582-415.924-415.928S224.826,38.244,454.168,38.244,870.1,224.826,870.1,454.172,683.514,870.1,454.168,870.1Zm0-815.6C233.792,54.5,54.5,233.792,54.5,454.172S233.792,853.844,454.168,853.844,853.839,674.552,853.839,454.172,674.548,54.5,454.168,54.5Z" transform="translate(117.186 117.186)" fill="url(#linear-gradient)"/>
    <path id="Path_9440" data-name="Path 9440" d="M398.394,740.35c-188.549,0-341.948-153.4-341.948-341.952S209.844,56.446,398.394,56.446,740.346,209.844,740.346,398.4,586.947,740.35,398.394,740.35Zm0-675.775C214.323,64.574,64.574,214.327,64.574,398.4S214.323,732.221,398.394,732.221,732.217,582.469,732.217,398.4,582.469,64.574,398.394,64.574Z" transform="translate(172.961 172.961)" fill="url(#linear-gradient)"/>
    <g id="Group_5852" data-name="Group 5852" transform="translate(182.094 182.098)">
      <rect id="Rectangle_2970" data-name="Rectangle 2970" width="32.41" height="8.126" transform="matrix(0.981, -0.195, 0.195, 0.981, 738.515, 315.653)" fill="url(#linear-gradient)"/>
      <rect id="Rectangle_2971" data-name="Rectangle 2971" width="32.413" height="8.128" transform="translate(488.987 46.525) rotate(-73.14)" fill="url(#linear-gradient)"/>
      <rect id="Rectangle_2972" data-name="Rectangle 2972" width="8.129" height="32.411" transform="translate(553.922 705.94) rotate(-28.125)" fill="url(#linear-gradient)"/>
      <rect id="Rectangle_2973" data-name="Rectangle 2973" width="8.129" height="32.408" transform="translate(169.606 67.841) rotate(-33.754)" fill="url(#linear-gradient)"/>
      <rect id="Rectangle_2974" data-name="Rectangle 2974" width="8.128" height="32.413" transform="matrix(0.957, -0.29, 0.29, 0.957, 272.354, 17.865)" fill="url(#linear-gradient)"/>
      <rect id="Rectangle_2975" data-name="Rectangle 2975" width="8.13" height="32.41" transform="matrix(0.981, -0.195, 0.195, 0.981, 309.324, 8.223)" fill="url(#linear-gradient)"/>
      <rect id="Rectangle_2976" data-name="Rectangle 2976" width="8.13" height="32.408" transform="translate(139.173 90.935) rotate(-39.374)" fill="url(#linear-gradient)"/>
      <rect id="Rectangle_2977" data-name="Rectangle 2977" width="8.128" height="32.408" transform="translate(347.063 2.26) rotate(-5.626)" fill="url(#linear-gradient)"/>
      <rect id="Rectangle_2978" data-name="Rectangle 2978" width="8.128" height="32.406" transform="translate(385.198)" fill="url(#linear-gradient)"/>
      <rect id="Rectangle_2979" data-name="Rectangle 2979" width="32.407" height="8.128" transform="translate(420.203 33.716) rotate(-84.395)" fill="url(#linear-gradient)"/>
      <rect id="Rectangle_2980" data-name="Rectangle 2980" width="8.128" height="32.407" transform="translate(1.465 355.151) rotate(-84.377)" fill="url(#linear-gradient)"/>
      <rect id="Rectangle_2981" data-name="Rectangle 2981" width="8.126" height="32.411" transform="translate(6.638 317.296) rotate(-78.751)" fill="url(#linear-gradient)"/>
      <rect id="Rectangle_2982" data-name="Rectangle 2982" width="8.13" height="32.413" transform="translate(15.507 280.131) rotate(-73.123)" fill="url(#linear-gradient)"/>
      <rect id="Rectangle_2983" data-name="Rectangle 2983" width="8.128" height="32.412" transform="matrix(0.383, -0.924, 0.924, 0.383, 28.003, 244.022)" fill="url(#linear-gradient)"/>
      <rect id="Rectangle_2984" data-name="Rectangle 2984" width="8.126" height="32.408" transform="matrix(0.556, -0.832, 0.832, 0.556, 63.325, 176.364)" fill="url(#linear-gradient)"/>
      <rect id="Rectangle_2985" data-name="Rectangle 2985" width="8.13" height="32.408" transform="translate(85.777 145.456) rotate(-50.626)" fill="url(#linear-gradient)"/>
      <rect id="Rectangle_2986" data-name="Rectangle 2986" width="8.129" height="32.412" transform="matrix(0.471, -0.882, 0.882, 0.471, 43.998, 209.322)" fill="url(#linear-gradient)"/>
      <rect id="Rectangle_2987" data-name="Rectangle 2987" width="8.127" height="32.408" transform="matrix(0.707, -0.707, 0.707, 0.707, 111.14, 116.885)" fill="url(#linear-gradient)"/>
      <rect id="Rectangle_2988" data-name="Rectangle 2988" width="8.129" height="32.411" transform="translate(202.155 47.828) rotate(-28.125)" fill="url(#linear-gradient)"/>
      <rect id="Rectangle_2989" data-name="Rectangle 2989" width="8.128" height="32.412" transform="matrix(0.924, -0.383, 0.383, 0.924, 236.514, 31.112)" fill="url(#linear-gradient)"/>
      <rect id="Rectangle_2990" data-name="Rectangle 2990" width="32.406" height="8.126" transform="translate(683.742 187.616) rotate(-33.768)" fill="url(#linear-gradient)"/>
      <rect id="Rectangle_2991" data-name="Rectangle 2991" width="32.413" height="8.13" transform="translate(729.642 281.764) rotate(-16.887)" fill="url(#linear-gradient)"/>
      <rect id="Rectangle_2992" data-name="Rectangle 2992" width="32.407" height="8.128" transform="translate(744.011 350.241) rotate(-5.633)" fill="url(#linear-gradient)"/>
      <rect id="Rectangle_2993" data-name="Rectangle 2993" width="32.412" height="8.129" transform="matrix(0.882, -0.472, 0.472, 0.882, 702.111, 217.437)" fill="url(#linear-gradient)"/>
      <rect id="Rectangle_2994" data-name="Rectangle 2994" width="32.412" height="8.128" transform="translate(717.466 248.918) rotate(-22.508)" fill="url(#linear-gradient)"/>
      <rect id="Rectangle_2995" data-name="Rectangle 2995" width="32.408" height="8.13" transform="translate(662.535 159.725) rotate(-39.354)" fill="url(#linear-gradient)"/>
      <rect id="Rectangle_2996" data-name="Rectangle 2996" width="32.41" height="8.13" transform="translate(454.901 38.423) rotate(-78.739)" fill="url(#linear-gradient)"/>
      <rect id="Rectangle_2997" data-name="Rectangle 2997" width="32.412" height="8.128" transform="translate(522.096 57.945) rotate(-67.492)" fill="url(#linear-gradient)"/>
      <rect id="Rectangle_2998" data-name="Rectangle 2998" width="32.408" height="8.127" transform="translate(638.725 134.054) rotate(-45)" fill="url(#linear-gradient)"/>
      <rect id="Rectangle_2999" data-name="Rectangle 2999" width="32.408" height="8.13" transform="translate(612.504 110.825) rotate(-50.606)" fill="url(#linear-gradient)"/>
      <rect id="Rectangle_3000" data-name="Rectangle 3000" width="32.411" height="8.129" transform="matrix(0.472, -0.882, 0.882, 0.472, 553.919, 72.577)" fill="url(#linear-gradient)"/>
      <rect id="Rectangle_3001" data-name="Rectangle 3001" width="32.407" height="8.129" transform="matrix(0.556, -0.831, 0.831, 0.556, 584.154, 90.269)" fill="url(#linear-gradient)"/>
      <rect id="Rectangle_3002" data-name="Rectangle 3002" width="8.129" height="32.41" transform="matrix(0.831, -0.556, 0.556, 0.831, 584.154, 688.251)" fill="url(#linear-gradient)"/>
      <rect id="Rectangle_3003" data-name="Rectangle 3003" width="8.13" height="32.408" transform="translate(612.507 667.695) rotate(-39.374)" fill="url(#linear-gradient)"/>
      <rect id="Rectangle_3004" data-name="Rectangle 3004" width="8.127" height="32.405" transform="matrix(0.707, -0.707, 0.707, 0.707, 638.725, 644.47)" fill="url(#linear-gradient)"/>
      <rect id="Rectangle_3005" data-name="Rectangle 3005" width="8.128" height="32.412" transform="matrix(0.924, -0.383, 0.383, 0.924, 522.098, 720.574)" fill="url(#linear-gradient)"/>
      <rect id="Rectangle_3006" data-name="Rectangle 3006" width="8.128" height="32.413" transform="matrix(0.957, -0.29, 0.29, 0.957, 488.984, 731.998)" fill="url(#linear-gradient)"/>
      <rect id="Rectangle_3007" data-name="Rectangle 3007" width="8.13" height="32.41" transform="matrix(0.981, -0.195, 0.195, 0.981, 454.904, 740.101)" fill="url(#linear-gradient)"/>
      <rect id="Rectangle_3008" data-name="Rectangle 3008" width="8.128" height="32.407" transform="translate(420.198 744.806) rotate(-5.623)" fill="url(#linear-gradient)"/>
      <rect id="Rectangle_3009" data-name="Rectangle 3009" width="8.128" height="32.406" transform="translate(385.198 746.118)" fill="url(#linear-gradient)"/>
      <rect id="Rectangle_3010" data-name="Rectangle 3010" width="32.406" height="8.128" transform="translate(746.118 385.196)" fill="url(#linear-gradient)"/>
      <rect id="Rectangle_3011" data-name="Rectangle 3011" width="8.128" height="32.408" transform="matrix(0.098, -0.995, 0.995, 0.098, 744.011, 428.283)" fill="url(#linear-gradient)"/>
      <rect id="Rectangle_3012" data-name="Rectangle 3012" width="8.126" height="32.41" transform="matrix(0.195, -0.981, 0.981, 0.195, 738.515, 462.876)" fill="url(#linear-gradient)"/>
      <rect id="Rectangle_3013" data-name="Rectangle 3013" width="8.128" height="32.412" transform="matrix(0.29, -0.957, 0.957, 0.29, 729.642, 496.762)" fill="url(#linear-gradient)"/>
      <rect id="Rectangle_3014" data-name="Rectangle 3014" width="8.126" height="32.408" transform="translate(683.739 590.91) rotate(-56.246)" fill="url(#linear-gradient)"/>
      <rect id="Rectangle_3015" data-name="Rectangle 3015" width="8.13" height="32.408" transform="translate(662.537 618.79) rotate(-50.626)" fill="url(#linear-gradient)"/>
      <rect id="Rectangle_3016" data-name="Rectangle 3016" width="8.128" height="32.412" transform="matrix(0.383, -0.924, 0.924, 0.383, 717.465, 529.606)" fill="url(#linear-gradient)"/>
      <rect id="Rectangle_3017" data-name="Rectangle 3017" width="8.127" height="32.41" transform="matrix(0.471, -0.882, 0.882, 0.471, 702.11, 561.091)" fill="url(#linear-gradient)"/>
      <rect id="Rectangle_3018" data-name="Rectangle 3018" width="32.406" height="8.128" transform="translate(0 385.196)" fill="url(#linear-gradient)"/>
      <rect id="Rectangle_3019" data-name="Rectangle 3019" width="32.408" height="8.13" transform="translate(85.775 633.059) rotate(-39.354)" fill="url(#linear-gradient)"/>
      <rect id="Rectangle_3020" data-name="Rectangle 3020" width="32.41" height="8.126" transform="translate(63.327 602.165) rotate(-33.768)" fill="url(#linear-gradient)"/>
      <rect id="Rectangle_3021" data-name="Rectangle 3021" width="32.41" height="8.127" transform="translate(43.999 569.198) rotate(-28.117)" fill="url(#linear-gradient)"/>
      <rect id="Rectangle_3022" data-name="Rectangle 3022" width="32.412" height="8.128" transform="translate(28.004 534.502) rotate(-22.508)" fill="url(#linear-gradient)"/>
      <rect id="Rectangle_3023" data-name="Rectangle 3023" width="32.405" height="8.127" transform="translate(111.14 661.636) rotate(-45)" fill="url(#linear-gradient)"/>
      <rect id="Rectangle_3024" data-name="Rectangle 3024" width="32.411" height="8.126" transform="matrix(0.981, -0.195, 0.195, 0.981, 6.638, 461.23)" fill="url(#linear-gradient)"/>
      <rect id="Rectangle_3025" data-name="Rectangle 3025" width="32.408" height="8.128" transform="translate(1.465 423.374) rotate(-5.633)" fill="url(#linear-gradient)"/>
      <rect id="Rectangle_3026" data-name="Rectangle 3026" width="32.412" height="8.128" transform="translate(15.508 498.387) rotate(-16.86)" fill="url(#linear-gradient)"/>
      <rect id="Rectangle_3027" data-name="Rectangle 3027" width="32.412" height="8.128" transform="translate(236.512 747.407) rotate(-67.492)" fill="url(#linear-gradient)"/>
      <rect id="Rectangle_3028" data-name="Rectangle 3028" width="32.411" height="8.129" transform="matrix(0.472, -0.882, 0.882, 0.472, 202.151, 730.689)" fill="url(#linear-gradient)"/>
      <rect id="Rectangle_3029" data-name="Rectangle 3029" width="32.413" height="8.128" transform="translate(272.357 760.658) rotate(-73.14)" fill="url(#linear-gradient)"/>
      <rect id="Rectangle_3030" data-name="Rectangle 3030" width="32.408" height="8.13" transform="translate(139.17 687.585) rotate(-50.606)" fill="url(#linear-gradient)"/>
      <rect id="Rectangle_3031" data-name="Rectangle 3031" width="32.411" height="8.129" transform="matrix(0.556, -0.831, 0.831, 0.556, 169.606, 710.683)" fill="url(#linear-gradient)"/>
      <rect id="Rectangle_3032" data-name="Rectangle 3032" width="32.408" height="8.128" transform="translate(347.069 776.263) rotate(-84.395)" fill="url(#linear-gradient)"/>
      <rect id="Rectangle_3033" data-name="Rectangle 3033" width="32.41" height="8.13" transform="translate(309.321 770.3) rotate(-78.739)" fill="url(#linear-gradient)"/>
    </g>
    <path id="Path_9441" data-name="Path 9441" d="M571.354,1142.717C256.307,1142.717,0,886.41,0,571.359S256.307,0,571.354,0s571.359,256.307,571.359,571.359S886.406,1142.717,571.354,1142.717Zm0-1126.46c-306.081,0-555.1,249.016-555.1,555.1s249.016,555.1,555.1,555.1,555.1-249.02,555.1-555.1S877.44,16.257,571.354,16.257Z" fill="url(#linear-gradient)"/>
    <g id="Group_5853" data-name="Group 5853" transform="translate(253.076 253.081)">
      <path id="Path_9442" data-name="Path 9442" d="M190.916,284.309l46.73-172.541h-5.739a87.908,87.908,0,0,0-84.929,65.153L101.2,346H290.907a87.863,87.863,0,0,0,83.625-61.052l-162.514-.642Z" transform="translate(57.016 89.397)" fill="url(#linear-gradient)"/>
      <path id="Path_9443" data-name="Path 9443" d="M164.228,157.491l-13.283,49.574h73.728l12.084-45.1H196.992l-4.36,16.254h20.476l-3.368,12.6H174.59l11.142-41.591h54.451l4.356-16.266H170.8Z" transform="translate(209.446 154.318)" fill="url(#linear-gradient)"/>
      <path id="Path_9444" data-name="Path 9444" d="M203.9,128.247h43.125l4.414-16.48H202.486a33.537,33.537,0,0,0-32.391,24.852l-13.453,50.217h74.692l12.253-45.681H203.311L198.9,157.627H219.62l-3.414,12.745H180.6l8.173-30.522A15.662,15.662,0,0,1,203.9,128.247Z" transform="translate(226.903 89.394)" fill="url(#linear-gradient)"/>
      <path id="Path_9445" data-name="Path 9445" d="M361.026,68.642C199.8,68.642,68.641,199.805,68.641,361.027S199.8,653.416,361.026,653.416,653.42,522.253,653.42,361.027,522.252,68.642,361.026,68.642ZM510,428.432a121.761,121.761,0,0,1-117.613,90.245H372.747L356.2,580.44a27.1,27.1,0,0,1-26.177,20.085h-18.9l21.93-81.848H303.274L286.725,580.44a27.1,27.1,0,0,1-26.177,20.085h-18.9l21.93-81.848H151.758l60.3-225.054a121.753,121.753,0,0,1,117.609-90.245h18.391l16.549-61.759a27.1,27.1,0,0,1,26.177-20.089h18.9l-21.93,81.849h29.778l16.549-61.759a27.1,27.1,0,0,1,26.177-20.089h18.9l-21.93,81.849H570.3Z" transform="translate(-42.748 -42.749)" fill="url(#linear-gradient)"/>
      <path id="Path_9446" data-name="Path 9446" d="M380.552,62.271c-175.784,0-318.282,142.5-318.282,318.278s142.5,318.282,318.282,318.282S698.83,556.333,698.83,380.549,556.332,62.271,380.552,62.271Zm0,618.8c-165.7,0-300.514-134.813-300.514-300.518S214.843,80.035,380.548,80.035,681.07,214.848,681.07,380.549,546.257,681.067,380.548,681.067Z" transform="translate(-62.27 -62.271)" fill="url(#linear-gradient)"/>
    </g>
  </g>
</svg>
