<?xml version="1.0" encoding="UTF-8"?> <!-- Generator: Adobe Illustrator 24.2.1, SVG Export Plug-In . SVG Version: 6.00 Build 0) --> <svg xmlns="http://www.w3.org/2000/svg" xmlns:xlink="http://www.w3.org/1999/xlink" version="1.1" id="Layer_1" x="0px" y="0px" viewBox="0 0 524.7 370" style="enable-background:new 0 0 524.7 370;" xml:space="preserve"> <style type="text/css"> .st0{clip-path:url(#SVGID_2_);} .st1{opacity:0.1;} .st2{fill:#102B35;} .st3{fill:#76868F;} .st4{fill:#FFFFFF;} .st5{fill:#F1F1F1;} .st6{fill:#0097A8;} .st7{fill:#3ECACD;} .st8{fill:#F9F8F7;} .st9{fill:none;} .st10{fill:#B9BECC;} .st11{fill:#32CECC;} .st12{fill:#49C370;} .st13{fill:#76858E;} .st14{fill:#FF5164;} .st15{fill:#F19500;} .st16{clip-path:url(#SVGID_4_);} .st17{fill:#32CFCD;} .st18{fill:#CBCBCB;} .st19{fill:#49C470;} .st20{fill:#C0966D;} .st21{fill:#D3A988;} .st22{opacity:8.000000e-02;} .st23{clip-path:url(#SVGID_6_);} .st24{fill:#0D2B35;} .st25{clip-path:url(#SVGID_14_);} .st26{opacity:0;clip-path:url(#SVGID_14_);} .st27{clip-path:url(#SVGID_16_);} .st28{opacity:0.9;clip-path:url(#SVGID_16_);} .st29{opacity:0.3;clip-path:url(#SVGID_18_);} .st30{opacity:0.9;clip-path:url(#SVGID_18_);} .st31{opacity:0.9;clip-path:url(#SVGID_20_);} .st32{opacity:0.3;clip-path:url(#SVGID_20_);} .st33{clip-path:url(#SVGID_22_);} .st34{clip-path:url(#SVGID_30_);} .st35{fill:#EAB893;} .st36{fill:#DCA37C;} .st37{fill:#E7AA81;} .st38{fill:#758992;} .st39{clip-path:url(#SVGID_38_);} .st40{fill:#E9E5E1;} .st41{opacity:0;} .st42{clip-path:url(#SVGID_40_);} .st43{opacity:0.3;} .st44{opacity:0.9;} .st45{clip-path:url(#SVGID_42_);} .st46{clip-path:url(#SVGID_44_);} .st47{fill:#F2E1D7;} .st48{clip-path:url(#SVGID_46_);} </style> <g> <defs> <rect id="SVGID_1_" x="-0.3" y="0.7" width="524.7" height="369.5"></rect> </defs> <clipPath id="SVGID_2_"> <use xlink:href="#SVGID_1_" style="overflow:visible;"></use> </clipPath> <g class="st0"> <g class="st1"> <path class="st2" d="M488.6,57.9h-355c-8.5,0-15.3,6.9-15.3,15.3V277c0,8.5,6.9,15.3,15.3,15.3h116.6l-1.9,19.3l-28,23.3H207v9.7 h204.7V335H399l-24.5-23.3l-1.8-19.3h115.9c8.5,0,15.2-6.9,15.2-15.3V73.2C503.8,64.8,497,57.9,488.6,57.9z"></path> </g> <g> <g> <polygon class="st3" points="273.1,166.4 373.4,166.4 385.9,304 259.8,304 "></polygon> </g> <g> <polygon class="st4" points="259.8,304 385.9,304 411.1,327.9 231,327.9 "></polygon> </g> <g> <rect x="218.5" y="327.3" class="st3" width="204.7" height="9.7"></rect> </g> <g> <path class="st4" d="M145,50.3h355c8.5,0,15.2,6.9,15.2,15.3v203.8c0,8.5-6.7,15.3-15.2,15.3H145c-8.5,0-15.3-6.9-15.3-15.3 V65.6C129.7,57.2,136.6,50.3,145,50.3L145,50.3z"></path> </g> <g> <rect x="140.5" y="63.9" class="st5" width="360.6" height="207.9"></rect> </g> <g> <g> <rect x="140.5" y="63.9" class="st6" width="360.6" height="14.9"></rect> </g> <g> <rect x="140.5" y="78.7" class="st7" width="360.6" height="3.5"></rect> </g> </g> <g> <g> <path class="st4" d="M492,71.4l0-1.2c0-0.9-0.5-1.6-1.3-1.9c0,0,0,0,0-0.1c0-0.4-0.4-0.8-0.8-0.8c-0.4,0-0.8,0.4-0.8,0.8 c0,0,0,0,0,0.1c-0.8,0.3-1.3,1-1.3,1.9l0,1.2c0,0.4-1.1,1.6-1.1,1.8l0,0c0,0.2,0.2,0.4,0.4,0.4l5.5,0c0.2,0,0.4-0.2,0.4-0.4 l0,0C493.1,73,492,71.8,492,71.4z"></path> </g> <g> <path class="st4" d="M490,74.9c0.6,0,1-0.4,1-1l-2.1,0C489,74.5,489.4,74.9,490,74.9z"></path> </g> </g> </g> <g> <path class="st4" d="M153.5,69.8c-0.7,0-1.5,0.5-2.1,1c-0.6-0.6-0.9-1.6-0.9-1.8c-0.1-0.4-0.2-0.7-0.2-0.9c0-0.5,0.3-0.9,0.8-0.9 c0.4,0,0.8,0.4,0.8,0.8c0,0.4-0.4,0.9-1.1,1.4c0,0.3,0.1,0.5,0.2,0.6c0.8-0.6,1.5-1.3,1.5-2.1c0-0.8-0.6-1.4-1.4-1.4 c-0.8,0-1.5,0.7-1.5,1.6c0,0.6,0.2,1.2,0.4,1.8c-0.5,0.3-1.1,0.3-1.7,0.3c-1.3,0-1.9-0.3-1.9-1c0-0.4,0.4-0.8,0.8-0.8 c0.5,0,0.9,0.5,1.3,1.5c0.2,0.1,0.5,0,0.7,0c-0.2-0.7-0.6-1.5-1.1-1.8c-0.2-0.2-0.5-0.3-0.8-0.3c-0.8,0-1.4,0.6-1.4,1.4 c0,0.5,0.2,0.9,0.6,1.2c0.6,0.4,1.7,0.5,2.3,0.4c0.1,0.7,0,1.3-0.2,1.8c-0.3,1-0.7,1.4-1.2,1.4c-0.4,0-0.8-0.4-0.8-0.8 c0-0.6,0.6-1,1.8-1c0.1-0.2,0.2-0.5,0.2-0.6c-0.5,0-1.5,0-2.1,0.5c-0.4,0.3-0.6,0.7-0.6,1.2c0,0.8,0.7,1.4,1.4,1.4 c0.3,0,0.6-0.1,0.9-0.3c0.5-0.4,0.9-1.3,1.1-2.1h0h0c0.7,0.1,1.3,0.5,1.6,0.8c0.7,0.5,1.1,1,1.1,1.4c0,0.4-0.4,0.8-0.8,0.8 c-0.3,0-0.6-0.2-0.8-0.5c-0.1-0.4,0-1.1,0.1-1.5c-0.2-0.2-0.4-0.3-0.5-0.4c-0.2,0.7-0.4,1.5-0.2,2.1c0.2,0.6,0.8,1,1.4,1 c0.8,0,1.4-0.6,1.4-1.4c0-0.8-0.8-1.6-1.7-2.2c0.3-0.7,1-1.2,1.3-1.4c0.5-0.3,1-0.6,1.3-0.6c0,0-0.1,0,0,0c0.4,0,0.8,0.4,0.8,0.8 c0,0.4-0.4,0.8-0.8,0.8c0,0,0.1,0,0,0c-0.3,0-0.9-0.2-1.4-0.6c-0.2,0.1-0.4,0.3-0.5,0.4c0.6,0.5,1.3,0.8,2,0.8 c0.6,0,1.4-0.5,1.4-1.5C155,70.5,154.3,69.8,153.5,69.8L153.5,69.8z M150.3,72.1c-0.3-0.1-0.6-0.2-0.9-0.3c0-0.4,0-0.6,0-1 c0.3-0.1,0.6-0.2,0.9-0.3c0.2,0.3,0.3,0.5,0.6,0.8C150.7,71.6,150.5,71.8,150.3,72.1z"></path> </g> <g> <image style="overflow:visible;opacity:0.12;" width="642" height="296" transform="matrix(0.24 0 0 0.24 346.7293 111.0401)"> </image> <g> <g> <rect x="348.8" y="113.2" class="st4" width="147.8" height="64.7"></rect> </g> </g> </g> <g> <image style="overflow:visible;opacity:0.12;" width="642" height="384" transform="matrix(0.24 0 0 0.24 346.7293 179.9201)"> </image> <g> <g> <rect x="348.8" y="182.1" class="st4" width="147.8" height="85.9"></rect> </g> </g> </g> <g> <image style="overflow:visible;opacity:0.12;" width="855" height="671" transform="matrix(0.24 0 0 0.24 142.9693 111.0401)"> </image> <g> <g> <rect x="145.1" y="113.2" class="st4" width="199" height="154.8"></rect> </g> </g> </g> <g> <image style="overflow:visible;opacity:0.4;" width="609" height="115" transform="matrix(0.24 0 0 0.24 142.4411 84.1119)"> </image> <g> <g> <rect x="145.1" y="86" class="st8" width="140.8" height="22.1"></rect> </g> </g> </g> <g> <path class="st3" d="M150.9,99.3v-4.8h0.7l1.5,2.4c0.4,0.6,0.6,1.1,0.9,1.5l0,0c-0.1-0.6-0.1-1.2-0.1-2v-2h0.6v4.8h-0.6l-1.5-2.4 c-0.3-0.5-0.7-1.1-0.9-1.6l0,0c0,0.6,0,1.2,0,2v2H150.9z"></path> <path class="st3" d="M158.7,97.6c0,1.3-0.9,1.8-1.7,1.8c-0.9,0-1.6-0.7-1.6-1.8c0-1.1,0.7-1.8,1.7-1.8 C158,95.8,158.7,96.5,158.7,97.6z M156,97.6c0,0.7,0.4,1.3,1,1.3c0.6,0,1-0.6,1-1.3c0-0.6-0.3-1.3-1-1.3 C156.3,96.3,156,97,156,97.6z"></path> <path class="st3" d="M162.3,98.4c0,0.4,0,0.7,0,0.9h-0.6l0-0.6h0c-0.2,0.3-0.5,0.6-1.1,0.6c-0.5,0-1.2-0.3-1.2-1.5v-2h0.6v1.9 c0,0.7,0.2,1.1,0.8,1.1c0.4,0,0.7-0.3,0.8-0.6c0-0.1,0.1-0.2,0.1-0.3v-2.1h0.6V98.4z"></path> <path class="st3" d="M163.3,97c0-0.4,0-0.7,0-1.1h0.5l0,0.7h0c0.2-0.5,0.5-0.7,0.9-0.7c0.1,0,0.1,0,0.2,0v0.6c-0.1,0-0.1,0-0.2,0 c-0.4,0-0.7,0.3-0.8,0.8c0,0.1,0,0.2,0,0.3v1.8h-0.6V97z"></path> <path class="st3" d="M166.4,94.9c0,0.2-0.1,0.4-0.4,0.4c-0.2,0-0.4-0.2-0.4-0.4c0-0.2,0.2-0.4,0.4-0.4 C166.2,94.6,166.4,94.7,166.4,94.9z M165.7,99.3v-3.4h0.6v3.4H165.7z"></path> <path class="st3" d="M167.3,98.7c0.2,0.1,0.5,0.2,0.8,0.2c0.5,0,0.7-0.2,0.7-0.5c0-0.3-0.2-0.5-0.6-0.6c-0.6-0.2-0.9-0.6-0.9-1 c0-0.6,0.4-1,1.2-1c0.3,0,0.6,0.1,0.8,0.2l-0.2,0.5c-0.1-0.1-0.4-0.2-0.7-0.2c-0.4,0-0.6,0.2-0.6,0.5c0,0.3,0.2,0.4,0.7,0.6 c0.6,0.2,0.9,0.5,0.9,1c0,0.6-0.5,1-1.3,1c-0.4,0-0.7-0.1-1-0.2L167.3,98.7z"></path> <path class="st3" d="M170.1,94.3h0.6v2.1h0c0.1-0.2,0.3-0.3,0.4-0.4c0.2-0.1,0.4-0.2,0.6-0.2c0.5,0,1.2,0.3,1.2,1.5v2h-0.6v-2 c0-0.6-0.2-1-0.8-1c-0.4,0-0.7,0.3-0.8,0.6c0,0.1,0,0.2,0,0.3v2.1h-0.6V94.3z"></path> <path class="st3" d="M176.4,97.8l-0.5,1.5h-0.6l1.6-4.8h0.7l1.6,4.8h-0.7l-0.5-1.5H176.4z M177.9,97.3l-0.5-1.4 c-0.1-0.3-0.2-0.6-0.2-0.9h0c-0.1,0.3-0.1,0.6-0.2,0.9l-0.5,1.4H177.9z"></path> <path class="st3" d="M179.9,96.8c0-0.4,0-0.6,0-0.9h0.6l0,0.6h0c0.2-0.3,0.6-0.6,1.1-0.6c0.5,0,1.2,0.3,1.2,1.5v2h-0.6v-2 c0-0.6-0.2-1-0.8-1c-0.4,0-0.7,0.3-0.8,0.6c0,0.1,0,0.2,0,0.3v2.1h-0.6V96.8z"></path> <path class="st3" d="M185.7,99.3l0-0.4h0c-0.2,0.3-0.6,0.5-1,0.5c-0.7,0-1-0.5-1-1c0-0.8,0.7-1.3,2.1-1.3v-0.1 c0-0.3-0.1-0.8-0.8-0.8c-0.3,0-0.7,0.1-0.9,0.3l-0.1-0.4c0.3-0.2,0.7-0.3,1.1-0.3c1,0,1.3,0.7,1.3,1.4v1.3c0,0.3,0,0.6,0.1,0.8 H185.7z M185.6,97.6c-0.7,0-1.4,0.1-1.4,0.8c0,0.4,0.3,0.6,0.6,0.6c0.4,0,0.7-0.3,0.8-0.6c0-0.1,0-0.1,0-0.2V97.6z"></path> <path class="st3" d="M187.2,94.3h0.6v5h-0.6V94.3z"></path> <path class="st3" d="M189.1,95.9l0.7,2c0.1,0.2,0.2,0.5,0.2,0.7h0c0.1-0.2,0.1-0.5,0.2-0.7l0.7-2h0.7l-0.9,2.4 c-0.4,1.2-0.7,1.8-1.2,2.1c-0.3,0.3-0.6,0.4-0.8,0.4l-0.2-0.5c0.2,0,0.4-0.1,0.5-0.3c0.2-0.1,0.4-0.4,0.5-0.7c0-0.1,0-0.1,0-0.1 c0,0,0-0.1,0-0.2l-1.3-3.2H189.1z"></path> <path class="st3" d="M193,94.9v1h0.9v0.5H193v1.8c0,0.4,0.1,0.7,0.5,0.7c0.2,0,0.3,0,0.4,0l0,0.5c-0.1,0-0.3,0.1-0.6,0.1 c-0.3,0-0.5-0.1-0.7-0.3c-0.2-0.2-0.2-0.5-0.2-0.9v-1.9h-0.5v-0.5h0.5v-0.8L193,94.9z"></path> <path class="st3" d="M195.2,94.9c0,0.2-0.1,0.4-0.4,0.4c-0.2,0-0.4-0.2-0.4-0.4c0-0.2,0.2-0.4,0.4-0.4 C195.1,94.6,195.2,94.7,195.2,94.9z M194.5,99.3v-3.4h0.6v3.4H194.5z"></path> <path class="st3" d="M198.6,99.2c-0.2,0.1-0.5,0.2-1,0.2c-1,0-1.7-0.7-1.7-1.7c0-1.1,0.7-1.8,1.8-1.8c0.4,0,0.7,0.1,0.9,0.2 l-0.1,0.5c-0.1-0.1-0.4-0.2-0.7-0.2c-0.8,0-1.2,0.6-1.2,1.3c0,0.8,0.5,1.3,1.2,1.3c0.4,0,0.6-0.1,0.8-0.2L198.6,99.2z"></path> <path class="st3" d="M199.3,98.7c0.2,0.1,0.5,0.2,0.8,0.2c0.5,0,0.7-0.2,0.7-0.5c0-0.3-0.2-0.5-0.6-0.6c-0.6-0.2-0.9-0.6-0.9-1 c0-0.6,0.4-1,1.2-1c0.3,0,0.6,0.1,0.8,0.2l-0.2,0.5c-0.1-0.1-0.4-0.2-0.7-0.2c-0.4,0-0.6,0.2-0.6,0.5c0,0.3,0.2,0.4,0.7,0.6 c0.6,0.2,0.9,0.5,0.9,1c0,0.6-0.5,1-1.3,1c-0.4,0-0.7-0.1-1-0.2L199.3,98.7z"></path> </g> <g> <rect x="144.9" y="86" class="st9" width="100.1" height="182"></rect> </g> <g> <g> <rect x="362.7" y="255.6" class="st10" width="125.8" height="0.2"></rect> </g> <g> <rect x="362.7" y="244.4" class="st10" width="125.8" height="0.2"></rect> </g> <g> <rect x="362.7" y="233.2" class="st10" width="125.8" height="0.2"></rect> </g> <g> <rect x="362.7" y="222" class="st10" width="125.8" height="0.2"></rect> </g> <g> <rect x="362.7" y="210.7" class="st10" width="125.8" height="0.2"></rect> </g> <g> <rect x="362.7" y="199.5" class="st10" width="125.8" height="0.2"></rect> </g> <g> <rect x="362.7" y="188.3" class="st10" width="125.8" height="0.2"></rect> </g> <g> <rect x="370.1" y="236.8" class="st2" width="7.4" height="18.9"></rect> </g> <g> <rect x="370.1" y="221" class="st11" width="7.4" height="15.8"></rect> </g> <g> <rect x="370.1" y="208.4" class="st12" width="7.4" height="12.6"></rect> </g> <g> <rect x="384.9" y="241.3" class="st2" width="7.4" height="14.4"></rect> </g> <g> <rect x="384.9" y="226.1" class="st11" width="7.4" height="15.2"></rect> </g> <g> <rect x="384.9" y="202.8" class="st12" width="7.4" height="23.3"></rect> </g> <g> <rect x="399.7" y="238.4" class="st2" width="7.4" height="17.3"></rect> </g> <g> <rect x="399.7" y="223" class="st11" width="7.4" height="15.4"></rect> </g> <g> <rect x="399.7" y="213.8" class="st12" width="7.4" height="9.2"></rect> </g> <g> <rect x="414.5" y="243.2" class="st2" width="7.4" height="12.5"></rect> </g> <g> <rect x="414.5" y="230.3" class="st11" width="7.4" height="12.9"></rect> </g> <g> <rect x="414.5" y="219.3" class="st12" width="7.4" height="11"></rect> </g> <g> <rect x="429.3" y="241.3" class="st2" width="7.4" height="14.4"></rect> </g> <g> <rect x="429.3" y="224.8" class="st11" width="7.4" height="16.5"></rect> </g> <g> <rect x="429.3" y="202.8" class="st12" width="7.4" height="22"></rect> </g> <g> <rect x="444.1" y="247.1" class="st2" width="7.4" height="8.7"></rect> </g> <g> <rect x="444.1" y="217.9" class="st11" width="7.4" height="29.2"></rect> </g> <g> <rect x="444.1" y="191.7" class="st12" width="7.4" height="26.2"></rect> </g> <g> <rect x="458.9" y="230.7" class="st2" width="7.4" height="25"></rect> </g> <g> <rect x="458.9" y="219.3" class="st11" width="7.4" height="11.3"></rect> </g> <g> <rect x="458.9" y="213.8" class="st12" width="7.4" height="5.5"></rect> </g> <g> <rect x="473.7" y="241.3" class="st2" width="7.4" height="14.4"></rect> </g> <g> <rect x="473.7" y="226.1" class="st11" width="7.4" height="15.2"></rect> </g> <g> <rect x="473.7" y="208.4" class="st12" width="7.4" height="17.7"></rect> </g> <g> <rect x="369.3" y="261" class="st13" width="9" height="3"></rect> </g> <g> <rect x="384.1" y="261" class="st13" width="9" height="3"></rect> </g> <g> <rect x="398.9" y="261" class="st13" width="9" height="3"></rect> </g> <g> <rect x="413.8" y="261" class="st13" width="9" height="3"></rect> </g> <g> <rect x="428.7" y="261" class="st13" width="9" height="3"></rect> </g> <g> <rect x="443.5" y="261" class="st13" width="9" height="3"></rect> </g> <g> <rect x="458.3" y="261" class="st13" width="9" height="3"></rect> </g> <g> <rect x="473.1" y="261" class="st13" width="9" height="3"></rect> </g> <g> <rect x="353.6" y="254.9" class="st13" width="3.8" height="1.6"></rect> </g> <g> <rect x="353.6" y="243.7" class="st13" width="3.8" height="1.6"></rect> </g> <g> <rect x="353.6" y="232.5" class="st13" width="3.8" height="1.6"></rect> </g> <g> <rect x="353.6" y="221.3" class="st13" width="3.8" height="1.6"></rect> </g> <g> <rect x="353.6" y="210" class="st13" width="3.8" height="1.6"></rect> </g> <g> <rect x="353.6" y="198.8" class="st13" width="3.8" height="1.6"></rect> </g> <g> <rect x="353.6" y="187.6" class="st13" width="3.8" height="1.6"></rect> </g> </g> <g> <g> <g> <g> <path class="st2" d="M307.4,217.8c-2.9-7.2-9.8-11.9-17.6-11.9v-10c11.9,0,22.5,7.2,26.9,18.2L307.4,217.8z"></path> </g> </g> <g> <g> <path class="st14" d="M302.5,250.8l-4.4-9c6.6-3.2,10.7-9.7,10.7-17c0-2.4-0.4-4.8-1.3-7l9.3-3.7c1.4,3.4,2,7,2,10.7 C318.8,235.8,312.4,246,302.5,250.8z"></path> </g> </g> <g> <g> <path class="st15" d="M289.9,253.7c-5.8,0-11.5-1.7-16.3-5l5.6-8.3c3.1,2.1,6.8,3.3,10.6,3.3c2.9,0,5.7-0.6,8.2-1.9l4.4,9 C298.5,252.7,294.3,253.7,289.9,253.7z"></path> </g> </g> <g> <g> <path class="st11" d="M273.6,248.7c-7.9-5.4-12.7-14.3-12.7-23.9c0-16,13-28.9,28.9-28.9v10c-10.4,0-18.9,8.5-18.9,18.9 c0,6.3,3.1,12.1,8.3,15.6L273.6,248.7z"></path> </g> </g> </g> <g> <rect x="314.8" y="199.9" class="st13" width="11.4" height="3.4"></rect> </g> <g> <rect x="257.2" y="193.5" class="st13" width="11.4" height="3.4"></rect> </g> <g> <rect x="281.6" y="256.2" class="st13" width="11.4" height="3.4"></rect> </g> <g> <rect x="318.2" y="242.3" class="st13" width="11.4" height="3.4"></rect> </g> </g> <g> <g> <g> <g> <path class="st2" d="M222.7,234.2l-9.5-3.3c0.7-2,1-4.1,1-6.2c0-10.4-8.5-18.9-18.9-18.9v-10c16,0,28.9,13,28.9,28.9 C224.3,228,223.7,231.2,222.7,234.2z"></path> </g> </g> <g> <g> <path class="st14" d="M195.3,253.7c-4.4,0-8.7-1-12.6-2.9l4.4-9c2.6,1.2,5.4,1.9,8.2,1.9c8.1,0,15.2-5.1,17.9-12.7l9.5,3.3 C218.7,245.9,207.7,253.7,195.3,253.7z"></path> </g> </g> <g> <g> <path class="st15" d="M182.7,250.8c-6-2.9-10.9-7.9-13.7-14l9.1-4.2c1.8,4,5,7.2,9,9.2L182.7,250.8z"></path> </g> </g> <g> <g> <path class="st11" d="M169,236.8c-1.7-3.8-2.6-7.8-2.6-12.1c0-16,13-28.9,28.9-28.9v10c-10.4,0-18.9,8.5-18.9,18.9 c0,2.8,0.6,5.4,1.7,7.9L169,236.8z"></path> </g> </g> </g> <g> <rect x="159.7" y="247.4" class="st13" width="11.4" height="3.4"></rect> </g> <g> <rect x="155" y="200.9" class="st13" width="11.4" height="3.4"></rect> </g> <g> <rect x="221.5" y="199.9" class="st13" width="11.4" height="3.4"></rect> </g> <g> <rect x="221.1" y="249.1" class="st13" width="11.4" height="3.4"></rect> </g> </g> <g> <rect x="152" y="184.5" class="st13" width="59" height="3.6"></rect> </g> <g> <polygon class="st3" points="276,99.3 279.5,95.8 272.5,95.8 "></polygon> </g> <g> <defs> <rect id="SVGID_3_" x="390.4" y="71.7" transform="matrix(6.123234e-17 -1 1 6.123234e-17 277.1331 568.2836)" width="64.7" height="147.8"></rect> </defs> <clipPath id="SVGID_4_"> <use xlink:href="#SVGID_3_" style="overflow:visible;"></use> </clipPath> <g class="st16"> <g> <rect x="352.1" y="122.1" class="st10" width="141.1" height="0.2"></rect> </g> <g> <path class="st5" d="M492.2,176.2L492.2,176.2c0.5,0,0.9-0.4,0.9-0.9v-50.1c0-0.5-0.4-0.9-0.9-0.9l0,0c-0.5,0-0.9,0.4-0.9,0.9 v50.1C491.3,175.8,491.7,176.2,492.2,176.2z"></path> </g> <g> <path class="st17" d="M492.2,168.1L492.2,168.1c0.5,0,0.9-0.4,0.9-0.9v-19c0-0.5-0.4-0.9-0.9-0.9l0,0c-0.5,0-0.9,0.4-0.9,0.9 v19C491.3,167.6,491.7,168.1,492.2,168.1z"></path> </g> <g> <rect x="352.1" y="124.2" class="st5" width="137.4" height="7.9"></rect> </g> <g> <rect x="352.1" y="140" class="st5" width="137.4" height="7.9"></rect> </g> <g> <rect x="352.1" y="155.3" class="st5" width="137.4" height="7.9"></rect> </g> <g> <rect x="352.1" y="171" class="st5" width="137.4" height="7.9"></rect> </g> <g> <rect x="354.6" y="126.8" class="st18" width="34.9" height="2.7"></rect> </g> <g> <rect x="403.6" y="126.8" class="st18" width="13.5" height="2.7"></rect> </g> <g> <rect x="449.5" y="126.8" class="st18" width="15" height="2.7"></rect> </g> <g> <rect x="354.6" y="134.7" class="st18" width="28.3" height="2.7"></rect> </g> <g> <rect x="403.6" y="134.7" class="st18" width="21.2" height="2.7"></rect> </g> <g> <rect x="449.5" y="134.7" class="st18" width="13.5" height="2.7"></rect> </g> <g> <rect x="354.6" y="142.7" class="st18" width="31.4" height="2.7"></rect> </g> <g> <rect x="403.6" y="142.7" class="st18" width="12" height="2.7"></rect> </g> <g> <rect x="449.5" y="142.7" class="st18" width="16.6" height="2.7"></rect> </g> <g> <rect x="354.6" y="150.7" class="st18" width="33" height="2.7"></rect> </g> <g> <rect x="403.6" y="150.7" class="st18" width="13.9" height="2.7"></rect> </g> <g> <rect x="449.5" y="150.7" class="st18" width="12" height="2.7"></rect> </g> <g> <rect x="354.6" y="157.9" class="st18" width="29.5" height="2.7"></rect> </g> <g> <rect x="403.6" y="157.9" class="st18" width="16.7" height="2.7"></rect> </g> <g> <rect x="449.5" y="157.9" class="st18" width="14.7" height="2.7"></rect> </g> <g> <rect x="354.6" y="166.7" class="st18" width="39.1" height="2.7"></rect> </g> <g> <rect x="403.6" y="166.7" class="st18" width="10" height="2.7"></rect> </g> <g> <rect x="449.5" y="166.7" class="st18" width="12.7" height="2.7"></rect> </g> <g> <rect x="354.6" y="173.6" class="st18" width="35.7" height="2.7"></rect> </g> <g> <rect x="403.6" y="173.6" class="st18" width="14.3" height="2.7"></rect> </g> <g> <rect x="449.5" y="173.6" class="st18" width="11.2" height="2.7"></rect> </g> </g> <g class="st16"> <rect x="354.6" y="116.8" class="st13" width="25.1" height="2.7"></rect> </g> <g class="st16"> <rect x="403.6" y="116.8" class="st13" width="13.5" height="2.7"></rect> </g> <g class="st16"> <rect x="449.5" y="116.8" class="st13" width="13.5" height="2.7"></rect> </g> </g> <g> <g> <g> <polygon class="st10" points="333,160.2 167.6,159.7 167.6,159.5 333,159.9 "></polygon> </g> <g> <polygon class="st10" points="333,152.3 167.6,151.9 167.6,151.7 333,152.1 "></polygon> </g> <g> <polygon class="st10" points="333,144.4 167.7,144 167.7,143.8 333,144.2 "></polygon> </g> <g> <polygon class="st10" points="333,136.6 167.7,136.2 167.7,136 333,136.4 "></polygon> </g> <g> <polygon class="st10" points="333.1,128.7 167.7,128.3 167.7,128.1 333.1,128.5 "></polygon> </g> <g> <polygon class="st10" points="333.1,120.9 167.7,120.5 167.7,120.2 333.1,120.6 "></polygon> </g> <g> <polygon class="st10" points="333,168 167.6,167.6 167.6,167.4 333,167.8 "></polygon> </g> <g> <polygon class="st3" points="333,168.1 167.6,167.7 167.6,167.2 333,167.7 "></polygon> </g> <g> <polygon class="st19" points="170.8,155.5 170.5,155 179.9,150.3 189.4,143.1 198.8,140.3 208.2,140.9 217.5,141.8 226.8,133.6 226.9,133.6 236.3,132.6 236.4,132.6 245.7,135.3 255,134.3 264.4,134.1 273.8,135.1 292.6,130.4 292.6,130.4 301.9,132.8 311.2,132.5 320.6,133.8 330,129.9 330.1,130.3 320.7,134.3 311.2,133 301.9,133.3 301.9,133.3 292.5,130.9 273.8,135.6 273.8,135.6 264.4,134.6 255.1,134.7 245.7,135.8 236.3,133.1 227,134 217.6,142.3 217.5,142.3 208.2,141.4 198.8,140.8 189.5,143.5 180.2,150.7 "></polygon> </g> <g> <polygon class="st17" points="170.4,163.2 170.2,162.8 179.9,156.2 189.4,148.1 198.7,146 208.1,140.4 217.6,137.7 227,141.1 236.4,145.5 245.6,146.8 254.9,145.4 264.3,138.7 264.4,138.7 273.8,137.8 273.9,137.8 283.2,141.6 292.5,142.5 301.9,141.2 311.2,137.9 320.5,131 329.9,123.6 330.2,123.9 320.8,131.4 311.4,138.4 302,141.6 292.6,143 283.1,142.1 273.8,138.3 264.5,139.2 255.1,145.8 245.7,147.3 245.6,147.3 236.2,146 226.8,141.6 217.5,138.2 208.3,140.8 198.8,146.5 189.5,148.6 180.2,156.6 "></polygon> </g> <g> <polygon class="st14" points="170.7,165.3 170.5,164.9 179.9,161.4 189.4,158.3 198.4,157.8 208.1,158.7 217.4,157 226.8,155.2 236.2,155.2 245.6,150 245.7,150 255,150.9 264.3,147.8 273.7,146.9 283.1,145.9 292.4,141.4 301.9,136.8 311.4,141.1 320.6,143.2 330,141.1 330.1,141.6 320.6,143.7 320.6,143.7 311.2,141.5 301.9,137.3 292.6,141.8 283.2,146.4 273.8,147.4 264.4,148.3 255,151.4 245.7,150.4 236.3,155.6 226.9,155.6 217.5,157.5 208.1,159.1 198.4,158.2 189.4,158.7 180.1,161.8 "></polygon> </g> </g> <g> <rect x="177.4" y="169.9" transform="matrix(1 2.451348e-03 -2.451348e-03 1 0.4198 -0.4426)" class="st13" width="6.8" height="2.2"></rect> </g> <g> <rect x="195.4" y="170" transform="matrix(1 2.451348e-03 -2.451348e-03 1 0.4199 -0.4868)" class="st13" width="6.8" height="2.2"></rect> </g> <g> <rect x="213.4" y="170" transform="matrix(1 2.451348e-03 -2.451348e-03 1 0.4201 -0.531)" class="st13" width="6.8" height="2.2"></rect> </g> <g> <rect x="231.5" y="170" transform="matrix(1 2.451348e-03 -2.451348e-03 1 0.4203 -0.5752)" class="st13" width="6.8" height="2.2"></rect> </g> <g> <rect x="249.5" y="170.1" transform="matrix(1 2.451348e-03 -2.451348e-03 1 0.4204 -0.6194)" class="st13" width="6.8" height="2.2"></rect> </g> <g> <rect x="267.5" y="170.1" transform="matrix(1 2.451348e-03 -2.451348e-03 1 0.4206 -0.6636)" class="st13" width="6.8" height="2.2"></rect> </g> <g> <rect x="285.6" y="170.2" transform="matrix(1 2.451348e-03 -2.451348e-03 1 0.4207 -0.7078)" class="st13" width="6.8" height="2.2"></rect> </g> <g> <rect x="303.6" y="170.2" transform="matrix(1 2.451348e-03 -2.451348e-03 1 0.4209 -0.752)" class="st13" width="6.8" height="2.2"></rect> </g> <g> <rect x="321.6" y="170.3" transform="matrix(1 2.451348e-03 -2.451348e-03 1 0.4211 -0.7963)" class="st13" width="6.8" height="2.2"></rect> </g> <g> <rect x="155" y="119.7" transform="matrix(1 2.451269e-03 -2.451269e-03 1 0.2955 -0.389)" class="st13" width="7.6" height="1.3"></rect> </g> <g> <rect x="155" y="127.5" transform="matrix(1 2.451269e-03 -2.451269e-03 1 0.3147 -0.3889)" class="st13" width="7.6" height="1.3"></rect> </g> <g> <rect x="155" y="135.4" transform="matrix(1 2.451269e-03 -2.451269e-03 1 0.334 -0.3888)" class="st13" width="7.6" height="1.3"></rect> </g> <g> <rect x="155" y="143.2" transform="matrix(1 2.451269e-03 -2.451269e-03 1 0.3532 -0.3888)" class="st13" width="7.6" height="1.3"></rect> </g> <g> <rect x="155" y="151.1" transform="matrix(1 2.451269e-03 -2.451269e-03 1 0.3725 -0.3887)" class="st13" width="7.6" height="1.3"></rect> </g> <g> <rect x="154.9" y="159" transform="matrix(1 2.451269e-03 -2.451269e-03 1 0.3917 -0.3886)" class="st13" width="7.6" height="1.3"></rect> </g> <g> <rect x="154.9" y="166.8" transform="matrix(1 2.451269e-03 -2.451269e-03 1 0.411 -0.3886)" class="st13" width="7.6" height="1.3"></rect> </g> </g> </g> <g class="st0"> <g> <g> <rect x="68.5" y="343.7" class="st20" width="519.8" height="40.5"></rect> </g> <g class="st1"> <rect x="68.5" y="343.7" class="st2" width="519.8" height="12.8"></rect> </g> <g> <rect x="61.2" y="336.9" class="st20" width="534.5" height="9.6"></rect> </g> <g> <rect x="61.2" y="336.9" class="st21" width="534.5" height="3.5"></rect> </g> </g> </g> <g class="st0"> <g class="st22"> <g> <defs> <rect id="SVGID_5_" x="75.5" y="215.2" width="57.4" height="102.1"></rect> </defs> <clipPath id="SVGID_6_"> <use xlink:href="#SVGID_5_" style="overflow:visible;"></use> </clipPath> <g class="st23"> <defs> <polygon id="SVGID_7_" points="115.4,216.2 116.7,218.1 118,216.2 "></polygon> </defs> <clipPath id="SVGID_8_"> <use xlink:href="#SVGID_7_" style="overflow:visible;"></use> </clipPath> </g> <g class="st23"> <defs> <polygon id="SVGID_9_" points="121.5,218.1 121.5,216.2 119.5,218.1 "></polygon> </defs> <clipPath id="SVGID_10_"> <use xlink:href="#SVGID_9_" style="overflow:visible;"></use> </clipPath> </g> <g class="st23"> <defs> <path id="SVGID_11_" d="M124.8,216.2h-0.2V216H124v0.2h-0.2c-0.1,0-0.2,0.1-0.2,0.2v1.6c0,0.1,0.1,0.2,0.2,0.2h1 c0.1,0,0.2-0.1,0.2-0.2v-1.6C125,216.3,124.9,216.2,124.8,216.2z"></path> </defs> <clipPath id="SVGID_12_"> <use xlink:href="#SVGID_11_" style="overflow:visible;"></use> </clipPath> </g> </g> <g> <path class="st24" d="M104.2,261.6c6.3-4.6,12.6-9.3,19.5-12.9c2.9-1.5,6.6-2.8,9.3-0.9c2,1.4,2.3,4.2,1.8,6.6 c-0.5,2.4-2,4.5-3.6,6.4c-5.4,6.1-12.5,10.2-19.6,14.2L104.2,261.6z"></path> </g> <g> <path class="st24" d="M118.3,293c6.7,10,18.4,15.5,23.9,5.6c0,0-9.4-9.2-13.5-14.2c-0.8-1-15.9-5.1-15.9-5.1L118.3,293z"></path> </g> <g> <path class="st24" d="M119.1,327.5c0.2,2,0.7,5.4,0.8,7.4c0.3,3.9,0.8,8.1,3.3,11.1c1.6,1.9,3.8,3.1,6.1,3.8 c1.2,0.4,2.4,0.6,3.6,0.5c1-0.1,1.6-1.1,1.3-2.1c-1.2-4-4.7-16.5-6.2-19.5L119.1,327.5z"></path> </g> <g> <path class="st24" d="M122.8,320.5c-0.6,8.3,4.9,15.1,10.7,15.5c1.3,0.1,2.7,0,1.9-2.4c-0.8-2.5-1.4-18.4-1.9-22.7 c-0.1-0.5-0.1-1.1-0.4-1.6c-0.3-0.4-0.7-0.8-1.1-1.1c-3.3-2.5-6.7-5-10-7.6C122,300.7,123,317.9,122.8,320.5z"></path> </g> <g> <path class="st24" d="M85.3,379.9c11.7-17.6,25.9-46.4,30.7-55.4c2.8-5.2-16.8-67.3-36.3-55.3c-17,10.5-40.6,24.9-41.3,35.3 c-0.8,12.7,0.3,55.4-5.7,74.6L85.3,379.9z"></path> </g> <g> <path class="st24" d="M139.1,330.5c0,2.6-2.1,4.6-4.6,4.6H74c-2.6,0-4.6-2.1-4.6-4.6V206.1c0-2.6,2.1-4.6,4.6-4.6h60.4 c2.6,0,4.6,2.1,4.6,4.6V330.5z"></path> </g> <g> <path class="st24" d="M114.5,208c0,0.3-0.2,0.5-0.5,0.5H94.5c-0.3,0-0.5-0.2-0.5-0.5l0,0c0-0.3,0.2-0.5,0.5-0.5H114 C114.2,207.5,114.5,207.7,114.5,208L114.5,208z"></path> </g> <g> <path class="st24" d="M111.2,325.7H97.3c-0.4,0-0.8,0.4-0.8,0.8c0,0.4,0.3,0.8,0.8,0.8h13.9c0.4,0,0.8-0.4,0.8-0.8 C111.9,326.1,111.6,325.7,111.2,325.7z"></path> </g> <g> <defs> <rect id="SVGID_13_" x="75.5" y="215.2" width="57.4" height="102.1"></rect> </defs> <clipPath id="SVGID_14_"> <use xlink:href="#SVGID_13_" style="overflow:visible;"></use> </clipPath> <g class="st25"> <rect x="75.5" y="215.2" class="st24" width="57.4" height="102.1"></rect> </g> <g class="st25"> <rect x="75.5" y="215.4" class="st24" width="57.4" height="101.9"></rect> </g> <g class="st25"> <rect x="75.5" y="215.4" class="st24" width="57.4" height="101.9"></rect> </g> <g class="st25"> <rect x="75.5" y="215.2" class="st24" width="57.4" height="3.8"></rect> </g> <g class="st25"> <rect x="75.5" y="215.2" class="st24" width="57.4" height="3.8"></rect> </g> <g class="st25"> <path class="st24" d="M135.1,229.4c-0.2-1.5-0.8-2.1-2.2-2.8H75.4c-1.4,0.7-2,1.3-2.2,2.8c-0.1,1.1,0,2.3,0,3.4 c0,1.1-0.1,2.3,0,3.4c0.2,1.5,0.8,2.1,2.2,2.8H133c1.4-0.7,2-1.3,2.2-2.8c0.1-1.1,0-2.3,0-3.4 C135.1,231.7,135.3,230.5,135.1,229.4z"></path> </g> <g class="st25"> <rect x="75.5" y="228" class="st24" width="57.4" height="7.7"></rect> </g> <g class="st25"> <polygon class="st24" points="78.3,231.8 79.1,232.6 79.1,231 "></polygon> </g> <g class="st25"> <polygon class="st24" points="96,231.8 95.2,231 95.2,232.6 "></polygon> </g> <g class="st25"> <path class="st24" d="M87.7,231.1C87.7,231.1,87.7,231.1,87.7,231.1l0,0.1c0,0.1,0,0.1,0,0.1h-0.5v1.6c0,0,0,0-0.1,0h0 c-0.1,0-0.1,0-0.1,0v-1.6h-0.5c0,0,0,0,0-0.1v0c0-0.1,0-0.1,0-0.1H87.7z"></path> </g> <g class="st25"> <path class="st24" d="M88.7,231.7c0.1,0.1,0.2,0.3,0.2,0.5c0,0.5-0.3,0.7-0.6,0.7c-0.2,0-0.3,0-0.4-0.1 c-0.1-0.1-0.2-0.3-0.2-0.5c0-0.5,0.3-0.7,0.6-0.7C88.5,231.5,88.6,231.6,88.7,231.7z M87.9,232.2c0,0.2,0.1,0.5,0.4,0.5 c0.2,0,0.4-0.1,0.4-0.5c0-0.2-0.1-0.5-0.4-0.5C88.1,231.7,87.9,231.9,87.9,232.2z"></path> </g> <g class="st25"> <path class="st24" d="M90.1,231c0.1,0,0.1,0,0.1,0v1.6c0,0.1,0,0.1,0.1,0.1c0,0,0,0,0,0.1v0c0,0.1,0,0.1,0,0.1c0,0-0.1,0-0.1,0 c-0.1,0-0.1,0-0.2-0.1h0c-0.1,0.1-0.2,0.2-0.4,0.2c-0.3,0-0.5-0.3-0.5-0.7c0-0.4,0.2-0.7,0.6-0.7c0.1,0,0.2,0,0.3,0.1V231 C90,231,90,231,90.1,231L90.1,231z M90,231.8c-0.1-0.1-0.2-0.1-0.3-0.1c-0.2,0-0.4,0.2-0.4,0.5c0,0.3,0.2,0.5,0.4,0.5 c0.1,0,0.2,0,0.2-0.1c0.1-0.1,0.1-0.1,0.1-0.4V231.8z"></path> </g> <g class="st25"> <path class="st24" d="M91.6,231.6C91.7,231.6,91.7,231.6,91.6,231.6c0.1,0.1,0.1,0.3,0.1,0.4v0.4c0,0.2,0,0.4,0,0.5 c0,0,0,0-0.1,0h0c-0.1,0-0.1,0-0.1,0l0-0.1c-0.1,0.1-0.2,0.2-0.4,0.2c-0.4,0-0.5-0.3-0.5-0.7c0-0.4,0.3-0.7,0.6-0.7 c0.2,0,0.3,0.1,0.3,0.2L91.6,231.6C91.5,231.6,91.5,231.6,91.6,231.6L91.6,231.6z M91.5,231.9c-0.1-0.1-0.2-0.2-0.3-0.2 c-0.2,0-0.4,0.2-0.4,0.5c0,0.2,0.1,0.5,0.3,0.5c0.1,0,0.2,0,0.3-0.1c0.1-0.1,0.1-0.1,0.1-0.4V231.9z"></path> </g> <g class="st25"> <path class="st24" d="M92.4,232.2c0.1,0.2,0.1,0.3,0.1,0.4c0-0.1,0.1-0.3,0.1-0.4l0.2-0.7c0,0,0,0,0.1,0c0.1,0,0.1,0,0.1,0 l-0.5,1.3c-0.1,0.2-0.1,0.3-0.2,0.4c-0.1,0.1-0.2,0.2-0.4,0.2c-0.1,0-0.2,0-0.2,0c0,0,0,0,0-0.1l0,0c0-0.1,0-0.1,0.1-0.1 c0,0,0.1,0,0.1,0c0.2,0,0.3-0.1,0.4-0.4l-0.5-1.3c0,0,0,0,0.1,0c0.1,0,0.1,0,0.1,0L92.4,232.2z"></path> </g> <g class="st25"> <path class="st24" d="M84.4,230.7h-0.1v0.3h-0.5v-0.3h-0.9v0.3h-0.5v-0.3h-0.1c-0.2,0-0.3,0.1-0.3,0.3v1.9 c0,0.2,0.1,0.3,0.3,0.3h2.2c0.2,0,0.3-0.1,0.3-0.3V231C84.8,230.8,84.6,230.7,84.4,230.7z M84.4,232.9h-2.2v-1.3h2.2V232.9z M82.7,230.4h-0.2v0.5h0.2V230.4z M84.2,230.4h-0.2v0.5h0.2V230.4z"></path> </g> <g class="st25"> <path class="st24" d="M125.7,233l-0.9-0.9c0.1-0.2,0.2-0.4,0.2-0.7c0-0.6-0.5-1.1-1.1-1.1c-0.6,0-1.1,0.5-1.1,1.1 c0,0.6,0.5,1.1,1.1,1.1c0.2,0,0.5-0.1,0.7-0.2l0.9,0.9L125.7,233z M124,232.4c-0.5,0-0.9-0.4-0.9-0.9c0-0.5,0.4-0.9,0.9-0.9 c0.5,0,0.9,0.4,0.9,0.9C124.8,232,124.5,232.4,124,232.4z"></path> </g> <g class="st25"> <circle class="st24" cx="128.8" cy="232.8" r="0.3"></circle> </g> <g class="st25"> <circle class="st24" cx="128.8" cy="231.8" r="0.3"></circle> </g> <g class="st25"> <circle class="st24" cx="128.8" cy="230.9" r="0.3"></circle> </g> <g class="st26"> <rect x="75.5" y="215.2" class="st24" width="57.4" height="3.8"></rect> </g> <g class="st25"> <defs> <polygon id="SVGID_15_" points="115.4,216.2 116.7,218.1 118,216.2 "></polygon> </defs> <clipPath id="SVGID_16_"> <use xlink:href="#SVGID_15_" style="overflow:visible;"></use> </clipPath> <g class="st27"> <path class="st24" d="M116.7,216.2c-1.1,0-1.9,0.9-1.9,1.9c0,1.1,0.9,1.9,1.9,1.9c1.1,0,1.9-0.9,1.9-1.9 C118.6,217,117.7,216.2,116.7,216.2z M116.7,219.5c-0.8,0-1.4-0.6-1.4-1.4s0.6-1.4,1.4-1.4s1.4,0.6,1.4,1.4 S117.5,219.5,116.7,219.5z"></path> </g> <g class="st27"> <path class="st24" d="M116.7,216.7c-0.8,0-1.4,0.6-1.4,1.4s0.6,1.4,1.4,1.4s1.4-0.6,1.4-1.4S117.5,216.7,116.7,216.7z M116.7,219.1c-0.5,0-1-0.4-1-1c0-0.5,0.4-1,1-1c0.5,0,1,0.4,1,1C117.6,218.6,117.2,219.1,116.7,219.1z"></path> </g> <g class="st27"> <path class="st24" d="M116.7,217.1c-0.5,0-1,0.4-1,1c0,0.5,0.4,1,1,1c0.5,0,1-0.4,1-1C117.6,217.6,117.2,217.1,116.7,217.1z M116.7,218.6c-0.3,0-0.5-0.2-0.5-0.5c0-0.3,0.2-0.5,0.5-0.5c0.3,0,0.5,0.2,0.5,0.5C117.1,218.4,116.9,218.6,116.7,218.6z"></path> </g> <g class="st28"> <circle class="st24" cx="116.7" cy="218.1" r="0.5"></circle> </g> </g> <g class="st25"> <defs> <polygon id="SVGID_17_" points="121.5,218.1 121.5,216.2 119.5,218.1 "></polygon> </defs> <clipPath id="SVGID_18_"> <use xlink:href="#SVGID_17_" style="overflow:visible;"></use> </clipPath> <g class="st29"> <rect x="121" y="216.2" class="st24" width="0.5" height="1.9"></rect> </g> <g class="st29"> <rect x="120.5" y="216.2" class="st24" width="0.5" height="1.9"></rect> </g> <g class="st30"> <rect x="120" y="216.2" class="st24" width="0.5" height="1.9"></rect> </g> <g class="st30"> <rect x="119.5" y="216.2" class="st24" width="0.5" height="1.9"></rect> </g> </g> <g class="st25"> <defs> <path id="SVGID_19_" d="M124.8,216.2h-0.2V216H124v0.2h-0.2c-0.1,0-0.2,0.1-0.2,0.2v1.6c0,0.1,0.1,0.2,0.2,0.2h1 c0.1,0,0.2-0.1,0.2-0.2v-1.6C125,216.3,124.9,216.2,124.8,216.2z"></path> </defs> <clipPath id="SVGID_20_"> <use xlink:href="#SVGID_19_" style="overflow:visible;"></use> </clipPath> <g class="st31"> <rect x="123.7" y="217.6" class="st24" width="1.3" height="0.5"></rect> </g> <g class="st31"> <rect x="123.7" y="217.1" class="st24" width="1.3" height="0.5"></rect> </g> <g class="st32"> <rect x="123.7" y="216.7" class="st24" width="1.3" height="0.5"></rect> </g> <g class="st32"> <rect x="123.7" y="216.2" class="st24" width="1.3" height="0.5"></rect> </g> <g class="st32"> <rect x="124" y="216" class="st24" width="0.6" height="0.2"></rect> </g> </g> <g class="st25"> <path class="st24" d="M127.8,217.1c0,0.5-0.2,0.7-0.5,0.7c-0.3,0-0.4-0.2-0.4-0.7c0-0.5,0.2-0.7,0.5-0.7 C127.6,216.4,127.8,216.7,127.8,217.1z M127.1,217.1c0,0.4,0.1,0.5,0.3,0.5c0.2,0,0.3-0.2,0.3-0.6c0-0.3-0.1-0.5-0.3-0.5 C127.2,216.6,127.1,216.8,127.1,217.1z"></path> </g> <g class="st25"> <path class="st24" d="M128.9,216.5v0.1l-0.6,1.2h-0.2l0.6-1.2v0H128v-0.2H128.9z"></path> </g> <g class="st25"> <path class="st24" d="M129.1,217c0-0.1,0.1-0.1,0.1-0.1c0.1,0,0.1,0.1,0.1,0.1c0,0.1,0,0.1-0.1,0.1 C129.1,217.1,129.1,217,129.1,217z M129.1,217.7c0-0.1,0.1-0.1,0.1-0.1c0.1,0,0.1,0.1,0.1,0.1c0,0.1,0,0.1-0.1,0.1 C129.1,217.8,129.1,217.8,129.1,217.7z"></path> </g> <g class="st25"> <path class="st24" d="M130.3,216.6h-0.5l-0.1,0.3c0,0,0.1,0,0.1,0c0.1,0,0.2,0,0.3,0.1c0.1,0.1,0.2,0.2,0.2,0.3 c0,0.3-0.2,0.5-0.5,0.5c-0.1,0-0.3,0-0.3-0.1l0-0.1c0.1,0,0.2,0.1,0.3,0.1c0.2,0,0.3-0.1,0.3-0.3c0-0.2-0.1-0.3-0.4-0.3 c-0.1,0-0.1,0-0.2,0l0.1-0.6h0.6V216.6z"></path> </g> <g class="st25"> <path class="st24" d="M130.5,217.5c0-0.2,0.1-0.3,0.3-0.4l0,0c-0.1-0.1-0.2-0.2-0.2-0.3c0-0.2,0.2-0.4,0.4-0.4 c0.3,0,0.4,0.2,0.4,0.3c0,0.1-0.1,0.2-0.2,0.3v0c0.2,0.1,0.3,0.2,0.3,0.3c0,0.2-0.2,0.4-0.5,0.4 C130.7,217.8,130.5,217.7,130.5,217.5z M131.2,217.5c0-0.2-0.1-0.2-0.3-0.3c-0.2,0-0.2,0.1-0.2,0.3c0,0.1,0.1,0.3,0.3,0.3 C131.1,217.7,131.2,217.6,131.2,217.5z M130.7,216.8c0,0.1,0.1,0.2,0.3,0.2c0.1,0,0.2-0.1,0.2-0.2c0-0.1-0.1-0.2-0.2-0.2 C130.8,216.6,130.7,216.7,130.7,216.8z"></path> </g> <g class="st25"> <rect x="75.5" y="219.1" class="st24" width="57.4" height="8.9"></rect> </g> <g class="st25"> <polygon class="st24" points="81.2,223.4 79.3,223.4 80.2,222.5 80,222.2 78.7,223.5 78.7,223.5 78.7,223.5 80,224.8 80.2,224.6 79.3,223.7 81.2,223.7 "></polygon> </g> <g class="st25"> <path class="st24" d="M129.3,223.6v-0.6c0-0.4-0.3-0.8-0.6-0.9c0,0,0,0,0,0c0-0.2-0.2-0.4-0.4-0.4c-0.2,0-0.4,0.2-0.4,0.4 c0,0,0,0,0,0c-0.4,0.2-0.6,0.5-0.6,0.9v0.6c0,0.2-0.5,0.8-0.5,0.9l0,0c0,0.1,0.1,0.2,0.2,0.2h2.7c0.1,0,0.2-0.1,0.2-0.2l0,0 C129.8,224.4,129.3,223.8,129.3,223.6z"></path> </g> <g class="st25"> <path class="st24" d="M128.3,225.3c0.3,0,0.5-0.2,0.5-0.5h-1C127.8,225.1,128,225.3,128.3,225.3z"></path> </g> <g class="st25"> <path class="st24" d="M135.4,376.6c0-2.7,0-5.4,0-8.2c0-9.8,0-19.7,0-29.5c0-4.9,0-9.8,0-14.8c0-2.4,0-4.9,0-7.3 c0-1.2,0.1-2.6-0.1-3.7c-0.1-0.6-0.2-1.4-0.5-1.9c-0.4-0.6-1.2-1.1-1.8-1.4h-1.2c0-0.1,0-0.2,0-0.2h-53c0,0.1,0,0.2,0,0.2h-1.2 c-1.7,0.9-2.1,2.2-2.4,3.8c-0.2,1.3,0,2.9,0,4.2c0,2.7,0,5.4,0,8.2c0,9.8,0,19.7,0,29.5c0,4.9,0,9.8,0,14.8c0,2.4,0,4.9,0,7.3 c0,1.2-0.1,2.6,0.1,3.7c0.1,0.6,0.2,1.4,0.5,1.9c0.4,0.6,1.2,1.1,1.8,1.4h1.2c0,0.1,0,0.2,0,0.2h53c0-0.1,0-0.2,0-0.2h1.2 c1.7-0.9,2.1-2.2,2.4-3.8C135.6,379.4,135.4,377.9,135.4,376.6z"></path> </g> <g class="st25"> <rect x="76.9" y="311.2" class="st24" width="54.7" height="69.9"></rect> </g> <g class="st25"> <path class="st24" d="M114.7,328.5c-1.7-4.3-5.8-7.1-10.4-7.1v-6c7.1,0,13.4,4.3,16,10.8L114.7,328.5z"></path> </g> <g class="st25"> <path class="st24" d="M111.7,348.1l-2.6-5.4c3.9-1.9,6.3-5.8,6.3-10.1c0-1.4-0.3-2.8-0.8-4.2l5.5-2.2c0.8,2,1.2,4.2,1.2,6.4 C121.4,339.2,117.6,345.3,111.7,348.1z"></path> </g> <g class="st25"> <path class="st24" d="M104.2,349.9c-3.5,0-6.8-1-9.7-3l3.4-4.9c1.9,1.3,4.1,1.9,6.3,1.9c1.7,0,3.4-0.4,4.9-1.1l2.6,5.4 C109.4,349.3,106.9,349.9,104.2,349.9z"></path> </g> <g class="st25"> <path class="st24" d="M94.6,346.9c-4.7-3.2-7.5-8.5-7.5-14.2c0-9.5,7.7-17.2,17.2-17.2v6c-6.2,0-11.2,5-11.2,11.2 c0,3.7,1.8,7.2,4.9,9.3L94.6,346.9z"></path> </g> <g class="st25"> <rect x="82.5" y="319.9" class="st24" width="6.8" height="2"></rect> </g> <g class="st25"> <rect x="118.6" y="314.4" class="st24" width="6.8" height="2"></rect> </g> <g class="st25"> <rect x="99.4" y="354.3" class="st24" width="6.8" height="2"></rect> </g> <g class="st25"> <rect x="83.2" y="362.5" class="st24" width="40.5" height="2"></rect> </g> <g class="st25"> <rect x="83.2" y="367.8" class="st24" width="42.3" height="2"></rect> </g> <g class="st25"> <rect x="83.2" y="373.1" class="st24" width="41.3" height="2"></rect> </g> <g class="st25"> <rect x="121.1" y="346.1" class="st24" width="6.8" height="2"></rect> </g> <g class="st25"> <path class="st24" d="M135.4,303.6c0-2.7,0-5.4,0-8.2c0-9.8,0-19.7,0-29.5c0-4.9,0-9.8,0-14.8c0-2.4,0-4.9,0-7.3 c0-1.2,0.1-2.6-0.1-3.7c-0.1-0.6-0.2-1.4-0.5-1.9c-0.4-0.6-1.2-1.1-1.8-1.4h-1.2c0-0.1,0-0.2,0-0.2h-53c0,0.1,0,0.2,0,0.2h-1.2 c-1.7,0.9-2.1,2.2-2.4,3.8c-0.2,1.3,0,2.9,0,4.2c0,2.7,0,5.4,0,8.2c0,9.8,0,19.7,0,29.5c0,4.9,0,9.8,0,14.8c0,2.4,0,4.9,0,7.3 c0,1.2-0.1,2.6,0.1,3.7c0.1,0.6,0.2,1.4,0.5,1.9c0.4,0.6,1.2,1.1,1.8,1.4h1.2c0,0.1,0,0.2,0,0.2h53c0-0.1,0-0.2,0-0.2h1.2 c1.7-0.9,2.1-2.2,2.4-3.8C135.6,306.5,135.4,305,135.4,303.6z"></path> </g> <g class="st25"> <rect x="76.9" y="238.3" class="st24" width="54.7" height="69.9"></rect> </g> <g class="st25"> <path class="st24" d="M114.7,258.6c-1.7-4.3-5.8-7.1-10.4-7.1v-6c7.1,0,13.4,4.3,16,10.8L114.7,258.6z"></path> </g> <g class="st25"> <path class="st24" d="M111.7,278.2l-2.6-5.4c3.9-1.9,6.3-5.8,6.3-10.1c0-1.4-0.3-2.8-0.8-4.2l5.5-2.2c0.8,2,1.2,4.2,1.2,6.4 C121.4,269.3,117.6,275.4,111.7,278.2z"></path> </g> <g class="st25"> <path class="st24" d="M104.2,279.9c-3.5,0-6.8-1-9.7-3l3.4-4.9c1.9,1.3,4.1,1.9,6.3,1.9c1.7,0,3.4-0.4,4.9-1.1l2.6,5.4 C109.4,279.3,106.9,279.9,104.2,279.9z"></path> </g> <g class="st25"> <path class="st24" d="M94.6,276.9c-4.7-3.2-7.5-8.5-7.5-14.2c0-9.5,7.7-17.2,17.2-17.2v6c-6.2,0-11.2,5-11.2,11.2 c0,3.7,1.8,7.2,4.9,9.3L94.6,276.9z"></path> </g> <g class="st25"> <rect x="119" y="248" class="st24" width="6.8" height="2"></rect> </g> <g class="st25"> <rect x="84.8" y="244.2" class="st24" width="6.8" height="2"></rect> </g> <g class="st25"> <rect x="99.4" y="281.4" class="st24" width="6.8" height="2"></rect> </g> <g class="st25"> <rect x="83.2" y="289.6" class="st24" width="40.5" height="2"></rect> </g> <g class="st25"> <rect x="83.2" y="294.8" class="st24" width="42.3" height="2"></rect> </g> <g class="st25"> <rect x="83.2" y="300.1" class="st24" width="41.3" height="2"></rect> </g> <g class="st25"> <rect x="121.1" y="273.2" class="st24" width="6.8" height="2"></rect> </g> </g> <g> <path class="st24" d="M68.7,379.9c6.3-13.5,5.5-30.8,0.3-48.7c0,0,0.7-10.9,1.9-18.7c7.7-4.3,15.4-8.8,17.9-14 c7.1-15.1,1.5-17.2-4.9-14.7c-6.8,2.7-18.1,10.3-24.7,11c-6.1,0.6-8.1,10.6-11.3,21c-1.8,5.9-11.1,17.7-10.3,27.9 c0.8,9.1-2.4,22-7.6,36L68.7,379.9z"></path> </g> <g> <path class="st24" d="M135.8,334.8c-1.2-1.2-3.3-2.5-4.5-3.7c-0.5-0.5-1-1-1.2-1.7c-0.3-0.7-0.3-1.5-0.2-2.2c0-1,0.1-2,0.1-3 c0-0.7-0.2-3.6,0.2-4.1c0.6-0.7,1.6-0.7,2.6-0.7l0,0c1.4,0.9,1.7,2.7,1.8,4.3C134.8,326.6,135.8,334.8,135.8,334.8z"></path> </g> <g> <path class="st24" d="M134.2,347.6c-1.1-0.8-2.9-1.5-4-2.4c-0.4-0.3-0.9-0.7-1.2-1.2c-0.3-0.5-1.1-5.2-0.9-5.6 c0.3-0.6,1-0.7,1.6-0.8c0.2,0,0.3,0,0.5,0.2c0.4,0.5,1.6,1.9,1.8,2.9C132.6,343,134.2,347.6,134.2,347.6z"></path> </g> <g> <path class="st24" d="M133.5,289.7c0,0,5.7,5.9,8.5,8.5c0.3,0.3,0.8,0.7,0.3,0.7c-1.3,0.2-8-5.2-8.5-7.1 C133.4,290.6,133.1,290.2,133.5,289.7z"></path> </g> <g> <path class="st24" d="M92.2,284.2c0-1.3-2.2-1.5-3.5-1.3c-1.3,0.3-3.4,1.3-4.6,1.8c-2.1,0.7-8.2,4.9-8.2,5.2 c2.4-0.2,5.7,2.5,7,4.5C88.1,292.9,92.2,288.6,92.2,284.2z"></path> </g> <g> <defs> <rect id="SVGID_21_" x="75.5" y="215.2" width="57.4" height="102.1"></rect> </defs> <clipPath id="SVGID_22_"> <use xlink:href="#SVGID_21_" style="overflow:visible;"></use> </clipPath> <g class="st33"> <defs> <polygon id="SVGID_23_" points="115.4,216.2 116.7,218.1 118,216.2 "></polygon> </defs> <clipPath id="SVGID_24_"> <use xlink:href="#SVGID_23_" style="overflow:visible;"></use> </clipPath> </g> <g class="st33"> <defs> <polygon id="SVGID_25_" points="121.5,218.1 121.5,216.2 119.5,218.1 "></polygon> </defs> <clipPath id="SVGID_26_"> <use xlink:href="#SVGID_25_" style="overflow:visible;"></use> </clipPath> </g> <g class="st33"> <defs> <path id="SVGID_27_" d="M124.8,216.2h-0.2V216H124v0.2h-0.2c-0.1,0-0.2,0.1-0.2,0.2v1.6c0,0.1,0.1,0.2,0.2,0.2h1 c0.1,0,0.2-0.1,0.2-0.2v-1.6C125,216.3,124.9,216.2,124.8,216.2z"></path> </defs> <clipPath id="SVGID_28_"> <use xlink:href="#SVGID_27_" style="overflow:visible;"></use> </clipPath> </g> </g> </g> <g> <g> <g> <defs> <rect id="SVGID_29_" x="88.1" y="206.9" width="57.4" height="102.1"></rect> </defs> <clipPath id="SVGID_30_"> <use xlink:href="#SVGID_29_" style="overflow:visible;"></use> </clipPath> <g class="st34"> <g> <g> <defs> <polygon id="SVGID_31_" points="127.9,207.8 129.2,209.7 130.5,207.8 "></polygon> </defs> <clipPath id="SVGID_32_"> <use xlink:href="#SVGID_31_" style="overflow:visible;"></use> </clipPath> </g> </g> <g> <g> <defs> <polygon id="SVGID_33_" points="134,209.7 134,207.8 132.1,209.7 "></polygon> </defs> <clipPath id="SVGID_34_"> <use xlink:href="#SVGID_33_" style="overflow:visible;"></use> </clipPath> </g> </g> <g> <g> <defs> <path id="SVGID_35_" d="M137.4,207.8h-0.2v-0.2h-0.6v0.2h-0.2c-0.1,0-0.2,0.1-0.2,0.2v1.6c0,0.1,0.1,0.2,0.2,0.2h1 c0.1,0,0.2-0.1,0.2-0.2V208C137.5,207.9,137.5,207.8,137.4,207.8z"></path> </defs> <clipPath id="SVGID_36_"> <use xlink:href="#SVGID_35_" style="overflow:visible;"></use> </clipPath> </g> </g> </g> </g> </g> <g> <g> <g> <path class="st35" d="M116.8,253.2c6.3-4.6,12.6-9.3,19.5-12.9c2.9-1.5,6.6-2.8,9.3-0.9c2,1.4,2.3,4.2,1.8,6.6 c-0.5,2.4-2,4.5-3.6,6.4c-5.4,6.1-12.5,10.2-19.6,14.2L116.8,253.2z"></path> </g> <g> <path class="st35" d="M130.9,284.7c6.7,10,18.4,15.5,23.9,5.6c0,0-9.4-9.2-13.5-14.2c-0.8-1-15.9-5.1-15.9-5.1L130.9,284.7z"></path> </g> <g> <path class="st36" d="M131.7,319.1c0.2,2,0.7,5.4,0.8,7.4c0.3,3.9,0.8,8.1,3.3,11.1c1.6,1.9,3.8,3.1,6.1,3.8 c1.2,0.4,2.4,0.6,3.6,0.5c1-0.1,1.6-1.1,1.3-2.1c-1.2-4-4.7-16.5-6.2-19.5L131.7,319.1z"></path> </g> <g> <path class="st35" d="M135.3,312.1c-0.6,8.3,4.9,15.1,10.7,15.5c1.3,0.1,2.7,0,1.9-2.4c-0.8-2.5-1.4-18.4-1.9-22.7 c-0.1-0.5-0.1-1.1-0.4-1.6c-0.3-0.4-0.7-0.8-1.1-1.1c-3.3-2.5-6.7-5-10-7.6C134.5,292.4,135.5,309.6,135.3,312.1z"></path> </g> </g> <g> <path class="st37" d="M97.8,371.6c11.7-17.6,25.9-46.4,30.7-55.4c2.8-5.2-16.8-67.3-36.3-55.3c-17,10.5-40.6,24.9-41.3,35.3 c-0.8,12.7,0.3,55.4-5.7,74.6L97.8,371.6z"></path> </g> <g> <g> <g> <path class="st4" d="M151.7,322.1c0,2.6-2.1,4.6-4.6,4.6H86.6c-2.6,0-4.6-2.1-4.6-4.6V197.8c0-2.6,2.1-4.6,4.6-4.6H147 c2.6,0,4.6,2.1,4.6,4.6V322.1z"></path> </g> </g> <g> <path class="st38" d="M127,199.6c0,0.3-0.2,0.5-0.5,0.5H107c-0.3,0-0.5-0.2-0.5-0.5l0,0c0-0.3,0.2-0.5,0.5-0.5h19.5 C126.8,199.2,127,199.4,127,199.6L127,199.6z"></path> </g> <g> <path class="st38" d="M123.7,317.3h-13.9c-0.4,0-0.8,0.4-0.8,0.8c0,0.4,0.3,0.8,0.8,0.8h13.9c0.4,0,0.8-0.4,0.8-0.8 C124.5,317.7,124.2,317.3,123.7,317.3z"></path> </g> <g> <defs> <rect id="SVGID_37_" x="88.1" y="206.9" width="57.4" height="102.1"></rect> </defs> <clipPath id="SVGID_38_"> <use xlink:href="#SVGID_37_" style="overflow:visible;"></use> </clipPath> <g class="st39"> <g> <rect x="88.1" y="206.9" class="st2" width="57.4" height="102.1"></rect> </g> <g> <g> <rect x="88.1" y="207" class="st40" width="57.4" height="101.9"></rect> </g> <g> <rect x="88.1" y="207" class="st5" width="57.4" height="101.9"></rect> </g> </g> <g> <rect x="88.1" y="206.9" class="st6" width="57.4" height="3.8"></rect> </g> <g> <rect x="88.1" y="206.9" class="st6" width="57.4" height="3.8"></rect> </g> <g> <g> <image style="overflow:visible;opacity:0.4;" width="263" height="55" transform="matrix(0.24 0 0 0.24 85.3211 217.7919)"> </image> <g> <g> <rect x="88.1" y="219.6" class="st8" width="57.4" height="7.7"></rect> </g> </g> </g> <g> <g> <polygon class="st2" points="90.9,223.4 91.7,224.2 91.7,222.7 "></polygon> </g> </g> <g> <g> <polygon class="st2" points="108.6,223.4 107.8,222.7 107.8,224.2 "></polygon> </g> </g> <g> <g> <g> <path class="st2" d="M100.3,222.7C100.3,222.7,100.3,222.7,100.3,222.7l0,0.1c0,0.1,0,0.1,0,0.1h-0.5v1.6c0,0,0,0-0.1,0 h0c-0.1,0-0.1,0-0.1,0v-1.6h-0.5c0,0,0,0,0-0.1v0c0-0.1,0-0.1,0-0.1H100.3z"></path> </g> <g> <path class="st2" d="M101.3,223.3c0.1,0.1,0.2,0.3,0.2,0.5c0,0.5-0.3,0.7-0.6,0.7c-0.2,0-0.3,0-0.4-0.1 c-0.1-0.1-0.2-0.3-0.2-0.5c0-0.5,0.3-0.7,0.6-0.7C101,223.2,101.2,223.2,101.3,223.3z M100.5,223.9 c0,0.2,0.1,0.5,0.4,0.5c0.2,0,0.4-0.1,0.4-0.5c0-0.2-0.1-0.5-0.4-0.5C100.7,223.4,100.5,223.5,100.5,223.9z"></path> </g> <g> <path class="st2" d="M102.7,222.6c0.1,0,0.1,0,0.1,0v1.6c0,0.1,0,0.1,0.1,0.1c0,0,0,0,0,0.1v0c0,0.1,0,0.1,0,0.1 c0,0-0.1,0-0.1,0c-0.1,0-0.1,0-0.2-0.1h0c-0.1,0.1-0.2,0.2-0.4,0.2c-0.3,0-0.5-0.3-0.5-0.7c0-0.4,0.2-0.7,0.6-0.7 c0.1,0,0.2,0,0.3,0.1v-0.6C102.6,222.6,102.6,222.6,102.7,222.6L102.7,222.6z M102.6,223.5c-0.1-0.1-0.2-0.1-0.3-0.1 c-0.2,0-0.4,0.2-0.4,0.5c0,0.3,0.2,0.5,0.4,0.5c0.1,0,0.2,0,0.2-0.1c0.1-0.1,0.1-0.1,0.1-0.4V223.5z"></path> </g> <g> <path class="st2" d="M104.2,223.2C104.3,223.2,104.3,223.2,104.2,223.2c0.1,0.1,0.1,0.3,0.1,0.4v0.4c0,0.2,0,0.4,0,0.5 c0,0,0,0-0.1,0h0c-0.1,0-0.1,0-0.1,0l0-0.1c-0.1,0.1-0.2,0.2-0.4,0.2c-0.4,0-0.5-0.3-0.5-0.7c0-0.4,0.3-0.7,0.6-0.7 c0.2,0,0.3,0.1,0.3,0.2L104.2,223.2C104.1,223.2,104.1,223.2,104.2,223.2L104.2,223.2z M104,223.5 c-0.1-0.1-0.2-0.2-0.3-0.2c-0.2,0-0.4,0.2-0.4,0.5c0,0.2,0.1,0.5,0.3,0.5c0.1,0,0.2,0,0.3-0.1c0.1-0.1,0.1-0.1,0.1-0.4 V223.5z"></path> </g> <g> <path class="st2" d="M104.9,223.9c0.1,0.2,0.1,0.3,0.1,0.4c0-0.1,0.1-0.3,0.1-0.4l0.2-0.7c0,0,0,0,0.1,0 c0.1,0,0.1,0,0.1,0l-0.5,1.3c-0.1,0.2-0.1,0.3-0.2,0.4c-0.1,0.1-0.2,0.2-0.4,0.2c-0.1,0-0.2,0-0.2,0c0,0,0,0,0-0.1l0,0 c0-0.1,0-0.1,0.1-0.1c0,0,0.1,0,0.1,0c0.2,0,0.3-0.1,0.4-0.4l-0.5-1.3c0,0,0,0,0.1,0c0.1,0,0.1,0,0.1,0L104.9,223.9z"></path> </g> </g> <g> <path class="st2" d="M97,222.3h-0.1v0.3h-0.5v-0.3h-0.9v0.3h-0.5v-0.3h-0.1c-0.2,0-0.3,0.1-0.3,0.3v1.9 c0,0.2,0.1,0.3,0.3,0.3H97c0.2,0,0.3-0.1,0.3-0.3v-1.9C97.3,222.5,97.2,222.3,97,222.3z M97,224.6h-2.2v-1.3H97V224.6z M95.3,222h-0.2v0.5h0.2V222z M96.7,222h-0.2v0.5h0.2V222z"></path> </g> </g> <g> <g> <path class="st2" d="M138.3,224.6l-0.9-0.9c0.1-0.2,0.2-0.4,0.2-0.7c0-0.6-0.5-1.1-1.1-1.1c-0.6,0-1.1,0.5-1.1,1.1 c0,0.6,0.5,1.1,1.1,1.1c0.2,0,0.5-0.1,0.7-0.2l0.9,0.9L138.3,224.6z M136.5,224c-0.5,0-0.9-0.4-0.9-0.9 c0-0.5,0.4-0.9,0.9-0.9s0.9,0.4,0.9,0.9C137.4,223.6,137,224,136.5,224z"></path> </g> </g> <g> <g> <circle class="st2" cx="141.3" cy="224.4" r="0.3"></circle> </g> <g> <circle class="st2" cx="141.3" cy="223.4" r="0.3"></circle> </g> <g> <circle class="st2" cx="141.3" cy="222.5" r="0.3"></circle> </g> </g> </g> <g> <g> <g class="st41"> <rect x="88.1" y="206.9" width="57.4" height="3.8"></rect> </g> </g> <g> <g> <defs> <polygon id="SVGID_39_" points="127.9,207.8 129.2,209.7 130.5,207.8 "></polygon> </defs> <clipPath id="SVGID_40_"> <use xlink:href="#SVGID_39_" style="overflow:visible;"></use> </clipPath> <g class="st42"> <g> <g class="st43"> <g> <path class="st4" d="M129.2,207.8c-1.1,0-1.9,0.9-1.9,1.9c0,1.1,0.9,1.9,1.9,1.9c1.1,0,1.9-0.9,1.9-1.9 C131.2,208.7,130.3,207.8,129.2,207.8z M129.2,211.2c-0.8,0-1.4-0.6-1.4-1.4s0.6-1.4,1.4-1.4c0.8,0,1.4,0.6,1.4,1.4 S130,211.2,129.2,211.2z"></path> </g> </g> </g> <g> <g class="st44"> <g> <path class="st4" d="M129.2,208.3c-0.8,0-1.4,0.6-1.4,1.4s0.6,1.4,1.4,1.4c0.8,0,1.4-0.6,1.4-1.4 S130,208.3,129.2,208.3z M129.2,210.7c-0.5,0-1-0.4-1-1c0-0.5,0.4-1,1-1c0.5,0,1,0.4,1,1 C130.2,210.3,129.8,210.7,129.2,210.7z"></path> </g> </g> </g> <g> <g class="st44"> <g> <path class="st4" d="M129.2,208.8c-0.5,0-1,0.4-1,1c0,0.5,0.4,1,1,1c0.5,0,1-0.4,1-1 C130.2,209.2,129.8,208.8,129.2,208.8z M129.2,210.2c-0.3,0-0.5-0.2-0.5-0.5c0-0.3,0.2-0.5,0.5-0.5 c0.3,0,0.5,0.2,0.5,0.5C129.7,210,129.5,210.2,129.2,210.2z"></path> </g> </g> </g> <g> <g class="st44"> <circle class="st4" cx="129.2" cy="209.7" r="0.5"></circle> </g> </g> </g> </g> </g> <g> <g> <defs> <polygon id="SVGID_41_" points="134,209.7 134,207.8 132.1,209.7 "></polygon> </defs> <clipPath id="SVGID_42_"> <use xlink:href="#SVGID_41_" style="overflow:visible;"></use> </clipPath> <g class="st45"> <g class="st43"> <rect x="133.6" y="207.8" class="st4" width="0.5" height="1.9"></rect> </g> </g> <g class="st45"> <g class="st43"> <rect x="133.1" y="207.8" class="st4" width="0.5" height="1.9"></rect> </g> </g> <g class="st45"> <g class="st44"> <rect x="132.6" y="207.8" class="st4" width="0.5" height="1.9"></rect> </g> </g> <g class="st45"> <g class="st44"> <rect x="132.1" y="207.8" class="st4" width="0.5" height="1.9"></rect> </g> </g> </g> </g> <g> <g> <defs> <path id="SVGID_43_" d="M137.4,207.8h-0.2v-0.2h-0.6v0.2h-0.2c-0.1,0-0.2,0.1-0.2,0.2v1.6c0,0.1,0.1,0.2,0.2,0.2h1 c0.1,0,0.2-0.1,0.2-0.2V208C137.5,207.9,137.5,207.8,137.4,207.8z"></path> </defs> <clipPath id="SVGID_44_"> <use xlink:href="#SVGID_43_" style="overflow:visible;"></use> </clipPath> <g class="st46"> <g class="st44"> <rect x="136.3" y="209.2" class="st4" width="1.3" height="0.5"></rect> </g> </g> <g class="st46"> <g class="st44"> <rect x="136.3" y="208.8" class="st4" width="1.3" height="0.5"></rect> </g> </g> <g class="st46"> <g class="st43"> <rect x="136.3" y="208.3" class="st4" width="1.3" height="0.5"></rect> </g> </g> <g class="st46"> <g class="st43"> <rect x="136.3" y="207.8" class="st4" width="1.3" height="0.5"></rect> </g> </g> <g class="st46"> <g class="st43"> <rect x="136.6" y="207.7" class="st4" width="0.6" height="0.2"></rect> </g> </g> </g> </g> <g class="st44"> <g> <path class="st4" d="M140.4,208.8c0,0.5-0.2,0.7-0.5,0.7c-0.3,0-0.4-0.2-0.4-0.7c0-0.5,0.2-0.7,0.5-0.7 C140.2,208.1,140.4,208.3,140.4,208.8z M139.7,208.8c0,0.4,0.1,0.5,0.3,0.5c0.2,0,0.3-0.2,0.3-0.6c0-0.3-0.1-0.5-0.3-0.5 C139.8,208.2,139.7,208.4,139.7,208.8z"></path> </g> <g> <path class="st4" d="M141.4,208.1v0.1l-0.6,1.2h-0.2l0.6-1.2v0h-0.7v-0.2H141.4z"></path> </g> <g> <path class="st4" d="M141.6,208.6c0-0.1,0.1-0.1,0.1-0.1c0.1,0,0.1,0.1,0.1,0.1c0,0.1,0,0.1-0.1,0.1 C141.7,208.7,141.6,208.7,141.6,208.6z M141.6,209.3c0-0.1,0.1-0.1,0.1-0.1c0.1,0,0.1,0.1,0.1,0.1c0,0.1,0,0.1-0.1,0.1 C141.7,209.5,141.6,209.4,141.6,209.3z"></path> </g> <g> <path class="st4" d="M142.8,208.2h-0.5l-0.1,0.3c0,0,0.1,0,0.1,0c0.1,0,0.2,0,0.3,0.1c0.1,0.1,0.2,0.2,0.2,0.3 c0,0.3-0.2,0.5-0.5,0.5c-0.1,0-0.3,0-0.3-0.1l0-0.1c0.1,0,0.2,0.1,0.3,0.1c0.2,0,0.3-0.1,0.3-0.3c0-0.2-0.1-0.3-0.4-0.3 c-0.1,0-0.1,0-0.2,0l0.1-0.6h0.6V208.2z"></path> </g> <g> <path class="st4" d="M143.1,209.1c0-0.2,0.1-0.3,0.3-0.4l0,0c-0.1-0.1-0.2-0.2-0.2-0.3c0-0.2,0.2-0.4,0.4-0.4 c0.3,0,0.4,0.2,0.4,0.3c0,0.1-0.1,0.2-0.2,0.3v0c0.2,0.1,0.3,0.2,0.3,0.3c0,0.2-0.2,0.4-0.5,0.4 C143.3,209.5,143.1,209.3,143.1,209.1z M143.8,209.1c0-0.2-0.1-0.2-0.3-0.3c-0.2,0-0.2,0.1-0.2,0.3c0,0.1,0.1,0.3,0.3,0.3 C143.7,209.3,143.8,209.2,143.8,209.1z M143.3,208.4c0,0.1,0.1,0.2,0.3,0.2c0.1,0,0.2-0.1,0.2-0.2c0-0.1-0.1-0.2-0.2-0.2 C143.4,208.2,143.3,208.3,143.3,208.4z"></path> </g> </g> </g> <g> <g> <rect x="88.1" y="210.7" class="st7" width="57.4" height="8.9"></rect> </g> <g> <g> <polygon class="st4" points="93.8,215 91.9,215 92.8,214.1 92.6,213.9 91.3,215.1 91.3,215.1 91.3,215.1 92.6,216.4 92.8,216.2 91.9,215.3 93.8,215.3 "></polygon> </g> </g> <g> <g> <path class="st4" d="M141.9,215.3v-0.6c0-0.4-0.3-0.8-0.6-0.9c0,0,0,0,0,0c0-0.2-0.2-0.4-0.4-0.4c-0.2,0-0.4,0.2-0.4,0.4 c0,0,0,0,0,0c-0.4,0.2-0.6,0.5-0.6,0.9v0.6c0,0.2-0.5,0.8-0.5,0.9l0,0c0,0.1,0.1,0.2,0.2,0.2h2.7c0.1,0,0.2-0.1,0.2-0.2 l0,0C142.4,216,141.9,215.4,141.9,215.3z"></path> </g> <g> <path class="st4" d="M140.9,216.9c0.3,0,0.5-0.2,0.5-0.5h-1C140.4,216.7,140.6,216.9,140.9,216.9z"></path> </g> </g> </g> </g> <g class="st39"> <g> <image style="overflow:visible;opacity:0.12;" width="254" height="318" transform="matrix(0.24 0 0 0.24 87.2893 300.6401)"> </image> <g> <g> <rect x="89.5" y="302.8" class="st4" width="54.7" height="69.9"></rect> </g> </g> </g> <g> <g> <g> <path class="st2" d="M127.2,320.1c-1.7-4.3-5.8-7.1-10.4-7.1v-6c7.1,0,13.4,4.3,16,10.8L127.2,320.1z"></path> </g> </g> <g> <g> <path class="st14" d="M124.3,339.8l-2.6-5.4c3.9-1.9,6.3-5.8,6.3-10.1c0-1.4-0.3-2.8-0.8-4.2l5.5-2.2 c0.8,2,1.2,4.2,1.2,6.4C134,330.8,130.2,336.9,124.3,339.8z"></path> </g> </g> <g> <g> <path class="st15" d="M116.8,341.5c-3.5,0-6.8-1-9.7-3l3.4-4.9c1.9,1.3,4.1,1.9,6.3,1.9c1.7,0,3.4-0.4,4.9-1.1l2.6,5.4 C121.9,340.9,119.4,341.5,116.8,341.5z"></path> </g> </g> <g> <g> <path class="st11" d="M107.1,338.5c-4.7-3.2-7.5-8.5-7.5-14.2c0-9.5,7.7-17.2,17.2-17.2v6c-6.2,0-11.2,5-11.2,11.2 c0,3.7,1.8,7.2,4.9,9.3L107.1,338.5z"></path> </g> </g> </g> <g> <rect x="95.1" y="311.5" class="st13" width="6.8" height="2"></rect> </g> <g> <rect x="131.2" y="306" class="st13" width="6.8" height="2"></rect> </g> <g> <rect x="111.9" y="345.9" class="st13" width="6.8" height="2"></rect> </g> <g> <rect x="95.8" y="354.1" class="st13" width="40.5" height="2"></rect> </g> <g> <rect x="95.8" y="359.4" class="st13" width="42.3" height="2"></rect> </g> <g> <rect x="95.8" y="364.7" class="st13" width="41.3" height="2"></rect> </g> <g> <rect x="133.6" y="337.7" class="st13" width="6.8" height="2"></rect> </g> </g> <g class="st39"> <g> <image style="overflow:visible;opacity:0.12;" width="254" height="318" transform="matrix(0.24 0 0 0.24 87.2893 227.6801)"> </image> <g> <g> <rect x="89.5" y="229.9" class="st4" width="54.7" height="69.9"></rect> </g> </g> </g> <g> <g> <g> <path class="st2" d="M127.2,250.2c-1.7-4.3-5.8-7.1-10.4-7.1v-6c7.1,0,13.4,4.3,16,10.8L127.2,250.2z"></path> </g> </g> <g> <g> <path class="st14" d="M124.3,269.8l-2.6-5.4c3.9-1.9,6.3-5.8,6.3-10.1c0-1.4-0.3-2.8-0.8-4.2l5.5-2.2 c0.8,2,1.2,4.2,1.2,6.4C134,260.9,130.2,267,124.3,269.8z"></path> </g> </g> <g> <g> <path class="st15" d="M116.8,271.6c-3.5,0-6.8-1-9.7-3l3.4-4.9c1.9,1.3,4.1,1.9,6.3,1.9c1.7,0,3.4-0.4,4.9-1.1l2.6,5.4 C121.9,271,119.4,271.6,116.8,271.6z"></path> </g> </g> <g> <g> <path class="st11" d="M107.1,268.6c-4.7-3.2-7.5-8.5-7.5-14.2c0-9.5,7.7-17.2,17.2-17.2v6c-6.2,0-11.2,5-11.2,11.2 c0,3.7,1.8,7.2,4.9,9.3L107.1,268.6z"></path> </g> </g> </g> <g> <rect x="131.6" y="239.6" class="st13" width="6.8" height="2"></rect> </g> <g> <rect x="97.4" y="235.8" class="st13" width="6.8" height="2"></rect> </g> <g> <rect x="111.9" y="273" class="st13" width="6.8" height="2"></rect> </g> <g> <rect x="95.8" y="281.2" class="st13" width="40.5" height="2"></rect> </g> <g> <rect x="95.8" y="286.5" class="st13" width="42.3" height="2"></rect> </g> <g> <rect x="95.8" y="291.8" class="st13" width="41.3" height="2"></rect> </g> <g> <rect x="133.6" y="264.8" class="st13" width="6.8" height="2"></rect> </g> </g> </g> </g> <g> <path class="st35" d="M81.3,371.6c6.3-13.5,5.5-30.8,0.3-48.7c0,0,0.7-10.9,1.9-18.7c7.7-4.3,15.4-8.8,17.9-14 c7.1-15.1,1.5-17.2-4.9-14.7c-6.8,2.7-18.1,10.3-24.7,11c-6.1,0.6-8.1,10.6-11.3,21c-1.8,5.9-11.1,17.7-10.3,27.9 c0.8,9.1-2.4,22-7.6,36L81.3,371.6z"></path> </g> <g> <g> <path class="st47" d="M148.4,326.5c-1.2-1.2-3.3-2.5-4.5-3.7c-0.5-0.5-1-1-1.2-1.7c-0.3-0.7-0.3-1.5-0.2-2.2c0-1,0.1-2,0.1-3 c0-0.7-0.2-3.6,0.2-4.1c0.6-0.7,1.6-0.7,2.6-0.7l0,0c1.4,0.9,1.7,2.7,1.8,4.3C147.3,318.3,148.4,326.5,148.4,326.5z"></path> </g> <g> <path class="st47" d="M146.8,339.2c-1.1-0.8-2.9-1.5-4-2.4c-0.4-0.3-0.9-0.7-1.2-1.2c-0.3-0.5-1.1-5.2-0.9-5.6 c0.3-0.6,1-0.7,1.6-0.8c0.2,0,0.3,0,0.5,0.2c0.4,0.5,1.6,1.9,1.8,2.9C145.2,334.6,146.8,339.2,146.8,339.2z"></path> </g> <g> <path class="st47" d="M146,281.4c0,0,5.7,5.9,8.5,8.5c0.3,0.3,0.8,0.7,0.3,0.7c-1.3,0.2-8-5.2-8.5-7.1 C146,282.2,145.7,281.8,146,281.4z"></path> </g> <g> <path class="st47" d="M104.7,275.8c0-1.3-2.2-1.5-3.5-1.3c-1.3,0.3-3.4,1.3-4.6,1.8c-2.1,0.7-8.2,4.9-8.2,5.2 c2.4-0.2,5.7,2.5,7,4.5C100.6,284.5,104.8,280.2,104.7,275.8z"></path> </g> </g> </g> <g> <g> <defs> <rect id="SVGID_45_" x="88.1" y="206.9" width="57.4" height="102.1"></rect> </defs> <clipPath id="SVGID_46_"> <use xlink:href="#SVGID_45_" style="overflow:visible;"></use> </clipPath> <g class="st48"> <g> <g> <defs> <polygon id="SVGID_47_" points="127.9,207.8 129.2,209.7 130.5,207.8 "></polygon> </defs> <clipPath id="SVGID_48_"> <use xlink:href="#SVGID_47_" style="overflow:visible;"></use> </clipPath> </g> </g> <g> <g> <defs> <polygon id="SVGID_49_" points="134,209.7 134,207.8 132.1,209.7 "></polygon> </defs> <clipPath id="SVGID_50_"> <use xlink:href="#SVGID_49_" style="overflow:visible;"></use> </clipPath> </g> </g> <g> <g> <defs> <path id="SVGID_51_" d="M137.4,207.8h-0.2v-0.2h-0.6v0.2h-0.2c-0.1,0-0.2,0.1-0.2,0.2v1.6c0,0.1,0.1,0.2,0.2,0.2h1 c0.1,0,0.2-0.1,0.2-0.2V208C137.5,207.9,137.5,207.8,137.4,207.8z"></path> </defs> <clipPath id="SVGID_52_"> <use xlink:href="#SVGID_51_" style="overflow:visible;"></use> </clipPath> </g> </g> </g> </g> </g> </g> </g> </g> </svg> 