<svg xmlns="http://www.w3.org/2000/svg" width="1355.188" height="1146.102" viewBox="0 0 1355.188 1146.102">
  <g id="Group_6666" data-name="Group 6666" opacity="0.178">
    <path id="Path_11430" data-name="Path 11430" d="M2386.725,2522.5l-4.041-2.622c-108.877-70.537-224.316-66.844-301.984-51.319-84.662,16.921-144.224,51.17-144.818,51.513l-3.916,2.278-163.758-100.645c-43.927-31.15-75.593-55.628-79.058-58.317l-4.342-3.392,1.218-4.8c12.363-48.535,35.143-114.464,64.255-186.052l-262.258-319.34,13.9-18.238a178.727,178.727,0,0,1,28.3-29.192c15.563-12.824,32.614-22.748,49.325-28.7l19.464-6.982,161.459,202.061c-6.994-22.712-3.566-50.812,10.364-83.044,15.125-35,37.072-62.431,38-63.583l4.556-5.653,5.839,4.305c10.934,8.055,32.228,38.5,43.106,54.614.115-.172.233-.335.347-.505l.527-.756c.054-.073.1-.142.153-.216l.016-.022c.225-.321.456-.642.685-.965v-1.022l2.093-1.757c.89-1.152,1.8-2.312,2.753-3.466l.442-.56c1.034-1.243,2.1-2.5,3.2-3.748l.743-.843c.831-.945,1.688-1.877,2.557-2.813a461.539,461.539,0,0,1,30.06-37.27l.67-.744c1.347-1.49,2.631-2.907,3.959-4.354l5.443-5.8q1.789-1.874,3.641-3.774c-39.194-58.179-62.126-115.529-75.991-150.2l-1.824-4.585c-.319-.8-.639-1.563-.952-2.3a46.921,46.921,0,0,0-3.192-6.531l-.208-.354c-2.353-3.741-4.032-4.051-5.676-4.051a15.245,15.245,0,0,0-4.381.79c-.887.267-1.765.59-2.7.965-19.92,8.112-38.773,33.469-38.959,33.722l-7.805,10.589-5.246-12.052c-.365-.833-8.91-20.665-9.993-40.36-.042-.748-.069-1.5-.1-2.238l-.074-2.558c-.034-1.161-.052-2.352-.052-3.543,0-.912.012-1.829.027-2.74l.012-.821c.015-.66.032-1.319.056-1.981l.028-.539c.1-2.409.245-4.752.451-7.07.088-.963.191-1.941.289-2.9.025-.294.078-.745.137-1.211.04-.47.118-1.061.2-1.686.033-.282.072-.563.114-.848.1-.807.23-1.7.372-2.6.086-.643.213-1.439.338-2.216l.208-1.218c.156-.9.331-1.823.5-2.718.193-1.014.408-2.07.638-3.124.182-.872.4-1.836.618-2.788l1.569-6.208,1.771-5.94q.45-1.456.939-2.909c.63-1.846,1.279-3.668,1.972-5.5.522-1.348,1.025-2.636,1.54-3.948l.123-.294c.516-1.246,1.039-2.5,1.569-3.725.214-.49.449-1.009.694-1.533l.14-.317c.154-.35.377-.878.622-1.4l.212-.431c.187-.451.383-.853.582-1.248l1.108-2.327.377-1.206.442-.436c.434-.87.875-1.738,1.331-2.608l.36-.673q.749-1.443,1.531-2.881l.361-.644q1.849-3.356,3.807-6.629l.839-1.36c.542-.882,1.086-1.777,1.642-2.654.75-1.194,1.517-2.367,2.3-3.566.809-1.215,1.593-2.385,2.392-3.544s1.612-2.343,2.465-3.514c.772-1.1,1.617-2.272,2.495-3.433.755-1.036,1.622-2.178,2.485-3.3q2.555-3.33,5.234-6.585c.859-1.061,1.759-2.14,2.665-3.21.942-1.1,1.829-2.137,2.738-3.179s1.85-2.108,2.786-3.141c.92-1.022,1.845-2.03,2.782-3.054.926-1.008,1.882-2.017,2.838-3.022l2.882-2.987c.955-.968,1.9-1.936,2.86-2.89.929-.933,1.872-1.854,2.8-2.764l3.7-3.555c.8-.748,1.593-1.5,2.406-2.23.851-.787,1.775-1.635,2.706-2.483l.846-.764c.775-.7,1.556-1.394,2.335-2.086.875-.779,1.8-1.59,2.725-2.4l3.2-2.742a307.758,307.758,0,0,1,38.661-27.63c11.977-7.357,23.966-13.948,34.106-19.428,13.611-7.341,27.605-14.487,39.652-20.6l19.85-10.072c.51-.262,1.779-.836,3.435-1.577,2.545-1.138,6.328-2.836,9.132-4.253l15.456-10.334v14.187c0,1.8,0,1.8-30.328,62.661-43.134,86.528-35.231,182.082,23.464,284.143q3.252-2.34,6.528-4.657c.431-.295.781-.549,1.143-.817l1.283-.9,1.4-.978-5.222-10.692.88-2.861c5.833-18.969,29.527-38.921,70.424-59.31l.35-.16a266.021,266.021,0,0,1,41.854-14.242,243.65,243.65,0,0,0-11.706-36.393c-5.747-13.645-10.351-19.531-10.4-19.587l0-.005c-.309-.37-1.845-2.183-2.262-2.681l-12.939-13.98.626-.765-.072-.093,3.953-5,11-12.922c.162-.194.449-.544.853-1.041a272.139,272.139,0,0,0,28.787-44.542c.542-1.083,1.11-2.221,1.676-3.372a207.145,207.145,0,0,0,8.991-20.715c.473-1.338.941-2.688,1.361-4.012l20.793-64.786,6.331.9c4.693.668,5.842,4.247,6.958,7.7l18.028,56.159c.425,1.337.9,2.705,1.382,4.078a208.857,208.857,0,0,0,8.984,20.688l1.7,3.418a272.583,272.583,0,0,0,28.781,44.512c.345.424.606.74.767.939l.211.242,14.959,17.574-.221.268.625.765-12.941,13.985-2.363,2.786c-.025.039-4.559,5.853-10.313,19.479a245.381,245.381,0,0,0-11.7,36.4,266.175,266.175,0,0,1,41.858,14.242l.35.16c40.9,20.394,64.592,40.349,70.409,59.313l.88,2.858-5.216,10.689c.409.282.814.566,1.221.85l1.308.917c.5.368.866.625,1.233.882,2.26,1.586,4.45,3.156,6.6,4.7,58.7-102.06,66.6-197.609,23.464-284.143l-35.5-71.23,13.329,1.029c1.421.106,1.421.106,62.6,28.78l1.426.676c.13.072.291.15.466.231l5.741,2.87c.407.218.834.441,1.287.661l.543.293c.121.07.24.131.37.2l4.928,2.641c2.649,1.433,5.527,3.033,8.65,4.827.7.384,1.486.84,2.295,1.315l1.482.861c.736.43,1.488.87,2.245,1.32q4.1,2.439,8.658,5.272l3.425,2.136c1.354.87,2.775,1.786,4.209,2.723,4.675,3.024,9.344,6.181,13.867,9.364l1.281.909c2.042,1.444,4.044,2.891,6.077,4.387.6.421,1.3.939,2,1.474.383.272.953.7,1.524,1.131l2.6,1.972c4.393,3.321,8.884,6.894,13.362,10.626.733.593,1.549,1.279,2.374,1.992a335.348,335.348,0,0,1,27.784,26.157c.966,1.007,1.931,2.044,2.884,3.078,1.021,1.113,2.046,2.238,3.054,3.383.8.9,1.627,1.834,2.438,2.78,1.686,1.931,3.408,3.961,5.094,6.048.6.713,1.236,1.495,1.868,2.3.26.309.52.632.752.96.684.838,1.347,1.691,1.98,2.544.62.772,1.351,1.726,2.044,2.7.742.953,1.6,2.127,2.446,3.305.728.992,1.478,2.059,2.228,3.122l.532.76c.8,1.144,1.573,2.287,2.34,3.45.7,1.039,1.442,2.173,2.168,3.328a9.721,9.721,0,0,1,.542.858c.7,1.091,1.377,2.189,2.053,3.3,1,1.625,1.977,3.288,2.938,4.974.447.77.875,1.554,1.3,2.335,1.063,1.893,2,3.676,2.9,5.465.437.8.957,1.8,1.456,2.825l1.987,4.2c.295.62.629,1.346.951,2.092s.64,1.427.937,2.137c.047.1.175.382.29.686.235.536.377.874.51,1.227l.768,1.849c.39.95.679,1.7.968,2.45.308.736.583,1.481.842,2.233.485,1.284,1.027,2.783,1.536,4.305.968,2.862,1.815,5.582,2.569,8.295.786,2.821,1.526,5.781,2.188,8.8.281,1.245.554,2.539.787,3.838l.159.869c.125.659.249,1.321.361,1.987.071.333.131.682.173,1.024l.194,1.18a11.255,11.255,0,0,1,.205,1.394l.41,2.96c.062.412.124.89.173,1.378l.084.693.142,1.352c.068.52.127,1.135.169,1.753.058.571.107,1,.137,1.433l.088,1.252c.033.286.054.575.071.875.025.272.045.542.054.809.083,1.185.142,2.345.191,3.5.174,4.381.164,8.4-.011,12.329-.013.634-.055,1.439-.116,2.262l-.1,1.845c-1.516,19.031-9.519,37.6-9.862,38.383l-5.243,12.059-7.808-10.6c-.187-.254-19.042-25.61-39.006-33.737-.9-.373-1.772-.69-2.6-.939a15.47,15.47,0,0,0-4.434-.8c-1.651,0-3.328.309-5.683,4.056l-.272.446a46.972,46.972,0,0,0-3.07,6.3c-.384.878-.691,1.632-1,2.407l-1.821,4.579c-13.88,34.707-36.809,92.057-76.009,150.239,1.245,1.271,2.454,2.523,3.642,3.771l.3.331c1.395,1.46,2.722,2.882,4.029,4.276l1.071,1.145c1.3,1.414,2.512,2.749,3.707,4.067l1.028,1.137c5.922,6.612,11.543,13.27,17.128,20.294,4.267,5.346,8.365,10.73,12.87,16.917.838.9,1.657,1.8,2.474,2.714l.721.815c.529.6,1.047,1.209,1.569,1.826l.909,1.076c.139.154.368.431.6.708l.738.9c.9,1.1,1.8,2.232,2.675,3.379l2.074,1.73.01,1.027.674.949.3.31.336.611c.158.227.312.438.448.645l2.587-3.811c1.871-2.731,3.9-5.671,6.056-8.747l1.84-2.627c22.747-32.18,30.143-37.64,32.572-39.436l2.008-1.481h2.495c4.352,0,5.271,1.309,14.071,13.824a331.117,331.117,0,0,1,17.7,28.117c17.315,30.952,26.093,58.864,26.093,82.963a83,83,0,0,1-3.483,24.454l161.356-201.97,19.495,6.984c16.7,5.953,33.754,15.878,49.308,28.694a178.741,178.741,0,0,1,28.3,29.185l13.9,18.249-262.262,319.34c29.115,71.578,51.9,137.51,64.262,186.052l1.367,5.373Zm-609.952-113.3,155.488,95.542c14.923-8.1,69.617-35.807,144.971-50.942,79.585-15.994,197.5-19.964,309.62,50.759l242.281-150.974c-12.734-48.306-35.316-112.944-63.919-182.888l-1.715-4.181,260.388-317.063-6.632-8.7a163.759,163.759,0,0,0-25.889-26.681c-14.21-11.706-29.693-20.742-44.764-26.114l-9.309-3.333-220.612,276.119-5.313-10.55c-2.777-5.51-5.365-10.414-7.679-14.579l-1.11-1.968c-.47-.83-.884-1.566-1.229-2.284l-2.784-5.734,5.175-3.724c.545-.393,13.577-9.842,38.337-34.294,11.349-11.2,17.1-25.8,17.1-43.4,0-41.71-31.325-89.009-43.646-105.994-4.515,4.931-11.932,14.017-23.743,30.727l-1.818,2.6c-2.133,3.038-4.125,5.928-5.938,8.575l-4.353,6.426c-.439.636-.832,1.232-1.2,1.788-.421.62-.687,1.022-.937,1.409l-1.2,1.8c-.226.361-.515.8-.772,1.177-.112.185-.225.36-.335.522l-.858,1.306-.5.454-7.685,7.686-4.554-9.865c-.159-.346-.333-.693-.506-1.036s-.333-.641-.5-.931l-.615-1.12c-.206-.369-.422-.73-.649-1.122-.447-.76-.884-1.475-1.348-2.211l-.264-.406c-.187-.291-.377-.586-.586-.89-.383-.578-.691-1.019-.976-1.439l-.3-.291-.318-.586-1.054-1.492c-.139-.183-.286-.385-.438-.578l-.207-.252-1.869-1.868v-.553c-.452-.578-.915-1.149-1.382-1.724l-1.987-2.379c-.5-.587-.969-1.139-1.449-1.681l-.395-.449-.06-.066-.021-.029c-.9-1.008-1.8-2-2.729-2.991l-.588-.718c-4.477-6.152-8.528-11.481-12.745-16.76-5.4-6.8-10.84-13.235-16.621-19.68l-.913-1.023c-1.172-1.291-2.357-2.594-3.585-3.932l-1.04-1.108c-1.281-1.373-2.581-2.762-3.923-4.181-.118-.118-.255-.262-.4-.417q-2.36-2.48-4.871-5.026l-7.31-7.31,3.588-5.2c40.407-58.544,63-115.037,77.94-152.418l1.823-4.575c.371-.943.758-1.894,1.164-2.814a59.9,59.9,0,0,1,4.15-8.351l.265-.441c6.363-10.119,15.374-13.415,27.389-9.714,1.216.362,2.52.838,3.886,1.392,14.795,6.023,28.336,18.948,36.734,28.233a104.807,104.807,0,0,0,4.35-21.325l.106-1.809c.051-.671.077-1.22.085-1.783.166-3.684.173-7.276.023-11.173-.042-.958-.095-1.972-.162-2.978l-.224-3.037c-.021-.26-.05-.559-.08-.856l-.054-.531c-.02-.372-.057-.748-.105-1.12l-.208-1.866c-.035-.4-.086-.8-.146-1.2l-.886-5.953c-.1-.64-.222-1.28-.344-1.909l-.176-.964c-.2-1.1-.425-2.176-.668-3.234-.613-2.789-1.281-5.48-2-8.033-.68-2.442-1.441-4.9-2.33-7.527-.463-1.369-.936-2.7-1.431-4.009-.226-.651-.385-1.092-.571-1.529l-.132-.321c-.256-.681-.513-1.346-.787-2.01l-1.632-3.913c-.238-.576-.486-1.135-.739-1.693-.339-.77-.6-1.353-.882-1.946l-1.83-3.864c-.444-.9-.881-1.748-1.328-2.59-.893-1.772-1.725-3.345-2.591-4.892-.516-.936-.909-1.644-1.314-2.348-.884-1.559-1.782-3.085-2.714-4.6-.672-1.1-1.323-2.164-2.009-3.222l-.354-.565c-.681-1.083-1.37-2.149-2.082-3.2-.744-1.137-1.445-2.159-2.165-3.188l-.5-.721c-.688-.98-1.38-1.96-2.1-2.935-.791-1.108-1.549-2.137-2.33-3.152-.712-.987-1.3-1.75-1.9-2.512-.688-.916-1.271-1.656-1.87-2.389l-.493-.667c-.748-.916-1.338-1.645-1.94-2.371-1.629-2.014-3.234-3.9-4.857-5.76-.794-.929-1.547-1.781-2.3-2.63-.96-1.09-1.913-2.137-2.864-3.168-.895-.971-1.8-1.947-2.728-2.918a320.806,320.806,0,0,0-26.592-25.031c-.756-.641-1.46-1.239-2.175-1.814q-6.6-5.5-12.881-10.254l-2.638-2c-.438-.328-.917-.688-1.4-1.036-.739-.565-1.293-.97-1.838-1.359-2.053-1.512-3.974-2.9-5.894-4.257l-1.305-.925c-4.367-3.078-8.871-6.117-13.4-9.051q-2.129-1.382-4.146-2.675l-3.233-2.017c-2.959-1.845-5.761-3.546-8.438-5.137-.719-.433-1.415-.835-2.088-1.23l-1.524-.887c-.709-.414-1.4-.816-2.094-1.2-3.095-1.779-5.856-3.311-8.358-4.669l-3.856-2.065c-.26-.135-.534-.281-.8-.428-.3-.155-.594-.312-.881-.468-.555-.272-1.08-.55-1.583-.823l-4.109-2.059c-.287-.139-.588-.284-.865-.427-.35-.162-.676-.322-.959-.467l-.911-.432c-11.029-5.166-27.461-12.863-40.335-18.892l19.837,39.8c46.595,93.482,37.094,196.388-28.226,305.863l-4.279,7.158-12.069-8.861c-2.646-1.916-5.175-3.727-7.721-5.524-.426-.289-.889-.626-1.38-.977l-1.18-.829c-2.115-1.477-4.245-2.969-6.427-4.457l-5.407-3.692,8.155-16.855c-6.146-13.907-27.783-30.637-61.521-47.477a249.1,249.1,0,0,0-46.316-14.975l-7.461-1.6,1.654-7.45a272.917,272.917,0,0,1,14.233-46.321c6.307-14.917,11.557-21.927,12.552-23.177l2.855-3.369,4.08-4.411-.135-.157.079-.093-6.748-7.925,0-.01c-.277-.316-.69-.8-1.216-1.457a288.457,288.457,0,0,1-30.54-47.225l-1.774-3.566a222.806,222.806,0,0,1-9.658-22.29c-.551-1.568-1.071-3.068-1.54-4.538-3.16-9.846-7.752-24.175-11.617-36.195L2154,1482.281c-.461,1.451-.981,2.966-1.524,4.492a222.589,222.589,0,0,1-9.655,22.3c-.595,1.2-1.177,2.37-1.762,3.541a288.586,288.586,0,0,1-30.547,47.254c-.563.694-.977,1.187-1.232,1.486l0,0-6.887,8.087,4.382,4.749c1.388,1.64,2.123,2.509,2.561,3.047l.008-.007c.235.289,5.847,7.231,12.6,23.258,3.8,8.979,9.351,24.3,14.25,46.318l1.659,7.453-7.467,1.6a248.944,248.944,0,0,0-46.31,14.975c-33.736,16.835-55.379,33.568-61.536,47.477l8.21,16.8-5.384,3.7c-2.306,1.575-4.5,3.111-6.68,4.634l-1.132.787c-.336.253-.809.594-1.3.934-2.485,1.749-5.01,3.56-7.481,5.342-.362.269-.593.443-.843.618l-11.415,8.37-4.266-7.151c-65.324-109.478-74.822-212.386-28.225-305.863,0,0,10.731-21.533,19.251-38.637l-16.366,8.31c-11.968,6.074-25.86,13.159-39.312,20.425-9.962,5.374-21.714,11.841-33.37,19a292.834,292.834,0,0,0-36.755,26.247l-3.071,2.627c-.879.772-1.771,1.551-2.651,2.33-.961.849-1.885,1.679-2.794,2.505l-.681.614c-.74.677-1.48,1.358-2.223,2.051-.819.738-1.541,1.416-2.264,2.091l-3.536,3.4c-.824.8-1.726,1.688-2.616,2.58-.914.916-1.843,1.858-2.764,2.8l-2.759,2.857c-.851.9-1.74,1.834-2.613,2.786-.922,1-1.808,1.972-2.7,2.955-.877.976-1.752,1.966-2.614,2.95-.873,1-1.728,2-2.6,3.023-.811.96-1.651,1.968-2.478,2.984-1.7,2.074-3.348,4.133-4.955,6.234-.806,1.044-1.585,2.076-2.355,3.122-.859,1.134-1.594,2.169-2.335,3.217-.826,1.13-1.551,2.184-2.276,3.247-.787,1.137-1.519,2.235-2.252,3.34-.7,1.066-1.416,2.167-2.119,3.274-.522.827-1.032,1.667-1.537,2.493l-.7,1.131c-1.328,2.215-2.551,4.345-3.737,6.5l-.458.83c-.389.728-.777,1.463-1.159,2.2l-.369.7c-.5.942-.968,1.875-1.437,2.823l-.39,1.214-.406.412-1.16,2.42c-.093.229-.22.51-.363.792-.159.36-.311.716-.466,1.071l-.233.505c-.184.4-.364.8-.534,1.195-.525,1.2-1.01,2.375-1.5,3.543-.529,1.322-1.014,2.559-1.5,3.821-.615,1.63-1.211,3.3-1.776,4.967-.29.854-.574,1.73-.853,2.617l-2.225,7.7c-.013.073-.069.3-.14.564l-.623,2.6c-.208.874-.411,1.773-.59,2.655-.218.978-.4,1.87-.562,2.759-.161.853-.321,1.679-.46,2.493l-.2,1.149c-.091.574-.194,1.228-.281,1.887-.151.956-.258,1.749-.366,2.549l-.1.772c-.058.382-.108.752-.142,1.134l-.046.421c-.03.238-.064.471-.086.711-.108,1.056-.2,1.953-.279,2.839-.184,2.037-.307,4.093-.4,6.148l-.021.518c-.028.674-.044,1.29-.057,1.9l-.01.706c-.013.84-.025,1.675-.025,2.517,0,1.041.017,2.093.044,3.141l.155,4.366a101.847,101.847,0,0,0,4.472,23.107c8.4-9.285,21.935-22.21,36.727-28.228,1.417-.571,2.71-1.037,3.946-1.412,11.755-3.622,20.886-.416,27.223,9.55a9.263,9.263,0,0,1,.509.836,60.9,60.9,0,0,1,4.08,8.285c.4.929.757,1.794,1.107,2.676l1.806,4.534c14.959,37.41,37.549,93.9,77.951,152.447l3.595,5.2-5.218,5.2c-.718.708-1.431,1.414-2.131,2.129q-2.472,2.52-4.846,5c-.174.2-.361.386-.534.56l-4.865,5.192c-1.257,1.368-2.518,2.753-3.756,4.125l-.608.679a447.714,447.714,0,0,0-29.445,36.535l-.6.724c-.912.974-1.814,1.95-2.676,2.94l-.5.567q-1.518,1.718-2.955,3.446c-.136.172-.267.346-.4.515-.529.64-1.02,1.252-1.492,1.845v.557l-2.079,2.121c-.139.189-.286.382-.429.583-.343.475-.654.909-.955,1.337l-.3.6-.419.416c-.294.437-.6.865-.887,1.311-.321.461-.547.827-.782,1.2l-.181.278c-.472.742-.888,1.426-1.3,2.142-.277.458-.486.8-.684,1.174-.189.319-.324.563-.456.821-.5.907-.877,1.621-1.223,2.338l-5.869,12.252-7.339-11.429c-9.193-14.167-28.923-42.769-40.608-55.539-17.151,23.716-70.762,105.76-26.557,149.408,24.871,24.544,38.229,34.222,38.359,34.318l5.6,4.021-3.467,5.958c-2.65,4.548-5.943,10.7-9.778,18.293l-5.32,10.535-220.614-276.111-9.287,3.328c-15.084,5.377-30.566,14.412-44.781,26.123a163.431,163.431,0,0,0-25.89,26.686l-6.624,8.694,260.386,317.058-1.714,4.186c-28.716,70.213-51.359,135.072-64.06,183.431C1711.864,2361.738,1739.95,2383.088,1776.773,2409.2Zm741.164-379.145q.763,1.4,1.559,2.881l10.529-13.183C2524.878,2024.337,2520.828,2027.719,2517.937,2030.057Zm-716.7-10.263,10.5,13.143c.527-1,1.046-1.955,1.549-2.874C1810.4,2027.733,1806.375,2024.363,1801.239,2019.794Z" transform="translate(-1488.023 -1376.402)" fill="#fff"/>
    <g id="Group_6663" data-name="Group 6663" transform="translate(897.266 895.751)">
      <path id="Path_11431" data-name="Path 11431" d="M1801.824,1706.9c.279-.417.579-.841.869-1.265C1802.4,1706.058,1802.1,1706.483,1801.824,1706.9Z" transform="translate(-1747.79 -1603.302)" fill="#6e3590"/>
      <path id="Path_11432" data-name="Path 11432" d="M1794.518,1720.154c1.266-1.649,2.547-3.342,3.825-5.078C1797.064,1716.812,1795.784,1718.505,1794.518,1720.154Z" transform="translate(-1762.63 -1584.125)" fill="#6e3590"/>
      <path id="Path_11433" data-name="Path 11433" d="M1802.729,1705.742c.351-.488.711-.975,1.072-1.467C1803.44,1704.768,1803.079,1705.255,1802.729,1705.742Z" transform="translate(-1745.954 -1606.069)" fill="#6e3590"/>
      <path id="Path_11434" data-name="Path 11434" d="M1806.332,1700.865c.266-.306.541-.61.808-.914C1806.873,1700.255,1806.6,1700.559,1806.332,1700.865Z" transform="translate(-1738.63 -1614.849)" fill="#6e3590"/>
      <path id="Path_11435" data-name="Path 11435" d="M1807.551,1699.89c.449-.5.915-1,1.378-1.507C1808.466,1698.888,1808,1699.388,1807.551,1699.89Z" transform="translate(-1736.154 -1618.038)" fill="#6e3590"/>
      <path id="Path_11436" data-name="Path 11436" d="M1803.733,1704.391c.374-.48.745-.965,1.13-1.453C1804.478,1703.426,1804.107,1703.911,1803.733,1704.391Z" transform="translate(-1743.911 -1608.784)" fill="#6e3590"/>
      <path id="Path_11437" data-name="Path 11437" d="M1804.883,1702.742c.317-.383.615-.76.932-1.145C1805.5,1701.982,1805.2,1702.357,1804.883,1702.742Z" transform="translate(-1741.577 -1611.508)" fill="#6e3590"/>
      <path id="Path_11438" data-name="Path 11438" d="M1818.451,1713.016q-3.437,2.2-6.9,4.374Q1815.014,1715.213,1818.451,1713.016Z" transform="translate(-1728.021 -1588.306)" fill="#6e3590"/>
      <path id="Path_11439" data-name="Path 11439" d="M1813.561,1716.047q-3.388,2.1-6.776,4.181Q1810.167,1718.151,1813.561,1716.047Z" transform="translate(-1737.71 -1582.152)" fill="#6e3590"/>
      <path id="Path_11440" data-name="Path 11440" d="M1811.192,1717.525c-2.28,1.392-4.551,2.779-6.815,4.142C1806.641,1720.3,1808.912,1718.917,1811.192,1717.525Z" transform="translate(-1742.604 -1579.151)" fill="#6e3590"/>
      <path id="Path_11441" data-name="Path 11441" d="M1816.005,1714.541q-3.408,2.141-6.827,4.268Q1812.591,1716.685,1816.005,1714.541Z" transform="translate(-1732.85 -1585.214)" fill="#6e3590"/>
      <path id="Path_11442" data-name="Path 11442" d="M1808.824,1698.6c.517-.549,1.036-1.1,1.556-1.648C1809.86,1697.505,1809.342,1698.051,1808.824,1698.6Z" transform="translate(-1733.568 -1620.938)" fill="#6e3590"/>
      <path id="Path_11443" data-name="Path 11443" d="M1796.227,1718.615q2.2-3.024,4.408-6.191Q1798.429,1715.6,1796.227,1718.615Z" transform="translate(-1759.156 -1589.515)" fill="#6e3590"/>
      <path id="Path_11444" data-name="Path 11444" d="M1803.53,1720.315q1.129-.676,2.263-1.36c-.759.459-1.516.9-2.276,1.358Z" transform="translate(-1744.349 -1576.246)" fill="#6e3590"/>
      <path id="Path_11445" data-name="Path 11445" d="M1811.658,1695.362c.394-.392.784-.787,1.176-1.18C1812.442,1694.575,1812.053,1694.97,1811.658,1695.362Z" transform="translate(-1727.812 -1626.575)" fill="#6e3590"/>
      <path id="Path_11446" data-name="Path 11446" d="M1816.25,1691.395c.669-.626,1.341-1.245,2.017-1.865C1817.591,1690.149,1816.919,1690.769,1816.25,1691.395Z" transform="translate(-1718.484 -1636.026)" fill="#6e3590"/>
      <path id="Path_11447" data-name="Path 11447" d="M1807.825,1707.289l-.038.055c-3.3,5.417-6.7,10.6-10.105,15.506,3.407-4.91,6.8-10.085,10.105-15.506Z" transform="translate(-1756.204 -1599.94)" fill="#6e3590"/>
      <path id="Path_11448" data-name="Path 11448" d="M1887.428,1671.878s-29.776,22.149-59.695,49.21c-5.637,23.045-9.274,48.116-6.833,70.863q-3.484,2.245-7,4.494c45.116-28.824,86.247-58.61,88.244-63.7C1905.72,1723.593,1887.428,1671.878,1887.428,1671.878Z" transform="translate(-1723.25 -1671.878)" fill="#6e3590"/>
      <path id="Path_11449" data-name="Path 11449" d="M1817.7,1690.029c.672-.608,1.342-1.226,2.01-1.826C1819.04,1688.808,1818.375,1689.419,1817.7,1690.029Z" transform="translate(-1715.531 -1638.719)" fill="#6e3590"/>
      <path id="Path_11450" data-name="Path 11450" d="M1814.816,1692.7c.636-.6,1.278-1.2,1.919-1.809C1816.094,1691.5,1815.452,1692.1,1814.816,1692.7Z" transform="translate(-1721.395 -1633.249)" fill="#6e3590"/>
      <path id="Path_11451" data-name="Path 11451" d="M1813.4,1693.881c.534-.515,1.071-1.026,1.605-1.539C1814.472,1692.855,1813.934,1693.366,1813.4,1693.881Z" transform="translate(-1724.271 -1630.31)" fill="#6e3590"/>
      <path id="Path_11452" data-name="Path 11452" d="M1810.17,1697.157c.515-.531,1.029-1.064,1.551-1.6C1811.2,1696.093,1810.685,1696.626,1810.17,1697.157Z" transform="translate(-1730.837 -1623.776)" fill="#6e3590"/>
      <path id="Path_11453" data-name="Path 11453" d="M1795.6,1716.75q-.809,1.055-1.613,2.081h0Q1794.793,1717.805,1795.6,1716.75Z" transform="translate(-1763.71 -1580.723)" fill="#46255c"/>
      <path id="Path_11454" data-name="Path 11454" d="M1807.113,1717.426l-.488.3Z" transform="translate(-1738.038 -1579.35)" fill="#46255c"/>
      <path id="Path_11455" data-name="Path 11455" d="M1818.67,1688.11c-.1.094-.2.189-.3.28l.3-.275Z" transform="translate(-1714.186 -1638.905)" fill="#46255c"/>
      <path id="Path_11456" data-name="Path 11456" d="M1809.5,1715.949l-.478.295Z" transform="translate(-1733.172 -1582.351)" fill="#46255c"/>
      <path id="Path_11457" data-name="Path 11457" d="M1808,1700.183q1.226-1.339,2.49-2.687Q1809.232,1698.846,1808,1700.183Z" transform="translate(-1735.231 -1619.837)" fill="#46255c"/>
      <path id="Path_11458" data-name="Path 11458" d="M1811.812,1714.458l-.383.244Z" transform="translate(-1728.277 -1585.375)" fill="#46255c"/>
      <path id="Path_11459" data-name="Path 11459" d="M1804.6,1718.891l-.329.2Z" transform="translate(-1742.822 -1576.377)" fill="#46255c"/>
      <path id="Path_11460" data-name="Path 11460" d="M1814.053,1712.971l-.223.139Z" transform="translate(-1723.4 -1588.405)" fill="#46255c"/>
      <path id="Path_11461" data-name="Path 11461" d="M1812.047,1696.88q2.03-2.021,4.1-4.031Q1814.077,1694.861,1812.047,1696.88Z" transform="translate(-1727.025 -1629.276)" fill="#46255c"/>
      <path id="Path_11462" data-name="Path 11462" d="M1804.105,1704.894c.765-.967,1.551-1.944,2.355-2.92C1805.657,1702.95,1804.87,1703.928,1804.105,1704.894Z" transform="translate(-1743.156 -1610.74)" fill="#46255c"/>
      <path id="Path_11463" data-name="Path 11463" d="M1803.082,1706.015q.96-1.289,1.974-2.6Q1804.042,1704.725,1803.082,1706.015Z" transform="translate(-1745.232 -1607.809)" fill="#46255c"/>
      <path id="Path_11464" data-name="Path 11464" d="M1802.109,1707.417c.608-.882,1.224-1.765,1.872-2.659C1803.333,1705.651,1802.717,1706.535,1802.109,1707.417Z" transform="translate(-1747.205 -1605.083)" fill="#46255c"/>
      <path id="Path_11465" data-name="Path 11465" d="M1809.338,1698.717q1.253-1.316,2.524-2.629Q1810.59,1697.4,1809.338,1698.717Z" transform="translate(-1732.526 -1622.705)" fill="#46255c"/>
      <path id="Path_11466" data-name="Path 11466" d="M1810.682,1697.565c.975-1,1.97-2,2.962-2.995C1812.652,1695.569,1811.657,1696.568,1810.682,1697.565Z" transform="translate(-1729.796 -1625.781)" fill="#46255c"/>
      <path id="Path_11467" data-name="Path 11467" d="M1801.028,1709.805c.754-1.236,1.566-2.489,2.413-3.752C1802.594,1707.316,1801.782,1708.569,1801.028,1709.805Z" transform="translate(-1749.406 -1602.457)" fill="#46255c"/>
      <path id="Path_11468" data-name="Path 11468" d="M1806.6,1702.13q1.417-1.627,2.886-3.249Q1808.013,1700.505,1806.6,1702.13Z" transform="translate(-1738.092 -1617.03)" fill="#46255c"/>
      <path id="Path_11469" data-name="Path 11469" d="M1805.189,1704.329q1.688-2.028,3.465-4.077Q1806.873,1702.3,1805.189,1704.329Z" transform="translate(-1740.954 -1614.243)" fill="#46255c"/>
      <path id="Path_11470" data-name="Path 11470" d="M1815.449,1692.416c.807-.758,1.615-1.52,2.426-2.272C1817.064,1690.9,1816.256,1691.656,1815.449,1692.416Z" transform="translate(-1720.109 -1634.774)" fill="#46255c"/>
      <path id="Path_11471" data-name="Path 11471" d="M1816.916,1691q1.192-1.1,2.39-2.192Q1818.107,1689.9,1816.916,1691Z" transform="translate(-1717.133 -1637.494)" fill="#46255c"/>
      <path id="Path_11472" data-name="Path 11472" d="M1795.779,1716.318c.453-.612.9-1.23,1.36-1.855C1796.681,1715.088,1796.233,1715.706,1795.779,1716.318Z" transform="translate(-1760.067 -1585.368)" fill="#46255c"/>
      <path id="Path_11473" data-name="Path 11473" d="M1813.93,1694.07c.9-.861,1.789-1.723,2.691-2.578C1815.719,1692.352,1814.826,1693.21,1813.93,1694.07Z" transform="translate(-1723.199 -1632.038)" fill="#46255c"/>
      <path id="Path_11474" data-name="Path 11474" d="M1814.277,1777.018c.537-.691,1.073-1.382,1.613-2.085q1.9-2.477,3.82-5.077c.453-.611.908-1.231,1.36-1.855q2.2-3.018,4.409-6.185c3.407-4.912,6.8-10.089,10.112-15.51l.031-.051c.755-1.238,1.569-2.485,2.41-3.753.283-.416.581-.843.873-1.265.606-.879,1.221-1.764,1.873-2.656.349-.488.709-.98,1.073-1.467.642-.863,1.3-1.728,1.972-2.6.371-.48.743-.964,1.125-1.451q1.15-1.453,2.358-2.919c.311-.382.61-.762.927-1.15q1.694-2.022,3.47-4.075c.264-.3.542-.6.8-.908.946-1.087,1.91-2.167,2.89-3.25.453-.5.919-1,1.38-1.507.818-.891,1.644-1.789,2.485-2.685.513-.549,1.032-1.1,1.555-1.65q1.245-1.312,2.519-2.63c.515-.532,1.027-1.063,1.552-1.6.975-1,1.966-1.995,2.958-2.992.4-.392.784-.786,1.179-1.183q2.032-2.025,4.107-4.031l1.6-1.544c.894-.859,1.786-1.723,2.688-2.575.636-.6,1.278-1.208,1.92-1.811.8-.755,1.613-1.517,2.427-2.273.667-.625,1.345-1.245,2.018-1.869.791-.732,1.592-1.463,2.385-2.188.67-.612,1.341-1.227,2.01-1.83l.3-.278c-5.641,23.046-9.273,48.117-6.837,70.863q-3.473,2.249-6.994,4.5l-.224.14q-3.437,2.195-6.893,4.374l-.381.243q-3.413,2.146-6.829,4.271l-.475.3q-3.39,2.106-6.778,4.18l-.49.3c-2.278,1.389-4.544,2.774-6.809,4.136l-.331.2c-.759.458-1.511.907-2.275,1.36L1784,1824.193S1808.175,1796.536,1814.277,1777.018Z" transform="translate(-1784 -1638.902)" fill="#46255c"/>
    </g>
    <g id="Group_6664" data-name="Group 6664" transform="translate(278.55 895.751)">
      <path id="Path_11475" data-name="Path 11475" d="M1606.158,1689.53c.671.62,1.344,1.239,2.015,1.865C1607.5,1690.769,1606.829,1690.149,1606.158,1689.53Z" transform="translate(-1526.582 -1636.026)" fill="#6e3590"/>
      <path id="Path_11476" data-name="Path 11476" d="M1609.141,1692.342c.536.513,1.073,1.024,1.6,1.539C1610.214,1693.366,1609.677,1692.855,1609.141,1692.342Z" transform="translate(-1520.518 -1630.31)" fill="#6e3590"/>
      <path id="Path_11477" data-name="Path 11477" d="M1604.707,1688.2c.669.606,1.338,1.218,2,1.826C1606.045,1689.421,1605.379,1688.808,1604.707,1688.2Z" transform="translate(-1529.528 -1638.719)" fill="#6e3590"/>
      <path id="Path_11478" data-name="Path 11478" d="M1618.484,1718.821q-3.424-2.136-6.849-4.286Q1615.057,1716.685,1618.484,1718.821Z" transform="translate(-1515.452 -1585.224)" fill="#6e3590"/>
      <path id="Path_11479" data-name="Path 11479" d="M1616.478,1699.957c.26.295.527.592.787.887C1617.005,1700.548,1616.739,1700.251,1616.478,1699.957Z" transform="translate(-1505.611 -1614.837)" fill="#6e3590"/>
      <path id="Path_11480" data-name="Path 11480" d="M1615.066,1698.381c.459.51.927,1.012,1.38,1.517C1615.993,1699.393,1615.525,1698.891,1615.066,1698.381Z" transform="translate(-1508.483 -1618.038)" fill="#6e3590"/>
      <path id="Path_11481" data-name="Path 11481" d="M1613.736,1696.957c.514.539,1.027,1.084,1.536,1.627C1614.763,1698.041,1614.25,1697.5,1613.736,1696.957Z" transform="translate(-1511.182 -1620.933)" fill="#6e3590"/>
      <path id="Path_11482" data-name="Path 11482" d="M1612.392,1695.561c.512.525,1.017,1.053,1.527,1.578C1613.41,1696.614,1612.91,1696.086,1612.392,1695.561Z" transform="translate(-1513.911 -1623.771)" fill="#6e3590"/>
      <path id="Path_11483" data-name="Path 11483" d="M1611.023,1694.182c.4.389.78.781,1.172,1.173C1611.8,1694.963,1611.421,1694.571,1611.023,1694.182Z" transform="translate(-1516.689 -1626.575)" fill="#6e3590"/>
      <path id="Path_11484" data-name="Path 11484" d="M1607.623,1690.894q.963.905,1.916,1.809Q1608.584,1691.8,1607.623,1690.894Z" transform="translate(-1523.603 -1633.249)" fill="#6e3590"/>
      <path id="Path_11485" data-name="Path 11485" d="M1620.832,1720.228q-3.386-2.077-6.781-4.181Q1617.444,1718.15,1620.832,1720.228Z" transform="translate(-1510.545 -1582.152)" fill="#6e3590"/>
      <path id="Path_11486" data-name="Path 11486" d="M1616.168,1717.41q-3.477-2.185-6.926-4.395Q1612.687,1715.22,1616.168,1717.41Z" transform="translate(-1520.314 -1588.306)" fill="#6e3590"/>
      <path id="Path_11487" data-name="Path 11487" d="M1616.445,1717.525q2.433,1.489,4.862,2.958h.008C1619.692,1719.5,1618.075,1718.519,1616.445,1717.525Z" transform="translate(-1505.674 -1579.152)" fill="#6e3590"/>
      <path id="Path_11488" data-name="Path 11488" d="M1620.963,1705.641c.287.413.58.833.855,1.247C1621.543,1706.474,1621.25,1706.054,1620.963,1705.641Z" transform="translate(-1496.502 -1603.295)" fill="#6e3590"/>
      <path id="Path_11489" data-name="Path 11489" d="M1654.782,1721.088c-29.916-27.061-59.69-49.21-59.69-49.21s-18.3,51.715-14.72,60.862c2,5.095,43.122,34.881,88.242,63.7q-3.514-2.25-6.994-4.494C1664.058,1769.2,1660.424,1744.133,1654.782,1721.088Z" transform="translate(-1579.908 -1671.878)" fill="#6e3590"/>
      <path id="Path_11490" data-name="Path 11490" d="M1618.967,1702.941c.383.483.75.964,1.125,1.442C1619.717,1703.9,1619.35,1703.424,1618.967,1702.941Z" transform="translate(-1500.557 -1608.781)" fill="#6e3590"/>
      <path id="Path_11491" data-name="Path 11491" d="M1619.988,1704.275c.364.49.723.978,1.072,1.46C1620.711,1705.25,1620.352,1704.765,1619.988,1704.275Z" transform="translate(-1498.479 -1606.067)" fill="#6e3590"/>
      <path id="Path_11492" data-name="Path 11492" d="M1622.879,1708.633c1.391,2.2,2.8,4.353,4.207,6.467C1625.678,1712.985,1624.27,1710.836,1622.879,1708.633Z" transform="translate(-1492.613 -1597.213)" fill="#6e3590"/>
      <path id="Path_11493" data-name="Path 11493" d="M1626.465,1713.943q1.879,2.6,3.748,5.1Q1628.344,1716.549,1626.465,1713.943Z" transform="translate(-1485.321 -1586.427)" fill="#6e3590"/>
      <path id="Path_11494" data-name="Path 11494" d="M1617.881,1701.6c.321.385.63.772.941,1.157C1618.51,1702.367,1618.2,1701.981,1617.881,1701.6Z" transform="translate(-1502.764 -1611.51)" fill="#6e3590"/>
      <path id="Path_11495" data-name="Path 11495" d="M1624.56,1711.339q-1.256-1.98-2.5-4.016l-.012-.022.012.022Q1623.3,1709.355,1624.56,1711.339Z" transform="translate(-1494.295 -1599.922)" fill="#6e3590"/>
      <path id="Path_11496" data-name="Path 11496" d="M1630.052,1718.732q-1.169-1.529-2.351-3.107,1.185,1.581,2.351,3.107Z" transform="translate(-1482.818 -1583.007)" fill="#46255c"/>
      <path id="Path_11497" data-name="Path 11497" d="M1609.672,1692.849c1.377,1.341,2.749,2.684,4.1,4.031C1612.422,1695.533,1611.049,1694.19,1609.672,1692.849Z" transform="translate(-1519.443 -1629.276)" fill="#46255c"/>
      <path id="Path_11498" data-name="Path 11498" d="M1619.338,1703.416c.671.875,1.333,1.746,1.971,2.608Q1620.345,1704.73,1619.338,1703.416Z" transform="translate(-1499.804 -1607.811)" fill="#46255c"/>
      <path id="Path_11499" data-name="Path 11499" d="M1611.41,1694.569c1,1,2,2.006,2.98,3.009C1613.407,1696.575,1612.41,1695.57,1611.41,1694.569Z" transform="translate(-1515.909 -1625.788)" fill="#46255c"/>
      <path id="Path_11500" data-name="Path 11500" d="M1616.738,1700.25q1.783,2.053,3.463,4.08C1619.079,1702.973,1617.927,1701.618,1616.738,1700.25Z" transform="translate(-1505.086 -1614.245)" fill="#46255c"/>
      <path id="Path_11501" data-name="Path 11501" d="M1616.771,1717.72l-.484-.295Z" transform="translate(-1506.002 -1579.35)" fill="#46255c"/>
      <path id="Path_11502" data-name="Path 11502" d="M1618.193,1701.977c.8.979,1.588,1.952,2.351,2.919C1619.781,1703.925,1618.992,1702.955,1618.193,1701.977Z" transform="translate(-1502.134 -1610.736)" fill="#46255c"/>
      <path id="Path_11503" data-name="Path 11503" d="M1612.9,1696.08q1.289,1.327,2.548,2.657Q1614.185,1697.406,1612.9,1696.08Z" transform="translate(-1512.888 -1622.712)" fill="#46255c"/>
      <path id="Path_11504" data-name="Path 11504" d="M1614.242,1697.494q1.264,1.353,2.494,2.69Q1615.5,1698.843,1614.242,1697.494Z" transform="translate(-1510.154 -1619.844)" fill="#46255c"/>
      <path id="Path_11505" data-name="Path 11505" d="M1615.521,1698.881q1.481,1.631,2.9,3.261Q1617,1700.514,1615.521,1698.881Z" transform="translate(-1507.555 -1617.024)" fill="#46255c"/>
      <path id="Path_11506" data-name="Path 11506" d="M1620.342,1704.756c.652.9,1.275,1.792,1.882,2.678C1621.616,1706.548,1620.993,1705.657,1620.342,1704.756Z" transform="translate(-1497.762 -1605.088)" fill="#46255c"/>
      <path id="Path_11507" data-name="Path 11507" d="M1608.256,1691.493c.9.855,1.8,1.717,2.691,2.578Q1609.608,1692.779,1608.256,1691.493Z" transform="translate(-1522.319 -1632.038)" fill="#46255c"/>
      <path id="Path_11508" data-name="Path 11508" d="M1624.266,1710.765q3.32,4.977,6.669,9.629Q1627.6,1715.751,1624.266,1710.765Z" transform="translate(-1489.793 -1592.881)" fill="#46255c"/>
      <path id="Path_11509" data-name="Path 11509" d="M1611.859,1714.676l-.334-.211Z" transform="translate(-1515.673 -1585.364)" fill="#46255c"/>
      <path id="Path_11510" data-name="Path 11510" d="M1614.371,1716.244l-.476-.295Z" transform="translate(-1510.866 -1582.351)" fill="#46255c"/>
      <path id="Path_11511" data-name="Path 11511" d="M1609.392,1713.11l-.226-.139Z" transform="translate(-1520.462 -1588.405)" fill="#46255c"/>
      <path id="Path_11512" data-name="Path 11512" d="M1606.822,1690.144c.808.752,1.617,1.515,2.427,2.272C1608.439,1691.656,1607.63,1690.9,1606.822,1690.144Z" transform="translate(-1525.231 -1634.774)" fill="#46255c"/>
      <path id="Path_11513" data-name="Path 11513" d="M1604.607,1688.11v0c.1.094.2.187.3.275Z" transform="translate(-1529.734 -1638.905)" fill="#46255c"/>
      <path id="Path_11514" data-name="Path 11514" d="M1605.367,1688.806q1.2,1.1,2.392,2.192Q1606.565,1689.9,1605.367,1688.806Z" transform="translate(-1528.183 -1637.494)" fill="#46255c"/>
      <path id="Path_11515" data-name="Path 11515" d="M1621.244,1706.051c.862,1.279,1.681,2.546,2.441,3.789C1622.926,1708.6,1622.106,1707.33,1621.244,1706.051Z" transform="translate(-1495.926 -1602.459)" fill="#46255c"/>
      <path id="Path_11516" data-name="Path 11516" d="M1676.969,1774.63c-.781-1.021-1.566-2.053-2.351-3.109q-1.864-2.485-3.74-5.1c-2.225-3.094-4.46-6.307-6.672-9.63-1.41-2.115-2.814-4.265-4.208-6.468q-1.252-1.984-2.5-4.019l-.009-.022c-.762-1.245-1.58-2.5-2.441-3.783-.274-.414-.568-.834-.855-1.251-.611-.884-1.233-1.776-1.883-2.675-.349-.481-.711-.974-1.071-1.456-.639-.868-1.3-1.736-1.975-2.607-.373-.483-.743-.964-1.126-1.446-.759-.968-1.548-1.943-2.347-2.918-.316-.385-.622-.77-.944-1.157q-1.685-2.026-3.464-4.08c-.258-.294-.527-.588-.785-.885-.95-1.086-1.913-2.171-2.9-3.261-.457-.5-.923-1.01-1.384-1.517q-1.23-1.338-2.493-2.691-.762-.817-1.534-1.625-1.262-1.334-2.549-2.657c-.511-.526-1.015-1.051-1.527-1.578q-1.478-1.5-2.98-3.012c-.392-.389-.772-.782-1.168-1.173-1.353-1.35-2.725-2.69-4.1-4.031-.532-.514-1.069-1.029-1.6-1.544-.891-.859-1.787-1.723-2.689-2.575-.638-.6-1.275-1.208-1.917-1.811-.811-.755-1.617-1.517-2.425-2.273-.677-.625-1.343-1.245-2.02-1.869q-1.193-1.1-2.391-2.188-1-.918-2-1.83c-.1-.091-.2-.184-.3-.278,5.642,23.046,9.273,48.117,6.835,70.863q3.477,2.249,6.994,4.5l.225.14q3.444,2.2,6.923,4.391l.331.21q3.418,2.159,6.849,4.286l.474.3q3.394,2.106,6.778,4.18l.486.3c1.626,1,3.247,1.978,4.868,2.958l1.934-.365,67.632,47.356S1678.411,1794.791,1676.969,1774.63Z" transform="translate(-1529.734 -1638.902)" fill="#46255c"/>
    </g>
    <path id="Path_11517" data-name="Path 11517" d="M1903.182,1566.787c-5.779-10.934-15.58-27.868-15.58-27.868,23.76-2.163,35.781,3.144,35.781,3.144.132.262.242.5.373.76l-19.676,24.2C1903.5,1566.875,1903.182,1566.787,1903.182,1566.787Z" transform="translate(-676.267 -1047.293)" fill="#fff"/>
    <path id="Path_11518" data-name="Path 11518" d="M1921.474,1568.644c-10.505-.11-24.769-3.632-28.437-4.585l19.676-24.2C1923.733,1561.959,1921.474,1568.644,1921.474,1568.644Z" transform="translate(-665.222 -1044.33)" fill="#9b9b9b"/>
    <path id="Path_11519" data-name="Path 11519" d="M1913.341,1555.373c-5.774-10.932-15.584-27.868-15.584-27.868,23.767-2.157,35.781,3.144,35.781,3.144.137.268.245.5.374.76l-19.675,24.2C1913.664,1555.466,1913.341,1555.373,1913.341,1555.373Z" transform="translate(-655.63 -1070.478)" fill="#fff"/>
    <path id="Path_11520" data-name="Path 11520" d="M1931.632,1557.229c-10.509-.108-24.769-3.63-28.438-4.581l19.672-24.2C1933.891,1550.546,1931.632,1557.229,1931.632,1557.229Z" transform="translate(-644.588 -1067.514)" fill="#9b9b9b"/>
    <path id="Path_11521" data-name="Path 11521" d="M1879.207,1550.451c18.918-1.722,30.368,1.284,34.254,2.585l-19.418,23.881C1888.212,1566,1879.207,1550.451,1879.207,1550.451Z" transform="translate(-693.322 -1023.869)" fill="#fff"/>
    <path id="Path_11522" data-name="Path 11522" d="M1914.177,1581.056c-12.152-.122-29.329-4.815-29.329-4.815-.243-.453-.493-.923-.748-1.4l19.421-23.883c1,.33,1.526.559,1.526.559C1916.515,1574.242,1914.177,1581.056,1914.177,1581.056Z" transform="translate(-683.378 -1021.791)" fill="#9b9b9b"/>
    <path id="Path_11523" data-name="Path 11523" d="M1870.3,1561.937c17.436-1.586,28.522.84,33.2,2.252l-18.891,23.234C1878.781,1576.583,1870.3,1561.937,1870.3,1561.937Z" transform="translate(-711.406 -1000.534)" fill="#fff"/>
    <path id="Path_11524" data-name="Path 11524" d="M1905.625,1592.771c-12.149-.128-29.333-4.821-29.333-4.821-.4-.767-.828-1.563-1.27-2.381l18.894-23.236a25.709,25.709,0,0,1,2.575.891C1907.964,1585.95,1905.625,1592.771,1905.625,1592.771Z" transform="translate(-701.812 -998.677)" fill="#9b9b9b"/>
    <path id="Path_11525" data-name="Path 11525" d="M1862.257,1571.578c18.1-1.646,29.367,1.031,33.716,2.4l-19.152,23.555C1870.989,1586.651,1862.257,1571.578,1862.257,1571.578Z" transform="translate(-727.754 -980.951)" fill="#fff"/>
    <path id="Path_11526" data-name="Path 11526" d="M1897.416,1602.3c-12.155-.127-29.334-4.819-29.334-4.819-.327-.615-.668-1.255-1.021-1.906l19.15-23.553c1.364.426,2.068.735,2.068.735C1899.751,1595.485,1897.416,1602.3,1897.416,1602.3Z" transform="translate(-717.992 -978.993)" fill="#9b9b9b"/>
    <path id="Path_11527" data-name="Path 11527" d="M1854.422,1581.232c18.032-1.637,29.283,1.016,33.67,2.394l-19.128,23.528C1863.129,1596.271,1854.422,1581.232,1854.422,1581.232Z" transform="translate(-743.667 -961.329)" fill="#fff"/>
    <path id="Path_11528" data-name="Path 11528" d="M1889.594,1611.969c-12.153-.124-29.334-4.818-29.334-4.818-.333-.629-.684-1.284-1.039-1.948l19.127-23.528c1.395.439,2.109.75,2.109.75C1891.93,1605.155,1889.594,1611.969,1889.594,1611.969Z" transform="translate(-733.924 -959.378)" fill="#9b9b9b"/>
    <path id="Path_11529" data-name="Path 11529" d="M1846.47,1591.392c17.109-1.553,28.093.753,32.923,2.171l-18.75,23.062C1854.82,1605.807,1846.47,1591.392,1846.47,1591.392Z" transform="translate(-759.823 -940.699)" fill="#fff"/>
    <path id="Path_11530" data-name="Path 11530" d="M1881.889,1622.277c-12.153-.128-29.331-4.818-29.331-4.818-.448-.848-.92-1.733-1.411-2.637l18.754-23.063a27.237,27.237,0,0,1,2.852.971C1884.224,1615.459,1881.889,1622.277,1881.889,1622.277Z" transform="translate(-750.327 -938.895)" fill="#9b9b9b"/>
    <path id="Path_11531" data-name="Path 11531" d="M1838.385,1601.375c17.11-1.554,28.1.752,32.923,2.171l-18.745,23.06C1846.733,1615.791,1838.385,1601.375,1838.385,1601.375Z" transform="translate(-776.25 -920.417)" fill="#fff"/>
    <path id="Path_11532" data-name="Path 11532" d="M1873.8,1632.259c-12.151-.125-29.335-4.817-29.335-4.817-.445-.846-.921-1.73-1.406-2.637l18.747-23.06a28.18,28.18,0,0,1,2.856.968C1876.138,1625.443,1873.8,1632.259,1873.8,1632.259Z" transform="translate(-766.751 -918.616)" fill="#9b9b9b"/>
    <path id="Path_11533" data-name="Path 11533" d="M1834.223,1610.959q3.953,8.665,8.143,18.081l12.526-15.4A77.422,77.422,0,0,0,1834.223,1610.959Z" transform="translate(-784.705 -899.895)" fill="#fff"/>
    <path id="Path_11534" data-name="Path 11534" d="M1852.292,1612.815a27.193,27.193,0,0,0-2.858-.973l-12.524,15.406q2.757,6.217,5.595,12.717a108.471,108.471,0,0,0,18.919,2.394S1863.761,1635.542,1852.292,1612.815Z" transform="translate(-779.25 -898.101)" fill="#9b9b9b"/>
    <path id="Path_11535" data-name="Path 11535" d="M1550.222,1528.883c-20.6-1.875-32.356,1.854-35.128,2.884l19.849,24.412C1540.748,1545.235,1550.222,1528.883,1550.222,1528.883Z" transform="translate(-1433.03 -1067.69)" fill="#fff"/>
    <path id="Path_11536" data-name="Path 11536" d="M1512,1559.289c12.149-.128,29.331-4.82,29.331-4.82.1-.184.205-.378.3-.569l-19.844-24.415c-.426.161-.657.257-.657.257C1509.656,1552.47,1512,1559.289,1512,1559.289Z" transform="translate(-1439.721 -1065.41)" fill="#9b9b9b"/>
    <path id="Path_11537" data-name="Path 11537" d="M1544.1,1566.787c5.776-10.934,15.583-27.868,15.583-27.868-23.763-2.163-35.782,3.144-35.782,3.144-.133.262-.24.5-.37.76l19.672,24.2C1543.777,1566.875,1544.1,1566.787,1544.1,1566.787Z" transform="translate(-1415.894 -1047.293)" fill="#fff"/>
    <path id="Path_11538" data-name="Path 11538" d="M1520.769,1568.644c10.506-.11,24.769-3.632,28.437-4.585l-19.675-24.2C1518.51,1561.959,1520.769,1568.644,1520.769,1568.644Z" transform="translate(-1421.892 -1044.33)" fill="#9b9b9b"/>
    <path id="Path_11539" data-name="Path 11539" d="M1566.807,1550.451c-18.921-1.722-30.368,1.284-34.256,2.585l19.415,23.881C1557.8,1566,1566.807,1550.451,1566.807,1550.451Z" transform="translate(-1397.566 -1023.869)" fill="#fff"/>
    <path id="Path_11540" data-name="Path 11540" d="M1529.167,1581.056c12.15-.122,29.333-4.815,29.333-4.815.24-.453.49-.923.742-1.4l-19.417-23.883c-1,.33-1.523.559-1.523.559C1526.828,1574.242,1529.167,1581.056,1529.167,1581.056Z" transform="translate(-1404.839 -1021.791)" fill="#9b9b9b"/>
    <path id="Path_11541" data-name="Path 11541" d="M1575.009,1561.937c-17.441-1.586-28.527.84-33.208,2.252l18.891,23.234C1566.526,1576.583,1575.009,1561.937,1575.009,1561.937Z" transform="translate(-1378.776 -1000.534)" fill="#fff"/>
    <path id="Path_11542" data-name="Path 11542" d="M1538.067,1592.771c12.151-.128,29.336-4.821,29.336-4.821.4-.767.828-1.563,1.267-2.381l-18.892-23.236a25.787,25.787,0,0,0-2.579.891C1535.732,1585.95,1538.067,1592.771,1538.067,1592.771Z" transform="translate(-1386.754 -998.677)" fill="#9b9b9b"/>
    <path id="Path_11543" data-name="Path 11543" d="M1583.392,1571.578c-18.1-1.646-29.363,1.031-33.713,2.4l19.147,23.555C1574.666,1586.651,1583.392,1571.578,1583.392,1571.578Z" transform="translate(-1362.77 -980.951)" fill="#fff"/>
    <path id="Path_11544" data-name="Path 11544" d="M1546.114,1602.3c12.157-.127,29.335-4.819,29.335-4.819.326-.615.67-1.255,1.018-1.906l-19.151-23.553c-1.363.426-2.067.735-2.067.735C1543.781,1595.485,1546.114,1602.3,1546.114,1602.3Z" transform="translate(-1370.407 -978.993)" fill="#9b9b9b"/>
    <path id="Path_11545" data-name="Path 11545" d="M1591.2,1581.232c-18.036-1.637-29.284,1.016-33.673,2.394l19.131,23.528C1582.491,1596.271,1591.2,1581.232,1591.2,1581.232Z" transform="translate(-1346.823 -961.329)" fill="#fff"/>
    <path id="Path_11546" data-name="Path 11546" d="M1553.95,1611.969c12.147-.124,29.33-4.818,29.33-4.818.334-.629.682-1.284,1.039-1.948l-19.128-23.528c-1.394.439-2.108.75-2.108.75C1551.609,1605.155,1553.95,1611.969,1553.95,1611.969Z" transform="translate(-1354.493 -959.378)" fill="#9b9b9b"/>
    <path id="Path_11547" data-name="Path 11547" d="M1598.653,1591.392c-17.112-1.553-28.1.753-32.929,2.171l18.749,23.062C1590.3,1605.807,1598.653,1591.392,1598.653,1591.392Z" transform="translate(-1330.17 -940.699)" fill="#fff"/>
    <path id="Path_11548" data-name="Path 11548" d="M1561.9,1622.277c12.151-.128,29.332-4.818,29.332-4.818.448-.848.919-1.733,1.412-2.637l-18.754-23.063a27.33,27.33,0,0,0-2.853.971C1559.562,1615.459,1561.9,1622.277,1561.9,1622.277Z" transform="translate(-1338.336 -938.895)" fill="#9b9b9b"/>
    <path id="Path_11549" data-name="Path 11549" d="M1606.735,1601.375c-17.109-1.554-28.095.752-32.922,2.171l18.748,23.06C1598.389,1615.791,1606.735,1601.375,1606.735,1601.375Z" transform="translate(-1313.745 -920.417)" fill="#fff"/>
    <path id="Path_11550" data-name="Path 11550" d="M1569.987,1632.259c12.154-.125,29.335-4.817,29.335-4.817.449-.846.919-1.73,1.406-2.637l-18.751-23.06a28.28,28.28,0,0,0-2.852.968C1567.652,1625.443,1569.987,1632.259,1569.987,1632.259Z" transform="translate(-1321.913 -918.616)" fill="#9b9b9b"/>
    <path id="Path_11551" data-name="Path 11551" d="M1602.682,1610.959q-3.952,8.665-8.141,18.081l-12.525-15.4A77.406,77.406,0,0,1,1602.682,1610.959Z" transform="translate(-1297.075 -899.895)" fill="#fff"/>
    <path id="Path_11552" data-name="Path 11552" d="M1587.327,1612.815a27.255,27.255,0,0,1,2.855-.973l12.528,15.406q-2.76,6.217-5.6,12.717a108.45,108.45,0,0,1-18.921,2.394S1575.856,1635.542,1587.327,1612.815Z" transform="translate(-1305.241 -898.101)" fill="#9b9b9b"/>
    <path id="Path_11553" data-name="Path 11553" d="M1734.154,1543.358c16.039,0,29.431,12.339,32.831,28.853a40.761,40.761,0,0,0,.857-8.2c0-20.472-15.085-37.065-33.688-37.065s-33.685,16.594-33.685,37.065a40.428,40.428,0,0,0,.858,8.2C1704.725,1555.7,1718.118,1543.358,1734.154,1543.358Z" transform="translate(-1056.429 -1070.578)" fill="#9b9b9b"/>
    <path id="Path_11554" data-name="Path 11554" d="M1745.168,1556.067s-8.512,9.434-19.967,9.434h-.228c-11.462,0-19.971-9.434-19.971-9.434s5.015,21.5,19.379,28.86l.592.3.81-.3C1740.151,1577.568,1745.168,1556.067,1745.168,1556.067Z" transform="translate(-1047.22 -1011.407)" fill="#9b9b9b"/>
    <path id="Path_11555" data-name="Path 11555" d="M1975.141,1611.874c12.608-4.293,16.471-10.973,16.471-10.973a27.753,27.753,0,0,1-19.26.458c36.161-8.907,54.94-46.356,54.94-46.356-72.321,33.477-139.706,33.052-139.706,33.052-15.017,24.62-37.917,39.9-40.926,41.841-3.013-1.941-25.915-17.221-40.924-41.841,0,0-67.391.426-139.711-33.052,0,0,18.778,37.448,54.938,46.356a27.744,27.744,0,0,1-19.258-.458s3.861,6.681,16.469,10.973c0,0-54.51-12.236-73.181-33.481,0,0,10.3,38.419,69.535,51.723,50.695,11.384,113.021,13.026,129.925,13.262l0,.044s.777,0,2.211-.016c1.431.016,2.2.016,2.2.016v-.044c16.9-.235,79.229-1.878,129.926-13.262,59.232-13.3,69.532-51.723,69.532-51.723C2029.652,1599.638,1975.141,1611.874,1975.141,1611.874Z" transform="translate(-1169.13 -1013.567)" fill="#6e3590"/>
    <path id="Path_11556" data-name="Path 11556" d="M1610.153,1550.361s-19.3,27.544-16.291,57.291c0,0,49.734,34.886,73.316,59.754S1702.333,1724,1702.333,1724s-13.289-66.461-44.159-108.474S1610.153,1550.361,1610.153,1550.361Z" transform="translate(-1273.657 -1022.997)" fill="#6e3590"/>
    <path id="Path_11557" data-name="Path 11557" d="M1624.459,1607.389s-20.687,36-19.289,43.159,72.2,80.748,121.915,108c0,0-18.1-19.092-29.437-45.149S1650.512,1626.482,1624.459,1607.389Z" transform="translate(-1250.179 -907.145)" fill="#6e3590"/>
    <path id="Path_11558" data-name="Path 11558" d="M1615.805,1637.5s-29.834,60.067-25.856,71,79.555,72.2,166.664,97.255c0,0-40.77-33.011-54.491-59.663S1652.2,1655.6,1615.805,1637.5Z" transform="translate(-1281.699 -845.969)" fill="#6e3590"/>
    <path id="Path_11559" data-name="Path 11559" d="M1880.357,1607.389s20.683,36,19.29,43.159-72.2,80.748-121.915,108c0,0,18.092-19.092,29.431-45.149S1854.3,1626.482,1880.357,1607.389Z" transform="translate(-899.47 -907.145)" fill="#6e3590"/>
    <path id="Path_11560" data-name="Path 11560" d="M1919.2,1637.5s29.833,60.067,25.856,71-79.555,72.2-166.67,97.255c0,0,40.77-33.011,54.5-59.663S1882.8,1655.6,1919.2,1637.5Z" transform="translate(-898.135 -845.969)" fill="#6e3590"/>
    <path id="Path_11561" data-name="Path 11561" d="M1610.153,1550.361s-19.3,27.544-16.291,57.291c0,0,6.633,4.657,16.19,11.763C1600.152,1587.8,1603.58,1575.515,1610.153,1550.361Z" transform="translate(-1273.657 -1022.997)" fill="#fff"/>
    <path id="Path_11562" data-name="Path 11562" d="M1624.688,1581.56q-5.63-7.666-10.644-14.48c2.515,17.157,1.333,34.738-4.019,44.626a294.291,294.291,0,0,1,23.667,21.734c23.582,24.868,35.156,56.593,35.156,56.593S1655.559,1623.573,1624.688,1581.56Z" transform="translate(-1240.175 -989.031)" fill="#46255c"/>
    <path id="Path_11563" data-name="Path 11563" d="M1624.46,1607.389s-20.683,36-19.29,43.159c.324,1.684,4.525,7.068,11.35,14.627C1616.119,1648.985,1618.218,1631.632,1624.46,1607.389Z" transform="translate(-1250.179 -907.145)" fill="#fff"/>
    <path id="Path_11564" data-name="Path 11564" d="M1658.522,1679.017c-5.582-12.835-17.116-34.129-30.49-54.709,2.15,22.033.881,36.154-3.673,52.476,20.744,18.394,43.836,36.553,63.6,47.381C1687.96,1724.166,1669.864,1705.076,1658.522,1679.017Z" transform="translate(-1211.05 -872.767)" fill="#46255c"/>
    <path id="Path_11565" data-name="Path 11565" d="M1615.805,1637.5s-29.834,60.067-25.856,71c.99,2.725,6.411,8.557,15.34,16.173C1601.232,1689.65,1610.086,1660.752,1615.805,1637.5Z" transform="translate(-1281.699 -845.969)" fill="#fff"/>
    <path id="Path_11566" data-name="Path 11566" d="M1647.23,1702.314c-5.355-10.4-14.142-26.466-25.017-43.26.948,20.741.521,47.88-5.611,66.759,25.2,14.024,54.442,27.343,85.123,36.171C1701.726,1761.984,1660.95,1728.969,1647.23,1702.314Z" transform="translate(-1226.807 -802.188)" fill="#46255c"/>
    <path id="Path_11567" data-name="Path 11567" d="M1595.092,1671.878s-18.3,51.715-14.72,60.862c.761,1.939,7.2,7.462,17.352,15.135C1591.842,1724.391,1592.757,1699.261,1595.092,1671.878Z" transform="translate(-1301.358 -776.127)" fill="#fff"/>
    <path id="Path_11568" data-name="Path 11568" d="M1615.073,1570.381c.738,2.245-1.406,5.06-4.788,6.293s-6.712.407-7.447-1.835,1.409-5.063,4.783-6.291S1614.338,1568.139,1615.073,1570.381Z" transform="translate(-1255.071 -987.215)" fill="#885daa"/>
    <path id="Path_11569" data-name="Path 11569" d="M1618.906,1567.752a7.634,7.634,0,0,1,1.144,2.784c.98,5.086-3.431,10.207-9.849,11.443a13.887,13.887,0,0,1-7.509-.578c2.236,3.374,7.1,5.187,12.24,4.2,6.419-1.235,10.829-6.356,9.852-11.444A8.861,8.861,0,0,0,1618.906,1567.752Z" transform="translate(-1255.068 -987.665)" fill="#46255c"/>
    <path id="Path_11570" data-name="Path 11570" d="M1728.482,1526.941c-10.05,0-19.045,4.87-25.219,12.545,3.284,2.635,8.3,4.717,14.316,5.879a30.608,30.608,0,0,1,21.891.035c6-1.14,11.013-3.181,14.333-5.783C1747.627,1531.862,1738.583,1526.941,1728.482,1526.941Z" transform="translate(-1050.751 -1070.578)" fill="#fff"/>
    <path id="Path_11571" data-name="Path 11571" d="M1711.548,1465.79v-.01l-.017-.067Z" transform="translate(-1033.96 -1194.965)" fill="#271c38"/>
    <path id="Path_11572" data-name="Path 11572" d="M1711.541,1465.79l.012-.076-.017.067Z" transform="translate(-1033.949 -1194.965)" fill="#271c38"/>
    <path id="Path_11573" data-name="Path 11573" d="M1761.33,1623.253c-32.911-8.425-43.694-16.633-43.694-16.633,13.64.515,36.536-4.347,36.536-4.347-56.171-9.173-69.514-39.319-69.514-39.319v-.009c-6.149-2.415-12.371-5.043-18.634-7.941,0,0,18.778,37.448,54.938,46.356a27.744,27.744,0,0,1-19.258-.458s3.861,6.681,16.469,10.973c0,0-54.51-12.236-73.181-33.481C1694.354,1635.259,1761.33,1623.253,1761.33,1623.253Z" transform="translate(-1169.13 -1013.567)" fill="#46255c"/>
    <path id="Path_11574" data-name="Path 11574" d="M1811.586,1607.389s20.682,36,19.293,43.159c-.331,1.684-4.526,7.068-11.351,14.627C1819.925,1648.985,1817.824,1631.632,1811.586,1607.389Z" transform="translate(-830.697 -907.145)" fill="#fff"/>
    <path id="Path_11575" data-name="Path 11575" d="M1807.163,1679.017c5.587-12.835,17.119-34.129,30.5-54.709-2.155,22.033-.881,36.154,3.67,52.476-20.746,18.394-43.836,36.553-63.6,47.381C1777.732,1724.166,1795.824,1705.076,1807.163,1679.017Z" transform="translate(-899.47 -872.767)" fill="#46255c"/>
    <path id="Path_11576" data-name="Path 11576" d="M1824.838,1637.5s29.832,60.067,25.853,71c-.989,2.725-6.413,8.557-15.339,16.173C1839.412,1689.65,1830.557,1660.752,1824.838,1637.5Z" transform="translate(-803.772 -845.969)" fill="#fff"/>
    <path id="Path_11577" data-name="Path 11577" d="M1832.882,1702.314c5.354-10.4,14.142-26.466,25.019-43.26-.955,20.741-.523,47.88,5.611,66.759-25.2,14.024-54.444,27.343-85.126,36.171C1778.387,1761.984,1819.161,1728.969,1832.882,1702.314Z" transform="translate(-898.135 -802.188)" fill="#46255c"/>
    <path id="Path_11578" data-name="Path 11578" d="M1839.919,1671.878s18.3,51.715,14.718,60.862c-.759,1.939-7.2,7.462-17.35,15.135C1843.164,1724.391,1842.254,1699.261,1839.919,1671.878Z" transform="translate(-778.478 -776.127)" fill="#fff"/>
    <g id="Group_6665" data-name="Group 6665" transform="translate(927.747 525.178)">
      <path id="Path_11579" data-name="Path 11579" d="M1888.553,1549.641s19.778,28.238,16.7,58.73c0,0-50.983,35.771-75.161,61.262s-36.037,58.022-36.037,58.022,13.625-68.138,45.271-111.207S1888.553,1549.641,1888.553,1549.641Z" transform="translate(-1794.055 -1549.641)" fill="#6e3590"/>
      <path id="Path_11580" data-name="Path 11580" d="M1825.227,1549.641s19.776,28.238,16.7,58.73c0,0-6.8,4.774-16.6,12.065C1835.482,1588.026,1831.967,1575.425,1825.227,1549.641Z" transform="translate(-1730.728 -1549.641)" fill="#fff"/>
      <path id="Path_11581" data-name="Path 11581" d="M1839.327,1581.628q5.775-7.864,10.912-14.849c-2.574,17.595-1.366,35.615,4.122,45.752a302.1,302.1,0,0,0-24.268,22.28c-24.172,25.489-36.037,58.017-36.037,58.017S1807.68,1624.7,1839.327,1581.628Z" transform="translate(-1794.055 -1514.819)" fill="#46255c"/>
      <path id="Path_11582" data-name="Path 11582" d="M1817.375,1570.166c-.753,2.3,1.444,5.187,4.908,6.45s6.885.414,7.636-1.886-1.443-5.186-4.9-6.449S1818.128,1567.865,1817.375,1570.166Z" transform="translate(-1746.978 -1512.955)" fill="#885daa"/>
      <path id="Path_11583" data-name="Path 11583" d="M1820.114,1567.47a7.758,7.758,0,0,0-1.174,2.846c-1,5.218,3.515,10.47,10.1,11.738a14.23,14.23,0,0,0,7.7-.6c-2.29,3.457-7.275,5.317-12.551,4.308-6.577-1.268-11.1-6.521-10.1-11.734A9.071,9.071,0,0,1,1820.114,1567.47Z" transform="translate(-1753.641 -1513.421)" fill="#46255c"/>
    </g>
    <path id="Path_11584" data-name="Path 11584" d="M1739.7,1623.253c32.908-8.425,43.694-16.633,43.694-16.633-13.638.515-36.538-4.347-36.538-4.347,56.174-9.173,69.519-39.319,69.519-39.319l0-.009c6.148-2.415,12.371-5.043,18.634-7.941,0,0-18.779,37.448-54.939,46.356a27.752,27.752,0,0,0,19.26-.458s-3.864,6.681-16.471,10.973c0,0,54.51-12.236,73.182-33.481C1806.682,1635.259,1739.7,1623.253,1739.7,1623.253Z" transform="translate(-976.73 -1013.567)" fill="#46255c"/>
    <path id="Path_11585" data-name="Path 11585" d="M1651.767,1505.467" transform="translate(-1155.373 -1114.204)" fill="none" stroke="#f7000d" stroke-miterlimit="10" stroke-width="0.668"/>
    <path id="Path_11586" data-name="Path 11586" d="M1997.316,1609.1c-15.1,4.933-44,46.424-50.09,48.135s-54.25,6.416-60.313,5.543c-7.671-1.088-38.976-38.61-50.143-38.61s-42.471,37.522-50.138,38.61c-6.061.873-54.227-3.833-60.316-5.543s-34.989-43.2-50.083-48.135c-11.91-3.888-16.428-1.982-26.344,4.529,0,0,49.379,125.559,55.68,144.185s11.227,20.542,25.47,34.512,53.116,59.344,71.754,66.273c10.7,3.982,20.857,5.753,33.978,5.753s23.288-1.771,33.984-5.753c18.639-6.928,57.514-52.309,71.754-66.273s19.171-15.887,25.471-34.512,55.679-144.185,55.679-144.185C2013.745,1607.122,2009.225,1605.215,1997.316,1609.1Z" transform="translate(-1159.188 -907.729)" fill="#6e3590"/>
    <path id="Path_11587" data-name="Path 11587" d="M1729.335,1637.573c10.177-15.008,32.238-36.259,70.16-36.355,0,0-11.549,24.9-18.029,27.378S1741.707,1629.491,1729.335,1637.573Z" transform="translate(-997.787 -919.681)" fill="#fff"/>
    <path id="Path_11588" data-name="Path 11588" d="M1676.233,1609.1c15.095,4.933,44,46.424,50.083,48.135s54.256,6.416,60.316,5.543c7.667-1.088,38.978-38.61,50.138-38.61s42.472,37.522,50.143,38.61c6.063.873,54.229-3.833,60.313-5.543s34.994-43.2,50.09-48.135c11.909-3.888,16.428-1.982,26.344,4.529,0,0-49.379,125.559-55.679,144.185s-11.233,20.542-25.471,34.512-53.115,59.344-71.754,66.273c-10.7,3.982-20.857,5.753-33.984,5.753s-23.278-1.771-33.978-5.753c-18.638-6.928-57.514-52.309-71.754-66.273s-19.171-15.887-25.47-34.512-55.68-144.185-55.68-144.185C1659.8,1607.122,1664.322,1605.215,1676.233,1609.1Z" transform="translate(-1159.188 -907.729)" fill="#6e3590"/>
    <path id="Path_11589" data-name="Path 11589" d="M1740.751,1637.573c-10.172-15.008-32.237-36.259-70.159-36.355,0,0,11.552,24.9,18.028,27.378S1728.383,1629.491,1740.751,1637.573Z" transform="translate(-1117.126 -919.681)" fill="#fff"/>
    <path id="Path_11590" data-name="Path 11590" d="M1737.944,1777.1l-.061-.005.061.005.059-.005-.059.005c11.713.039,27.133,11.51,39.4,20.582-12.682-54.807-39.4-148.229-39.4-162.636,0,14.407-26.72,107.828-39.4,162.636C1710.807,1788.609,1726.226,1777.138,1737.944,1777.1Z" transform="translate(-1060.357 -850.959)" fill="#46255c"/>
    <path id="Path_11591" data-name="Path 11591" d="M1738.135,1681.9c-11.716.039-27.132,11.508-39.4,20.588-.1.416-.2.842-.292,1.261a33.318,33.318,0,0,0,5.717,2.887c10.695,3.985,20.85,5.756,33.977,5.756s23.283-1.771,33.982-5.756a33.553,33.553,0,0,0,5.716-2.887c-.1-.419-.194-.845-.295-1.261C1765.274,1693.412,1749.852,1681.943,1738.135,1681.9Z" transform="translate(-1060.55 -755.767)" fill="#6e3590"/>
    <path id="Path_11592" data-name="Path 11592" d="M1755.8,1633.719l0,.022Z" transform="translate(-944.04 -853.66)" fill="#6e3590"/>
    <path id="Path_11593" data-name="Path 11593" d="M1755.64,1635.135l-.007.068Z" transform="translate(-944.364 -850.777)" fill="#6e3590"/>
    <path id="Path_11594" data-name="Path 11594" d="M1755.5,1636.566l-.017.189Z" transform="translate(-944.675 -847.864)" fill="#6e3590"/>
    <path id="Path_11595" data-name="Path 11595" d="M1753.008,1678.966c3.853-5.974,5.382-23.537,7.092-41.005-.593,6.073-1.167,12.16-1.825,17.765C1756.887,1666.209,1755.143,1675.658,1753.008,1678.966Z" transform="translate(-949.694 -845.035)" fill="#6e3590"/>
    <path id="Path_11596" data-name="Path 11596" d="M1756.227,1631.689c-.075.431-.164,1.112-.262,1.96C1756.051,1632.989,1756.139,1632.334,1756.227,1631.689Z" transform="translate(-943.693 -857.776)" fill="#6e3590"/>
    <path id="Path_11597" data-name="Path 11597" d="M1756.307,1632.336h0c-.178,1.367-.353,2.767-.515,4.186C1755.955,1635.1,1756.129,1633.709,1756.307,1632.336Z" transform="translate(-944.036 -856.461)" fill="#6e3590"/>
    <path id="Path_11598" data-name="Path 11598" d="M1756.115,1633.724q-.25,2.111-.48,4.276Q1755.867,1635.839,1756.115,1633.724Z" transform="translate(-944.36 -853.644)" fill="#6e3590"/>
    <path id="Path_11599" data-name="Path 11599" d="M1732.115,1742.464c-1.64,7.854.184,15.7,8.765,14.424s50.393-56.965,55.687-65.18c2.136-3.309,3.879-12.759,5.263-23.243.659-5.607,1.236-11.7,1.828-17.767.127-1.348.265-2.694.4-4.033l.017-.19c.147-1.433.3-2.862.446-4.276l.007-.066c.155-1.443.314-2.874.481-4.279v-.019q.248-2.132.517-4.187c.1-.848.185-1.529.264-1.96-1.034,5.764-1.816,12.348-7.763,15.649-8.511,4.727-39.254,20.54-48.565,22.182-1.527.272-2.708-1.6-3.853-4.422l0,.005C1748.785,1673.554,1733.758,1734.613,1732.115,1742.464Z" transform="translate(-993.253 -857.776)" fill="#46255c"/>
    <path id="Path_11600" data-name="Path 11600" d="M1740.693,1742.464c1.645,7.854-.179,15.7-8.763,14.424s-50.393-56.965-55.687-65.18c-2.132-3.309-3.877-12.759-5.264-23.243-.661-5.607-1.232-11.7-1.826-17.767-.135-1.348-.263-2.694-.4-4.033l-.019-.19c-.144-1.433-.294-2.862-.447-4.276l0-.066c-.157-1.443-.317-2.874-.48-4.279l0-.019q-.246-2.132-.514-4.187c-.1-.848-.189-1.529-.266-1.96,1.032,5.764,1.814,12.348,7.759,15.649,8.513,4.727,39.258,20.54,48.567,22.182,1.529.272,2.708-1.6,3.852-4.422l0,.005C1724.026,1673.554,1739.051,1734.613,1740.693,1742.464Z" transform="translate(-1124.384 -857.776)" fill="#46255c"/>
    <path id="Path_11601" data-name="Path 11601" d="M1755.749,1636.629c-.137,1.341-.275,2.687-.4,4.036C1755.474,1639.315,1755.612,1637.969,1755.749,1636.629Z" transform="translate(-944.943 -847.739)" fill="#6e3590"/>
    <path id="Path_11602" data-name="Path 11602" d="M1755.93,1635.156c-.149,1.414-.3,2.844-.444,4.28C1755.632,1638,1755.781,1636.57,1755.93,1635.156Z" transform="translate(-944.664 -850.731)" fill="#6e3590"/>
    <path id="Path_11603" data-name="Path 11603" d="M1736.4,1633.034s6.024-3.558,11.777,0c0,0-3.014-7.081-12.05-11.071,0,0,.272-2.074,7.666-4.265,0,0-5.2-19.993-4.927-26.014H1719.1c.275,6.021-4.931,26.014-4.931,26.014,7.4,2.191,7.671,4.265,7.671,4.265-9.038,3.99-12.051,11.071-12.051,11.071,5.75-3.558,11.777,0,11.777,0s-15.336,6.025-18.622,21.086c0,0,12.321-10.407,26.034-10.407s26.04,10.407,26.04,10.407C1751.738,1639.059,1736.4,1633.034,1736.4,1633.034Z" transform="translate(-1051.398 -939.055)" fill="#46255c"/>
    <path id="Path_11604" data-name="Path 11604" d="M1702.516,1664.681a6.851,6.851,0,0,1,.747-4.173,13.083,13.083,0,0,1,2.751-3.4,24.889,24.889,0,0,1,7.4-4.359,47.767,47.767,0,0,1,33.205-.006,24.764,24.764,0,0,1,7.4,4.361,13.02,13.02,0,0,1,2.755,3.4,6.88,6.88,0,0,1,.743,4.176,7.458,7.458,0,0,0-1.866-3.388,12.654,12.654,0,0,0-3.056-2.22,29.337,29.337,0,0,0-7.167-2.656,70.647,70.647,0,0,0-30.823-.01,29.523,29.523,0,0,0-7.17,2.659,12.558,12.558,0,0,0-3.054,2.227A7.4,7.4,0,0,0,1702.516,1664.681Z" transform="translate(-1052.431 -821.044)" fill="#6e3590"/>
    <path id="Path_11605" data-name="Path 11605" d="M1699.663,1679.729a9.005,9.005,0,0,1,.973-5.5,13.34,13.34,0,0,1,1.632-2.391c.313-.363.618-.75.948-1.1l1.044-.99a33.22,33.22,0,0,1,9.739-5.779,56,56,0,0,1,10.786-2.984,66.974,66.974,0,0,1,22.184-.008,55.475,55.475,0,0,1,10.79,2.99,33.051,33.051,0,0,1,9.74,5.774l1.044.992c.335.347.639.737.951,1.1a13.743,13.743,0,0,1,1.629,2.392,9.047,9.047,0,0,1,.97,5.506,9.822,9.822,0,0,0-2.463-4.454,16.519,16.519,0,0,0-4.03-2.917,38.158,38.158,0,0,0-9.444-3.468,79.424,79.424,0,0,0-10.048-1.724c-3.4-.341-6.812-.5-10.232-.528-3.42.022-6.836.184-10.229.522a79.939,79.939,0,0,0-10.053,1.72,38.2,38.2,0,0,0-9.446,3.47,16.747,16.747,0,0,0-4.029,2.921A9.779,9.779,0,0,0,1699.663,1679.729Z" transform="translate(-1058.291 -800.153)" fill="#6e3590"/>
    <path id="Path_11606" data-name="Path 11606" d="M1695.873,1705.509c-.88-5.28.818-10.994,3.879-15.672a38.411,38.411,0,0,1,12.237-11.346c9.611-5.769,20.82-8.19,31.836-8.305,11.012.1,22.222,2.521,31.84,8.3a38.442,38.442,0,0,1,12.236,11.344c3.06,4.682,4.758,10.4,3.87,15.681a24.992,24.992,0,0,0-7.024-13.151,39.58,39.58,0,0,0-12.127-8.158c-8.97-4.064-18.928-5.66-28.795-5.78-9.871.108-19.835,1.708-28.8,5.771a39.416,39.416,0,0,0-12.13,8.159A24.994,24.994,0,0,0,1695.873,1705.509Z" transform="translate(-1066.236 -779.572)" fill="#6e3590"/>
    <path id="Path_11607" data-name="Path 11607" d="M1717.365,1616.356c.262.232.532.464.8.7C1717.892,1616.819,1717.627,1616.588,1717.365,1616.356Z" transform="translate(-1022.111 -888.931)" fill="#885daa"/>
    <path id="Path_11608" data-name="Path 11608" d="M1683.529,1624.725q.809.085,1.617.162Q1684.338,1624.81,1683.529,1624.725Z" transform="translate(-1090.847 -871.925)" fill="#885daa"/>
    <path id="Path_11609" data-name="Path 11609" d="M1718.207,1617.1c.258.233.512.458.769.694C1718.719,1617.558,1718.465,1617.333,1718.207,1617.1Z" transform="translate(-1020.394 -887.413)" fill="#885daa"/>
    <path id="Path_11610" data-name="Path 11610" d="M1734.627,1625.2l.523-.044Z" transform="translate(-987.039 -871.046)" fill="#885daa"/>
    <path id="Path_11611" data-name="Path 11611" d="M1716.629,1615.726c.26.224.53.444.792.672C1717.158,1616.171,1716.888,1615.95,1716.629,1615.726Z" transform="translate(-1023.606 -890.208)" fill="#885daa"/>
    <path id="Path_11612" data-name="Path 11612" d="M1684.285,1624.8l2.091.2Z" transform="translate(-1089.308 -871.774)" fill="#885daa"/>
    <path id="Path_11613" data-name="Path 11613" d="M1714.375,1613.99c.221.15.442.3.659.461C1714.817,1614.294,1714.6,1614.14,1714.375,1613.99Z" transform="translate(-1028.179 -893.737)" fill="#885daa"/>
    <path id="Path_11614" data-name="Path 11614" d="M1685.982,1624.959c.714.067,1.42.128,2.127.189C1687.4,1625.086,1686.7,1625.026,1685.982,1624.959Z" transform="translate(-1085.861 -871.447)" fill="#885daa"/>
    <path id="Path_11615" data-name="Path 11615" d="M1715.064,1614.482c.2.145.389.284.589.434C1715.454,1614.766,1715.262,1614.627,1715.064,1614.482Z" transform="translate(-1026.786 -892.738)" fill="#885daa"/>
    <path id="Path_11616" data-name="Path 11616" d="M1715.924,1615.145c.162.13.329.27.492.4C1716.252,1615.415,1716.086,1615.275,1715.924,1615.145Z" transform="translate(-1025.035 -891.385)" fill="#885daa"/>
    <path id="Path_11617" data-name="Path 11617" d="M1685.224,1624.891l1.552.14Z" transform="translate(-1087.401 -871.591)" fill="#885daa"/>
    <path id="Path_11618" data-name="Path 11618" d="M1724.17,1622.634q.606.548,1.2,1.081C1724.975,1623.36,1724.574,1623,1724.17,1622.634Z" transform="translate(-1008.283 -876.168)" fill="#885daa"/>
    <path id="Path_11619" data-name="Path 11619" d="M1681.88,1624.556c.542.057,1.083.116,1.632.17C1682.963,1624.673,1682.422,1624.613,1681.88,1624.556Z" transform="translate(-1094.194 -872.269)" fill="#885daa"/>
    <path id="Path_11620" data-name="Path 11620" d="M1724.594,1623.017c2.253,2.009,4.3,3.728,6.046,5.011C1728.89,1626.745,1726.841,1625.022,1724.594,1623.017Z" transform="translate(-1007.418 -875.393)" fill="#885daa"/>
    <path id="Path_11621" data-name="Path 11621" d="M1733.129,1625.32l.61-.047Z" transform="translate(-990.082 -870.813)" fill="#885daa"/>
    <path id="Path_11622" data-name="Path 11622" d="M1733.808,1625.277l.725-.058Z" transform="translate(-988.703 -870.922)" fill="#885daa"/>
    <path id="Path_11623" data-name="Path 11623" d="M1680.979,1624.459c.672.071,1.358.143,2.044.218C1682.337,1624.6,1681.651,1624.53,1680.979,1624.459Z" transform="translate(-1096.03 -872.466)" fill="#885daa"/>
    <path id="Path_11624" data-name="Path 11624" d="M1682.61,1624.633c.686.071,1.385.141,2.083.213C1683.995,1624.774,1683.3,1624.7,1682.61,1624.633Z" transform="translate(-1092.717 -872.115)" fill="#885daa"/>
    <path id="Path_11625" data-name="Path 11625" d="M1723.164,1621.711q.582.547,1.156,1.075Q1723.747,1622.258,1723.164,1621.711Z" transform="translate(-1010.33 -878.052)" fill="#885daa"/>
    <path id="Path_11626" data-name="Path 11626" d="M1720.472,1619.182c2.777,2.606,5.517,5.2,8.1,7.606C1725.99,1624.384,1723.249,1621.786,1720.472,1619.182Z" transform="translate(-1015.8 -883.183)" fill="#885daa"/>
    <path id="Path_11627" data-name="Path 11627" d="M1719.789,1618.547q.567.525,1.129,1.051Q1720.356,1619.073,1719.789,1618.547Z" transform="translate(-1017.18 -884.473)" fill="#885daa"/>
    <path id="Path_11628" data-name="Path 11628" d="M1723.686,1622.193c.382.353.757.7,1.129,1.032C1724.443,1622.89,1724.068,1622.546,1723.686,1622.193Z" transform="translate(-1009.263 -877.064)" fill="#885daa"/>
    <path id="Path_11629" data-name="Path 11629" d="M1713.752,1613.58c.172.109.346.226.519.333C1714.1,1613.806,1713.924,1613.689,1713.752,1613.58Z" transform="translate(-1029.451 -894.564)" fill="#885daa"/>
    <path id="Path_11630" data-name="Path 11630" d="M1719.059,1617.873c.334.309.672.618,1.008.927C1719.73,1618.491,1719.393,1618.182,1719.059,1617.873Z" transform="translate(-1018.666 -885.849)" fill="#885daa"/>
    <path id="Path_11631" data-name="Path 11631" d="M1707.146,1616.206q1.029-.824,2.024-1.581Q1708.174,1615.382,1707.146,1616.206Z" transform="translate(-1042.862 -892.444)" fill="#885daa"/>
    <path id="Path_11632" data-name="Path 11632" d="M1706.443,1616.635c.552-.464,1.1-.917,1.639-1.356C1707.544,1615.718,1706.995,1616.171,1706.443,1616.635Z" transform="translate(-1044.294 -891.116)" fill="#885daa"/>
    <path id="Path_11633" data-name="Path 11633" d="M1698.9,1622.841l.335-.306Z" transform="translate(-1059.615 -876.374)" fill="#885daa"/>
    <path id="Path_11634" data-name="Path 11634" d="M1698.478,1623.068l.083-.076Z" transform="translate(-1060.475 -875.444)" fill="#885daa"/>
    <path id="Path_11635" data-name="Path 11635" d="M1708.01,1615.17c.478-.355.953-.7,1.419-1.03C1708.963,1614.467,1708.492,1614.815,1708.01,1615.17Z" transform="translate(-1041.115 -893.427)" fill="#885daa"/>
    <path id="Path_11636" data-name="Path 11636" d="M1705.709,1617.182q.725-.629,1.43-1.233Q1706.434,1616.555,1705.709,1617.182Z" transform="translate(-1045.79 -889.758)" fill="#885daa"/>
    <path id="Path_11637" data-name="Path 11637" d="M1704.012,1618.974c.608-.553,1.208-1.1,1.808-1.646C1705.22,1617.871,1704.62,1618.421,1704.012,1618.974Z" transform="translate(-1049.231 -886.95)" fill="#885daa"/>
    <path id="Path_11638" data-name="Path 11638" d="M1708.7,1614.593c.466-.323.921-.619,1.371-.9C1709.616,1613.974,1709.161,1614.27,1708.7,1614.593Z" transform="translate(-1039.719 -894.34)" fill="#885daa"/>
    <path id="Path_11639" data-name="Path 11639" d="M1703.283,1619.291l1.208-1.113Z" transform="translate(-1050.716 -885.226)" fill="#885daa"/>
    <path id="Path_11640" data-name="Path 11640" d="M1686.852,1625.037c.558.052,1.112.1,1.667.143C1687.964,1625.136,1687.409,1625.089,1686.852,1625.037Z" transform="translate(-1084.096 -871.292)" fill="#885daa"/>
    <path id="Path_11641" data-name="Path 11641" d="M1699.385,1622.458l.426-.393Z" transform="translate(-1058.635 -877.329)" fill="#885daa"/>
    <path id="Path_11642" data-name="Path 11642" d="M1704.864,1618.147c.589-.523,1.174-1.047,1.757-1.562C1706.037,1617.1,1705.452,1617.624,1704.864,1618.147Z" transform="translate(-1047.504 -888.461)" fill="#885daa"/>
    <path id="Path_11643" data-name="Path 11643" d="M1711.972,1612.785c.14.03.289.074.436.113C1712.261,1612.859,1712.113,1612.814,1711.972,1612.785Z" transform="translate(-1033.064 -896.182)" fill="#885daa"/>
    <path id="Path_11644" data-name="Path 11644" d="M1687.664,1625.107c.618.052,1.233.106,1.84.155C1688.9,1625.214,1688.282,1625.159,1687.664,1625.107Z" transform="translate(-1082.447 -871.15)" fill="#885daa"/>
    <path id="Path_11645" data-name="Path 11645" d="M1711.1,1612.9a6.546,6.546,0,0,1,1.323-.164A6.546,6.546,0,0,0,1711.1,1612.9Z" transform="translate(-1034.835 -896.294)" fill="#885daa"/>
    <path id="Path_11646" data-name="Path 11646" d="M1712.467,1612.934c.169.062.332.123.5.194C1712.8,1613.057,1712.636,1613,1712.467,1612.934Z" transform="translate(-1032.058 -895.88)" fill="#885daa"/>
    <path id="Path_11647" data-name="Path 11647" d="M1713.064,1613.2c.107.057.221.1.33.164C1713.285,1613.3,1713.171,1613.254,1713.064,1613.2Z" transform="translate(-1030.847 -895.346)" fill="#885daa"/>
    <path id="Path_11648" data-name="Path 11648" d="M1710.605,1613.161c.368-.135.721-.251,1.064-.339C1711.326,1612.91,1710.973,1613.026,1710.605,1613.161Z" transform="translate(-1035.841 -896.107)" fill="#885daa"/>
    <path id="Path_11649" data-name="Path 11649" d="M1710.008,1613.6c.449-.225.885-.427,1.3-.6C1710.892,1613.175,1710.457,1613.376,1710.008,1613.6Z" transform="translate(-1037.054 -895.75)" fill="#885daa"/>
    <path id="Path_11650" data-name="Path 11650" d="M1689.263,1625.236c.487.038.968.077,1.449.111C1690.232,1625.313,1689.75,1625.274,1689.263,1625.236Z" transform="translate(-1079.195 -870.885)" fill="#885daa"/>
    <path id="Path_11651" data-name="Path 11651" d="M1709.32,1614.256c.6-.371,1.187-.7,1.749-1C1710.507,1613.551,1709.921,1613.885,1709.32,1614.256Z" transform="translate(-1038.448 -895.237)" fill="#885daa"/>
    <path id="Path_11652" data-name="Path 11652" d="M1688.443,1625.172l1.764.142Z" transform="translate(-1080.862 -871.017)" fill="#885daa"/>
    <path id="Path_11653" data-name="Path 11653" d="M1678.2,1624.133l1.47.179Z" transform="translate(-1101.672 -873.128)" fill="#885daa"/>
    <path id="Path_11654" data-name="Path 11654" d="M1676.478,1623.9c.424.061.871.128,1.338.194C1677.349,1624.024,1676.9,1623.958,1676.478,1623.9Z" transform="translate(-1105.171 -873.607)" fill="#885daa"/>
    <path id="Path_11655" data-name="Path 11655" d="M1745.509,1624.083l.379-.052Z" transform="translate(-964.927 -873.33)" fill="#885daa"/>
    <path id="Path_11656" data-name="Path 11656" d="M1746.043,1624.008l.326-.047Z" transform="translate(-963.844 -873.477)" fill="#885daa"/>
    <path id="Path_11657" data-name="Path 11657" d="M1744.869,1624.16l.321-.042Z" transform="translate(-966.226 -873.156)" fill="#885daa"/>
    <path id="Path_11658" data-name="Path 11658" d="M1676.071,1623.832c.309.051.637.1.983.154C1676.708,1623.932,1676.379,1623.883,1676.071,1623.832Z" transform="translate(-1105.998 -873.737)" fill="#885daa"/>
    <path id="Path_11659" data-name="Path 11659" d="M1743.541,1624.31l.217-.023Z" transform="translate(-968.927 -872.819)" fill="#885daa"/>
    <path id="Path_11660" data-name="Path 11660" d="M1677.561,1624.051c.52.068,1.062.138,1.617.208C1678.623,1624.188,1678.081,1624.119,1677.561,1624.051Z" transform="translate(-1102.971 -873.297)" fill="#885daa"/>
    <path id="Path_11661" data-name="Path 11661" d="M1742.765,1624.428l.609-.069Z" transform="translate(-970.507 -872.663)" fill="#885daa"/>
    <path id="Path_11662" data-name="Path 11662" d="M1742.094,1624.476l.225-.027Z" transform="translate(-971.869 -872.484)" fill="#885daa"/>
    <path id="Path_11663" data-name="Path 11663" d="M1677.027,1623.975c.395.059.809.115,1.234.172C1677.836,1624.09,1677.422,1624.034,1677.027,1623.975Z" transform="translate(-1104.054 -873.446)" fill="#885daa"/>
    <path id="Path_11664" data-name="Path 11664" d="M1746.594,1623.923l.253-.038Z" transform="translate(-962.728 -873.635)" fill="#885daa"/>
    <path id="Path_11665" data-name="Path 11665" d="M1675.1,1623.641c.169.046.38.1.613.15C1675.482,1623.739,1675.271,1623.687,1675.1,1623.641Z" transform="translate(-1107.963 -874.128)" fill="#885daa"/>
    <path id="Path_11666" data-name="Path 11666" d="M1757.882,1620.547c-4.59,5.175-8.173,8.893-9.906,9.376l-.008.005.008-.005C1749.709,1629.44,1753.292,1625.722,1757.882,1620.547Z" transform="translate(-959.934 -880.413)" fill="#885daa"/>
    <path id="Path_11667" data-name="Path 11667" d="M1699.924,1621.731h0l.045-.039-.059.051.01,0Z" transform="translate(-1057.571 -878.087)" fill="#885daa"/>
    <path id="Path_11668" data-name="Path 11668" d="M1751.7,1624.745c1.915-2.181,3.975-4.57,6.125-7.05C1755.676,1620.175,1753.615,1622.564,1751.7,1624.745Z" transform="translate(-952.346 -886.205)" fill="#885daa"/>
    <path id="Path_11669" data-name="Path 11669" d="M1747.426,1623.775l.128-.025Z" transform="translate(-961.034 -873.904)" fill="#885daa"/>
    <path id="Path_11670" data-name="Path 11670" d="M1675.644,1623.757c.307.059.645.116,1,.177C1676.289,1623.873,1675.951,1623.816,1675.644,1623.757Z" transform="translate(-1106.863 -873.887)" fill="#885daa"/>
    <path id="Path_11671" data-name="Path 11671" d="M1747,1623.866l.29-.05Z" transform="translate(-961.902 -873.77)" fill="#885daa"/>
    <path id="Path_11672" data-name="Path 11672" d="M1747.7,1623.734l.192-.045Z" transform="translate(-960.471 -874.028)" fill="#885daa"/>
    <path id="Path_11673" data-name="Path 11673" d="M1675.37,1623.7c.215.049.448.1.708.145C1675.82,1623.8,1675.585,1623.752,1675.37,1623.7Z" transform="translate(-1107.428 -873.999)" fill="#885daa"/>
    <path id="Path_11674" data-name="Path 11674" d="M1744.224,1624.255l.491-.062Z" transform="translate(-967.54 -873.006)" fill="#885daa"/>
    <path id="Path_11675" data-name="Path 11675" d="M1678.846,1624.213c.6.072,1.215.148,1.852.221C1680.061,1624.36,1679.45,1624.285,1678.846,1624.213Z" transform="translate(-1100.358 -872.965)" fill="#885daa"/>
    <path id="Path_11676" data-name="Path 11676" d="M1740.463,1624.675l.574-.062Z" transform="translate(-975.183 -872.156)" fill="#885daa"/>
    <path id="Path_11677" data-name="Path 11677" d="M1738.785,1624.843l.681-.064Z" transform="translate(-978.589 -871.82)" fill="#885daa"/>
    <path id="Path_11678" data-name="Path 11678" d="M1739.542,1624.767l.709-.064Z" transform="translate(-977.051 -871.973)" fill="#885daa"/>
    <path id="Path_11679" data-name="Path 11679" d="M1737.846,1624.939l.759-.073Z" transform="translate(-980.5 -871.639)" fill="#885daa"/>
    <path id="Path_11680" data-name="Path 11680" d="M1679.529,1624.293c.568.069,1.151.14,1.742.2C1680.681,1624.433,1680.1,1624.362,1679.529,1624.293Z" transform="translate(-1098.97 -872.801)" fill="#885daa"/>
    <path id="Path_11681" data-name="Path 11681" d="M1680.3,1624.385l1.812.2Z" transform="translate(-1097.393 -872.619)" fill="#885daa"/>
    <path id="Path_11682" data-name="Path 11682" d="M1735.408,1625.152l.791-.068Z" transform="translate(-985.453 -871.194)" fill="#885daa"/>
    <path id="Path_11683" data-name="Path 11683" d="M1737.09,1625l.747-.069Z" transform="translate(-982.038 -871.494)" fill="#885daa"/>
    <path id="Path_11684" data-name="Path 11684" d="M1736.219,1625.068l.511-.044Z" transform="translate(-983.801 -871.321)" fill="#885daa"/>
    <path id="Path_11685" data-name="Path 11685" d="M1702.613,1619.723c.291-.275.585-.551.88-.823C1703.2,1619.172,1702.9,1619.449,1702.613,1619.723Z" transform="translate(-1052.077 -883.76)" fill="#885daa"/>
    <path id="Path_11686" data-name="Path 11686" d="M1741.191,1624.6l.7-.074Z" transform="translate(-973.705 -872.317)" fill="#885daa"/>
    <path id="Path_11687" data-name="Path 11687" d="M1684.974,1624.865l.757.073Z" transform="translate(-1087.909 -871.639)" fill="#885daa"/>
    <path id="Path_11688" data-name="Path 11688" d="M1680.105,1624.359l.611.069Z" transform="translate(-1097.803 -872.663)" fill="#885daa"/>
    <path id="Path_11689" data-name="Path 11689" d="M1675.3,1623.689l.194.045Z" transform="translate(-1107.554 -874.028)" fill="#885daa"/>
    <path id="Path_11690" data-name="Path 11690" d="M1698.506,1623.718q.592-.536,1.2-1.083C1699.3,1623,1698.9,1623.365,1698.506,1623.718Z" transform="translate(-1060.42 -876.168)" fill="#885daa"/>
    <path id="Path_11691" data-name="Path 11691" d="M1677.436,1624.031l.383.052Z" transform="translate(-1103.225 -873.33)" fill="#885daa"/>
    <path id="Path_11692" data-name="Path 11692" d="M1685.736,1624.936l.747.069Z" transform="translate(-1086.364 -871.494)" fill="#885daa"/>
    <path id="Path_11693" data-name="Path 11693" d="M1699.525,1622.786c.386-.352.77-.71,1.159-1.075C1700.3,1622.076,1699.911,1622.434,1699.525,1622.786Z" transform="translate(-1058.348 -878.052)" fill="#885daa"/>
    <path id="Path_11694" data-name="Path 11694" d="M1675.6,1623.75l.128.025Z" transform="translate(-1106.95 -873.904)" fill="#885daa"/>
    <path id="Path_11695" data-name="Path 11695" d="M1669.348,1617.7c2.154,2.48,4.217,4.869,6.128,7.05C1673.565,1622.564,1671.5,1620.175,1669.348,1617.7Z" transform="translate(-1119.656 -886.205)" fill="#885daa"/>
    <path id="Path_11696" data-name="Path 11696" d="M1668.262,1616.451q1.673,1.911,3.292,3.776Q1669.939,1618.367,1668.262,1616.451Z" transform="translate(-1121.863 -888.735)" fill="#885daa"/>
    <path id="Path_11697" data-name="Path 11697" d="M1699.014,1623.225q.555-.5,1.128-1.032C1699.759,1622.546,1699.381,1622.89,1699.014,1623.225Z" transform="translate(-1059.391 -877.064)" fill="#885daa"/>
    <path id="Path_11698" data-name="Path 11698" d="M1678.094,1624.119l.322.042Z" transform="translate(-1101.885 -873.156)" fill="#885daa"/>
    <path id="Path_11699" data-name="Path 11699" d="M1681.651,1624.531l.7.074Z" transform="translate(-1094.659 -872.317)" fill="#885daa"/>
    <path id="Path_11700" data-name="Path 11700" d="M1675.975,1623.816l.294.05Z" transform="translate(-1106.193 -873.77)" fill="#885daa"/>
    <path id="Path_11701" data-name="Path 11701" d="M1676.394,1623.885l.25.038Z" transform="translate(-1105.339 -873.635)" fill="#885daa"/>
    <path id="Path_11702" data-name="Path 11702" d="M1688.272,1625.158l.523.044Z" transform="translate(-1081.212 -871.046)" fill="#885daa"/>
    <path id="Path_11703" data-name="Path 11703" d="M1683.3,1624.7l.707.064Z" transform="translate(-1091.321 -871.973)" fill="#885daa"/>
    <path id="Path_11704" data-name="Path 11704" d="M1696.482,1628.032c1.75-1.287,3.8-3.008,6.048-5.015C1700.283,1625.02,1698.232,1626.745,1696.482,1628.032Z" transform="translate(-1064.53 -875.396)" fill="#885daa"/>
    <path id="Path_11705" data-name="Path 11705" d="M1686.683,1625.023l.51.044Z" transform="translate(-1084.437 -871.321)" fill="#885daa"/>
    <path id="Path_11706" data-name="Path 11706" d="M1687.4,1625.084l.8.068Z" transform="translate(-1082.979 -871.194)" fill="#885daa"/>
    <path id="Path_11707" data-name="Path 11707" d="M1678.686,1624.193l.489.062Z" transform="translate(-1100.686 -873.006)" fill="#885daa"/>
    <path id="Path_11708" data-name="Path 11708" d="M1680.9,1624.449l.226.027Z" transform="translate(-1096.183 -872.484)" fill="#885daa"/>
    <path id="Path_11709" data-name="Path 11709" d="M1689.74,1625.273l.615.047Z" transform="translate(-1078.23 -870.813)" fill="#885daa"/>
    <path id="Path_11710" data-name="Path 11710" d="M1682.418,1624.613l.576.062Z" transform="translate(-1093.102 -872.156)" fill="#885daa"/>
    <path id="Path_11711" data-name="Path 11711" d="M1679.457,1624.287l.221.023Z" transform="translate(-1099.116 -872.819)" fill="#885daa"/>
    <path id="Path_11712" data-name="Path 11712" d="M1684.06,1624.779l.679.064Z" transform="translate(-1089.762 -871.82)" fill="#885daa"/>
    <path id="Path_11713" data-name="Path 11713" d="M1689.025,1625.219l.723.058Z" transform="translate(-1079.679 -870.922)" fill="#885daa"/>
    <path id="Path_11714" data-name="Path 11714" d="M1676.92,1623.961l.326.047Z" transform="translate(-1104.273 -873.477)" fill="#885daa"/>
    <path id="Path_11715" data-name="Path 11715" d="M1699.93,1626.808c2.594-2.414,5.345-5.022,8.136-7.636C1705.275,1621.786,1702.524,1624.393,1699.93,1626.808Z" transform="translate(-1057.53 -883.207)" fill="#885daa"/>
    <path id="Path_11716" data-name="Path 11716" d="M1738.1,1625l2.092-.2Z" transform="translate(-979.988 -871.774)" fill="#885daa"/>
    <path id="Path_11717" data-name="Path 11717" d="M1724.565,1622.992l.093.077Z" transform="translate(-1007.481 -875.447)" fill="#885daa"/>
    <path id="Path_11718" data-name="Path 11718" d="M1740.652,1624.726c.554-.054,1.1-.114,1.637-.17C1741.748,1624.613,1741.206,1624.673,1740.652,1624.726Z" transform="translate(-974.796 -872.269)" fill="#885daa"/>
    <path id="Path_11719" data-name="Path 11719" d="M1739.775,1624.846l2.085-.213Z" transform="translate(-976.578 -872.115)" fill="#885daa"/>
    <path id="Path_11720" data-name="Path 11720" d="M1742.17,1624.584l1.806-.2Z" transform="translate(-971.719 -872.619)" fill="#885daa"/>
    <path id="Path_11721" data-name="Path 11721" d="M1741.42,1624.677q1.033-.113,2.045-.218Q1742.451,1624.566,1741.42,1624.677Z" transform="translate(-973.239 -872.466)" fill="#885daa"/>
    <path id="Path_11722" data-name="Path 11722" d="M1734.8,1625.262c.608-.048,1.222-.1,1.841-.155C1736.023,1625.159,1735.409,1625.214,1734.8,1625.262Z" transform="translate(-986.688 -871.15)" fill="#885daa"/>
    <path id="Path_11723" data-name="Path 11723" d="M1742.967,1624.5c.589-.063,1.174-.134,1.743-.2C1744.141,1624.362,1743.556,1624.433,1742.967,1624.5Z" transform="translate(-970.096 -872.801)" fill="#885daa"/>
    <path id="Path_11724" data-name="Path 11724" d="M1734.047,1625.314l1.757-.142Z" transform="translate(-988.22 -871.017)" fill="#885daa"/>
    <path id="Path_11725" data-name="Path 11725" d="M1733.333,1625.347c.474-.035.958-.073,1.443-.111C1734.29,1625.274,1733.807,1625.313,1733.333,1625.347Z" transform="translate(-989.671 -870.885)" fill="#885daa"/>
    <path id="Path_11726" data-name="Path 11726" d="M1737.336,1625.03l1.546-.14Z" transform="translate(-981.536 -871.591)" fill="#885daa"/>
    <path id="Path_11727" data-name="Path 11727" d="M1735.67,1625.18q.831-.066,1.669-.143C1736.779,1625.089,1736.226,1625.136,1735.67,1625.18Z" transform="translate(-984.92 -871.292)" fill="#885daa"/>
    <path id="Path_11728" data-name="Path 11728" d="M1736.388,1625.148c.706-.061,1.409-.122,2.123-.189C1737.8,1625.026,1737.092,1625.086,1736.388,1625.148Z" transform="translate(-983.462 -871.447)" fill="#885daa"/>
    <path id="Path_11729" data-name="Path 11729" d="M1739.01,1624.886c.536-.051,1.076-.105,1.613-.162C1740.086,1624.781,1739.546,1624.835,1739.01,1624.886Z" transform="translate(-978.134 -871.925)" fill="#885daa"/>
    <path id="Path_11730" data-name="Path 11730" d="M1747.1,1623.934c.36-.061.7-.118,1-.177C1747.8,1623.816,1747.458,1623.873,1747.1,1623.934Z" transform="translate(-961.707 -873.887)" fill="#885daa"/>
    <path id="Path_11731" data-name="Path 11731" d="M1747.471,1623.847c.259-.047.493-.1.708-.145C1747.964,1623.752,1747.73,1623.8,1747.471,1623.847Z" transform="translate(-960.949 -873.999)" fill="#885daa"/>
    <path id="Path_11732" data-name="Path 11732" d="M1747.766,1623.791c.235-.052.446-.1.612-.15C1748.211,1623.687,1748,1623.739,1747.766,1623.791Z" transform="translate(-960.344 -874.128)" fill="#885daa"/>
    <path id="Path_11733" data-name="Path 11733" d="M1681.74,1629.923l0,.005,0-.005c-1.735-.483-5.318-4.2-9.907-9.376C1676.421,1625.722,1680,1629.44,1681.74,1629.923Z" transform="translate(-1114.607 -880.413)" fill="#885daa"/>
    <path id="Path_11734" data-name="Path 11734" d="M1723.187,1621.731l.005.007.012,0-.059-.051.042.039Z" transform="translate(-1010.371 -878.087)" fill="#885daa"/>
    <path id="Path_11735" data-name="Path 11735" d="M1746.15,1624.091c.469-.067.919-.133,1.343-.194C1747.07,1623.958,1746.619,1624.024,1746.15,1624.091Z" transform="translate(-963.627 -873.607)" fill="#885daa"/>
    <path id="Path_11736" data-name="Path 11736" d="M1744.977,1624.259c.556-.071,1.1-.14,1.618-.208C1746.074,1624.119,1745.533,1624.188,1744.977,1624.259Z" transform="translate(-966.012 -873.297)" fill="#885daa"/>
    <path id="Path_11737" data-name="Path 11737" d="M1746.676,1623.986c.348-.054.674-.1.98-.154C1747.349,1623.883,1747.024,1623.932,1746.676,1623.986Z" transform="translate(-962.558 -873.737)" fill="#885daa"/>
    <path id="Path_11738" data-name="Path 11738" d="M1744.386,1624.312l1.47-.179Z" transform="translate(-967.213 -873.128)" fill="#885daa"/>
    <path id="Path_11739" data-name="Path 11739" d="M1745.637,1624.147c.427-.057.839-.113,1.235-.172C1746.475,1624.034,1746.063,1624.09,1745.637,1624.147Z" transform="translate(-964.675 -873.446)" fill="#885daa"/>
    <path id="Path_11740" data-name="Path 11740" d="M1743.613,1624.434c.634-.074,1.244-.149,1.849-.221C1744.858,1624.285,1744.248,1624.36,1743.613,1624.434Z" transform="translate(-968.781 -872.965)" fill="#885daa"/>
    <path id="Path_11741" data-name="Path 11741" d="M1708.479,1614.451c.22-.157.441-.311.659-.461C1708.92,1614.14,1708.7,1614.294,1708.479,1614.451Z" transform="translate(-1040.163 -893.737)" fill="#885daa"/>
    <path id="Path_11742" data-name="Path 11742" d="M1709.9,1613.362c.112-.064.218-.108.335-.164C1710.117,1613.254,1710.009,1613.3,1709.9,1613.362Z" transform="translate(-1037.276 -895.346)" fill="#885daa"/>
    <path id="Path_11743" data-name="Path 11743" d="M1702.9,1619.621c.382-.36.764-.716,1.147-1.074C1703.668,1618.9,1703.286,1619.258,1702.9,1619.621Z" transform="translate(-1051.486 -884.48)" fill="#885daa"/>
    <path id="Path_11744" data-name="Path 11744" d="M1709.146,1613.913c.179-.107.356-.224.527-.333C1709.5,1613.689,1709.325,1613.806,1709.146,1613.913Z" transform="translate(-1038.8 -894.564)" fill="#885daa"/>
    <path id="Path_11745" data-name="Path 11745" d="M1710.439,1613.128c.174-.071.339-.132.5-.194C1710.778,1613,1710.614,1613.057,1710.439,1613.128Z" transform="translate(-1036.178 -895.88)" fill="#885daa"/>
    <path id="Path_11746" data-name="Path 11746" d="M1711.535,1612.733a6.57,6.57,0,0,1,1.324.164A6.57,6.57,0,0,0,1711.535,1612.733Z" transform="translate(-1033.949 -896.294)" fill="#885daa"/>
    <path id="Path_11747" data-name="Path 11747" d="M1710.957,1612.9c.144-.039.295-.083.433-.113C1711.252,1612.814,1711.1,1612.859,1710.957,1612.9Z" transform="translate(-1035.129 -896.182)" fill="#885daa"/>
    <path id="Path_11748" data-name="Path 11748" d="M1712.117,1612.822c.343.088.7.2,1.064.339C1712.813,1613.026,1712.46,1612.91,1712.117,1612.822Z" transform="translate(-1032.772 -896.107)" fill="#885daa"/>
    <path id="Path_11749" data-name="Path 11749" d="M1704.609,1617.794c.257-.236.515-.461.773-.694C1705.124,1617.333,1704.866,1617.558,1704.609,1617.794Z" transform="translate(-1048.019 -887.413)" fill="#885daa"/>
    <path id="Path_11750" data-name="Path 11750" d="M1703.68,1618.8c.336-.309.675-.618,1-.927Z" transform="translate(-1049.906 -885.849)" fill="#885daa"/>
    <path id="Path_11751" data-name="Path 11751" d="M1705.443,1617.058c.267-.239.535-.47.8-.7C1705.978,1616.588,1705.71,1616.819,1705.443,1617.058Z" transform="translate(-1046.325 -888.931)" fill="#885daa"/>
    <path id="Path_11752" data-name="Path 11752" d="M1706.985,1615.549c.164-.134.327-.274.495-.4C1707.312,1615.275,1707.149,1615.415,1706.985,1615.549Z" transform="translate(-1043.195 -891.385)" fill="#885daa"/>
    <path id="Path_11753" data-name="Path 11753" d="M1706.18,1616.4c.266-.228.535-.448.8-.672C1706.715,1615.95,1706.446,1616.171,1706.18,1616.4Z" transform="translate(-1044.828 -890.208)" fill="#885daa"/>
    <path id="Path_11754" data-name="Path 11754" d="M1707.814,1614.917c.2-.15.391-.29.59-.434C1708.206,1614.627,1708.013,1614.766,1707.814,1614.917Z" transform="translate(-1041.509 -892.738)" fill="#885daa"/>
    <path id="Path_11755" data-name="Path 11755" d="M1724.058,1622.535l.338.306Z" transform="translate(-1008.508 -876.374)" fill="#885daa"/>
    <path id="Path_11756" data-name="Path 11756" d="M1716.891,1615.949c.478.4.958.814,1.435,1.233C1717.849,1616.763,1717.368,1616.353,1716.891,1615.949Z" transform="translate(-1023.073 -889.758)" fill="#885daa"/>
    <path id="Path_11757" data-name="Path 11757" d="M1718.461,1617.328q.9.815,1.81,1.646Q1719.364,1618.144,1718.461,1617.328Z" transform="translate(-1019.878 -886.95)" fill="#885daa"/>
    <path id="Path_11758" data-name="Path 11758" d="M1717.629,1616.586c.578.515,1.169,1.039,1.757,1.562C1718.8,1617.624,1718.207,1617.1,1717.629,1616.586Z" transform="translate(-1021.574 -888.461)" fill="#885daa"/>
    <path id="Path_11759" data-name="Path 11759" d="M1719.39,1618.178c.4.371.807.745,1.211,1.121C1720.2,1618.923,1719.8,1618.548,1719.39,1618.178Z" transform="translate(-1017.991 -885.226)" fill="#885daa"/>
    <path id="Path_11760" data-name="Path 11760" d="M1720.164,1618.895c.317.292.623.583.936.874C1720.787,1619.477,1720.481,1619.186,1720.164,1618.895Z" transform="translate(-1016.424 -883.769)" fill="#885daa"/>
    <path id="Path_11761" data-name="Path 11761" d="M1712.63,1613c.423.177.861.378,1.309.6C1713.492,1613.376,1713.053,1613.175,1712.63,1613Z" transform="translate(-1031.721 -895.75)" fill="#885daa"/>
    <path id="Path_11762" data-name="Path 11762" d="M1723.544,1622.064l.432.393Z" transform="translate(-1009.552 -877.329)" fill="#885daa"/>
    <path id="Path_11763" data-name="Path 11763" d="M1716.086,1615.279q.812.658,1.642,1.356Q1716.9,1615.939,1716.086,1615.279Z" transform="translate(-1024.703 -891.116)" fill="#885daa"/>
    <path id="Path_11764" data-name="Path 11764" d="M1713.174,1613.252c.566.3,1.152.633,1.749,1C1714.325,1613.885,1713.74,1613.551,1713.174,1613.252Z" transform="translate(-1030.622 -895.237)" fill="#885daa"/>
    <path id="Path_11765" data-name="Path 11765" d="M1713.924,1613.689c.448.285.9.581,1.37.9C1714.828,1614.27,1714.372,1613.974,1713.924,1613.689Z" transform="translate(-1029.102 -894.34)" fill="#885daa"/>
    <path id="Path_11766" data-name="Path 11766" d="M1715.258,1614.625c.664.5,1.335,1.031,2.021,1.581C1716.593,1615.656,1715.922,1615.129,1715.258,1614.625Z" transform="translate(-1026.391 -892.444)" fill="#885daa"/>
    <path id="Path_11767" data-name="Path 11767" d="M1714.594,1614.141c.465.326.938.674,1.424,1.03C1715.532,1614.815,1715.059,1614.467,1714.594,1614.141Z" transform="translate(-1027.737 -893.427)" fill="#885daa"/>
    <path id="Path_11768" data-name="Path 11768" d="M1773.232,1690.058l7.055-20.181,20.184-13.027c.028-.257.066-.512.1-.775.12-1,.229-2.036.343-3.063l-19.462,13.521,4.788-13.694,15.392-6.716c.118-1.216.241-2.431.36-3.654l-14.618,7.129,4.132-11.816c-1.218.637-2.553,1.338-3.969,2.065l-3.61,11.435-15.611,7.612,4.3-11.616c-1.235.591-2.468,1.174-3.69,1.744l-3.9,11.479-21.795,10.635-.079.52,21.236-9.275-7.125,20.972-18.86,13.1-.113.529,18.367-11.853-8.731,25.677-15.593,12.78-.132.567,15.14-11.616-10.87,31.976c.07.013.131.034.205.042l12.3-33.275,21.145-16.239-9.068,28.751c.222-.267.447-.53.676-.8l10.276-29.4,25.312-19.432c.389-1.409.762-3.01,1.112-4.755Zm-5.7-29.054,15.449-6.741-4.531,14.355-18.47,12.836Zm3.61,30.764-21.474,17.606,9.57-25.917,18.243-11.776Z" transform="translate(-991.985 -845.395)" fill="#6e3590"/>
    <path id="Path_11769" data-name="Path 11769" d="M1671.428,1669.411c.354,1.745.728,3.346,1.114,4.755l25.311,19.432,10.275,29.4c.228.272.451.534.679.8l-9.075-28.751,21.151,16.239,12.294,33.275c.074-.007.135-.029.208-.042l-10.873-31.976,15.139,11.616-.135-.567-15.59-12.78-8.729-25.677,18.365,11.853-.11-.529-18.862-13.1-7.126-20.972,21.24,9.275-.082-.52-21.8-10.635-3.9-11.479c-1.222-.57-2.455-1.153-3.687-1.744l4.293,11.616-15.61-7.612-3.607-11.435c-1.419-.727-2.755-1.428-3.973-2.065l4.131,11.816-14.617-7.129c.122,1.223.243,2.438.363,3.654l15.389,6.716,4.786,13.694-19.457-13.521c.11,1.027.223,2.061.341,3.063.034.262.071.518.1.775l20.18,13.027,7.056,20.181Zm38.432,12.043-18.469-12.836-4.532-14.355,15.447,6.741Zm-17.5-9.773,18.244,11.776,9.572,25.917-21.479-17.606Z" transform="translate(-1122.688 -845.395)" fill="#6e3590"/>
    <path id="Path_11770" data-name="Path 11770" d="M1944.127,1636.45c-2.151,2.481-4.212,4.865-6.128,7.048-.476.542-.944,1.077-1.406,1.6-4.588,5.173-8.173,8.891-9.905,9.373l-.005,0c-.171.047-.38.1-.614.148l-.19.044c-.215.048-.451.093-.711.142l-.127.022c-.31.061-.645.117-1,.176l-.292.051c-.31.05-.636.1-.982.155l-.253.04c-.42.064-.872.125-1.343.193l-.326.047c-.394.058-.806.113-1.235.173l-.377.051c-.523.065-1.062.139-1.617.208l-.324.041c-.48.062-.97.123-1.468.183l-.49.063-1.853.22-.218.021c-.568.071-1.152.141-1.742.208l-.613.067c-.6.067-1.2.133-1.806.2l-.228.029c-.674.074-1.355.145-2.043.223l-.694.072c-.541.055-1.082.115-1.632.168l-.576.059c-.688.077-1.384.146-2.083.214l-.706.071c-.536.057-1.077.107-1.614.161l-.68.067c-.7.065-1.391.133-2.089.2l-.76.073c-.517.049-1.035.095-1.546.142l-.748.072c-.715.063-1.422.126-2.127.19l-.51.042-1.668.145-.793.066q-.93.081-1.842.155l-.527.045c-.591.045-1.177.094-1.76.139l-.722.054c-.485.04-.969.074-1.444.108l-.616.049h0c-10.191.3-8.746,10.264-8.746,10.264-.905-2.625-5.1-6.825-11.072-12.127l0-.005c-1.754-1.287-3.8-3-6.045-5.012l-.095-.08c-.389-.353-.792-.713-1.2-1.078l-.336-.305c-.373-.339-.747-.682-1.129-1.033l-.429-.393c-.383-.354-.768-.713-1.159-1.076l-.01-.008-.007-.007h0l-.042-.039c-2.582-2.4-5.32-5-8.1-7.606-.313-.292-.62-.582-.931-.873-.38-.352-.753-.706-1.133-1.054-.4-.374-.808-.747-1.21-1.122-.336-.306-.671-.618-1.007-.923q-.908-.835-1.808-1.65c-.257-.229-.515-.457-.772-.691-.586-.527-1.176-1.046-1.754-1.558-.27-.235-.535-.469-.8-.7-.48-.417-.961-.826-1.434-1.232-.265-.227-.534-.453-.794-.673-.554-.465-1.1-.916-1.642-1.357-.165-.132-.33-.271-.493-.4-.686-.55-1.36-1.074-2.022-1.581-.2-.152-.392-.29-.59-.434q-.725-.541-1.422-1.034c-.223-.158-.441-.308-.661-.458-.466-.322-.924-.617-1.373-.9-.173-.111-.349-.228-.519-.334-.6-.368-1.189-.7-1.753-1-.112-.059-.22-.1-.333-.162-.448-.223-.885-.429-1.309-.605l-.5-.193c-.368-.135-.72-.249-1.064-.337-.147-.038-.3-.083-.439-.111a5.316,5.316,0,0,0-2.644,0c-.139.028-.289.073-.433.111a10.761,10.761,0,0,0-1.064.337l-.506.193c-.42.177-.856.382-1.307.605-.113.058-.22.1-.331.162q-.847.449-1.749,1c-.175.106-.351.224-.525.334-.448.287-.9.582-1.369.9-.221.15-.445.3-.662.458-.466.329-.943.673-1.424,1.034-.194.144-.39.282-.586.434-.664.507-1.335,1.031-2.021,1.581-.167.13-.333.269-.5.4-.54.442-1.088.892-1.64,1.357-.264.22-.531.446-.8.673-.473.406-.951.815-1.434,1.232-.265.235-.535.468-.8.7q-.875.767-1.757,1.558c-.257.234-.513.462-.769.691q-.9.816-1.81,1.65c-.334.306-.67.617-1.006.923-.4.372-.8.745-1.208,1.117-.382.356-.766.715-1.149,1.074-.292.272-.588.549-.88.823-2.793,2.617-5.544,5.225-8.138,7.641l-.041.039h0l-.006.007-.014.008c-.39.363-.774.722-1.159,1.076l-.429.393c-.382.351-.755.694-1.128,1.033l-.338.305q-.611.549-1.2,1.081l-.083.074c-2.253,2.006-4.3,3.729-6.051,5.016l-.007.005c-5.968,5.3-10.165,9.5-11.071,12.127,0,0,1.445-9.967-8.744-10.264h0l-.613-.049c-.479-.034-.957-.068-1.443-.108l-.723-.054c-.582-.046-1.171-.094-1.765-.139l-.519-.045c-.611-.049-1.228-.1-1.846-.155l-.793-.066-1.667-.145-.509-.042c-.708-.064-1.411-.128-2.124-.19l-.75-.072c-.518-.047-1.032-.093-1.549-.142l-.759-.073c-.7-.066-1.4-.135-2.089-.2l-.679-.067c-.54-.054-1.078-.1-1.614-.161l-.706-.071c-.7-.068-1.394-.137-2.085-.214l-.576-.059c-.546-.053-1.09-.113-1.627-.168l-.7-.072c-.689-.078-1.372-.149-2.044-.223l-.225-.029c-.615-.066-1.213-.132-1.812-.2l-.609-.067c-.59-.067-1.174-.137-1.743-.208l-.218-.021-1.853-.22-.487-.062c-.5-.06-.993-.121-1.47-.183l-.32-.041c-.56-.069-1.1-.143-1.62-.208l-.379-.051c-.428-.06-.84-.115-1.238-.173l-.324-.047c-.471-.068-.919-.129-1.343-.193l-.253-.04c-.346-.056-.672-.105-.981-.155l-.292-.051c-.356-.059-.7-.115-1-.176l-.13-.022c-.262-.049-.495-.094-.711-.142l-.191-.044c-.232-.049-.441-.1-.61-.148l-.008,0c-1.734-.482-5.317-4.2-9.908-9.373-.461-.519-.928-1.054-1.409-1.6-1.911-2.183-3.973-4.567-6.126-7.048-1.073-1.241-2.177-2.5-3.291-3.774-8.374-9.542-17.673-19.6-25.045-24.214,18.414,26.856,19.115,59.061,21.085,69.351.069.351.133.7.2,1.06,1.032,5.764,1.815,12.347,7.762,15.647,8.512,4.73,39.256,20.541,48.565,22.183,3.835.679,5.477-12.048,9.863-19.715s32.591-19.175,41.079-22.226,27.681-.234,27.681,14.282c0-14.516,19.193-17.341,27.682-14.282s36.7,14.556,41.081,22.226,6.026,20.395,9.86,19.715c9.311-1.642,40.052-17.453,48.565-22.183,5.948-3.3,6.73-9.883,7.761-15.647.064-.355.131-.709.2-1.06,1.975-10.29,2.671-42.495,21.084-69.351C1964.109,1613.692,1953.275,1625.913,1944.127,1636.45Z" transform="translate(-1138.644 -904.96)" fill="#885daa"/>
  </g>
</svg>
