<svg id="Layer_1" data-name="Layer 1" xmlns="http://www.w3.org/2000/svg" viewBox="0 0 201.12 148.41"><defs><style>.cls-1,.cls-17,.cls-18{fill:#fff;}.cls-2{fill:#663a89;}.cls-15,.cls-3,.cls-6,.cls-9{fill:#251d36;}.cls-4,.cls-7{fill:#422859;}.cls-5{fill:#8160a3;}.cls-6{opacity:0.58;}.cls-7{opacity:0.54;}.cls-8{fill:#3c3156;}.cls-9{opacity:0.28;}.cls-10{fill:#342049;}.cls-11{fill:#7f7e7f;}.cls-12{fill:#636363;}.cls-13{fill:#999;}.cls-14{fill:#cececd;}.cls-15{opacity:0.44;}.cls-16{fill:none;}.cls-17{font-size:17.6px;font-family:LegendM54, Legend M54;}.cls-18{opacity:0.15;}</style></defs><path class="cls-1" d="M96.47,146.89l-2-.87-.32-.14c-.64-.28-1.29-.57-1.92-.87l-.35-.17c-.71-.33-1.34-.64-1.94-.94l-.16-.08-1.86-1-.21-.11c-.61-.33-1.23-.66-1.89-1l-.3-.16c-.66-.38-1.28-.73-1.87-1.09l-.18-.11c-.67-.39-1.29-.77-1.89-1.15l0,0c-.61-.38-1.24-.78-1.9-1.22l-.21-.14c-.62-.41-1.24-.83-1.84-1.25l-.17-.11c-1.25-.87-2.5-1.79-3.71-2.72l-.1-.08c-.6-.45-1.2-.93-1.8-1.41l-.13-.11c-1.83-1.47-3.63-3-5.37-4.65l-.11-.1-.5-.47a244.3,244.3,0,0,1-44.84-9.25L9.41,114.13,13,100.43l-.75,0a10.26,10.26,0,0,1-9.92-7.9,10.08,10.08,0,0,1-.2-3.13l1.24-14.7.8-7.1a5.59,5.59,0,0,1,1-2.66L4,65.13.54,55.83h0A3.45,3.45,0,0,1,0,53.51L1.67,41l.61-1.63a33.9,33.9,0,0,1,2.06-4.45L6.53,3.08,16.6,4.81v2c0,3.88,1.69,6.34,5.2,7.53l3.69,1.25-4.85,4.73a9.2,9.2,0,0,0-.68.72,39.15,39.15,0,0,1,14.69-2.79q.84,0,1.68,0A22.72,22.72,0,0,0,36,10.43c-.13-.65-.28-1.26-.46-1.86L33.11,0l11,3.5.83.83c8.57,8.66,9.55,16.24,9.6,19a35,35,0,0,1,8.91,7.25L100.13,19l1.55.49,35.77,11.26a35.29,35.29,0,0,1,9.1-7.46c0-2.72,1-10.3,9.6-19L157,3.5,168,0l-2.48,8.57c-.17.6-.32,1.21-.46,1.86a22.71,22.71,0,0,0-.28,7.87l1.67,0a39.2,39.2,0,0,1,14.7,2.79c-.22-.25-.44-.49-.68-.72l-4.85-4.72,3.72-1.24c3.56-1.18,5.28-3.66,5.26-7.57v-2l3.32-.58,6.67-1.14,2.18,31.81a31.49,31.49,0,0,1,2.06,4.45l.62,1.63,1.64,12.54a3.56,3.56,0,0,1-.51,2.32h0l-3.48,9.3L195.93,65a5.59,5.59,0,0,1,1,2.66l.8,7.1L199,89.42a10.4,10.4,0,0,1-.2,3.13,10.27,10.27,0,0,1-9.93,7.9,11.41,11.41,0,0,1-1.16-.06l-.2,0,4.42,14.09L180.07,118c-.18.06-18.21,5.43-45.13,8.52-1.38,1.31-2.8,2.6-4.23,3.82h0c-.62.54-1.25,1.06-1.87,1.56l0,.05c-1.23,1-2.51,2-3.8,2.94l0,0c-.61.45-1.25.91-1.9,1.36l-.14.1c-.67.47-1.3.9-1.92,1.31l-.06,0c-1.28.85-2.61,1.69-3.94,2.49l-.22.13c-.63.37-1.26.74-1.9,1.1l-.27.15c-.69.39-1.33.74-2,1.07l-.13.07c-.59.32-1.24.65-1.92,1l-.2.1-2,1-.34.16-1.95.89-.31.14-2,.87-3.68,1.53Z"/><path class="cls-2" d="M195.54,62.49l2.89-7.72h0a1.87,1.87,0,0,0,.26-1.2l-1.57-12-.52-1.37a31,31,0,0,0-2.17-4.58l-2-29.72-4.06.7L187,6.8c0,3.43-1.17,7.94-6.89,9.85l2,2a14.87,14.87,0,0,1,4.37,8.11,28.52,28.52,0,0,0-4.81-2.84,36.22,36.22,0,0,0-15.24-3.25c-1.2,0-2.41.06-3.62.17a24.64,24.64,0,0,1-.1-10.88c.15-.71.31-1.37.5-2l1.24-4.29-6.22,2-.42.41c-9.54,9.64-8.92,17.71-8.88,18l0,.63a33.21,33.21,0,0,0-10.76,8.82L101,21.77l-.83-.26L62.69,33.3l-.09-.12-.25-.3a32.79,32.79,0,0,0-10.25-8.2l.06-.62c0-.34.66-8.41-8.89-18l-.41-.41-6.22-2,1.24,4.29c.19.66.35,1.32.5,2a24.79,24.79,0,0,1-.1,10.88c-1.21-.11-2.43-.17-3.63-.17A36.21,36.21,0,0,0,19.42,23.9a28.13,28.13,0,0,0-4.81,2.84A14.84,14.84,0,0,1,19,18.63l2.06-2c-5.66-1.91-6.83-6.39-6.82-9.8L8.73,5.88l-2,29.72a29.09,29.09,0,0,0-2.17,4.58L4,41.55l-1.57,12a1.81,1.81,0,0,0,.26,1.2h0l2.88,7.72L9,62l1.05,1.4L9.53,65.1a3.14,3.14,0,0,0-3,2.79L5.74,75,4.5,89.62a7.73,7.73,0,0,0,7.74,8.45,8,8,0,0,0,.87,0l3.06-.32L12.3,112.52l9.27,2.87a242.63,242.63,0,0,0,45.19,9.24l1.07,1,.11.1c1.69,1.57,3.45,3.1,5.24,4.54l.13.11c.59.47,1.18.94,1.75,1.37l.11.09c1.18.91,2.4,1.8,3.62,2.65l.16.11c.58.41,1.18.81,1.79,1.22L81,136c.66.44,1.26.83,1.86,1.2h0c.59.37,1.2.74,1.87,1.14l.16.1,1.83,1.06.3.16c.64.36,1.24.69,1.83,1l.22.12,1.82.94.15.08c.59.29,1.2.59,1.89.91l.34.17c.63.29,1.25.58,1.87.85l.32.14c.72.32,1.36.59,2,.84l2.75,1.14,2.76-1.15c.6-.24,1.23-.51,2-.85l.3-.13c.61-.27,1.25-.56,1.89-.87l.35-.16,1.89-.92.21-.11,1.89-1,.11-.05c.6-.32,1.22-.67,1.9-1l.26-.14,1.85-1.08.22-.13c1.3-.78,2.6-1.6,3.85-2.43l.06,0c.61-.4,1.22-.82,1.88-1.28l.13-.09c.64-.45,1.26-.9,1.85-1.33l0,0c1.25-.92,2.5-1.89,3.72-2.88l0,0,1.82-1.51,0,0c1.6-1.36,3.18-2.8,4.71-4.28,27.22-3.06,45.33-8.47,45.51-8.52l9.55-2.88-4.79-15.26L188,98c.3,0,.6,0,.89,0a7.73,7.73,0,0,0,7.75-8.45L195.38,75l-.79-7.06a3.15,3.15,0,0,0-3-2.79l-.53-1.71,1.06-1.4Z"/><path class="cls-2" d="M194.78,42.13,194.37,41a28.72,28.72,0,0,0-2.28-4.7h0l-.88-12.82-.8-11.6-.22-3.22h0l-1.46.25s-1.83,7.66-4.92,8A17.67,17.67,0,0,1,189,32.18a25.49,25.49,0,0,0-2.42-2.34,26.3,26.3,0,0,0-5.89-3.78,35,35,0,0,0-19.6-2.64,27,27,0,0,1-.69-14c.15-.73.33-1.46.55-2.2h0l-1.41.44c-8.87,9-8.21,16.15-8.21,16.15l1.39.3a2.49,2.49,0,0,1,.84-.57h0a3.41,3.41,0,0,1,1.73,1.16c-1,.31-2,.65-2.92,1a30.56,30.56,0,0,0-13.24,10.52L100.25,24.05h0l-.11,0L61.83,36.07,61.76,36l-.24-.31c-.08-.12-.17-.23-.26-.34L61,35c-.1-.11-.18-.22-.28-.34l-.23-.27a30.29,30.29,0,0,0-11.77-8.65c-1-.39-1.93-.73-2.92-1a3.39,3.39,0,0,1,1.72-1.16h0a2.61,2.61,0,0,1,.85.57l1.38-.3s.67-7.19-8.2-16.15l-1.41-.44h0c.22.74.39,1.47.55,2.2a27,27,0,0,1-.7,14,35,35,0,0,0-19.6,2.64,26,26,0,0,0-5.88,3.78,26.86,26.86,0,0,0-2.43,2.34,17.71,17.71,0,0,1,5.2-15.26c-3.1-.33-4.92-8-4.92-8l-1.46-.25h0l-.22,3.22-.8,11.6L9,36.32H9A28.72,28.72,0,0,0,6.75,41l-.42,1.11L4.82,53.67l0,0,1.7,4.56.6,1.59,2.92-.42,2.63,3.5-1.33,4.33-.29,1-1-.63a.77.77,0,0,0-1.16.57l-.79,7L8,76.71H8L7.62,81l-.07.84-.07.87-.26,3h0L7,88.61l-.1,1.21a5.32,5.32,0,0,0,6,5.82L19.35,95l-4.16,16,7.08,2.19a240.81,240.81,0,0,0,45.56,9.24h0c.54.52,1.08,1,1.64,1.55l.09.09c1.67,1.55,3.37,3,5.12,4.44l.13.1,1.7,1.34.11.08q1.74,1.35,3.54,2.59l.15.11c.58.4,1.16.8,1.75,1.18l.2.14,1.8,1.16h0c.6.38,1.21.75,1.82,1.11l.16.1c.59.35,1.19.7,1.78,1l.29.17,1.79,1,.21.11,1.8.92.13.07c.61.31,1.22.6,1.84.9l.34.15c.6.29,1.2.57,1.81.84l.32.14,1.92.82,1.83.76,0,0,1.79-.74h0c.66-.27,1.3-.55,2-.84l.3-.13,1.85-.85.34-.16c.62-.29,1.23-.59,1.84-.9l.2-.1q.93-.47,1.86-1l.09,0q.94-.5,1.86-1l.25-.14,1.82-1.05a1.37,1.37,0,0,1,.2-.13c1.27-.76,2.53-1.55,3.76-2.37l.06,0,1.83-1.24.13-.1,1.81-1.3,0,0c1.24-.91,2.46-1.86,3.66-2.83h0l1.78-1.48,0,0c1.78-1.52,3.5-3.1,5.18-4.75h0c27.3-3,45.64-8.46,45.89-8.53l7.24-2.18-5.15-16.42,1.65.18.93.09,4.89.51a5.41,5.41,0,0,0,5.89-4.16,5.13,5.13,0,0,0,.1-1.66l-.1-1.21-.24-2.88h0l-.24-2.8-.1-1.12-.09-1.16-.34-3.94h0L193,75.18l-.79-7a.76.76,0,0,0-1.15-.57l-1,.63-.3-1-1.33-4.33,2.64-3.5,2.92.42.59-1.59,1.71-4.56v0Z"/><path class="cls-3" d="M195.54,62.49l2.89-7.72h0a1.87,1.87,0,0,0,.26-1.2l-1.57-12-.52-1.37a31,31,0,0,0-2.17-4.58l-2-29.72-4.06.7L187,6.8c0,3.43-1.17,7.94-6.89,9.85l2,2a14.87,14.87,0,0,1,4.37,8.11,28.52,28.52,0,0,0-4.81-2.84,36.22,36.22,0,0,0-15.24-3.25c-1.2,0-2.41.06-3.62.17a24.64,24.64,0,0,1-.1-10.88c.15-.71.31-1.37.5-2l1.24-4.29-6.22,2-.42.41c-9.54,9.64-8.92,17.71-8.88,18l0,.63a33.21,33.21,0,0,0-10.76,8.82L101,21.77l-.83-.26L62.69,33.3l-.09-.12-.25-.3a32.79,32.79,0,0,0-10.25-8.2l.06-.62c0-.34.66-8.41-8.89-18l-.41-.41-6.22-2,1.24,4.29c.19.66.35,1.32.5,2a24.79,24.79,0,0,1-.1,10.88c-1.21-.11-2.43-.17-3.63-.17A36.21,36.21,0,0,0,19.42,23.9a28.13,28.13,0,0,0-4.81,2.84A14.84,14.84,0,0,1,19,18.63l2.06-2c-5.66-1.91-6.83-6.39-6.82-9.8L8.73,5.88l-2,29.72a29.09,29.09,0,0,0-2.17,4.58L4,41.55l-1.57,12a1.81,1.81,0,0,0,.26,1.2h0l2.88,7.72L9,62l1.05,1.4L9.53,65.1a3.14,3.14,0,0,0-3,2.79L5.74,75,4.5,89.62a7.73,7.73,0,0,0,7.74,8.45,8,8,0,0,0,.87,0l3.06-.32L12.3,112.52l9.27,2.87a242.63,242.63,0,0,0,45.19,9.24l1.07,1,.11.1c1.69,1.57,3.45,3.1,5.24,4.54l.13.11c.59.47,1.18.94,1.75,1.37l.11.09c1.18.91,2.4,1.8,3.62,2.65l.16.11c.58.41,1.18.81,1.79,1.22L81,136c.66.44,1.26.83,1.86,1.2h0c.59.37,1.2.74,1.87,1.14l.16.1,1.83,1.06.3.16c.64.36,1.24.69,1.83,1l.22.12,1.82.94.15.08c.59.29,1.2.59,1.89.91l.34.17c.63.29,1.25.58,1.87.85l.32.14c.72.32,1.36.59,2,.84l2.75,1.14,2.76-1.15c.6-.24,1.23-.51,2-.85l.3-.13c.61-.27,1.25-.56,1.89-.87l.35-.16,1.89-.92.21-.11,1.89-1,.11-.05c.6-.32,1.22-.67,1.9-1l.26-.14,1.85-1.08.22-.13c1.3-.78,2.6-1.6,3.85-2.43l.06,0c.61-.4,1.22-.82,1.88-1.28l.13-.09c.64-.45,1.26-.9,1.85-1.33l0,0c1.25-.92,2.5-1.89,3.72-2.88l0,0,1.82-1.51,0,0c1.6-1.36,3.18-2.8,4.71-4.28,27.22-3.06,45.33-8.47,45.51-8.52l9.55-2.88-4.79-15.26L188,98c.3,0,.6,0,.89,0a7.73,7.73,0,0,0,7.75-8.45L195.38,75l-.79-7.06a3.15,3.15,0,0,0-3-2.79l-.53-1.71,1.06-1.4Z"/><polygon class="cls-3" points="190.54 69.82 188.42 62.93 191.57 58.75 169.92 55.89 168.46 72.22 184.61 70.71 190.54 69.82"/><path class="cls-2" d="M194.24,89.82a5.13,5.13,0,0,1-.1,1.66,5.41,5.41,0,0,1-5.89,4.16l-10.18-1.06a11.26,11.26,0,0,1-5.37-2.1l-11.39-8.36,9.59-24c7.23.16,9.83,7.72,9.83,7.72l6,2a1.59,1.59,0,0,0,.75.05l3.89-.73,1.59,6Z"/><path class="cls-4" d="M193.13,76.71l.36,4.26a6.59,6.59,0,0,0-1.46.56Z"/><path class="cls-4" d="M193.9,85.73l.24,2.88c-1.92-.1-4.23,2.2-4.23,2.2l.9-3.94A5.73,5.73,0,0,1,193.9,85.73Z"/><path class="cls-4" d="M193.56,81.81l.26,3a6,6,0,0,0-2.78,1l.77-3.34A5.78,5.78,0,0,1,193.56,81.81Z"/><path class="cls-1" d="M185.72,62.62c-1.08-.55-4.43-2.09-6.72-1.2a.24.24,0,0,0,0,.43l5.47,3.66a.43.43,0,0,0,.57-.08,4.59,4.59,0,0,0,1-2.23A.57.57,0,0,0,185.72,62.62Z"/><path class="cls-4" d="M178,77.4l.38-1.78,2,.24L180,77.67Zm5.24,1.12-2.75-.36L180,81.05l3,.39ZM183,81.88l-3.06-.4-.45,3.24,3.35.44Zm-3.57,3.28-.54,3.9,3.74.49.19-4Zm4,.53-.1,4,2.83.38-.2-4Zm-4.69-.62-2.42-.32-.83,3.86,2.61.35Zm-.95-7.24-.61,2.85,2.23.29L180,78.1Zm1.55,3.58-2.25-.3-.68,3.21,2.4.32Zm3.8-3.32.09-1.86-2.55-.31-.25,1.81Zm.48.06,1.95.25-.09-1.89-1.82-.22Zm-.18,7.1,2.49.32-.16-3.32-2.25-.3Zm.09-3.74,2.21.29-.15-3-2-.26Z"/><polygon class="cls-4" points="176.01 72.89 176.77 72.26 186.22 74.31 185.49 74.91 176.01 72.89"/><line class="cls-4" x1="193.18" y1="77.31" x2="193" y2="75.18"/><path class="cls-4" d="M193,75.18l-1.27-3.42-3.34-.71L187,73.52c1.79-1.2,3.71.07,4.51,1.34Z"/><path class="cls-4" d="M176,72.89s2.55-4-1.18-10.81l.74-.61,3.93,7.33-2.74,3.46Z"/><path class="cls-5" d="M175.58,61.47c3.61,6.82,1.43,10.43,1.19,10.79,0,0,0,0,0,0l9.43,2a0,0,0,0,0,0,0c4.22-5,6.77.88,6.77.88l-.79-7a.76.76,0,0,0-1.15-.57l-3.33,2a1.48,1.48,0,0,1-1.26.15l-5-1.69a1.46,1.46,0,0,1-.9-.87A11.44,11.44,0,0,0,175.58,61.47Z"/><polygon class="cls-3" points="187.3 63.38 187.2 64.53 188.59 64.83 187.21 65.8 188.93 66.16 186.37 67.91 189.75 67.26 188.42 62.93 187.3 63.38"/><polygon class="cls-6" points="189.58 61.33 177.4 59.43 175.63 60.58 176.24 57.24 191.08 59.4 189.58 61.33"/><polygon class="cls-7" points="175.99 61.27 168.95 89.73 164.77 86.66 175.99 61.27"/><path class="cls-8" d="M196.29,53.67v0A37.19,37.19,0,0,1,177,47S190.74,50.31,194,48.3c0,0-5.66-1.11-8.68-3.35,0,0,6.52,1.26,8,0,0,0-10.34-2.31-14.72-5.65,0,0,11,2.91,16.18,2.8Z"/><polygon class="cls-2" points="104.79 83.46 108.19 82.59 165.53 84.91 104.79 83.46"/><polygon class="cls-2" points="114.18 73.29 117.74 72.33 170.13 74.84 114.18 73.29"/><polygon class="cls-2" points="122 64.88 125.76 64.19 172.99 68.23 122 64.88"/><polygon class="cls-2" points="129.14 56.28 131.91 55.52 175.99 61.27 129.14 56.28"/><polygon class="cls-4" points="104.79 83.46 165.53 84.91 160.11 97.45 97.98 93.8 104.79 83.46"/><polygon class="cls-4" points="160.11 97.45 159.42 99.03 96.79 95.61 97.98 93.8 160.11 97.45"/><polygon class="cls-4" points="166.1 83.66 165.53 84.91 108.19 82.59 109.16 81.09 166.1 83.66"/><polygon class="cls-4" points="114.18 73.29 170.13 74.84 166.1 83.66 109.16 81.09 114.18 73.29"/><polygon class="cls-4" points="122 64.88 172.99 68.23 170.47 74.06 118.44 71.11 122 64.88"/><polygon class="cls-4" points="170.47 74.06 170.13 74.84 117.74 72.33 118.44 71.11 170.47 74.06"/><polygon class="cls-4" points="173.4 67.28 172.99 68.23 125.76 64.19 126.18 63.21 173.4 67.28"/><polygon class="cls-4" points="160.11 97.45 159.42 99.03 96.79 95.61 97.98 93.8 160.11 97.45"/><polygon class="cls-4" points="166.1 83.66 165.53 84.91 108.19 82.59 109.16 81.09 166.1 83.66"/><polygon class="cls-4" points="170.47 74.06 170.13 74.84 117.74 72.33 118.44 71.11 170.47 74.06"/><polygon class="cls-4" points="173.4 67.28 172.99 68.23 125.76 64.19 126.18 63.21 173.4 67.28"/><polygon class="cls-4" points="129.14 56.28 175.99 61.27 173.4 67.28 126.18 63.21 129.14 56.28"/><polygon class="cls-9" points="160.11 97.45 159.42 99.03 96.79 95.61 97.98 93.8 160.11 97.45"/><polygon class="cls-9" points="166.1 83.66 165.53 84.91 108.19 82.59 109.16 81.09 166.1 83.66"/><polygon class="cls-9" points="170.47 74.06 170.13 74.84 117.74 72.33 118.44 71.11 170.47 74.06"/><polygon class="cls-10" points="160.11 97.45 159.42 99.03 96.79 95.61 97.98 93.8 160.11 97.45"/><polygon class="cls-10" points="166.1 83.66 165.53 84.91 108.19 82.59 109.16 81.09 166.1 83.66"/><polygon class="cls-10" points="170.47 74.06 170.13 74.84 117.74 72.33 118.44 71.11 170.47 74.06"/><polygon class="cls-10" points="173.4 67.28 172.99 68.23 125.76 64.19 126.18 63.21 173.4 67.28"/><path class="cls-11" d="M190.19,8.68l-1.46.25s-1.83,7.66-4.92,8l1.09.24,3.33.71Z"/><path class="cls-4" d="M196.29,53.67v0A37.19,37.19,0,0,1,177,47S190.74,50.31,194,48.3c0,0-5.66-1.11-8.68-3.35,0,0,6.52,1.26,8,0,0,0-10.34-2.31-14.72-5.65,0,0,11,2.91,16.18,2.8Z"/><polygon class="cls-4" points="176.51 58.41 175.99 61.27 131.91 55.52 132.64 52.11 176.51 58.41"/><polygon class="cls-10" points="132.85 51.09 176.71 57.34 176.51 58.41 132.64 52.11 132.85 51.09"/><polygon class="cls-10" points="175.99 61.27 156.62 98.88 159.42 99.03 175.99 61.27"/><path class="cls-3" d="M134.54,45c3.1-8.57,9.31-15.75,17.83-19.22,8.86-3.6,19.58-3.77,28.32.29a26.3,26.3,0,0,1,5.89,3.78A27.15,27.15,0,0,1,194.37,41l.41,1.11c-5.2.11-16.18-2.8-16.18-2.8C183,42.67,193.32,45,193.32,45c-1.44,1.23-8,0-8,0,3,2.24,8.68,3.35,8.68,3.35C190.74,50.31,177,47,177,47a37.19,37.19,0,0,0,19.31,6.71l-1.71,4.56-61.3-8.93C133.73,47.65,134.42,45.32,134.54,45Z"/><path class="cls-4" d="M194.57,58.26,194,59.85,176.7,57.34l-43.84-6.25a10,10,0,0,1,.41-1.76Z"/><path class="cls-12" d="M152.72,24.14l-1.39-.3s-.66-7.19,8.21-16.15L161,7.25l-3.72,10.11Z"/><path class="cls-12" d="M171.12,38.07l-1.31.11a23.53,23.53,0,0,1-4-1.89,9.64,9.64,0,0,1-.73-1.52A20.43,20.43,0,0,0,171.12,38.07Z"/><path class="cls-12" d="M153.56,23.57c1,.24,2.29,1.29,3.56,4.3,0,0,5.17,11.09,12.72,14.76l1.08-.16-4.84-4.17-5.81-10.21L155.45,22l-2,.95Z"/><path class="cls-13" d="M161,7.25c-.22.74-.4,1.47-.55,2.2-1.64,2.13-4.92,7-5.24,11.81,0,0,1.92-3.45,4.47,2.5.13.29.24.59.35.88a16.38,16.38,0,0,0,5.63,7.53,31.13,31.13,0,0,0,5.51,5.9,21,21,0,0,1-6-3.3c1.25,3.42,5.83,7.7,5.83,7.7-7.55-3.67-12.49-14.71-12.49-14.71-2.86-6.79-5.71-3.62-5.71-3.62C152.67,15.1,161,7.25,161,7.25Z"/><path class="cls-14" d="M160,24.64c-.11-.29-.22-.59-.35-.88-2.55-6-4.47-2.5-4.47-2.5.32-4.84,3.6-9.68,5.24-11.81a28.06,28.06,0,0,0,5.21,22.72A16.38,16.38,0,0,1,160,24.64Z"/><path class="cls-12" d="M188.75,37.32l-.85-.51s4.71-11.31-4.09-19.89l4.42.95,3,17.9-2.19.85Z"/><path class="cls-13" d="M184.9,17.16l.16.05Z"/><path class="cls-13" d="M185.06,17.21l-.16-.05c3.24-.26,5.29-8.48,5.29-8.48l.22,3.22C187.52,17.23,185.6,17.31,185.06,17.21Z"/><path class="cls-14" d="M185.06,17.21c.54.1,2.46,0,5.35-5.31l.8,11.6C189,18.79,185.8,17.46,185.06,17.21Z"/><path class="cls-13" d="M184.9,17.16l.16.05c.74.25,4,1.58,6.15,6.29l.88,12.82a3,3,0,0,0-3.34,1C192.83,23.49,184.9,17.16,184.9,17.16Z"/><polygon class="cls-3" points="10.58 69.82 12.69 62.93 9.55 58.75 31.19 55.89 32.66 72.22 16.51 70.71 10.58 69.82"/><path class="cls-2" d="M6.88,89.82a5.32,5.32,0,0,0,6,5.82l10.19-1.06a11.3,11.3,0,0,0,5.37-2.1l11.39-8.36-9.59-24c-7.23.16-9.83,7.72-9.83,7.72l-6,2a1.59,1.59,0,0,1-.75.05L9.71,69.2l-1.6,6Z"/><path class="cls-4" d="M8,76.71,7.62,81a6.48,6.48,0,0,1,1.47.56Z"/><path class="cls-4" d="M7.22,85.73,7,88.61c1.92-.1,4.22,2.2,4.22,2.2l-.89-3.94A5.73,5.73,0,0,0,7.22,85.73Z"/><path class="cls-4" d="M7.55,81.81l-.25,3a6,6,0,0,1,2.77,1l-.76-3.34A5.74,5.74,0,0,0,7.55,81.81Z"/><path class="cls-1" d="M15.4,62.62c1.08-.55,4.43-2.09,6.72-1.2a.25.25,0,0,1,0,.43l-5.47,3.66a.43.43,0,0,1-.57-.08,4.59,4.59,0,0,1-1-2.23A.57.57,0,0,1,15.4,62.62Z"/><path class="cls-4" d="M21.1,77.67l-.29-1.81,2-.24.38,1.78Zm-3,3.77,3-.39-.4-2.89-2.75.36Zm.18,3.72,3.34-.44-.45-3.24-3.05.4Zm0,.44.19,4,3.74-.49-.55-3.9ZM15.09,86l-.2,4,2.82-.38-.09-4ZM22.94,89l2.61-.35-.82-3.86-2.42.32ZM21.17,78.1,21.64,81l2.22-.29-.61-2.85Zm1.07,6.54,2.4-.32L24,81.11l-2.24.3Zm-1.62-6.91-.25-1.81-2.55.31.09,1.86Zm-3.24-1.44-1.81.22-.1,1.89,2-.25ZM17.52,82l-2.24.3-.17,3.32,2.49-.32Zm-.08-3.36-2,.26-.15,3,2.21-.29Z"/><polygon class="cls-4" points="25.1 72.89 24.34 72.26 14.9 74.31 15.62 74.91 25.1 72.89"/><line class="cls-4" x1="7.93" y1="77.31" x2="8.11" y2="75.18"/><path class="cls-4" d="M8.11,75.18l1.27-3.42,3.35-.71,1.43,2.47c-1.79-1.2-3.72.07-4.52,1.34Z"/><path class="cls-4" d="M25.1,72.89s-2.56-4,1.18-10.81l-.74-.61L21.61,68.8l2.73,3.46Z"/><path class="cls-5" d="M25.54,61.47c-3.61,6.82-1.43,10.43-1.2,10.79,0,0,0,0,0,0l-9.43,2a0,0,0,0,1,0,0c-4.22-5-6.78.88-6.78.88l.79-7a.77.77,0,0,1,1.16-.57l3.33,2a1.45,1.45,0,0,0,1.25.15l5-1.69a1.44,1.44,0,0,0,.9-.87A11.53,11.53,0,0,1,25.54,61.47Z"/><polygon class="cls-3" points="13.82 63.38 13.91 64.53 12.52 64.83 13.91 65.8 12.19 66.16 14.75 67.91 11.36 67.26 12.69 62.93 13.82 63.38"/><polygon class="cls-6" points="11.54 61.33 23.72 59.43 25.48 60.58 24.88 57.24 10.04 59.4 11.54 61.33"/><polygon class="cls-7" points="25.12 61.27 32.17 89.73 36.35 86.66 25.12 61.27"/><path class="cls-8" d="M4.82,53.67l0,0A37.25,37.25,0,0,0,24.15,47S10.38,50.31,7.08,48.3c0,0,5.66-1.11,8.68-3.35,0,0-6.52,1.26-8,0,0,0,10.34-2.31,14.73-5.65,0,0-11,2.91-16.19,2.8Z"/><polygon class="cls-2" points="96.33 83.46 92.93 82.59 35.59 84.91 96.33 83.46"/><polygon class="cls-2" points="86.94 73.29 83.38 72.33 30.99 74.84 86.94 73.29"/><polygon class="cls-2" points="79.12 64.88 75.36 64.19 28.13 68.23 79.12 64.88"/><polygon class="cls-2" points="71.97 56.28 69.2 55.52 25.12 61.27 71.97 56.28"/><polygon class="cls-4" points="96.33 83.46 35.59 84.91 41.01 97.45 103.14 93.8 96.33 83.46"/><polygon class="cls-4" points="41.01 97.45 41.7 99.03 104.33 95.61 103.14 93.8 41.01 97.45"/><polygon class="cls-4" points="35.02 83.66 35.59 84.91 92.93 82.59 91.96 81.09 35.02 83.66"/><polygon class="cls-4" points="86.94 73.29 30.99 74.84 35.02 83.66 91.96 81.09 86.94 73.29"/><polygon class="cls-4" points="79.12 64.88 28.13 68.23 30.65 74.06 82.68 71.11 79.12 64.88"/><polygon class="cls-4" points="30.65 74.06 30.99 74.84 83.38 72.33 82.68 71.11 30.65 74.06"/><polygon class="cls-4" points="27.72 67.28 28.13 68.23 75.36 64.19 74.94 63.21 27.72 67.28"/><polygon class="cls-4" points="41.01 97.45 41.7 99.03 104.33 95.61 103.14 93.8 41.01 97.45"/><polygon class="cls-4" points="35.02 83.66 35.59 84.91 92.93 82.59 91.96 81.09 35.02 83.66"/><polygon class="cls-4" points="30.65 74.06 30.99 74.84 83.38 72.33 82.68 71.11 30.65 74.06"/><polygon class="cls-4" points="27.72 67.28 28.13 68.23 75.36 64.19 74.94 63.21 27.72 67.28"/><polygon class="cls-4" points="71.97 56.28 25.12 61.27 27.72 67.28 74.94 63.21 71.97 56.28"/><polygon class="cls-9" points="41.01 97.45 41.7 99.03 104.33 95.61 103.14 93.8 41.01 97.45"/><polygon class="cls-9" points="35.02 83.66 35.59 84.91 92.93 82.59 91.96 81.09 35.02 83.66"/><polygon class="cls-9" points="30.65 74.06 30.99 74.84 83.38 72.33 82.68 71.11 30.65 74.06"/><polygon class="cls-10" points="41.01 97.45 41.7 99.03 104.33 95.61 103.14 93.8 41.01 97.45"/><polygon class="cls-10" points="35.02 83.66 35.59 84.91 92.93 82.59 91.96 81.09 35.02 83.66"/><polygon class="cls-10" points="30.65 74.06 30.99 74.84 83.38 72.33 82.68 71.11 30.65 74.06"/><polygon class="cls-10" points="27.72 67.28 28.13 68.23 75.36 64.19 74.94 63.21 27.72 67.28"/><path class="cls-11" d="M10.93,8.68l1.46.25s1.82,7.66,4.92,8l-1.1.24-3.32.71Z"/><path class="cls-4" d="M4.82,53.67l0,0A37.25,37.25,0,0,0,24.15,47S10.38,50.31,7.08,48.3c0,0,5.66-1.11,8.68-3.35,0,0-6.52,1.26-8,0,0,0,10.34-2.31,14.73-5.65,0,0-11,2.91-16.19,2.8Z"/><polygon class="cls-4" points="24.61 58.41 25.12 61.27 69.2 55.52 68.48 52.11 24.61 58.41"/><polygon class="cls-10" points="68.26 51.09 24.41 57.34 24.61 58.41 68.48 52.11 68.26 51.09"/><polygon class="cls-10" points="25.12 61.27 44.5 98.88 41.7 99.03 25.12 61.27"/><path class="cls-3" d="M66.58,45c-3.11-8.57-9.32-15.75-17.83-19.22-8.86-3.6-19.59-3.77-28.33.29a26,26,0,0,0-5.88,3.78A27.15,27.15,0,0,0,6.75,41l-.42,1.11c5.21.11,16.19-2.8,16.19-2.8C18.13,42.67,7.79,45,7.79,45c1.45,1.23,8,0,8,0-3,2.24-8.68,3.35-8.68,3.35,3.3,2,17.07-1.31,17.07-1.31A37.25,37.25,0,0,1,4.84,53.7l1.7,4.56,61.3-8.93C67.38,47.65,66.69,45.32,66.58,45Z"/><path class="cls-4" d="M6.54,58.26l.6,1.59,17.27-2.51,43.85-6.25a10.69,10.69,0,0,0-.42-1.76Z"/><path class="cls-12" d="M48.4,24.14l1.38-.3s.67-7.19-8.2-16.15l-1.41-.44,3.72,10.11Z"/><path class="cls-12" d="M30,38.07l1.32.11a23.91,23.91,0,0,0,4-1.89A9.11,9.11,0,0,0,36,34.77,20.43,20.43,0,0,1,30,38.07Z"/><path class="cls-12" d="M47.55,23.57c-1,.24-2.28,1.29-3.55,4.3,0,0-5.17,11.09-12.72,14.76l-1.09-.16L35,38.3l5.81-10.21L45.67,22l2,.95Z"/><path class="cls-13" d="M40.17,7.25c.22.74.39,1.47.55,2.2,1.64,2.13,4.92,7,5.24,11.81,0,0-1.93-3.45-4.47,2.5-.13.29-.24.59-.35.88a16.38,16.38,0,0,1-5.63,7.53A31,31,0,0,1,30,38.07a21,21,0,0,0,6-3.3c-1.25,3.42-5.83,7.7-5.83,7.7,7.56-3.67,12.49-14.71,12.49-14.71,2.87-6.79,5.72-3.62,5.72-3.62C48.45,15.1,40.17,7.25,40.17,7.25Z"/><path class="cls-14" d="M41.14,24.64c.11-.29.22-.59.35-.88,2.54-6,4.47-2.5,4.47-2.5-.32-4.84-3.6-9.68-5.24-11.81a28.06,28.06,0,0,1-5.21,22.72A16.38,16.38,0,0,0,41.14,24.64Z"/><path class="cls-12" d="M12.37,37.32l.85-.51S8.51,25.5,17.31,16.92l-4.42.95-3,17.9,2.19.85Z"/><path class="cls-13" d="M16.21,17.16l-.15.05Z"/><path class="cls-13" d="M16.06,17.21l.15-.05C13,16.9,10.93,8.68,10.93,8.68l-.22,3.22C13.59,17.23,15.52,17.31,16.06,17.21Z"/><path class="cls-14" d="M16.06,17.21c-.54.1-2.47,0-5.35-5.31l-.8,11.6C12.08,18.79,15.31,17.46,16.06,17.21Z"/><path class="cls-13" d="M16.21,17.16l-.15.05c-.75.25-4,1.58-6.15,6.29L9,36.32a3,3,0,0,1,3.34,1C8.29,23.49,16.21,17.16,16.21,17.16Z"/><path class="cls-15" d="M178.6,80l-10.7,3.45c-2.57.81-5.21,1.57-7.89,2.27a138.43,138.43,0,0,0,10.38-36l.66-5.87-30.34-9.55A34.86,34.86,0,0,0,134.54,45c-.12.33-.81,2.66-1.27,4.34a10,10,0,0,0-.41,1.76l-.22,1-.73,3.41-2.77.76-3,6.93-.42,1-3.76.69-3.56,6.23-.7,1.22-3.56,1-5,7.8-1,1.5-3.4.87h0l-4.23,6.43-4.24-6.43-3.39-.87-1-1.5-5-7.8-3.56-1L36,74.6l47.38-2.27-.7-1.22-3.56-6.23-3.76-.69-.42-1-3-6.93-2.76-.76-.73-3.41-.22-1a10.69,10.69,0,0,0-.42-1.76c-.46-1.68-1.15-4-1.26-4.34a34.88,34.88,0,0,0-6.35-10.92l-31,9.77.67,5.87A138.11,138.11,0,0,0,40,85.13c-5.8-1.28-9.17-2.23-9.21-2.24L20.79,80l-4,15.22,6.24-.65a11.3,11.3,0,0,0,5.37-2.1l3.75-2.75,4.11-3L41.69,99l2.81-.16,56.06-3.06,56.06,3.06,2.8.16,5.41-12.33,7.87,5.77a11.26,11.26,0,0,0,5.37,2.1l5.29.55Z"/><path class="cls-3" d="M100.09,25.66,35.69,47.89s1,25.83,10.77,42.3L23.38,85.92l-6.44,23.31s40.68,11.51,47,11c0,0,4.5-.26,10.47,6.06,0,0,19.12,14.46,25.69,14.79,0,0,23.36-11.27,29.5-19,0,0,2.5-2.4,9-2.81,0,0,37.36-4.93,44.94-9.64l-7.79-23.68S156.89,90.76,153,91.17c0,0,12.09-23.5,13.29-44.51Z"/><path class="cls-16" d="M37,48.78s7.53,66.09,63.14,89.17c55.61-23.08,63.14-89.17,63.14-89.17L100.13,28.9Z"/><path class="cls-16" d="M100.17,138l0,0,0,0Z"/><path id="Group_1430" data-name="Group 1430" class="cls-1" d="M68,63.39c-.28.28-.56.58-.83.88a5.26,5.26,0,0,0-.62.79,2.21,2.21,0,0,0-.34.73c0,1.95,0,3.88,0,5.83a5.82,5.82,0,0,1-.54,2.43,8.35,8.35,0,0,1-1.46,2.2A9.6,9.6,0,0,1,62,78a9,9,0,0,1-2.63,1.12l-1.27.33a7.81,7.81,0,0,1-2.63.27,5.15,5.15,0,0,1-2.13-.66,4.19,4.19,0,0,1-1.43-1.44,4.35,4.35,0,0,1-.51-2.15c0-1.92,0-3.84.05-5.77a1.08,1.08,0,0,0-.3-.58,2.29,2.29,0,0,0-.58-.49,6.3,6.3,0,0,0-.84-.48,8.07,8.07,0,0,0,1-1.23,4.83,4.83,0,0,0,.53-.94,3,3,0,0,0,.19-.84c0-2.89,0-5.8.06-8.7V56a1.23,1.23,0,0,0-.2-.72,2.34,2.34,0,0,0-.46-.53,2.92,2.92,0,0,0-.63-.48c2.33-.75,4.68-1.46,7-2.1a7.07,7.07,0,0,0-.67.86,5,5,0,0,0-.47.81,1.91,1.91,0,0,0-.21.81c0,3.07-.05,6.15-.07,9.22,0,.05,0,.15,0,.32a1.83,1.83,0,0,0,.21.53,2.57,2.57,0,0,0,.5.59,2.72,2.72,0,0,0,1,.5,10.3,10.3,0,0,0-.81.94,7.08,7.08,0,0,0-.61.83,2.34,2.34,0,0,0-.33.74c0,2,0,3.89,0,5.84a1.34,1.34,0,0,0,.67,1.26,2.08,2.08,0,0,0,1.62.14l1.28-.33a3.07,3.07,0,0,0,1.65-1,2.43,2.43,0,0,0,.68-1.62c0-1.91,0-3.83,0-5.77a1.45,1.45,0,0,0-.3-.61,2.14,2.14,0,0,0-.59-.53q-.4-.28-.84-.54a6.61,6.61,0,0,0,1-1.14,5.59,5.59,0,0,0,.54-.91,2.33,2.33,0,0,0,.18-.83c0-3.06,0-6.13.05-9.19a1.14,1.14,0,0,0-.21-.64,2.61,2.61,0,0,0-.46-.58c-.2-.2-.42-.38-.63-.56,2.36-.6,4.74-1.14,7.12-1.64a4.41,4.41,0,0,0-.69.86,6.78,6.78,0,0,0-.48.88,2.22,2.22,0,0,0-.22.92c0,3,0,6,0,9,0,0,0,.15,0,.32a1.78,1.78,0,0,0,.21.54,2.43,2.43,0,0,0,.52.63A2.31,2.31,0,0,0,68,63.39Zm12.32,7.75a8.94,8.94,0,0,0,2-1.37,5.73,5.73,0,0,0,.56-.54c-.51,1.91-1,3.85-1.54,5.78-4.08.5-8.16,1.13-12.21,1.92a10.41,10.41,0,0,0,.69-1,8.74,8.74,0,0,0,.48-1,2.49,2.49,0,0,0,.22-1v-.09c0-3,0-6,0-8.92a1.31,1.31,0,0,0-.3-.6,3.08,3.08,0,0,0-.59-.55,9.14,9.14,0,0,0-.86-.57,6.09,6.09,0,0,0,1-1,4.83,4.83,0,0,0,.55-.86,2.12,2.12,0,0,0,.2-.6,2.17,2.17,0,0,0,0-.26c0-3,0-6,0-9a2.1,2.1,0,0,0-.22-1,2.7,2.7,0,0,0-.46-.66,2.93,2.93,0,0,0-.65-.51c2.4-.46,4.8-.88,7.19-1.24a3.13,3.13,0,0,0-1,1.21,3.07,3.07,0,0,0-.34,1.25c0,3,0,6.07,0,9.11,0,.1,0,.2,0,.3a1.91,1.91,0,0,0,.22.53,3,3,0,0,0,.51.66,3.64,3.64,0,0,0,1,.66c-.3.3-.56.58-.82.88a4.54,4.54,0,0,0-.63.76,1.85,1.85,0,0,0-.33.71c0,2.65,0,5.29,0,7.94,1.36-.22,2.72-.42,4.07-.6A4.13,4.13,0,0,0,80.28,71.14ZM99.8,52a12.26,12.26,0,0,0-1.25-1,9.08,9.08,0,0,0-1.2-.72A2.22,2.22,0,0,0,96.2,50c-1.06,0-2.12,0-3.18.08v7.67c0,.1,0,.2,0,.3a3.73,3.73,0,0,0,.2.56,2.49,2.49,0,0,0,.53.71,5.87,5.87,0,0,0,1,.78,11.15,11.15,0,0,0-.87.78,4.43,4.43,0,0,0-.61.69,1.62,1.62,0,0,0-.32.69c0,3.21,0,6.42,0,9.64a1.34,1.34,0,0,0,.22.7,4.28,4.28,0,0,0,.48.64,3.1,3.1,0,0,0,.74.66q-3.69.1-7.37.38a5.57,5.57,0,0,0,.69-.76,4.72,4.72,0,0,0,.48-.69,1.39,1.39,0,0,0,.22-.74c0-3.2,0-6.37,0-9.56a1.78,1.78,0,0,0-.29-.66,4,4,0,0,0-.61-.63,9.52,9.52,0,0,0-.88-.69,5.92,5.92,0,0,0,1-.91,4.37,4.37,0,0,0,.55-.8,1.9,1.9,0,0,0,.2-.58,2.17,2.17,0,0,0,0-.26c0-2.56,0-5.13,0-7.67-1,.07-2,.13-3,.21a3,3,0,0,0-1.16.42,7.28,7.28,0,0,0-1.16.84,13.52,13.52,0,0,0-1.25,1.14c.41-2,.83-3.91,1.22-5.88q7.72-.75,15.44-.78C99,48.2,99.4,50.12,99.8,52Zm7,20.42a3.6,3.6,0,0,0,.46.81,3.51,3.51,0,0,0,.7.74c-2.42-.13-4.85-.19-7.26-.21.23-.24.45-.49.66-.74a6,6,0,0,0,.48-.75,1.83,1.83,0,0,0,.21-.89V62.15a1.57,1.57,0,0,0-.29-.66,3.88,3.88,0,0,0-.62-.66,8.93,8.93,0,0,0-.87-.76,5.08,5.08,0,0,0,1-.83,3.31,3.31,0,0,0,.55-.74,2,2,0,0,0,.2-.56,2.44,2.44,0,0,0,0-.27V48.59a1.67,1.67,0,0,0-.21-.82,5.41,5.41,0,0,0-.48-.76,4.8,4.8,0,0,0-.66-.76c2.41,0,4.81.1,7.22.21a2.68,2.68,0,0,0-.69.61,2.92,2.92,0,0,0-.46.7,1.84,1.84,0,0,0-.2.89c0,3,0,6.1,0,9.14a2.46,2.46,0,0,0,0,.28,1.78,1.78,0,0,0,.2.56,3.61,3.61,0,0,0,.54.78,5.78,5.78,0,0,0,1,.88,10.11,10.11,0,0,0-.88.71,3.32,3.32,0,0,0-.61.63,1.27,1.27,0,0,0-.3.64c0,3.06,0,6.12,0,9.18A2.4,2.4,0,0,0,106.78,72.45Zm23.71,1.89a2.41,2.41,0,0,0,.19,1,4.47,4.47,0,0,0,.47.86,6,6,0,0,0,.69.9c-2.35-.47-4.69-.88-7-1.26.23-.21.45-.43.64-.64a4.51,4.51,0,0,0,.48-.6,1.15,1.15,0,0,0,.22-.65q0-7.94-.07-15.88c-1.68,4.77-3.39,9.57-5.09,14.41q-2.58-7.91-5.17-15.72l0,15.42a2.47,2.47,0,0,0,.21,1,6.3,6.3,0,0,0,.48.84,4.28,4.28,0,0,0,.7.83c-2.38-.26-4.76-.46-7.14-.63a6.5,6.5,0,0,0,.69-.86,6.63,6.63,0,0,0,.48-.81,1.56,1.56,0,0,0,.21-.79c0-3,0-6.1,0-9.14a1.58,1.58,0,0,0-.32-.68,5,5,0,0,0-.61-.7c-.28-.28-.57-.55-.88-.81a4.22,4.22,0,0,0,1-.76,3.41,3.41,0,0,0,.54-.71,1.54,1.54,0,0,0,.2-.54,2.45,2.45,0,0,0,0-.27c0-3.09,0-6.2,0-9.29a1.43,1.43,0,0,0-.21-.69,4.91,4.91,0,0,0-.48-.71,5.05,5.05,0,0,0-.7-.76q4.17.27,8.34.76a2.85,2.85,0,0,0-.7.59,3,3,0,0,0-.43.63,1,1,0,0,0,0,.79q1.88,5.73,3.77,11.48,1.83-5.23,3.63-10.43a1.56,1.56,0,0,0-.06-.83,2.93,2.93,0,0,0-.41-.76,6.15,6.15,0,0,0-.7-.83c2.76.42,5.52.89,8.27,1.44a3.52,3.52,0,0,0-1.13,1.41,1.89,1.89,0,0,0-.18.94q0,4.38,0,8.78a2.46,2.46,0,0,0,0,.26,2.12,2.12,0,0,0,.2.6,5.16,5.16,0,0,0,.54.86,7,7,0,0,0,1,1,10,10,0,0,0-.86.58,2.21,2.21,0,0,0-.59.55,1.33,1.33,0,0,0-.3.59C130.45,68.17,130.47,71.24,130.49,74.34Zm20.12-6.15a7.12,7.12,0,0,0-.85.48,1.87,1.87,0,0,0-.57.48,1.1,1.1,0,0,0-.3.56c0,2,0,3.88.05,5.83a4.25,4.25,0,0,1-.52,2.15A3.86,3.86,0,0,1,147,79.15a5.06,5.06,0,0,1-2.14.67,7.21,7.21,0,0,1-2.61-.24l-1.27-.3a9.33,9.33,0,0,1-2.63-1.14,12.07,12.07,0,0,1-2.17-1.8,8.38,8.38,0,0,1-1.48-2.24,5.88,5.88,0,0,1-.55-2.44c0-2,0-3.89,0-5.84a3.49,3.49,0,0,0-.35-.73,5.74,5.74,0,0,0-.61-.79c-.27-.3-.53-.61-.83-.92a3.38,3.38,0,0,0,1-.62,2.55,2.55,0,0,0,.52-.61,1.62,1.62,0,0,0,.21-.51,1.12,1.12,0,0,0,0-.32c0-1.9,0-3.78,0-5.68a4.32,4.32,0,0,1,2-3.77,5.25,5.25,0,0,1,2.15-.8,6.8,6.8,0,0,1,2.62.18l1.32.35a8.69,8.69,0,0,1,2.61,1.19,10.44,10.44,0,0,1,2.12,1.92A9.3,9.3,0,0,1,148.29,57a6.26,6.26,0,0,1,.55,2.48c0,1.9,0,3.79,0,5.69a1.67,1.67,0,0,0,.05.31,3.33,3.33,0,0,0,.21.63,4.93,4.93,0,0,0,.52.89A4.74,4.74,0,0,0,150.61,68.19Zm-8.42,7.47a1.7,1.7,0,0,0,1.64-.28,1.67,1.67,0,0,0,.64-1.38c0-1.9,0-3.78,0-5.68a2.86,2.86,0,0,0-.35-.75,5.77,5.77,0,0,0-.59-.81l-.81-.94a4,4,0,0,0,1-.53,2.67,2.67,0,0,0,.53-.58,1.89,1.89,0,0,0,.21-.51,1,1,0,0,0,0-.3c0-1.82,0-3.63,0-5.45a3,3,0,0,0-.69-1.76,3.12,3.12,0,0,0-1.62-1.17l-1.33-.35a1.79,1.79,0,0,0-2.23,1.17,1.7,1.7,0,0,0-.08.55c0,1.82,0,3.64,0,5.46,0,.1,0,.21.05.31a2.61,2.61,0,0,0,.22.61,4.34,4.34,0,0,0,.51.86,6.62,6.62,0,0,0,1,1.06c-.28.18-.54.37-.81.55a3,3,0,0,0-.61.51,1,1,0,0,0-.32.58c0,1.87,0,3.74,0,5.6a3.06,3.06,0,0,0,.67,1.76,3,3,0,0,0,1.66,1.17Z"/><path id="Group_1431" data-name="Group 1431" class="cls-1" d="M80.72,87.13s0,.07,0,.1a.25.25,0,0,0,0,.17.44.44,0,0,0,.1.19.61.61,0,0,0,.26.19l-.41.31-.32.3a1.27,1.27,0,0,0-.2.31c-.29.85-.61,1.67-.92,2.52a.53.53,0,0,0,0,.28.68.68,0,0,0,.07.2.36.36,0,0,0,.15.15h0c-.68.16-1.35.33-2,.51l0,0a.4.4,0,0,1,.1-.12,1.67,1.67,0,0,0,.25-.41.74.74,0,0,0,0-.25V88.3c-.45,1.21-.91,2.42-1.37,3.62a.56.56,0,0,0,0,.25.52.52,0,0,0,0,.18.24.24,0,0,0,.07.12l.06.07h0c-.68.18-1.34.38-2,.58h0a2.85,2.85,0,0,0,.23-.26c.05-.09.1-.17.15-.27a1.29,1.29,0,0,0,.08-.28L75,90a.3.3,0,0,0-.09-.25l-.19-.16a1.94,1.94,0,0,0-.3-.13,2.52,2.52,0,0,0,.4-.4l.18-.28a.86.86,0,0,0,.06-.23c0-.78.07-1.57.1-2.37a.37.37,0,0,0-.05-.23.33.33,0,0,0-.11-.15l-.17-.11c.61-.2,1.21-.38,1.82-.56a1.88,1.88,0,0,0-.18.24,1.41,1.41,0,0,0-.13.24.59.59,0,0,0,0,.23c0,1.3-.1,2.61-.14,3.92.55-1.41,1.08-2.83,1.61-4.24,0,0,0,0,0,0a0,0,0,0,1,0,0,.43.43,0,0,0,0-.25.57.57,0,0,0-.12-.18,1,1,0,0,0-.2-.15l.24-.07c.52-.15,1-.29,1.6-.43a.86.86,0,0,0,.23-.06,3.7,3.7,0,0,0-.28.28,1.64,1.64,0,0,0-.2.26.55.55,0,0,0-.1.25v0c0,1.27,0,2.56,0,3.83.52-1.43,1-2.86,1.53-4.29a.67.67,0,0,0,0-.24.41.41,0,0,0,0-.18.4.4,0,0,0-.1-.18c.61-.15,1.22-.3,1.85-.43a2.73,2.73,0,0,0-.25.23c-.07.08-.14.15-.2.23a1.32,1.32,0,0,0-.15.29C81.34,85.4,81,86.27,80.72,87.13Zm5.79,3.34a1.86,1.86,0,0,0,.23-.26,1.17,1.17,0,0,0,.15-.27.64.64,0,0,0,.07-.28c0-.1,0-.2,0-.29s0-.19,0-.27,0-.18,0-.26l-1.62.24c-.09.3-.17.58-.25.88a.36.36,0,0,0,0,.25,1,1,0,0,0,.1.21,1.77,1.77,0,0,0,.16.22l-2,.35a2.09,2.09,0,0,0,.2-.22l.15-.2a.52.52,0,0,0,.1-.18l.74-2.58a.34.34,0,0,0,0-.28l-.12-.23a1.81,1.81,0,0,0-.18-.21,2.55,2.55,0,0,0,.41-.3,2.83,2.83,0,0,0,.24-.25.71.71,0,0,0,.11-.25c.22-.74.38-1.34.51-1.8l.23-.74a.33.33,0,0,0,0-.24l-.09-.19a1.07,1.07,0,0,1-.15-.22c.94-.16,1.88-.31,2.84-.45a2.47,2.47,0,0,0-.21.27,2.75,2.75,0,0,0-.15.25.23.23,0,0,0,0,.21c0,.81.08,1.62.13,2.43a1,1,0,0,0,.11.3.61.61,0,0,0,.17.15.77.77,0,0,0,.3.11,1.6,1.6,0,0,0-.25.27,1.7,1.7,0,0,0-.18.26.46.46,0,0,0-.07.3c0,.27,0,.53,0,.81s0,.53.05.76,0,.43,0,.58a2.46,2.46,0,0,1,0,.26.62.62,0,0,0,.07.19,1.4,1.4,0,0,0,.1.16,1.24,1.24,0,0,0,.14.18C87.87,90.29,87.19,90.37,86.51,90.47Zm.35-2.64c-.07-1.24-.12-2.5-.17-3.74C86.34,85.4,86,86.7,85.6,88l1.26-.2Zm7.24,1.88.08,0,.12-.11a1.86,1.86,0,0,0,.1-.2.53.53,0,0,0,0-.28c-.21-.62-.41-1.21-.61-1.82l-.66,0c0,.61-.07,1.24-.1,1.85a.46.46,0,0,0,0,.2,1.06,1.06,0,0,0,.12.2,1.68,1.68,0,0,0,.18.21l-2,.15c.07-.08.14-.15.2-.23l.15-.2a.4.4,0,0,0,.07-.18c.06-.88.11-1.77.18-2.65a.45.45,0,0,0-.07-.18.75.75,0,0,0-.15-.16,1.06,1.06,0,0,0-.23-.19,1.76,1.76,0,0,0,.3-.24,1.07,1.07,0,0,0,.15-.22A.52.52,0,0,0,92,85.5a.29.29,0,0,0,0-.09c0-.81.12-1.62.17-2.43a.59.59,0,0,0,0-.23.72.72,0,0,0-.12-.21l-.15-.24c.78-.06,1.54-.13,2.32-.16a1.57,1.57,0,0,1,.71.1,1.69,1.69,0,0,1,.56.33,2,2,0,0,1,.38.49,1.4,1.4,0,0,1,.13.63c0,.61,0,1.21,0,1.82a1.39,1.39,0,0,1-.26.81,2.09,2.09,0,0,1-.68.61c.13.38.26.73.38,1s.26.69.38,1a.7.7,0,0,0,.17.25l.19.18a1.75,1.75,0,0,0,.25.16C95.6,89.64,94.86,89.68,94.1,89.71ZM94,86.17a.61.61,0,0,0,.46-.2.47.47,0,0,0,.2-.39c0-.61,0-1.21.07-1.82a.48.48,0,0,0-.17-.4.58.58,0,0,0-.44-.13l-.81,0c0,1-.1,2-.17,2.94l.86,0Zm7.82,3.47a.1.1,0,0,0,.08,0l.12-.11a.48.48,0,0,0,.08-.18.53.53,0,0,0,0-.28c-.25-.63-.52-1.26-.76-1.89h-.66c0,.61,0,1.24,0,1.85a.36.36,0,0,0,.06.2c0,.07.09.14.14.21s.13.15.2.23c-.68,0-1.36,0-2,0a1,1,0,0,0,.18-.22.8.8,0,0,0,.13-.19.36.36,0,0,0,.07-.17c0-.88,0-1.75,0-2.63a.48.48,0,0,0-.08-.18.69.69,0,0,0-.16-.18L99,85.79a1.86,1.86,0,0,0,.28-.21,1,1,0,0,0,.15-.2l.06-.15s0,0,0-.08c0-.81,0-1.62,0-2.43a.38.38,0,0,0-.06-.23,1.59,1.59,0,0,0-.13-.22,2.11,2.11,0,0,0-.19-.23c.78,0,1.56,0,2.32,0a2.22,2.22,0,0,1,.71.16,2.65,2.65,0,0,1,.6.38,1.84,1.84,0,0,1,.59,1.2c0,.61,0,1.2.09,1.81a1.25,1.25,0,0,1-.22.8,1.57,1.57,0,0,1-.63.54c.17.4.32.75.46,1.06s.32.71.47,1.08a.87.87,0,0,0,.18.26l.21.22c.09.06.17.13.27.19C103.36,89.71,102.6,89.68,101.85,89.64Zm-.35-3.57a.73.73,0,0,0,.47-.15.42.42,0,0,0,.16-.38c0-.61,0-1.2-.06-1.81a.55.55,0,0,0-.2-.42.78.78,0,0,0-.47-.18c-.26,0-.52,0-.81,0,0,1,0,2,0,3Zm7,3.67a1.53,1.53,0,0,0,.15.23.88.88,0,0,0,.21.22c-.67-.08-1.37-.17-2-.23a1,1,0,0,0,.17-.18.82.82,0,0,0,.12-.2.53.53,0,0,0,0-.25c-.06-.84-.13-1.7-.19-2.55a1.14,1.14,0,0,0-.1-.19l-.18-.2-.25-.23.26-.2a.63.63,0,0,0,.13-.2.28.28,0,0,0,0-.15v-.07c-.07-.82-.14-1.67-.2-2.49a.52.52,0,0,0-.08-.23l-.15-.22-.18-.23c.64.07,1.27.13,1.9.21a.83.83,0,0,0-.17.15,1.62,1.62,0,0,0-.1.18.54.54,0,0,0,0,.25c.08.84.15,1.69.23,2.53a.29.29,0,0,0,0,.09.35.35,0,0,0,.06.14,2.07,2.07,0,0,0,.17.24c.08.08.18.16.3.26l-.22.18a.5.5,0,0,0-.15.17.23.23,0,0,0-.06.16c.08.84.16,1.69.23,2.53A.83.83,0,0,0,108.53,89.74Zm7.69-2a.55.55,0,0,0-.2.17.64.64,0,0,0-.13.15.3.3,0,0,0,0,.16c.08.55.18,1.09.26,1.64a1.16,1.16,0,0,1,0,.61,1,1,0,0,1-.33.45,1.26,1.26,0,0,1-.56.23,4,4,0,0,1-1.09-.08,3.17,3.17,0,0,1-.78-.28,3.43,3.43,0,0,1-.66-.47,2.53,2.53,0,0,1-.49-.59,1.68,1.68,0,0,1-.24-.68c-.06-.55-.13-1.08-.19-1.62a.82.82,0,0,0-.12-.2l-.18-.22-.25-.24a.58.58,0,0,0,.25-.19.42.42,0,0,0,.11-.18.54.54,0,0,0,0-.15v-.08c-.07-.53-.13-1.06-.2-1.57a1.15,1.15,0,0,1,.07-.61,1,1,0,0,1,.33-.46,1.3,1.3,0,0,1,.52-.27,1.56,1.56,0,0,1,.68,0l.35.07a2.65,2.65,0,0,1,.73.26,3.28,3.28,0,0,1,.63.48,4,4,0,0,1,.48.61,1.85,1.85,0,0,1,.24.68l.27,1.59a.19.19,0,0,0,0,.08,1.3,1.3,0,0,0,.08.17,2.11,2.11,0,0,0,.19.23A.65.65,0,0,0,116.22,87.74Zm-2,2.28a.46.46,0,0,0,.44-.11.43.43,0,0,0,.12-.4l-.25-1.59a.56.56,0,0,0-.11-.2,2,2,0,0,0-.2-.21l-.25-.25.25-.16a.52.52,0,0,0,.11-.19.57.57,0,0,0,0-.14v-.09c-.09-.51-.15-1-.24-1.52a1,1,0,0,0-.24-.48.83.83,0,0,0-.48-.29l-.37-.07a.4.4,0,0,0-.41.11.49.49,0,0,0-.12.4c.07.51.14,1,.22,1.52,0,0,0,.06,0,.09a.4.4,0,0,0,.08.16,1.88,1.88,0,0,0,.16.23,3.84,3.84,0,0,0,.3.28l-.2.17-.15.15a.23.23,0,0,0-.06.16c.06.51.15,1,.21,1.56a.93.93,0,0,0,.25.48.88.88,0,0,0,.5.29,1.26,1.26,0,0,0,.38.1Zm8,3,.07,0a.6.6,0,0,0,.08-.08.58.58,0,0,0,0-.17,1,1,0,0,0-.07-.29c-.36-.72-.73-1.41-1.09-2.12-.21-.07-.43-.12-.64-.18l.39,1.9a.68.68,0,0,0,.1.21c0,.09.12.17.17.25a1.31,1.31,0,0,0,.24.28l-2-.54a.85.85,0,0,0,.14-.19.83.83,0,0,0,.09-.16.33.33,0,0,0,0-.17c-.18-.9-.37-1.8-.53-2.71a.88.88,0,0,0-.12-.21c-.06-.08-.13-.15-.2-.23a3.63,3.63,0,0,0-.28-.27.63.63,0,0,0,.24-.16.56.56,0,0,0,.09-.17.83.83,0,0,0,0-.15v-.08c-.17-.83-.33-1.67-.5-2.5a.72.72,0,0,0-.1-.24c0-.1-.11-.19-.16-.27a3,3,0,0,0-.22-.28c.76.2,1.5.4,2.26.63a2.36,2.36,0,0,1,.72.33,3.63,3.63,0,0,1,1.15,1.19,2.34,2.34,0,0,1,.3.71c.15.63.3,1.26.43,1.88a1.2,1.2,0,0,1,0,.77.87.87,0,0,1-.49.41l.64,1.21c.21.41.43.81.66,1.22a1.39,1.39,0,0,0,.23.31l.25.27.28.26C123.72,93.43,123,93.2,122.27,93Zm-1-3.73a.48.48,0,0,0,.42,0,.29.29,0,0,0,.08-.34c-.13-.63-.28-1.26-.41-1.89a1.08,1.08,0,0,0-.27-.46,1.09,1.09,0,0,0-.48-.3l-.77-.23c.21,1,.41,2,.62,3,.27.08.55.14.81.23Z"/><path class="cls-2" d="M177,82.82l-8.42,2.71q-6.24,2-12.84,3.51h0c.38-.79.76-1.59,1.13-2.39A136.63,136.63,0,0,0,168,49.28l.45-3.91L100.25,23.89l-.12,0L31.8,45.37l.44,3.91A136.46,136.46,0,0,0,43.36,86.65c.25.54.5,1.09.76,1.63h0c-8.69-1.76-13.86-3.22-14-3.26l-7.65-2.2-7.3,27.94L22.27,113a239.71,239.71,0,0,0,45.56,9.23h0A96.41,96.41,0,0,0,98.3,142.32l1.83.76,0,0,1.79-.74a96.56,96.56,0,0,0,30.83-20.5h0c27.31-3,45.65-8.46,45.9-8.53l7.24-2.18Zm.62,27.05c-.18,0-18.3,5.42-45.16,8.39a3.54,3.54,0,0,0-2.22,1A93,93,0,0,1,100.58,139l-.45.19-.46-.19a93.09,93.09,0,0,1-29.34-19.39,3.64,3.64,0,0,0-2.23-1,237.65,237.65,0,0,1-44.77-9.08l-3.82-1.18L25,87.28l4.11,1.18c.06,0,5.34,1.52,14.22,3.32l7.4,1.42-4.13-8A132.54,132.54,0,0,1,35.8,48.87l-.11-1,64.44-20.28,64.43,20.28-.11,1a132.2,132.2,0,0,1-10.81,36.29l-4.57,9.12,7.66-1.79c4.42-1,8.78-2.22,13-3.54l5-1.62,6.72,21.4Z"/><path class="cls-2" d="M98.28,125.14a.73.73,0,0,1-.66-.32,2.15,2.15,0,0,1-.17-.34l-4.1.23h0l4.31,1.4A2.77,2.77,0,0,1,98.28,125.14Z"/><path class="cls-4" d="M97.66,126.11l-4.31-1.4L96.18,127a.8.8,0,0,0,.74.23.61.61,0,0,1,.61.23A2.76,2.76,0,0,1,97.66,126.11Z"/><path class="cls-4" d="M101.81,129.11l2.59,3.57h0c-.33-1.21-.64-2.36-.94-3.51a.53.53,0,0,0-.44-.46.68.68,0,0,1-.51-.47A2.7,2.7,0,0,1,101.81,129.11Z"/><path class="cls-2" d="M101,129.56l-.42.1a.8.8,0,0,1,.34.55.7.7,0,0,0,.25.41c1,.67,2,1.31,3,2a1.15,1.15,0,0,0,.24.1l-2.59-3.57A2.66,2.66,0,0,1,101,129.56Z"/><path class="cls-4" d="M96,132.75h0c1.1-.7,2.2-1.4,3.29-2.12a.55.55,0,0,0,.15-.37.89.89,0,0,1,.32-.61,2.73,2.73,0,0,1-1.15-.49Z"/><path class="cls-2" d="M97.72,128.09a.83.83,0,0,1-.41.57.8.8,0,0,0-.36.43c-.31,1.07-.58,2.14-.87,3.22,0,.12-.1.24-.15.36l0,.08,2.61-3.59A2.63,2.63,0,0,1,97.72,128.09Z"/><path class="cls-4" d="M100.19,124.37v-4.63h0c-.52,1.35-1,2.59-1.47,3.84,0,.1.06.27.13.38a.78.78,0,0,1,.09.72,2,2,0,0,1,.4-.17A2.85,2.85,0,0,1,100.19,124.37Z"/><path class="cls-2" d="M101.44,124.7l-.06-.07a.68.68,0,0,1,.16-.87.48.48,0,0,0,0-.39c-.27-.76-.56-1.51-.86-2.26-.16-.43-.34-.85-.54-1.37v4.63A2.71,2.71,0,0,1,101.44,124.7Z"/><path class="cls-4" d="M102.64,126.1l4.36-1.42-4.19-.22-.08.12a.67.67,0,0,1-.74.47l-.09,0A2.55,2.55,0,0,1,102.64,126.1Z"/><path class="cls-2" d="M102.69,126.21a2.67,2.67,0,0,1,.09,1.22.87.87,0,0,1,.66-.14.67.67,0,0,0,.5-.11c.88-.68,1.73-1.39,2.59-2.09.14-.11.26-.23.47-.41l-4.36,1.42Z"/><path class="cls-2" d="M99.5,126.71a.74.74,0,0,1,.43-.38.57.57,0,0,1,.26,0v-1.93a2.85,2.85,0,0,0-.86.13,2,2,0,0,0-.4.17.74.74,0,0,1-.65.47,2.77,2.77,0,0,0-.62,1Z"/><path class="cls-2" d="M100.19,126.3a.73.73,0,0,1,.61.39l1.84-.59a2.55,2.55,0,0,0-.74-1.07,1.15,1.15,0,0,1-.46-.33,2.71,2.71,0,0,0-1.25-.33Z"/><path class="cls-2" d="M98.56,129.16l1.13-1.56a.74.74,0,0,1-.19-.89l-1.84-.6a2.76,2.76,0,0,0-.13,1.37.81.81,0,0,1,.17.3.84.84,0,0,1,0,.31A2.63,2.63,0,0,0,98.56,129.16Z"/><path class="cls-2" d="M101.81,129.11l-1.14-1.56a.71.71,0,0,1-.29.18.74.74,0,0,1-.69-.13l-1.13,1.56a2.73,2.73,0,0,0,1.15.49.73.73,0,0,1,.39-.13.65.65,0,0,1,.46.14l.42-.1A2.66,2.66,0,0,0,101.81,129.11Z"/><path class="cls-2" d="M102.78,127.43a2.67,2.67,0,0,0-.09-1.22l0-.11-1.84.59a.54.54,0,0,1,0,.11.74.74,0,0,1-.18.75l1.14,1.56a2.7,2.7,0,0,0,.71-.87.82.82,0,0,1,0-.44A.72.72,0,0,1,102.78,127.43Z"/><path class="cls-2" d="M110.63,122.68a.4.4,0,0,1-.36-.17,1.65,1.65,0,0,1-.1-.19l-2.24.13h0l2.35.76A1.5,1.5,0,0,1,110.63,122.68Z"/><path class="cls-4" d="M110.29,123.21l-2.35-.76,1.54,1.26a.42.42,0,0,0,.4.12.36.36,0,0,1,.34.13A1.58,1.58,0,0,1,110.29,123.21Z"/><path class="cls-4" d="M112.55,124.85l1.42,2h0c-.18-.66-.35-1.29-.51-1.92a.29.29,0,0,0-.24-.25.37.37,0,0,1-.28-.26A1.29,1.29,0,0,1,112.55,124.85Z"/><path class="cls-2" d="M112.1,125.09l-.23.06a.45.45,0,0,1,.19.3.36.36,0,0,0,.13.22c.55.37,1.1.72,1.64,1.07l.14.06-1.42-2A1.39,1.39,0,0,1,112.1,125.09Z"/><path class="cls-4" d="M109.36,126.83h0l1.79-1.16a.28.28,0,0,0,.08-.2.47.47,0,0,1,.18-.34,1.36,1.36,0,0,1-.63-.27Z"/><path class="cls-2" d="M110.32,124.29a.46.46,0,0,1-.22.31.47.47,0,0,0-.2.24c-.16.58-.31,1.17-.47,1.75a1.21,1.21,0,0,1-.09.2l0,0,1.42-2A1.4,1.4,0,0,1,110.32,124.29Z"/><path class="cls-4" d="M111.67,122.26v-2.53h0c-.29.74-.55,1.41-.81,2.1,0,0,0,.14.07.2a.44.44,0,0,1,0,.4l.22-.1A1.53,1.53,0,0,1,111.67,122.26Z"/><path class="cls-2" d="M112.35,122.44l0,0a.36.36,0,0,1,.09-.47.26.26,0,0,0,0-.21c-.15-.42-.3-.83-.46-1.24-.09-.23-.19-.46-.3-.75v2.53A1.6,1.6,0,0,1,112.35,122.44Z"/><path class="cls-4" d="M113,123.2l2.37-.77-2.28-.12,0,.06a.36.36,0,0,1-.41.26h0A1.51,1.51,0,0,1,113,123.2Z"/><path class="cls-2" d="M113,123.26a1.4,1.4,0,0,1,0,.67.51.51,0,0,1,.37-.08.37.37,0,0,0,.27,0l1.41-1.15a3.26,3.26,0,0,0,.25-.22l-2.37.77A.14.14,0,0,0,113,123.26Z"/><path class="cls-2" d="M111.29,123.54a.42.42,0,0,1,.24-.21l.14,0v-1a1.53,1.53,0,0,0-.47.07l-.22.1a.41.41,0,0,1-.13.17.35.35,0,0,1-.22.08,1.5,1.5,0,0,0-.34.53Z"/><path class="cls-2" d="M111.67,123.31a.42.42,0,0,1,.34.22l1-.33a1.51,1.51,0,0,0-.4-.58.58.58,0,0,1-.26-.18,1.6,1.6,0,0,0-.68-.18Z"/><path class="cls-2" d="M110.78,124.87l.62-.85a.34.34,0,0,1-.13-.18.44.44,0,0,1,0-.3l-1-.33a1.58,1.58,0,0,0-.07.75.39.39,0,0,1,.09.17.29.29,0,0,1,0,.16A1.4,1.4,0,0,0,110.78,124.87Z"/><path class="cls-2" d="M112.55,124.85l-.62-.86a.29.29,0,0,1-.16.1.36.36,0,0,1-.37-.07l-.62.85a1.36,1.36,0,0,0,.63.27.48.48,0,0,1,.21-.07.41.41,0,0,1,.25.08l.23-.06A1.39,1.39,0,0,0,112.55,124.85Z"/><path class="cls-2" d="M113.08,123.93a1.4,1.4,0,0,0,0-.67.14.14,0,0,1,0-.06l-1,.33a.14.14,0,0,0,0,.06.37.37,0,0,1-.1.4l.62.86a1.29,1.29,0,0,0,.39-.48.45.45,0,0,1,0-.23A.46.46,0,0,1,113.08,123.93Z"/><path class="cls-2" d="M87.65,122.68a.41.41,0,0,1-.36-.17,1.65,1.65,0,0,1-.1-.19l-2.23.13h0l2.35.76A1.66,1.66,0,0,1,87.65,122.68Z"/><path class="cls-4" d="M87.31,123.21,85,122.45c.55.44,1.05.85,1.54,1.26a.43.43,0,0,0,.41.12.35.35,0,0,1,.33.13A1.58,1.58,0,0,1,87.31,123.21Z"/><path class="cls-4" d="M89.58,124.85l1.41,2h0c-.17-.66-.34-1.29-.51-1.92a.29.29,0,0,0-.24-.25.34.34,0,0,1-.27-.26A1.53,1.53,0,0,1,89.58,124.85Z"/><path class="cls-2" d="M89.12,125.09a1.8,1.8,0,0,1-.22.06.44.44,0,0,1,.18.3.37.37,0,0,0,.14.22c.54.37,1.09.72,1.64,1.07l.13.06-1.41-2A1.55,1.55,0,0,1,89.12,125.09Z"/><path class="cls-4" d="M86.38,126.83h0l1.79-1.16a.34.34,0,0,0,.09-.2.47.47,0,0,1,.17-.34,1.36,1.36,0,0,1-.63-.27Z"/><path class="cls-2" d="M87.34,124.29a.46.46,0,0,1-.22.31.52.52,0,0,0-.2.24c-.16.58-.31,1.17-.47,1.75,0,.07-.06.14-.08.2v0l1.42-2A1.49,1.49,0,0,1,87.34,124.29Z"/><path class="cls-4" d="M88.69,122.26v-2.53h0c-.29.74-.55,1.41-.8,2.1,0,0,0,.14.07.2a.44.44,0,0,1,0,.4l.22-.1A1.58,1.58,0,0,1,88.69,122.26Z"/><path class="cls-2" d="M89.37,122.44l0,0a.36.36,0,0,1,.09-.47.26.26,0,0,0,0-.21c-.15-.42-.31-.83-.47-1.24-.09-.23-.19-.46-.3-.75v2.53A1.56,1.56,0,0,1,89.37,122.44Z"/><path class="cls-4" d="M90,123.2l2.38-.77-2.29-.12s0,0,0,.06a.35.35,0,0,1-.41.26h0A1.51,1.51,0,0,1,90,123.2Z"/><path class="cls-2" d="M90.05,123.26a1.41,1.41,0,0,1,.06.67.48.48,0,0,1,.36-.08.37.37,0,0,0,.27,0c.48-.38.94-.76,1.41-1.15a3.08,3.08,0,0,0,.26-.22L90,123.2A.14.14,0,0,1,90.05,123.26Z"/><path class="cls-2" d="M88.31,123.54a.42.42,0,0,1,.24-.21l.14,0v-1a1.58,1.58,0,0,0-.47.07l-.22.1a.38.38,0,0,1-.12.17.4.4,0,0,1-.23.08,1.66,1.66,0,0,0-.34.53Z"/><path class="cls-2" d="M88.69,123.31a.42.42,0,0,1,.34.22l1-.33a1.51,1.51,0,0,0-.4-.58.58.58,0,0,1-.26-.18,1.56,1.56,0,0,0-.68-.18Z"/><path class="cls-2" d="M87.8,124.87l.62-.85a.4.4,0,0,1-.13-.18.44.44,0,0,1,0-.3l-1-.33a1.58,1.58,0,0,0-.07.75.39.39,0,0,1,.09.17.29.29,0,0,1,0,.16A1.49,1.49,0,0,0,87.8,124.87Z"/><path class="cls-2" d="M89.58,124.85,89,124a.39.39,0,0,1-.16.1.37.37,0,0,1-.38-.07l-.62.85a1.36,1.36,0,0,0,.63.27.48.48,0,0,1,.21-.07.45.45,0,0,1,.26.08,1.8,1.8,0,0,0,.22-.06A1.55,1.55,0,0,0,89.58,124.85Z"/><path class="cls-2" d="M90.11,123.93a1.41,1.41,0,0,0-.06-.67.14.14,0,0,0,0-.06l-1,.33a.14.14,0,0,1,0,.06.39.39,0,0,1-.09.4l.62.86a1.53,1.53,0,0,0,.39-.48.36.36,0,0,1,0-.23A.41.41,0,0,1,90.11,123.93Z"/><path class="cls-2" d="M28.25,98.81a.39.39,0,0,1-.35-.17,1.14,1.14,0,0,1-.1-.19l-2.24.12h0l2.36.77A1.39,1.39,0,0,1,28.25,98.81Z"/><path class="cls-4" d="M27.92,99.34l-2.36-.77,1.55,1.26a.42.42,0,0,0,.4.13.33.33,0,0,1,.34.12A1.33,1.33,0,0,1,27.92,99.34Z"/><path class="cls-4" d="M30.18,101l1.42,2h0c-.18-.66-.35-1.29-.51-1.92a.29.29,0,0,0-.24-.24.39.39,0,0,1-.28-.26A1.47,1.47,0,0,1,30.18,101Z"/><path class="cls-2" d="M29.73,101.22l-.23,0a.47.47,0,0,1,.18.3.39.39,0,0,0,.14.23l1.64,1.07.14,0-1.42-2A1.41,1.41,0,0,1,29.73,101.22Z"/><path class="cls-4" d="M27,103h0c.59-.38,1.19-.76,1.79-1.16,0,0,.07-.13.08-.2a.47.47,0,0,1,.18-.33,1.42,1.42,0,0,1-.63-.27Z"/><path class="cls-2" d="M28,100.42a.46.46,0,0,1-.23.31.43.43,0,0,0-.19.23c-.17.59-.32,1.17-.48,1.76a1.67,1.67,0,0,1-.08.2v0l1.43-2A1.39,1.39,0,0,1,28,100.42Z"/><path class="cls-4" d="M29.29,98.39V95.86h0c-.28.73-.55,1.41-.8,2.09,0,0,0,.15.07.21a.42.42,0,0,1,.05.39,1.45,1.45,0,0,1,.22-.09A1.47,1.47,0,0,1,29.29,98.39Z"/><path class="cls-2" d="M30,98.57l0,0a.38.38,0,0,1,.08-.48.25.25,0,0,0,0-.21c-.15-.41-.31-.82-.47-1.23-.09-.23-.18-.47-.3-.75v2.53A1.37,1.37,0,0,1,30,98.57Z"/><path class="cls-4" d="M30.63,99.33,33,98.56l-2.28-.13-.05.07a.37.37,0,0,1-.4.26h-.05A1.32,1.32,0,0,1,30.63,99.33Z"/><path class="cls-2" d="M30.66,99.39a1.53,1.53,0,0,1,.05.67.49.49,0,0,1,.36-.08.32.32,0,0,0,.27-.06c.48-.37.95-.76,1.42-1.14l.25-.22-2.38.77Z"/><path class="cls-2" d="M28.92,99.66a.38.38,0,0,1,.23-.2.36.36,0,0,1,.14,0v-1a1.47,1.47,0,0,0-.46.07,1.45,1.45,0,0,0-.22.09.46.46,0,0,1-.13.18.49.49,0,0,1-.23.08,1.39,1.39,0,0,0-.33.53Z"/><path class="cls-2" d="M29.29,99.44a.39.39,0,0,1,.34.22l1-.33a1.32,1.32,0,0,0-.4-.58.56.56,0,0,1-.25-.18,1.37,1.37,0,0,0-.69-.18Z"/><path class="cls-2" d="M28.41,101l.62-.85a.36.36,0,0,1-.13-.19.35.35,0,0,1,0-.3l-1-.32a1.33,1.33,0,0,0-.07.74.56.56,0,0,1,.09.17,1,1,0,0,1,0,.17A1.39,1.39,0,0,0,28.41,101Z"/><path class="cls-2" d="M30.18,101l-.62-.85a.44.44,0,0,1-.16.1.41.41,0,0,1-.37-.07l-.62.85a1.42,1.42,0,0,0,.63.27.38.38,0,0,1,.21-.07.37.37,0,0,1,.25.07l.23,0A1.41,1.41,0,0,0,30.18,101Z"/><path class="cls-2" d="M30.71,100.06a1.53,1.53,0,0,0-.05-.67l0-.06-1,.33,0,0a.41.41,0,0,1-.1.41l.62.85a1.47,1.47,0,0,0,.39-.47.39.39,0,0,1,0-.24A.33.33,0,0,1,30.71,100.06Z"/><path class="cls-2" d="M170.07,100a.4.4,0,0,1-.36-.17,1.65,1.65,0,0,1-.1-.19l-2.24.13h0l2.36.76A1.42,1.42,0,0,1,170.07,100Z"/><path class="cls-4" d="M169.73,100.53l-2.36-.76,1.55,1.26a.42.42,0,0,0,.4.12.36.36,0,0,1,.34.13A1.47,1.47,0,0,1,169.73,100.53Z"/><path class="cls-4" d="M172,102.17l1.42,2h0c-.18-.66-.35-1.29-.51-1.92a.3.3,0,0,0-.24-.25.37.37,0,0,1-.28-.26A1.29,1.29,0,0,1,172,102.17Z"/><path class="cls-2" d="M171.54,102.41l-.23.06a.45.45,0,0,1,.19.3.36.36,0,0,0,.13.22c.55.37,1.09.72,1.64,1.07l.14.06-1.42-2A1.39,1.39,0,0,1,171.54,102.41Z"/><path class="cls-4" d="M168.8,104.15h0l1.79-1.16a.28.28,0,0,0,.08-.2.47.47,0,0,1,.18-.34,1.36,1.36,0,0,1-.63-.27Z"/><path class="cls-2" d="M169.76,101.61a.44.44,0,0,1-.23.31.5.5,0,0,0-.19.24c-.17.58-.32,1.17-.47,1.75a1.21,1.21,0,0,1-.09.2l0,0,1.42-2A1.33,1.33,0,0,1,169.76,101.61Z"/><path class="cls-4" d="M171.11,99.58V97.05h0l-.8,2.09c0,.06,0,.15.07.21a.44.44,0,0,1,0,.4l.22-.1A1.53,1.53,0,0,1,171.11,99.58Z"/><path class="cls-2" d="M171.79,99.76l0,0a.37.37,0,0,1,.08-.47.26.26,0,0,0,0-.21c-.15-.42-.31-.83-.46-1.24-.09-.23-.19-.46-.3-.75v2.53A1.47,1.47,0,0,1,171.79,99.76Z"/><path class="cls-4" d="M172.45,100.52l2.37-.77-2.28-.12,0,.06a.36.36,0,0,1-.41.26H172A1.43,1.43,0,0,1,172.45,100.52Z"/><path class="cls-2" d="M172.47,100.58a1.4,1.4,0,0,1,.05.67.5.5,0,0,1,.36-.08.39.39,0,0,0,.28,0l1.41-1.15.25-.22-2.37.77A.14.14,0,0,0,172.47,100.58Z"/><path class="cls-2" d="M170.73,100.86a.42.42,0,0,1,.24-.21l.14,0v-1a1.53,1.53,0,0,0-.47.07l-.22.1a.41.41,0,0,1-.13.17.37.37,0,0,1-.22.08,1.42,1.42,0,0,0-.34.53Z"/><path class="cls-2" d="M171.11,100.63a.39.39,0,0,1,.33.22l1-.33a1.43,1.43,0,0,0-.41-.58.56.56,0,0,1-.25-.18,1.47,1.47,0,0,0-.68-.18Z"/><path class="cls-2" d="M170.22,102.19l.62-.85a.34.34,0,0,1-.13-.18.39.39,0,0,1,0-.3l-1-.33a1.47,1.47,0,0,0-.07.75.42.42,0,0,1,.09.16.5.5,0,0,1,0,.17A1.33,1.33,0,0,0,170.22,102.19Z"/><path class="cls-2" d="M172,102.17l-.62-.86a.29.29,0,0,1-.16.1.36.36,0,0,1-.37-.07l-.62.85a1.36,1.36,0,0,0,.63.27.48.48,0,0,1,.21-.07.41.41,0,0,1,.25.08l.23-.06A1.39,1.39,0,0,0,172,102.17Z"/><path class="cls-2" d="M172.52,101.25a1.4,1.4,0,0,0-.05-.67.14.14,0,0,1,0-.06l-1,.33,0,.06a.39.39,0,0,1-.1.4l.62.86a1.29,1.29,0,0,0,.39-.48.45.45,0,0,1,0-.23A.46.46,0,0,1,172.52,101.25Z"/><text class="cls-17" transform="translate(33.38 108.28) rotate(12.78)">I</text><text class="cls-17" transform="matrix(0.98, 0.2, -0.2, 0.98, 37.73, 109.29)">S</text><text class="cls-17" transform="translate(47.14 111.17) rotate(9.55)">O</text><text class="cls-17" transform="translate(56.85 112.78) rotate(7.91)">L</text><text class="cls-17" transform="translate(64.99 113.91) rotate(6.17)">A</text><text class="cls-17" transform="translate(73.49 114.85) rotate(4.75)">T</text><text class="cls-17" transform="translate(82.89 115.59) rotate(3.46)">I</text><text class="cls-17" transform="translate(87.36 115.88) rotate(2.12)">O</text><text class="cls-17" transform="translate(97.24 116.24) rotate(0.2)">N</text><text class="cls-17" transform="translate(107.13 116.23) rotate(-1.29)"> </text><text class="cls-17" transform="matrix(1, -0.04, 0.04, 1, 112.17, 116.11)"> </text><text class="cls-17" transform="matrix(1, -0.07, 0.07, 1, 117.28, 115.92)">S</text><text class="cls-17" transform="translate(126.84 115.25) rotate(-5.82)">E</text><text class="cls-17" transform="translate(135.4 114.38) rotate(-7.93)">R</text><text class="cls-17" transform="translate(145.37 112.94) rotate(-9.63)">I</text><text class="cls-17" transform="translate(149.83 112.2) rotate(-11.19)">E</text><text class="cls-17" transform="translate(158.26 110.52) rotate(-13.45)">S</text><path class="cls-18" d="M100.13,148.41l3.68-1.53,2-.87.31-.14,1.95-.89.34-.16,2-1,.2-.1c.68-.34,1.33-.67,1.92-1l.13-.07c.62-.33,1.26-.68,2-1.07l.27-.15c.64-.36,1.27-.73,1.9-1.1l.22-.13c1.33-.8,2.66-1.64,3.94-2.49l.06,0c.62-.41,1.25-.84,1.92-1.31l.14-.1c.65-.45,1.29-.91,1.9-1.36l0,0c1.29-1,2.57-1.94,3.8-2.94l0-.05c.62-.5,1.25-1,1.87-1.56h0c1.43-1.22,2.85-2.51,4.23-3.82,26.92-3.09,44.95-8.46,45.13-8.52l11.86-3.57-4.42-14.09.2,0a11.41,11.41,0,0,0,1.16.06,10.27,10.27,0,0,0,9.93-7.9,10.4,10.4,0,0,0,.2-3.13l-1.24-14.7-.8-7.1a5.59,5.59,0,0,0-1-2.66l1.17.17,3.48-9.3h0a3.56,3.56,0,0,0,.51-2.32L199.45,41l-.62-1.63a31.49,31.49,0,0,0-2.06-4.45L194.59,3.08l-6.67,1.14-3.32.58v2c0,3.91-1.7,6.39-5.26,7.57l-3.72,1.24,4.85,4.72c.24.23.46.47.68.72a39.2,39.2,0,0,0-14.7-2.79l-1.67,0a22.71,22.71,0,0,1,.28-7.87c.14-.65.29-1.26.46-1.86L168,0,157,3.5l-.83.83c-8.58,8.67-9.56,16.25-9.6,19a35.29,35.29,0,0,0-9.1,7.46L101.68,19.5,100.13,19Z"/></svg>