<svg id="Layer_1" data-name="Layer 1" xmlns="http://www.w3.org/2000/svg" viewBox="0 0 78.36 58.32"><defs><style>.cls-1{fill:#c25cff;}</style></defs><path class="cls-1" d="M48.29,0q-9,0-17.91,0C27.78,0,27.2.6,27.2,3.18V55c0,2.71.6,3.33,3.24,3.33H48c2.8,0,3.36-.57,3.36-3.39V29.31q0-13.1,0-26.18C51.32.64,50.74,0,48.29,0Z"/><path class="cls-1" d="M19.51,14.59h-16c-2.8,0-3.5.71-3.51,3.54q0,9.26,0,18.5,0,9.06,0,18.12c0,2.86.67,3.56,3.49,3.56q8,0,16,0c2.93,0,3.6-.68,3.6-3.65q0-18.21,0-36.42C23.08,15.22,22.46,14.59,19.51,14.59Z"/><path class="cls-1" d="M78.35,43.86c0-3.79,0-7.57,0-11.36,0-2.39-.88-3.3-3.2-3.31q-8.37,0-16.74,0c-2.25,0-3.06.78-3.07,3q-.06,11.55,0,23.11c0,2.2.86,3,3.07,3H75.13c2.37,0,3.21-.86,3.22-3.27,0-3.73,0-7.45,0-11.17Z"/></svg>