<svg id="Layer_1" data-name="Layer 1" xmlns="http://www.w3.org/2000/svg" viewBox="0 0 60.5 59.94"><defs><style>.cls-1{fill:#c25cff;}</style></defs><path class="cls-1" d="M37.7,20.81a7.69,7.69,0,0,0-7-6.24,7.56,7.56,0,0,0-7.79,5.9,7.39,7.39,0,0,0,5.48,8.86v.56q0,13.9,0,27.81a2,2,0,0,0,1.43,2.23h.95a2.07,2.07,0,0,0,1.43-2.23q0-13.85,0-27.7v-.66A7.46,7.46,0,0,0,37.7,20.81ZM30.26,25.9h0a3.09,3.09,0,0,1-.43,0,3.57,3.57,0,0,1-3.37-3.76,3.78,3.78,0,1,1,3.8,3.76Z"/><path class="cls-1" d="M4.06,18.24A23.83,23.83,0,0,1,11.59,3.7a1.07,1.07,0,0,0,.16-.14,1.82,1.82,0,0,0,0-2.58L11.61.83A1.82,1.82,0,0,0,9,1,28,28,0,0,0,.47,16.85C.27,18,.15,19.1,0,20.22V24c.09.76.17,1.52.28,2.28A31.91,31.91,0,0,0,8,43,2.93,2.93,0,0,0,10.8,44a1.5,1.5,0,0,0,1.36-1,1.92,1.92,0,0,0-.63-2.17A26,26,0,0,1,4.06,18.24Z"/><path class="cls-1" d="M60.28,18.55A31.25,31.25,0,0,0,51.91.69l-.1-.12A1.83,1.83,0,0,0,49.23.5l-.15.14a1.82,1.82,0,0,0,.08,2.58c.61.7,1.24,1.38,1.79,2.12,6.19,8.4,7.5,17.48,3.63,27.2A22.53,22.53,0,0,1,49,40.48a1.85,1.85,0,0,0-.58,2.23c.49,1.1,2.62,1.4,3.53.48A29.36,29.36,0,0,0,60,27.5c.2-1.15.32-2.32.48-3.49V20.23C60.43,19.67,60.35,19.11,60.28,18.55Z"/><path class="cls-1" d="M17.18,35.16c-4.72-4.18-6.4-9.49-5.64-15.63A16.93,16.93,0,0,1,17,8.93a1.74,1.74,0,0,0,.6-1.7,1.85,1.85,0,0,0-1.3-1.47,1.8,1.8,0,0,0-1.9.48A21.17,21.17,0,0,0,7.55,22a21.59,21.59,0,0,0,6.18,15.41,3.1,3.1,0,0,0,2.81,1,1.49,1.49,0,0,0,1.2-.83A1.84,1.84,0,0,0,17.18,35.16Z"/><path class="cls-1" d="M52.84,20A20.75,20.75,0,0,0,46.16,6.26,1.29,1.29,0,0,0,46,6.1,1.87,1.87,0,1,0,43.64,9,18.36,18.36,0,0,1,45.32,33.4c-.55.69-1.2,1.3-1.81,1.94a1.79,1.79,0,0,0,.3,2.88,3,3,0,0,0,3-.52A22.55,22.55,0,0,0,53,21.92C52.93,21.4,52.9,20.69,52.84,20Z"/><path class="cls-1" d="M45.25,20.18a13.3,13.3,0,0,0-4.48-8.71l-.09-.08a1.84,1.84,0,0,0-2.59.23l-.1.12a1.78,1.78,0,0,0,.3,2.51c4.4,3.8,4.4,11.93,0,15.73a1.33,1.33,0,0,0-.33.34,1.81,1.81,0,0,0,.38,2.54,2.19,2.19,0,0,0,3.07,0,16.68,16.68,0,0,0,4-11C45.35,21.48,45.33,20.83,45.25,20.18Z"/><path class="cls-1" d="M22.3,14.16a1.57,1.57,0,0,0,.55-1.54,1.83,1.83,0,0,0-1.23-1.53,1.8,1.8,0,0,0-1.92.4,13.29,13.29,0,0,0-4.5,9.13,14,14,0,0,0,4.86,12.45,4.32,4.32,0,0,0,.9.48c1.15-.09,1.78-.59,1.9-1.59a1.92,1.92,0,0,0-.65-1.63C17.49,25.52,18.09,17.62,22.3,14.16Z"/></svg>