<svg xmlns="http://www.w3.org/2000/svg" xmlns:xlink="http://www.w3.org/1999/xlink" width="78.495" height="77.933" viewBox="0 0 78.495 77.933"><defs><style>.a{fill:url(#a);}.b{filter:url(#t);}.c{filter:url(#q);}.d{filter:url(#n);}.e{filter:url(#k);}.f{filter:url(#h);}.g{filter:url(#e);}.h{filter:url(#b);}</style><linearGradient id="a" x1="0.5" x2="0.5" y2="1" gradientUnits="objectBoundingBox"><stop offset="0" stop-color="#64f9a0"/><stop offset="1" stop-color="#5ff5f9"/></linearGradient><filter id="b" x="22.674" y="14.556" width="33.139" height="63.376" filterUnits="userSpaceOnUse"><feOffset dy="3" input="SourceAlpha"/><feGaussianBlur stdDeviation="3" result="c"/><feFlood flood-color="#030312" flood-opacity="0.639"/><feComposite operator="in" in2="c"/><feComposite in="SourceGraphic"/></filter><filter id="e" x="0" y="0.374" width="30.293" height="61.701" filterUnits="userSpaceOnUse"><feOffset dy="3" input="SourceAlpha"/><feGaussianBlur stdDeviation="3" result="f"/><feFlood flood-color="#030312" flood-opacity="0.639"/><feComposite operator="in" in2="f"/><feComposite in="SourceGraphic"/></filter><filter id="h" x="48.2" y="0" width="30.295" height="61.737" filterUnits="userSpaceOnUse"><feOffset dy="3" input="SourceAlpha"/><feGaussianBlur stdDeviation="3" result="i"/><feFlood flood-color="#030312" flood-opacity="0.639"/><feComposite operator="in" in2="i"/><feComposite in="SourceGraphic"/></filter><filter id="k" x="7.545" y="5.673" width="28.418" height="50.725" filterUnits="userSpaceOnUse"><feOffset dy="3" input="SourceAlpha"/><feGaussianBlur stdDeviation="3" result="l"/><feFlood flood-color="#030312" flood-opacity="0.639"/><feComposite operator="in" in2="l"/><feComposite in="SourceGraphic"/></filter><filter id="n" x="42.908" y="5.673" width="28.046" height="50.753" filterUnits="userSpaceOnUse"><feOffset dy="3" input="SourceAlpha"/><feGaussianBlur stdDeviation="3" result="o"/><feFlood flood-color="#030312" flood-opacity="0.639"/><feComposite operator="in" in2="o"/><feComposite in="SourceGraphic"/></filter><filter id="q" x="37.606" y="10.971" width="25.778" height="40.519" filterUnits="userSpaceOnUse"><feOffset dy="3" input="SourceAlpha"/><feGaussianBlur stdDeviation="3" result="r"/><feFlood flood-color="#030312" flood-opacity="0.639"/><feComposite operator="in" in2="r"/><feComposite in="SourceGraphic"/></filter><filter id="t" x="15.133" y="10.966" width="25.74" height="40.591" filterUnits="userSpaceOnUse"><feOffset dy="3" input="SourceAlpha"/><feGaussianBlur stdDeviation="3" result="u"/><feFlood flood-color="#030312" flood-opacity="0.639"/><feComposite operator="in" in2="u"/><feComposite in="SourceGraphic"/></filter></defs><g transform="translate(-787.119 -1904.077)"><g class="h" transform="matrix(1, 0, 0, 1, 787.12, 1904.08)"><path class="a" d="M199,168.585a2.045,2.045,0,0,1-1.428-2.23q.03-13.906.011-27.812v-.566a7.382,7.382,0,0,1-5.482-8.859,7.568,7.568,0,0,1,7.786-5.9,7.693,7.693,0,0,1,7.047,6.246,7.465,7.465,0,0,1-5.57,8.536v.664q0,13.847.011,27.694a2.046,2.046,0,0,1-1.428,2.23Zm.488-34.033a3.78,3.78,0,1,0-3.8-3.763A3.573,3.573,0,0,0,199.489,134.551Z" transform="translate(-160.23 -102.65)"/></g><g class="g" transform="matrix(1, 0, 0, 1, 787.12, 1904.08)"><path class="a" d="M0,23.035c.154-1.126.272-2.259.469-3.377A28.106,28.106,0,0,1,9.035,3.79a1.825,1.825,0,0,1,2.727,0,1.828,1.828,0,0,1-.169,2.722A23.857,23.857,0,0,0,4.057,21.053a25.967,25.967,0,0,0,7.471,22.574,1.928,1.928,0,0,1,.632,2.173A1.524,1.524,0,0,1,10.8,46.855a2.934,2.934,0,0,1-2.794-1.087A31.948,31.948,0,0,1,.276,29.087C.17,28.332.092,27.573,0,26.816Z" transform="translate(9 3.19)"/></g><g class="f" transform="matrix(1, 0, 0, 1, 787.12, 1904.08)"><path class="a" d="M420.235,24.022c-.157,1.165-.272,2.337-.48,3.493A29.259,29.259,0,0,1,411.637,43.2c-.912.925-3.039.62-3.529-.479a1.847,1.847,0,0,1,.58-2.227,22.514,22.514,0,0,0,5.627-7.94c3.876-9.725,2.562-18.8-3.626-27.2-.547-.743-1.184-1.421-1.79-2.12a1.83,1.83,0,0,1,.07-2.727A1.823,1.823,0,0,1,411.646.7a31.223,31.223,0,0,1,8.376,17.857c.067.561.143,1.122.214,1.684Z" transform="translate(-350.74 5.99)"/></g><g class="e" transform="matrix(1, 0, 0, 1, 787.12, 1904.08)"><path class="a" d="M63.86,64.359a21.166,21.166,0,0,1,6.8-15.755,1.809,1.809,0,0,1,1.9-.482,1.856,1.856,0,0,1,1.3,1.473,1.739,1.739,0,0,1-.6,1.7,16.931,16.931,0,0,0-5.413,10.6c-.76,6.138.92,11.448,5.645,15.63a1.823,1.823,0,0,1,.555,2.363,1.467,1.467,0,0,1-1.2.829,3.1,3.1,0,0,1-2.811-.95A21.587,21.587,0,0,1,63.86,64.359Z" transform="translate(-47.31 -36.35)"/></g><g class="d" transform="matrix(1, 0, 0, 1, 787.12, 1904.08)"><path class="a" d="M373.2,64.283a22.517,22.517,0,0,1-6.153,15.775,2.987,2.987,0,0,1-3,.526,1.811,1.811,0,0,1-.3-2.883c.614-.637,1.262-1.25,1.811-1.94a18.358,18.358,0,0,0-1.679-24.388,1.87,1.87,0,1,1,2.521-2.753,20.749,20.749,0,0,1,6.68,13.731C373.139,63.056,373.167,63.764,373.2,64.283Z" transform="translate(-311.25 -36.36)"/></g><g class="c" transform="matrix(1, 0, 0, 1, 787.12, 1904.08)"><path class="a" d="M326.051,103.757a16.674,16.674,0,0,1-3.976,10.994,2.175,2.175,0,0,1-3.063.008,1.818,1.818,0,0,1-.057-2.882c4.4-3.8,4.4-11.93,0-15.725a1.787,1.787,0,0,1-.194-2.628,1.836,1.836,0,0,1,2.681-.148,13.267,13.267,0,0,1,4.477,8.708C326,102.729,326.023,103.379,326.051,103.757Z" transform="translate(-271.67 -75.89)"/></g><g class="b" transform="matrix(1, 0, 0, 1, 787.12, 1904.08)"><path class="a" d="M133.9,115.415a4.656,4.656,0,0,1-.9-.483,13.936,13.936,0,0,1-4.856-12.451,13.252,13.252,0,0,1,4.5-9.132,1.785,1.785,0,0,1,1.915-.4,1.832,1.832,0,0,1,1.234,1.528,1.613,1.613,0,0,1-.549,1.547c-4.219,3.454-4.81,11.354-.093,16.166a1.921,1.921,0,0,1,.649,1.635C135.676,114.82,135.048,115.322,133.9,115.415Z" transform="translate(-103.94 -75.86)"/></g></g></svg>