<svg id="Layer_1" data-name="Layer 1" xmlns="http://www.w3.org/2000/svg" viewBox="0 0 67.68 42.9"><defs><style>.cls-1{fill:#c25cff;}</style></defs><path class="cls-1" d="M67.15,25.65a124.74,124.74,0,0,0-3.72-17,15,15,0,0,0-1.35-2.86C61.42,4.62,60.68,3.5,60,2.37a3.36,3.36,0,0,0-.61-.52c-.11-.09-.29-.21-.28-.3.08-.55-.34-.63-.7-.79C55.77-.39,53.15-.08,50.55.71c-.2.06-.29.49-.49.84-1.25.76-2.82.4-4.43.51v.79q0,4.72,0,9.46a2.48,2.48,0,0,1,0,.72,2.71,2.71,0,0,1-3,2.34c-5.73,0-11.46,0-17.18,0h-.36a2.9,2.9,0,0,1-2.7-3.1c0-3.15,0-6.3,0-9.45V2.09c-1.65-.21-3.34.31-4.9-.66.13-.62-.33-.76-.92-.92A10.92,10.92,0,0,0,9.37.72c-.5.21-.87.41-.79.81a7.78,7.78,0,0,0-1,1.07,32.9,32.9,0,0,0-2.9,5,50.21,50.21,0,0,0-2.12,7.54c-.84,4-1.51,8-2.23,11.93C.17,28,.11,29,0,29.9V34c.18,1,.3,2.09.54,3.12a7,7,0,0,0,4,5.25c2.57,1.12,4.77.35,6.75-1.37a12,12,0,0,0,3.26-5c.89-2.39,1.78-4.78,2.62-7.19a2.26,2.26,0,0,1,1.18-1.39,6.59,6.59,0,0,0,3.5,1.77,6.43,6.43,0,0,0,5.5-1.66,1.46,1.46,0,0,1,.85-.34q5.55,0,11.1,0a1.23,1.23,0,0,1,.76.24,6.4,6.4,0,0,0,9,0l.14-.09a2.59,2.59,0,0,1,1.27,1.47c1.06,2.93,2.13,5.86,3.32,8.75a9.53,9.53,0,0,0,3.6,4.29,5.25,5.25,0,0,0,.68.4,6,6,0,0,0,8.12-2.69,13.73,13.73,0,0,0,1.31-4.74c0-.26.09-.51.13-.77V29.9C67.51,28.48,67.37,27.06,67.15,25.65Zm-56-17.31c0-1.76,0-1.76,1.77-1.76s1.71,0,1.76,1.78a2.83,2.83,0,0,1-1.26,2.48,1.05,1.05,0,0,1-1,0,2.65,2.65,0,0,1-1.28-2.45ZM9.11,14H9c-1.8,0-1.8,0-1.8-1.78s0-1.67,1.75-1.73a3,3,0,0,1,2.5,1.2.76.76,0,0,1,0,1.07A2.78,2.78,0,0,1,9.11,14Zm5.43,3.33a1.25,1.25,0,0,1-.73.55,3.15,3.15,0,0,1-.92,0h0c-1.77,0-1.74,0-1.8-1.76a2.85,2.85,0,0,1,1.23-2.48,1.1,1.1,0,0,1,1-.07A3.36,3.36,0,0,1,14.54,17.29Zm4-5.1c0,1.77,0,1.73-1.76,1.79a3,3,0,0,1-2.51-1.22.76.76,0,0,1,0-1.07,2.78,2.78,0,0,1,2.49-1.22h.07c1.72,0,1.73,0,1.73,1.72Zm4.37,14.65a4,4,0,0,1-4-4.08v0A4,4,0,0,1,23,18.77h0a4,4,0,0,1-.1,8.06Zm21.66,0a4,4,0,0,1-4-4.1v0a4,4,0,0,1,4.08-3.93h0a4,4,0,0,1-.14,8.06Zm8-14.59a2.07,2.07,0,0,1-2.09,2.07,2.12,2.12,0,0,1-2.13-2.07,2.18,2.18,0,0,1,2.14-2.15,2.12,2.12,0,0,1,2.08,2.13Zm2.64-6.92h0a2.14,2.14,0,0,1,2.1,2.16v0h0a2.07,2.07,0,0,1-2.11,2h0a2.14,2.14,0,0,1-2.1-2.1A2.18,2.18,0,0,1,55.15,5.32Zm.06,13.76h0A2.12,2.12,0,0,1,53.06,17a2.16,2.16,0,0,1,2.11-2.11A2.13,2.13,0,0,1,57.28,17h0A2.1,2.1,0,0,1,55.21,19.08ZM62,12.25h0a2.1,2.1,0,0,1-2.12,2.07,2.13,2.13,0,0,1-2.1-2.1A2.19,2.19,0,0,1,60,10.09,2.13,2.13,0,0,1,62,12.24Z"/><path class="cls-1" d="M25.31,14.32H42.64c1.39,0,2-.56,2-2V2.08H23.49a2.56,2.56,0,0,0,0,.27c0,3.42,0,6.83,0,10.25C23.44,13.74,24.12,14.32,25.31,14.32Z"/></svg>