<svg id="Layer_1" data-name="Layer 1" xmlns="http://www.w3.org/2000/svg" viewBox="0 0 59.66 63.79"><defs><style>.cls-1{fill:#c25cff;}</style></defs><path id="Path_7869-2" data-name="Path 7869-2" class="cls-1" d="M59.2,22.61a109.44,109.44,0,0,0-3.28-15A13.14,13.14,0,0,0,54.74,5.1c-.58-1-1.24-2-1.88-3a2.63,2.63,0,0,0-.54-.46c-.1-.08-.26-.19-.24-.26.06-.49-.3-.56-.62-.7a9.52,9.52,0,0,0-6.89,0c-.17.05-.25.43-.43.75-1.11.67-2.49.35-3.91.45H19.73c-1.46-.18-2.95.28-4.32-.57.11-.55-.29-.68-.81-.81A9.61,9.61,0,0,0,8.27.63c-.44.19-.77.37-.7.72a7.83,7.83,0,0,0-.88.94A28.12,28.12,0,0,0,4.13,6.7a44.09,44.09,0,0,0-1.87,6.65c-.75,3.49-1.33,7-2,10.53-.15.82-.2,1.65-.3,2.48V30c.15.92.27,1.84.48,2.75A6.18,6.18,0,0,0,4,37.35c2.27,1,4.2.31,5.95-1.21a10.48,10.48,0,0,0,2.87-4.46c.79-2.11,1.57-4.21,2.32-6.34a2,2,0,0,1,1-1.22H27.32V46.06H18.05a1,1,0,0,0-1,1h0v8.57a1,1,0,0,1-1,1H13.62a1,1,0,0,0-1,1h0v5.26a1,1,0,0,0,1,1H46.05a1,1,0,0,0,1-1h0V57.56a1,1,0,0,0-1-1H43.56a1,1,0,0,1-1-1h0V47a1,1,0,0,0-1-1H32.35V24.13H43.29l.12-.08a2.26,2.26,0,0,1,1.12,1.29c.94,2.58,1.88,5.17,2.93,7.72a8.41,8.41,0,0,0,3.17,3.78A5.33,5.33,0,0,0,58,35.44a4.48,4.48,0,0,0,.35-.6,12,12,0,0,0,1.16-4.18c0-.23.08-.46.11-.68V26.36C59.51,25.1,59.39,23.85,59.2,22.61Z"/></svg>