<svg xmlns="http://www.w3.org/2000/svg" xmlns:xlink="http://www.w3.org/1999/xlink" width="77.662" height="81.785" viewBox="0 0 77.662 81.785"><defs><style>.a{fill:url(#a);}.b{filter:url(#b);}</style><linearGradient id="a" x1="0.5" x2="0.5" y2="1" gradientUnits="objectBoundingBox"><stop offset="0" stop-color="#64f9a0"/><stop offset="1" stop-color="#5ff5f9"/></linearGradient><filter id="b" x="0" y="0" width="77.662" height="81.785" filterUnits="userSpaceOnUse"><feOffset dy="3" input="SourceAlpha"/><feGaussianBlur stdDeviation="3" result="c"/><feFlood flood-color="#030312" flood-opacity="0.639"/><feComposite operator="in" in2="c"/><feComposite in="SourceGraphic"/></filter></defs><g class="b" transform="matrix(1, 0, 0, 1, 0, 0)"><path class="a" d="M59.2,22.626A110,110,0,0,0,55.923,7.635a13.123,13.123,0,0,0-1.184-2.516C54.162,4.085,53.5,3.1,52.858,2.106a2.592,2.592,0,0,0-.543-.457c-.1-.08-.252-.189-.24-.263.063-.486-.3-.56-.618-.7A9.531,9.531,0,0,0,44.574.643c-.177.057-.257.435-.435.749-1.109.669-2.493.349-3.911.452l-20.5.006c-1.458-.183-2.95.274-4.317-.577C15.523.728,15.117.6,14.6.465A9.6,9.6,0,0,0,8.268.648c-.435.183-.766.366-.7.72a7.142,7.142,0,0,0-.875.938A27.692,27.692,0,0,0,4.128,6.72a43.994,43.994,0,0,0-1.87,6.649C1.515,16.858.926,20.385.3,23.9c-.149.818-.2,1.647-.3,2.476v3.613c.154.915.269,1.841.48,2.75A6.189,6.189,0,0,0,4,37.366c2.27.983,4.2.309,5.952-1.206a10.523,10.523,0,0,0,2.87-4.46c.789-2.11,1.567-4.214,2.316-6.341a2,2,0,0,1,1.035-1.224l11.143.006V46.08H18.05a.971.971,0,0,0-.972.972v8.576a.971.971,0,0,1-.972.972H13.619a.971.971,0,0,0-.972.972v5.26a.971.971,0,0,0,.972.972h32.43a.971.971,0,0,0,.972-.972v-5.26a.971.971,0,0,0-.972-.972H43.562a.971.971,0,0,1-.972-.972V47.052a.971.971,0,0,0-.972-.972H32.35V24.147l10.943.006c.04-.029.08-.057.12-.08a2.291,2.291,0,0,1,1.121,1.292c.938,2.584,1.881,5.169,2.927,7.719a8.462,8.462,0,0,0,3.173,3.785,5.329,5.329,0,0,0,7.759-2.018,11.957,11.957,0,0,0,1.155-4.18c.029-.229.08-.452.114-.68V26.377C59.514,25.119,59.394,23.867,59.2,22.626Z" transform="translate(9 5.98)"/></g></svg>