<svg xmlns="http://www.w3.org/2000/svg" xmlns:xlink="http://www.w3.org/1999/xlink" width="114.877" height="28.749" viewBox="0 0 114.877 28.749">
  <defs>
    <linearGradient id="linear-gradient" x1="0.5" x2="0.5" y2="1" gradientUnits="objectBoundingBox">
      <stop offset="0" stop-color="#64f9a0"/>
      <stop offset="1" stop-color="#5ff5f9"/>
    </linearGradient>
  </defs>
  <g id="Group_5773" data-name="Group 5773" transform="translate(1840.377 -771.498)">
    <g id="Group_5769" data-name="Group 5769" transform="translate(-3485.019 981.998)">
      <path id="Path_9180" data-name="Path 9180" d="M1907.552-.945l-1.319,0-1.85.007h0a.364.364,0,0,1-.371-.259c-.691-1.895-1.4-3.82-2.079-5.682l-.265-.724-.07.219c-.63,1.956-1.282,3.978-1.92,5.968a.379.379,0,0,1-.39.287c-.412,0-.832.007-1.237.013l-.583.007-3.634.04-1.508.015.064.048c1.822,1.355,3.706,2.757,5.559,4.134a.345.345,0,0,1,.133.411c-.6,1.863-1.214,3.759-1.8,5.592l-.067.207.35-.243c1.617-1.123,3.288-2.284,4.93-3.428a.39.39,0,0,1,.487,0c1.48,1.052,2.987,2.119,4.444,3.152l.921.653-.121-.35c-.677-1.964-1.377-3.994-2.068-5.991a.375.375,0,0,1,.16-.473c1.784-1.207,3.6-2.436,5.351-3.627l-.889,0Zm-5.8,5.371a2.191,2.191,0,1,1,2.191-2.191A2.191,2.191,0,0,1,1901.757,4.425Z" transform="translate(-199.333 -196.64)" fill="url(#linear-gradient)"/>
      <path id="Path_9181" data-name="Path 9181" d="M1708.17-193.037q4.629-3.132,9.253-6.273c.029-.02.055-.044.1-.077-.26,0-.5,0-.732,0q-2.674.014-5.348.029c-1.644.007-3.288.009-4.932.019a.191.191,0,0,1-.218-.15q-1.87-5.123-3.749-10.243l-.281-.767c-.017.042-.023.054-.027.067q-1.71,5.308-3.416,10.616a.212.212,0,0,1-.243.181c-.945,0-1.89.02-2.835.031l-5.655.062-2.7.026c-.248,0-.5,0-.744,0a.773.773,0,0,0,.19.184q4.714,3.508,9.431,7.013a.16.16,0,0,1,.07.213q-1.49,4.6-2.971,9.21c-.092.285-.181.571-.282.89l.155-.106q4.5-3.123,8.99-6.25a.227.227,0,0,1,.315,0q4.074,2.894,8.153,5.781l1.167.827c-.028-.086-.044-.138-.062-.19q-1.863-5.4-3.73-10.8A.208.208,0,0,1,1708.17-193.037Zm.183,5.365.328.951c.008.023.015.046.025.076l.016.051.229.707-2.151-1.524c-1.444-1.023-2.937-2.081-4.405-3.124-1.629,1.135-3.286,2.286-4.889,3.4l-.846.587-.06.041-.632.431.277-.874c.041-.131.081-.256.121-.38l.1-.326c.582-1.805,1.183-3.671,1.777-5.507-1.833-1.362-3.691-2.744-5.489-4.082l-.5-.372a.731.731,0,0,1-.177-.174l-.273-.389h.95l1.732-.017,3.633-.04.582-.007c.387-.005.786-.01,1.181-.012.633-1.973,1.278-3.976,1.9-5.914l.275-.853a.418.418,0,0,1,.015-.039l.009-.022.241-.589.729,1.99c.674,1.84,1.372,3.743,2.055,5.616l1.783-.007,1.318,0,2.221-.012,1.215-.007h1.171l-.544.439-.021.018a.673.673,0,0,1-.057.044l-.48.326c-1.774,1.2-3.608,2.448-5.415,3.671C1706.99-191.624,1707.683-189.616,1708.353-187.672Z" fill="url(#linear-gradient)"/>
    </g>
    <g id="Group_5770" data-name="Group 5770" transform="translate(-3443.019 981.998)">
      <path id="Path_9180-2" data-name="Path 9180" d="M1907.552-.945l-1.319,0-1.85.007h0a.364.364,0,0,1-.371-.259c-.691-1.895-1.4-3.82-2.079-5.682l-.265-.724-.07.219c-.63,1.956-1.282,3.978-1.92,5.968a.379.379,0,0,1-.39.287c-.412,0-.832.007-1.237.013l-.583.007-3.634.04-1.508.015.064.048c1.822,1.355,3.706,2.757,5.559,4.134a.345.345,0,0,1,.133.411c-.6,1.863-1.214,3.759-1.8,5.592l-.067.207.35-.243c1.617-1.123,3.288-2.284,4.93-3.428a.39.39,0,0,1,.487,0c1.48,1.052,2.987,2.119,4.444,3.152l.921.653-.121-.35c-.677-1.964-1.377-3.994-2.068-5.991a.375.375,0,0,1,.16-.473c1.784-1.207,3.6-2.436,5.351-3.627l-.889,0Zm-5.8,5.371a2.191,2.191,0,1,1,2.191-2.191A2.191,2.191,0,0,1,1901.757,4.425Z" transform="translate(-199.333 -196.64)" fill="url(#linear-gradient)"/>
      <path id="Path_9181-2" data-name="Path 9181" d="M1708.17-193.037q4.629-3.132,9.253-6.273c.029-.02.055-.044.1-.077-.26,0-.5,0-.732,0q-2.674.014-5.348.029c-1.644.007-3.288.009-4.932.019a.191.191,0,0,1-.218-.15q-1.87-5.123-3.749-10.243l-.281-.767c-.017.042-.023.054-.027.067q-1.71,5.308-3.416,10.616a.212.212,0,0,1-.243.181c-.945,0-1.89.02-2.835.031l-5.655.062-2.7.026c-.248,0-.5,0-.744,0a.773.773,0,0,0,.19.184q4.714,3.508,9.431,7.013a.16.16,0,0,1,.07.213q-1.49,4.6-2.971,9.21c-.092.285-.181.571-.282.89l.155-.106q4.5-3.123,8.99-6.25a.227.227,0,0,1,.315,0q4.074,2.894,8.153,5.781l1.167.827c-.028-.086-.044-.138-.062-.19q-1.863-5.4-3.73-10.8A.208.208,0,0,1,1708.17-193.037Zm.183,5.365.328.951c.008.023.015.046.025.076l.016.051.229.707-2.151-1.524c-1.444-1.023-2.937-2.081-4.405-3.124-1.629,1.135-3.286,2.286-4.889,3.4l-.846.587-.06.041-.632.431.277-.874c.041-.131.081-.256.121-.38l.1-.326c.582-1.805,1.183-3.671,1.777-5.507-1.833-1.362-3.691-2.744-5.489-4.082l-.5-.372a.731.731,0,0,1-.177-.174l-.273-.389h.95l1.732-.017,3.633-.04.582-.007c.387-.005.786-.01,1.181-.012.633-1.973,1.278-3.976,1.9-5.914l.275-.853a.418.418,0,0,1,.015-.039l.009-.022.241-.589.729,1.99c.674,1.84,1.372,3.743,2.055,5.616l1.783-.007,1.318,0,2.221-.012,1.215-.007h1.171l-.544.439-.021.018a.673.673,0,0,1-.057.044l-.48.326c-1.774,1.2-3.608,2.448-5.415,3.671C1706.99-191.624,1707.683-189.616,1708.353-187.672Z" fill="url(#linear-gradient)"/>
    </g>
    <g id="Group_5771" data-name="Group 5771" transform="translate(-3527.019 981.998)">
      <path id="Path_9180-3" data-name="Path 9180" d="M1907.552-.945l-1.319,0-1.85.007h0a.364.364,0,0,1-.371-.259c-.691-1.895-1.4-3.82-2.079-5.682l-.265-.724-.07.219c-.63,1.956-1.282,3.978-1.92,5.968a.379.379,0,0,1-.39.287c-.412,0-.832.007-1.237.013l-.583.007-3.634.04-1.508.015.064.048c1.822,1.355,3.706,2.757,5.559,4.134a.345.345,0,0,1,.133.411c-.6,1.863-1.214,3.759-1.8,5.592l-.067.207.35-.243c1.617-1.123,3.288-2.284,4.93-3.428a.39.39,0,0,1,.487,0c1.48,1.052,2.987,2.119,4.444,3.152l.921.653-.121-.35c-.677-1.964-1.377-3.994-2.068-5.991a.375.375,0,0,1,.16-.473c1.784-1.207,3.6-2.436,5.351-3.627l-.889,0Zm-5.8,5.371a2.191,2.191,0,1,1,2.191-2.191A2.191,2.191,0,0,1,1901.757,4.425Z" transform="translate(-199.333 -196.64)" fill="url(#linear-gradient)"/>
      <path id="Path_9181-3" data-name="Path 9181" d="M1708.17-193.037q4.629-3.132,9.253-6.273c.029-.02.055-.044.1-.077-.26,0-.5,0-.732,0q-2.674.014-5.348.029c-1.644.007-3.288.009-4.932.019a.191.191,0,0,1-.218-.15q-1.87-5.123-3.749-10.243l-.281-.767c-.017.042-.023.054-.027.067q-1.71,5.308-3.416,10.616a.212.212,0,0,1-.243.181c-.945,0-1.89.02-2.835.031l-5.655.062-2.7.026c-.248,0-.5,0-.744,0a.773.773,0,0,0,.19.184q4.714,3.508,9.431,7.013a.16.16,0,0,1,.07.213q-1.49,4.6-2.971,9.21c-.092.285-.181.571-.282.89l.155-.106q4.5-3.123,8.99-6.25a.227.227,0,0,1,.315,0q4.074,2.894,8.153,5.781l1.167.827c-.028-.086-.044-.138-.062-.19q-1.863-5.4-3.73-10.8A.208.208,0,0,1,1708.17-193.037Zm.183,5.365.328.951c.008.023.015.046.025.076l.016.051.229.707-2.151-1.524c-1.444-1.023-2.937-2.081-4.405-3.124-1.629,1.135-3.286,2.286-4.889,3.4l-.846.587-.06.041-.632.431.277-.874c.041-.131.081-.256.121-.38l.1-.326c.582-1.805,1.183-3.671,1.777-5.507-1.833-1.362-3.691-2.744-5.489-4.082l-.5-.372a.731.731,0,0,1-.177-.174l-.273-.389h.95l1.732-.017,3.633-.04.582-.007c.387-.005.786-.01,1.181-.012.633-1.973,1.278-3.976,1.9-5.914l.275-.853a.418.418,0,0,1,.015-.039l.009-.022.241-.589.729,1.99c.674,1.84,1.372,3.743,2.055,5.616l1.783-.007,1.318,0,2.221-.012,1.215-.007h1.171l-.544.439-.021.018a.673.673,0,0,1-.057.044l-.48.326c-1.774,1.2-3.608,2.448-5.415,3.671C1706.99-191.624,1707.683-189.616,1708.353-187.672Z" fill="url(#linear-gradient)"/>
    </g>
  </g>
</svg>
