<svg id="Layer_1" data-name="Layer 1" xmlns="http://www.w3.org/2000/svg" viewBox="0 0 103.85 28.48"><defs><style>.cls-1{fill:#c25cff;}</style></defs><path class="cls-1" d="M5.7,28.47h0c2.39-1.54,4.8-3.07,7.17-4.64a1.21,1.21,0,0,0,.34-.81,1.86,1.86,0,0,1,.71-1.33,5.92,5.92,0,0,1-2.52-1.08ZM13,22a2.69,2.69,0,0,0-.29,1,1.13,1.13,0,0,1-.12.44c-1.6,1.06-3.23,2.11-4.83,3.14l3.79-5.22A6,6,0,0,0,13,22Z"/><path class="cls-1" d="M20.71,10.33a3.11,3.11,0,0,0-.18.27,1.51,1.51,0,0,1-1.36,1.06l-.27,0-.18,0h0a2.44,2.44,0,0,1-1-.72.83.83,0,0,1-.12-.16,1.49,1.49,0,0,1,.34-1.91A1,1,0,0,0,18,8C17.43,6.3,16.8,4.66,16.16,3c-.36-.94-.74-1.86-1.2-3h0V0c-1.14,3-2.2,5.67-3.21,8.4-.08.21.12.58.28.82a1.76,1.76,0,0,1,.19,1.58,1.53,1.53,0,0,1-1.42,1,1.64,1.64,0,0,1-1.43-.69A5.84,5.84,0,0,1,9,10.39l-9,.5H0L9.44,14h0L0,10.89c2.2,1.79,4.21,3.41,6.2,5a1.88,1.88,0,0,0,1.23.55,1.69,1.69,0,0,0,.38,0,1.53,1.53,0,0,1,.3,0,1.35,1.35,0,0,1,1.05.52,6.7,6.7,0,0,1-.08-.77,6.7,6.7,0,0,0,.08.77,1.72,1.72,0,0,1,.35.67,1.59,1.59,0,0,1,.05.68,1.78,1.78,0,0,1-.9,1.23,1.91,1.91,0,0,0-.78.95c-.67,2.33-1.27,4.69-1.9,7a8.09,8.09,0,0,1-.33.81c0,.05,0,.11,0,.16l5.71-7.85a5.92,5.92,0,0,0,2.52,1.08,1.57,1.57,0,0,1,.84-.29,1.72,1.72,0,0,1,1,.29,2,2,0,0,1,.74,1.22,1.48,1.48,0,0,0,.54.9c2.17,1.45,4.38,2.86,6.57,4.28a4.14,4.14,0,0,0,.54.22h0c-.71-2.65-1.39-5.16-2-7.69a1.16,1.16,0,0,0-1-1,1.53,1.53,0,0,1-1.11-1,5.7,5.7,0,0,1-1.56,1.9h0a5.7,5.7,0,0,0,1.56-1.9,1.62,1.62,0,0,1,0-.95,1.56,1.56,0,0,1,.57-.83,1.9,1.9,0,0,1,1.45-.3,1.54,1.54,0,0,0,1.09-.23c1.91-1.5,3.78-3,5.66-4.58.29-.24.56-.5,1-.89h0ZM8.56,16a1.73,1.73,0,0,0-.45,0,1.9,1.9,0,0,0-.41,0,1.24,1.24,0,0,1-.27,0,1.38,1.38,0,0,1-.9-.44c-1.31-1.08-2.63-2.15-4-3.27l6.28,2A6.2,6.2,0,0,0,8.56,16Zm6.32-5.8h0ZM12.83,10a2.31,2.31,0,0,0-.38-1,1.26,1.26,0,0,1-.2-.4c.7-1.9,1.43-3.78,2.19-5.75V9.64a5.94,5.94,0,0,0-1.51.29ZM16,17.09a1.56,1.56,0,0,1-2.13.12,1.57,1.57,0,0,1-.53-.75,1.63,1.63,0,0,1,1-2,1.51,1.51,0,0,1,.56-.07,1.57,1.57,0,0,1,1.35.87,1.33,1.33,0,0,1,.11.24A1.6,1.6,0,0,1,16,17.09Zm4.06,2.52a2,2,0,0,0,1,.54c.37.09.47.2.58.62.43,1.65.86,3.28,1.32,5l-3.75-5.15A6.17,6.17,0,0,0,20.08,19.61Zm.54-6.33A6.5,6.5,0,0,0,19.87,12,2.13,2.13,0,0,0,21,10.87l6,.33Z"/><path class="cls-1" d="M42.7,28.47h0c2.39-1.54,4.8-3.07,7.17-4.64a1.21,1.21,0,0,0,.34-.81,1.86,1.86,0,0,1,.71-1.33,5.92,5.92,0,0,1-2.52-1.08ZM50,22a2.69,2.69,0,0,0-.29,1,1.13,1.13,0,0,1-.12.44c-1.6,1.06-3.23,2.11-4.83,3.14l3.79-5.22A6,6,0,0,0,50,22Z"/><path class="cls-1" d="M57.71,10.33a3.11,3.11,0,0,0-.18.27,1.51,1.51,0,0,1-1.36,1.06l-.27,0-.18,0h0a2.44,2.44,0,0,1-1-.72.83.83,0,0,1-.12-.16,1.49,1.49,0,0,1,.34-1.91A1,1,0,0,0,55,8C54.43,6.3,53.8,4.66,53.16,3c-.36-.94-.74-1.86-1.2-3h0V0c-1.14,3-2.2,5.67-3.21,8.4-.08.21.12.58.28.82a1.76,1.76,0,0,1,.19,1.58,1.53,1.53,0,0,1-1.42,1,1.64,1.64,0,0,1-1.43-.69,5.84,5.84,0,0,1-.39-.75l-9,.5h0L46.44,14h0L37,10.89c2.2,1.79,4.21,3.41,6.2,5a1.88,1.88,0,0,0,1.23.55,1.69,1.69,0,0,0,.38,0,1.53,1.53,0,0,1,.3,0,1.35,1.35,0,0,1,1,.52,6.7,6.7,0,0,1-.08-.77,6.7,6.7,0,0,0,.08.77,1.72,1.72,0,0,1,.35.67,1.59,1.59,0,0,1,.05.68,1.78,1.78,0,0,1-.9,1.23,1.91,1.91,0,0,0-.78.95c-.67,2.33-1.27,4.69-1.9,7a8.09,8.09,0,0,1-.33.81c0,.05,0,.11.05.16l5.71-7.85a5.92,5.92,0,0,0,2.52,1.08,1.57,1.57,0,0,1,.84-.29,1.72,1.72,0,0,1,1,.29,2,2,0,0,1,.74,1.22,1.48,1.48,0,0,0,.54.9c2.17,1.45,4.38,2.86,6.57,4.28a4.14,4.14,0,0,0,.54.22h0c-.71-2.65-1.39-5.16-2-7.69a1.16,1.16,0,0,0-1-1,1.53,1.53,0,0,1-1.11-1,5.7,5.7,0,0,1-1.56,1.9h0a5.7,5.7,0,0,0,1.56-1.9,1.62,1.62,0,0,1,0-.95,1.56,1.56,0,0,1,.57-.83,1.9,1.9,0,0,1,1.45-.3,1.54,1.54,0,0,0,1.09-.23c1.91-1.5,3.78-3,5.66-4.58.29-.24.56-.5,1-.89h0ZM45.56,16a1.73,1.73,0,0,0-.45,0,1.9,1.9,0,0,0-.41,0,1.24,1.24,0,0,1-.27,0,1.38,1.38,0,0,1-.9-.44c-1.31-1.08-2.63-2.15-4-3.27l6.28,2A6.2,6.2,0,0,0,45.56,16Zm6.32-5.8h0ZM49.83,10a2.31,2.31,0,0,0-.38-1,1.26,1.26,0,0,1-.2-.4c.7-1.9,1.43-3.78,2.19-5.75V9.64a5.94,5.94,0,0,0-1.51.29ZM53,17.09a1.56,1.56,0,0,1-2.13.12,1.57,1.57,0,0,1-.53-.75,1.63,1.63,0,0,1,1-2,1.51,1.51,0,0,1,.56-.07,1.57,1.57,0,0,1,1.35.87,1.33,1.33,0,0,1,.11.24A1.6,1.6,0,0,1,53,17.09Zm4.06,2.52a2,2,0,0,0,1,.54c.37.09.47.2.58.62.43,1.65.86,3.28,1.32,5l-3.75-5.15A6.17,6.17,0,0,0,57.08,19.61Zm.54-6.33A6.5,6.5,0,0,0,56.87,12,2.13,2.13,0,0,0,58,10.87l6,.33Z"/><path class="cls-1" d="M79.7,28.47h0c2.39-1.54,4.8-3.07,7.17-4.64a1.21,1.21,0,0,0,.34-.81,1.86,1.86,0,0,1,.71-1.33,5.92,5.92,0,0,1-2.52-1.08ZM87,22a2.69,2.69,0,0,0-.29,1,1.13,1.13,0,0,1-.12.44c-1.6,1.06-3.23,2.11-4.83,3.14l3.79-5.22A6,6,0,0,0,87,22Z"/><path class="cls-1" d="M94.71,10.33a3.11,3.11,0,0,0-.18.27,1.51,1.51,0,0,1-1.36,1.06,1.24,1.24,0,0,1-.27,0l-.18,0h0a2.44,2.44,0,0,1-1-.72.83.83,0,0,1-.12-.16,1.49,1.49,0,0,1,.34-1.91A1,1,0,0,0,92,8C91.43,6.3,90.8,4.66,90.16,3c-.36-.94-.74-1.86-1.2-3h0V0c-1.14,3-2.2,5.67-3.21,8.4-.08.21.12.58.28.82a1.76,1.76,0,0,1,.19,1.58,1.53,1.53,0,0,1-1.42,1,1.64,1.64,0,0,1-1.43-.69,5.84,5.84,0,0,1-.39-.75l-9,.5h0L83.44,14h0L74,10.89c2.2,1.79,4.21,3.41,6.2,5a1.88,1.88,0,0,0,1.23.55,1.69,1.69,0,0,0,.38,0,1.53,1.53,0,0,1,.3,0,1.35,1.35,0,0,1,1,.52,6.7,6.7,0,0,1-.08-.77,6.7,6.7,0,0,0,.08.77,1.72,1.72,0,0,1,.35.67,1.59,1.59,0,0,1,0,.68,1.78,1.78,0,0,1-.9,1.23,1.91,1.91,0,0,0-.78.95c-.67,2.33-1.27,4.69-1.9,7a8.09,8.09,0,0,1-.33.81c0,.05,0,.11,0,.16l5.71-7.85a5.92,5.92,0,0,0,2.52,1.08,1.57,1.57,0,0,1,.84-.29,1.72,1.72,0,0,1,1,.29,2,2,0,0,1,.74,1.22,1.48,1.48,0,0,0,.54.9c2.17,1.45,4.38,2.86,6.57,4.28a4.14,4.14,0,0,0,.54.22h0c-.71-2.65-1.39-5.16-2-7.69a1.16,1.16,0,0,0-1-1,1.53,1.53,0,0,1-1.11-1,5.7,5.7,0,0,1-1.56,1.9h0a5.7,5.7,0,0,0,1.56-1.9,1.62,1.62,0,0,1,0-.95,1.56,1.56,0,0,1,.57-.83,1.9,1.9,0,0,1,1.45-.3,1.54,1.54,0,0,0,1.09-.23c1.91-1.5,3.78-3,5.66-4.58.29-.24.56-.5,1-.89h0ZM82.56,16a1.73,1.73,0,0,0-.45,0,1.9,1.9,0,0,0-.41,0l-.27,0a1.38,1.38,0,0,1-.9-.44c-1.31-1.08-2.63-2.15-4-3.27l6.28,2A6.2,6.2,0,0,0,82.56,16Zm6.32-5.8h0Zm-2-.19a2.31,2.31,0,0,0-.38-1,1.26,1.26,0,0,1-.2-.4c.7-1.9,1.43-3.78,2.19-5.75V9.64a5.94,5.94,0,0,0-1.51.29ZM90,17.09a1.56,1.56,0,0,1-2.13.12,1.57,1.57,0,0,1-.53-.75,1.63,1.63,0,0,1,1-2,1.51,1.51,0,0,1,.56-.07,1.57,1.57,0,0,1,1.35.87,1.33,1.33,0,0,1,.11.24A1.6,1.6,0,0,1,90,17.09Zm4.06,2.52a2,2,0,0,0,1,.54c.37.09.47.2.58.62.43,1.65.86,3.28,1.32,5l-3.75-5.15A6.17,6.17,0,0,0,94.08,19.61Zm.54-6.33A6.5,6.5,0,0,0,93.87,12,2.13,2.13,0,0,0,95,10.87l6,.33Z"/></svg>