<svg id="Layer_1" data-name="Layer 1" xmlns="http://www.w3.org/2000/svg" viewBox="0 0 60.71 64.9"><defs><style>.cls-1{fill:#c25cff;}</style></defs><path id="Path_3313-2" data-name="Path 3313-2" class="cls-1" d="M11.79,46.9c0-4.72,0-9.46,0-14.18a1.12,1.12,0,0,0-.74-1.16q-4.44-2.23-8.85-4.51a3.43,3.43,0,0,1-2-4.42A3.36,3.36,0,0,1,.57,22Q4.44,14.37,8.34,6.81a8.75,8.75,0,0,1,4-3.66A39.66,39.66,0,0,1,21,.12a3.92,3.92,0,0,1,.9-.08C27.45,0,33-.08,38.48.1a19.07,19.07,0,0,1,5.71,1.37A33.8,33.8,0,0,1,50,4.27,7.08,7.08,0,0,1,52.39,6.9c2.65,4.95,5.16,10,7.75,15a4,4,0,0,1,.45,3.05,3.51,3.51,0,0,1-2,2.14c-2.92,1.49-5.85,3-8.79,4.46A1.24,1.24,0,0,0,49,32.8q0,13.81,0,27.64c0,2-.41,2.76-2.37,3.21a39.19,39.19,0,0,1-7.38,1.13q-8.82.24-17.67,0a54.17,54.17,0,0,1-7.3-1.06A4.28,4.28,0,0,1,13,63.16a2.16,2.16,0,0,1-1.18-2.07c0-4.74,0-9.47,0-14.19ZM17,3.83c-1.76.93-3.43,1.81-5.1,2.71a.89.89,0,0,0-.46,1.19.2.2,0,0,0,0,.08c.78,2.34,1.47,4.72,2.18,7.07a17.74,17.74,0,0,1,.8,5.46c0,11.38,0,22.77,0,34.15,0,2.06,0,2.12,2.09,2.2,5.5.2,11,.46,16.53.46,4.1,0,8.18-.39,12.28-.59.78,0,1-.36,1-1.11q0-17.87,0-35.7a8.78,8.78,0,0,1,.23-2.34c.89-3.22,1.85-6.4,2.8-9.6A.88.88,0,0,0,49,6.69,19.14,19.14,0,0,0,43.57,4c-.16.35-.29.6-.43.87A18.62,18.62,0,0,1,39,10.56a12.3,12.3,0,0,1-10.42,3.53,13.24,13.24,0,0,1-7.73-4.2A20.39,20.39,0,0,1,17,3.83ZM14.44,59.29c0,.23,0,.45,0,.67-.17.84.24,1.18,1,1.31.91.15,1.81.38,2.72.49a103.62,103.62,0,0,0,16.52.51c3.35-.15,6.71-.49,10-.87,1.64-.18,1.65-.36,1.52-2,0-.05,0-.08-.06-.1A188.4,188.4,0,0,1,14.44,59.29ZM11.66,24c.43-3.92-.78-10.88-2.3-13.39C7.74,13.69,6.16,16.78,4.53,20,6.92,21.29,9.26,22.59,11.66,24Zm44.49-4c-1.65-3.19-3.23-6.29-4.9-9.51-1.61,4.46-2.84,8.76-2.17,13.45L56.15,20ZM36.7,2.75H23.89a7.14,7.14,0,0,0,6.19,4.72A7.1,7.1,0,0,0,36.7,2.75Zm3,.08c-1.8,4.26-4.57,7.3-9.39,7.3s-7.64-3.07-9.42-7.27c-.36.1-.69.17-1,.25-.07,0-.13.1-.23.16a15.3,15.3,0,0,0,5.27,6.58,8.87,8.87,0,0,0,6.82,1.55C36.4,10.52,39,7.24,41,3.2L39.7,2.83ZM57.38,22.36c-.31.17-.58.3-.84.43L50.09,26.4c-1.32.75-1.34.77-1,2.35a.87.87,0,0,0,.22-.05l8.17-4.16A.84.84,0,0,0,58,23.47a2.12,2.12,0,0,0-.11-.21Zm-54.07,0c-1,1.6-1,1.73.58,2.51l6.94,3.56c.24.13.5.23.75.35l.24-.15c-.14-.59-.11-1.49-.49-1.72-2.61-1.6-5.31-3-8-4.55Z"/></svg>