<svg xmlns="http://www.w3.org/2000/svg" xmlns:xlink="http://www.w3.org/1999/xlink" width="78.703" height="82.902" viewBox="0 0 78.703 82.902"><defs><style>.a{fill:url(#a);}.b{filter:url(#b);}</style><linearGradient id="a" x1="0.5" x2="0.5" y2="1" gradientUnits="objectBoundingBox"><stop offset="0" stop-color="#64f9a0"/><stop offset="1" stop-color="#5ff5f9"/></linearGradient><filter id="b" x="0" y="0" width="78.703" height="82.902" filterUnits="userSpaceOnUse"><feOffset dy="3" input="SourceAlpha"/><feGaussianBlur stdDeviation="3" result="c"/><feFlood flood-color="#030312" flood-opacity="0.639"/><feComposite operator="in" in2="c"/><feComposite in="SourceGraphic"/></filter></defs><g class="b" transform="matrix(1, 0, 0, 1, 0, 0)"><path class="a" d="M11.728,46.876c0-4.72-.016-9.457.016-14.177a1.11,1.11,0,0,0-.735-1.16Q6.575,29.31,2.157,27.031a3.431,3.431,0,0,1-1.65-5.1q3.871-7.57,7.774-15.141a8.763,8.763,0,0,1,4.034-3.659A39.781,39.781,0,0,1,20.973.1a4,4,0,0,1,.9-.082C27.392.016,32.9-.1,38.416.082a19.1,19.1,0,0,1,5.717,1.372A33.691,33.691,0,0,1,49.98,4.247a7.172,7.172,0,0,1,2.352,2.63c2.646,4.949,5.161,9.979,7.742,14.961a4.032,4.032,0,0,1,.457,3.054,3.532,3.532,0,0,1-1.993,2.14c-2.924,1.486-5.847,3.005-8.787,4.459a1.245,1.245,0,0,0-.817,1.29q.049,13.818.033,27.635c0,1.993-.408,2.76-2.368,3.218a39.176,39.176,0,0,1-7.383,1.127q-8.82.245-17.672,0a55.383,55.383,0,0,1-7.3-1.062,4.563,4.563,0,0,1-1.339-.555,2.165,2.165,0,0,1-1.176-2.074c.016-4.737,0-9.473,0-14.193Zm5.161-43.07c-1.764.931-3.43,1.813-5.1,2.711a.907.907,0,0,0-.425,1.274c.784,2.336,1.47,4.72,2.189,7.072a18.083,18.083,0,0,1,.8,5.455c-.033,11.384-.016,22.768-.016,34.152,0,2.058,0,2.123,2.091,2.2,5.5.2,11.025.457,16.529.457,4.1,0,8.183-.392,12.282-.588.784-.033.964-.359.964-1.111q-.025-17.86,0-35.7a8.535,8.535,0,0,1,.229-2.336c.882-3.218,1.846-6.4,2.793-9.6a.871.871,0,0,0-.278-1.127,19.06,19.06,0,0,0-5.439-2.711c-.163.343-.294.6-.425.866a18.78,18.78,0,0,1-4.116,5.717,12.258,12.258,0,0,1-10.42,3.528,13.156,13.156,0,0,1-7.725-4.2A20.237,20.237,0,0,1,16.889,3.806ZM14.374,59.272a4.975,4.975,0,0,1-.049.67c-.163.833.245,1.176,1,1.307.915.147,1.813.376,2.728.49a103.3,103.3,0,0,0,16.513.506c3.348-.147,6.713-.49,10.045-.866,1.633-.18,1.65-.359,1.519-1.976,0-.049-.049-.082-.065-.1A188.323,188.323,0,0,1,14.374,59.272ZM11.6,23.928c.425-3.92-.784-10.878-2.3-13.393-1.617,3.136-3.2,6.223-4.835,9.391C6.861,21.266,9.2,22.572,11.6,23.928Zm44.491-3.969c-1.65-3.185-3.234-6.288-4.9-9.506-1.617,4.459-2.842,8.754-2.172,13.442C51.336,22.6,53.671,21.3,56.089,19.959ZM36.636,2.728H23.831a7.13,7.13,0,0,0,6.19,4.72A7.085,7.085,0,0,0,36.636,2.728Zm3.005.082c-1.8,4.263-4.573,7.3-9.391,7.3-4.851,0-7.644-3.071-9.424-7.268-.359.1-.686.163-1,.245-.065.016-.131.1-.229.163a15.318,15.318,0,0,0,5.276,6.582,8.89,8.89,0,0,0,6.811,1.552c4.655-.882,7.219-4.165,9.228-8.2C40.458,3.054,40.082,2.94,39.641,2.809ZM57.314,22.344c-.31.163-.572.294-.833.425-2.156,1.209-4.3,2.4-6.452,3.61-1.323.751-1.339.768-1.045,2.352a.942.942,0,0,0,.229-.049Q53.3,26.6,57.379,24.516a.838.838,0,0,0,.408-1.274C57.64,22.964,57.493,22.67,57.314,22.344Zm-54.062.033c-1,1.6-.964,1.731.572,2.515,2.319,1.192,4.622,2.368,6.942,3.561.245.131.506.229.751.343l.245-.147c-.147-.588-.114-1.486-.49-1.715C8.658,25.332,5.963,23.9,3.251,22.376Z" transform="translate(9.04 6.02)"/></g></svg>