<svg id="Layer_1" data-name="Layer 1" xmlns="http://www.w3.org/2000/svg" viewBox="0 0 55.66 65.32"><defs><style>.cls-1{fill:#c25cff;}</style></defs><path id="Path_7870-2" data-name="Path 7870-2" class="cls-1" d="M55.18,3.37a1.76,1.76,0,0,0-1.26-.53H45.55c0-.78,0-1.41,0-1.89a1,1,0,0,0-1-.95H11.16a1,1,0,0,0-1,1c0,.48-.05,1.11-.05,1.89H1.75A1.73,1.73,0,0,0,0,4.57H0v.08A39,39,0,0,0,2.91,18.34,15.28,15.28,0,0,0,16.15,28.4a27.77,27.77,0,0,0,7.13,8s2.7,1.07.22,10a1,1,0,0,1-1,.75H15.77a1,1,0,0,0-1,1V57a1,1,0,0,1-1,1H11.23a1,1,0,0,0-1,1v5.38a1,1,0,0,0,1,1h33.2a1,1,0,0,0,1-1V58.94a1,1,0,0,0-1-1H41.89a1,1,0,0,1-1-1V48.17a1,1,0,0,0-1-1H33.13a1,1,0,0,1-1-.76c-2.47-9,.22-10,.22-10a27.08,27.08,0,0,0,7.13-8A15.33,15.33,0,0,0,52.75,18.34,38.75,38.75,0,0,0,55.66,4.66,1.76,1.76,0,0,0,55.18,3.37ZM4.12,6.82h6.07a52.27,52.27,0,0,0,3.69,17.1C6.45,21.51,4.58,11.74,4.12,6.82Zm37.67,17.1a52.64,52.64,0,0,0,3.69-17.1h6.06C51.08,11.74,49.21,21.51,41.79,23.92Z"/></svg>