<svg xmlns="http://www.w3.org/2000/svg" xmlns:xlink="http://www.w3.org/1999/xlink" width="73.664" height="83.315" viewBox="0 0 73.664 83.315"><defs><style>.a{fill:url(#a);}.b{filter:url(#b);}</style><linearGradient id="a" x1="0.5" x2="0.5" y2="1" gradientUnits="objectBoundingBox"><stop offset="0" stop-color="#64f9a0"/><stop offset="1" stop-color="#5ff5f9"/></linearGradient><filter id="b" x="0" y="0" width="73.664" height="83.315" filterUnits="userSpaceOnUse"><feOffset dy="3" input="SourceAlpha"/><feGaussianBlur stdDeviation="3" result="c"/><feFlood flood-color="#030312" flood-opacity="0.639"/><feComposite operator="in" in2="c"/><feComposite in="SourceGraphic"/></filter></defs><g class="b" transform="matrix(1, 0, 0, 1, 0, 0)"><path class="a" d="M101.287,13.351a1.761,1.761,0,0,0-1.261-.534H91.658c0-.776-.024-1.407-.049-1.892a.989.989,0,0,0-.994-.946H57.267a.989.989,0,0,0-.994.946c-.024.485-.049,1.116-.049,1.892H47.856a1.739,1.739,0,0,0-1.746,1.746v.073a38.92,38.92,0,0,0,2.91,13.679A15.292,15.292,0,0,0,62.263,38.381a27.726,27.726,0,0,0,7.131,7.979s2.692,1.067.218,10.041a1.012,1.012,0,0,1-.97.752H61.875a1,1,0,0,0-.994.994v8.78a1,1,0,0,1-.994.994H57.339a1,1,0,0,0-.994.994V74.3a1,1,0,0,0,.994.994h33.2a1,1,0,0,0,.994-.994V68.916a1,1,0,0,0-.994-.994H88A1,1,0,0,1,87,66.928v-8.78a1,1,0,0,0-.994-.994H79.241a1.012,1.012,0,0,1-.97-.752c-2.474-8.974.218-10.041.218-10.041a27.036,27.036,0,0,0,7.131-7.979A15.321,15.321,0,0,0,98.862,28.316a38.921,38.921,0,0,0,2.91-13.679A1.736,1.736,0,0,0,101.287,13.351ZM50.233,16.8H56.3a52.4,52.4,0,0,0,3.687,17.1C52.561,31.493,50.694,21.719,50.233,16.8ZM87.9,33.894a52.4,52.4,0,0,0,3.687-17.1h6.063C97.188,21.719,95.321,31.493,87.9,33.894Z" transform="translate(-37.11 -3.98)"/></g></svg>