<svg xmlns="http://www.w3.org/2000/svg" xmlns:xlink="http://www.w3.org/1999/xlink" width="168.672" height="193.036" viewBox="0 0 168.672 193.036">
  <defs>
    <linearGradient id="linear-gradient" x1="0.5" x2="0.5" y2="1" gradientUnits="objectBoundingBox">
      <stop offset="0" stop-color="#64f9a0"/>
      <stop offset="1" stop-color="#5ff5f9"/>
    </linearGradient>
  </defs>
  <path id="Path_9330" data-name="Path 9330" d="M1265.06,119l8.838-32.984h-7.618a10.92,10.92,0,0,0-10.549,8.095L1249.063,119h-12l8.838-32.984h-7.617a10.92,10.92,0,0,0-10.549,8.095L1221.063,119h-7.41a49.07,49.07,0,0,0-47.4,36.368l-24.3,90.7h45.064l-8.838,32.986h7.616a10.923,10.923,0,0,0,10.55-8.095l6.669-24.891h12l-8.838,32.986h7.618a10.922,10.922,0,0,0,10.549-8.095l6.669-24.891h7.914a49.071,49.071,0,0,0,47.4-36.369l24.3-90.7Zm-26.823,110.732h-76.452l18.449-68.139a35.425,35.425,0,0,1,34.225-26.258h2.313l-18.832,69.536h8.5l65.494.258A35.4,35.4,0,0,1,1238.236,229.731Zm40.988-53.139H1257.28l-4.49,16.76h14.164l1.358-5.076h-8.251l1.757-6.551h16.025l-4.87,18.177h-29.711l5.352-19.979,2.65-9.887h29.716Zm-2.627-17.641,1.375-5.138h-8.352l1.778-6.638h16.232l-4.94,18.409h-30.1l5.422-20.237a13.513,13.513,0,0,1,13.053-10.016h19.73l-1.778,6.643h-17.38a6.308,6.308,0,0,0-6.1,4.677l-3.294,12.3Z" transform="translate(-1141.954 -86.015)" fill="url(#linear-gradient)"/>
</svg>
