<svg id="Group_5855" data-name="Group 5855" xmlns="http://www.w3.org/2000/svg" xmlns:xlink="http://www.w3.org/1999/xlink" width="212.057" height="212.058" viewBox="0 0 212.057 212.058">
  <defs>
    <linearGradient id="linear-gradient" x1="0.5" x2="0.5" y2="1" gradientUnits="objectBoundingBox">
      <stop offset="0" stop-color="#64f9a0"/>
      <stop offset="1" stop-color="#5ff5f9"/>
    </linearGradient>
  </defs>
  <path id="Path_9297" data-name="Path 9297" d="M114.1,195.455v-1.508a80.3,80.3,0,0,0,17.773-1.995l.336,1.47A81.725,81.725,0,0,1,114.1,195.455Zm-4.562-.124a82.1,82.1,0,0,1-9.069-1l.25-1.488a80.741,80.741,0,0,0,8.9.987Zm-13.549-1.887a80.985,80.985,0,0,1-17.211-6.008l.655-1.36a79.415,79.415,0,0,0,16.89,5.9Zm40.639-1.161-.418-1.45a79.468,79.468,0,0,0,8.452-2.962l.578,1.394A81.2,81.2,0,0,1,136.633,192.283ZM149.4,187.4l-.656-1.358a80.068,80.068,0,0,0,15.13-9.529l.941,1.178A81.6,81.6,0,0,1,149.4,187.4Zm-74.682-2.061a81.928,81.928,0,0,1-7.728-4.859l.873-1.23a80.114,80.114,0,0,0,7.585,4.769Zm-11.377-7.6a82.012,82.012,0,0,1-12.9-12.877l1.178-.943a80.41,80.41,0,0,0,12.658,12.64Zm104.959-2.99L167.3,173.62a80.58,80.58,0,0,0,6.334-6.336l1.125,1.006A82.174,82.174,0,0,1,168.3,174.744Zm9.4-9.94-1.179-.941a80.06,80.06,0,0,0,9.529-15.141l1.359.655A81.545,81.545,0,0,1,177.7,164.8Zm-130-3.588a81.826,81.826,0,0,1-4.868-7.716l1.319-.732a80.415,80.415,0,0,0,4.777,7.574Zm-6.967-11.763a80.941,80.941,0,0,1-6.036-17.2l1.471-.336A79.428,79.428,0,0,0,42.092,148.8Zm148.549-4.248-1.394-.578a79.6,79.6,0,0,0,2.958-8.458l1.45.417A81.328,81.328,0,0,1,189.283,145.205Zm4.15-13.04-1.471-.335a80.342,80.342,0,0,0,1.985-17.774v-.184h1.508v.18A81.866,81.866,0,0,1,193.433,132.165ZM33.808,127.779a81.987,81.987,0,0,1-1.022-9.067l1.506-.085a80.6,80.6,0,0,0,1,8.9Zm.356-13.632H32.656v-.092a81.859,81.859,0,0,1,2-18.019l1.471.333a80.354,80.354,0,0,0-1.964,17.685Zm159.648-4.754a80.549,80.549,0,0,0-1.012-8.9l1.487-.255a82,82,0,0,1,1.032,9.066ZM191.921,96.1a79.447,79.447,0,0,0-5.942-16.868l1.358-.658a80.969,80.969,0,0,1,6.055,17.189ZM37.239,92.031l-1.45-.416a80.976,80.976,0,0,1,3-8.622l1.395.576A79.588,79.588,0,0,0,37.239,92.031Zm4.779-12.558-1.36-.654a81.611,81.611,0,0,1,9.692-15.437l1.18.94A80.092,80.092,0,0,0,42.017,79.472Zm141.9-4.208a80.2,80.2,0,0,0-4.786-7.568l1.228-.876a81.675,81.675,0,0,1,4.877,7.712Zm-7.488-11.14A80.436,80.436,0,0,0,163.754,51.5l.939-1.18A81.942,81.942,0,0,1,177.6,63.182ZM54.418,60.9l-1.125-1a82.163,82.163,0,0,1,6.445-6.461l1.007,1.124A80.434,80.434,0,0,0,54.418,60.9Zm9.744-9.239-.943-1.177a81.5,81.5,0,0,1,15.4-9.728l.658,1.358A80.065,80.065,0,0,0,64.161,51.657Zm96.008-2.847a79.978,79.978,0,0,0-7.59-4.76l.728-1.321a81.61,81.61,0,0,1,7.734,4.85Zm-11.579-6.815a79.354,79.354,0,0,0-16.9-5.876l.332-1.471a80.885,80.885,0,0,1,17.218,5.988ZM83.36,40.274l-.581-1.392a81.068,81.068,0,0,1,8.61-3.028l.419,1.449A79.493,79.493,0,0,0,83.36,40.274ZM96.145,36.18l-.336-1.47a81.829,81.829,0,0,1,18.105-2.054l0,1.508A80.325,80.325,0,0,0,96.145,36.18Zm31.153-.923a80.292,80.292,0,0,0-8.9-.975l.081-1.507a81.851,81.851,0,0,1,9.071.995Z" transform="translate(-8.027 -8.027)" fill="url(#linear-gradient)"/>
  <path id="Path_9298" data-name="Path 9298" d="M112.005,199.7a87.689,87.689,0,1,1,87.69-87.69A87.789,87.789,0,0,1,112.005,199.7Zm0-172.362a84.673,84.673,0,1,0,84.673,84.672A84.768,84.768,0,0,0,112.005,27.334Z" transform="translate(-5.977 -5.977)" fill="url(#linear-gradient)"/>
  <path id="Path_9299" data-name="Path 9299" d="M108.266,207.429a99.447,99.447,0,0,1-26.292-3.524l2-7.274a91.854,91.854,0,0,0,24.3,3.256,93.037,93.037,0,0,0,11.093-.664l.9,7.487A100.421,100.421,0,0,1,108.266,207.429ZM129.4,205.17l-1.6-7.369a90.766,90.766,0,0,0,32.53-14.136l4.291,6.2A98.223,98.223,0,0,1,129.4,205.17Zm-56.246-4.138a98.679,98.679,0,0,1-32.591-20.31l5.15-5.509a91.186,91.186,0,0,0,30.111,18.765ZM172,184.241l-4.85-5.776a91.52,91.52,0,0,0,22.272-27.629l6.676,3.51A99.035,99.035,0,0,1,172,184.241ZM34.1,174.085a98.624,98.624,0,0,1-19.466-33.1l7.12-2.488a91.085,91.085,0,0,0,17.986,30.581Zm165.92-28.141-6.976-2.868a91.088,91.088,0,0,0,6.844-34.809v-.21h7.542v.191A98.627,98.627,0,0,1,200.018,145.944ZM11.989,132.094a100.057,100.057,0,0,1-1.826-38.347l7.461,1.1a92.538,92.538,0,0,0,1.687,35.445ZM199.472,99.506a90.713,90.713,0,0,0-10.147-33.983L195.992,62A98.2,98.2,0,0,1,206.98,98.794ZM19.264,86.439l-7.326-1.791A98.329,98.329,0,0,1,28.144,49.833l6.09,4.449A90.812,90.812,0,0,0,19.264,86.439ZM184.973,58.146a91.6,91.6,0,0,0-24.8-25.386l4.278-6.212a99.149,99.149,0,0,1,26.832,27.466ZM39.606,47.605l-5.65-5a98.943,98.943,0,0,1,30.5-23.324l3.336,6.764A91.471,91.471,0,0,0,39.606,47.605ZM152.9,28.236A90.658,90.658,0,0,0,119.162,17.29l.887-7.489a98.167,98.167,0,0,1,36.528,11.852ZM75.642,22.627,72.956,15.58a98.778,98.778,0,0,1,35.31-6.473q1.275,0,2.541.032l-.192,7.539q-1.171-.029-2.349-.029A91.263,91.263,0,0,0,75.642,22.627Z" transform="translate(-2.238 -2.238)" fill="url(#linear-gradient)"/>
  <path id="Path_9300" data-name="Path 9300" d="M115.428,192.614a77.185,77.185,0,1,1,77.185-77.185A77.272,77.272,0,0,1,115.428,192.614Zm0-151.354A74.168,74.168,0,1,0,189.6,115.429,74.252,74.252,0,0,0,115.428,41.261Z" transform="translate(-9.4 -9.4)" fill="url(#linear-gradient)"/>
  <path id="Path_9301" data-name="Path 9301" d="M119.9,183.36A63.457,63.457,0,1,1,183.36,119.9,63.529,63.529,0,0,1,119.9,183.36Zm0-125.406A61.949,61.949,0,1,0,181.851,119.9,62.018,62.018,0,0,0,119.9,57.954Z" transform="translate(-13.874 -13.874)" fill="url(#linear-gradient)"/>
  <g id="Group_5782" data-name="Group 5782" transform="translate(33.792 33.793)">
    <rect id="Rectangle_2779" data-name="Rectangle 2779" width="6.014" height="1.508" transform="matrix(0.981, -0.195, 0.195, 0.981, 137.049, 58.577)" fill="url(#linear-gradient)"/>
    <rect id="Rectangle_2780" data-name="Rectangle 2780" width="6.015" height="1.508" transform="translate(90.743 8.634) rotate(-73.14)" fill="url(#linear-gradient)"/>
    <rect id="Rectangle_2781" data-name="Rectangle 2781" width="1.508" height="6.015" transform="translate(102.793 131.004) rotate(-28.125)" fill="url(#linear-gradient)"/>
    <rect id="Rectangle_2782" data-name="Rectangle 2782" width="1.509" height="6.014" transform="translate(31.474 12.589) rotate(-33.754)" fill="url(#linear-gradient)"/>
    <rect id="Rectangle_2783" data-name="Rectangle 2783" width="1.508" height="6.015" transform="matrix(0.957, -0.29, 0.29, 0.957, 50.542, 3.315)" fill="url(#linear-gradient)"/>
    <rect id="Rectangle_2784" data-name="Rectangle 2784" width="1.509" height="6.014" transform="matrix(0.981, -0.195, 0.195, 0.981, 57.402, 1.526)" fill="url(#linear-gradient)"/>
    <rect id="Rectangle_2785" data-name="Rectangle 2785" width="1.509" height="6.014" transform="translate(25.827 16.875) rotate(-39.374)" fill="url(#linear-gradient)"/>
    <rect id="Rectangle_2786" data-name="Rectangle 2786" width="1.508" height="6.014" transform="translate(64.406 0.419) rotate(-5.626)" fill="url(#linear-gradient)"/>
    <rect id="Rectangle_2787" data-name="Rectangle 2787" width="1.508" height="6.014" transform="translate(71.483)" fill="url(#linear-gradient)"/>
    <rect id="Rectangle_2788" data-name="Rectangle 2788" width="6.014" height="1.508" transform="translate(77.979 6.257) rotate(-84.395)" fill="url(#linear-gradient)"/>
    <rect id="Rectangle_2789" data-name="Rectangle 2789" width="1.508" height="6.014" transform="translate(0.272 65.907) rotate(-84.377)" fill="url(#linear-gradient)"/>
    <rect id="Rectangle_2790" data-name="Rectangle 2790" width="1.508" height="6.015" transform="translate(1.232 58.882) rotate(-78.751)" fill="url(#linear-gradient)"/>
    <rect id="Rectangle_2791" data-name="Rectangle 2791" width="1.509" height="6.015" transform="translate(2.878 51.985) rotate(-73.123)" fill="url(#linear-gradient)"/>
    <rect id="Rectangle_2792" data-name="Rectangle 2792" width="1.508" height="6.015" transform="matrix(0.383, -0.924, 0.924, 0.383, 5.197, 45.284)" fill="url(#linear-gradient)"/>
    <rect id="Rectangle_2793" data-name="Rectangle 2793" width="1.508" height="6.014" transform="matrix(0.556, -0.832, 0.832, 0.556, 11.752, 32.728)" fill="url(#linear-gradient)"/>
    <rect id="Rectangle_2794" data-name="Rectangle 2794" width="1.509" height="6.014" transform="translate(15.918 26.993) rotate(-50.626)" fill="url(#linear-gradient)"/>
    <rect id="Rectangle_2795" data-name="Rectangle 2795" width="1.508" height="6.015" transform="matrix(0.471, -0.882, 0.882, 0.471, 8.165, 38.845)" fill="url(#linear-gradient)"/>
    <rect id="Rectangle_2796" data-name="Rectangle 2796" width="1.508" height="6.014" transform="matrix(0.707, -0.707, 0.707, 0.707, 20.625, 21.691)" fill="url(#linear-gradient)"/>
    <rect id="Rectangle_2797" data-name="Rectangle 2797" width="1.508" height="6.015" transform="translate(37.515 8.876) rotate(-28.125)" fill="url(#linear-gradient)"/>
    <rect id="Rectangle_2798" data-name="Rectangle 2798" width="1.508" height="6.015" transform="matrix(0.924, -0.383, 0.383, 0.924, 43.891, 5.774)" fill="url(#linear-gradient)"/>
    <rect id="Rectangle_2799" data-name="Rectangle 2799" width="6.014" height="1.508" transform="translate(126.884 34.816) rotate(-33.768)" fill="url(#linear-gradient)"/>
    <rect id="Rectangle_2800" data-name="Rectangle 2800" width="6.015" height="1.509" transform="translate(135.402 52.288) rotate(-16.887)" fill="url(#linear-gradient)"/>
    <rect id="Rectangle_2801" data-name="Rectangle 2801" width="6.014" height="1.508" transform="translate(138.069 64.995) rotate(-5.633)" fill="url(#linear-gradient)"/>
    <rect id="Rectangle_2802" data-name="Rectangle 2802" width="6.015" height="1.508" transform="matrix(0.882, -0.472, 0.472, 0.882, 130.293, 40.351)" fill="url(#linear-gradient)"/>
    <rect id="Rectangle_2803" data-name="Rectangle 2803" width="6.015" height="1.508" transform="translate(133.143 46.192) rotate(-22.508)" fill="url(#linear-gradient)"/>
    <rect id="Rectangle_2804" data-name="Rectangle 2804" width="6.014" height="1.509" transform="translate(122.949 29.641) rotate(-39.354)" fill="url(#linear-gradient)"/>
    <rect id="Rectangle_2805" data-name="Rectangle 2805" width="6.014" height="1.509" transform="translate(84.418 7.13) rotate(-78.739)" fill="url(#linear-gradient)"/>
    <rect id="Rectangle_2806" data-name="Rectangle 2806" width="6.015" height="1.508" transform="translate(96.887 10.753) rotate(-67.492)" fill="url(#linear-gradient)"/>
    <rect id="Rectangle_2807" data-name="Rectangle 2807" width="6.014" height="1.508" transform="translate(118.53 24.877) rotate(-45)" fill="url(#linear-gradient)"/>
    <rect id="Rectangle_2808" data-name="Rectangle 2808" width="6.014" height="1.509" transform="translate(113.665 20.566) rotate(-50.606)" fill="url(#linear-gradient)"/>
    <rect id="Rectangle_2809" data-name="Rectangle 2809" width="6.015" height="1.508" transform="matrix(0.472, -0.882, 0.882, 0.472, 102.793, 13.468)" fill="url(#linear-gradient)"/>
    <rect id="Rectangle_2810" data-name="Rectangle 2810" width="6.014" height="1.509" transform="matrix(0.556, -0.831, 0.831, 0.556, 108.404, 16.752)" fill="url(#linear-gradient)"/>
    <rect id="Rectangle_2811" data-name="Rectangle 2811" width="1.509" height="6.014" transform="matrix(0.831, -0.556, 0.556, 0.831, 108.404, 127.721)" fill="url(#linear-gradient)"/>
    <rect id="Rectangle_2812" data-name="Rectangle 2812" width="1.509" height="6.014" transform="translate(113.665 123.906) rotate(-39.374)" fill="url(#linear-gradient)"/>
    <rect id="Rectangle_2813" data-name="Rectangle 2813" width="1.508" height="6.013" transform="matrix(0.707, -0.707, 0.707, 0.707, 118.53, 119.597)" fill="url(#linear-gradient)"/>
    <rect id="Rectangle_2814" data-name="Rectangle 2814" width="1.508" height="6.015" transform="matrix(0.924, -0.383, 0.383, 0.924, 96.888, 133.719)" fill="url(#linear-gradient)"/>
    <rect id="Rectangle_2815" data-name="Rectangle 2815" width="1.508" height="6.015" transform="matrix(0.957, -0.29, 0.29, 0.957, 90.742, 135.839)" fill="url(#linear-gradient)"/>
    <rect id="Rectangle_2816" data-name="Rectangle 2816" width="1.509" height="6.014" transform="matrix(0.981, -0.195, 0.195, 0.981, 84.418, 137.343)" fill="url(#linear-gradient)"/>
    <rect id="Rectangle_2817" data-name="Rectangle 2817" width="1.508" height="6.014" transform="translate(77.978 138.216) rotate(-5.623)" fill="url(#linear-gradient)"/>
    <rect id="Rectangle_2818" data-name="Rectangle 2818" width="1.508" height="6.014" transform="translate(71.483 138.46)" fill="url(#linear-gradient)"/>
    <rect id="Rectangle_2819" data-name="Rectangle 2819" width="6.014" height="1.508" transform="translate(138.46 71.482)" fill="url(#linear-gradient)"/>
    <rect id="Rectangle_2820" data-name="Rectangle 2820" width="1.508" height="6.014" transform="matrix(0.098, -0.995, 0.995, 0.098, 138.069, 79.478)" fill="url(#linear-gradient)"/>
    <rect id="Rectangle_2821" data-name="Rectangle 2821" width="1.508" height="6.014" transform="matrix(0.195, -0.981, 0.981, 0.195, 137.049, 85.897)" fill="url(#linear-gradient)"/>
    <rect id="Rectangle_2822" data-name="Rectangle 2822" width="1.508" height="6.015" transform="matrix(0.29, -0.957, 0.957, 0.29, 135.402, 92.186)" fill="url(#linear-gradient)"/>
    <rect id="Rectangle_2823" data-name="Rectangle 2823" width="1.508" height="6.014" transform="translate(126.884 109.657) rotate(-56.246)" fill="url(#linear-gradient)"/>
    <rect id="Rectangle_2824" data-name="Rectangle 2824" width="1.509" height="6.014" transform="translate(122.949 114.831) rotate(-50.626)" fill="url(#linear-gradient)"/>
    <rect id="Rectangle_2825" data-name="Rectangle 2825" width="1.508" height="6.015" transform="matrix(0.383, -0.924, 0.924, 0.383, 133.143, 98.281)" fill="url(#linear-gradient)"/>
    <rect id="Rectangle_2826" data-name="Rectangle 2826" width="1.508" height="6.014" transform="matrix(0.471, -0.882, 0.882, 0.471, 130.293, 104.124)" fill="url(#linear-gradient)"/>
    <rect id="Rectangle_2827" data-name="Rectangle 2827" width="6.014" height="1.508" transform="translate(0 71.482)" fill="url(#linear-gradient)"/>
    <rect id="Rectangle_2828" data-name="Rectangle 2828" width="6.014" height="1.509" transform="translate(15.918 117.479) rotate(-39.354)" fill="url(#linear-gradient)"/>
    <rect id="Rectangle_2829" data-name="Rectangle 2829" width="6.014" height="1.508" transform="translate(11.752 111.746) rotate(-33.768)" fill="url(#linear-gradient)"/>
    <rect id="Rectangle_2830" data-name="Rectangle 2830" width="6.014" height="1.508" transform="translate(8.165 105.628) rotate(-28.117)" fill="url(#linear-gradient)"/>
    <rect id="Rectangle_2831" data-name="Rectangle 2831" width="6.015" height="1.508" transform="translate(5.197 99.189) rotate(-22.508)" fill="url(#linear-gradient)"/>
    <rect id="Rectangle_2832" data-name="Rectangle 2832" width="6.013" height="1.508" transform="translate(20.625 122.782) rotate(-45)" fill="url(#linear-gradient)"/>
    <rect id="Rectangle_2833" data-name="Rectangle 2833" width="6.015" height="1.508" transform="matrix(0.981, -0.195, 0.195, 0.981, 1.232, 85.592)" fill="url(#linear-gradient)"/>
    <rect id="Rectangle_2834" data-name="Rectangle 2834" width="6.014" height="1.508" transform="translate(0.272 78.567) rotate(-5.633)" fill="url(#linear-gradient)"/>
    <rect id="Rectangle_2835" data-name="Rectangle 2835" width="6.015" height="1.508" transform="translate(2.878 92.487) rotate(-16.86)" fill="url(#linear-gradient)"/>
    <rect id="Rectangle_2836" data-name="Rectangle 2836" width="6.015" height="1.508" transform="translate(43.89 138.699) rotate(-67.492)" fill="url(#linear-gradient)"/>
    <rect id="Rectangle_2837" data-name="Rectangle 2837" width="6.015" height="1.508" transform="matrix(0.472, -0.882, 0.882, 0.472, 37.514, 135.596)" fill="url(#linear-gradient)"/>
    <rect id="Rectangle_2838" data-name="Rectangle 2838" width="6.015" height="1.508" transform="translate(50.542 141.158) rotate(-73.14)" fill="url(#linear-gradient)"/>
    <rect id="Rectangle_2839" data-name="Rectangle 2839" width="6.014" height="1.509" transform="translate(25.826 127.598) rotate(-50.606)" fill="url(#linear-gradient)"/>
    <rect id="Rectangle_2840" data-name="Rectangle 2840" width="6.015" height="1.509" transform="matrix(0.556, -0.831, 0.831, 0.556, 31.474, 131.884)" fill="url(#linear-gradient)"/>
    <rect id="Rectangle_2841" data-name="Rectangle 2841" width="6.014" height="1.508" transform="translate(64.407 144.054) rotate(-84.395)" fill="url(#linear-gradient)"/>
    <rect id="Rectangle_2842" data-name="Rectangle 2842" width="6.014" height="1.509" transform="translate(57.402 142.947) rotate(-78.739)" fill="url(#linear-gradient)"/>
  </g>
  <path id="Path_9302" data-name="Path 9302" d="M106.028,212.058A106.029,106.029,0,1,1,212.057,106.029,106.148,106.148,0,0,1,106.028,212.058Zm0-209.041A103.012,103.012,0,1,0,209.04,106.029,103.128,103.128,0,0,0,106.028,3.017Z" fill="url(#linear-gradient)"/>
  <g id="Group_5783" data-name="Group 5783" transform="translate(46.964 46.965)">
    <path id="Path_9303" data-name="Path 9303" d="M117.848,143.787l8.672-32.019h-1.065a16.313,16.313,0,0,0-15.761,12.091l-8.5,31.377h35.2a16.305,16.305,0,0,0,15.518-11.33l-30.158-.119Z" transform="translate(-71.839 -74.437)" fill="url(#linear-gradient)"/>
    <path id="Path_9304" data-name="Path 9304" d="M153.41,137.508l-2.465,9.2h13.682l2.243-8.37H159.49l-.809,3.016h3.8l-.625,2.338h-6.523l2.068-7.718h10.1l.808-3.018H154.63Z" transform="translate(-84.066 -79.645)" fill="url(#linear-gradient)"/>
    <path id="Path_9305" data-name="Path 9305" d="M165.413,114.825h8l.819-3.058h-9.085a6.223,6.223,0,0,0-6.011,4.612l-2.5,9.319H170.5l2.274-8.477H165.3l-.819,3.057h3.846l-.634,2.365h-6.607l1.517-5.664A2.906,2.906,0,0,1,165.413,114.825Z" transform="translate(-85.466 -74.437)" fill="url(#linear-gradient)"/>
    <path id="Path_9306" data-name="Path 9306" d="M122.9,68.642A54.259,54.259,0,1,0,177.16,122.9,54.32,54.32,0,0,0,122.9,68.642Zm27.645,66.767a22.6,22.6,0,0,1-21.826,16.747h-3.644L122,163.618a5.029,5.029,0,0,1-4.858,3.727h-3.507l4.07-15.189h-5.526l-3.071,11.462a5.029,5.029,0,0,1-4.858,3.727h-3.507l4.07-15.189H84.065l11.191-41.764a22.594,22.594,0,0,1,21.825-16.747h3.413l3.071-11.461a5.03,5.03,0,0,1,4.858-3.728h3.507l-4.07,15.189h5.526l3.071-11.461a5.03,5.03,0,0,1,4.858-3.728h3.507l-4.07,15.189h20.983Z" transform="translate(-63.836 -63.837)" fill="url(#linear-gradient)"/>
    <path id="Path_9307" data-name="Path 9307" d="M121.335,62.271A59.064,59.064,0,1,0,180.4,121.335,59.064,59.064,0,0,0,121.335,62.271Zm0,114.832A55.768,55.768,0,1,1,177.1,121.335,55.831,55.831,0,0,1,121.334,177.1Z" transform="translate(-62.27 -62.271)" fill="url(#linear-gradient)"/>
  </g>
</svg>
