<svg xmlns="http://www.w3.org/2000/svg" xmlns:xlink="http://www.w3.org/1999/xlink" width="65" height="65" viewBox="0 0 65 65">
  <defs>
    <linearGradient id="linear-gradient" x1="0.5" x2="0.5" y2="1" gradientUnits="objectBoundingBox">
      <stop offset="0" stop-color="#64f9a0"/>
      <stop offset="1" stop-color="#5ff5f9"/>
    </linearGradient>
  </defs>
  <g id="Group_5822" data-name="Group 5822" transform="translate(1683 -2077)">
    <rect id="Rectangle_2916" data-name="Rectangle 2916" width="65" height="65" transform="translate(-1683 2077)" fill="#fff" opacity="0"/>
    <path id="Path_9401" data-name="Path 9401" d="M88.757,12.586a1.361,1.361,0,0,0-.975-.412H81.315c0-.6-.019-1.087-.037-1.462a.765.765,0,0,0-.769-.731H54.733a.765.765,0,0,0-.769.731c-.019.375-.037.862-.037,1.462H47.46a1.344,1.344,0,0,0-1.35,1.35v.056a30.082,30.082,0,0,0,2.25,10.573,11.819,11.819,0,0,0,10.235,7.78A21.429,21.429,0,0,0,64.106,38.1s2.081.825.169,7.761a.782.782,0,0,1-.75.581h-5.23a.772.772,0,0,0-.769.769V54a.772.772,0,0,1-.769.769H54.789a.772.772,0,0,0-.769.769v4.162a.772.772,0,0,0,.769.769H80.453a.772.772,0,0,0,.769-.769V55.533a.772.772,0,0,0-.769-.769H78.484A.772.772,0,0,1,77.716,54V47.21a.772.772,0,0,0-.769-.769h-5.23a.782.782,0,0,1-.75-.581c-1.912-6.936.169-7.761.169-7.761a20.9,20.9,0,0,0,5.511-6.167,11.842,11.842,0,0,0,10.235-7.78,30.082,30.082,0,0,0,2.25-10.573A1.342,1.342,0,0,0,88.757,12.586ZM49.3,15.248h4.687a40.5,40.5,0,0,0,2.849,13.216C51.1,26.608,49.653,19.053,49.3,15.248ZM78.409,28.464a40.5,40.5,0,0,0,2.849-13.216h4.687C85.589,19.053,84.146,26.608,78.409,28.464Z" transform="translate(-1718.299 2074.491)" fill="url(#linear-gradient)"/>
  </g>
</svg>
