<svg xmlns="http://www.w3.org/2000/svg" xmlns:xlink="http://www.w3.org/1999/xlink" width="32.207" height="37.791" viewBox="0 0 32.207 37.791"><defs><style>.a{fill:url(#a);}</style><linearGradient id="a" x1="0.5" x2="0.5" y2="1" gradientUnits="objectBoundingBox"><stop offset="0" stop-color="#64f9a0"/><stop offset="1" stop-color="#5ff5f9"/></linearGradient></defs><path class="a" d="M1316.093-669.483a1.013,1.013,0,0,0-.73-.309h-4.841c0-.449-.014-.814-.028-1.094a.573.573,0,0,0-.575-.547h-19.3a.572.572,0,0,0-.575.547c-.014.281-.028.646-.028,1.094h-4.841a1.006,1.006,0,0,0-1.01,1v.05a22.52,22.52,0,0,0,1.684,7.915,8.844,8.844,0,0,0,7.662,5.824,16.061,16.061,0,0,0,4.126,4.617s1.558.618.127,5.81a.588.588,0,0,1-.561.435h-3.915a.577.577,0,0,0-.575.575v5.08a.578.578,0,0,1-.575.575h-1.474a.578.578,0,0,0-.575.575v3.115a.578.578,0,0,0,.575.575h19.211a.578.578,0,0,0,.575-.575v-3.115a.578.578,0,0,0-.575-.575H1308.4a.578.578,0,0,1-.575-.575v-5.08a.578.578,0,0,0-.575-.575h-3.915a.587.587,0,0,1-.562-.435c-1.431-5.192.126-5.81.126-5.81a15.644,15.644,0,0,0,4.126-4.617,8.864,8.864,0,0,0,7.662-5.824,22.523,22.523,0,0,0,1.684-7.915A1,1,0,0,0,1316.093-669.483Zm-29.539,1.993h3.508a30.32,30.32,0,0,0,2.133,9.893C1287.9-658.986,1286.82-664.641,1286.554-667.49Zm21.793,9.893a30.324,30.324,0,0,0,2.133-9.893h3.508C1313.722-664.641,1312.641-658.986,1308.347-657.6Z" transform="translate(-1284.168 671.433)"/></svg>