<svg xmlns="http://www.w3.org/2000/svg" xmlns:xlink="http://www.w3.org/1999/xlink" width="36.586" height="40.971" viewBox="0 0 36.586 40.971"><defs><style>.a{fill:url(#a);}</style><linearGradient id="a" x1="0.5" x2="0.5" y2="1" gradientUnits="objectBoundingBox"><stop offset="0" stop-color="#64f9a0"/><stop offset="1" stop-color="#5ff5f9"/></linearGradient></defs><g transform="translate(0)"><path class="a" d="M788.495,362.522c-2.4.716-4.891,1.481-7.4,2.175a1.524,1.524,0,0,1-1.151-.281,2.324,2.324,0,0,0-3.316.222,2.256,2.256,0,0,0,.285,3.146,2.288,2.288,0,0,0,3.293-.39,2.077,2.077,0,0,1,.89-.591c2.165-.66,4.365-1.215,6.509-1.936,1.784-.6,3.48-1.461,5.265-2.054a3.212,3.212,0,0,0,2.547-3.192c.034-2.165,0-4.33.016-6.5a4.506,4.506,0,0,1,.2-1.4,18.541,18.541,0,0,0,.771-9.044,18.324,18.324,0,0,0-21.255-15.029c-10.351,1.976-17.054,12-14.571,22.049a26.824,26.824,0,0,1,.749,6.9c-.014,1.031-.029,2.063.006,3.093a3.053,3.053,0,0,0,3.147,3.122c.722.018,1.445.014,2.167,0,1.113-.02,1.6-.454,1.606-1.552q.034-4.9,0-9.795c-.007-1.055-.459-1.462-1.542-1.476-1.223-.016-2.447,0-3.693,0a15.959,15.959,0,0,1,25.836-16.388c5.619,4.881,6.39,12.285,4.789,16.393-1.311,0-2.575-.011-3.839,0a1.181,1.181,0,0,0-1.307,1.277C788.485,354.922,788.495,358.563,788.495,362.522Z" transform="translate(-760.066 -327.347)"/><path class="a" d="M788.495,362.522c0-3.959-.01-7.6.007-11.239a1.181,1.181,0,0,1,1.307-1.277c1.264-.014,2.528,0,3.839,0,1.6-4.109.83-11.513-4.789-16.393A15.959,15.959,0,0,0,763.024,350c1.247,0,2.47-.013,3.693,0,1.083.015,1.535.421,1.542,1.476q.032,4.9,0,9.795c-.007,1.1-.493,1.531-1.606,1.552-.722.013-1.445.017-2.167,0a3.053,3.053,0,0,1-3.147-3.122c-.035-1.03-.02-2.062-.006-3.093a26.824,26.824,0,0,0-.749-6.9c-2.484-10.053,4.22-20.073,14.571-22.049a18.324,18.324,0,0,1,21.255,15.029,18.541,18.541,0,0,1-.771,9.044,4.506,4.506,0,0,0-.2,1.4c-.02,2.165.018,4.331-.016,6.5a3.212,3.212,0,0,1-2.547,3.192c-1.786.593-3.481,1.454-5.265,2.054-2.144.721-4.344,1.275-6.509,1.936a2.077,2.077,0,0,0-.89.591,2.288,2.288,0,0,1-3.293.39,2.256,2.256,0,0,1-.285-3.146,2.324,2.324,0,0,1,3.316-.222,1.524,1.524,0,0,0,1.151.281C783.6,364,786.09,363.238,788.495,362.522Z" transform="translate(-760.066 -327.347)"/></g></svg>