<svg xmlns="http://www.w3.org/2000/svg" xmlns:xlink="http://www.w3.org/1999/xlink" width="59.506" height="34.368" viewBox="0 0 59.506 34.368"><defs><style>.a{fill:url(#a);}</style><linearGradient id="a" x1="0.5" x2="0.5" y2="1" gradientUnits="objectBoundingBox"><stop offset="0" stop-color="#64f9a0"/><stop offset="1" stop-color="#5ff5f9"/></linearGradient></defs><path class="a" d="M-2224.168-164.785a7.484,7.484,0,0,0,2.227.337h0a7.488,7.488,0,0,0,7.488-7.488,7.488,7.488,0,0,0-7.488-7.488h0a7.483,7.483,0,0,0-2.227.337,7.491,7.491,0,0,0-5.261,7.151A7.492,7.492,0,0,0-2224.168-164.785Z" transform="translate(2251.694 179.425)"/><path class="a" d="M-2177.906-137.583a9.688,9.688,0,0,0-8.24,4.587,13.6,13.6,0,0,1,1.871,6.9v1.654h16.065v-3.44A9.7,9.7,0,0,0-2177.906-137.583Z" transform="translate(2227.715 156.245)"/><path class="a" d="M-2175.246-158.695a6.1,6.1,0,0,0,6.1-6.1,6.1,6.1,0,0,0-6.1-6.1,6.1,6.1,0,0,0-6.1,6.1A6.1,6.1,0,0,0-2175.246-158.695Z" transform="translate(2225.056 174.698)"/><path class="a" d="M-2269.652-137.583a9.7,9.7,0,0,0-9.7,9.7v3.44h16.064V-126.1a13.6,13.6,0,0,1,1.871-6.9A9.688,9.688,0,0,0-2269.652-137.583Z" transform="translate(2279.348 156.245)"/><path class="a" d="M-2265.185-158.695a6.1,6.1,0,0,0,6.1-6.1,6.1,6.1,0,0,0-6.1-6.1,6.1,6.1,0,0,0-6.1,6.1A6.1,6.1,0,0,0-2265.185-158.695Z" transform="translate(2274.88 174.698)"/><path class="a" d="M-2227.467-138.529a12.115,12.115,0,0,0-10.888,7.027,11.168,11.168,0,0,0-.47,1.233,14.926,14.926,0,0,0-.58,4.357c0,.15.021,1.355.034,2.313v1.2h0v-1.19c.009.653.012,1.19,0,1.19h23.808v-2.57a16.54,16.54,0,0,0-1.041-6.521A11.9,11.9,0,0,0-2227.467-138.529Z" transform="translate(2257.22 156.769)"/></svg>