<svg id="Layer_1" data-name="Layer 1" xmlns="http://www.w3.org/2000/svg" xmlns:xlink="http://www.w3.org/1999/xlink" viewBox="0 0 16 16"><defs><style>.cls-1{fill:url(#linear-gradient);}</style><linearGradient id="linear-gradient" x1="0.04" y1="8" x2="15.96" y2="8" gradientUnits="userSpaceOnUse"><stop offset="0.01" stop-color="#79f8ad"/><stop offset="0.17" stop-color="#74f8b0"/><stop offset="0.36" stop-color="#66f9b8"/><stop offset="0.55" stop-color="#4ffac6"/><stop offset="0.76" stop-color="#2ffcda"/><stop offset="0.97" stop-color="#06fff2"/><stop offset="1" stop-color="#00fff6"/></linearGradient></defs><path class="cls-1" d="M16,2l-2.29,8.57A4.64,4.64,0,0,1,9.19,14H0L2.33,5.43A4.64,4.64,0,0,1,6.81,2Zm-3.65,8.13-6.18,0H5.32L7.1,3.54H6.88A3.35,3.35,0,0,0,3.65,6L1.91,12.46H9.13A3.34,3.34,0,0,0,12.31,10.13Zm1.48-5.47H12.26l-.17.63h.79l-.13.48H11.4l.31-1.16a.59.59,0,0,1,.57-.44h1.64l.17-.63H12.23a1.27,1.27,0,0,0-1.23,1L10.48,6.4h2.85Zm-.63,2.16h-2.8l-.25.93h0L9.6,9.64h2.81l.46-1.72H11.36l-.17.62H12L11.84,9H10.5l.43-1.58H13Z"/></svg>