<svg id="Layer_1" data-name="Layer 1" xmlns="http://www.w3.org/2000/svg" xmlns:xlink="http://www.w3.org/1999/xlink" viewBox="0 0 32 32"><defs><style>.cls-1{fill:url(#linear-gradient);}</style><linearGradient id="linear-gradient" x1="0.07" y1="16" x2="31.93" y2="16" gradientUnits="userSpaceOnUse"><stop offset="0.01" stop-color="#79f8ad"/><stop offset="0.17" stop-color="#74f8b0"/><stop offset="0.36" stop-color="#66f9b8"/><stop offset="0.55" stop-color="#4ffac6"/><stop offset="0.76" stop-color="#2ffcda"/><stop offset="0.97" stop-color="#06fff2"/><stop offset="1" stop-color="#00fff6"/></linearGradient></defs><path class="cls-1" d="M31.93,4,27.34,21.13A9.28,9.28,0,0,1,18.39,28H.07L4.66,10.87a9.28,9.28,0,0,1,9-6.87ZM24.62,20.27l-12.37-.05h-1.6L14.2,7.09h-.44A6.69,6.69,0,0,0,7.3,12L3.82,24.91H18.26A6.69,6.69,0,0,0,24.62,20.27Zm3-10.95H24.52l-.34,1.26h1.58l-.26,1H22.79l.62-2.33a1.2,1.2,0,0,1,1.16-.88h3.28l.33-1.25H24.46A2.55,2.55,0,0,0,22,9L21,12.8h5.68Zm-1.25,4.32H20.72l-.5,1.87h0l-1,3.77h5.61l.92-3.43h-3l-.33,1.24h1.56l-.26.95H21l.84-3.16H26Z"/></svg>