<svg id="Layer_1" data-name="Layer 1" xmlns="http://www.w3.org/2000/svg" viewBox="0 0 198.47 204.3"><defs><style>.cls-1,.cls-4{fill:#fff;}.cls-2{fill:#251d36;}.cls-3{fill:#663a8c;}.cls-4{opacity:0.2;isolation:isolate;}</style></defs><g id="Group_5697" data-name="Group 5697"><g id="Group_5695" data-name="Group 5695"><path id="Path_9159" data-name="Path 9159" class="cls-1" d="M17,204.3c-1.25,0-2.38-.06-3.37-.12l-1-.05A13.35,13.35,0,0,1,0,190.78V149.62a13.36,13.36,0,0,1,12.76-13.36c1.81-.08,3.63-.18,5.45-.29h.14c4.14-.24,8.41-.48,12.79-.51C46,108.05,61.07,80.35,76.1,53.05c-3.18-5.43-6.18-10.84-9.33-16.51q-2.16-3.9-4.38-7.87a13.35,13.35,0,0,1,5.12-18.21l5.13-2.88,6.62-3.72a13.38,13.38,0,0,1,18.12,5l1.41,2.46,2.44-4.43a13.34,13.34,0,0,1,18.09-5.3l11.84,6.44a13.39,13.39,0,0,1,5.33,18.13c-1.63,3-3.25,6-4.83,8.92l-.07.12c-3.25,6-6.36,11.75-9.57,17.51,15.48,27.34,31.06,55.09,46.37,82.58,1.5,0,3.12,0,4.91,0l5.79,0c2,0,4,0,6,0a13.39,13.39,0,0,1,13.37,13.37v41.77a13.36,13.36,0,0,1-11,13.16,42.87,42.87,0,0,1-5.41.62l-.69,0Z"/><path id="Path_9160" data-name="Path 9160" class="cls-2" d="M17,197.62c-1.06,0-2-.06-3-.11l-1,0a6.69,6.69,0,0,1-6.36-6.68V149.61a6.68,6.68,0,0,1,6.38-6.67l5.66-.3c4.37-.25,8.89-.5,13.42-.5h2.08a4.57,4.57,0,0,0,.83-.05,6.38,6.38,0,0,0,.63-1c15.65-29,31.64-58.27,47.52-87.1a5.63,5.63,0,0,0,.5-1.12,4.16,4.16,0,0,0-.35-.7c-3.7-6.2-7.12-12.37-10.75-18.9q-2.16-3.9-4.4-7.89a6.7,6.7,0,0,1,2.56-9.11l5.14-2.88L82.5,9.7a6.68,6.68,0,0,1,9.06,2.51L98.88,25l8.18-14.88a6.68,6.68,0,0,1,5.87-3.46,6.54,6.54,0,0,1,3.18.81c4.06,2.2,7.83,4.25,11.83,6.44A6.68,6.68,0,0,1,130.61,23q-2.48,4.52-4.86,9c-3.83,7.08-7.45,13.77-11.27,20.55,0,.08-.1.17-.16.25s.1.17.15.25c16.64,29.37,33.41,59.25,49.86,88.79.06.11.12.22.17.33h.22c2.51-.1,5.23-.14,8.56-.14l5.8,0q3,0,6,0a6.7,6.7,0,0,1,6.69,6.69h0v41.77a6.68,6.68,0,0,1-5.5,6.58,37,37,0,0,1-4.57.53H17Z"/><path id="Path_5499" data-name="Path 5499" class="cls-2" d="M165,148.79a6.23,6.23,0,0,1-6.5-3.74q-24.74-44.46-49.83-88.75a6.27,6.27,0,0,1,0-7.08c5.42-9.61,10.6-19.36,16.08-29.42l-11.81-6.43C108.3,21.81,103.81,29.94,99,38.71c-4.56-8-8.81-15.48-13.22-23.18-4,2.22-7.7,4.33-11.74,6.59,5.17,9.2,9.93,18,15.06,26.63,1.85,3.1,1.63,5.42,0,8.48q-23.93,43.44-47.5,87.06c-1.82,3.35-3.77,4.6-7.59,4.54-6.85-.12-13.74.47-20.61.78v41.17c1.21.06,2.42.16,3.63.16l164.38,0a30.92,30.92,0,0,0,3.72-.43V148.71C178.12,148.71,171.55,148.54,165,148.79Z"/><path id="Path_5499-2" data-name="Path 5499-2" class="cls-3" d="M165,148.79a6.23,6.23,0,0,1-6.5-3.74q-24.74-44.46-49.83-88.75a6.27,6.27,0,0,1,0-7.08c5.42-9.61,10.6-19.36,16.08-29.42l-11.81-6.43C108.3,21.81,103.81,29.94,99,38.71c-4.56-8-8.81-15.48-13.22-23.18-4,2.22-7.7,4.33-11.74,6.59,5.17,9.2,9.93,18,15.06,26.63,1.85,3.1,1.63,5.42,0,8.48q-23.93,43.44-47.5,87.06c-1.82,3.35-3.77,4.6-7.59,4.54-6.85-.12-13.74.47-20.61.78v41.17c1.21.06,2.42.16,3.63.16l164.38,0a30.92,30.92,0,0,0,3.72-.43V148.71C178.12,148.71,171.55,148.54,165,148.79Z"/></g><g id="_41XRFT.tif" data-name=" 41XRFT.tif"><g id="Group_420" data-name="Group 420"><g id="Group_419" data-name="Group 419"><g id="Group_411" data-name="Group 411"><path id="Path_736" data-name="Path 736" class="cls-2" d="M65.91,130.3v-4.06c.11-.92.17-1.86.33-2.77.71-3.94,1.37-7.9,2.2-11.81a50.68,50.68,0,0,1,2.1-7.46,32.73,32.73,0,0,1,2.87-5,7.48,7.48,0,0,1,1-1c-.07-.39.3-.6.79-.8a10.74,10.74,0,0,1,7.1-.21c.59.16,1,.3.91.91,1.54,1,3.21.45,4.85.65v.76c0,3.12,0,6.23,0,9.35a2.89,2.89,0,0,0,2.68,3.06h.35c5.67-.06,11.33,0,17,0a2.68,2.68,0,0,0,3-2.32,2.89,2.89,0,0,0,0-.72c0-3.12,0-6.23,0-9.35v-.78c1.59-.11,3.14.25,4.39-.5.2-.36.28-.78.48-.84,2.57-.78,5.16-1.09,7.72,0,.36.16.77.24.7.79,0,.08.16.2.27.3a3.3,3.3,0,0,1,.61.51c.72,1.11,1.46,2.22,2.11,3.38a15.24,15.24,0,0,1,1.33,2.83,123.57,123.57,0,0,1,3.67,16.82c.22,1.39.36,2.8.53,4.2v4.06c-.05.25-.1.5-.13.76a13.67,13.67,0,0,1-1.3,4.69,6,6,0,0,1-8,2.66,4.66,4.66,0,0,1-.68-.4,9.37,9.37,0,0,1-3.56-4.24c-1.18-2.86-2.23-5.76-3.29-8.66a2.52,2.52,0,0,0-1.25-1.45.42.42,0,0,0-.14.09,6.33,6.33,0,0,1-9,0,1.23,1.23,0,0,0-.76-.24q-5.49,0-11,0a1.45,1.45,0,0,0-.84.34,6.34,6.34,0,0,1-5.43,1.64,6.58,6.58,0,0,1-3.47-1.75,2.23,2.23,0,0,0-1.16,1.37c-.84,2.38-1.71,4.74-2.6,7.11a11.77,11.77,0,0,1-3.22,5c-2,1.7-4.14,2.46-6.68,1.36a7,7,0,0,1-4-5.2C66.21,132.36,66.08,131.32,65.91,130.3Zm22.7-15.07a4,4,0,0,0-4,3.9v.05a4,4,0,1,0,8,.09h0a4,4,0,0,0-3.94-4h0Zm21.47,0a4,4,0,0,0-4,3.88h0v0a4,4,0,0,0,3.92,4h0a4,4,0,0,0,4-3.92h0a4,4,0,0,0-3.92-4Zm10.39-9.12a2.05,2.05,0,0,0,2.1-2h0v0a2.1,2.1,0,0,0-2.06-2.14h0a2.15,2.15,0,0,0-2.08,2.1,2.1,2.1,0,0,0,2.07,2.08Zm-2.61,2.64a2.11,2.11,0,0,0-2.06-2.11,2.15,2.15,0,0,0-2.12,2.13,2.1,2.1,0,0,0,2.11,2,2.06,2.06,0,0,0,2.07-2h0Zm9.41,0a2.1,2.1,0,0,0-2-2.13,2.15,2.15,0,0,0-2.14,2.1,2.1,2.1,0,0,0,2.08,2.07,2.07,2.07,0,0,0,2.1-2h0Zm-4.7,4.66a2.1,2.1,0,0,0-2.08-2.08,2.14,2.14,0,0,0-2.09,2.09,2.1,2.1,0,0,0,2.11,2.1h0a2.08,2.08,0,0,0,2-2.1Zm-43.9.89a2.72,2.72,0,0,0,.9,0,1.26,1.26,0,0,0,.73-.53,3.33,3.33,0,0,0-1.21-3.71,1.08,1.08,0,0,0-1,.07,2.81,2.81,0,0,0-1.21,2.46c.06,1.71,0,1.73,1.78,1.73Zm0-11.15c-1.74,0-1.74,0-1.74,1.74V105a2.6,2.6,0,0,0,1.26,2.42,1,1,0,0,0,1,0,2.79,2.79,0,0,0,1.25-2.45c-.05-1.75,0-1.76-1.75-1.76Zm5.57,5.55c0-1.7,0-1.71-1.71-1.7h-.06a2.75,2.75,0,0,0-2.47,1.2.75.75,0,0,0,0,1.06h0a3,3,0,0,0,2.48,1.2c1.73-.06,1.73,0,1.73-1.77Zm-11.15,0c0,1.77,0,1.77,1.78,1.76h.07a2.72,2.72,0,0,0,2.39-1.22.75.75,0,0,0,0-1.06h0A2.93,2.93,0,0,0,74.8,107c-1.72.07-1.73,0-1.73,1.71Z"/><path id="Path_737" data-name="Path 737" class="cls-2" d="M89.15,98.72H110v10.16c0,1.39-.56,2-1.93,2H91c-1.18,0-1.85-.58-1.85-1.71,0-3.38,0-6.75,0-10.13A2.61,2.61,0,0,1,89.15,98.72Z"/></g></g></g></g><g id="Group_5696" data-name="Group 5696"><path id="Path_9161" data-name="Path 9161" class="cls-1" d="M19.51,170.85l-1.17-1.07,1.17-1.09V154.76H32.75l3.56,3.15v9.23l-2.14,2.6,2.14,2.66v9.25l-3.56,3.14H19.51ZM25.05,167h5.7V160.3h-5.7Zm0,12.25h5.7v-6.69h-5.7Z"/><path id="Path_9162" data-name="Path 9162" class="cls-1" d="M56.42,181.65l-3.57,3.14H42.52L39,181.65v-10.8l-1.17-1.07L39,168.69V157.91l3.53-3.15H52.85l3.57,3.15v10.78l1.15,1.09-1.15,1.07Zm-5.56-10.8-1.17-1.07,1.17-1.09V160.3H44.53v8.39l1.17,1.09-1.17,1.07v8.39h6.33Z"/><path id="Path_9163" data-name="Path 9163" class="cls-1" d="M76.51,181.65l-3.57,3.14H62.61l-3.53-3.14v-10.8l-1.17-1.07,1.17-1.09V157.91l3.53-3.15H72.94l3.57,3.15v10.78l1.15,1.09-1.15,1.07ZM71,170.85l-1.17-1.07L71,168.69V160.3H64.62v8.39l1.17,1.09-1.17,1.07v8.39H71Z"/><path id="Path_9164" data-name="Path 9164" class="cls-1" d="M95.74,160.3H90.23v8.39l1.15,1.09-1.15,1.07v13.94H84.67V170.85l-1.16-1.07,1.16-1.09V160.3H79.16v-5.54H95.73Z"/><path id="Path_9165" data-name="Path 9165" class="cls-1" d="M115.47,181.65l-3.64,3.14H102l-3.53-3.14v-10.8l-1.17-1.07,1.17-1.09V157.91l3.53-3.15h9.89l3.63,3.17v4.62h-5.54V160.3h-6v8.39l1.17,1.09L104,170.85v8.39h6v-2.42h5.54Z"/><path id="Path_9166" data-name="Path 9166" class="cls-1" d="M132.29,184.79,131,178.1h-5.81l-1.34,6.69h-5.66l6-30h7.8l6,30Zm-2.45-12.24-1.8-9-1.8,9Z"/><path id="Path_9167" data-name="Path 9167" class="cls-1" d="M161.38,184.79h-5.56V167.87L151,178.19l-4.81-10.32v16.92h-5.55V170.85l-1.16-1.07,1.16-1.09V154.76h5.55L151,165.08l4.84-10.32h5.56v13.93l1.15,1.09-1.15,1.07Z"/><path id="Path_9168" data-name="Path 9168" class="cls-1" d="M164,170.85l-1.17-1.07,1.17-1.09Zm16.72.56-3.59,3.19h-7.59v10.19H164v-30h13.13l3.59,3.17Zm-5.54-2.36V160.3h-5.64v8.75Z"/></g><path id="Path_9169" data-name="Path 9169" class="cls-4" d="M98.79,204.3l82.59,0h.68a44.58,44.58,0,0,0,5.41-.63,13.35,13.35,0,0,0,11-13.15V148.72a13.39,13.39,0,0,0-13.37-13.37c-2,0-4,0-6,0l-5.79,0c-1.78,0-3.4,0-4.91,0C153.08,107.84,137.5,80.09,122,52.75c3.22-5.77,6.32-11.5,9.58-17.52l.06-.11c1.59-2.95,3.21-5.92,4.83-8.92a13.38,13.38,0,0,0-5.32-18.13L119.32,1.62a13.36,13.36,0,0,0-18.09,5.31l-2.44,4.42Z"/></g></svg>