<svg id="Layer_1" data-name="Layer 1" xmlns="http://www.w3.org/2000/svg" viewBox="0 0 18.19 20.32"><defs><style>.cls-1{fill:#9a9aa0;}</style></defs><path id="Path_6072" data-name="Path 6072" class="cls-1" d="M14.12,17.43v-5.6a.59.59,0,0,1,.54-.64h2A7.77,7.77,0,0,0,14.3,3,8,8,0,0,0,1.42,11.19H3.26c.54,0,.77.21.77.74,0,1.62,0,3.25,0,4.88,0,.54-.24.76-.8.77q-.54,0-1.08,0A1.52,1.52,0,0,1,.58,16.11V16c0-.51,0-1,0-1.54A13.34,13.34,0,0,0,.21,11,9.1,9.1,0,0,1,18,7.16c0,.13.06.26.08.38a9.22,9.22,0,0,1-.39,4.51,2.37,2.37,0,0,0-.1.7c0,1.08,0,2.16,0,3.24a1.61,1.61,0,0,1-1.27,1.59c-.89.3-1.74.72-2.63,1-1.07.36-2.16.64-3.24,1a1.13,1.13,0,0,0-.45.29,1.13,1.13,0,0,1-1.59.23l-.05,0a1.13,1.13,0,0,1-.14-1.57,1.15,1.15,0,0,1,1.63-.13l0,0a.8.8,0,0,0,.58.14C11.69,18.17,12.92,17.79,14.12,17.43Z"/></svg>