<svg xmlns="http://www.w3.org/2000/svg" xmlns:xlink="http://www.w3.org/1999/xlink" width="18.234" height="20.42" viewBox="0 0 18.234 20.42">
  <defs>
    <linearGradient id="linear-gradient" x1="0.5" x2="0.5" y2="1" gradientUnits="objectBoundingBox">
      <stop offset="0" stop-color="#64f9a0"/>
      <stop offset="1" stop-color="#5ff5f9"/>
    </linearGradient>
  </defs>
  <g id="yoCTvk.tif" transform="translate(-760.066 -327.347)">
    <g id="Group_2685" data-name="Group 2685" transform="translate(760.066 327.347)">
      <path id="Path_6071" data-name="Path 6071" d="M774.235,344.878c-1.2.357-2.438.738-3.687,1.084a.759.759,0,0,1-.574-.14,1.158,1.158,0,0,0-1.653.111,1.124,1.124,0,0,0,.142,1.568,1.141,1.141,0,0,0,1.641-.194,1.035,1.035,0,0,1,.444-.294c1.079-.329,2.176-.606,3.244-.965.889-.3,1.734-.728,2.624-1.024a1.6,1.6,0,0,0,1.27-1.591c.017-1.079,0-2.158.008-3.237a2.244,2.244,0,0,1,.1-.7,9.241,9.241,0,0,0,.384-4.508,9.1,9.1,0,1,0-17.856,3.5,13.37,13.37,0,0,1,.373,3.44c-.007.514-.014,1.028,0,1.541a1.522,1.522,0,0,0,1.568,1.556c.36.009.72.007,1.08,0,.555-.01.8-.226.8-.773q.017-2.441,0-4.882c0-.526-.229-.728-.768-.736-.61-.008-1.219,0-1.841,0a7.954,7.954,0,0,1,12.877-8.168,7.755,7.755,0,0,1,2.387,8.171c-.653,0-1.284-.005-1.913,0a.588.588,0,0,0-.651.636C774.23,341.091,774.235,342.905,774.235,344.878Z" transform="translate(-760.066 -327.347)" fill="url(#linear-gradient)"/>
      <path id="Path_6072" data-name="Path 6072" d="M774.235,344.878c0-1.973,0-3.788,0-5.6a.588.588,0,0,1,.651-.636c.63-.007,1.26,0,1.913,0a7.755,7.755,0,0,0-2.387-8.171,7.954,7.954,0,0,0-12.877,8.168c.621,0,1.231-.006,1.841,0,.54.007.765.21.768.736q.016,2.441,0,4.882c0,.547-.246.763-.8.773-.36.007-.72.009-1.08,0a1.522,1.522,0,0,1-1.568-1.556c-.017-.513-.01-1.028,0-1.541a13.37,13.37,0,0,0-.373-3.44,9.1,9.1,0,1,1,17.856-3.5,9.241,9.241,0,0,1-.384,4.508,2.244,2.244,0,0,0-.1.7c-.01,1.079.009,2.158-.008,3.237a1.6,1.6,0,0,1-1.27,1.591c-.89.3-1.735.725-2.624,1.024-1.069.359-2.165.636-3.244.965a1.035,1.035,0,0,0-.444.294,1.141,1.141,0,0,1-1.641.194,1.124,1.124,0,0,1-.142-1.568,1.158,1.158,0,0,1,1.653-.111.759.759,0,0,0,.574.14C771.8,345.616,773.036,345.235,774.235,344.878Z" transform="translate(-760.066 -327.347)" fill="url(#linear-gradient)"/>
    </g>
  </g>
</svg>
