<svg xmlns="http://www.w3.org/2000/svg" width="919.218" height="315.369" viewBox="0 0 919.218 315.369">
  <g id="Group_5790" data-name="Group 5790" opacity="0.054">
    <path id="Path_9288" data-name="Path 9288" d="M0,1.023H103.768V29.359H30.374V57.082H96.634V85.419H30.374v29.973h73.394v28.337H0ZM226.326,0V28.337h-69.32a6.78,6.78,0,0,0-6.315,5.1l-.2,1.636a6.382,6.382,0,0,0,3.468,5.906L208.8,71.153a60.142,60.142,0,0,1,14.062,8.761c4.687,4.286,7.747,11.624,7.747,19.78v10.6a30.765,30.765,0,0,1-9.579,22.422c-6.929,6.732-18.348,12.033-32.214,12.033h-68.7V116.406h68.7c7.142,0,11.215-2.847,11.215-6.111v-7.542a5.012,5.012,0,0,0-2.65-4.7L139.27,65.852c-11.616-6.323-19.158-16.925-19.158-29.768C120.112,15.7,136.015,0,157.005,0Zm28.566,1.023h73.394c10.6,0,19.363,3.46,26.5,10.4s10.6,15.494,10.6,25.687V59.937c0,20.181-15.9,36.288-37.106,36.288h-43.02v47.5H254.891Zm79.914,36.084c0-4.892-2.446-7.747-6.519-7.747h-43.02V67.889h43.02c4.074,0,6.519-3.06,6.519-7.951ZM469.389,0c25.081,0,43.83,18.758,43.83,43.02v58.71c0,24.263-18.749,43.021-43.83,43.021H431.677c-25.081,0-44.035-18.758-44.035-43.021V43.02a43.075,43.075,0,0,1,10.4-28.541C406.187,4.892,419.439,0,431.677,0Zm13.457,43.02c0-8.974-5.3-14.684-13.457-14.684H431.677c-8.156,0-13.661,5.71-13.661,14.684v58.71c0,8.974,5.505,14.675,13.661,14.675h37.711c8.156,0,13.457-5.7,13.457-14.675Zm58.956-42h73.386c10.6,0,19.371,3.46,26.5,10.4s10.6,15.494,10.6,25.687V60.551c0,6.519-3.264,13.661-8.156,18.553l-4.687,4.688a28.654,28.654,0,0,1-9.17,5.914l-1.432.409,35.879,53.614H630.28l-34.66-52.4H572.174v52.4H541.8Zm79.914,36.084c0-4.892-2.446-7.747-6.528-7.747H572.174V63h45.458a2.5,2.5,0,0,0,1.841-.614l.81-.818a4.891,4.891,0,0,0,1.431-3.665ZM665.578,1.023H788.307V29.359h-46.08V143.729H711.65V29.359H665.578ZM905.761,0V28.337h-69.32a6.78,6.78,0,0,0-6.315,5.1l-.2,1.636a6.382,6.382,0,0,0,3.468,5.906l54.841,30.177a60.143,60.143,0,0,1,14.062,8.761c4.687,4.286,7.747,11.624,7.747,19.78v10.6a30.765,30.765,0,0,1-9.579,22.422c-6.929,6.732-18.348,12.033-32.214,12.033h-68.7V116.406h68.7c7.142,0,11.215-2.847,11.215-6.111v-7.542a5.012,5.012,0,0,0-2.65-4.7L818.706,65.852c-11.616-6.323-19.158-16.925-19.158-29.768C799.547,15.7,815.45,0,836.441,0ZM0,171.64H103.768v28.337H30.374V227.7H96.634v28.337H30.374v29.973h73.394v28.337H0Zm223.88,0h31.805L208.591,314.346H162.306L115.016,171.64h31.8L182.5,286.009H188.4Zm128.873-1.023c25.081,0,43.83,18.758,43.83,43.021v58.71c0,24.263-18.749,43.021-43.83,43.021H315.042c-25.081,0-44.035-18.758-44.035-43.021v-58.71A43.076,43.076,0,0,1,281.4,185.1c8.148-9.587,21.4-14.479,33.637-14.479Zm13.457,43.021c0-8.974-5.3-14.684-13.457-14.684H315.042c-8.156,0-13.661,5.71-13.661,14.684v58.71c0,8.974,5.505,14.676,13.661,14.676h37.711c8.156,0,13.457-5.7,13.457-14.676Zm58.948-42h30.374V286.009h68.3v28.337H425.157Zm197.163,0h31.805L607.031,314.346H560.755l-47.3-142.706h31.805l35.674,114.369h5.915Zm51.209,0H777.3v28.337H703.9V227.7h66.253v28.337H703.9v29.973H777.3v28.337H673.529Zm128.26,0h73.394c25.073,0,44.035,18.758,44.035,43.012v56.673a42.278,42.278,0,0,1-10.4,28.345c-8.156,9.783-21.408,14.676-33.638,14.676H801.789Zm87.055,43.012c0-8.966-5.505-14.676-13.661-14.676h-43.02v86.033h43.02c8.156,0,13.661-5.71,13.661-14.684Z" fill="#5ff5f9"/>
  </g>
</svg>
