<svg xmlns="http://www.w3.org/2000/svg" xmlns:xlink="http://www.w3.org/1999/xlink" width="18.562" height="18.576" viewBox="0 0 18.562 18.576"><defs><style>.a{fill:url(#a);}</style><linearGradient id="a" x1="0.5" x2="0.5" y2="1" gradientUnits="objectBoundingBox"><stop offset="0" stop-color="#64f9a0"/><stop offset="1" stop-color="#5ff5f9"/></linearGradient></defs><path class="a" d="M1730.872-1138.414v7.021c-.219.018-.429.051-.639.051q-3.913.005-7.825,0c-1.1,0-1.382-.277-1.382-1.358q0-7.924,0-15.848c0-1.047.327-1.365,1.4-1.365q7.891,0,15.782,0c1.054,0,1.377.327,1.377,1.389q0,7.924,0,15.849c0,1.037-.292,1.328-1.344,1.333-1.412.007-2.824,0-4.285,0v-7.072c.6,0,1.188-.019,1.775.007.4.018.611-.1.647-.532.064-.768.164-1.533.259-2.382h-2.708c0-.755-.033-1.435.01-2.11a.922.922,0,0,1,.922-.946c.59-.041,1.182-.072,1.823-.11v-2.5a8.167,8.167,0,0,0-3.647.143,3.09,3.09,0,0,0-2.078,2.887c-.059.852-.011,1.711-.011,2.62h-2.439c0,.907-.017,1.762.021,2.615,0,.11.3.286.462.3C1729.6-1138.393,1730.217-1138.414,1730.872-1138.414Z" transform="translate(-1721.024 1149.915)"/></svg>