<svg xmlns="http://www.w3.org/2000/svg" xmlns:xlink="http://www.w3.org/1999/xlink" width="40.023" height="40.297" viewBox="0 0 40.023 40.297"><defs><style>.a{fill:url(#a);}</style><linearGradient id="a" x1="0.5" x2="0.5" y2="1" gradientUnits="objectBoundingBox"><stop offset="0" stop-color="#64f9a0"/><stop offset="1" stop-color="#5ff5f9"/></linearGradient></defs><g transform="translate(0 0)"><path class="a" d="M2070.381-1111.832c-3.672-.213-7.384-.158-11.007-.7-5.345-.8-8.611-4.771-8.824-10.248-.241-6.219-.151-12.457-.028-18.683a10.6,10.6,0,0,1,10.332-10.509c6.178-.181,12.371-.219,18.548-.028,6.436.2,10.657,4.409,10.867,10.815.2,6,.2,12.008.007,18-.217,6.545-4.379,10.64-10.884,10.96-2.993.148-6,.025-9,.025Zm16.427-20.345c0-2.954.077-5.911-.018-8.861a7.393,7.393,0,0,0-7.6-7.485q-8.791-.119-17.585,0a7.35,7.35,0,0,0-7.6,7.474q-.161,8.926,0,17.859a7.285,7.285,0,0,0,7.459,7.463q8.928.148,17.859,0a7.359,7.359,0,0,0,7.475-7.453C2086.883-1126.176,2086.808-1129.179,2086.808-1132.177Z" transform="translate(-2050.399 1152.128)"/><path class="a" d="M2088.743-1124a10.487,10.487,0,0,1-10.452,10.246,10.477,10.477,0,0,1-10.179-10.384,10.48,10.48,0,0,1,10.453-10.246A10.479,10.479,0,0,1,2088.743-1124Zm-3.566-.078a6.659,6.659,0,0,0-6.759-6.739,6.658,6.658,0,0,0-6.739,6.758,6.659,6.659,0,0,0,6.758,6.74A6.66,6.66,0,0,0,2085.177-1124.081Z" transform="translate(-2058.436 1144.079)"/><path class="a" d="M2107.11-1137.181a2.268,2.268,0,0,1-2.277,2.355,2.214,2.214,0,0,1-2.352-2.26,2.262,2.262,0,0,1,2.26-2.368A2.3,2.3,0,0,1,2107.11-1137.181Z" transform="translate(-2074.032 1146.378)"/></g></svg>