<svg xmlns="http://www.w3.org/2000/svg" xmlns:xlink="http://www.w3.org/1999/xlink" width="80.229" height="82.152" viewBox="0 0 80.229 82.152"><defs><style>.a{fill:url(#a);}.b{filter:url(#b);}</style><linearGradient id="a" x1="0.5" x2="0.5" y2="1" gradientUnits="objectBoundingBox"><stop offset="0" stop-color="#64f9a0"/><stop offset="1" stop-color="#5ff5f9"/></linearGradient><filter id="b" x="0" y="0" width="80.229" height="82.152" filterUnits="userSpaceOnUse"><feOffset dy="3" input="SourceAlpha"/><feGaussianBlur stdDeviation="3" result="c"/><feFlood flood-color="#030312" flood-opacity="0.639"/><feComposite operator="in" in2="c"/><feComposite in="SourceGraphic"/></filter></defs><g class="b" transform="matrix(1, 0, 0, 1, 0, 0)"><path class="a" d="M48.079,23.87l14.15-7.463L31.115,0,0,16.407,14.15,23.87,0,31.332l15.557,8.206L0,47.739l15.557,8.206,2.279,1.2,13.279,7.006,13.279-7.006,2.279-1.2,15.557-8.206-15.563-8.2,15.557-8.206ZM44.393,38.333,31.115,45.339,17.836,38.333,4.557,31.327,16.423,25.07,29.7,32.076l1.408.744,1.408-.744L45.8,25.07l11.871,6.262Z" transform="translate(9 6)"/></g></svg>