<svg xmlns="http://www.w3.org/2000/svg" xmlns:xlink="http://www.w3.org/1999/xlink" width="538" height="130.692" viewBox="0 0 538 130.692"><defs><style>.a{fill:#fff;}.b{fill:url(#c);}.c{filter:url(#a);}</style><filter id="a" x="0" y="0" width="538" height="130.692" filterUnits="userSpaceOnUse"><feOffset dx="6" dy="5" input="SourceAlpha"/><feGaussianBlur stdDeviation="3" result="b"/><feFlood flood-opacity="0.161"/><feComposite operator="in" in2="b"/><feComposite in="SourceGraphic"/></filter><linearGradient id="c" y1="0.5" x2="1" y2="0.5" gradientUnits="objectBoundingBox"><stop offset="0.008" stop-color="#79f8ad"/><stop offset="0.17" stop-color="#74f8af"/><stop offset="0.356" stop-color="#66f9b8"/><stop offset="0.555" stop-color="#4ffac6"/><stop offset="0.761" stop-color="#2efcd9"/><stop offset="0.973" stop-color="#05fef2"/><stop offset="1" stop-color="#00fff6"/></linearGradient></defs><g transform="translate(-3329.019 1836.561)"><g transform="translate(3332.019 -1832.561)"><path class="a" d="M5134.26-1615.2h32.234l10.217-38.131h-32.231Z" transform="translate(-4759.394 1690.609)"/><g class="c" transform="matrix(1, 0, 0, 1, -3, -4)"><path class="a" d="M3395.306-1832.486a43.242,43.242,0,0,0-41.709,32.005l-21.578,80.535,463.824.077a33.881,33.881,0,0,0,32.684-25.081l23.492-87.611Zm25.951,90.246h-46.6l13.869-51.765a21.839,21.839,0,0,1,21.094-16.187h.929l-14.213,53.044h27.986L3434.2-1794a21.839,21.839,0,0,1,21.095-16.188h.928l-13.869,51.765A21.839,21.839,0,0,1,3421.257-1742.24Zm81.776,0h-55.816l18.2-67.949h17.692L3468.9-1757.15h38.129Zm26.287,0h-17.687l14.213-53.044h-24.966l3.993-14.908h67.615l-3.993,14.908h-24.963Zm34.262,0,18.209-67.952h17.692l-18.209,67.952Zm94.805,0,9.857-36.783-34.666,35.9-15.425-35.9-9.855,36.783h-17.689l18.206-67.949h16.063l16.428,38.229,36.911-38.229h16.063l-18.206,67.949Zm98.764-16.187a21.838,21.838,0,0,1-21.095,16.187h-50.852L3699.074-1794a21.839,21.839,0,0,1,21.095-16.187h50.85Z" transform="translate(-3329.02 1836.56)"/></g></g><path class="b" d="M5437.849-1695.855H5408.5l5.287-19.732a13.176,13.176,0,0,1,12.727-9.765h19.237l-1.734,6.472h-16.946a6.154,6.154,0,0,0-5.944,4.561l-3.213,11.992h13.99l1.341-5.008H5425.1l1.735-6.472h15.826Zm-5.545,20.643h-15.826l-1.734,6.472h8.148l-.143.535a6.034,6.034,0,0,1-5.829,4.473h-9.359l4.435-16.552h21.667l1.734-6.472h-29.347l-7.9,29.5h19.238a13.176,13.176,0,0,0,12.727-9.766Z" transform="translate(-1636.373 -84.91)"/></g></svg>