<svg xmlns="http://www.w3.org/2000/svg" xmlns:xlink="http://www.w3.org/1999/xlink" width="78.363" height="58.33" viewBox="0 0 78.363 58.33">
  <defs>
    <linearGradient id="linear-gradient" x1="0.5" x2="0.5" y2="1" gradientUnits="objectBoundingBox">
      <stop offset="0" stop-color="#64f9a0"/>
      <stop offset="1" stop-color="#5ff5f9"/>
    </linearGradient>
  </defs>
  <g id="Group_5772" data-name="Group 5772" transform="translate(1824.406 -670.05)">
    <path id="Path_729_1_" d="M40.007,42.045q0,12.809-.006,25.612c0,2.825-.554,3.385-3.361,3.391q-8.758.009-17.521-.006c-2.636-.006-3.232-.625-3.232-3.332q-.009-25.9,0-51.8c0-2.583.572-3.161,3.173-3.167q8.961-.027,17.91.006c2.453.012,3.031.625,3.037,3.108Q40.016,28.947,40.007,42.045Z" transform="translate(-1813.09 657.322)" fill="url(#linear-gradient)"/>
    <path id="Path_730_1_" d="M-29.683,59.511q0-9.244.006-18.5c.006-2.831.714-3.544,3.509-3.544q8-.009,15.988,0c2.955.006,3.574.631,3.574,3.662Q-6.6,59.343-6.6,77.551c0,2.972-.666,3.645-3.6,3.65q-8,.009-15.988-.006c-2.819-.006-3.491-.7-3.491-3.568Q-29.694,68.57-29.683,59.511Z" transform="translate(-1794.72 647.174)" fill="url(#linear-gradient)"/>
    <path id="Path_731_1_" d="M86.326,76.9c0,3.721.012,7.442-.006,11.17-.012,2.412-.849,3.261-3.214,3.267q-8.368.018-16.743,0c-2.206-.006-3.055-.8-3.067-3q-.044-11.553.012-23.106c.012-2.217.82-2.99,3.073-3q8.368-.035,16.743-.006c2.318.006,3.19.914,3.2,3.308.018,3.786.006,7.572,0,11.358Z" transform="translate(-1832.379 637.018)" fill="url(#linear-gradient)"/>
  </g>
</svg>
