<svg xmlns="http://www.w3.org/2000/svg" width="1035.511" height="224.411" viewBox="0 0 1035.511 224.411"><defs><style>.a{fill:#fff;opacity:0.112;}</style></defs><path class="a" d="M-4119.105,551.067a86.112,86.112,0,0,0-83.058,63.735l-42.97,160.375,923.645.153a67.47,67.47,0,0,0,65.085-49.946l46.78-174.465Zm51.678,179.713h-92.794L-4132.6,627.7a43.488,43.488,0,0,1,42.007-32.234h1.849l-28.3,105.631h55.729l19.662-73.4a43.49,43.49,0,0,1,42.008-32.235h1.848l-27.619,103.083A43.489,43.489,0,0,1-4067.428,730.78Zm162.847,0h-111.148l36.25-135.312h35.23l-28.3,105.625h75.928Zm52.347,0h-35.22l28.3-105.631h-49.716l7.952-29.687h134.646l-7.952,29.687h-49.711Zm68.229,0,36.26-135.318h35.231l-36.261,135.318Zm188.792,0,19.629-73.248-69.032,71.491-30.716-71.491-19.625,73.248h-35.225l36.255-135.312h31.988l32.715,76.128,73.5-76.128h31.988l-36.255,135.312Zm154.667,0H-3541.81l27.619-103.078a43.489,43.489,0,0,1,42.007-32.233h101.26l-27.615,103.077A43.489,43.489,0,0,1-3440.546,730.777Zm121.938-45.705h-43.148l-8.832,32.962h18.637a12.018,12.018,0,0,0,11.608-8.909l.285-1.065h-16.227l3.454-12.889h31.516l-4.367,16.3a26.238,26.238,0,0,1-25.344,19.448h-38.309l15.74-58.739h58.441Zm20.619-76.859h-33.745a12.254,12.254,0,0,0-11.836,9.082l-6.4,23.88h27.859l2.671-9.973h-16.227l3.454-12.889h31.516l-9.577,35.75h-58.443l10.529-39.292a26.238,26.238,0,0,1,25.344-19.446h38.308Zm-180.3,16.945h64.185l-20.347,75.934h-64.189Z" transform="translate(4245.134 -550.918)"/></svg>