<svg id="Layer_1" data-name="Layer 1" xmlns="http://www.w3.org/2000/svg" viewBox="0 0 21.1 22.56"><defs><style>.cls-1{fill:#9a9aa0;}</style></defs><path id="Path_3313" data-name="Path 3313" class="cls-1" d="M4.1,16.3c0-1.64,0-3.29,0-4.93a.37.37,0,0,0-.25-.4c-1-.52-2.06-1-3.08-1.57A1.2,1.2,0,0,1,.08,7.86,1,1,0,0,1,.2,7.63L2.9,2.37A3,3,0,0,1,4.3,1.1,13.47,13.47,0,0,1,7.31,0a1.63,1.63,0,0,1,.31,0c1.92,0,3.83,0,5.75,0a6.74,6.74,0,0,1,2,.48,11.47,11.47,0,0,1,2,1,2.51,2.51,0,0,1,.82.92C19.13,4.11,20,5.86,20.9,7.6a1.4,1.4,0,0,1,.16,1.06,1.27,1.27,0,0,1-.7.74c-1,.52-2,1-3.05,1.55a.43.43,0,0,0-.28.45q0,4.8,0,9.6c0,.7-.15,1-.83,1.12a13.1,13.1,0,0,1-2.56.39c-2.05.06-4.09.06-6.14,0A17.87,17.87,0,0,1,5,22.14,1.6,1.6,0,0,1,4.5,22a.75.75,0,0,1-.41-.72c0-1.65,0-3.29,0-4.93Zm1.79-15-1.77.94A.32.32,0,0,0,4,2.69H4v0c.27.81.51,1.64.76,2.46A6.16,6.16,0,0,1,5,7.07C5,11,5,15,5,18.94c0,.72,0,.74.72.77,1.91.07,3.83.16,5.75.16,1.42,0,2.84-.14,4.26-.2.28,0,.34-.13.34-.39q0-6.21,0-12.41a2.79,2.79,0,0,1,.08-.81c.3-1.12.64-2.22,1-3.33a.3.3,0,0,0-.1-.39,6.58,6.58,0,0,0-1.89-.95l-.15.3a6.56,6.56,0,0,1-1.43,2A4.27,4.27,0,0,1,9.94,4.91,4.62,4.62,0,0,1,7.26,3.44,7.16,7.16,0,0,1,5.89,1.33ZM5,20.6a1.94,1.94,0,0,1,0,.24c-.06.29.09.41.35.45s.63.13,1,.17a36.55,36.55,0,0,0,5.73.18c1.17-.05,2.34-.17,3.5-.3.57-.07.57-.13.53-.69a0,0,0,0,0,0,0,65.29,65.29,0,0,1-11,0Zm-1-12.28a9.89,9.89,0,0,0-.8-4.65L1.57,6.93ZM19.51,6.94l-1.7-3.3a9.48,9.48,0,0,0-.75,4.67ZM12.75,1H8.3a2.47,2.47,0,0,0,2.15,1.64A2.45,2.45,0,0,0,12.75,1ZM13.8,1c-.63,1.48-1.59,2.54-3.26,2.54S7.88,2.45,7.26,1l-.34.09s0,0-.08,0A5.27,5.27,0,0,0,8.67,3.42,3.08,3.08,0,0,0,11,4a4.56,4.56,0,0,0,3.21-2.85L13.8,1Zm6.14,6.79-.29.15L17.41,9.17c-.46.26-.47.27-.37.82l.08,0L20,8.53a.31.31,0,0,0,.18-.38h0l0-.07Zm-18.79,0c-.35.56-.33.6.2.87L3.76,9.89,4,10l.09,0c-.05-.2,0-.52-.17-.6-.91-.55-1.85-1-2.79-1.58Z"/></svg>