<svg xmlns="http://www.w3.org/2000/svg" xmlns:xlink="http://www.w3.org/1999/xlink" width="65" height="65" viewBox="0 0 65 65">
  <defs>
    <linearGradient id="linear-gradient" x1="0.5" x2="0.5" y2="1" gradientUnits="objectBoundingBox">
      <stop offset="0" stop-color="#64f9a0"/>
      <stop offset="1" stop-color="#5ff5f9"/>
    </linearGradient>
  </defs>
  <g id="Group_5833" data-name="Group 5833" transform="translate(1839 -2383)">
    <rect id="Rectangle_2924" data-name="Rectangle 2924" width="65" height="65" transform="translate(-1839 2383)" fill="#fff" opacity="0"/>
    <path id="Path_9406" data-name="Path 9406" d="M752.01,586.123a.375.375,0,0,0,.056.047.144.144,0,0,1-.1-.026,1.221,1.221,0,0,0-.151-.068h.146Zm-15.541,4.885c.022.014.052.01.095-.01l-.7-1.032v4.462h-1.825v-.469a1.02,1.02,0,0,1,.057-.192,2.478,2.478,0,0,0,.089-.308.732.732,0,0,0,.011-.219c-.008-.09-.011-.153-.011-.189,0-.1,0-.208-.01-.312a1.29,1.29,0,0,0-.063-.313.378.378,0,0,1-.03-.1,1.09,1.09,0,0,0-.031-.125.241.241,0,0,0-.084.166c-.014.084-.027.154-.041.209a.071.071,0,0,1-.021.026c-.008,0-.011.019-.011.047v1.782h-.417v-1.709c-.049-.035-.1-.068-.15-.1s-.106-.063-.162-.1a.442.442,0,0,0,.119-.063.255.255,0,0,1,.11-.052c.055,0,.082.014.082.042v-.073l-.135-.089a1.485,1.485,0,0,0-.136-.078.949.949,0,0,0,.136-.058l.135-.067a.328.328,0,0,0-.119-.094.912.912,0,0,1-.141-.083v-4.7a1.215,1.215,0,0,0,.125-.063l.135-.083v-.8h.438v5.88c.029-.1.056-.207.084-.328a1.612,1.612,0,0,0,.041-.224v-3.044a.4.4,0,0,1,.073-.141.358.358,0,0,0,.073-.151v-1.626a.492.492,0,0,1,.052-.157,2.1,2.1,0,0,0,.084-.208h1.511l3.066,4.482v-4.482h2.4v.855a.288.288,0,0,0-.093-.005c-.029,0-.059.009-.094.016a.615.615,0,0,0-.057.13.427.427,0,0,0-.027.119v3.254a.233.233,0,0,0,.063.156.068.068,0,0,0,.046.005.073.073,0,0,1,.048.005v.02a.027.027,0,0,0,0,.017.021.021,0,0,1,.005.016.081.081,0,0,1-.062-.005c-.021-.01-.042,0-.063.036.063.042.111.052.147.031a.084.084,0,0,1,.005.052.332.332,0,0,0-.005.067.129.129,0,0,0,.015.063.1.1,0,0,0,.068.036v.219h-2.773l-.032.031a.12.12,0,0,0-.01.063.865.865,0,0,0,.036.2c.024.095.063.142.119.142s.092-.036.11-.109a.764.764,0,0,1,.079-.2h.094a.276.276,0,0,1-.042.135.25.25,0,0,0-.022.177c.05,0,.083-.038.1-.115a1.534,1.534,0,0,1,.057-.2h.114a.562.562,0,0,1-.052.141.263.263,0,0,0-.01.172q.072-.01.094-.115a.746.746,0,0,1,.063-.188h.115c-.015.035-.03.078-.048.13s-.036.106-.057.162v.01h.032a.083.083,0,0,0,.062-.042.4.4,0,0,0,.052-.094.6.6,0,0,0,.032-.1.282.282,0,0,1,.021-.073h.093a.283.283,0,0,1-.041.135.245.245,0,0,0-.021.177.113.113,0,0,0,.109-.12.335.335,0,0,1,.068-.193h.094a.6.6,0,0,1-.052.141.267.267,0,0,0-.011.172q.083,0,.094-.115a.386.386,0,0,1,.063-.188h.114c-.014.035-.03.08-.046.136a.569.569,0,0,1-.058.135l.043.032c.035.007.063-.03.089-.109a1.982,1.982,0,0,1,.067-.193h.095c-.014.042-.029.089-.043.141a.666.666,0,0,0-.021.172c.049.007.082-.028.1-.1a.929.929,0,0,1,.078-.219h.093a.284.284,0,0,1-.041.135.246.246,0,0,0-.021.177c.048,0,.081-.038.1-.115a1.545,1.545,0,0,1,.057-.2h.116a.6.6,0,0,1-.052.141.268.268,0,0,0-.011.172c.049-.007.08-.045.094-.115a.714.714,0,0,1,.063-.188h.114a.557.557,0,0,0-.046.141c-.01.052-.023.109-.036.172q.094-.01.109-.125a.483.483,0,0,1,.067-.2h.095a.269.269,0,0,1-.043.135.254.254,0,0,0-.021.177.111.111,0,0,0,.109-.12.342.342,0,0,1,.069-.193h.093a.6.6,0,0,1-.052.141.276.276,0,0,0-.01.172.1.1,0,0,0,.062-.047.347.347,0,0,0,.036-.089,1.014,1.014,0,0,1,.036-.1.206.206,0,0,1,.063-.078.48.48,0,0,1,0,.141.9.9,0,0,1-.031.14.433.433,0,0,0,.244.036.927.927,0,0,1,.255.006c-.035.125-.065.257-.094.4s-.058.281-.094.427h-.26v1.813h-2.4l-1.813-2.647h-.688Zm.407.584h.031V591.5h-.031Zm-.042-.177-.031.177h.041l.021-.177Zm-.095.177h.043l.021-.261h-.032Zm-.051,0a1.28,1.28,0,0,0,.026-.193c0-.066,0-.127,0-.182a.879.879,0,0,0-.021.193A1.485,1.485,0,0,1,736.688,591.591Zm-.043-.407-.041.407h.041l.032-.407Zm-.114.407h.041l.043-.407h-.031Zm19.768,2.825h.03v-.094h-.03Zm.083-6.569-.021.135h.855v.376h-.876a.067.067,0,0,0,.089.047.5.5,0,0,1,.1-.016,2.042,2.042,0,0,1-.2.141.514.514,0,0,1-.182.089.26.26,0,0,1-.068-.042c-.038-.028-.1-.024-.192.01l-.032.021v-.758l-.255-.184a.484.484,0,0,0-.182-.1h-2.472a.1.1,0,0,0-.052.057.827.827,0,0,1-.03.079h-.626a.113.113,0,0,1-.083-.05c-.028-.033-.051-.066-.073-.1h-2.544V586.3h1.491a.253.253,0,0,0-.042-.03.46.46,0,0,1-.062-.052h4.474a.208.208,0,0,1,.109.052.2.2,0,0,0,.109.051h1.6v1.512Zm-.542-.281h-.292a1.131,1.131,0,0,1,.152.094.775.775,0,0,0,.14.083Zm-4.327-1.491H751.4a.516.516,0,0,0,.151.083.18.18,0,0,0,.1.01.511.511,0,0,1-.068-.057A.1.1,0,0,0,751.514,586.076Zm1.387.094a.334.334,0,0,1-.056-.047l-.048-.047h-.146q.073.042.13.078A.135.135,0,0,0,752.9,586.17Zm-.208,0a.379.379,0,0,1-.057-.047l-.046-.047h-.146a1.209,1.209,0,0,1,.15.068A.143.143,0,0,0,752.692,586.17Zm.626,0a.434.434,0,0,1-.057-.047l-.047-.047h-.125a.222.222,0,0,0,.116.068A.471.471,0,0,0,753.317,586.17Zm-.209,0a.385.385,0,0,1-.057-.047l-.046-.047h-.126a.224.224,0,0,0,.115.068A.475.475,0,0,0,753.109,586.17Zm10.849,7.877a2.008,2.008,0,0,1-.443.214.114.114,0,0,0-.078.068.233.233,0,0,0-.01.1c0,.035.007.071.01.109a.253.253,0,0,1,0,.089h-1.221a.247.247,0,0,1,.01-.068c.007-.024,0-.036-.031-.036l-.1.005c-.056,0-.115.005-.176.005s-.121,0-.173,0l-.1.006a9.008,9.008,0,0,1-1.21-.083,3.279,3.279,0,0,1-1.141-.37,2.631,2.631,0,0,1-.907-.834,3.331,3.331,0,0,1-.506-1.475v-.063l2.409-.146a1.034,1.034,0,0,0,.056.381,1.625,1.625,0,0,0,.522.756.813.813,0,0,0,.4.177l.115.031a.448.448,0,0,0,.116.021h.3a.764.764,0,0,0,.01-.219q-.01-.115-.01-.24a.416.416,0,0,0-.261,0v-.49h-.781c-.008-.139-.015-.3-.022-.5s-.017-.377-.031-.558q-.3-.115-.662-.24a3.31,3.31,0,0,1-.661-.313l1.313-.021-1.345-.01a1.707,1.707,0,0,1-.563-.37,2.111,2.111,0,0,1-.355-.48,1.921,1.921,0,0,1-.188-.516,2.5,2.5,0,0,1-.052-.49v-.162a1.051,1.051,0,0,1,.021-.224q.052-.052-.021-.083h.2v-1.449h.928a.665.665,0,0,0,.2-.089c.108-.059.193-.1.256-.13a3.826,3.826,0,0,1,.944-.22q.452-.04.911-.041.365,0,.792.031a3.839,3.839,0,0,1,.851.162,2.673,2.673,0,0,1,.8.407,2.335,2.335,0,0,1,.647.766l.062.141c.035.08.07.17.105.27s.067.206.1.314a.974.974,0,0,1,.047.255v.094l-2.377.125a.505.505,0,0,1-.03-.115.578.578,0,0,1-.011-.1,1.17,1.17,0,0,1,.027-.172c.017-.087.036-.169.057-.245h.094a.255.255,0,0,0,.094-.021,1.186,1.186,0,0,0-.255-.016q-.141.005-.255.005a.942.942,0,0,0-.448-.308,1.869,1.869,0,0,0-.511-.068c-.09,0-.169,0-.235.005a.733.733,0,0,0-.275.1c.006.1.016.193.025.287a2.629,2.629,0,0,0,.048.276,1.361,1.361,0,0,0,.171.01h.182a1.471,1.471,0,0,0,.01.172.618.618,0,0,1-.01.193h1.209a1.616,1.616,0,0,1,.036.219,2,2,0,0,1,.016.25,1.147,1.147,0,0,0,.365.141,2.191,2.191,0,0,1,.375.109q.292.115.547.24a4.1,4.1,0,0,1,.527.313h-1.167a1.959,1.959,0,0,0,0,.417l-2.524.02h2.513v.418H765.1a1.31,1.31,0,0,1,.042.125q.021.073.042.167h-3.815a1.562,1.562,0,0,1-.255-.058c-.143-.037-.274-.067-.392-.088v.1h.334c0,.07,0,.139.006.208s0,.136,0,.2a.51.51,0,0,0,.251,0v.292h.354v-.417h.146v1.606a.2.2,0,0,0,.109.01.668.668,0,0,1,.12-.01.566.566,0,0,0,.031-.109.669.669,0,0,0,.01-.12h.095v.089a.23.23,0,0,0,.021.089v-1.241a1.606,1.606,0,0,0,.447,0,.485.485,0,0,0-.13-.141,1.1,1.1,0,0,0-.182-.115,1.536,1.536,0,0,0-.182-.078,1.325,1.325,0,0,0-.13-.042h3.263l-.021.031a2.618,2.618,0,0,0,.016.266c.01.1.016.165.016.192s0,.046-.005.095-.009.1-.015.167-.016.127-.027.193-.019.123-.025.172a1.309,1.309,0,0,1-.069.208c-.031.077-.061.154-.089.23a1.62,1.62,0,0,1-.244.448,3.212,3.212,0,0,1-.866.787Zm-2.706-5.187a.064.064,0,0,0,.01.036.064.064,0,0,1,.01.037h.387v-.073Zm-.959-.448c.043,0,.083,0,.125-.005a.308.308,0,0,1,.125.016,1.93,1.93,0,0,0,.151.156,1,1,0,0,0,.193.146v-.845h-.219a.679.679,0,0,0-.083.078.14.14,0,0,1-.083.047c0,.056-.007.087-.02.094h-.136a.087.087,0,0,1-.025-.052.1.1,0,0,0-.027-.052Zm.636.646a.247.247,0,0,0-.01-.068.235.235,0,0,1-.01-.047h-1.741v.115Zm-8.7-2.982a1.216,1.216,0,0,1,.151.068.144.144,0,0,0,.1.026.375.375,0,0,1-.056-.047l-.048-.047Zm.042.094a.382.382,0,0,1-.057-.047l-.046-.047h-.146a1.265,1.265,0,0,1,.15.068A.143.143,0,0,0,752.275,586.17Zm-.52-.094h-.146a.5.5,0,0,0,.15.083.179.179,0,0,0,.1.01.385.385,0,0,1-.057-.047Zm1.98.094a.38.38,0,0,1-.057-.047l-.047-.047H753.5a.223.223,0,0,0,.116.068A.469.469,0,0,0,753.734,586.17Zm4.6,1.637.021-.115h-.031l-.021.115Zm-7.027-1.731h-.115c.035.021.074.042.115.062a.25.25,0,0,0,.115.032.417.417,0,0,1-.052-.063A.07.07,0,0,0,751.305,586.076ZM743.14,590.8a1.241,1.241,0,0,1-.057.178l.125.007c.021-.063.043-.128.063-.192s.043-.125.063-.182H743.2A1.714,1.714,0,0,0,743.14,590.8Zm1.878-.189a1.473,1.473,0,0,0-.057.166q-.026.092-.057.208h.125c.021-.063.04-.128.057-.192s.033-.125.047-.182Zm-.167.182c.014-.064.028-.125.043-.182h-.116c-.027.079-.05.147-.067.2a.959.959,0,0,0-.036.171h.135C744.824,590.922,744.837,590.858,744.851,590.794Zm.615-.182a.735.735,0,0,0-.067.168,1.066,1.066,0,0,1-.068.178l.125.029a.745.745,0,0,0,.073-.192,1.27,1.27,0,0,1,.052-.182Zm-1.186.173a1.041,1.041,0,0,1-.068.173l.125.029c.022-.063.043-.128.063-.192s.042-.125.063-.182h-.136C744.313,590.667,744.3,590.725,744.28,590.784Zm-.234,0a.413.413,0,0,0-.042.14v.063h.1a.715.715,0,0,0,.073-.192,1.4,1.4,0,0,1,.052-.182h-.115C744.1,590.661,744.074,590.719,744.046,590.782Zm1.192-.171a1.305,1.305,0,0,0-.057.162c-.018.06-.036.128-.058.205l.125.007a1.919,1.919,0,0,0,.052-.192,1.559,1.559,0,0,1,.052-.182Zm9.247,1.5V590.1h-2.366v1.241a.938.938,0,0,0,.2,0,.249.249,0,0,1,.166.042c0,.041,0,.089.005.141s.01.1.016.156.012.1.016.14.005.07.005.084,0,.047-.005.1-.009.109-.016.168-.012.119-.016.182-.005.111-.005.146a.06.06,0,0,1-.041.021.06.06,0,0,0-.043.021c-.007.264-.01.459-.01.583v.262a.276.276,0,0,0,0,.078.132.132,0,0,1,.016.036h-.291v1.011h2.513v-2.2c-.036-.035-.069-.07-.1-.1A.149.149,0,0,1,754.485,592.112Zm3.92-5.754v-.031h-.052v.031ZM745.618,590.8a1.234,1.234,0,0,1-.057.178l.124.007c.022-.063.043-.128.063-.192s.042-.125.063-.182h-.135A1.559,1.559,0,0,0,745.618,590.8Zm.338,0v-.344h-3.535v-.2l.081.005a.38.38,0,0,0,.123-.01.441.441,0,0,0,.118-.047.111.111,0,0,0,.053-.1v-2.085a.409.409,0,0,0,.126-.083v-.949a.1.1,0,0,0-.1-.073.33.33,0,0,1-.122-.021c-.008,0-.011,0-.011-.01s-.015-.017,0-.031a.164.164,0,0,0-.134-.042.148.148,0,0,0-.135.052v-.532h6.236v1.741h-2.972c.022-.125-.03-.184-.155-.177a.166.166,0,0,0,.1-.021c-.014-.014-.017-.023-.011-.026s0-.006-.031-.006a.183.183,0,0,1-.067-.01.192.192,0,0,0-.068-.01h-.511l-.084.083v.844l.042.043a.062.062,0,0,0,.043.021v.678h3.17V590.8Zm-3.126-3.962-.094.021v.031l.094-.021Zm1.66,3.978a1.04,1.04,0,0,0-.036.171h.116c.02-.063.041-.128.062-.192s.042-.125.063-.182h-.136Q744.517,590.73,744.491,590.814Zm-2.069,1.361h2.524v-1.011h-2.524Zm1.3-1.381.047-.182h-.115a3.561,3.561,0,0,0-.115.368l.124.007C743.689,590.922,743.708,590.858,743.725,590.794Zm-.413.185.125.007a1.49,1.49,0,0,0,.052-.171c.014-.056.032-.124.053-.2h-.115A3.767,3.767,0,0,0,743.313,590.979Zm-.718-.185c.017-.064.032-.125.046-.182h-.115a1.464,1.464,0,0,0-.057.162c-.017.06-.036.128-.057.205l.125.007C742.558,590.922,742.577,590.858,742.595,590.794Zm2.34,2.789h-1.1a.07.07,0,0,0,.021.052h1.078l.011.855H742.8V593.3c0-.083-.034-.132-.1-.146a.3.3,0,0,0-.157,0,.116.116,0,0,0,.023-.092s0,.009-.012.009c-.028,0-.035,0-.021-.01s.014-.017,0-.031a.009.009,0,0,0-.01.01v.031a.1.1,0,0,0-.095-.063v-.1h1.251l.011-.073h-1.262v-.584h2.524Zm-2.242-.521-.01.021-.011.01c-.014-.014-.02-.024-.02-.031v-.011a.094.094,0,0,1-.011.043.1.1,0,0,0-.01.042.049.049,0,0,0,.046-.026A.085.085,0,0,0,742.693,593.061Zm.991-.073h.031v-.052h-.031Zm.02.1h.032v-.052H743.7Zm.027.1h.031v-.073h-.031Zm.015.084h.031v-.052h-.031Zm.021.1h.031v-.052h-.031Zm.027.1h.031v-.074h-.031Zm.047.031h-.031v.052h.031Zm-.921-2.741a1,1,0,0,1-.068.178l.125.029a.75.75,0,0,0,.074-.192,1.39,1.39,0,0,1,.052-.182h-.116A.735.735,0,0,0,742.92,590.779Zm-.22-.005c-.017.06-.036.128-.057.205l.125.007c.021-.063.04-.128.057-.192s.032-.125.046-.182h-.114A1.316,1.316,0,0,0,742.7,590.774Zm1.3-.162h-.115a1.486,1.486,0,0,0-.057.162c-.017.06-.036.128-.057.205l.125.007c.021-.063.04-.128.057-.192S743.988,590.668,744,590.611Zm9.524-4.442a.361.361,0,0,1-.051-.063.073.073,0,0,0-.063-.031H753.3a.223.223,0,0,0,.115.068A.473.473,0,0,0,753.526,586.17Zm2.211,2.4h-1.064a.561.561,0,0,0-.041.073c-.015.028-.029.056-.043.083h-.959a.224.224,0,0,0-.1.036c-.042.024-.083.05-.124.078H754.5v1.168h-2.376V589.1h-1.513c.049-.042.106-.089.173-.141s.129-.1.192-.146l.168-.12a.244.244,0,0,1,.094-.052h.615a.46.46,0,0,0,.1-.021.476.476,0,0,0,.135-.062h-1.6a.172.172,0,0,0-.01-.083v.021c0,.014-.01.021-.03.021s-.036,0-.022-.01.014-.017,0-.031l-.042.031a.248.248,0,0,0-.016-.068.29.29,0,0,1-.016-.078.061.061,0,0,0-.026-.016.306.306,0,0,0-.073-.005h-.464a1.24,1.24,0,0,0,.1-.091c.042-.039.084-.077.125-.111a1.158,1.158,0,0,1,.13-.1.183.183,0,0,1,.13-.031c.014-.015.019-.018.016-.011s-.005,0-.005-.031q0-.107-.031-.107h-.094a.355.355,0,0,0-.162.057,1.707,1.707,0,0,0-.193.13q-.094.073-.172.146a1.216,1.216,0,0,1-.109.094v-.657h2.295c.027,0,.07.027.129.083s.1.083.13.083l.949.01a.534.534,0,0,0,.063-.078.9.9,0,0,1,.083-.1H754.5a.1.1,0,0,1,.078.047.1.1,0,0,0,.079.047h.761a.315.315,0,0,1,.141.077,1.713,1.713,0,0,0,.182.131ZM751.066,588a.358.358,0,0,1-.095-.09.111.111,0,0,0-.083-.056l-.48.01a.306.306,0,0,0,.01.073.288.288,0,0,1,.01.063Zm.9.344h-1.47v.042c0,.035.007.052.021.052h1.449Zm.146.052-.094.021v.03l.094-.02Zm1.522-.418c-.042-.022-.085-.049-.13-.078a.211.211,0,0,0-.109-.046l-.073.01c.056.028.113.054.172.077A.38.38,0,0,0,753.63,587.983Zm.271-.093h-.052v.042l.052-.01Zm.688-.031-.229.01a.4.4,0,0,1,.077.052.108.108,0,0,0,.069.031.049.049,0,0,0,.052-.036A.133.133,0,0,1,754.589,587.859Zm.688.5H755.2v.031h.073Zm.063-.5-.073.01v.114h.073Zm22.091,2.492-14.1,24.423h-28.2l-14.1-24.423,14.1-24.423h28.2Zm-3.01,0-12.6-21.817H736.634l-12.6,21.817,12.6,21.817h25.192Zm-11.91-14.411.753-.434-2.733-4.732H755.07v.869h4.962Zm-10.1-5.166h-6.37v.869h6.37Zm-13.986.869h4.963v-.869h-5.464l-2.733,4.732.753.434Zm-3.808,6.6-.752-.434-3.184,5.516.752.434Zm-5.264,7.38-2.732,4.732,2.732,4.732.752-.434-2.481-4.3,2.481-4.3Zm1.328,11.763,3.184,5.516.752-.434-3.184-5.516Zm5.264,7.38-.753.434,2.733,4.732h5.464v-.869H738.43Zm10.1,5.166h6.37v-.869h-6.37Zm13.986-.869H755.07v.869h5.463l2.733-4.732-.753-.434Zm3.808-6.6.752.434,3.184-5.516-.752-.434Zm5.264-16.844-.752.434,2.481,4.3-2.481,4.3.752.434,2.732-4.732Zm-5.264-7.38,3.184,5.516.752-.434-3.184-5.516Z" transform="translate(-2555.731 1825.15)" fill="url(#linear-gradient)"/>
  </g>
</svg>
