<svg xmlns="http://www.w3.org/2000/svg" xmlns:xlink="http://www.w3.org/1999/xlink" width="85.678" height="60.896" viewBox="0 0 85.678 60.896"><defs><style>.a{fill:url(#a);}.b{filter:url(#e);}.c{filter:url(#b);}</style><linearGradient id="a" x1="0.5" x2="0.5" y2="1" gradientUnits="objectBoundingBox"><stop offset="0" stop-color="#64f9a0"/><stop offset="1" stop-color="#5ff5f9"/></linearGradient><filter id="b" x="0" y="0" width="85.678" height="60.896" filterUnits="userSpaceOnUse"><feOffset dy="3" input="SourceAlpha"/><feGaussianBlur stdDeviation="3" result="c"/><feFlood flood-color="#030312" flood-opacity="0.639"/><feComposite operator="in" in2="c"/><feComposite in="SourceGraphic"/></filter><filter id="e" x="23.432" y="2.08" width="39.157" height="30.246" filterUnits="userSpaceOnUse"><feOffset dy="3" input="SourceAlpha"/><feGaussianBlur stdDeviation="3" result="f"/><feFlood flood-color="#030312" flood-opacity="0.639"/><feComposite operator="in" in2="f"/><feComposite in="SourceGraphic"/></filter></defs><g transform="translate(-1034.629 -1916.783)"><g class="c" transform="matrix(1, 0, 0, 1, 1034.63, 1916.78)"><path class="a" d="M6.75,40.32v-4.1c.108-.937.167-1.878.333-2.805C7.8,29.433,8.466,25.436,9.31,21.479a50.377,50.377,0,0,1,2.124-7.543,32.222,32.222,0,0,1,2.9-5.017,7.816,7.816,0,0,1,.991-1.064c-.074-.4.3-.608.794-.814a10.878,10.878,0,0,1,7.185-.206c.589.152,1.049.3.917.917,1.555.966,3.247.451,4.9.657v.76c0,3.153.034,6.3-.015,9.455a2.909,2.909,0,0,0,2.707,3.095,2.122,2.122,0,0,0,.353,0c5.728-.064,11.456-.025,17.184-.025a2.713,2.713,0,0,0,3.031-3.065q.007-4.73,0-9.455v-.79c1.609-.113,3.178.25,4.433-.51.2-.358.289-.785.49-.848,2.6-.79,5.213-1.1,7.807.054.358.162.775.24.7.794-.01.088.167.206.275.3a3.1,3.1,0,0,1,.613.52c.736,1.123,1.476,2.246,2.133,3.418a14.718,14.718,0,0,1,1.344,2.854A124.443,124.443,0,0,1,73.9,31.974c.221,1.408.358,2.83.53,4.247v4.1c-.044.255-.1.51-.132.77a13.539,13.539,0,0,1-1.309,4.742,6.046,6.046,0,0,1-8.8,2.29,9.566,9.566,0,0,1-3.6-4.291c-1.187-2.889-2.256-5.821-3.32-8.754a2.6,2.6,0,0,0-1.27-1.466,1.348,1.348,0,0,0-.137.093,6.4,6.4,0,0,1-9.048,0,1.229,1.229,0,0,0-.765-.245q-5.554-.022-11.1,0a1.445,1.445,0,0,0-.853.343A6.443,6.443,0,0,1,28.6,35.465,6.634,6.634,0,0,1,25.1,33.69a2.255,2.255,0,0,0-1.177,1.388c-.844,2.408-1.731,4.8-2.624,7.19a11.916,11.916,0,0,1-3.256,5.056c-1.986,1.716-4.178,2.486-6.753,1.368A7.024,7.024,0,0,1,7.294,43.44C7.054,42.41,6.927,41.36,6.75,40.32ZM29.7,25.093a4,4,0,0,0-4.051,3.948v.039A4.029,4.029,0,1,0,29.721,25.1.044.044,0,0,0,29.7,25.093Zm21.706,0a4,4,0,0,0-4.075,3.923v.039a4.029,4.029,0,1,0,4.095-3.963Zm10.5-9.22a2.083,2.083,0,0,0,2.119-2.05V13.8a2.127,2.127,0,0,0-2.1-2.158h-.02a2.173,2.173,0,0,0-2.1,2.124,2.123,2.123,0,0,0,2.1,2.1Zm-2.643,2.663a2.129,2.129,0,0,0-2.079-2.128,2.18,2.18,0,0,0-2.143,2.153,2.126,2.126,0,0,0,2.133,2.074,2.082,2.082,0,0,0,2.089-2.074v-.025Zm9.519.029a2.13,2.13,0,0,0-2.055-2.153,2.179,2.179,0,0,0-2.168,2.124,2.125,2.125,0,0,0,2.1,2.1,2.09,2.09,0,0,0,2.119-2.07Zm-4.757,4.713a2.128,2.128,0,0,0-2.1-2.1,2.177,2.177,0,0,0-2.119,2.109A2.129,2.129,0,0,0,61.942,25.4h.02a2.1,2.1,0,0,0,2.065-2.124Zm-44.383.9a3.028,3.028,0,0,0,.917-.02,1.239,1.239,0,0,0,.731-.544A3.359,3.359,0,0,0,20.07,19.87a1.1,1.1,0,0,0-1,.069,2.83,2.83,0,0,0-1.226,2.486c.059,1.736.029,1.756,1.795,1.756ZM19.628,12.9c-1.766,0-1.766,0-1.766,1.761v.069a2.647,2.647,0,0,0,1.28,2.452,1.057,1.057,0,0,0,.991-.025,2.819,2.819,0,0,0,1.255-2.472c-.049-1.775-.025-1.785-1.761-1.785Zm5.63,5.61c0-1.716-.01-1.726-1.731-1.721h-.064a2.78,2.78,0,0,0-2.491,1.221.758.758,0,0,0,.02,1.069l0,0A3.014,3.014,0,0,0,23.5,20.3C25.258,20.238,25.258,20.282,25.258,18.512ZM13.989,18.5c0,1.79,0,1.79,1.8,1.78h.069a2.766,2.766,0,0,0,2.418-1.236.758.758,0,0,0-.034-1.069l0,0a3.005,3.005,0,0,0-2.506-1.2C13.993,16.834,13.989,16.785,13.989,18.5Z" transform="translate(2.25 -0.32)"/></g><g class="b" transform="matrix(1, 0, 0, 1, 1034.63, 1916.78)"><path class="a" d="M54.588,10.56h21.1V20.834c0,1.408-.559,1.967-1.952,1.971H56.413c-1.192,0-1.868-.589-1.873-1.726-.02-3.418,0-6.832,0-10.25A2.018,2.018,0,0,1,54.588,10.56Z" transform="translate(-22.1 -2.48)"/></g></g></svg>