<svg id="Group_347" data-name="Group 347" xmlns="http://www.w3.org/2000/svg" xmlns:xlink="http://www.w3.org/1999/xlink" width="18.756" height="22.008" viewBox="0 0 18.756 22.008">
  <defs>
    <linearGradient id="linear-gradient" x1="0.5" y1="-0.11" x2="0.5" y2="1" gradientUnits="objectBoundingBox">
      <stop offset="0" stop-color="#64f9a0"/>
      <stop offset="1" stop-color="#5ff5f9"/>
    </linearGradient>
  </defs>
  <path id="Path_640" data-name="Path 640" d="M1302.76-670.3a.59.59,0,0,0-.425-.18h-2.819c0-.261-.008-.474-.016-.637a.333.333,0,0,0-.335-.319h-11.237a.333.333,0,0,0-.335.319c-.008.163-.016.376-.016.637h-2.819a.586.586,0,0,0-.588.583v.029a13.115,13.115,0,0,0,.981,4.609,5.15,5.15,0,0,0,4.462,3.391,9.355,9.355,0,0,0,2.4,2.689s.907.36.074,3.383a.342.342,0,0,1-.327.253h-2.28a.336.336,0,0,0-.335.335v2.958a.337.337,0,0,1-.335.335h-.858a.337.337,0,0,0-.335.335v1.814a.337.337,0,0,0,.335.335h11.188a.337.337,0,0,0,.335-.335v-1.814a.337.337,0,0,0-.335-.335h-.858a.337.337,0,0,1-.335-.335V-655.2a.336.336,0,0,0-.335-.335h-2.28a.342.342,0,0,1-.327-.253c-.833-3.024.074-3.383.074-3.383a9.112,9.112,0,0,0,2.4-2.689,5.162,5.162,0,0,0,4.462-3.391,13.115,13.115,0,0,0,.981-4.609A.583.583,0,0,0,1302.76-670.3Zm-17.2,1.16h2.043a17.658,17.658,0,0,0,1.242,5.761C1286.342-664.184,1285.713-667.478,1285.557-669.137Zm12.691,5.761a17.659,17.659,0,0,0,1.242-5.761h2.043C1301.379-667.478,1300.75-664.184,1298.249-663.375Z" transform="translate(-1284.168 671.433)" fill="url(#linear-gradient)"/>
</svg>
