<svg xmlns="http://www.w3.org/2000/svg" width="19" height="19" viewBox="0 0 19 19">
  <g id="Group_5786" data-name="Group 5786" transform="translate(844.009 -1354)">
    <path id="Path_9385" data-name="Path 9385" d="M1154.065,89.26l.87-3.245h-.749a1.074,1.074,0,0,0-1.038.8l-.656,2.449h-1.181l.869-3.245h-.749a1.074,1.074,0,0,0-1.038.8l-.656,2.449h-.729a4.827,4.827,0,0,0-4.663,3.578l-2.391,8.923h4.433l-.869,3.245h.749a1.074,1.074,0,0,0,1.038-.8l.656-2.449h1.181l-.87,3.245h.75a1.074,1.074,0,0,0,1.038-.8l.656-2.449h.779a4.828,4.828,0,0,0,4.663-3.578l2.391-8.923Zm-2.639,10.894H1143.9l1.815-6.7a3.485,3.485,0,0,1,3.367-2.583h.227l-1.853,6.841h.836l6.443.025A3.483,3.483,0,0,1,1151.426,100.154Zm4.032-5.228H1153.3l-.442,1.649h1.393l.134-.5h-.812l.173-.645h1.576l-.479,1.788h-2.923l.526-1.965.261-.973h2.923Zm-.258-1.735.135-.505h-.822l.175-.653h1.6l-.486,1.811h-2.961l.533-1.991a1.33,1.33,0,0,1,1.284-.985h1.941l-.175.653h-1.71a.62.62,0,0,0-.6.46l-.324,1.21Z" transform="translate(-1984.767 1267.985)" fill="#9a9aa0"/>
    <rect id="Rectangle_3010" data-name="Rectangle 3010" width="19" height="19" transform="translate(-844.009 1354)" fill="none"/>
  </g>
</svg>
