<svg id="Layer_1" data-name="Layer 1" xmlns="http://www.w3.org/2000/svg" viewBox="0 0 18.79 19.63"><defs><style>.cls-1{fill:#9a9aa0;}</style></defs><path id="Path_5502" data-name="Path 5502" class="cls-1" d="M18.79,9.83V19c0,.45-.13.58-.59.58h-.74a.44.44,0,0,1-.48-.39h0v-.36a.42.42,0,0,0-.39-.46h0a.06.06,0,0,0-.06,0c-.28,0-.56,0-.83,0a.43.43,0,0,0-.46.4v.07a2.75,2.75,0,0,1,0,.4.4.4,0,0,1-.37.34H4a.44.44,0,0,1-.48-.39v-.37a.43.43,0,0,0-.39-.46H2.24a.44.44,0,0,0-.47.4h0a.14.14,0,0,0,0,.09v.29a.42.42,0,0,1-.4.44H.43A.42.42,0,0,1,0,19.21V.43A.42.42,0,0,1,.42,0h.91a.42.42,0,0,1,.44.4V.88a.43.43,0,0,0,.38.47h.08c.28,0,.55,0,.82,0A.42.42,0,0,0,3.51,1h0V.9c0-.18,0-.36,0-.53A.4.4,0,0,1,3.92,0H14.69c.42,0,.56.15.56.57V.94a.4.4,0,0,0,.4.41h0q.47,0,.93,0A.4.4,0,0,0,17,1h0c0-.15,0-.31,0-.46a.44.44,0,0,1,.4-.47h.95a.42.42,0,0,1,.46.38h0V9.83ZM9.4,1.8H5.87c-.38,0-.53.15-.53.53V5.45c0,.38.15.54.54.54h7c.39,0,.54-.16.54-.55V2.34c0-.39-.15-.54-.54-.54Zm0,16h3.5c.41,0,.56-.15.56-.55V14.2c0-.4-.16-.55-.56-.55h-7c-.41,0-.56.14-.56.56v3.07c0,.41.14.55.55.55Zm0-5.92h3.52c.39,0,.54-.16.54-.55V8.28c0-.4-.15-.56-.55-.56h-7c-.4,0-.55.15-.55.56v3.07c0,.41.15.56.56.56ZM17,15.53v-.4a.43.43,0,0,0-.37-.47h-.93a.42.42,0,0,0-.44.4h0v.87a.42.42,0,0,0,.38.46h.91A.43.43,0,0,0,17,16v-.46Zm-13.48,0v-.4a.42.42,0,0,0-.38-.46H2.2a.42.42,0,0,0-.44.4h0v.06c0,.27,0,.53,0,.8a.42.42,0,0,0,.38.47h.91A.42.42,0,0,0,3.5,16v-.47ZM17,11.78v-.42a.42.42,0,0,0-.38-.45h-.05a8.42,8.42,0,0,0-.87,0,.41.41,0,0,0-.44.39v.06c0,.28,0,.55,0,.83a.42.42,0,0,0,.38.45h.92a.42.42,0,0,0,.43-.41h0v0c0-.13,0-.27,0-.41Zm0-7.51V3.85a.42.42,0,0,0-.39-.44h0c-.3,0-.59,0-.88,0a.4.4,0,0,0-.42.39h0a0,0,0,0,0,0,0c0,.29,0,.57,0,.86a.42.42,0,0,0,.4.44h0c.29,0,.58,0,.86,0A.43.43,0,0,0,17,4.73V4.27ZM3.5,11.78v-.43a.42.42,0,0,0-.38-.44H2.19a.41.41,0,0,0-.43.4v.88a.43.43,0,0,0,.4.45h.89a.42.42,0,0,0,.45-.39V12.2c0-.14,0-.28,0-.42ZM2.64,3.41H2.21a.42.42,0,0,0-.45.39v0c0,.3,0,.59,0,.89a.42.42,0,0,0,.4.42h0q.45,0,.9,0a.42.42,0,0,0,.42-.39h0v0q0-.47,0-.93a.4.4,0,0,0-.4-.4H2.64ZM17,8h0V7.58a.38.38,0,0,0-.37-.41h0a7.69,7.69,0,0,0-1,0,.38.38,0,0,0-.38.38v0c0,.29,0,.59,0,.88a.4.4,0,0,0,.38.43h.92a.41.41,0,0,0,.43-.4h0V8ZM2.63,8.89h.43a.4.4,0,0,0,.43-.38h0v0c0-.29,0-.59,0-.88a.4.4,0,0,0-.37-.42h0a6.91,6.91,0,0,0-.91,0,.4.4,0,0,0-.41.39v0q0,.44,0,.87a.41.41,0,0,0,.4.43h.47Z"/></svg>