<svg xmlns="http://www.w3.org/2000/svg" width="254.163" height="39.051" viewBox="0 0 254.163 39.051">
  <g id="Group_5825" data-name="Group 5825" transform="translate(-351 -493.79)">
    <path id="Path_9762" data-name="Path 9762" d="M3198.884,609.677h-5.078l-17.551,39.038h5.484c.1-.227,14.517-33.635,14.517-33.635l7.475,17.751h-10.3c-.091.211-1.556,3.614-1.722,4.005h13.787s5.082,11.654,5.178,11.879h5.291C3215.672,648.058,3198.992,609.928,3198.884,609.677Z" transform="translate(-2610.799 -115.875)" fill="#fff"/>
    <path id="Path_9763" data-name="Path 9763" d="M3133.879,631.264c6.205-2.4,6.524-8.528,6.524-9.725l-.015-.5a10.637,10.637,0,0,0-3.234-8.19c-3.6-3.324-9.223-3.19-9.278-3.187h-19.994v39.047h5.109V613.749h13.773a10.862,10.862,0,0,1,5.4,1.264,6.668,6.668,0,0,1,3.206,6.2,6.386,6.386,0,0,1-1.9,4.828c-2.53,2.405-6.66,2.338-6.686,2.335h-9.373c0,.146,0,3.576,0,4.078.367,0,10.831,0,10.831,0l8.964,16.263h5.589l-9.757-17.125Z" transform="translate(-2610.799 -115.875)" fill="#fff"/>
    <path id="Path_9764" data-name="Path 9764" d="M3035.572,609.677h-19.409v39.038h5.093V613.681h13.39a10.677,10.677,0,0,1,6.495,1.8c1.594,1.2,2.4,3.032,2.452,5.586a6.508,6.508,0,0,1-2.452,5.417,9.815,9.815,0,0,1-6.1,1.877h-9.36c0,.321,0,3.686,0,4h9.857c8.4-.065,12.948-3.972,13.146-11.278C3048.487,613.728,3043.952,609.782,3035.572,609.677Z" transform="translate(-2610.799 -115.875)" fill="#fff"/>
    <path id="Path_9765" data-name="Path 9765" d="M3089.024,630.526v-3.981h-18.175c0,.332,0,3.648,0,3.981Z" transform="translate(-2610.799 -115.875)" fill="#fff"/>
    <path id="Path_9766" data-name="Path 9766" d="M3066.433,613.726h25.3v-4.06h-30.391v39.05h30.683v-4h-25.591Z" transform="translate(-2610.799 -115.875)" fill="#fff"/>
    <path id="Path_9767" data-name="Path 9767" d="M2979.208,621.419l-10.119-11.754h-6.726l13.481,15.667Z" transform="translate(-2610.799 -115.875)" fill="#fff"/>
    <path id="Path_9768" data-name="Path 9768" d="M3002.2,609.665h-6.839L2961.8,648.706h6.859l13.64-15.857,13.608,15.851h6.718l-16.967-19.754Z" transform="translate(-2610.799 -115.875)" fill="#fff"/>
    <rect id="Rectangle_2710" data-name="Rectangle 2710" width="5.093" height="39.038" transform="translate(547.358 493.802)" fill="#fff"/>
  </g>
</svg>
