<svg xmlns="http://www.w3.org/2000/svg" xmlns:xlink="http://www.w3.org/1999/xlink" width="24.649" height="17.034" viewBox="0 0 24.649 17.034"><defs><style>.a{fill:url(#a);}</style><linearGradient id="a" x1="0.5" x2="0.5" y2="1" gradientUnits="objectBoundingBox"><stop offset="0" stop-color="#64f9a0"/><stop offset="1" stop-color="#5ff5f9"/></linearGradient></defs><path class="a" d="M12.279,17.008l-.447.014c-2.325.052-4.678-.106-7-.221a8.722,8.722,0,0,1-2.34-.4A3.134,3.134,0,0,1,.315,13.693,41.724,41.724,0,0,1,.109,5.4C.153,4.623.3,3.854.376,3.08a3.375,3.375,0,0,1,3-2.719A77.081,77.081,0,0,1,13.025.01c2.193.021,4.385.1,6.577.19A13.642,13.642,0,0,1,21.65.446a3.064,3.064,0,0,1,2.6,2.706,28.958,28.958,0,0,1,.372,6.082c-.055,1.54-.216,3.077-.375,4.611a3.215,3.215,0,0,1-2.967,2.786c-2.581.223-5.168.271-7.766.338-.278.007-.557.015-.834.024ZM16.157,8.5l-6.151-3.77v7.544Z" transform="translate(0 0.002)"/></svg>