<svg xmlns="http://www.w3.org/2000/svg" width="37" height="37" viewBox="0 0 37 37">
  <g id="Group_7253" data-name="Group 7253" transform="translate(789 -1579)">
    <g id="Group_7246" data-name="Group 7246" transform="translate(-786 1584)">
      <path id="Path_6116" data-name="Path 6116" d="M1439.475-562.191a1.115,1.115,0,0,1-1.161-.67q-4.423-7.951-8.913-15.873a1.121,1.121,0,0,1,0-1.266c.97-1.719,1.9-3.464,2.877-5.262l-2.106-1.151-2.493,4.534c-.816-1.433-1.577-2.771-2.365-4.147-.711.4-1.378.774-2.1,1.179.924,1.646,1.776,3.225,2.692,4.763a1.33,1.33,0,0,1-.007,1.517q-4.284,7.767-8.495,15.571a1.309,1.309,0,0,1-1.357.812c-1.227-.021-2.458.084-3.685.14v2.232c.216.011.433.028.648.028h29.4a5.333,5.333,0,0,0,.666-.077V-562.2C1441.825-562.2,1440.65-562.236,1439.475-562.191Zm-8.174-4.624a.572.572,0,0,1-.014.08,1.393,1.393,0,0,1-.139.5.642.642,0,0,1-.863.285.577.577,0,0,1-.071-.04,1,1,0,0,1-.38-.453c-.125-.307-.24-.618-.352-.927a.282.282,0,0,0-.135-.157l-.014.011h-3.259a.249.249,0,0,0-.126.146q-.137.381-.279.764a1.243,1.243,0,0,1-.345.538.637.637,0,0,1-.715.146.745.745,0,0,1-.421-.558c-.024-.108-.039-.22-.059-.332v-.435c.011-.1.018-.2.035-.3.077-.422.146-.847.237-1.266a5.328,5.328,0,0,1,.227-.8,3.725,3.725,0,0,1,.307-.53.664.664,0,0,1,.1-.112c-.007-.042.032-.062.084-.087a1.133,1.133,0,0,1,.76-.021c.063.018.112.032.1.1.164.1.345.049.52.069h2.465a.989.989,0,0,0,.471-.055c.021-.039.032-.084.052-.091a1.123,1.123,0,0,1,.826.007c.039.018.084.025.073.084,0,.011.018.021.028.032a.27.27,0,0,1,.066.055c.077.119.157.238.227.362a1.44,1.44,0,0,1,.143.3,13.04,13.04,0,0,1,.4,1.8c.024.15.038.3.055.45v.429Z" transform="translate(-1412.363 586.413)" fill="#fff"/>
    </g>
    <rect id="Rectangle_4421" data-name="Rectangle 4421" width="37" height="37" transform="translate(-789 1579)" fill="none"/>
  </g>
</svg>
