<svg xmlns="http://www.w3.org/2000/svg" width="43" height="43" viewBox="0 0 43 43">
  <g id="cart-svg" transform="translate(-11 -739)">
    <g id="round" transform="translate(11 739)" fill="none" stroke="#fff" stroke-width="1" opacity="0.5">
      <circle cx="21.5" cy="21.5" r="21.5" stroke="none"/>
      <circle cx="21.5" cy="21.5" r="21" fill="none"/>
    </g>
    <g id="Group_7222" data-name="Group 7222" transform="translate(257.192 -242.171)" opacity="0.5">
      <path id="Path_13608" data-name="Path 13608" d="M-216.426,998.359c-.1.439-.2.877-.289,1.318q-.5,2.4-.987,4.806a.929.929,0,0,1-.914.778c-.072,0-.145,0-.217,0h-11.021l.262,1.281h.234q5.257,0,10.514,0a1.059,1.059,0,0,1,.3.036.436.436,0,0,1,.3.443.44.44,0,0,1-.335.42,1.043,1.043,0,0,1-.25.028q-5.329,0-10.659,0a.942.942,0,0,1-1.027-.836q-.987-4.787-1.977-9.573c-.056-.271-.112-.542-.16-.814a.334.334,0,0,0-.227-.283c-.589-.244-1.172-.5-1.757-.756a.466.466,0,0,1-.328-.432.442.442,0,0,1,.6-.44q1.058.438,2.1.912a.879.879,0,0,1,.479.684c.087.43.176.859.268,1.311h.231q6.849,0,13.7-.006a1.064,1.064,0,0,1,1.152.722Zm-14.873-.18a.522.522,0,0,0,0,.088c.4,1.955.81,3.908,1.207,5.864.033.164.089.208.254.208q5.509-.008,11.018,0h.207l1.267-6.156Z" fill="#fff"/>
      <path id="Path_13609" data-name="Path 13609" d="M11.773,1281.65a1.631,1.631,0,1,1-1.633,1.631A1.635,1.635,0,0,1,11.773,1281.65Zm.711,1.635a.711.711,0,1,0-.712.708A.706.706,0,0,0,12.484,1283.286Z" transform="translate(-233.246 -273.451)" fill="#fff"/>
      <path id="Path_13610" data-name="Path 13610" d="M-108.034,1283.278a1.625,1.625,0,0,1,1.635-1.627,1.634,1.634,0,0,1,1.634,1.631,1.64,1.64,0,0,1-1.656,1.63A1.636,1.636,0,0,1-108.034,1283.278Zm2.342,0a.715.715,0,0,0-.707-.717.72.72,0,0,0-.716.728.716.716,0,0,0,.719.7A.705.705,0,0,0-105.692,1283.279Z" transform="translate(-120.786 -273.453)" fill="#fff"/>
      <path id="Path_13611" data-name="Path 13611" d="M-88.348,1104.992q-1.619,0-3.237,0a.46.46,0,0,1-.467-.372.447.447,0,0,1,.286-.506,1.066,1.066,0,0,1,.32-.035q2.451,0,4.9,0c.47,0,.94,0,1.411,0a.454.454,0,0,1,.5.355.454.454,0,0,1-.474.558Q-86.729,1104.994-88.348,1104.992Z" transform="translate(-135.989 -104.463)" fill="#fff"/>
      <path id="Path_13612" data-name="Path 13612" d="M-81.245,1153.01q1.448,0,2.9,0a.447.447,0,0,1,.462.4.445.445,0,0,1-.294.484.817.817,0,0,1-.249.03q-2.814,0-5.628,0c-.337,0-.529-.154-.543-.425a.445.445,0,0,1,.48-.486Q-82.684,1153.008-81.245,1153.01Z" transform="translate(-143.084 -151.031)" fill="#fff"/>
    </g>
  </g>
</svg>
