<svg xmlns="http://www.w3.org/2000/svg" width="37" height="37" viewBox="0 0 37 37">
  <g id="Group_7256" data-name="Group 7256" transform="translate(789 -1775)">
    <g id="yoCTvk.tif" transform="translate(-782 1780)">
      <g id="Group_2685" data-name="Group 2685">
        <path id="Path_6071" data-name="Path 6071" d="M778.4,350.03c-1.551.462-3.154.955-4.77,1.4a.983.983,0,0,1-.742-.181,1.5,1.5,0,0,0-2.138.143,1.455,1.455,0,0,0,.184,2.029,1.476,1.476,0,0,0,2.124-.252,1.339,1.339,0,0,1,.574-.381c1.4-.426,2.815-.784,4.2-1.248,1.15-.387,2.244-.942,3.4-1.324a2.071,2.071,0,0,0,1.642-2.058c.022-1.4,0-2.792.01-4.189a2.9,2.9,0,0,1,.13-.9,11.956,11.956,0,0,0,.5-5.832,11.777,11.777,0,1,0-23.1,4.527,17.3,17.3,0,0,1,.483,4.451c-.009.665-.019,1.33,0,1.994a1.969,1.969,0,0,0,2.029,2.014c.466.012.932.009,1.4,0,.718-.013,1.031-.293,1.036-1q.022-3.158,0-6.316c0-.68-.3-.943-.994-.952-.789-.011-1.578,0-2.382,0a10.292,10.292,0,0,1,16.661-10.568,10.034,10.034,0,0,1,3.088,10.571c-.846,0-1.661-.007-2.476,0a.761.761,0,0,0-.843.823C778.392,345.13,778.4,347.477,778.4,350.03Z" transform="translate(-760.066 -327.347)" fill="#fff"/>
        <path id="Path_6072" data-name="Path 6072" d="M778.4,350.03c0-2.553-.006-4.9,0-7.248a.761.761,0,0,1,.843-.823c.815-.009,1.63,0,2.476,0a10.034,10.034,0,0,0-3.088-10.571,10.292,10.292,0,0,0-16.661,10.568c.8,0,1.593-.008,2.382,0,.7.01.99.272.994.952q.021,3.158,0,6.316c0,.708-.318.988-1.036,1-.466.009-.932.011-1.4,0a1.969,1.969,0,0,1-2.029-2.014c-.022-.664-.013-1.33,0-1.994a17.3,17.3,0,0,0-.483-4.451,11.777,11.777,0,1,1,23.1-4.527,11.956,11.956,0,0,1-.5,5.832,2.9,2.9,0,0,0-.13.9c-.013,1.4.012,2.793-.01,4.189a2.071,2.071,0,0,1-1.642,2.058c-1.152.382-2.245.938-3.4,1.324-1.383.465-2.8.823-4.2,1.248a1.339,1.339,0,0,0-.574.381,1.476,1.476,0,0,1-2.124.252,1.455,1.455,0,0,1-.184-2.029,1.5,1.5,0,0,1,2.138-.143.983.983,0,0,0,.742.181C775.245,350.985,776.848,350.492,778.4,350.03Z" transform="translate(-760.066 -327.347)" fill="#fff"/>
      </g>
    </g>
    <rect id="Rectangle_4424" data-name="Rectangle 4424" width="37" height="37" transform="translate(-789 1775)" fill="none"/>
  </g>
</svg>
