<svg xmlns="http://www.w3.org/2000/svg" width="37" height="37" viewBox="0 0 37 37">
  <g id="Group_7249" data-name="Group 7249" transform="translate(789 -1342)">
    <path id="Path_13652" data-name="Path 13652" d="M31.177,0,26.685,16.764a9.07,9.07,0,0,1-8.761,6.722H0L4.492,6.722A9.07,9.07,0,0,1,13.253,0ZM24.026,15.92,11.92,15.872H10.348l3.48-12.853H13.4A6.548,6.548,0,0,0,7.075,7.873L3.665,20.467H17.8A6.544,6.544,0,0,0,24.026,15.92Zm2.9-10.712h-3L23.6,6.434h1.545l-.254.949H22.235l.609-2.273a1.167,1.167,0,0,1,1.127-.865h3.212l.329-1.227H23.865A2.5,2.5,0,0,0,21.452,4.87l-1,3.741h5.564ZM25.7,9.434H20.2l-.49,1.828h0l-.99,3.693h5.493l.9-3.36H22.156l-.325,1.211h1.525l-.251.937H20.487l.83-3.1h4.055Z" transform="translate(-786 1349)" fill="#fff"/>
    <rect id="Rectangle_4417" data-name="Rectangle 4417" width="37" height="37" transform="translate(-789 1342)" fill="none"/>
  </g>
</svg>
