<svg xmlns="http://www.w3.org/2000/svg" width="37" height="37" viewBox="0 0 37 37">
  <g id="Group_7254" data-name="Group 7254" transform="translate(789 -1647)">
    <g id="Group_7248" data-name="Group 7248" transform="translate(-785 1652)">
      <path id="Path_13608" data-name="Path 13608" d="M-206.45,1000.541c-.148.676-.3,1.35-.444,2.027q-.763,3.7-1.518,7.393a1.43,1.43,0,0,1-1.406,1.2c-.111.007-.223,0-.334,0h-16.954l.4,1.97h.361q8.087,0,16.174,0a1.627,1.627,0,0,1,.465.055.671.671,0,0,1,.467.682.677.677,0,0,1-.516.646,1.6,1.6,0,0,1-.385.043q-8.2,0-16.4,0a1.449,1.449,0,0,1-1.58-1.286q-1.519-7.364-3.042-14.727c-.086-.417-.172-.833-.246-1.252a.514.514,0,0,0-.349-.435c-.906-.375-1.8-.775-2.7-1.163a.717.717,0,0,1-.5-.664.679.679,0,0,1,.925-.677q1.628.674,3.233,1.4a1.352,1.352,0,0,1,.737,1.052c.133.661.27,1.322.413,2.016h.355q10.536,0,21.073-.009a1.636,1.636,0,0,1,1.771,1.111Zm-22.879-.277a.8.8,0,0,0,0,.135c.621,3.007,1.246,6.012,1.857,9.021.051.252.137.32.391.32q8.475-.012,16.949-.006h.318l1.95-9.47Z" transform="translate(234.958 -994.304)" fill="#fff"/>
      <path id="Path_13609" data-name="Path 13609" d="M12.652,1281.65a2.508,2.508,0,1,1-2.513,2.509A2.515,2.515,0,0,1,12.652,1281.65Zm1.093,2.516a1.093,1.093,0,1,0-1.1,1.089A1.086,1.086,0,0,0,13.746,1284.166Z" transform="translate(8.092 -1260.276)" fill="#fff"/>
      <path id="Path_13610" data-name="Path 13610" d="M-108.034,1284.154a2.5,2.5,0,0,1,2.515-2.5,2.513,2.513,0,0,1,2.513,2.508,2.524,2.524,0,0,1-2.547,2.508A2.517,2.517,0,0,1-108.034,1284.154Zm3.6,0a1.1,1.1,0,0,0-1.087-1.1,1.107,1.107,0,0,0-1.1,1.12,1.1,1.1,0,0,0,1.106,1.084A1.085,1.085,0,0,0-104.432,1284.154Z" transform="translate(117.476 -1260.277)" fill="#fff"/>
      <path id="Path_13611" data-name="Path 13611" d="M-86.35,1105.485q-2.49,0-4.98,0a.707.707,0,0,1-.718-.573.688.688,0,0,1,.44-.779,1.647,1.647,0,0,1,.493-.054q3.77,0,7.54,0c.723,0,1.447,0,2.17,0a.7.7,0,0,1,.765.547.7.7,0,0,1-.729.859Q-83.86,1105.489-86.35,1105.485Z" transform="translate(102.689 -1095.91)" fill="#fff"/>
      <path id="Path_13612" data-name="Path 13612" d="M-79.437,1153.01q2.227,0,4.454,0a.688.688,0,0,1,.711.609.684.684,0,0,1-.453.745,1.257,1.257,0,0,1-.383.046q-4.329,0-8.658,0c-.518,0-.814-.237-.836-.654a.684.684,0,0,1,.738-.748Q-81.651,1153.007-79.437,1153.01Z" transform="translate(95.787 -1141.204)" fill="#fff"/>
    </g>
    <rect id="Rectangle_4422" data-name="Rectangle 4422" width="37" height="37" transform="translate(-789 1647)" fill="none"/>
  </g>
</svg>
