<svg xmlns="http://www.w3.org/2000/svg" width="37" height="37" viewBox="0 0 37 37">
  <g id="Group_7252" data-name="Group 7252" transform="translate(789 -1523)">
    <path id="Path_13651" data-name="Path 13651" d="M-2403.217-567.357a15.435,15.435,0,0,1-4.549,10.981.957.957,0,0,1-.68.28.955.955,0,0,1-.68-.28.967.967,0,0,1,0-1.359,13.519,13.519,0,0,0,3.988-9.622,13.52,13.52,0,0,0-3.988-9.627.965.965,0,0,1,0-1.358.967.967,0,0,1,1.359,0,15.44,15.44,0,0,1,4.545,10.984Zm-24.531,0a8.951,8.951,0,0,1,2.634-6.368v-.005h0a.957.957,0,0,0,0-1.35l-.007-.005a.954.954,0,0,0-1.349.005,10.853,10.853,0,0,0-3.2,7.723,10.827,10.827,0,0,0,3.2,7.714.949.949,0,0,0,.675.284.964.964,0,0,0,.68-.284l0,0a.956.956,0,0,0,0-1.35A8.921,8.921,0,0,1-2427.747-567.357Zm-.629,9.62a13.488,13.488,0,0,1-3.988-9.62,13.5,13.5,0,0,1,3.988-9.627l0,0a.958.958,0,0,0,0-1.355.962.962,0,0,0-1.355,0,15.414,15.414,0,0,0-4.557,10.985,15.41,15.41,0,0,0,4.557,10.981.932.932,0,0,0,.676.28.957.957,0,0,0,.68-.28v0a.958.958,0,0,0,0-1.357Zm20.545-9.622a10.836,10.836,0,0,0-3.2-7.722l-.007-.006a.953.953,0,0,0-1.347.006l-.006.005a.954.954,0,0,0,.006,1.35,8.964,8.964,0,0,1,2.637,6.368,8.929,8.929,0,0,1-2.637,6.36l-.006.007a.952.952,0,0,0,.006,1.347.939.939,0,0,0,.675.284.957.957,0,0,0,.679-.284,10.8,10.8,0,0,0,3.2-7.714Zm-4.9,0a6.021,6.021,0,0,1-6.021,6.022,6.022,6.022,0,0,1-6.022-6.022,6.022,6.022,0,0,1,6.022-6.022A6.021,6.021,0,0,1-2412.732-567.359Zm-3.035,0-4.48-2.587v5.173Z" transform="translate(1648.289 2108.622)" fill="#fff"/>
    <rect id="Rectangle_4420" data-name="Rectangle 4420" width="37" height="37" transform="translate(-789 1523)" fill="none"/>
  </g>
</svg>
