<svg xmlns="http://www.w3.org/2000/svg" width="37" height="37" viewBox="0 0 37 37">
  <g id="Group_7250" data-name="Group 7250" transform="translate(789 -1405)">
    <g id="Group_347" data-name="Group 347" transform="translate(-782 1410)">
      <path id="Path_640" data-name="Path 640" d="M1307.321-670.051a.743.743,0,0,0-.529-.219h-3.511c0-.318-.01-.577-.02-.776a.411.411,0,0,0-.417-.388h-13.994a.411.411,0,0,0-.417.388c-.01.2-.02.457-.02.776H1284.9a.722.722,0,0,0-.733.71v.036a15.651,15.651,0,0,0,1.221,5.608,6.4,6.4,0,0,0,5.557,4.127,11.487,11.487,0,0,0,2.992,3.272s1.13.438.092,4.117a.424.424,0,0,1-.407.308h-2.84a.414.414,0,0,0-.417.408v3.6a.415.415,0,0,1-.417.408h-1.069a.414.414,0,0,0-.417.408v2.208a.414.414,0,0,0,.417.408h13.933a.414.414,0,0,0,.417-.408v-2.208a.414.414,0,0,0-.417-.408h-1.069a.415.415,0,0,1-.417-.408v-3.6a.415.415,0,0,0-.417-.408h-2.839a.425.425,0,0,1-.407-.308c-1.038-3.679.092-4.117.092-4.117a11.175,11.175,0,0,0,2.992-3.272,6.409,6.409,0,0,0,5.557-4.127,15.638,15.638,0,0,0,1.221-5.608A.7.7,0,0,0,1307.321-670.051Zm-21.422,1.412h2.544a21.065,21.065,0,0,0,1.547,7.01C1286.875-662.613,1286.091-666.62,1285.9-668.639Zm15.8,7.01a21.074,21.074,0,0,0,1.547-7.01h2.544C1305.6-666.62,1304.817-662.613,1301.7-661.628Z" transform="translate(-1284.168 671.433)" fill="#fff"/>
    </g>
    <rect id="Rectangle_4418" data-name="Rectangle 4418" width="37" height="37" transform="translate(-789 1405)" fill="none"/>
  </g>
</svg>
