<svg xmlns="http://www.w3.org/2000/svg" width="37" height="37" viewBox="0 0 37 37">
  <g id="Group_7251" data-name="Group 7251" transform="translate(789 -1463)">
    <g id="Group_7245" data-name="Group 7245" transform="translate(-785.729 1466.271)">
      <g id="Group_5783" data-name="Group 5783" transform="translate(0 0)">
        <path id="Path_9303" data-name="Path 9303" d="M105.53,120.1l2.256-8.33h-.277a4.244,4.244,0,0,0-4.1,3.146l-2.21,8.163h9.159a4.242,4.242,0,0,0,4.037-2.948l-7.846-.031Z" transform="translate(-93.56 -102.056)" fill="#fff"/>
        <path id="Path_9304" data-name="Path 9304" d="M151.586,134.14l-.641,2.393h3.56l.583-2.178h-1.92l-.21.785h.989l-.163.608h-1.7l.538-2.008h2.629l.21-.785H151.9Z" transform="translate(-133.545 -119.086)" fill="#fff"/>
        <path id="Path_9305" data-name="Path 9305" d="M158.924,112.563h2.082l.213-.8h-2.364a1.619,1.619,0,0,0-1.564,1.2l-.649,2.424h3.606l.592-2.205H158.9l-.213.8h1l-.165.615H157.8l.395-1.474A.756.756,0,0,1,158.924,112.563Z" transform="translate(-138.125 -102.055)" fill="#fff"/>
        <path id="Path_9306" data-name="Path 9306" d="M82.757,68.642A14.116,14.116,0,1,0,96.874,82.758,14.132,14.132,0,0,0,82.757,68.642Zm7.192,17.37a5.879,5.879,0,0,1-5.678,4.357h-.948l-.8,2.982a1.308,1.308,0,0,1-1.264.97h-.912l1.059-3.952H79.969l-.8,2.982a1.308,1.308,0,0,1-1.264.97h-.912l1.059-3.952h-5.4L75.565,79.5a5.878,5.878,0,0,1,5.678-4.357h.888l.8-2.982a1.309,1.309,0,0,1,1.264-.97h.912l-1.059,3.952h1.438l.8-2.982a1.309,1.309,0,0,1,1.264-.97h.912L87.4,75.147h5.459Z" transform="translate(-67.391 -67.392)" fill="#fff"/>
        <path id="Path_9307" data-name="Path 9307" d="M77.636,62.271A15.366,15.366,0,1,0,93,77.637,15.366,15.366,0,0,0,77.636,62.271Zm0,29.875A14.509,14.509,0,1,1,92.145,77.637,14.525,14.525,0,0,1,77.636,92.146Z" transform="translate(-62.27 -62.271)" fill="#fff"/>
      </g>
    </g>
    <rect id="Rectangle_4419" data-name="Rectangle 4419" width="37" height="37" transform="translate(-789 1463)" fill="none"/>
  </g>
</svg>
