<svg xmlns="http://www.w3.org/2000/svg" width="51.213" height="38.703" viewBox="0 0 51.213 38.703"><defs><style>.a{fill:#fff;}</style></defs><path class="a" d="M929.754,268.236c1.008-.753,2.006-1.5,3-2.243l6.056-4.533c.42-.315.735-.259.91.147a.522.522,0,0,1-.043.417q-2.344,6.555-4.692,13.109c-.443,1.239-.892,2.475-1.326,3.717a.345.345,0,0,1-.39.278q-15.932-.021-31.864-.02a.385.385,0,0,1-.432-.316q-2.986-8.372-5.985-16.739c-.126-.352-.084-.6.146-.743.272-.175.5-.025.708.133q3.1,2.322,6.2,4.646,1.284.961,2.57,1.918c.089.067.182.13.289.206l1.793-3.888,4.1-8.893a5.669,5.669,0,0,1,.261-.563c.181-.3.415-.32.66-.067a2.982,2.982,0,0,1,.5.82c1.453,3.027,2.827,6.091,4.225,9.143.284.62.564,1.242.854,1.881a.61.61,0,0,0,.2-.318c1.61-3.525,3.2-7.058,4.872-10.556a4.861,4.861,0,0,1,.432-.791c.343-.47.648-.44.885.082.415.915.828,1.831,1.248,2.744q2.34,5.083,4.685,10.163C929.656,268.055,929.7,268.135,929.754,268.236Zm-18.237-9.444a.609.609,0,0,0-.213.331q-2.736,5.926-5.461,11.858c-.116.252-.187.309-.438.12q-3.268-2.464-6.557-4.9a.526.526,0,0,0-.3-.165c.029.091.046.149.066.206q1.893,5.3,3.781,10.595c.086.243.218.271.436.271q14.5,0,29,.024a.385.385,0,0,0,.438-.308q1.862-5.242,3.739-10.478c.032-.091.111-.18.051-.307-.087.062-.172.119-.254.18-2.187,1.632-4.377,3.26-6.556,4.9-.253.19-.325.131-.441-.121q-2.716-5.918-5.448-11.829a.784.784,0,0,0-.222-.366l-5.812,12.731Zm5.745,22.021h-6.635q-4.439,0-8.878-.005c-.249,0-.3.043-.213.287.173.466.329.94.467,1.417.064.222.176.277.4.277q14.859,0,29.718.013a.378.378,0,0,1,.062,0c.164.029.236-.048.284-.2.152-.484.319-.964.479-1.446.119-.357.119-.357-.261-.357H917.262Zm-5.791-27.491a1.583,1.583,0,0,0,.01-3.165,1.583,1.583,0,0,0-.01,3.165Zm11.735,0a1.583,1.583,0,1,0-.021-3.165,1.583,1.583,0,0,0,.021,3.165Zm-29.9,7.11a1.583,1.583,0,1,0-1.59-1.574A1.6,1.6,0,0,0,893.308,260.431Zm48.031-3.167a1.583,1.583,0,1,0,1.593,1.571A1.6,1.6,0,0,0,941.338,257.264ZM904.627,286.7a.7.7,0,0,1,.378.66c.018.435.031.87.043,1.305,0,.038-.011.108-.021.109a2.845,2.845,0,0,1-.525.017c-.151-.017-.128-.17-.13-.277-.008-.321,0-.643-.007-.965a.989.989,0,0,0-.044-.3c-.08-.227-.282-.222-.469-.2-.212.02-.1.2-.1.294q-.022.622,0,1.245c.006.181-.055.224-.227.225-.429,0-.429.01-.429-.428,0-1.131.009-2.262-.007-3.392,0-.268.078-.339.331-.316s.5,0,.746.009a.782.782,0,0,1,.845.834C905.05,286.2,904.988,286.4,904.627,286.7Zm-.885-.834c0,.144,0,.288,0,.433,0,.059,0,.113.08.14a.4.4,0,0,0,.531-.323,2.757,2.757,0,0,0,0-.555c-.027-.278-.235-.295-.456-.29-.267.006-.125.2-.151.318A1.251,1.251,0,0,0,903.742,285.866Zm25.913.851c0-.6.007-1.2,0-1.8,0-.185.038-.259.238-.246.289.019.58-.006.87.01a.782.782,0,0,1,.831.848c.011.371.047.755-.307,1.021-.084.064,0,.091.04.133a1.668,1.668,0,0,1,.179,1.757.787.787,0,0,1-.658.352c-.331.012-.663,0-.994.015-.18.008-.2-.077-.2-.223C929.658,287.96,929.655,287.338,929.655,286.717Zm.642.856c0,.093,0,.185,0,.278,0,.38.054.424.423.362a.3.3,0,0,0,.275-.284,2.521,2.521,0,0,0-.009-.677c-.051-.316-.292-.3-.522-.3-.279,0-.138.217-.164.341A1.386,1.386,0,0,0,930.3,287.572Zm0-1.776a.866.866,0,0,0,0,.217c.033.122-.121.336.164.343.242.006.444-.042.465-.331a2.65,2.65,0,0,0-.01-.494c-.032-.276-.249-.254-.449-.259-.26-.007-.153.186-.171.308A1.464,1.464,0,0,0,930.3,285.8Zm-4.966.9a.838.838,0,0,1,.4.816c.015.383.015.767.02,1.15a.438.438,0,0,1-.008.109,5.236,5.236,0,0,1-.525.02c-.156,0-.127-.152-.131-.238-.017-.373-.015-.746-.021-1.119,0-.193-.065-.352-.279-.391s-.373-.034-.351.277c.03.423-.006.85.012,1.275.012.277-.174.206-.308.2s-.345.112-.343-.194c.009-1.244.006-2.489,0-3.733,0-.142.032-.2.189-.2.3.012.6-.007.9.009a.765.765,0,0,1,.825.789C925.746,285.911,925.794,286.374,925.331,286.7Zm-.89-.869c0,.145,0,.29,0,.436,0,.089,0,.154.121.175a.375.375,0,0,0,.5-.363,4.539,4.539,0,0,0,0-.5c-.013-.289-.214-.31-.439-.31-.256,0-.156.188-.173.312A1.942,1.942,0,0,0,924.441,285.831Zm-18.452.911c0-.383-.009-.767,0-1.15a.909.909,0,0,1,.967-.98.894.894,0,0,1,1,.943c.026.786.026,1.574,0,2.361a.887.887,0,0,1-1.026.941.9.9,0,0,1-.944-1C905.981,287.488,905.988,287.115,905.988,286.742Zm1.316,0c0-.384,0-.768,0-1.152,0-.211-.073-.367-.318-.372s-.333.143-.334.357q-.005,1.167,0,2.335c0,.216.1.366.334.361s.319-.161.319-.377Q907.305,287.317,907.3,286.741Zm19.425-.007c0,.425-.016.851,0,1.275a.829.829,0,0,0,.823.844.876.876,0,0,0,1.065-.712,4.473,4.473,0,0,0,.036-.961c.006-.764,0-.763-.765-.707-.1.008-.2.011-.171.146s-.112.4.1.425c.273.032.22.181.222.337,0,.176,0,.353,0,.529-.008.216-.109.361-.34.361a.31.31,0,0,1-.324-.343c-.008-.788-.012-1.576,0-2.364a.314.314,0,0,1,.409-.34c.242.05.244.243.26.434.01.116-.067.264.061.344a.364.364,0,0,0,.556-.315,1.95,1.95,0,0,0-.01-.217.894.894,0,0,0-1.019-.856.874.874,0,0,0-.9.939c-.012.394,0,.788,0,1.182Zm-13.5,2.059c-.268.074-.352-.059-.352-.3,0-.1-.036-.2-.042-.307-.008-.145-.078-.2-.219-.192a2.3,2.3,0,0,1-.342,0c-.16-.015-.224.06-.24.209s-.051.286-.059.43-.062.167-.191.174c-.437.023-.445.023-.374-.416.186-1.154.38-2.307.558-3.462.032-.21.116-.263.319-.259.6.01.609,0,.709.595.18,1.071.34,2.146.53,3.215C913.581,288.766,913.507,288.855,913.232,288.793Zm-.776-3.252h-.04c-.081.569-.157,1.14-.248,1.708-.035.218.107.2.22.173s.358.133.317-.171C912.627,286.682,912.539,286.112,912.456,285.541Zm-2.965-.536c-.057-.286-.191-.338-.46-.345-.32-.007-.331.09-.234.346a7.459,7.459,0,0,1,.681,3.591.781.781,0,0,0,0,.093c0,.058.024.086.084.107.36.126.574-.022.574-.4,0-.052,0-.1,0-.156a5.477,5.477,0,0,1,.1-1.513c.233-.672.451-1.35.681-2.042a2.142,2.142,0,0,1-.245-.013c-.3-.053-.443.065-.5.368-.073.36-.2.709-.329,1.15C909.7,285.733,909.565,285.375,909.491,285.005Zm9.75-.16a8.182,8.182,0,0,1,.721,3.772.4.4,0,0,0,0,.093.08.08,0,0,0,.076.082,1.682,1.682,0,0,0,.523-.018c.125-.042.04-.22.056-.337.01-.071,0-.145,0-.218a5.189,5.189,0,0,1,.121-1.569c.238-.638.432-1.293.652-1.96-.1-.007-.168-.008-.237-.019-.288-.046-.445.043-.5.361a10.281,10.281,0,0,1-.307,1.064c-.035-.026-.061-.034-.066-.05q-.127-.415-.25-.831c-.176-.6-.176-.6-.834-.517C919.214,284.748,919.225,284.8,919.241,284.845Zm-2.127,3.694c-.014.276.124.271.315.263s.354.051.346-.266c-.025-1.006,0-2.013-.013-3.019,0-.185.042-.274.239-.247.071.01.146-.007.217,0,.285.042.224-.16.227-.316s.045-.3-.22-.292c-.486.024-.976.021-1.462,0-.252-.011-.34.048-.331.317.008.231.063.332.3.288.336-.063.417.09.4.4-.026.445-.006.892-.006,1.338C917.122,287.523,917.141,288.032,917.114,288.539Zm-2.65.025c0,.13-.014.244.181.24.456-.01.913,0,1.369,0,.066,0,.141.018.179-.078a.338.338,0,0,0-.345-.506,3.3,3.3,0,0,0-.435,0c-.24.032-.294-.064-.291-.293.013-.985-.008-1.971.013-2.956.006-.3-.123-.307-.348-.3-.207,0-.341,0-.329.287.026.59.008,1.182.008,1.774C914.465,287.34,914.467,287.952,914.464,288.564Z" transform="translate(-891.718 -250.156)"/></svg>