<svg xmlns="http://www.w3.org/2000/svg" width="1402.486" height="368.511" viewBox="0 0 1402.486 368.511"><defs><style>.a{opacity:0.2;}.b{fill:#8517dd;}</style></defs><g class="a"><g transform="translate(503.303 61.97)"><path class="b" d="M923.008,110.464H1011.3l-5.031,24.113H943.649l-4.857,23.59h56.2l-5.031,24.113H933.59l-5.379,25.494h62.445l-5.2,24.113H897.162Z" transform="translate(-897.162 -110.464)"/></g><g transform="translate(605.263 61.105)"><path class="b" d="M1195.474,108.922l-5.2,24.113H1131.3c-2.6,0-5.032,2.078-6.244,4.338a7.124,7.124,0,0,0-.52,2.775,4.28,4.28,0,0,0,1.907,3.64l41.281,25.675c.174,0-.171-.174,3.295,1.73a25.748,25.748,0,0,1,5.031,3.821,17.263,17.263,0,0,1,5.551,13.179l-.519,5.55L1179,202.767a34.482,34.482,0,0,1-12.143,19.079,47.893,47.893,0,0,1-29.487,10.23H1078.91l5.205-24.107H1142.4c6.071,0,10.233-2.426,10.753-5.2l1.563-7.461a3.4,3.4,0,0,0-1.736-2.95l-43.537-27.4c-7.109-4.338-11.447-11.45-11.447-19.776a30.167,30.167,0,0,1,.519-5.55c2.6-11.792,14.919-30.7,37.812-30.7Z" transform="translate(-1078.91 -108.922)"/></g><g transform="translate(720.06 61.97)"><path class="b" d="M1309.388,110.464h62.445c15.435,0,25.672,9.888,25.672,23.939a26.187,26.187,0,0,1-.694,6.764l-4.163,19.427c-4.163,19.776-22.2,30.877-37.986,30.877h-36.6l-8.671,40.417h-25.846Zm61.576,30.7.174-2.078a4.282,4.282,0,0,0-4.511-4.512h-36.6l-6.938,32.787h36.6c3.469,0,6.245-2.608,7.112-6.771Z" transform="translate(-1283.542 -110.464)"/></g><g transform="translate(839.711 61.105)"><path class="b" d="M1585.464,108.922c11.272,0,22.029,4.86,26.885,13.877a31.3,31.3,0,0,1,3.644,14.574,52.5,52.5,0,0,1-.868,8.151l-10.582,49.956a45.957,45.957,0,0,1-13.357,23.416,46.44,46.44,0,0,1-31.916,13.179h-32.087c-9.194,0-16.481-2.6-22.032-7.977s-8.326-12.141-8.326-20.466a36.7,36.7,0,0,1,.868-8.152l10.582-49.956a45.451,45.451,0,0,1,16.3-26.191,44.564,44.564,0,0,1,28.8-10.411Zm3.814,36.6.349-3.646c0-5.55-3.644-8.842-9.194-8.842h-32.091c-6.938,0-12.663,4.854-14.222,12.489l-10.582,49.956a18.288,18.288,0,0,0-.348,3.64c0,5.55,3.644,8.849,9.194,8.849h32.091c6.938,0,12.663-4.86,14.222-12.489Z" transform="translate(-1496.825 -108.922)"/></g><g transform="translate(964.041 61.97)"><path class="b" d="M1744.3,110.464h62.445c15.435,0,25.672,9.888,25.672,23.939a26.193,26.193,0,0,1-.694,6.764l-4.337,19.95a27.633,27.633,0,0,1-10.059,15.788l-5.031,3.989a24.228,24.228,0,0,1-8.845,5.028l-1.217.348,20.814,45.619h-29.312l-19.95-44.579h-19.947l-9.539,44.579h-25.846Zm61.576,30.7.174-2.078a4.282,4.282,0,0,0-4.511-4.512h-36.6l-6.07,28.618h38.681a2.927,2.927,0,0,0,1.736-.516l.865-.7a8.443,8.443,0,0,0,1.911-3.117Z" transform="translate(-1718.449 -110.464)"/></g><g transform="translate(1089.936 61.97)"><path class="b" d="M1948.068,110.464h104.42l-5.2,24.113h-39.2l-20.641,97.311h-26.017l20.815-97.311h-39.377Z" transform="translate(-1942.863 -110.464)"/></g><g transform="translate(1183.05 61.105)"><path class="b" d="M2225.407,108.922l-5.2,24.113H2161.23c-2.6,0-5.031,2.078-6.244,4.338a7.136,7.136,0,0,0-.523,2.775,4.292,4.292,0,0,0,1.911,3.64l41.282,25.675c.174,0-.175-.174,3.3,1.73a25.914,25.914,0,0,1,5.028,3.821,17.252,17.252,0,0,1,5.551,13.179l-.52,5.55-2.081,9.023a34.475,34.475,0,0,1-12.14,19.079,47.907,47.907,0,0,1-29.489,10.23h-58.456l5.206-24.107h58.282c6.07,0,10.233-2.426,10.753-5.2l1.562-7.461a3.406,3.406,0,0,0-1.733-2.95l-43.541-27.4c-7.112-4.338-11.447-11.45-11.447-19.776a29.884,29.884,0,0,1,.52-5.55c2.6-11.792,14.916-30.7,37.815-30.7Z" transform="translate(-2108.844 -108.922)"/></g><g transform="translate(475.556 192.464)"><path class="b" d="M873.548,343.076h88.291l-5.031,24.113H894.189l-4.856,23.59h56.2L940.5,414.892H884.13l-5.38,25.494H941.2l-5.2,24.113H847.7Z" transform="translate(-847.702 -343.076)"/></g><g transform="translate(599.199 192.464)"><path class="b" d="M1160.727,343.076h27.063L1121.872,464.5H1082.5l-14.4-121.424h27.059l9.54,97.311h5.031Z" transform="translate(-1068.102 -343.076)"/></g><g transform="translate(712.776 191.599)"><path class="b" d="M1359.2,341.534c11.272,0,22.028,4.86,26.885,13.877a31.3,31.3,0,0,1,3.643,14.574,52.487,52.487,0,0,1-.868,8.151l-10.582,49.956a45.96,45.96,0,0,1-13.357,23.416A46.443,46.443,0,0,1,1333,464.687h-32.087c-9.194,0-16.481-2.6-22.031-7.977s-8.326-12.14-8.326-20.466a36.7,36.7,0,0,1,.868-8.152l10.582-49.956a45.449,45.449,0,0,1,16.3-26.191,44.561,44.561,0,0,1,28.8-10.411Zm3.814,36.6.348-3.646c0-5.551-3.643-8.842-9.194-8.842h-32.09c-6.938,0-12.663,4.854-14.222,12.489l-10.582,49.956a18.239,18.239,0,0,0-.349,3.64c0,5.55,3.644,8.849,9.194,8.849h32.09c6.938,0,12.663-4.86,14.222-12.489Z" transform="translate(-1270.558 -341.534)"/></g><g transform="translate(837.107 192.464)"><path class="b" d="M1518.029,343.076h25.846l-20.644,97.311h57.937l-5.031,24.113h-83.953Z" transform="translate(-1492.183 -343.076)"/></g><g transform="translate(938.033 192.464)"><path class="b" d="M1764.719,343.076h27.056L1725.864,464.5h-39.377l-14.4-121.424h27.059l9.539,97.311h5.032Z" transform="translate(-1672.09 -343.076)"/></g><g transform="translate(1048.316 192.464)"><path class="b" d="M1894.52,343.076h88.288l-5.028,24.113h-62.619l-4.857,23.59h56.2l-5.031,24.113H1905.1l-5.376,25.494h62.445l-5.2,24.113h-88.291Z" transform="translate(-1868.674 -343.076)"/></g><g transform="translate(1157.389 192.464)"><path class="b" d="M2088.947,343.076h62.445c11.273,0,22.029,4.86,26.885,13.876a31.319,31.319,0,0,1,3.644,14.574,52.5,52.5,0,0,1-.868,8.152l-10.234,48.22a45.911,45.911,0,0,1-13.357,23.416,46.449,46.449,0,0,1-31.917,13.186H2063.1Zm66.088,36.6a13.251,13.251,0,0,0,.52-3.64c0-5.551-3.644-8.849-9.369-8.849h-36.6l-15.438,73.2h36.6c6.938,0,12.489-4.854,14.051-12.489Z" transform="translate(-2063.101 -343.076)"/></g><g transform="translate(92.735 62.34)"><path class="b" d="M369.03,362.672H165.3l49.163-181.578a94.4,94.4,0,0,1,91.186-69.97h6.163L261.653,296.419h22.659l174.524.69A94.349,94.349,0,0,1,369.03,362.672ZM487.492,191.738H407.283l14.451-53.926a36.009,36.009,0,0,1,34.782-26.688H509.09l-4.74,17.687H458.037a16.817,16.817,0,0,0-16.244,12.464l-8.782,32.774h38.235l3.666-13.687h-22.27l4.74-17.689h43.253Zm-9.243,29.33H419.785l-11.967,44.662h37.748l3.62-13.513H427.2l4.68-17.464h42.7L461.6,283.195H382.417l14.266-53.239h0l7.06-26.348h79.184Z" transform="translate(-165.304 -111.124)"/></g><path class="b" d="M1216.141,368.511,0,368.275,70.17,106.388A143.421,143.421,0,0,1,208.508.236L1402.486,0l-76.133,283.941A114.248,114.248,0,0,1,1216.141,368.511ZM22.509,351l1193.635.236a96.952,96.952,0,0,0,93.525-71.767l70.3-262.2L208.51,17.51A126.127,126.127,0,0,0,86.853,110.864Z"/><g transform="translate(400.184 12.402)"><rect class="b" width="351.234" height="17.274" transform="matrix(0.259, -0.966, 0.966, 0.259, 0, 339.238)"/></g></g></svg>