<svg xmlns="http://www.w3.org/2000/svg" width="69" height="12.155" viewBox="0 0 69 12.155"><defs><style>.a{fill:#fff;}</style></defs><g transform="translate(-426.72 -1412.2)"><g transform="translate(426.72 1412.2)"><path class="a" d="M433.38,1412.2a.991.991,0,0,0,.111.023c.337.03.674.056,1.01.089a8.407,8.407,0,0,1,1.6.317c.484.145.961.318,1.436.489.205.074.4.187.6.262a.22.22,0,0,0,.294-.224c0-.137,0-.273,0-.415h1.532v3.707c-.025,0-.053.008-.082.008h-1.206c-.069,0-.1-.016-.116-.092a2.539,2.539,0,0,0-.808-1.307,3.252,3.252,0,0,0-.953-.556,12.5,12.5,0,0,0-1.289-.41c-.327-.085-.667-.122-1-.176a9.076,9.076,0,0,0-1.74-.061c-.369.012-.735.08-1.1.126a4.341,4.341,0,0,0-1.118.3,1.515,1.515,0,0,0-.825.674.745.745,0,0,0,.458,1.082,6.857,6.857,0,0,0,.905.2c.335.058.674.1,1.012.135.248.029.5.043.746.069.324.034.648.073.973.11.277.031.555.056.831.092.3.039.6.086.9.131.351.052.7.1,1.052.159a9.028,9.028,0,0,1,1.913.53,4.4,4.4,0,0,1,1.055.6,2.9,2.9,0,0,1,.747.873,3.066,3.066,0,0,1,.367,1.036,3.167,3.167,0,0,1,.01.963,2.782,2.782,0,0,1-1.16,1.9,5.528,5.528,0,0,1-1.717.851q-.711.211-1.438.37a7.614,7.614,0,0,1-.915.117c-.272.025-.545.035-.818.046s-.542.033-.811.019a8.425,8.425,0,0,1-1.507-.173c-.581-.136-1.17-.245-1.743-.41-.5-.145-.987-.352-1.48-.531a.217.217,0,0,0-.321.206c-.017.187,0,.377,0,.571h-1.71v-4.242h1.548a2.45,2.45,0,0,0,.2.865,1.781,1.781,0,0,0,.362.519,4.008,4.008,0,0,0,1.907,1.122c.483.136.976.242,1.469.335a10.067,10.067,0,0,0,1.09.135,7.352,7.352,0,0,0,3.044-.374,2.127,2.127,0,0,0,.776-.418.953.953,0,0,0,.31-.6,1.029,1.029,0,0,0-.172-.764,1.08,1.08,0,0,0-.48-.336,4.919,4.919,0,0,0-1.18-.271c-.392-.049-.783-.108-1.176-.153-.317-.037-.636-.058-.954-.092-.3-.032-.6-.074-.894-.109-.269-.032-.54-.056-.809-.092s-.556-.086-.834-.13c-.379-.06-.759-.111-1.136-.183a6.582,6.582,0,0,1-1.352-.39,4.19,4.19,0,0,1-.934-.544,2.8,2.8,0,0,1-.912-1.192,2.494,2.494,0,0,1-.2-.913c0-.011-.014-.023-.023-.033v-.357a.525.525,0,0,0,.023-.078c.02-.13.027-.262.058-.39a2.665,2.665,0,0,1,.84-1.379,4.423,4.423,0,0,1,.91-.626,6.777,6.777,0,0,1,1.5-.579c.451-.115.908-.215,1.367-.287.409-.064.826-.08,1.238-.118a.2.2,0,0,0,.056-.023Z" transform="translate(-426.72 -1412.2)"/><path class="a" d="M550.439,1424.361a.423.423,0,0,0-.078-.023c-.395-.038-.79-.069-1.184-.113a9.06,9.06,0,0,1-2.086-.516,7.66,7.66,0,0,1-2.162-1.182,5.961,5.961,0,0,1-.57-.485,5.481,5.481,0,0,1-.894-1.19,5.338,5.338,0,0,1-.521-1.384,5.6,5.6,0,0,1-.1-.66c-.018-.172-.019-.346-.023-.519a4.941,4.941,0,0,1,.3-1.8,5.4,5.4,0,0,1,.884-1.577,5.747,5.747,0,0,1,1.641-1.364,9.174,9.174,0,0,1,1.874-.809,9.808,9.808,0,0,1,1.6-.376c.316-.043.633-.077.949-.111.121-.013.243-.015.364-.023a.274.274,0,0,0,.067-.023h.917a.485.485,0,0,0,.1.023,10.745,10.745,0,0,1,1.556.153,9.736,9.736,0,0,1,1.536.381,7.536,7.536,0,0,1,1.859.921c.289.2.557.43.825.656a4.741,4.741,0,0,1,1.179,1.544,5.219,5.219,0,0,1,.477,1.525,5.572,5.572,0,0,1,.058,1.192,5.507,5.507,0,0,1-1.122,2.985,5.805,5.805,0,0,1-.979.971,7.357,7.357,0,0,1-1.481.891,7.568,7.568,0,0,1-1.407.506c-.457.11-.917.2-1.38.288-.241.044-.489.052-.734.071-.155.012-.31.015-.465.024-.015,0-.03.015-.044.023Zm.591-1.624a4.844,4.844,0,0,0,1.112-.138,4.518,4.518,0,0,0,2.073-1.061,4.153,4.153,0,0,0,.858-1.1,4.385,4.385,0,0,0,.5-1.864,4.794,4.794,0,0,0-.136-1.488,4.063,4.063,0,0,0-1.995-2.634,5.063,5.063,0,0,0-2.246-.639,5.937,5.937,0,0,0-1.018.046,4.754,4.754,0,0,0-1.11.28,4.548,4.548,0,0,0-1.45.866,3.857,3.857,0,0,0-.786,1,4.72,4.72,0,0,0-.573,2.18,5.352,5.352,0,0,0,.041.638,4.139,4.139,0,0,0,.266,1.122,4.018,4.018,0,0,0,1.137,1.656,4.366,4.366,0,0,0,1.019.656,5.271,5.271,0,0,0,2.3.475Z" transform="translate(-526.33 -1412.208)"/><path class="a" d="M812.692,1418.437c-.51,0-1.021-.007-1.53,0a.9.9,0,0,0-.667.287c-.307.332-.6.674-.906,1.012-.189.212-.38.421-.567.634-.235.268-.466.54-.7.808-.172.2-.347.39-.52.587-.252.287-.5.576-.755.863-.178.2-.357.4-.536.6a4.423,4.423,0,0,0-.316.367.457.457,0,0,0-.069.247q-.008,1.053,0,2.107c0,.2.018.4.242.484a.784.784,0,0,0,.268.046c.476,0,.953,0,1.43,0h.129v1.371h-7.4v-1.371h.118c.469,0,.938,0,1.408,0a.484.484,0,0,0,.321-.089.392.392,0,0,0,.157-.319q.006-1.131,0-2.263a.321.321,0,0,0-.081-.183c-.165-.2-.341-.387-.51-.581-.232-.266-.46-.535-.692-.8-.131-.15-.267-.3-.4-.444-.255-.29-.508-.582-.763-.871-.132-.149-.267-.295-.4-.444-.255-.29-.508-.581-.763-.871l-.367-.413a2.764,2.764,0,0,0-.654-.587,1.227,1.227,0,0,0-.6-.18c-.461-.006-.923,0-1.394,0v-1.351h7.443v1.351h-.18c-.231,0-.462,0-.692,0a.258.258,0,0,0-.236.135c-.058.088-.01.166.041.231.135.173.278.34.418.51.168.2.335.408.5.61s.344.4.513.605c.212.252.42.509.632.762q.227.27.461.534a.089.089,0,0,0,.086.01c.136-.149.269-.3.4-.456.158-.183.313-.37.469-.555.2-.235.4-.472.6-.706.153-.179.31-.354.464-.532.218-.252.44-.5.646-.766a.312.312,0,0,0,.01-.234.21.21,0,0,0-.223-.145c-.29,0-.581,0-.871,0-.014,0-.029,0-.05,0v-1.353h6.091Z" transform="translate(-743.694 -1416.385)"/><path class="a" d="M668.543,1418.418v-1.348h.117l5.105,0a.237.237,0,0,1,.175.072c.352.321.708.634,1.062.952.176.158.348.319.524.477.354.317.709.633,1.063.95.17.153.338.308.508.461l1.079.966c.165.148.327.3.492.446l1.095.982q.243.218.484.438l1.006.913c0-.126,0-.231,0-.335-.006-.192-.016-.384-.021-.576,0-.126,0-.252,0-.379q-.01-.806-.023-1.612c-.007-.422-.011-.845-.023-1.267-.007-.228-.023-.455-.046-.682a.484.484,0,0,0-.437-.423c-.471-.015-.943-.018-1.414-.024-.085,0-.17,0-.262,0v-1.349h6.351v1.349h-.119c-.451,0-.9,0-1.353,0a1.188,1.188,0,0,0-.269.043.343.343,0,0,0-.263.291,2.428,2.428,0,0,0-.045.391c-.007.238,0,.476,0,.714q.01.99.023,1.98.01.834.023,1.668.011.851.023,1.7c.007.548.014,1.1.023,1.646,0,.292.015.584.023.876v.119h-.1c-.674,0-1.348,0-2.022,0a.226.226,0,0,1-.134-.054q-.511-.448-1.017-.9c-.245-.219-.485-.442-.73-.66-.305-.271-.615-.538-.921-.809-.235-.208-.465-.42-.7-.629-.316-.281-.635-.56-.952-.84-.152-.134-.3-.271-.453-.406l-1-.887c-.154-.137-.306-.277-.461-.414l-.968-.856c-.157-.139-.312-.281-.468-.422l-.723-.652a.479.479,0,0,0-.08-.045v.13q0,2.581,0,5.162a3.924,3.924,0,0,0,.046.537.439.439,0,0,0,.449.371h1.662v1.374H668.64v-1.374h.113c.458,0,.917,0,1.374,0a.44.44,0,0,0,.469-.4,1.542,1.542,0,0,0,.023-.3c0-2.207,0-4.415,0-6.622a.647.647,0,0,0-.647-.713,4.05,4.05,0,0,0-.487-.023c-.3,0-.6,0-.9,0A.2.2,0,0,1,668.543,1418.418Z" transform="translate(-634.195 -1416.377)"/></g></g></svg>