<svg xmlns="http://www.w3.org/2000/svg" xmlns:xlink="http://www.w3.org/1999/xlink" width="649" height="154.747" viewBox="0 0 649 154.747"><defs><style>.a{fill:#360660;}.b{fill:#fff;}.c{fill:url(#c);}.d{filter:url(#a);}</style><filter id="a" x="0" y="0" width="649" height="154.747" filterUnits="userSpaceOnUse"><feOffset dy="3" input="SourceAlpha"/><feGaussianBlur stdDeviation="3" result="b"/><feFlood flood-opacity="0.161"/><feComposite operator="in" in2="b"/><feComposite in="SourceGraphic"/></filter><linearGradient id="c" y1="0.5" x2="1" y2="0.5" gradientUnits="objectBoundingBox"><stop offset="0.008" stop-color="#79f8ad"/><stop offset="0.17" stop-color="#74f8af"/><stop offset="0.356" stop-color="#66f9b8"/><stop offset="0.555" stop-color="#4ffac6"/><stop offset="0.761" stop-color="#2efcd9"/><stop offset="0.973" stop-color="#05fef2"/><stop offset="1" stop-color="#00fff6"/></linearGradient></defs><g transform="translate(9 6)"><g class="d" transform="matrix(1, 0, 0, 1, -9, -6)"><path class="a" d="M0,136.654,26.185,38.928A52.472,52.472,0,0,1,76.8.091L631,0,602.494,106.312a41.114,41.114,0,0,1-39.661,30.435Z" transform="translate(9 6)"/></g><g transform="translate(51.742 27.06)"><path class="b" d="M455.72,190H434.252l22.1-82.457h21.468Zm32.794,0,11.958-44.635,18.718,43.564,42.065-43.564L549.294,190h21.465l22.092-82.454H573.36l-44.791,46.389-19.935-46.389H489.142L467.049,190Zm155.028,0H581.836l16.83-62.812a26.5,26.5,0,0,1,25.6-19.642h61.7L669.14,170.355A26.5,26.5,0,0,1,643.542,190Zm-35.4-18.09h39.115l12.4-46.271H620.545ZM360.777,190l4.849-18.09H319.358l17.247-64.364H315.137L293.048,190Zm-73.635-19.641,16.83-62.815h-1.127a26.5,26.5,0,0,0-25.6,19.643l-11.981,44.724H231.308l17.247-64.367h-1.127a26.5,26.5,0,0,0-25.6,19.642L205,190h56.545A26.5,26.5,0,0,0,287.143,170.357Zm101.318-44.725L371.214,190h21.462l17.247-64.367h30.292l4.846-18.09H363.012l-4.846,18.09Z" transform="translate(-205 -107.458)"/><path class="c" d="M2114.305,143h-35.613l6.416-23.943a15.989,15.989,0,0,1,15.443-11.85H2123.9l-2.1,7.853h-20.563a7.467,7.467,0,0,0-7.212,5.534l-3.9,14.552h16.977l1.627-6.077h-9.888l2.1-7.854h19.2Zm-6.729,25.05h-19.205l-2.1,7.854h9.888l-.173.648a7.323,7.323,0,0,1-7.074,5.429h-11.356l5.382-20.086h26.292l2.1-7.853h-35.611l-9.592,35.793h23.344a15.988,15.988,0,0,0,15.443-11.851Z" transform="translate(-1596.379 -107.209)"/></g></g></svg>