<svg xmlns="http://www.w3.org/2000/svg" width="169.215" height="36.672" viewBox="0 0 169.215 36.672"><defs><style>.a{fill:#fff;}</style></defs><path class="a" d="M-12.405.024A14.071,14.071,0,0,0-25.978,10.439L-33,36.647l150.935.025a11.026,11.026,0,0,0,10.636-8.162L136.215,0Zm8.445,29.367H-19.124l4.513-16.845A7.107,7.107,0,0,1-7.747,7.279h.3L-12.07,24.54h9.107L.25,12.547A7.106,7.106,0,0,1,7.115,7.279h.3L2.9,24.124A7.107,7.107,0,0,1-3.961,29.392Zm26.611,0H4.487L10.411,7.279h5.757L11.543,24.54H23.951Zm8.554,0H25.449L30.074,12.13H21.95l1.3-4.851h22l-1.3,4.851H35.83Zm11.149,0L48.279,7.279h5.757L48.111,29.392Zm30.851,0,3.208-11.97L65.132,29.1l-5.02-11.683-3.207,11.97H51.149L57.074,7.279H62.3l5.346,12.44L79.659,7.279h5.227L78.961,29.391Zm25.275,0H81.932l4.513-16.844a7.107,7.107,0,0,1,6.865-5.267h16.547l-4.513,16.844A7.107,7.107,0,0,1,98.479,29.391Zm19.926-7.469h-7.051l-1.443,5.386h3.046a1.964,1.964,0,0,0,1.9-1.456l.047-.174h-2.652l.564-2.106h5.15l-.714,2.664a4.287,4.287,0,0,1-4.141,3.178h-6.26l2.572-9.6h9.55Zm3.369-12.56h-5.514a2,2,0,0,0-1.934,1.484l-1.046,3.9h4.553l.436-1.63h-2.652l.564-2.106h5.15l-1.565,5.842h-9.55l1.721-6.421a4.287,4.287,0,0,1,4.141-3.178h6.26ZM92.312,12.132H102.8L99.476,24.54H88.987Z" transform="translate(33)"/></svg>