<svg xmlns="http://www.w3.org/2000/svg" width="498.671" height="170.002" viewBox="0 0 498.671 170.002"><defs><style>.a,.b{fill:#fff;}.b{font-size:43px;font-family:Metral-Medium, Metral;font-weight:500;letter-spacing:0.01em;}</style></defs><g transform="translate(-463 -2640.293)"><path class="a" d="M-2205.224-886.452h9.993v76.594h-9.993Zm-370.956-.023,19.854,23.061-6.6,7.679-26.451-30.74Zm52.615,76.588-26.7-31.1-26.761,31.112h-13.458l65.844-76.6h13.418l-32.452,37.83,33.289,38.758Zm49.737.029h-9.993v-76.594h38.082c16.441.206,25.34,7.949,25.723,22.385-.388,14.334-9.311,22-25.792,22.128h-19.339c0-.624-.006-7.227-.006-7.857h18.365a19.252,19.252,0,0,0,11.973-3.682c3.127-2.359,4.7-5.841,4.811-10.629-.108-5.01-1.683-8.6-4.811-10.96-3.143-2.342-7.433-3.528-12.742-3.528h-26.273Zm78.649-76.616h59.628v7.966h-49.638v60.794h50.211v7.857h-60.2Zm54.314,33.117v7.811h-35.653c0-.653-.007-7.158-.007-7.811Zm37-33.117h39.228c.109-.006,11.133-.269,18.205,6.253,4.208,3.883,6.345,9.289,6.345,16.069l.029.974c0,2.348-.625,14.374-12.8,19.081l-1.66.641s18.525,32.516,19.144,33.6h-10.967l-17.587-31.909s-20.53,0-21.251-.006c.005-.985.005-7.714.005-8h18.389c.051.006,8.155.137,13.119-4.582a12.524,12.524,0,0,0,3.723-9.472c0-5.595-2.113-9.684-6.289-12.157a21.308,21.308,0,0,0-10.587-2.48h-27.024v68.6h-10.023Zm201.675,76.616c-.189-.441-10.16-23.307-10.16-23.307H-2139.4c.326-.767,3.2-7.445,3.379-7.857h20.215l-14.666-34.829s-28.29,65.547-28.484,65.993h-10.76c.47-1.042,34.24-76.158,34.435-76.594h9.964c.212.493,32.939,75.305,33.507,76.594Z" transform="translate(3053.485 3526.771)"/><text class="b" transform="translate(710.671 2799.295)"><tspan x="-212.162" y="0">The Sony Xperia 1 II </tspan></text></g></svg>