<svg id="Layer_1" data-name="Layer 1" xmlns="http://www.w3.org/2000/svg" viewBox="0 0 21.97 15.98"><defs><style>.cls-1{fill:#c25cff;}</style></defs><g id="rMdSVg.tif"><g id="Group_2798" data-name="Group 2798"><path id="Path_7863" data-name="Path 7863" class="cls-1" d="M3.59,3,4,2.75A16.74,16.74,0,0,1,6.63,1.64,13.09,13.09,0,0,1,8.48,1.2c.38-.06.77-.1,1.16-.14a16.15,16.15,0,0,1,2,0,12.63,12.63,0,0,1,1.51.12,14.1,14.1,0,0,1,2.55.6,16.51,16.51,0,0,1,1.68.7l1,.49s0,0,.07,0a.8.8,0,0,0-.17-.15,9.43,9.43,0,0,0-1.62-1.2A8.7,8.7,0,0,0,15.18.92a12.33,12.33,0,0,0-1.31-.4l-.06,0c-.06,0-.06,0,0-.08L14,.07A.09.09,0,0,1,14.06,0,6.56,6.56,0,0,1,15.3.22,10.37,10.37,0,0,1,17,.84a11.73,11.73,0,0,1,1.47.82l.39.26a1.13,1.13,0,0,1,.32.43A18.36,18.36,0,0,1,20.44,5.1c.26.72.48,1.46.67,2.21s.32,1.34.44,2q.12.69.21,1.38c.06.49.12,1,.16,1.46,0,.25,0,.5,0,.75a.19.19,0,0,1,0,.13,8.24,8.24,0,0,1-1.78,1.5,9,9,0,0,1-2.12,1,12,12,0,0,1-1.18.3,7.2,7.2,0,0,1-1.3.15.08.08,0,0,1-.09,0l-.73-1c-.05,0,0-.07,0-.1a9.38,9.38,0,0,0,1.31-.56A9.83,9.83,0,0,0,18,13a9.82,9.82,0,0,0,.81-.77.24.24,0,0,0,.07-.13l-.24.16a10.61,10.61,0,0,1-1.41.86,12.77,12.77,0,0,1-2.25.87,14.87,14.87,0,0,1-1.88.37c-.35.05-.71.07-1.07.09s-1,0-1.51,0-.89-.05-1.33-.1a12.33,12.33,0,0,1-1.48-.24,12,12,0,0,1-2.41-.8,11.43,11.43,0,0,1-2-1.14l-.14-.1h0a.44.44,0,0,0,.08.11,10.12,10.12,0,0,0,2.5,2,10.45,10.45,0,0,0,1.49.67c.13,0,.13.05.05.15l-.7.93a.09.09,0,0,1-.11.05,7.77,7.77,0,0,1-1.73-.25,9.32,9.32,0,0,1-1.78-.6,8.3,8.3,0,0,1-1.65-1A8.18,8.18,0,0,1,0,13a.17.17,0,0,1,0-.1c0-.3,0-.61.07-.92s0-.57.09-.86l.12-1C.37,9.59.48,9,.6,8.41s.31-1.34.5-2,.4-1.26.64-1.87A16.86,16.86,0,0,1,2.88,2.15a1.18,1.18,0,0,1,.4-.37A11.2,11.2,0,0,1,4.7,1,10.67,10.67,0,0,1,7.16.11c.25,0,.5-.08.75-.11A.1.1,0,0,1,8,.07c.05.11.11.22.17.33s0,.09,0,.1A11.4,11.4,0,0,0,7,.83,9.11,9.11,0,0,0,4.72,2a13,13,0,0,0-1.11.88.09.09,0,0,0,0,.05h0Zm8.9,6c0,.11,0,.23,0,.34a2,2,0,0,0,.82,1.4,1.52,1.52,0,0,0,1,.29,1.73,1.73,0,0,0,1.42-1.06A2.16,2.16,0,0,0,16,8.68a2,2,0,0,0-.82-1.39,1.56,1.56,0,0,0-2,.18A2,2,0,0,0,12.49,9Zm-3,0a2.1,2.1,0,0,0-.6-1.5,1.59,1.59,0,0,0-2.24-.06l-.09.1a2.19,2.19,0,0,0-.08,2.84A1.62,1.62,0,0,0,7.63,11,1.59,1.59,0,0,0,9,10.37,2.09,2.09,0,0,0,9.49,9Zm-6.4,3.07h0v0h0v0Z"/><path id="Path_7864" data-name="Path 7864" class="cls-1" d="M3.59,3h0Z"/><path id="Path_7865" data-name="Path 7865" class="cls-1" d="M3.09,12.06v0h0v0Z"/></g></g></svg>