<svg xmlns="http://www.w3.org/2000/svg" xmlns:xlink="http://www.w3.org/1999/xlink" width="21.962" height="15.971" viewBox="0 0 21.962 15.971"><defs><style>.a{fill:url(#a);}</style><linearGradient id="a" x1="0.5" x2="0.5" y2="1" gradientUnits="objectBoundingBox"><stop offset="0" stop-color="#64f9a0"/><stop offset="1" stop-color="#5ff5f9"/></linearGradient></defs><path class="a" d="M1479.448-737.213a4.083,4.083,0,0,0,.415-.2,17.71,17.71,0,0,1,2.629-1.109,12.933,12.933,0,0,1,1.843-.439c.385-.062.772-.1,1.161-.139a16.637,16.637,0,0,1,1.974-.043,14.359,14.359,0,0,1,1.505.127,13.15,13.15,0,0,1,2.548.6,15.271,15.271,0,0,1,1.689.7c.334.162.666.328,1,.491.017.008.032.025.061.017a.908.908,0,0,0-.165-.155,10.089,10.089,0,0,0-1.619-1.2,9.1,9.1,0,0,0-1.456-.676,12.972,12.972,0,0,0-1.307-.4c-.019,0-.038-.013-.057-.016-.061-.01-.063-.037-.036-.087.061-.113.119-.228.172-.344a.1.1,0,0,1,.112-.066,7.157,7.157,0,0,1,1.243.216,10,10,0,0,1,1.718.619,11.374,11.374,0,0,1,1.473.815c.131.086.259.178.389.264a1.13,1.13,0,0,1,.314.43,17.1,17.1,0,0,1,1.24,2.747c.264.726.485,1.466.678,2.214.172.667.315,1.341.436,2.02.082.459.151.921.211,1.383q.094.728.156,1.46c.021.247.037.494.052.741a.175.175,0,0,1-.053.136,8,8,0,0,1-1.773,1.494,9.2,9.2,0,0,1-2.125.972,10.549,10.549,0,0,1-1.183.3,7.506,7.506,0,0,1-1.3.156.091.091,0,0,1-.085-.042q-.365-.49-.734-.977c-.043-.056-.031-.074.031-.1a10.074,10.074,0,0,0,1.31-.568,9.9,9.9,0,0,0,1.906-1.293c.283-.245.55-.505.806-.776a.215.215,0,0,0,.069-.125c-.078.053-.157.106-.234.161a10.935,10.935,0,0,1-1.411.854,11.89,11.89,0,0,1-2.254.869,13.891,13.891,0,0,1-1.875.373c-.355.047-.713.07-1.072.095-.5.035-1.009.038-1.513.024-.444-.012-.887-.044-1.329-.094a14.35,14.35,0,0,1-1.482-.243,12.008,12.008,0,0,1-2.413-.8,11.464,11.464,0,0,1-1.972-1.145l-.146-.1s-.01,0-.028,0a.385.385,0,0,0,.084.115,9.986,9.986,0,0,0,2.5,1.967,10,10,0,0,0,1.487.671c.127.045.127.046.048.152q-.348.466-.7.932a.11.11,0,0,1-.105.051,8.53,8.53,0,0,1-1.738-.253,9.762,9.762,0,0,1-1.771-.6,8.9,8.9,0,0,1-1.658-.968,8.089,8.089,0,0,1-1.224-1.128.12.12,0,0,1-.032-.093c.016-.307.037-.614.067-.92.028-.286.053-.573.089-.858.041-.325.079-.65.127-.973q.13-.891.318-1.772.213-1.008.5-2,.276-.948.637-1.868a16.445,16.445,0,0,1,1.142-2.389,1.245,1.245,0,0,1,.4-.375,10.706,10.706,0,0,1,1.418-.824,10.156,10.156,0,0,1,2.46-.84,6.924,6.924,0,0,1,.751-.112.1.1,0,0,1,.112.064c.052.114.107.227.169.336.038.067.016.085-.049.1a10.512,10.512,0,0,0-1.141.328,9.332,9.332,0,0,0-2.276,1.166,13.749,13.749,0,0,0-1.11.882c-.017.015-.037.028-.034.055l-.023,0,.005.01Zm8.9,6.011a3.366,3.366,0,0,0,.019.347,2,2,0,0,0,.825,1.4,1.471,1.471,0,0,0,1.025.282,1.715,1.715,0,0,0,1.418-1.057,2.127,2.127,0,0,0,.18-1.25,1.968,1.968,0,0,0-.815-1.387,1.565,1.565,0,0,0-2.034.177A2.037,2.037,0,0,0,1488.347-731.2Zm-3,.038a2.085,2.085,0,0,0-.6-1.5,1.582,1.582,0,0,0-2.335.037,2.084,2.084,0,0,0-.553,1.575,2.081,2.081,0,0,0,.476,1.264,1.6,1.6,0,0,0,1.15.617,1.588,1.588,0,0,0,1.38-.618A2.073,2.073,0,0,0,1485.344-731.164Zm-6.4,3.07-.007,0a.145.145,0,0,0,.006.013s.007,0,.006,0A.1.1,0,0,0,1478.943-728.095Z" transform="translate(-1475.865 740.145)"/></svg>