<svg id="Layer_1" data-name="Layer 1" xmlns="http://www.w3.org/2000/svg" viewBox="0 0 18.56 18.57"><defs><style>.cls-1{fill:#c25cff;}</style></defs><g id="Group_5701" data-name="Group 5701"><path id="Path_147" data-name="Path 147" class="cls-1" d="M9.85,11.5v7c-.22,0-.43.05-.64.05H1.38C.28,18.57,0,18.29,0,17.21V1.36C0,.32.33,0,1.4,0H17.18c1.06,0,1.38.33,1.38,1.39V17.24c0,1-.29,1.33-1.35,1.33H12.93V11.5c.6,0,1.19,0,1.77,0,.4,0,.62-.1.65-.54.07-.76.17-1.53.26-2.38H12.9c0-.75,0-1.43,0-2.11a.92.92,0,0,1,.9-.94h0c.59,0,1.19-.08,1.83-.11V2.93A8.18,8.18,0,0,0,12,3.07,3.11,3.11,0,0,0,9.93,6c-.06.85,0,1.71,0,2.62H7.48c0,.9,0,1.76,0,2.61,0,.11.3.29.47.3C8.57,11.52,9.19,11.5,9.85,11.5Z"/></g></svg>