<svg id="Layer_1" data-name="Layer 1" xmlns="http://www.w3.org/2000/svg" viewBox="0 0 134.05 138.81"><defs><style>.cls-1{fill:#6e3590;}.cls-2{fill:#46255c;}.cls-3{fill:#fff;}.cls-4{fill:#9b9b9b;}.cls-5{fill:#885daa;}</style></defs><g id="Group_5692" data-name="Group 5692"><g id="Group_2168" data-name="Group 2168"><path id="Path_5734" data-name="Path 5734" class="cls-1" d="M95.43,97.09l.08-.09Z"/><path id="Path_5735" data-name="Path 5735" class="cls-1" d="M95.8,96.68l.13-.15Z"/><path id="Path_5737" data-name="Path 5737" class="cls-1" d="M95,97.6l.09-.11Z"/><path id="Path_5742" data-name="Path 5742" class="cls-1" d="M96.18,96.26l.15-.16Z"/><path id="Path_5745" data-name="Path 5745" class="cls-1" d="M97,95.39l.12-.12Z"/><path id="Path_5746" data-name="Path 5746" class="cls-1" d="M98.41,94.06l.2-.19Z"/><path id="Path_5749" data-name="Path 5749" class="cls-1" d="M98.84,93.65l.2-.17Z"/><path id="Path_5750" data-name="Path 5750" class="cls-1" d="M98,94.46l.19-.18Z"/><path id="Path_5751" data-name="Path 5751" class="cls-1" d="M97.55,94.86l.16-.16Z"/><path id="Path_5752" data-name="Path 5752" class="cls-1" d="M96.58,95.84l.16-.16Z"/><path id="Path_5755" data-name="Path 5755" class="cls-2" d="M99.07,93.45l0,0Z"/><path id="Path_5757" data-name="Path 5757" class="cls-2" d="M95.92,96.53l.24-.27Z"/><path id="Path_5761" data-name="Path 5761" class="cls-2" d="M97.15,95.27l.4-.4Z"/><path id="Path_5765" data-name="Path 5765" class="cls-2" d="M96.33,96.1l.25-.26Z"/><path id="Path_5766" data-name="Path 5766" class="cls-2" d="M96.74,95.68l.29-.3Z"/><path id="Path_5768" data-name="Path 5768" class="cls-2" d="M95.52,97l.28-.32Z"/><path id="Path_5769" data-name="Path 5769" class="cls-2" d="M95.09,97.49l.34-.4Z"/><path id="Path_5770" data-name="Path 5770" class="cls-2" d="M98.17,94.28l.24-.22Z"/><path id="Path_5771" data-name="Path 5771" class="cls-2" d="M98.6,93.88l.25-.21Z"/><path id="Path_5773" data-name="Path 5773" class="cls-2" d="M97.71,94.72l.27-.25Z"/></g><g id="Group_2169" data-name="Group 2169"><path id="Path_5775" data-name="Path 5775" class="cls-1" d="M35.41,93.87l.2.19Z"/><path id="Path_5776" data-name="Path 5776" class="cls-1" d="M36.31,94.72l.15.15Z"/><path id="Path_5777" data-name="Path 5777" class="cls-1" d="M35,93.47l.2.18Z"/><path id="Path_5779" data-name="Path 5779" class="cls-1" d="M38.51,97l.08.09Z"/><path id="Path_5780" data-name="Path 5780" class="cls-1" d="M38.09,96.53l.13.15Z"/><path id="Path_5781" data-name="Path 5781" class="cls-1" d="M37.68,96.1l.16.16Z"/><path id="Path_5782" data-name="Path 5782" class="cls-1" d="M37.28,95.68l.15.16Z"/><path id="Path_5783" data-name="Path 5783" class="cls-1" d="M36.87,95.27l.12.12Z"/><path id="Path_5784" data-name="Path 5784" class="cls-1" d="M35.85,94.29l.19.18Z"/><path id="Path_5794" data-name="Path 5794" class="cls-1" d="M38.93,97.5l.09.12Z"/><path id="Path_5797" data-name="Path 5797" class="cls-2" d="M36.47,94.87l.4.4Z"/><path id="Path_5799" data-name="Path 5799" class="cls-2" d="M37,95.38l.29.3Z"/><path id="Path_5800" data-name="Path 5800" class="cls-2" d="M38.58,97.09c.12.13.24.26.35.4Z"/><path id="Path_5803" data-name="Path 5803" class="cls-2" d="M37.44,95.84l.25.26Z"/><path id="Path_5804" data-name="Path 5804" class="cls-2" d="M37.84,96.26l.24.27Z"/><path id="Path_5805" data-name="Path 5805" class="cls-2" d="M38.22,96.67l.29.33Z"/><path id="Path_5807" data-name="Path 5807" class="cls-2" d="M36,94.46l.27.26Z"/><path id="Path_5812" data-name="Path 5812" class="cls-2" d="M35.61,94.06l.25.22Z"/><path id="Path_5813" data-name="Path 5813" class="cls-2" d="M35,93.45h0l0,0Z"/><path id="Path_5814" data-name="Path 5814" class="cls-2" d="M35.18,93.66l.24.21Z"/></g><path id="Path_5817" data-name="Path 5817" class="cls-3" d="M121.34,51.37c-.57-1.08-1.54-2.76-1.54-2.76a7.73,7.73,0,0,1,3.54.32l0,.07-1.94,2.39Z"/><path id="Path_5818" data-name="Path 5818" class="cls-4" d="M124.25,51.85a14.09,14.09,0,0,1-2.81-.46L123.38,49C124.46,51.18,124.25,51.85,124.25,51.85Z"/><path id="Path_5819" data-name="Path 5819" class="cls-3" d="M124.38,47.94c-.57-1.08-1.54-2.75-1.54-2.75a7.73,7.73,0,0,1,3.54.31l0,.07L124.48,48Z"/><path id="Path_5820" data-name="Path 5820" class="cls-4" d="M127.29,48.42a13.48,13.48,0,0,1-2.82-.45l1.94-2.4C127.51,47.76,127.29,48.42,127.29,48.42Z"/><path id="Path_5821" data-name="Path 5821" class="cls-3" d="M117.28,52.07a8.48,8.48,0,0,1,3.4.25l-1.92,2.36C118.17,53.61,117.28,52.07,117.28,52.07Z"/><path id="Path_5822" data-name="Path 5822" class="cls-4" d="M121.72,55.3a13.73,13.73,0,0,1-2.91-.49l-.07-.13,1.92-2.37.15.06C122,54.63,121.72,55.3,121.72,55.3Z"/><path id="Path_5823" data-name="Path 5823" class="cls-3" d="M114.6,55.51a8.89,8.89,0,0,1,3.29.22L116,58C115.45,57,114.6,55.51,114.6,55.51Z"/><path id="Path_5824" data-name="Path 5824" class="cls-4" d="M119.06,58.75a15,15,0,0,1-2.91-.49L116,58l1.87-2.3.24.09C119.29,58.08,119.06,58.75,119.06,58.75Z"/><path id="Path_5825" data-name="Path 5825" class="cls-3" d="M112.2,58.4a8.75,8.75,0,0,1,3.34.24L113.64,61C113.06,59.89,112.2,58.4,112.2,58.4Z"/><path id="Path_5826" data-name="Path 5826" class="cls-4" d="M116.65,61.64a14.28,14.28,0,0,1-2.91-.49l-.1-.19,1.89-2.32.2.07C116.87,61,116.65,61.64,116.65,61.64Z"/><path id="Path_5827" data-name="Path 5827" class="cls-3" d="M109.85,61.3a8.92,8.92,0,0,1,3.33.24l-1.9,2.33C110.71,62.79,109.85,61.3,109.85,61.3Z"/><path id="Path_5828" data-name="Path 5828" class="cls-4" d="M114.29,64.53a14.38,14.38,0,0,1-2.91-.48l-.1-.2,1.89-2.32.21.07C114.52,63.86,114.29,64.53,114.29,64.53Z"/><path id="Path_5829" data-name="Path 5829" class="cls-3" d="M107.47,64.34a8.89,8.89,0,0,1,3.25.22l-1.85,2.28C108.29,65.77,107.47,64.34,107.47,64.34Z"/><path id="Path_5830" data-name="Path 5830" class="cls-4" d="M111.91,67.57a15.13,15.13,0,0,1-2.91-.49l-.14-.26,1.85-2.28.28.1C112.14,66.9,111.91,67.57,111.91,67.57Z"/><path id="Path_5831" data-name="Path 5831" class="cls-3" d="M105,67.33a9.17,9.17,0,0,1,3.26.22l-1.85,2.28C105.87,68.76,105,67.33,105,67.33Z"/><path id="Path_5832" data-name="Path 5832" class="cls-4" d="M109.49,70.57a14.47,14.47,0,0,1-2.92-.48l-.13-.27,1.85-2.28.28.1C109.72,69.89,109.49,70.57,109.49,70.57Z"/><path id="Path_5833" data-name="Path 5833" class="cls-3" d="M103.8,70.31c.26.57.53,1.17.8,1.79l1.24-1.52A7.83,7.83,0,0,0,103.8,70.31Z"/><path id="Path_5834" data-name="Path 5834" class="cls-4" d="M106.12,70.68l-.28-.1L104.6,72.1l.55,1.26a11.81,11.81,0,0,0,1.87.24S107.24,72.92,106.12,70.68Z"/><path id="Path_5835" data-name="Path 5835" class="cls-3" d="M11.58,45.6a8.15,8.15,0,0,0-3.47.29l2,2.42C10.65,47.22,11.58,45.6,11.58,45.6Z"/><path id="Path_5836" data-name="Path 5836" class="cls-4" d="M7.14,48.83a14.38,14.38,0,0,0,2.91-.48l0-.06-2-2.42-.07,0C6.91,48.16,7.14,48.83,7.14,48.83Z"/><path id="Path_5837" data-name="Path 5837" class="cls-3" d="M12.68,51.37c.57-1.08,1.54-2.76,1.54-2.76a7.73,7.73,0,0,0-3.54.32l0,.07,1.94,2.39Z"/><path id="Path_5838" data-name="Path 5838" class="cls-4" d="M9.78,51.85a14.09,14.09,0,0,0,2.81-.46L10.65,49C9.55,51.18,9.78,51.85,9.78,51.85Z"/><path id="Path_5839" data-name="Path 5839" class="cls-3" d="M16.73,52.07a8.5,8.5,0,0,0-3.4.25l1.93,2.36C15.84,53.61,16.73,52.07,16.73,52.07Z"/><path id="Path_5840" data-name="Path 5840" class="cls-4" d="M12.29,55.3a13.62,13.62,0,0,0,2.91-.49l.08-.13-1.92-2.37-.15.06C12.06,54.63,12.29,55.3,12.29,55.3Z"/><path id="Path_5841" data-name="Path 5841" class="cls-3" d="M19.4,55.51a8.84,8.84,0,0,0-3.28.22L18,58C18.56,57,19.4,55.51,19.4,55.51Z"/><path id="Path_5842" data-name="Path 5842" class="cls-4" d="M15,58.75a15.13,15.13,0,0,0,2.91-.49L18,58l-1.87-2.3a1.34,1.34,0,0,0-.26.09C14.73,58.08,15,58.75,15,58.75Z"/><path id="Path_5843" data-name="Path 5843" class="cls-3" d="M21.82,58.4a8.75,8.75,0,0,0-3.34.24L20.38,61C21,59.89,21.82,58.4,21.82,58.4Z"/><path id="Path_5844" data-name="Path 5844" class="cls-4" d="M17.37,61.64a14.28,14.28,0,0,0,2.91-.49l.1-.19-1.89-2.32-.2.07C17.14,61,17.37,61.64,17.37,61.64Z"/><path id="Path_5845" data-name="Path 5845" class="cls-3" d="M24.16,61.3a8.92,8.92,0,0,0-3.33.24l1.89,2.33C23.3,62.79,24.16,61.3,24.16,61.3Z"/><path id="Path_5846" data-name="Path 5846" class="cls-4" d="M19.72,64.53a14.26,14.26,0,0,0,2.91-.48l.1-.2-1.89-2.32-.21.07C19.49,63.86,19.72,64.53,19.72,64.53Z"/><path id="Path_5847" data-name="Path 5847" class="cls-3" d="M26.55,64.34a9,9,0,0,0-3.26.22l1.85,2.28C25.72,65.77,26.55,64.34,26.55,64.34Z"/><path id="Path_5848" data-name="Path 5848" class="cls-4" d="M22.11,67.57A15.13,15.13,0,0,0,25,67.08l.14-.26L23.3,64.54l-.28.1C21.87,66.9,22.11,67.57,22.11,67.57Z"/><path id="Path_5849" data-name="Path 5849" class="cls-3" d="M29,67.33a9.12,9.12,0,0,0-3.25.22l1.85,2.28C28.15,68.76,29,67.33,29,67.33Z"/><path id="Path_5850" data-name="Path 5850" class="cls-4" d="M24.53,70.57a14.26,14.26,0,0,0,2.91-.48l.14-.27-1.85-2.28-.29.1C24.29,69.89,24.53,70.57,24.53,70.57Z"/><path id="Path_5851" data-name="Path 5851" class="cls-3" d="M30.22,70.31c-.26.57-.53,1.17-.8,1.79l-1.24-1.52A7.77,7.77,0,0,1,30.22,70.31Z"/><path id="Path_5852" data-name="Path 5852" class="cls-4" d="M27.89,70.68l.29-.1,1.23,1.52-.55,1.26A11.67,11.67,0,0,1,27,73.6S26.76,72.92,27.89,70.68Z"/><path id="Path_5853" data-name="Path 5853" class="cls-4" d="M67,46.75a3.41,3.41,0,0,1,3.25,2.85,3.72,3.72,0,0,0,.09-.81,3.35,3.35,0,0,0-6.67-.64,3.42,3.42,0,0,0,0,.64,3.72,3.72,0,0,0,.09.81A3.41,3.41,0,0,1,67,46.75Z"/><path id="Path_5854" data-name="Path 5854" class="cls-4" d="M69,53.86a3,3,0,0,1-2,.93h0a3,3,0,0,1-2-.93A4.83,4.83,0,0,0,67,56.71l.06,0,.08,0A4.77,4.77,0,0,0,69,53.86Z"/><path id="Path_5855" data-name="Path 5855" class="cls-1" d="M79.71,59.16a3,3,0,0,0,1.63-1.08,2.7,2.7,0,0,1-1.9,0,9.4,9.4,0,0,0,5.43-4.58,35.89,35.89,0,0,1-13.82,3.27A4.05,4.05,0,0,1,63,57v-.19a35.89,35.89,0,0,1-13.82-3.27,9.4,9.4,0,0,0,5.43,4.58,2.7,2.7,0,0,1-1.9,0,2.94,2.94,0,0,0,1.63,1.08,17.71,17.71,0,0,1-7.24-3.31s1,3.8,6.88,5.12a70.19,70.19,0,0,0,12.85,1.31h.44A70.29,70.29,0,0,0,80.08,61C85.94,59.65,87,55.85,87,55.85A17.58,17.58,0,0,1,79.71,59.16Z"/><path id="Path_5856" data-name="Path 5856" class="cls-1" d="M33.27,52.15a9.66,9.66,0,0,0-1.61,5.67,61.42,61.42,0,0,1,7.25,5.9,18.4,18.4,0,0,1,3.48,5.6A32.06,32.06,0,0,0,38,58.6C35,54.44,33.27,52.15,33.27,52.15Z"/><path id="Path_5857" data-name="Path 5857" class="cls-1" d="M37,69.24a18.17,18.17,0,0,0-1.91,4.27A49.17,49.17,0,0,0,47.16,84.19a17.37,17.37,0,0,1-2.91-4.47A34.33,34.33,0,0,0,37,69.24Z"/><path id="Path_5858" data-name="Path 5858" class="cls-1" d="M33,78.27s-2.95,5.94-2.56,7,7.87,7.14,16.5,9.62A25.43,25.43,0,0,1,41.59,89C40.22,86.38,36.64,80.06,33,78.27Z"/><path id="Path_5859" data-name="Path 5859" class="cls-1" d="M97,69.24a17.77,17.77,0,0,1,1.91,4.27A49.17,49.17,0,0,1,86.86,84.19a17.11,17.11,0,0,0,2.91-4.47A34.33,34.33,0,0,1,97,69.24Z"/><path id="Path_5860" data-name="Path 5860" class="cls-1" d="M101,78.27s3,5.94,2.56,7S95.67,92.44,87,94.92A25.22,25.22,0,0,0,92.43,89C93.8,86.38,97.38,80.06,101,78.27Z"/><path id="Path_5861" data-name="Path 5861" class="cls-3" d="M33.27,52.15a9.66,9.66,0,0,0-1.61,5.67s.66.46,1.6,1.16A9.85,9.85,0,0,1,33.27,52.15Z"/><path id="Path_5862" data-name="Path 5862" class="cls-2" d="M38,58.59,37,57.16a7.9,7.9,0,0,1-.4,4.41c.82.68,1.6,1.4,2.34,2.15a18.4,18.4,0,0,1,3.48,5.6A31.93,31.93,0,0,0,38,58.59Z"/><path id="Path_5863" data-name="Path 5863" class="cls-3" d="M37,69.24a18.17,18.17,0,0,0-1.91,4.27A6.71,6.71,0,0,0,36.23,75,20.16,20.16,0,0,1,37,69.24Z"/><path id="Path_5864" data-name="Path 5864" class="cls-2" d="M44.25,79.73a42,42,0,0,0-3-5.41,13,13,0,0,1-.37,5.19,38.33,38.33,0,0,0,6.29,4.68A17.32,17.32,0,0,1,44.25,79.73Z"/><path id="Path_5865" data-name="Path 5865" class="cls-3" d="M33,78.27s-2.95,5.94-2.56,7A6.25,6.25,0,0,0,32,86.9,22.72,22.72,0,0,1,33,78.27Z"/><path id="Path_5866" data-name="Path 5866" class="cls-2" d="M41.58,89c-.53-1-1.4-2.61-2.48-4.28a20.63,20.63,0,0,1-.55,6.6A40.08,40.08,0,0,0,47,94.91,25.22,25.22,0,0,1,41.58,89Z"/><path id="Path_5868" data-name="Path 5868" class="cls-5" d="M35.61,57.66c.07.23-.14.5-.49.63s-.66,0-.73-.19.14-.5.49-.62S35.53,57.44,35.61,57.66Z"/><path id="Path_5869" data-name="Path 5869" class="cls-2" d="M36,57.36a.69.69,0,0,1,.11.28,1.06,1.06,0,0,1-1,1.13,1.34,1.34,0,0,1-.74-.06,1.18,1.18,0,0,0,1.21.42,1.07,1.07,0,0,0,1-1.13A.89.89,0,0,0,36,57.36Z"/><path id="Path_5870" data-name="Path 5870" class="cls-3" d="M67,45.12a3.21,3.21,0,0,0-2.49,1.24,3.3,3.3,0,0,0,1.41.58,3.12,3.12,0,0,1,2.17,0,3.21,3.21,0,0,0,1.42-.57A3.21,3.21,0,0,0,67,45.12Z"/><path id="Path_5873" data-name="Path 5873" class="cls-2" d="M58.56,60.29a13.52,13.52,0,0,1-4.32-1.65,20,20,0,0,0,3.62-.42C52.3,57.31,51,54.33,51,54.33h0c-.61-.24-1.21-.5-1.84-.78a9.46,9.46,0,0,0,5.43,4.58,2.76,2.76,0,0,1-1.9,0,3,3,0,0,0,1.63,1.08,17.61,17.61,0,0,1-7.23-3.31A13.08,13.08,0,0,0,58.56,60.29Z"/><path id="Path_5874" data-name="Path 5874" class="cls-3" d="M97,69.24a17.74,17.74,0,0,1,1.9,4.27A6.37,6.37,0,0,1,97.79,75,20.52,20.52,0,0,0,97,69.24Z"/><path id="Path_5875" data-name="Path 5875" class="cls-2" d="M89.77,79.73a42,42,0,0,1,3-5.41,13,13,0,0,0,.37,5.19,38.33,38.33,0,0,1-6.29,4.68A17.32,17.32,0,0,0,89.77,79.73Z"/><path id="Path_5876" data-name="Path 5876" class="cls-3" d="M101,78.27s3,5.94,2.56,7A6.25,6.25,0,0,1,102,86.9,22.72,22.72,0,0,0,101,78.27Z"/><path id="Path_5877" data-name="Path 5877" class="cls-2" d="M92.44,89c.53-1,1.4-2.61,2.48-4.28a20.63,20.63,0,0,0,.55,6.6,40.08,40.08,0,0,1-8.42,3.58A25.22,25.22,0,0,0,92.44,89Z"/><g id="Group_2170" data-name="Group 2170"><path id="Path_5879" data-name="Path 5879" class="cls-1" d="M101.1,51.93a9.82,9.82,0,0,1,1.65,5.81,63.58,63.58,0,0,0-7.43,6.06,18.81,18.81,0,0,0-3.57,5.74,32.82,32.82,0,0,1,4.48-11C99.36,54.28,101.1,51.93,101.1,51.93Z"/><path id="Path_5880" data-name="Path 5880" class="cls-3" d="M101.1,51.93a9.82,9.82,0,0,1,1.65,5.81s-.67.47-1.64,1.19A10.09,10.09,0,0,0,101.1,51.93Z"/><path id="Path_5881" data-name="Path 5881" class="cls-2" d="M96.23,58.54l1.08-1.47a8.1,8.1,0,0,0,.4,4.52c-.83.69-1.64,1.43-2.4,2.2a19,19,0,0,0-3.56,5.74A32.77,32.77,0,0,1,96.23,58.54Z"/><path id="Path_5882" data-name="Path 5882" class="cls-5" d="M98.71,57.59c-.07.23.15.52.49.64s.68,0,.75-.19-.14-.51-.48-.63S98.79,57.35,98.71,57.59Z"/><path id="Path_5883" data-name="Path 5883" class="cls-2" d="M98.33,57.28a.7.7,0,0,0-.12.28,1.11,1.11,0,0,0,1,1.16,1.44,1.44,0,0,0,.77-.06,1.24,1.24,0,0,1-1.25.43,1.11,1.11,0,0,1-1-1.16A.88.88,0,0,1,98.33,57.28Z"/></g><path id="Path_5884" data-name="Path 5884" class="cls-2" d="M75.45,60.29a13.12,13.12,0,0,0,4.32-1.65,20,20,0,0,1-3.61-.42c5.55-.91,6.88-3.89,6.88-3.89h0c.6-.24,1.21-.5,1.84-.78a9.49,9.49,0,0,1-5.43,4.58,2.76,2.76,0,0,0,1.9,0,3,3,0,0,1-1.63,1.08A17.67,17.67,0,0,0,87,55.86,13.1,13.1,0,0,1,75.45,60.29Z"/><path id="Path_5886" data-name="Path 5886" class="cls-1" d="M82.89,69.36c-1.5.48-4.36,4.59-5,4.76a47.49,47.49,0,0,1-6,.55c-.76-.11-3.86-3.82-5-3.82s-4.2,3.71-5,3.82a47.82,47.82,0,0,1-6-.55c-.6-.17-3.46-4.27-4.95-4.76a2.41,2.41,0,0,0-2.6.44S53.41,82.22,54,84.07s1.11,2,2.52,3.41,5.26,5.87,7.1,6.55a10.19,10.19,0,0,0,6.72,0c1.85-.69,5.69-5.18,7.1-6.55s1.9-1.57,2.52-3.41S85.5,69.8,85.5,69.8A2.41,2.41,0,0,0,82.89,69.36Z"/><path id="Path_5887" data-name="Path 5887" class="cls-3" d="M72.35,71a8.18,8.18,0,0,1,6.94-3.6s-1.15,2.46-1.79,2.7S73.57,70.19,72.35,71Z"/><path id="Path_5888" data-name="Path 5888" class="cls-1" d="M51.13,69.36c1.49.48,4.35,4.59,4.95,4.76a47.82,47.82,0,0,0,6,.55c.76-.11,3.85-3.82,5-3.82s4.2,3.71,5,3.82a47.66,47.66,0,0,0,6-.55c.6-.17,3.46-4.27,4.95-4.76a2.41,2.41,0,0,1,2.6.44S80.6,82.22,80,84.07s-1.11,2-2.52,3.41S72.2,93.35,70.36,94a10.19,10.19,0,0,1-6.72,0c-1.85-.69-5.69-5.18-7.1-6.55s-1.9-1.57-2.52-3.41S48.51,69.8,48.51,69.8A2.43,2.43,0,0,1,51.13,69.36Z"/><path id="Path_5889" data-name="Path 5889" class="cls-3" d="M61.67,71a8.18,8.18,0,0,0-6.94-3.6s1.15,2.46,1.79,2.7S60.45,70.19,61.67,71Z"/><path id="Path_5890" data-name="Path 5890" class="cls-2" d="M67,91.59h0a8.43,8.43,0,0,1,3.9,2C69.66,88.2,67,79,67,77.54c0,1.42-2.64,10.67-3.9,16.08A8.43,8.43,0,0,1,67,91.59Z"/><path id="Path_5891" data-name="Path 5891" class="cls-1" d="M67,91.58a8.52,8.52,0,0,0-3.9,2l0,.13a3.81,3.81,0,0,0,.57.29,10.19,10.19,0,0,0,6.72,0,4.25,4.25,0,0,0,.56-.29l0-.13A8.49,8.49,0,0,0,67,91.58Z"/><path id="Path_5895" data-name="Path 5895" class="cls-1" d="M79.44,82.47a13.37,13.37,0,0,0,.7-4.06c0,.6-.11,1.21-.17,1.76A7.62,7.62,0,0,1,79.44,82.47Z"/><path id="Path_5896" data-name="Path 5896" class="cls-1" d="M80.36,76.53s0,.11,0,.19Z"/><path id="Path_5897" data-name="Path 5897" class="cls-1" d="M80.33,76.73h0c0,.13,0,.27,0,.41C80.29,77,80.31,76.86,80.33,76.73Z"/><path id="Path_5898" data-name="Path 5898" class="cls-1" d="M80.28,77.14c0,.14,0,.28,0,.42C80.25,77.42,80.26,77.28,80.28,77.14Z"/><path id="Path_5899" data-name="Path 5899" class="cls-2" d="M73.07,87.49c-.16.77,0,1.55.87,1.42a34.52,34.52,0,0,0,5.5-6.44,7.68,7.68,0,0,0,.52-2.3c.07-.56.13-1.16.18-1.76,0-.13,0-.27,0-.4v0c0-.14,0-.28,0-.42h0c0-.14,0-.29,0-.42h0c0-.14,0-.28,0-.42l0-.19a1.93,1.93,0,0,1-.77,1.55,31,31,0,0,1-4.8,2.18c-.15,0-.27-.16-.38-.44h0A41.5,41.5,0,0,1,73.07,87.49Z"/><path id="Path_5900" data-name="Path 5900" class="cls-2" d="M61,87.49c.16.77,0,1.55-.87,1.42a35,35,0,0,1-5.51-6.44,8,8,0,0,1-.52-2.3c-.06-.56-.12-1.16-.18-1.76l0-.4v0l0-.42h0c0-.14,0-.29,0-.42h0c0-.14,0-.28-.05-.42a.63.63,0,0,0,0-.19,2,2,0,0,0,.77,1.55,31,31,0,0,0,4.8,2.18c.15,0,.27-.16.38-.44h0A42.37,42.37,0,0,0,61,87.49Z"/><path id="Path_5901" data-name="Path 5901" class="cls-1" d="M80.19,78c0,.13,0,.26,0,.4C80.16,78.28,80.17,78.14,80.19,78Z"/><path id="Path_5902" data-name="Path 5902" class="cls-1" d="M80.22,77.57c0,.14,0,.28,0,.42A3,3,0,0,0,80.22,77.57Z"/><path id="Path_5903" data-name="Path 5903" class="cls-2" d="M67.74,68.62a1.22,1.22,0,0,1,1.17,0,2.38,2.38,0,0,0-1.19-1.09s0-.21.75-.42A16.27,16.27,0,0,1,68,64.53H66a17.51,17.51,0,0,1-.49,2.58c.73.21.76.42.76.42a2.34,2.34,0,0,0-1.19,1.09,1.2,1.2,0,0,1,1.16,0,3.22,3.22,0,0,0-1.84,2.09,3.74,3.74,0,0,1,5.15,0A3.19,3.19,0,0,0,67.74,68.62Z"/><path id="Path_5904" data-name="Path 5904" class="cls-1" d="M64.29,83.43a.65.65,0,0,1,.08-.41,1.27,1.27,0,0,1,.27-.34,2.43,2.43,0,0,1,.73-.43,4.74,4.74,0,0,1,3.28,0,2.34,2.34,0,0,1,.73.43,1.27,1.27,0,0,1,.27.34.64.64,0,0,1,.07.41.75.75,0,0,0-.18-.34,1.25,1.25,0,0,0-.3-.21,2.89,2.89,0,0,0-.71-.27,7.13,7.13,0,0,0-3,0,3.24,3.24,0,0,0-.71.27,1.29,1.29,0,0,0-.3.22A.76.76,0,0,0,64.29,83.43Z"/><path id="Path_5905" data-name="Path 5905" class="cls-1" d="M63.43,87a.84.84,0,0,1,.1-.54,1.32,1.32,0,0,1,.16-.25l.09-.1.1-.1a3.18,3.18,0,0,1,1-.57,5.18,5.18,0,0,1,1.07-.3,6.1,6.1,0,0,1,2.2,0,5,5,0,0,1,1.07.3,3.18,3.18,0,0,1,1,.57l.1.1.09.1a1.32,1.32,0,0,1,.16.25.84.84,0,0,1,.1.54.91.91,0,0,0-.24-.44,1.64,1.64,0,0,0-.4-.29,3.91,3.91,0,0,0-.94-.34,6.61,6.61,0,0,0-1-.17,8.54,8.54,0,0,0-1,0,8.44,8.44,0,0,0-1,0,6.74,6.74,0,0,0-1,.17,3.84,3.84,0,0,0-.93.34,1.64,1.64,0,0,0-.4.29A.87.87,0,0,0,63.43,87Z"/><path id="Path_5906" data-name="Path 5906" class="cls-1" d="M62.27,91.56A2.26,2.26,0,0,1,62.65,90a3.93,3.93,0,0,1,1.21-1.12,6.45,6.45,0,0,1,6.31,0A3.82,3.82,0,0,1,71.38,90a2.27,2.27,0,0,1,.39,1.55,2.56,2.56,0,0,0-.7-1.3,3.77,3.77,0,0,0-1.2-.8,7.32,7.32,0,0,0-5.7,0,4,4,0,0,0-1.2.8A2.48,2.48,0,0,0,62.27,91.56Z"/><path id="Path_5907" data-name="Path 5907" class="cls-5" d="M68.76,71.93l.08.07Z"/><path id="Path_5908" data-name="Path 5908" class="cls-5" d="M58.61,74.44l.16,0Z"/><path id="Path_5909" data-name="Path 5909" class="cls-5" d="M69,72.15l.08.07Z"/><path id="Path_5911" data-name="Path 5911" class="cls-5" d="M68.54,71.74l.07.07Z"/><path id="Path_5912" data-name="Path 5912" class="cls-5" d="M58.84,74.46l.2,0Z"/><path id="Path_5913" data-name="Path 5913" class="cls-5" d="M67.86,71.22l.07,0Z"/><path id="Path_5914" data-name="Path 5914" class="cls-5" d="M59.35,74.51l.21,0Z"/><path id="Path_5915" data-name="Path 5915" class="cls-5" d="M68.07,71.37l.06,0Z"/><path id="Path_5916" data-name="Path 5916" class="cls-5" d="M68.33,71.57l0,0Z"/><path id="Path_5917" data-name="Path 5917" class="cls-5" d="M59.12,74.49h0Z"/><path id="Path_5918" data-name="Path 5918" class="cls-5" d="M70.8,73.82l.12.1Z"/><path id="Path_5919" data-name="Path 5919" class="cls-5" d="M58.12,74.39l.16,0Z"/><path id="Path_5920" data-name="Path 5920" class="cls-5" d="M70.93,73.93a5.58,5.58,0,0,0,.6.49A5.58,5.58,0,0,1,70.93,73.93Z"/><path id="Path_5923" data-name="Path 5923" class="cls-5" d="M57.85,74.36l.2,0Z"/><path id="Path_5924" data-name="Path 5924" class="cls-5" d="M58.34,74.41l.2,0Z"/><path id="Path_5925" data-name="Path 5925" class="cls-5" d="M70.5,73.54l.11.1Z"/><path id="Path_5926" data-name="Path 5926" class="cls-5" d="M69.69,72.78l.8.75Z"/><path id="Path_5927" data-name="Path 5927" class="cls-5" d="M69.48,72.59l.12.1Z"/><path id="Path_5928" data-name="Path 5928" class="cls-5" d="M70.65,73.68l.12.1Z"/><path id="Path_5929" data-name="Path 5929" class="cls-5" d="M67.67,71.1l0,0Z"/><path id="Path_5930" data-name="Path 5930" class="cls-5" d="M69.27,72.39l.1.09Z"/><path id="Path_5931" data-name="Path 5931" class="cls-5" d="M65.69,71.57l.2-.16Z"/><path id="Path_5932" data-name="Path 5932" class="cls-5" d="M65.48,71.74l.16-.13Z"/><path id="Path_5933" data-name="Path 5933" class="cls-5" d="M63.22,73.82l0,0Z"/><path id="Path_5935" data-name="Path 5935" class="cls-5" d="M66,71.37l.14-.1Z"/><path id="Path_5936" data-name="Path 5936" class="cls-5" d="M65.26,71.94l.14-.12Z"/><path id="Path_5937" data-name="Path 5937" class="cls-5" d="M64.75,72.4l.18-.16Z"/><path id="Path_5938" data-name="Path 5938" class="cls-5" d="M66.17,71.22l.13-.09Z"/><path id="Path_5939" data-name="Path 5939" class="cls-5" d="M64.53,72.59l.12-.11Z"/><path id="Path_5940" data-name="Path 5940" class="cls-5" d="M59.61,74.53l.16,0Z"/><path id="Path_5941" data-name="Path 5941" class="cls-5" d="M63.37,73.68l0,0Z"/><path id="Path_5942" data-name="Path 5942" class="cls-5" d="M65,72.16l.17-.16Z"/><path id="Path_5944" data-name="Path 5944" class="cls-5" d="M59.85,74.55l.18,0Z"/><path id="Path_5945" data-name="Path 5945" class="cls-5" d="M66.88,70.86h0Z"/><path id="Path_5946" data-name="Path 5946" class="cls-5" d="M67.29,70.91l0,0Z"/><path id="Path_5947" data-name="Path 5947" class="cls-5" d="M67.47,71h0Z"/><path id="Path_5948" data-name="Path 5948" class="cls-5" d="M66.72,70.91l.1,0Z"/><path id="Path_5949" data-name="Path 5949" class="cls-5" d="M66.55,71l.13-.06Z"/><path id="Path_5951" data-name="Path 5951" class="cls-5" d="M66.35,71.1l.17-.1Z"/><path id="Path_5952" data-name="Path 5952" class="cls-5" d="M60.09,74.57l.17,0Z"/><path id="Path_5953" data-name="Path 5953" class="cls-5" d="M57,74.26l.15,0Z"/><path id="Path_5954" data-name="Path 5954" class="cls-5" d="M56.5,74.2l.13,0Z"/><path id="Path_5958" data-name="Path 5958" class="cls-5" d="M56.38,74.18h0Z"/><path id="Path_5960" data-name="Path 5960" class="cls-5" d="M56.82,74.24l.16,0Z"/><path id="Path_5963" data-name="Path 5963" class="cls-5" d="M56.66,74.22l.12,0Z"/><path id="Path_5965" data-name="Path 5965" class="cls-5" d="M56.08,74.12h0Z"/><path id="Path_5966" data-name="Path 5966" class="cls-5" d="M78.91,73.19a3.74,3.74,0,0,1-1,.93h0A3.74,3.74,0,0,0,78.91,73.19Z"/><path id="Path_5968" data-name="Path 5968" class="cls-5" d="M79.05,73l.6-.7Z"/><path id="Path_5970" data-name="Path 5970" class="cls-5" d="M56.25,74.15l.1,0Z"/><path id="Path_5973" data-name="Path 5973" class="cls-5" d="M56.17,74.13h0Z"/><path id="Path_5975" data-name="Path 5975" class="cls-5" d="M57.21,74.29l.18,0Z"/><path id="Path_5980" data-name="Path 5980" class="cls-5" d="M57.41,74.31l.17,0Z"/><path id="Path_5981" data-name="Path 5981" class="cls-5" d="M57.64,74.34l.18,0Z"/><path id="Path_5985" data-name="Path 5985" class="cls-5" d="M64.34,72.78l.08-.08Z"/><path id="Path_5990" data-name="Path 5990" class="cls-5" d="M63.1,73.92l.12-.1Z"/><path id="Path_5993" data-name="Path 5993" class="cls-5" d="M63.41,73.64l.11-.1Z"/><path id="Path_5995" data-name="Path 5995" class="cls-5" d="M54.36,72.34,55,73Z"/><path id="Path_5996" data-name="Path 5996" class="cls-5" d="M54,72l.32.37Z"/><path id="Path_5997" data-name="Path 5997" class="cls-5" d="M63.26,73.79l.11-.11Z"/><path id="Path_6004" data-name="Path 6004" class="cls-5" d="M62.5,74.43l.6-.49Z"/><path id="Path_6015" data-name="Path 6015" class="cls-5" d="M63.53,73.53l.8-.75Z"/><path id="Path_6016" data-name="Path 6016" class="cls-5" d="M75,74.48l.21,0Z"/><path id="Path_6018" data-name="Path 6018" class="cls-5" d="M75.74,74.41l.16,0Z"/><path id="Path_6019" data-name="Path 6019" class="cls-5" d="M75.48,74.43l.2,0Z"/><path id="Path_6020" data-name="Path 6020" class="cls-5" d="M76.19,74.36l.18,0Z"/><path id="Path_6021" data-name="Path 6021" class="cls-5" d="M76,74.38l.2,0Z"/><path id="Path_6022" data-name="Path 6022" class="cls-5" d="M74,74.57h0Z"/><path id="Path_6023" data-name="Path 6023" class="cls-5" d="M76.43,74.33l.18,0Z"/><path id="Path_6024" data-name="Path 6024" class="cls-5" d="M73.76,74.59l.17,0Z"/><path id="Path_6026" data-name="Path 6026" class="cls-5" d="M74.75,74.52l.15,0Z"/><path id="Path_6027" data-name="Path 6027" class="cls-5" d="M74.25,74.55l.16,0Z"/><path id="Path_6028" data-name="Path 6028" class="cls-5" d="M74.46,74.53l.21,0Z"/><path id="Path_6029" data-name="Path 6029" class="cls-5" d="M75.25,74.46l.16,0Z"/><path id="Path_6030" data-name="Path 6030" class="cls-5" d="M77.68,74.17l.1,0Z"/><path id="Path_6031" data-name="Path 6031" class="cls-5" d="M77.78,74.15l.07,0Z"/><path id="Path_6032" data-name="Path 6032" class="cls-5" d="M77.87,74.13h0Z"/><path id="Path_6033" data-name="Path 6033" class="cls-5" d="M56.08,74.12h0a4.08,4.08,0,0,1-1-.93A4.08,4.08,0,0,0,56.08,74.12Z"/><path id="Path_6035" data-name="Path 6035" class="cls-5" d="M77.39,74.2l.13,0Z"/><path id="Path_6036" data-name="Path 6036" class="cls-5" d="M77,74.26l.16,0Z"/><path id="Path_6037" data-name="Path 6037" class="cls-5" d="M77.54,74.19h0Z"/><path id="Path_6038" data-name="Path 6038" class="cls-5" d="M76.86,74.28l.14,0Z"/><path id="Path_6039" data-name="Path 6039" class="cls-5" d="M77.23,74.23h0Z"/><path id="Path_6040" data-name="Path 6040" class="cls-5" d="M76.62,74.31l.19,0Z"/><path id="Path_6041" data-name="Path 6041" class="cls-5" d="M66.09,71.27l.07,0Z"/><path id="Path_6042" data-name="Path 6042" class="cls-5" d="M66.52,71h0Z"/><path id="Path_6043" data-name="Path 6043" class="cls-5" d="M64.41,72.7l.12-.11Z"/><path id="Path_6044" data-name="Path 6044" class="cls-5" d="M66.29,71.13l0,0Z"/><path id="Path_6045" data-name="Path 6045" class="cls-5" d="M66.68,70.93l0,0Z"/><path id="Path_6046" data-name="Path 6046" class="cls-5" d="M67,70.85h0Z"/><path id="Path_6048" data-name="Path 6048" class="cls-5" d="M67.18,70.87l.1,0Z"/><path id="Path_6049" data-name="Path 6049" class="cls-5" d="M64.93,72.23l.08-.07Z"/><path id="Path_6050" data-name="Path 6050" class="cls-5" d="M64.66,72.48l.1-.09Z"/><path id="Path_6051" data-name="Path 6051" class="cls-5" d="M65.18,72l.08-.07Z"/><path id="Path_6052" data-name="Path 6052" class="cls-5" d="M65.64,71.61l0,0Z"/><path id="Path_6053" data-name="Path 6053" class="cls-5" d="M65.4,71.81l.08-.07Z"/><path id="Path_6054" data-name="Path 6054" class="cls-5" d="M65.89,71.42l.06,0Z"/><path id="Path_6055" data-name="Path 6055" class="cls-5" d="M70.77,73.79l0,0Z"/><path id="Path_6056" data-name="Path 6056" class="cls-5" d="M68.61,71.81l.15.12Z"/><path id="Path_6057" data-name="Path 6057" class="cls-5" d="M69.09,72.23l.18.16Z"/><path id="Path_6058" data-name="Path 6058" class="cls-5" d="M68.83,72l.18.16Z"/><path id="Path_6059" data-name="Path 6059" class="cls-5" d="M69.37,72.48l.11.11Z"/><path id="Path_6060" data-name="Path 6060" class="cls-5" d="M69.6,72.71l.09.08Z"/><path id="Path_6061" data-name="Path 6061" class="cls-5" d="M67.34,70.93l.13.06Z"/><path id="Path_6062" data-name="Path 6062" class="cls-5" d="M70.61,73.65l0,0Z"/><path id="Path_6063" data-name="Path 6063" class="cls-5" d="M68.37,71.61l.17.13Z"/><path id="Path_6064" data-name="Path 6064" class="cls-5" d="M67.5,71l.17.1A1,1,0,0,0,67.5,71Z"/><path id="Path_6065" data-name="Path 6065" class="cls-5" d="M67.73,71.13l.13.09Z"/><path id="Path_6066" data-name="Path 6066" class="cls-5" d="M68.12,71.41l.2.16Z"/><path id="Path_6067" data-name="Path 6067" class="cls-5" d="M67.93,71.27l.14.1Z"/><path id="Path_6068" data-name="Path 6068" class="cls-1" d="M77.26,83.52l.7-2,2-1.28v-.08c0-.1,0-.2,0-.3L78.07,81.2l.49-1.36,1.52-.66,0-.36-1.46.7.41-1.17-.39.2-.36,1.13-1.54.76.42-1.15-.36.17-.39,1.13-2.16,1.06v0l2.1-.92-.7,2.07-1.87,1.3v.06L75.64,83l-.86,2.54-1.55,1.27v0l1.5-1.15L73.65,88.9h0l1.21-3.3L77,84l-.9,2.84.07-.08,1-2.91,2.5-1.92a4.68,4.68,0,0,0,.11-.47Zm-.56-2.87L78.23,80l-.45,1.42L76,82.67Zm.35,3-2.12,1.74.95-2.56,1.8-1.16Z"/><path id="Path_6069" data-name="Path 6069" class="cls-1" d="M54.26,81.49c0,.17.08.33.11.47l2.5,1.92,1,2.91.07.08L57.06,84l2.09,1.61,1.21,3.29h0l-1.07-3.15,1.5,1.15v-.06L59.26,85.6l-.87-2.54,1.82,1.17v0l-1.87-1.3-.7-2.08,2.1.92v0l-2.16-1-.38-1.14-.37-.17.43,1.15-1.55-.75-.35-1.13-.4-.2.41,1.17-1.46-.71,0,.36,1.52.67L56,81.22,54,79.89c0,.1,0,.2,0,.3v.07l2,1.29.7,2Zm3.8,1.19-1.82-1.27L55.79,80l1.53.67Zm-1.73-1,1.8,1.16.95,2.56L57,83.69Z"/><path id="Path_6070" data-name="Path 6070" class="cls-5" d="M79.66,72.33l-.61.7-.14.16a3.74,3.74,0,0,1-1,.93h-.08l-.07,0h-.14l-.1,0h0l-.13,0h0l-.12,0h0l-.16,0h-.22l-.18,0h0l-.17,0h-.06l-.18,0h0l-.2,0h-.07l-.16,0h-.05l-.21,0h-.3l-.2,0h-.08l-.15,0H74.7l-.22,0H74l-.18,0h-.27a.85.85,0,0,0-.88.83.55.55,0,0,0,0,.18,4.62,4.62,0,0,0-1.09-1.2h0c-.18-.12-.38-.3-.6-.48h0l-.12-.11,0,0-.11-.1,0,0-.12-.1h0c-.25-.25-.52-.49-.8-.75l-.09-.09-.11-.1-.12-.11-.1-.1-.18-.16-.07-.07-.18-.15-.08-.07-.14-.12-.08-.07-.16-.13,0,0-.2-.16-.06,0-.14-.1-.06-.05L67.76,71l-.05,0-.18-.1,0,0-.12-.06,0,0-.1,0h0a.57.57,0,0,0-.26,0h0l-.1,0,0,0-.13.06,0,0-.17.1-.05,0-.14.09-.07.05-.14.1,0,0-.2.16,0,0-.17.13-.07.07-.15.12-.08.07-.17.15-.08.07-.18.16-.1.1-.11.11-.12.1-.09.08-.8.76h0l-.11.11,0,0-.11.1,0,0-.12.1h0a5.58,5.58,0,0,1-.6.49h0a4.34,4.34,0,0,0-1.1,1.2.84.84,0,0,0-.68-1h0l-.18,0h-.5l-.19,0h-.29l-.21,0h-.08l-.15,0h-.07l-.21,0h-.3l-.21,0h0l-.16,0h-.07l-.2,0h0l-.18,0h-.06l-.17,0h0l-.18,0h0l-.14,0h0l-.16,0h0l-.12,0h0l-.13,0h-.16l-.1,0h-.1l-.06,0h0a3.89,3.89,0,0,1-1-.93L55,73l-.61-.7L54.09,72a14,14,0,0,0-2.48-2.39,15.39,15.39,0,0,1,2.09,6.86.36.36,0,0,0,0,.1,1.93,1.93,0,0,0,.77,1.55,31,31,0,0,0,4.8,2.18c.38.07.54-1.19,1-1.94a12,12,0,0,1,4.06-2.2c.84-.3,2.74,0,2.74,1.41,0-1.44,1.9-1.71,2.74-1.41a12,12,0,0,1,4.06,2.2c.44.76.6,2,1,1.94a31,31,0,0,0,4.8-2.18c.59-.33.67-1,.77-1.55l0-.1a15.38,15.38,0,0,1,2.08-6.86A16.49,16.49,0,0,0,79.66,72.33Z"/><g id="Group_3400" data-name="Group 3400"><path id="Path_7873" data-name="Path 7873" class="cls-1" d="M35,93.46h0v0c-2.94-2.65-5.86-4.84-5.9-4.87A23,23,0,0,0,29.3,96q1.8,1.45,3.71,2.76l2.65-.62A21.46,21.46,0,0,0,35,93.46Z"/><path id="Path_7874" data-name="Path 7874" class="cls-1" d="M29.05,88.58h0a22.74,22.74,0,0,0-1.46,6h0A22.74,22.74,0,0,1,29.05,88.58Z"/><path id="Path_7875" data-name="Path 7875" class="cls-2" d="M38.5,97l-.29-.32-.14-.15-.24-.27-.15-.16-.24-.26-.15-.16-.3-.3-.12-.11-.4-.4-.16-.15L36,94.47l-.18-.18-.25-.22-.2-.19-.24-.21-.2-.19,0,0a21.46,21.46,0,0,1,.71,4.71q1.55-.36,3.24-.69-.16-.21-.33-.39Z"/><path id="Path_7876" data-name="Path 7876" class="cls-2" d="M35.66,98.17h0a20.24,20.24,0,0,0-.71-4.7h0A21.46,21.46,0,0,1,35.66,98.17Z"/><path id="Path_7878" data-name="Path 7878" class="cls-3" d="M29.05,88.58h0a22.74,22.74,0,0,0-1.46,6h0c.56.49,1.12,1,1.7,1.42A22.73,22.73,0,0,1,29.05,88.58Z"/><path id="Path_7879" data-name="Path 7879" class="cls-1" d="M98.35,98.46l2.23.61q2.15-1.44,4.16-3.06a22.86,22.86,0,0,0,.25-7.38l0,0s-2.94,2.18-5.9,4.87a0,0,0,0,1,0,0h0A21,21,0,0,0,98.35,98.46Z"/><path id="Path_7880" data-name="Path 7880" class="cls-2" d="M99.06,93.48l0,0-.2.18-.24.22-.2.18-.24.23-.19.18-.27.24-.15.15-.41.4L97,95.4l-.3.3-.15.16-.24.26-.16.16-.24.27-.13.14-.29.32-.08.09-.34.4-.09.12h0c1.11.26,2.23.53,3.34.83A21,21,0,0,1,99.06,93.48Z"/><path id="Path_7881" data-name="Path 7881" class="cls-2" d="M98.35,98.46a21,21,0,0,1,.72-5h0a21.37,21.37,0,0,0-.71,5Z"/><path id="Path_7882" data-name="Path 7882" class="cls-3" d="M104.74,96c.57-.46,1.14-.93,1.69-1.42a22.67,22.67,0,0,0-1.44-6A22.86,22.86,0,0,1,104.74,96Z"/></g><g id="Group_3401" data-name="Group 3401"><path id="Path_7883" data-name="Path 7883" class="cls-3" d="M50.16,137.06a2.12,2.12,0,0,0,.84-.67l.23-.3.32.18a2.25,2.25,0,0,0,1.46.23l1.67-.3a1.91,1.91,0,0,0,.41-.11l.09,0h.19a1.62,1.62,0,0,0,.31,0c.58-.09,1.15-.16,1.69-.23a2.11,2.11,0,0,0,.94-.35l.19-.13.21.09a2.3,2.3,0,0,0,.82.16h.2c.56,0,1.12-.1,1.68-.13a1.9,1.9,0,0,0,.25,0H62l1.89-.08a2.05,2.05,0,0,0,.94-.24L65,135l.2.09a2.25,2.25,0,0,0,1,.23l1.68,0h.36a2,2,0,0,0,.24,0c.64,0,1.28.05,1.89.1h.15a2.1,2.1,0,0,0,.82-.16l.2-.08.19.11a2.13,2.13,0,0,0,.92.3c.62.06,1.18.12,1.71.19l.27,0a2.23,2.23,0,0,0,1.29-.42l.27-.2.26.22a5.68,5.68,0,0,0,.91.63,4.69,4.69,0,0,0,1.3.46h.07l.28.05a4.88,4.88,0,0,0,.76.07,3.49,3.49,0,0,0,.65-.06,3.33,3.33,0,0,0,.92-.31l.37-.18.2.36a2.2,2.2,0,0,0,1.37,1c.61.16,1.14.3,1.62.45a2.31,2.31,0,0,1,.62.18l1.8.55a2.2,2.2,0,0,0,2.07-3.8l-.07-.07-.06-.06,0-.06-.33-.6L88.8,134l0-.15a3.35,3.35,0,0,0,0-1.51l-.38-1.62a4.39,4.39,0,0,0-.51-1.25,5.56,5.56,0,0,0-1.66-1.72l.44-.74a3.65,3.65,0,0,0,1.2.42c2,.31,4,.66,6,1.06a2.18,2.18,0,0,0,2.22-.88l.29-.41.36.36a12.21,12.21,0,0,0,2,1.56,10.12,10.12,0,0,0,2.9,1.27h.06l1.07.25a9,9,0,0,0,2.25.31c.26,0,.51,0,.76,0a6.86,6.86,0,0,0,2.72-.88,5.62,5.62,0,0,0,2-2.05,5.82,5.82,0,0,0,.73-3l0-4.22.24-.12a2.2,2.2,0,0,0,1-2.95,2.43,2.43,0,0,0-.43-.58,4.6,4.6,0,0,1-.55-.62,3.26,3.26,0,0,1-.24-.4l0-.12,0-4.74a7.6,7.6,0,0,0-.65-3,10.14,10.14,0,0,0-1.57-2.54,10.93,10.93,0,0,0-2.28-2.07,10.65,10.65,0,0,0-1.09-.63l9.06-5.63-.13-.53a153.21,153.21,0,0,0-6.36-18.4l25.94-31.58L132.68,45a17.41,17.41,0,0,0-2.8-2.89A16.6,16.6,0,0,0,125,39.31l-1.93-.69-16,20a8,8,0,0,0,.35-2.43,17.42,17.42,0,0,0-2.58-8.2,31,31,0,0,0-1.76-2.78c-.87-1.24-1-1.37-1.39-1.37h-.24l-.2.15a16.79,16.79,0,0,0-3.22,3.9l-.18.26c-.22.3-.42.6-.6.86l-.26.38,0-.07,0-.06,0,0-.07-.09V49l-.21-.17-.26-.34-.08-.08,0-.07-.09-.11L96,48.07,95.93,48l-.24-.27c-.45-.61-.85-1.14-1.28-1.67-.55-.7-1.11-1.35-1.7-2l-.1-.11-.36-.4-.11-.11-.4-.42,0,0-.36-.37a76.8,76.8,0,0,0,7.52-14.86l.18-.45a2.6,2.6,0,0,1,.1-.25c.09-.21.19-.42.3-.62l0,0c.23-.38.4-.4.56-.4a1.32,1.32,0,0,1,.44.08l.26.09a11.55,11.55,0,0,1,3.85,3.34l.78,1,.51-1.19a13.12,13.12,0,0,0,1-3.8v-.41c0-.38,0-.77,0-1.21,0-.1,0-.23,0-.34v-.3a.61.61,0,0,1,0-.14c0-.06,0-.12,0-.17v-.2c0-.05,0-.1,0-.14l0-.29a.68.68,0,0,0,0-.14l0-.12a.27.27,0,0,0,0-.1l0-.2,0-.08a3.61,3.61,0,0,0-.08-.38c-.06-.3-.15-.6-.21-.87s-.15-.54-.25-.82-.1-.3-.15-.43-.05-.14-.08-.22l-.1-.24-.07-.18-.05-.12,0-.07-.09-.21-.1-.21-.2-.41-.14-.28c-.09-.18-.18-.36-.29-.54l-.12-.25-.3-.48c-.06-.11-.13-.22-.2-.33a.35.35,0,0,0,0-.08l-.21-.33-.25-.34-.05-.08-.22-.3-.24-.33-.2-.27-.2-.24-.08-.09-.18-.23-.5-.6-.25-.28-.3-.33-.28-.3A33.58,33.58,0,0,0,98.4,9.26l-.24-.2Q97.48,8.5,96.84,8l-.26-.2-.15-.11-.2-.15-.6-.43L95.5,7c-.44-.32-.9-.63-1.37-.93l-.42-.27-.33-.21-.86-.52L92.3,5l-.15-.08-.23-.14-.85-.48L90.58,4l0,0-.05,0-.12-.07-.57-.28,0,0-.14-.07c-6-2.84-6-2.84-6.19-2.84L82.1.58l3.51,7c4.26,8.56,3.48,18-2.32,28.1l-.65-.47-.12-.08-.13-.09L82.27,35l.51-1-.08-.29c-.58-1.87-2.92-3.84-7-5.86l0,0a27.67,27.67,0,0,0-4.14-1.41,25.13,25.13,0,0,1,1.15-3.6,9.81,9.81,0,0,1,1-1.92l.25-.28,1.27-1.38-.06-.08,0,0-1.48-1.74,0,0-.07-.09a27.14,27.14,0,0,1-2.85-4.4l-.16-.34a18.5,18.5,0,0,1-.89-2c0-.14-.1-.27-.14-.4L67.82,4.47c-.11-.34-.23-.7-.69-.76l-.63-.09-2,6.41c0,.13-.08.27-.13.4a21.88,21.88,0,0,1-.89,2.05l-.17.33a26.43,26.43,0,0,1-2.84,4.4l-.09.1L59.24,18.6l-.39.48-.06.08,1.28,1.38.22.27a8.8,8.8,0,0,1,1,1.94,23.61,23.61,0,0,1,1.16,3.6,24.93,24.93,0,0,0-4.14,1.41h0c-4,2-6.39,4-7,5.87l-.09.28L51.77,35l-.14.1-.13.09-.11.08-.65.46c-5.8-10.1-6.58-19.55-2.32-28.1a47.83,47.83,0,0,0,3-6.2V0L49.9,1l-.9.42a3,3,0,0,0-.34.16l-2,1c-1.19.6-2.57,1.31-3.92,2-1,.54-2.19,1.2-3.37,1.92a32.16,32.16,0,0,0-3.83,2.74l-.31.27L35,9.8l-.24.21-.08.07-.27.25-.24.22-.37.35-.28.27-.28.29-.29.3-.28.3-.27.3a4.12,4.12,0,0,0-.28.31l-.27.31-.26.32c-.19.22-.36.44-.52.66l-.25.32c-.08.12-.16.24-.24.34l-.24.35a3.64,3.64,0,0,0-.24.35c-.08.11-.16.24-.23.35l-.16.27-.09.13-.37.65,0,.07-.15.28,0,.07-.13.25,0,.05,0,.12-.11.23-.06.12,0,0a1,1,0,0,1-.06.14v0a1,1,0,0,0-.07.15c0,.13-.1.25-.16.37v0l-.15.39c-.07.18-.13.36-.2.55l-.09.28-.18.59-.15.62a2.14,2.14,0,0,0-.06.27c0,.11,0,.22-.07.31a2.56,2.56,0,0,1,0,.27l0,.12c0,.08,0,.13,0,.22a2,2,0,0,0,0,.26s0,0,0,.08,0,.12,0,.17a.49.49,0,0,0,0,.12,2.66,2.66,0,0,0,0,.28c0,.23-.05.46-.05.7v1.42a13.43,13.43,0,0,0,1,4l.52,1.19.77-1.05a11.57,11.57,0,0,1,3.86-3.33l.26-.1a1.32,1.32,0,0,1,.44-.08c.16,0,.31,0,.56.4l0,0a5.51,5.51,0,0,1,.31.65c0,.07.07.15.1.23l.17.45a76.8,76.8,0,0,0,7.52,14.86l-.36.37-.54.57-.39.43-.06.08a43.93,43.93,0,0,0-3,3.68,3.22,3.22,0,0,1-.24.28l-.07.09c-.11.12-.22.24-.32.37l0,0-.27.34-.21.18v.1l-.07.09v0l0,.07,0,.05a31.75,31.75,0,0,0-4.26-5.4l-.58-.42-.45.56A30.47,30.47,0,0,0,28,50.36a12.06,12.06,0,0,0-1,8.22l-16-20-1.93.69a16.55,16.55,0,0,0-4.87,2.84A17,17,0,0,0,1.38,45L0,46.81,25.94,78.39a153.21,153.21,0,0,0-6.36,18.4l-.12.49.43.33c.34.27,3.47,2.68,7.81,5.76-1.39.4-2.78.83-4.16,1.27a2.2,2.2,0,0,0-1.43,2.76,2.22,2.22,0,0,0,.82,1.13l.19.13L23.06,116l0,.1c0,.07-.1.17-.2.32a5.51,5.51,0,0,1-.6.68,2.21,2.21,0,0,0,0,3.12,2.11,2.11,0,0,0,.58.41l.25.12,0,4.2a5.91,5.91,0,0,0,.73,3,5.62,5.62,0,0,0,2,2,6.66,6.66,0,0,0,2.75.86c.24,0,.49,0,.73,0a9,9,0,0,0,2.31-.33l1.09-.28A10.21,10.21,0,0,0,35.49,129a10.62,10.62,0,0,0,2.28-1.9l.41-.45.29.54.09.17a2.2,2.2,0,0,0,2.29,1l2.23-.42,1-.18-.59.85a2.23,2.23,0,0,0-.18,2.19l0,.1,0,.71-.08.12a2.21,2.21,0,0,0-.1,2.63l.08.12v.46l-.06.1a2.2,2.2,0,0,0,.69,3,2.12,2.12,0,0,0,1.17.33,2,2,0,0,0,.65-.1h0l1.68-.48.27-.1.06,0h.06a1.4,1.4,0,0,0,.28-.06l1.28-.32ZM38.64,115.49a5,5,0,0,0-.54.68,1.45,1.45,0,0,0-.28.62l0,5a4.91,4.91,0,0,1-.47,2.09,7.44,7.44,0,0,1-1.24,1.89,8.37,8.37,0,0,1-1.83,1.53,7.86,7.86,0,0,1-2.27,1l-1.1.29a6.16,6.16,0,0,1-2.26.22,4.34,4.34,0,0,1-1.83-.56A3.37,3.37,0,0,1,25.57,127a3.54,3.54,0,0,1-.44-1.85l0-5a1,1,0,0,0-.25-.5,2,2,0,0,0-.5-.42,7.24,7.24,0,0,0-.71-.41,6.87,6.87,0,0,0,.89-1A5.27,5.27,0,0,0,25,117a2,2,0,0,0,.15-.72l.06-7.48v-.39a1,1,0,0,0-.18-.63,2.11,2.11,0,0,0-.39-.45,2.41,2.41,0,0,0-.54-.41q3-1,6.06-1.8a5.18,5.18,0,0,0-.59.74,6,6,0,0,0-.4.7,1.74,1.74,0,0,0-.19.7c0,2.65,0,5.29-.05,7.94a2.34,2.34,0,0,0,0,.26,1.44,1.44,0,0,0,.17.45,2.38,2.38,0,0,0,.44.51,2.2,2.2,0,0,0,.83.43c-.24.26-.47.53-.7.81a6.24,6.24,0,0,0-.53.71,1.71,1.71,0,0,0-.28.65l0,5a1.14,1.14,0,0,0,.57,1.08,1.77,1.77,0,0,0,1.39.12L32,125a2.66,2.66,0,0,0,1.41-.86,2.05,2.05,0,0,0,.58-1.38l0-5a1.15,1.15,0,0,0-.25-.52,2.42,2.42,0,0,0-.51-.45,8.21,8.21,0,0,0-.73-.47,6.46,6.46,0,0,0,.9-1,6.13,6.13,0,0,0,.46-.78,2.2,2.2,0,0,0,.15-.72l.05-7.9a1.06,1.06,0,0,0-.18-.55,2.74,2.74,0,0,0-.4-.5,6.3,6.3,0,0,0-.55-.48q3.06-.77,6.13-1.41a5.18,5.18,0,0,0-.59.74,5.46,5.46,0,0,0-.41.75,2,2,0,0,0-.19.8q0,3.85,0,7.7a2.51,2.51,0,0,0,0,.27,1.3,1.3,0,0,0,.18.46,2.54,2.54,0,0,0,.44.54,2.58,2.58,0,0,0,.85.49,7.14,7.14,0,0,0-.7.75Zm12.81,12.72a1.63,1.63,0,0,0-.17.2,1.08,1.08,0,0,0-.12.24l-.78,2.23,0,.07a.38.38,0,0,0,0,.15.3.3,0,0,0,.08.16.66.66,0,0,0,.23.17c-.13.09-.24.18-.35.27l-.26.26a.62.62,0,0,0-.17.28l-.8,2.16a.45.45,0,0,0,0,.23.64.64,0,0,0,.06.18.37.37,0,0,0,.12.13h0l-1.74.44,0,0,.08-.1a.61.61,0,0,0,.12-.15,1.14,1.14,0,0,0,.1-.19.78.78,0,0,0,0-.21c0-.93,0-1.86,0-2.79-.38,1-.78,2.07-1.18,3.11a.52.52,0,0,0,0,.37.27.27,0,0,0,.06.1l.05.05,0,0c-.58.16-1.16.32-1.74.5h0a1.37,1.37,0,0,0,.2-.22,1,1,0,0,0,.12-.23.67.67,0,0,0,.07-.24c0-.66,0-1.31,0-2a.26.26,0,0,0-.08-.21.75.75,0,0,0-.17-.14L45,133a2.13,2.13,0,0,0,.33-.34,2,2,0,0,0,.16-.24.83.83,0,0,0,.06-.21c0-.67,0-1.35.08-2a.37.37,0,0,0-.14-.32.71.71,0,0,0-.14-.1l1.56-.49a1.77,1.77,0,0,0-.16.22,1.28,1.28,0,0,0-.11.2.65.65,0,0,0,0,.2c0,1.12-.08,2.24-.11,3.36.47-1.21.92-2.43,1.37-3.63,0,0,0,0,0,0s0,0,0,0a.3.3,0,0,0,0-.21.42.42,0,0,0-.09-.16,1.24,1.24,0,0,0-.18-.14l.2-.05,1.38-.38.2-.05a1.88,1.88,0,0,0-.24.25A1.24,1.24,0,0,0,49,129a.43.43,0,0,0-.09.22v0c0,1.1,0,2.2,0,3.29q.67-1.84,1.32-3.69a.32.32,0,0,0,0-.19.29.29,0,0,0,0-.16.36.36,0,0,0-.08-.15c.53-.13,1.06-.26,1.59-.37A2.08,2.08,0,0,1,51.45,128.21Zm-.6-3.5c-3.51.41-7,1-10.5,1.65a10,10,0,0,0,.6-.89,6.52,6.52,0,0,0,.41-.84,2,2,0,0,0,.19-.83v-.06c0-2.56,0-5.12,0-7.67a1.07,1.07,0,0,0-.26-.52,2.33,2.33,0,0,0-.52-.47,7.25,7.25,0,0,0-.73-.5,5.57,5.57,0,0,0,.87-.88,4.32,4.32,0,0,0,.47-.73,1.57,1.57,0,0,0,.16-.52,1.49,1.49,0,0,0,0-.23c0-2.57,0-5.13,0-7.7a1.87,1.87,0,0,0-.18-.84,2.54,2.54,0,0,0-.4-.57,2.59,2.59,0,0,0-.55-.44q3.08-.6,6.18-1.07a2.91,2.91,0,0,0-1.2,2.13l0,7.83a2.17,2.17,0,0,0,0,.25,1.77,1.77,0,0,0,.18.45,2.46,2.46,0,0,0,.45.57,3.21,3.21,0,0,0,.85.56c-.25.25-.49.5-.71.76a4.24,4.24,0,0,0-.54.65,1.32,1.32,0,0,0-.28.61l0,6.82,3.5-.51a3.14,3.14,0,0,0,1-.32,7.42,7.42,0,0,0,1-.58,9.1,9.1,0,0,0,.78-.61,3.63,3.63,0,0,0,.49-.47c-.44,1.65-.89,3.31-1.33,5Zm5.88,7c0,.24,0,.45,0,.65s0,.37,0,.5a1.64,1.64,0,0,0,0,.22.75.75,0,0,0,0,.16l.09.14c0,.06.09.11.13.16l-1.74.24a2.2,2.2,0,0,0,.2-.23.8.8,0,0,0,.13-.22.5.5,0,0,0,.06-.24,2.11,2.11,0,0,0,0-.25c0-.09,0-.16,0-.22s0-.16,0-.23l-1.39.22-.21.75a.41.41,0,0,0,0,.22,1.42,1.42,0,0,0,.08.18.9.9,0,0,0,.15.18c-.58.09-1.15.19-1.73.3l.17-.18.13-.17.09-.16c.21-.74.43-1.48.64-2.21a.33.33,0,0,0,0-.24.69.69,0,0,0-.1-.19l-.16-.18a2.36,2.36,0,0,0,.36-.26,1,1,0,0,0,.19-.22.51.51,0,0,0,.1-.21l.44-1.54c.12-.39.18-.61.2-.64a.23.23,0,0,0,0-.2.89.89,0,0,0-.08-.17.83.83,0,0,0-.13-.18c.81-.15,1.63-.27,2.44-.38l-.19.22a2.25,2.25,0,0,0-.12.21.32.32,0,0,0-.05.19l.12,2.09,0,.11a.37.37,0,0,0,.07.14.67.67,0,0,0,.15.14.93.93,0,0,0,.25.1,1.52,1.52,0,0,0-.22.22l-.15.22a.54.54,0,0,0-.06.25l0,.71Zm-1-7.61a5.25,5.25,0,0,0,.6-.65,4.89,4.89,0,0,0,.41-.6,1.2,1.2,0,0,0,.19-.64c0-2.74,0-5.48,0-8.22a1.31,1.31,0,0,0-.26-.56,2.76,2.76,0,0,0-.53-.55,7.09,7.09,0,0,0-.74-.59,4.64,4.64,0,0,0,.88-.78,3.29,3.29,0,0,0,.47-.68,1.64,1.64,0,0,0,.17-.5c0-.12,0-.2,0-.22q0-3.3,0-6.6c-.86,0-1.72.12-2.58.19a2.32,2.32,0,0,0-1,.36,6.42,6.42,0,0,0-1,.72,11.44,11.44,0,0,0-1.09,1l1.06-5.06Q59,100,65.66,100c.35,1.65.7,3.29,1,4.95a9.32,9.32,0,0,0-1.09-.88,7.6,7.6,0,0,0-1-.62,2.24,2.24,0,0,0-1-.26c-.91,0-1.82,0-2.73.08v6.6c0,.08,0,.17,0,.26a2.3,2.3,0,0,0,.17.48,2.19,2.19,0,0,0,.45.61,4.1,4.1,0,0,0,.88.67c-.28.22-.53.45-.76.67a3.73,3.73,0,0,0-.52.6,1.43,1.43,0,0,0-.26.59c0,2.76,0,5.52,0,8.28a1.11,1.11,0,0,0,.18.59,4.54,4.54,0,0,0,.42.56,3.14,3.14,0,0,0,.64.56c-2.12.06-4.23.17-6.35.32ZM66.49,107v2.43l-.15.13a2,2,0,0,1-.35.25,2.22,2.22,0,0,0-.8.89l-.37.75-.4-.74a2.14,2.14,0,0,0-.8-.86l-.3-.2-.17-.13V105l.62.32a4.28,4.28,0,0,1,.62.38l.06,0a6,6,0,0,1,.84.67,2.31,2.31,0,0,0,.89.5Zm-4.61,26.1.07,0a.47.47,0,0,0,.1-.1.51.51,0,0,0,.09-.16.7.7,0,0,0,0-.25c-.18-.52-.36-1-.53-1.56l-.57,0c0,.53-.06,1.06-.08,1.59a.25.25,0,0,0,0,.17.81.81,0,0,0,.1.18l.16.18-1.74.13c.06-.06.11-.13.17-.2l.13-.17a.39.39,0,0,0,.06-.15l.15-2.27a.34.34,0,0,0-.06-.15,1,1,0,0,0-.14-.15l-.19-.16a1.27,1.27,0,0,0,.25-.21l.14-.18.06-.14s0-.05,0-.07c0-.7.09-1.4.14-2.1a.45.45,0,0,0,0-.2,1.62,1.62,0,0,0-.1-.18,2.14,2.14,0,0,0-.13-.19c.66-.06,1.33-.11,2-.15a1.53,1.53,0,0,1,1.1.36,1.38,1.38,0,0,1,.32.43,1.12,1.12,0,0,1,.11.54c0,.52,0,1,0,1.56a1.3,1.3,0,0,1-.23.7,1.67,1.67,0,0,1-.59.53l.33.88.33.9a.7.7,0,0,0,.14.21l.17.17.21.14C63.18,133,62.53,133.06,61.88,133.1Zm2.92-10.57a2.15,2.15,0,0,1-1.47-.82l-.2-.11v-7.5l.12-.12c.19-.19.39-.36.59-.53a2.09,2.09,0,0,0,.59-.73l.37-.75.39.75a2.34,2.34,0,0,0,.59.7,6.94,6.94,0,0,1,.57.49l.13.13v7.27l-.07.11-.06.07v0h0a2.91,2.91,0,0,1-.33.37,1.83,1.83,0,0,1-1.2.62ZM68.53,133l.07,0,.1-.1a.43.43,0,0,0,.06-.4c-.22-.53-.43-1.07-.64-1.61l-.57,0,0,1.6a.34.34,0,0,0,0,.17c0,.06.08.13.12.18a.86.86,0,0,0,.18.2l-1.75,0a1.37,1.37,0,0,0,.16-.18l.12-.16a.3.3,0,0,0,.05-.15c0-.76,0-1.51,0-2.27a.41.41,0,0,0-.07-.15.75.75,0,0,0-.15-.16l-.21-.18a.88.88,0,0,0,.24-.19.66.66,0,0,0,.12-.17.35.35,0,0,0,0-.13s0-.05,0-.07c0-.7,0-1.4,0-2.09a.46.46,0,0,0,0-.2,1.18,1.18,0,0,0-.11-.19l-.15-.2c.66,0,1.33,0,2,0a1.59,1.59,0,0,1,.61.13,1.72,1.72,0,0,1,.51.33,1.6,1.6,0,0,1,.36.46,1.2,1.2,0,0,1,.15.56l.08,1.56a1.16,1.16,0,0,1-.18.68,1.31,1.31,0,0,1-.55.47c.14.34.27.65.39.92s.27.62.4.93a1.14,1.14,0,0,0,.15.23l.19.18a1.84,1.84,0,0,0,.22.17c-.66-.07-1.31-.1-2-.12Zm-1.07-9.37A5.68,5.68,0,0,0,68,123a4.43,4.43,0,0,0,.41-.65,1.57,1.57,0,0,0,.19-.77v-8a1.35,1.35,0,0,0-.26-.57,3.58,3.58,0,0,0-.53-.57,9.19,9.19,0,0,0-.75-.65,4.3,4.3,0,0,0,.88-.7,3.37,3.37,0,0,0,.47-.65,1.38,1.38,0,0,0,.17-.48c0-.13,0-.2,0-.22V102a1.64,1.64,0,0,0-.19-.72,4,4,0,0,0-.41-.65,5.81,5.81,0,0,0-.56-.65c2.07,0,4.14.08,6.21.19a2.66,2.66,0,0,0-1,1.11,1.84,1.84,0,0,0-.17.77q0,3.93,0,7.86s0,.13,0,.24a1.62,1.62,0,0,0,.17.48,3.85,3.85,0,0,0,.47.67,4.91,4.91,0,0,0,.88.76q-.39.29-.75.6a3.32,3.32,0,0,0-.52.54,1.26,1.26,0,0,0-.26.56q0,3.95,0,7.89a1.93,1.93,0,0,0,.17.85,3,3,0,0,0,.39.7,3.09,3.09,0,0,0,.6.65c-2.08-.11-4.17-.18-6.25-.2Zm5.37,9.65a.75.75,0,0,0,.15-.16,1,1,0,0,0,.1-.17.34.34,0,0,0,0-.2c0-.74-.11-1.47-.18-2.2a.38.38,0,0,0-.08-.17,1.29,1.29,0,0,0-.16-.17l-.22-.2a.66.66,0,0,0,.23-.17.62.62,0,0,0,.11-.17.2.2,0,0,0,0-.13v-.06l-.17-2.15a.48.48,0,0,0-.07-.2,1.53,1.53,0,0,0-.29-.38c.55,0,1.1.11,1.64.18a.57.57,0,0,0-.14.13.48.48,0,0,0-.11.37c.07.72.13,1.45.2,2.17a.2.2,0,0,0,0,.07.38.38,0,0,0,.06.13,1.43,1.43,0,0,0,.14.2,1.78,1.78,0,0,0,.26.22,1.37,1.37,0,0,0-.18.16.44.44,0,0,0-.13.14.2.2,0,0,0-.06.14c.07.73.13,1.46.2,2.18a.61.61,0,0,0,.07.24.86.86,0,0,0,.13.2,1.12,1.12,0,0,0,.18.2c-.58-.08-1.17-.14-1.76-.2Zm8-.11a.92.92,0,0,1,0,.52.84.84,0,0,1-.29.38,1,1,0,0,1-.48.2,1.67,1.67,0,0,1-.63,0l-.32-.05a2.68,2.68,0,0,1-.67-.24,2.79,2.79,0,0,1-.57-.4,2,2,0,0,1-.42-.51,1.39,1.39,0,0,1-.2-.58L77,131.13a.59.59,0,0,0-.1-.17,1.37,1.37,0,0,0-.16-.18l-.22-.21a.65.65,0,0,0,.21-.16.4.4,0,0,0,.1-.15.56.56,0,0,0,0-.12v-.08l-.18-1.36a1.19,1.19,0,0,1,.06-.53,1,1,0,0,1,.28-.4,1.11,1.11,0,0,1,.45-.22,1.47,1.47,0,0,1,.59,0l.3.06a1.93,1.93,0,0,1,.62.23,2.41,2.41,0,0,1,.54.41,2.35,2.35,0,0,1,.41.53,1.5,1.5,0,0,1,.21.58l.23,1.36s0,.05,0,.08a1.09,1.09,0,0,0,.08.15,1.3,1.3,0,0,0,.15.2,2.1,2.1,0,0,0,.27.24l-.17.14a.46.46,0,0,0-.12.12.3.3,0,0,0,0,.15Zm5.51-2.14c.13.54.25,1.08.38,1.62a1,1,0,0,1,0,.65.69.69,0,0,1-.43.35c.2.38.39.73.56,1s.37.7.56,1.05a1.73,1.73,0,0,0,.19.28l.21.23c.09.08.17.16.25.22-.64-.21-1.26-.4-1.89-.59,0,0,0,0,.06,0a.16.16,0,0,0,.07-.07.33.33,0,0,0,0-.14.58.58,0,0,0-.06-.26l-.94-1.81-.55-.15c.12.54.23,1.09.35,1.63a.5.5,0,0,0,.08.2l.15.21a2.14,2.14,0,0,0,.21.25l-1.7-.46.12-.15s0-.09.08-.14a.22.22,0,0,0,0-.14c-.15-.77-.31-1.55-.46-2.32a.52.52,0,0,0-.1-.18,1.63,1.63,0,0,0-.17-.2l-.24-.24a.5.5,0,0,0,.19-.13.46.46,0,0,0,.09-.15.5.5,0,0,0,0-.12v-.07l-.42-2.14a.85.85,0,0,0-.09-.22l-.14-.23-.19-.24c.65.17,1.3.34,1.94.53a2.34,2.34,0,0,1,.62.29,3.05,3.05,0,0,1,.55.46,2.67,2.67,0,0,1,.43.57,1.86,1.86,0,0,1,.25.6Zm7.51-15.88a2.47,2.47,0,0,0-.51.46,1.16,1.16,0,0,0-.26.52l0,8a2.31,2.31,0,0,0,.17.82,4.73,4.73,0,0,0,.39.74,5.57,5.57,0,0,0,.6.76c-2-.4-4-.75-6-1.07a7.23,7.23,0,0,0,.55-.56,2.54,2.54,0,0,0,.41-.52,1,1,0,0,0,.18-.55q0-6.83,0-13.66c-1.45,4.11-2.92,8.24-4.38,12.39q-2.24-6.8-4.45-13.52,0,6.63,0,13.27a2,2,0,0,0,.19.86,4.3,4.3,0,0,0,.41.72,5.12,5.12,0,0,0,.6.71c-2-.22-4.09-.4-6.15-.53a6.94,6.94,0,0,0,.6-.74,7.1,7.1,0,0,0,.41-.7,1.37,1.37,0,0,0,.19-.68q0-3.93,0-7.86a1.37,1.37,0,0,0-.26-.59,3.73,3.73,0,0,0-.52-.6c-.23-.23-.48-.46-.75-.7a3.71,3.71,0,0,0,.88-.65,3.12,3.12,0,0,0,.46-.62,1.11,1.11,0,0,0,.17-.47,1.79,1.79,0,0,0,0-.23c0-2.66,0-5.32,0-8a1.27,1.27,0,0,0-.18-.6,4.14,4.14,0,0,0-.42-.61,5.25,5.25,0,0,0-.6-.65c2.4.15,4.78.37,7.17.65a2.9,2.9,0,0,0-.6.51,2,2,0,0,0-.36.54.89.89,0,0,0,0,.68q1.62,4.91,3.23,9.86l3.13-9a1.2,1.2,0,0,0-.06-.7,2.41,2.41,0,0,0-.35-.65,5.69,5.69,0,0,0-.6-.7c2.38.35,4.74.76,7.11,1.23a3.49,3.49,0,0,0-.59.56,3.22,3.22,0,0,0-.39.64,2,2,0,0,0-.16.81c0,2.51,0,5,0,7.54a1.49,1.49,0,0,0,0,.23,1.67,1.67,0,0,0,.17.52,3.73,3.73,0,0,0,.46.73,5.64,5.64,0,0,0,.87.89,8.6,8.6,0,0,0-.74.49Zm13.33-7.92a8.51,8.51,0,0,1,1.24,2,5.41,5.41,0,0,1,.47,2.13c0,1.63,0,3.26,0,4.9a2.48,2.48,0,0,0,0,.27,3.86,3.86,0,0,0,.19.54,4.93,4.93,0,0,0,.44.77,6.28,6.28,0,0,0,.83,1,5.2,5.2,0,0,0-.72.42,2.1,2.1,0,0,0-.5.4,1,1,0,0,0-.25.49c0,1.67,0,3.35,0,5a3.64,3.64,0,0,1-.44,1.85,3.48,3.48,0,0,1-1.24,1.26,4.4,4.4,0,0,1-1.83.57,6.1,6.1,0,0,1-2.25-.21l-1.1-.26a7.83,7.83,0,0,1-2.26-1A10.27,10.27,0,0,1,98,125.86a7.49,7.49,0,0,1-1.28-1.92,5.28,5.28,0,0,1-.47-2.11l0-5a2.6,2.6,0,0,0-.3-.63,5.7,5.7,0,0,0-.52-.67c-.23-.26-.46-.53-.7-.79a3.06,3.06,0,0,0,.84-.53,2.21,2.21,0,0,0,.44-.52,1.14,1.14,0,0,0,.18-.44,2.51,2.51,0,0,0,0-.27l0-4.89a3.7,3.7,0,0,1,1.71-3.24,4.41,4.41,0,0,1,1.85-.68,5.64,5.64,0,0,1,2.24.15l1.14.3a7.7,7.7,0,0,1,2.24,1,8.92,8.92,0,0,1,1.82,1.65Zm-3.38-5-.05,0h0l-1.12-.29a8.63,8.63,0,0,0-2.09-.28,7,7,0,0,0-1,.08,6.56,6.56,0,0,0-2.43.83l-.56.32-.08-.65a1.55,1.55,0,0,0,0-.21,2.22,2.22,0,0,0-1.71-1.65c-2.38-.47-4.81-.9-7.22-1.25a1.67,1.67,0,0,0-.32,0,2.19,2.19,0,0,0-1.66.75l-.43.49-.28-.58A2.18,2.18,0,0,0,83,98.61c-2.44-.28-4.88-.5-7.28-.66h-.14A2,2,0,0,0,75,98l-.16,0L74.66,98a2,2,0,0,0-.8-.2c-2.08-.11-4.2-.18-6.3-.19h0a2.12,2.12,0,0,0-.79.14l-.14.06-.15-.06a2.24,2.24,0,0,0-.73-.12c-4.47,0-9,.25-13.48.68a2.19,2.19,0,0,0-1.94,1.74l-1.06,5.06a2.2,2.2,0,0,0,3.74,2,7.22,7.22,0,0,1,.87-.79l.09-.08.2-.17.7-.54v4.18l-.08.12-.08.09a2.69,2.69,0,0,1-.45.37,2.21,2.21,0,0,0-.54,3.07,2.26,2.26,0,0,0,.54.53c.18.13.33.25.45.35l.15.13v5l-.78-1.1a2.19,2.19,0,0,0-3.06-.52,2.05,2.05,0,0,0-.41.37l-.26.25c-.19.16-.39.31-.59.45a5.77,5.77,0,0,1-.68.4,1,1,0,0,1-.29.11h-.05l-.5.07-.49.07v-3.8l.12-.12.07-.08a.23.23,0,0,0,.07-.07l.63-.67a2.21,2.21,0,0,0,0-3.12,2.43,2.43,0,0,0-.58-.41l-.29-.13,0-3.77v-3.73l0-.09,0-.1.05-.11.12-.07a2.2,2.2,0,0,0,.57-3.06,2.18,2.18,0,0,0-1.82-1l-.33,0c-2.09.32-4.2.68-6.28,1.09a2.14,2.14,0,0,0-.64.23l-.11.06h-.26a2.28,2.28,0,0,0-.45,0c-2.07.43-4.16.91-6.23,1.43a2.22,2.22,0,0,0-1.08.64l-.18.2-.26-.08a2.25,2.25,0,0,0-1.26,0h0l-1.1-.68h0c-3.64-2.59-6.43-4.7-7.4-5.46a154.72,154.72,0,0,1,6.34-18.15l.17-.41L1.93,46.76l.66-.86a16.39,16.39,0,0,1,2.56-2.64,15.26,15.26,0,0,1,4.43-2.58l.92-.33L32.33,67.66l.52-1c.39-.76.71-1.36,1-1.81l.35-.59-.56-.4a39.45,39.45,0,0,1-3.79-3.4c-4.37-4.32.93-12.44,2.63-14.78a53.92,53.92,0,0,1,4,5.49l.73,1.13.58-1.21.12-.24,0-.08a.57.57,0,0,1,.07-.12l.12-.21,0,0,.08-.12.08-.12,0-.05,0,0,.1-.14,0-.06.21-.2v-.06l.15-.18,0,0c.09-.12.19-.23.29-.35l0-.05a3.58,3.58,0,0,1,.26-.29l.06-.07A43.88,43.88,0,0,1,42.49,45l.06-.06.37-.41L43.4,44l.06,0,.48-.49.21-.21.52-.51-.35-.52a72.65,72.65,0,0,1-7.71-15.07l-.18-.45-.11-.27a6.89,6.89,0,0,0-.4-.82l-.07-.08a2.14,2.14,0,0,0-2.69-.94l-.39.13a11,11,0,0,0-3.64,2.8,10.53,10.53,0,0,1-.44-2.29l0-.43V23.9c0-.19,0-.4,0-.6a2.36,2.36,0,0,0,0-.29V22.9a.36.36,0,0,0,0-.11v-.07c0-.07,0-.18,0-.25a1.35,1.35,0,0,0,0-.18l0-.12c0-.08,0-.15,0-.24l.06-.27.06-.27.06-.25a.13.13,0,0,0,0-.06l.23-.76a2,2,0,0,1,.08-.26l.18-.49c.05-.13.1-.27.15-.37s.1-.23.14-.35l.06-.12,0-.05.05-.11a.19.19,0,0,0,0-.08l.12-.24,0,0,0-.12a2.44,2.44,0,0,1,.14-.28l0-.07.11-.22.05-.08c.12-.21.23-.42.36-.64l.07-.11.16-.25.2-.32.23-.33a3.62,3.62,0,0,1,.22-.32c.09-.1.16-.22.25-.32l.24-.31c.15-.21.32-.41.48-.61l.25-.3.25-.3.26-.29.27-.3.26-.27.27-.29.28-.27.26-.26.35-.33.22-.21.22-.2.07-.06.27-.24.27-.25.3-.26A28.31,28.31,0,0,1,40.2,7.8c1.15-.71,2.31-1.35,3.3-1.88,1.32-.72,2.7-1.42,3.88-2L49,3.08,47.09,6.9c-4.6,9.24-3.66,19.42,2.8,30.25l.42.71L51.44,37l.08-.06.73-.53.13-.09.11-.08.66-.46.53-.36-.81-1.67A13.37,13.37,0,0,1,59,29.08a25.49,25.49,0,0,1,4.58-1.48l.73-.16-.16-.72a27,27,0,0,0-1.41-4.58,10.05,10.05,0,0,0-1.25-2.3l-.24-.3-.44-.47.69-.8.12-.15a28.75,28.75,0,0,0,3-4.68l.17-.34a22.53,22.53,0,0,0,1-2.2c0-.16.1-.3.15-.45L67,6.87l1.15,3.58.15.45a22.7,22.7,0,0,0,1,2.21l.17.35a29.34,29.34,0,0,0,3,4.67l.12.14.67.79h0l-.4.44-.28.33a10.57,10.57,0,0,0-1.24,2.29,28.5,28.5,0,0,0-1.41,4.58l-.16.73.73.16a24.72,24.72,0,0,1,4.58,1.48,13.3,13.3,0,0,1,6.08,4.7l-.81,1.67.53.36.64.44.12.09.13.1.77.54,1.19.88.42-.71c6.46-10.83,7.4-21,2.79-30.25L85,3l4,1.87.09,0,.1,0,.08,0,.41.2.15.09.09,0,.08,0,.38.2.83.46.2.12.16.09.2.12.84.51.32.2.41.26c.44.29.89.59,1.32.9l.13.09c.19.14.38.27.58.43l.18.13.14.1.26.2c.42.31.84.65,1.28,1l.21.18a32.41,32.41,0,0,1,2.63,2.48l.27.29c.09.1.19.2.28.31l.23.26c.17.18.33.37.49.57l.19.24,0,.07.18.24c.06.07.1.15.19.25a1.83,1.83,0,0,1,.24.31l.21.29.05.07.21.31.21.32,0,.05a3.45,3.45,0,0,1,.2.32l.27.45.13.25c.09.15.17.31.26.48l.13.26.18.38.09.19.07.17.16.39a1.67,1.67,0,0,1,.08.2v0a1.16,1.16,0,0,1,.06.15c0,.13.09.26.14.4a7.24,7.24,0,0,1,.24.75c.07.25.14.51.2.79a3,3,0,0,1,.07.32l0,.09a1.48,1.48,0,0,1,0,.19l.09.59a.25.25,0,0,1,0,.12l0,.19v.25l0,.3a1.51,1.51,0,0,1,0,.3,10.09,10.09,0,0,1,0,1.1v.35a10,10,0,0,1-.43,2.11,11,11,0,0,0-3.63-2.79l-.39-.14a2.15,2.15,0,0,0-2.71,1l0,.05a5.23,5.23,0,0,0-.41.82l-.12.28-.18.46a72.65,72.65,0,0,1-7.71,15.07l-.35.51.73.73c.17.16.33.32.48.49l0,0,.39.41.1.11.35.39.09.1c.58.63,1.12,1.26,1.65,1.94.42.52.82,1,1.26,1.65l.06.07.27.3,0,.05.14.16.2.25.14.17v0l.18.19,0,0,0,.06.1.15,0,0,0,0,.1.15.06.08,0,0a1.59,1.59,0,0,1,.13.22l.07.11.06.11,0,.1,0,.1.45,1,.76-.76,0-.05.08-.13,0-.05.07-.12.12-.17.09-.14.12-.18.43-.63.59-.85.18-.26a34.12,34.12,0,0,1,2.34-3A20.87,20.87,0,0,1,106,56.14a5.79,5.79,0,0,1-1.7,4.29,35.93,35.93,0,0,1-3.79,3.4l-.51.37.27.57.13.22.11.2c.22.41.48.9.75,1.44l.53,1,21.8-27.3.92.33a14.92,14.92,0,0,1,4.43,2.58,16.39,16.39,0,0,1,2.56,2.64l.66.86L106.37,78.14l.17.42a157.94,157.94,0,0,1,6.32,18.08ZM31,63.62h0c.49.45.9.78,1.18,1l-.15.28Zm72.08,0-1,1.3-.15-.28c.28-.24.68-.57,1.19-1Z"/><path id="Path_7884" data-name="Path 7884" class="cls-3" d="M68.57,127.6a.58.58,0,0,0-.39-.15l-.7,0c0,.84,0,1.68,0,2.52l.72,0a.55.55,0,0,0,.39-.12.42.42,0,0,0,.15-.34c0-.52,0-1-.05-1.56A.51.51,0,0,0,68.57,127.6Z"/><path id="Path_7885" data-name="Path 7885" class="cls-3" d="M54.58,131.64l1.08-.16c-.06-1.07-.1-2.14-.14-3.21C55.21,129.39,54.9,130.52,54.58,131.64Z"/><path id="Path_7886" data-name="Path 7886" class="cls-3" d="M79.49,131.56a.62.62,0,0,0-.11-.17l-.16-.18L79,131a.62.62,0,0,0,.21-.15.56.56,0,0,0,.1-.15l0-.12v-.07c-.07-.44-.14-.87-.2-1.31a1,1,0,0,0-.22-.41.76.76,0,0,0-.4-.25l-.31,0a.35.35,0,0,0-.36.1.42.42,0,0,0-.1.34l.18,1.3s0,.05,0,.08a.61.61,0,0,0,.07.14,1,1,0,0,0,.15.2,1.2,1.2,0,0,0,.26.24l-.17.14a1.59,1.59,0,0,0-.13.13.39.39,0,0,0-.06.15c.07.45.13.89.19,1.34a.85.85,0,0,0,.21.41.76.76,0,0,0,.43.25l.32.05h0a.39.39,0,0,0,.48-.26.37.37,0,0,0,0-.18C79.63,132.47,79.56,132,79.49,131.56Z"/><path id="Path_7887" data-name="Path 7887" class="cls-3" d="M61.93,127.52l-.69,0c0,.84-.09,1.68-.14,2.52l.72,0a.68.68,0,0,0,.4-.17.49.49,0,0,0,.17-.34l.06-1.57a.39.39,0,0,0-.14-.33A.53.53,0,0,0,61.93,127.52Z"/><path id="Path_7888" data-name="Path 7888" class="cls-3" d="M104.8,118.32a4.92,4.92,0,0,0-.51-.69,7.56,7.56,0,0,0-.7-.8,3.39,3.39,0,0,0,.86-.46,2,2,0,0,0,.45-.5,1.85,1.85,0,0,0,.18-.44,1.07,1.07,0,0,0,0-.25l0-4.7a3,3,0,0,0-2-2.52l-1.14-.3a1.47,1.47,0,0,0-1.41.27,1.51,1.51,0,0,0-.57,1.2l0,4.7c0,.08,0,.17,0,.26a2,2,0,0,0,.19.53,4.25,4.25,0,0,0,.44.74,5.63,5.63,0,0,0,.85.91c-.25.15-.48.31-.7.47a3.18,3.18,0,0,0-.53.44,1,1,0,0,0-.27.5l0,4.82a2.56,2.56,0,0,0,.58,1.5,2.53,2.53,0,0,0,1.43,1l1.11.26h0a1.48,1.48,0,0,0,2-1.43l0-4.89A2.6,2.6,0,0,0,104.8,118.32Z"/><path id="Path_7889" data-name="Path 7889" class="cls-3" d="M85.28,130.74a.74.74,0,0,0-.23-.4.91.91,0,0,0-.41-.25L84,129.9l.55,2.6.69.2a.36.36,0,0,0,.35,0,.27.27,0,0,0,.08-.3Z"/></g></g></svg>