<svg xmlns="http://www.w3.org/2000/svg" width="134.034" height="138.815" viewBox="0 0 134.034 138.815"><defs><style>.a{fill:#fff;}</style></defs><path class="a" d="M159.312,205.062a2.2,2.2,0,0,0,.838-.674l.224-.3.327.179a2.191,2.191,0,0,0,1.46.23c.571-.108,1.134-.207,1.67-.294a2.257,2.257,0,0,0,.409-.108l.084-.031.089,0h.1a2.2,2.2,0,0,0,.317-.023c.579-.086,1.147-.163,1.689-.23a2.184,2.184,0,0,0,.943-.351l.189-.126.211.085a2.176,2.176,0,0,0,.817.158c.065,0,.131,0,.194-.009.56-.05,1.128-.093,1.689-.128a2.326,2.326,0,0,0,.246-.029l.046-.008.046,0c.043,0,.086,0,.127,0s.086,0,.123,0c.618-.034,1.253-.061,1.886-.078a2.2,2.2,0,0,0,.945-.245l.191-.1.194.094a2.229,2.229,0,0,0,.953.222c.5,0,1.055.011,1.679.028l.078,0c.061,0,.12,0,.18-.007l.051,0,.05.008a2.368,2.368,0,0,0,.245.023c.639.024,1.274.057,1.89.1.048,0,.093.005.141.005a2.16,2.16,0,0,0,.826-.164l.2-.083.186.112a2.184,2.184,0,0,0,.919.3c.622.061,1.184.124,1.716.191a2.2,2.2,0,0,0,.271.017,2.172,2.172,0,0,0,1.283-.416l.276-.2.258.222a5.039,5.039,0,0,0,.913.627,4.443,4.443,0,0,0,1.3.459l.064.012.286.047a4.051,4.051,0,0,0,.756.07,3.6,3.6,0,0,0,.655-.06,3.381,3.381,0,0,0,.917-.305l.368-.184.2.359a2.216,2.216,0,0,0,1.369,1.057c.614.16,1.145.3,1.623.442a2.939,2.939,0,0,1,.619.18c.582.172,1.188.36,1.8.559a2.2,2.2,0,0,0,2.072-3.806c-.005,0-.029-.025-.07-.067l-.062-.063-.029-.054c-.111-.2-.219-.4-.327-.608l-.075-.142.036-.157a3.287,3.287,0,0,0-.01-1.509l-.376-1.62a4.233,4.233,0,0,0-.513-1.246,5.49,5.49,0,0,0-1.66-1.723l.442-.738a3.978,3.978,0,0,0,1.2.42c1.974.307,3.98.663,5.962,1.058a2.2,2.2,0,0,0,2.22-.877l.294-.411.359.356a11.888,11.888,0,0,0,1.959,1.566,10,10,0,0,0,2.9,1.263l.06.014c.35.08.7.162,1.063.247a8.879,8.879,0,0,0,2.259.308,7.347,7.347,0,0,0,.753-.039,6.668,6.668,0,0,0,2.726-.879,5.616,5.616,0,0,0,2.025-2.049,5.819,5.819,0,0,0,.732-2.967l-.032-4.219.241-.12a2.206,2.206,0,0,0,1-2.949,2.323,2.323,0,0,0-.431-.586,4.346,4.346,0,0,1-.552-.621,3.131,3.131,0,0,1-.24-.4l-.051-.118-.035-4.743a7.634,7.634,0,0,0-.646-2.992,10.52,10.52,0,0,0-1.57-2.544,10.855,10.855,0,0,0-2.288-2.069,9.694,9.694,0,0,0-1.082-.632l9.059-5.627-.136-.531a152.08,152.08,0,0,0-6.355-18.4l25.938-31.584-1.375-1.8a17.706,17.706,0,0,0-2.8-2.886,16.581,16.581,0,0,0-4.875-2.838l-1.929-.691L216.251,126.6a8.223,8.223,0,0,0,.344-2.426,17.34,17.34,0,0,0-2.581-8.206q-.806-1.433-1.752-2.78c-.871-1.239-.963-1.368-1.392-1.368h-.242l-.2.146a16.87,16.87,0,0,0-3.221,3.9l-.182.26c-.213.306-.415.6-.6.866l-.255.376-.043-.063-.034-.061-.029-.031-.068-.094v-.1l-.206-.169c-.088-.114-.177-.225-.265-.335l-.073-.087-.058-.07-.09-.107-.155-.179-.07-.08-.243-.269c-.447-.611-.852-1.145-1.274-1.674-.556-.694-1.113-1.351-1.7-2.006l-.1-.112-.366-.4-.107-.114-.4-.422-.029-.034-.359-.374a76.515,76.515,0,0,0,7.519-14.859l.179-.453c.032-.08.061-.155.1-.243a4.666,4.666,0,0,1,.3-.623l.027-.044c.233-.371.4-.4.563-.4a1.558,1.558,0,0,1,.439.08c.082.024.167.056.257.092a11.648,11.648,0,0,1,3.857,3.338l.771,1.048.519-1.193a13.549,13.549,0,0,0,.97-3.8v-.405c.017-.383.017-.779,0-1.213-.005-.1-.02-.23-.02-.347v-.291a.558.558,0,0,1-.015-.141c0-.063-.017-.124-.017-.175l-.015-.133v-.068c0-.049-.017-.095-.017-.136l-.041-.293a1.183,1.183,0,0,0-.02-.138l-.02-.116c0-.034,0-.036-.017-.1l-.036-.2-.017-.085c-.022-.136-.051-.255-.077-.378-.066-.3-.153-.6-.216-.871s-.148-.536-.242-.82c-.051-.153-.1-.3-.153-.427-.024-.075-.056-.145-.083-.22s-.056-.148-.094-.243l-.075-.182-.051-.121-.029-.068c-.029-.07-.061-.139-.092-.211s-.066-.145-.095-.206l-.2-.415c-.049-.1-.1-.2-.143-.279-.087-.177-.182-.354-.286-.541-.041-.09-.085-.167-.128-.243-.094-.16-.192-.325-.291-.485-.068-.109-.133-.218-.2-.325a.9.9,0,0,0-.053-.085c-.073-.112-.129-.211-.216-.328s-.165-.228-.243-.342l-.053-.075c-.075-.1-.135-.192-.22-.308s-.175-.233-.243-.327-.138-.192-.2-.267-.129-.16-.2-.243c-.024-.031-.051-.063-.075-.094l-.185-.228c-.167-.208-.337-.407-.5-.6l-.243-.274c-.1-.114-.2-.225-.3-.335l-.286-.3a33.069,33.069,0,0,0-2.748-2.588l-.243-.2c-.444-.369-.888-.723-1.322-1.05l-.257-.2-.15-.112-.2-.146c-.2-.148-.4-.291-.6-.434l-.126-.09c-.446-.315-.907-.628-1.37-.926l-.417-.269-.34-.211q-.451-.28-.856-.521l-.223-.131-.146-.085-.228-.131c-.311-.184-.594-.344-.856-.485l-.485-.262-.036-.019-.053-.029-.126-.065-.568-.284-.046-.022-.141-.065c-6.052-2.848-6.052-2.848-6.193-2.848l-1.317-.1,3.51,7.035c4.264,8.56,3.483,18.01-2.321,28.1l-.653-.466-.121-.087-.129-.09-.121-.085.517-1.057-.087-.281c-.575-1.875-2.918-3.847-6.964-5.865l-.034-.017a26.316,26.316,0,0,0-4.141-1.409,24.337,24.337,0,0,1,1.157-3.6,9.331,9.331,0,0,1,1.021-1.926l.242-.277,1.278-1.382-.061-.075.022-.027-1.48-1.739-.022-.024-.075-.092a26.939,26.939,0,0,1-2.845-4.4l-.167-.337a20.688,20.688,0,0,1-.888-2.045c-.046-.136-.095-.269-.136-.4l-1.783-5.555c-.112-.342-.226-.7-.689-.762l-.626-.09L173.6,78.031c-.042.131-.087.267-.134.4a20.5,20.5,0,0,1-.89,2.05l-.165.332a26.941,26.941,0,0,1-2.848,4.4l-.085.1L168.389,86.6l-.39.485-.061.075,1.278,1.382.223.264a9.193,9.193,0,0,1,1.028,1.941,24.064,24.064,0,0,1,1.157,3.6,26.315,26.315,0,0,0-4.141,1.409l-.034.017c-4.053,2.016-6.387,3.99-6.964,5.865l-.087.284.517,1.058-.138.1-.126.09-.114.08-.645.461c-5.807-10.1-6.588-19.546-2.321-28.1a49.827,49.827,0,0,0,3-6.2V68l-1.528,1.021c-.276.138-.66.308-.9.42-.163.073-.289.128-.34.155l-1.962,1c-1.193.6-2.576,1.31-3.922,2.037-1,.541-2.19,1.193-3.374,1.921a30.434,30.434,0,0,0-3.823,2.733l-.315.272-.269.243-.242.206-.083.075-.267.243-.243.22-.366.352-.277.274-.284.286-.284.3-.281.3-.274.3c-.095.1-.187.206-.277.311l-.272.315c-.09.107-.179.213-.264.318q-.277.323-.519.653c-.082.112-.16.213-.243.328s-.16.235-.243.34-.158.24-.243.347-.165.238-.242.349-.153.236-.228.354l-.163.262-.083.134c-.133.216-.255.434-.376.655l-.036.063-.153.284-.036.066-.131.257-.043.043-.036.119-.109.23a1.357,1.357,0,0,0-.059.124l-.022.044c-.024.051-.046.1-.061.138l-.015.031c-.024.051-.046.1-.068.151-.053.126-.1.245-.155.369l-.012.029-.153.39c-.07.179-.133.362-.2.543-.033.1-.063.191-.092.289l-.175.587-.155.614c-.022.095-.039.172-.061.277s-.046.218-.063.308-.034.18-.049.269l-.022.121c-.012.075-.02.128-.034.218a1.72,1.72,0,0,0-.036.257c0,.029.02.022,0,.085s-.005.121-.02.167a.39.39,0,0,0-.014.119c-.01.095-.029.192-.029.286-.019.228-.043.456-.043.7v1.414a13.294,13.294,0,0,0,.987,3.993l.519,1.191.771-1.048a11.626,11.626,0,0,1,3.854-3.335,2.715,2.715,0,0,1,.267-.1,1.531,1.531,0,0,1,.434-.078c.163,0,.318.029.56.4l.02.034a4.654,4.654,0,0,1,.315.645c.031.073.063.148.094.228l.179.454a76.517,76.517,0,0,0,7.519,14.855l-.361.374-.539.572-.391.432-.066.073a45.652,45.652,0,0,0-2.974,3.687c-.075.092-.16.184-.243.279l-.073.083c-.107.128-.213.247-.315.371l-.044.056c-.095.114-.184.228-.272.342l-.206.175v.1l-.068.095-.015.022-.051.075-.034.051a31.615,31.615,0,0,0-4.264-5.4l-.577-.425-.451.558a30.351,30.351,0,0,0-3.757,6.288,12.027,12.027,0,0,0-1.026,8.213l-15.968-19.985-1.926.691a16.577,16.577,0,0,0-4.878,2.838,17.677,17.677,0,0,0-2.8,2.887l-1.375,1.8,25.937,31.584a152.261,152.261,0,0,0-6.355,18.4l-.121.485.429.335c.344.267,3.47,2.683,7.809,5.76-1.39.4-2.782.826-4.158,1.269a2.2,2.2,0,0,0-.607,3.89l.182.13-.054,7.357-.055.1c-.04.071-.1.173-.2.32a4.754,4.754,0,0,1-.595.68,2.207,2.207,0,0,0-.011,3.118,2.155,2.155,0,0,0,.582.418l.243.119-.032,4.2a5.8,5.8,0,0,0,.73,2.955,5.541,5.541,0,0,0,2.007,2.04,6.6,6.6,0,0,0,2.745.863c.246.023.493.035.729.035a9.011,9.011,0,0,0,2.317-.321q.541-.146,1.083-.285a10.289,10.289,0,0,0,2.882-1.236,10.6,10.6,0,0,0,2.28-1.9l.41-.455.289.54c.03.056.062.115.094.167a2.2,2.2,0,0,0,2.288.985c.729-.141,1.481-.281,2.234-.416l1.019-.182-.589.851a2.207,2.207,0,0,0-.182,2.187l.045.1-.03.714-.089.111a2.215,2.215,0,0,0-.094,2.636l.081.116,0,.142c0,.067,0,.134,0,.2v.124l-.066.1a2.2,2.2,0,0,0,1.868,3.371,2.234,2.234,0,0,0,.649-.1l.009,0c.578-.175,1.142-.338,1.675-.485a2.167,2.167,0,0,0,.275-.1l.055-.024.059-.007a2.111,2.111,0,0,0,.285-.056c.422-.112.85-.222,1.278-.326Zm-11.528-21.576a5.656,5.656,0,0,0-.538.68,1.556,1.556,0,0,0-.28.626l-.026,5.018a5.077,5.077,0,0,1-.472,2.09,7.481,7.481,0,0,1-1.244,1.894,8.369,8.369,0,0,1-1.83,1.529,8.079,8.079,0,0,1-2.262.971c-.366.095-.734.192-1.1.288a6.381,6.381,0,0,1-2.265.222,4.338,4.338,0,0,1-1.832-.564A3.341,3.341,0,0,1,134.713,195a3.6,3.6,0,0,1-.439-1.851q.02-2.476.037-4.955a1.024,1.024,0,0,0-.25-.5,1.925,1.925,0,0,0-.5-.422,6.26,6.26,0,0,0-.717-.415,6.8,6.8,0,0,0,.891-1.046,5.52,5.52,0,0,0,.456-.807,2.2,2.2,0,0,0,.151-.725q.029-3.743.056-7.483c0-.129,0-.258,0-.389a1.071,1.071,0,0,0-.177-.624,2.333,2.333,0,0,0-.394-.456,2.818,2.818,0,0,0-.536-.409q3.013-.969,6.053-1.8a5.256,5.256,0,0,0-.585.743,5.7,5.7,0,0,0-.4.7,1.616,1.616,0,0,0-.187.7q-.026,3.968-.054,7.935a1.847,1.847,0,0,0,.035.265,1.355,1.355,0,0,0,.179.45,2.08,2.08,0,0,0,.433.508,2.278,2.278,0,0,0,.835.433q-.365.391-.7.805a6.194,6.194,0,0,0-.534.715,1.727,1.727,0,0,0-.278.644q-.016,2.509-.035,5.02a1.15,1.15,0,0,0,.577,1.083,1.752,1.752,0,0,0,1.386.123l1.1-.289a2.8,2.8,0,0,0,1.416-.861,2.072,2.072,0,0,0,.577-1.386q.013-2.476.028-4.953a1.067,1.067,0,0,0-.254-.519,2.157,2.157,0,0,0-.51-.457,6.472,6.472,0,0,0-.73-.463,6.138,6.138,0,0,0,.9-.988,5.146,5.146,0,0,0,.463-.777,2.043,2.043,0,0,0,.151-.717l.047-7.9a1.038,1.038,0,0,0-.181-.553,2.406,2.406,0,0,0-.4-.5,4.98,4.98,0,0,0-.545-.478q3.055-.772,6.131-1.406a4,4,0,0,0-.592.739,5.5,5.5,0,0,0-.409.749,1.939,1.939,0,0,0-.187.8q-.019,3.853-.041,7.7a1.889,1.889,0,0,0,.035.267,1.5,1.5,0,0,0,.181.463,2.354,2.354,0,0,0,.439.538,2.6,2.6,0,0,0,.852.488Q148.116,183.092,147.783,183.486ZM160.6,196.211a1.843,1.843,0,0,0-.17.2.793.793,0,0,0-.12.241q-.388,1.107-.786,2.224c0,.013-.009.039-.019.077a.365.365,0,0,0,0,.144.374.374,0,0,0,.082.168.667.667,0,0,0,.23.161q-.191.139-.349.271a2.524,2.524,0,0,0-.265.263.774.774,0,0,0-.17.276q-.394,1.079-.794,2.161a.491.491,0,0,0-.028.237.506.506,0,0,0,.054.174.358.358,0,0,0,.125.136l-.011,0c-.584.14-1.167.286-1.746.439l.024-.024c.017-.022.045-.054.084-.095a1.128,1.128,0,0,0,.114-.151,1.106,1.106,0,0,0,.1-.194.581.581,0,0,0,.041-.209q-.007-1.395.006-2.792-.584,1.553-1.186,3.111a.5.5,0,0,0-.009.368.28.28,0,0,0,.062.1.62.62,0,0,1,.051.058l.017.013q-.869.239-1.735.5l-.011,0a1.355,1.355,0,0,0,.194-.222,1.26,1.26,0,0,0,.127-.222.706.706,0,0,0,.064-.248q.02-.978.047-1.959a.261.261,0,0,0-.075-.209.994.994,0,0,0-.172-.142c-.077-.039-.161-.073-.252-.108a2.159,2.159,0,0,0,.336-.336,1.639,1.639,0,0,0,.157-.245.526.526,0,0,0,.056-.207q.039-1.011.086-2.026a.41.41,0,0,0-.039-.2.427.427,0,0,0-.1-.127.955.955,0,0,0-.144-.1c.519-.168,1.042-.331,1.563-.487a1.889,1.889,0,0,0-.157.218,1.2,1.2,0,0,0-.112.2.566.566,0,0,0-.049.2c-.048,1.124-.086,2.243-.114,3.365q.7-1.824,1.373-3.636a.034.034,0,0,1,.011-.024.045.045,0,0,0,.008-.024.292.292,0,0,0,.009-.213.615.615,0,0,0-.095-.159.94.94,0,0,0-.172-.132l.2-.058q.685-.194,1.373-.373l.2-.051a2.919,2.919,0,0,0-.241.243,2.309,2.309,0,0,0-.179.224.4.4,0,0,0-.084.218c0,.024,0,.039,0,.043q-.021,1.65-.022,3.293.675-1.851,1.324-3.692a.458.458,0,0,0,.03-.194.447.447,0,0,0-.041-.159.507.507,0,0,0-.084-.153q.791-.193,1.589-.368C160.739,196.08,160.668,196.145,160.6,196.211Zm-.6-3.506q-5.27.63-10.5,1.653.336-.455.6-.891a8.2,8.2,0,0,0,.411-.838,2.16,2.16,0,0,0,.189-.829v-.064q.016-3.836.035-7.67a1.066,1.066,0,0,0-.256-.517,2.471,2.471,0,0,0-.517-.467,7.2,7.2,0,0,0-.736-.5,5.541,5.541,0,0,0,.872-.881,4.228,4.228,0,0,0,.465-.734,1.667,1.667,0,0,0,.168-.516c.013-.131.02-.209.02-.23q.016-3.853.034-7.7a1.8,1.8,0,0,0-.181-.839,2.217,2.217,0,0,0-.4-.571,2.439,2.439,0,0,0-.551-.443q3.08-.6,6.183-1.068a2.875,2.875,0,0,0-1.195,2.125q-.016,3.917-.03,7.831a1.391,1.391,0,0,0,.037.252,1.642,1.642,0,0,0,.183.456,2.541,2.541,0,0,0,.443.562,3.238,3.238,0,0,0,.852.566q-.375.377-.71.753a5.152,5.152,0,0,0-.54.65,1.456,1.456,0,0,0-.28.611q-.013,3.413-.026,6.828,1.75-.278,3.5-.512a3.247,3.247,0,0,0,1.012-.327,7.491,7.491,0,0,0,.973-.573,8.6,8.6,0,0,0,.786-.609,4.864,4.864,0,0,0,.487-.476Q160.662,190.216,160,192.706Zm5.88,6.976c.013.237.026.454.036.652s.019.364.028.495a1.928,1.928,0,0,0,.019.222.529.529,0,0,0,.058.159,1.376,1.376,0,0,0,.09.146.883.883,0,0,0,.131.151c-.583.077-1.165.157-1.744.243a2,2,0,0,0,.2-.224,1.285,1.285,0,0,0,.133-.222.484.484,0,0,0,.054-.245c0-.082-.009-.166-.013-.25s-.011-.159-.017-.222-.011-.151-.015-.226c-.463.067-.928.14-1.391.218-.069.252-.14.5-.211.755a.351.351,0,0,0,0,.215.715.715,0,0,0,.084.183,1.038,1.038,0,0,0,.142.179q-.865.142-1.724.3a1.687,1.687,0,0,0,.17-.181c.043-.054.082-.11.123-.168a.992.992,0,0,0,.09-.161q.326-1.108.644-2.213a.339.339,0,0,0-.006-.235,1.1,1.1,0,0,0-.1-.192c-.051-.06-.105-.12-.163-.181a2.479,2.479,0,0,0,.359-.258,1.179,1.179,0,0,0,.194-.22.652.652,0,0,0,.1-.211q.268-.949.439-1.541c.114-.394.179-.607.2-.64a.3.3,0,0,0,0-.2,1.056,1.056,0,0,0-.082-.174c-.041-.063-.084-.123-.129-.179q1.218-.213,2.441-.381c-.073.08-.136.157-.19.228a1.677,1.677,0,0,0-.125.207.317.317,0,0,0-.045.187c.037.7.078,1.393.121,2.09a.717.717,0,0,0,.024.112.412.412,0,0,0,.071.14.583.583,0,0,0,.147.136.831.831,0,0,0,.252.1,2.533,2.533,0,0,0-.215.221,1.536,1.536,0,0,0-.151.222.463.463,0,0,0-.062.256C165.853,199.212,165.868,199.445,165.881,199.682Zm-.991-7.607a5.42,5.42,0,0,0,.6-.657,4.724,4.724,0,0,0,.413-.594,1.281,1.281,0,0,0,.19-.644q.007-4.111.013-8.217a1.353,1.353,0,0,0-.26-.566,2.805,2.805,0,0,0-.523-.547,8.952,8.952,0,0,0-.747-.592,4.637,4.637,0,0,0,.88-.775,3.506,3.506,0,0,0,.469-.678,1.562,1.562,0,0,0,.17-.5c.013-.129.019-.207.019-.228q.006-3.3.011-6.6-1.291.084-2.579.192a2.345,2.345,0,0,0-.99.362,6.42,6.42,0,0,0-.99.723,10.887,10.887,0,0,0-1.085.984l1.057-5.057q6.619-.646,13.273-.669.523,2.467,1.048,4.947a9.677,9.677,0,0,0-1.087-.874,7.069,7.069,0,0,0-1.031-.622,2.192,2.192,0,0,0-.992-.26q-1.366.026-2.734.075l-.006,6.6a1.732,1.732,0,0,0,.037.258,2.23,2.23,0,0,0,.168.48,2.3,2.3,0,0,0,.45.616,4.37,4.37,0,0,0,.88.669c-.276.224-.525.446-.751.669a3.318,3.318,0,0,0-.525.6,1.455,1.455,0,0,0-.263.592q0,4.14-.009,8.281a1.1,1.1,0,0,0,.187.592,3.68,3.68,0,0,0,.413.551,2.854,2.854,0,0,0,.639.562Q168.062,191.843,164.891,192.075ZM175.64,175l0,2.435-.153.129a2.91,2.91,0,0,1-.348.25,2.189,2.189,0,0,0-.8.883l-.375.755-.392-.746a2.212,2.212,0,0,0-.8-.859,3.479,3.479,0,0,1-.3-.2l-.173-.129.005-4.531.628.325a4.7,4.7,0,0,1,.617.381l.062.043a7.177,7.177,0,0,1,.835.672,2.215,2.215,0,0,0,.893.5ZM171.026,201.1a.406.406,0,0,0,.071-.047.645.645,0,0,0,.1-.1.619.619,0,0,0,.086-.168.5.5,0,0,0,.011-.245q-.271-.781-.53-1.558c-.187.011-.375.024-.564.037-.028.532-.058,1.061-.086,1.593a.336.336,0,0,0,.039.17,1.127,1.127,0,0,0,.1.174,1.914,1.914,0,0,0,.162.185c-.581.037-1.16.082-1.742.133.06-.064.119-.131.172-.2s.088-.114.129-.174a.332.332,0,0,0,.062-.151c.049-.758.1-1.516.151-2.271a.3.3,0,0,0-.063-.151.842.842,0,0,0-.133-.144c-.062-.056-.127-.11-.194-.159a1.374,1.374,0,0,0,.25-.213,1.028,1.028,0,0,0,.136-.185.663.663,0,0,0,.06-.138c.006-.024.011-.049.015-.073.045-.7.092-1.395.138-2.095a.408.408,0,0,0-.037-.2,1.481,1.481,0,0,0-.1-.183c-.043-.06-.086-.125-.133-.192q.995-.087,1.993-.146a1.577,1.577,0,0,1,.607.077,1.465,1.465,0,0,1,.487.28,1.36,1.36,0,0,1,.327.431,1.179,1.179,0,0,1,.11.542c-.015.521-.028,1.042-.043,1.565a1.27,1.27,0,0,1-.232.7,1.711,1.711,0,0,1-.583.525c.12.325.228.62.325.883.11.3.22.594.331.893a.746.746,0,0,0,.138.217,2.043,2.043,0,0,0,.172.164,1.4,1.4,0,0,0,.211.144C172.324,201.033,171.674,201.059,171.026,201.1Zm2.925-10.568a2.177,2.177,0,0,1-1.475-.818l-.2-.115.007-7.312,0-.184.128-.126a7.655,7.655,0,0,1,.591-.525,2.182,2.182,0,0,0,.583-.728l.376-.754.391.746a2.177,2.177,0,0,0,.585.7c.2.162.4.328.569.494l.132.127,0,7.271-.071.108c-.015.022-.031.044-.056.077l-.015.017-.01.016-.012.016a3.439,3.439,0,0,1-.322.368A1.808,1.808,0,0,1,173.951,190.528Zm3.731,10.507a.433.433,0,0,0,.069-.041.424.424,0,0,0,.093-.095.452.452,0,0,0,.067-.4q-.329-.807-.648-1.612l-.564-.017c.011.53.022,1.061.03,1.591a.379.379,0,0,0,.052.174,1.513,1.513,0,0,0,.116.185,1.75,1.75,0,0,0,.177.2c-.581-.017-1.162-.026-1.746-.03a2.261,2.261,0,0,0,.159-.185,1.727,1.727,0,0,0,.116-.164.274.274,0,0,0,.052-.146c-.006-.755-.011-1.511-.017-2.267a.344.344,0,0,0-.073-.155,1.008,1.008,0,0,0-.146-.157c-.062-.06-.131-.119-.207-.179a1.064,1.064,0,0,0,.237-.189.9.9,0,0,0,.123-.172.472.472,0,0,0,.049-.133c0-.024.009-.047.011-.071,0-.7-.011-1.393-.015-2.088a.469.469,0,0,0-.052-.2,1.51,1.51,0,0,0-.11-.192c-.047-.065-.1-.134-.15-.2.665,0,1.33.017,2,.039a1.692,1.692,0,0,1,.616.136,1.793,1.793,0,0,1,.51.327,1.674,1.674,0,0,1,.36.463,1.321,1.321,0,0,1,.151.556l.073,1.565a1.112,1.112,0,0,1-.181.678,1.34,1.34,0,0,1-.547.474c.144.338.273.644.392.917q.2.462.4.928a.888.888,0,0,0,.153.23,2.417,2.417,0,0,0,.185.181,1.833,1.833,0,0,0,.222.166C178.98,201.094,178.332,201.061,177.682,201.035Zm-1.07-9.372a5.149,5.149,0,0,0,.564-.641,4.312,4.312,0,0,0,.413-.642,1.639,1.639,0,0,0,.187-.773q0-3.978,0-7.958a1.333,1.333,0,0,0-.263-.571,3.387,3.387,0,0,0-.525-.572q-.358-.345-.749-.655a4.146,4.146,0,0,0,.88-.7,3.209,3.209,0,0,0,.469-.642,1.373,1.373,0,0,0,.168-.482q.02-.194.02-.226,0-3.9,0-7.8a1.564,1.564,0,0,0-.187-.715,4.569,4.569,0,0,0-.411-.652,5.227,5.227,0,0,0-.562-.652q3.106.026,6.21.189a2.768,2.768,0,0,0-.99,1.115,1.761,1.761,0,0,0-.168.768q0,3.93.009,7.862c0,.043.006.125.02.243a1.426,1.426,0,0,0,.17.476,3.439,3.439,0,0,0,.469.669,4.574,4.574,0,0,0,.883.758,9.176,9.176,0,0,0-.749.607,3.1,3.1,0,0,0-.523.54,1.265,1.265,0,0,0-.263.555q0,3.946.009,7.894a2.129,2.129,0,0,0,.17.852,3.422,3.422,0,0,0,.394.7,3.283,3.283,0,0,0,.6.646Q179.732,191.691,176.612,191.664Zm5.367,9.656a1.044,1.044,0,0,0,.146-.163.887.887,0,0,0,.1-.166.409.409,0,0,0,.036-.209q-.087-1.1-.179-2.2a.455.455,0,0,0-.084-.164,1.192,1.192,0,0,0-.157-.17c-.067-.064-.14-.131-.219-.2a.889.889,0,0,0,.226-.172.739.739,0,0,0,.114-.166.339.339,0,0,0,.035-.129v-.062l-.174-2.15a.465.465,0,0,0-.065-.2,1.913,1.913,0,0,0-.286-.383c.547.054,1.1.114,1.64.181a.5.5,0,0,0-.144.133.575.575,0,0,0-.088.157.456.456,0,0,0-.024.209c.067.723.136,1.447.2,2.17a.41.41,0,0,0,.011.067.542.542,0,0,0,.058.136,1.263,1.263,0,0,0,.144.194,1.522,1.522,0,0,0,.261.226,1.848,1.848,0,0,0-.187.153.661.661,0,0,0-.129.14.305.305,0,0,0-.058.148c.067.728.136,1.453.2,2.181a.633.633,0,0,0,.069.239,1.249,1.249,0,0,0,.129.2,1.124,1.124,0,0,0,.187.192Q182.867,201.406,181.979,201.32Zm7.963-.118a1,1,0,0,1-.039.527.866.866,0,0,1-.286.381,1.1,1.1,0,0,1-.482.2,1.681,1.681,0,0,1-.631-.015l-.316-.052a2.3,2.3,0,0,1-.667-.235,2.866,2.866,0,0,1-.575-.4,2.207,2.207,0,0,1-.422-.514,1.544,1.544,0,0,1-.2-.577l-.176-1.39a.76.76,0,0,0-.1-.17,1.46,1.46,0,0,0-.163-.181c-.069-.069-.14-.14-.217-.211a.715.715,0,0,0,.211-.155.633.633,0,0,0,.1-.151.359.359,0,0,0,.035-.127.464.464,0,0,0,0-.075l-.172-1.356a1.092,1.092,0,0,1,.054-.532.965.965,0,0,1,.282-.4,1.1,1.1,0,0,1,.454-.224,1.422,1.422,0,0,1,.588,0l.3.058a2.065,2.065,0,0,1,.62.23,2.441,2.441,0,0,1,.538.413,2.487,2.487,0,0,1,.409.527,1.661,1.661,0,0,1,.215.583l.226,1.365c.006.026.013.049.022.075a.715.715,0,0,0,.073.146,1.553,1.553,0,0,0,.151.2,2.244,2.244,0,0,0,.271.247,1.494,1.494,0,0,0-.172.136.549.549,0,0,0-.116.127.242.242,0,0,0-.045.142Zm5.506-2.138c.125.54.252,1.081.377,1.621a.968.968,0,0,1-.039.65.668.668,0,0,1-.429.351q.307.575.556,1.035.28.523.564,1.048a1.7,1.7,0,0,0,.192.276c.073.086.144.163.211.23.084.084.164.157.243.224-.631-.213-1.26-.407-1.888-.592a.247.247,0,0,0,.058-.026.212.212,0,0,0,.071-.073.326.326,0,0,0,.041-.146.59.59,0,0,0-.056-.252q-.475-.91-.938-1.812c-.183-.052-.366-.106-.549-.155q.171.817.342,1.638a.608.608,0,0,0,.084.192c.045.073.095.146.148.217s.131.164.209.25c-.564-.161-1.13-.314-1.7-.463a.991.991,0,0,0,.118-.151,1.1,1.1,0,0,0,.082-.138.214.214,0,0,0,.022-.138q-.229-1.162-.461-2.325a.643.643,0,0,0-.1-.179,1.869,1.869,0,0,0-.172-.2c-.071-.075-.151-.155-.237-.235a.551.551,0,0,0,.194-.136.477.477,0,0,0,.086-.146.4.4,0,0,0,.024-.123c0-.024,0-.047,0-.071l-.424-2.142a.708.708,0,0,0-.088-.218c-.047-.077-.095-.153-.146-.224s-.121-.161-.185-.247c.65.168,1.3.347,1.942.534a2.255,2.255,0,0,1,.618.291,3.232,3.232,0,0,1,.551.461,3.069,3.069,0,0,1,.433.564A2.064,2.064,0,0,1,195.448,199.064Zm7.514-15.879a2.511,2.511,0,0,0-.515.465,1.057,1.057,0,0,0-.256.517l.039,7.967a2.164,2.164,0,0,0,.17.824,4.175,4.175,0,0,0,.392.739,5.253,5.253,0,0,0,.6.764q-3.019-.6-6.055-1.074c.2-.185.383-.37.555-.56a2.95,2.95,0,0,0,.407-.517,1.045,1.045,0,0,0,.183-.553q-.026-6.829-.054-13.656-2.183,6.161-4.383,12.386-2.225-6.794-4.443-13.519.016,6.632.032,13.267a2.047,2.047,0,0,0,.19.861,4.317,4.317,0,0,0,.413.721,4.612,4.612,0,0,0,.6.71q-3.068-.333-6.146-.534a7.236,7.236,0,0,0,.6-.736,7.764,7.764,0,0,0,.411-.7,1.46,1.46,0,0,0,.185-.682q-.006-3.93-.015-7.862a1.427,1.427,0,0,0-.263-.585,3.7,3.7,0,0,0-.525-.6q-.339-.344-.749-.7a3.783,3.783,0,0,0,.878-.655,2.941,2.941,0,0,0,.467-.613,1.321,1.321,0,0,0,.168-.474,2.2,2.2,0,0,0,.017-.226q-.006-3.994-.015-7.991a1.3,1.3,0,0,0-.187-.6,4.154,4.154,0,0,0-.411-.611,5.208,5.208,0,0,0-.6-.655q3.587.236,7.164.65a2.944,2.944,0,0,0-.594.514,2.119,2.119,0,0,0-.37.54.9.9,0,0,0-.034.676q1.614,4.914,3.233,9.868,1.569-4.5,3.128-8.964a1.268,1.268,0,0,0-.058-.7,2.432,2.432,0,0,0-.355-.652,5.994,5.994,0,0,0-.6-.7q3.565.526,7.106,1.231a3.839,3.839,0,0,0-.588.564,3.093,3.093,0,0,0-.383.637,1.871,1.871,0,0,0-.161.809q.016,3.771.035,7.541c0,.022.006.1.019.23a1.741,1.741,0,0,0,.168.517,4.172,4.172,0,0,0,.465.736,5.556,5.556,0,0,0,.872.885A7.091,7.091,0,0,0,202.962,183.185Zm13.323-7.917a8.381,8.381,0,0,1,1.244,2.01,5.467,5.467,0,0,1,.467,2.133q.02,2.444.037,4.891a1.951,1.951,0,0,0,.039.271,2.569,2.569,0,0,0,.185.542,4.771,4.771,0,0,0,.439.768,6.377,6.377,0,0,0,.835.964,5.979,5.979,0,0,0-.719.415,2.036,2.036,0,0,0-.5.407.922.922,0,0,0-.25.487q.019,2.509.036,5.02a3.6,3.6,0,0,1-.439,1.851,3.437,3.437,0,0,1-1.242,1.255,4.417,4.417,0,0,1-1.832.579,6.179,6.179,0,0,1-2.245-.215q-.549-.129-1.1-.256a7.788,7.788,0,0,1-2.262-.986,9.572,9.572,0,0,1-1.866-1.552,7.017,7.017,0,0,1-1.281-1.918,5.16,5.16,0,0,1-.472-2.107l-.026-5.018a2.42,2.42,0,0,0-.3-.629,4.674,4.674,0,0,0-.519-.676c-.222-.261-.459-.525-.7-.792a2.985,2.985,0,0,0,.846-.521,2.54,2.54,0,0,0,.439-.521,1.292,1.292,0,0,0,.181-.446,1.848,1.848,0,0,0,.035-.267q-.013-2.444-.026-4.889a3.717,3.717,0,0,1,1.709-3.244,4.482,4.482,0,0,1,1.847-.682,5.658,5.658,0,0,1,2.247.157c.377.1.756.2,1.132.3a7.416,7.416,0,0,1,2.241,1.022A8.671,8.671,0,0,1,216.285,175.267Zm-3.378-4.954-.045-.013-.038-.01c-.368-.1-.741-.2-1.113-.293a8.425,8.425,0,0,0-2.09-.279,7.274,7.274,0,0,0-1.027.073,6.747,6.747,0,0,0-2.427.83l-.563.322-.079-.643a2.015,2.015,0,0,0-.037-.21,2.209,2.209,0,0,0-1.712-1.653c-2.38-.475-4.807-.9-7.216-1.251a2.237,2.237,0,0,0-.323-.024,2.2,2.2,0,0,0-1.66.755l-.426.488-.285-.582a2.193,2.193,0,0,0-1.725-1.219c-2.44-.283-4.888-.5-7.28-.659-.047,0-.092-.005-.14-.005a2.169,2.169,0,0,0-.608.087l-.155.045-.146-.068a2.189,2.189,0,0,0-.806-.2c-2.075-.108-4.2-.174-6.3-.193h-.023a2.2,2.2,0,0,0-.783.144l-.146.056-.147-.051a2.219,2.219,0,0,0-.728-.121c-4.474.017-9.008.246-13.479.68a2.193,2.193,0,0,0-1.943,1.741l-1.057,5.056a2.2,2.2,0,0,0,3.738,1.986,8.7,8.7,0,0,1,.87-.789c.034-.027.066-.054.094-.078.062-.057.13-.113.2-.165l.7-.54-.006,4.178-.082.113a.742.742,0,0,1-.076.09,2.531,2.531,0,0,1-.452.377,2.2,2.2,0,0,0,0,3.6c.178.128.327.243.454.351l.152.129,0,3.318v1.707l-.782-1.1a2.2,2.2,0,0,0-3.471-.15,3.48,3.48,0,0,1-.266.25,6.643,6.643,0,0,1-.586.452,5.225,5.225,0,0,1-.682.4,1.23,1.23,0,0,1-.284.112l-.026.007-.027,0c-.166.021-.334.045-.5.068l-.493.07.015-3.613.011-.179.114-.123c.024-.026.048-.052.075-.078s.045-.047.065-.069c.224-.248.432-.469.637-.678a2.2,2.2,0,0,0-.593-3.524l-.288-.137.014-3.768.015-3.73.038-.083s.03-.072.043-.1l.051-.111.116-.078a2.2,2.2,0,0,0-1.254-4.015,2.219,2.219,0,0,0-.329.024c-2.088.313-4.2.678-6.278,1.084a2.181,2.181,0,0,0-.639.232l-.113.062-.129-.01c-.045,0-.09-.005-.133-.005a2.278,2.278,0,0,0-.446.045c-2.066.425-4.161.905-6.226,1.427a2.2,2.2,0,0,0-1.079.641l-.186.2-.261-.084a2.2,2.2,0,0,0-1.253-.027l-.03.009-1.109-.683h.005c-3.639-2.583-6.426-4.694-7.4-5.46a155.863,155.863,0,0,1,6.336-18.141l.169-.415-25.753-31.358.655-.859a16.156,16.156,0,0,1,2.561-2.639,15.093,15.093,0,0,1,4.429-2.583l.919-.33,21.831,27.308.526-1.043c.383-.752.708-1.358.97-1.81l.342-.59-.553-.4a37.6,37.6,0,0,1-3.794-3.4c-4.371-4.318.929-12.432,2.627-14.777a55.033,55.033,0,0,1,4.017,5.494l.728,1.13.58-1.213a2.509,2.509,0,0,1,.121-.243l.046-.08c.019-.036.027-.046.068-.116s.082-.138.128-.211l.017-.027c.024-.036.046-.073.077-.119l.087-.128.041-.041.029-.059.095-.133.043-.058.206-.209v-.056l.148-.182.039-.051c.092-.114.192-.228.291-.342l.049-.056c.085-.1.175-.194.264-.291l.058-.07a44.3,44.3,0,0,1,2.91-3.614l.061-.068.371-.407.485-.514.053-.056c.162-.155.323-.318.485-.485l.211-.211.517-.514-.354-.514a73.1,73.1,0,0,1-7.709-15.078l-.179-.449c-.034-.087-.07-.172-.109-.264a6.1,6.1,0,0,0-.4-.82A.7.7,0,0,0,145,93.5a2.147,2.147,0,0,0-2.693-.944c-.124.036-.25.083-.39.138a11,11,0,0,0-3.639,2.792,10.094,10.094,0,0,1-.441-2.285l-.015-.432v-.864c.008-.2.019-.408.039-.609.007-.087.027-.177.027-.282v-.112a.289.289,0,0,0,.015-.112v-.075c.012-.07.029-.177.036-.243s.027-.131.027-.187l.02-.114c.015-.077.029-.155.046-.243s.038-.184.056-.272.036-.175.058-.262l.061-.257a.13.13,0,0,0,.015-.056l.221-.762c.029-.087.056-.175.085-.26.058-.16.116-.325.177-.485.049-.136.1-.271.148-.378s.1-.231.148-.349l.053-.119.024-.051.046-.107a.22.22,0,0,0,.036-.078l.114-.242.041-.041.039-.119c.046-.095.094-.187.143-.279l.036-.068.114-.218.046-.083c.126-.213.238-.425.369-.643l.068-.112.153-.243.209-.325c.073-.109.151-.226.223-.33s.141-.216.226-.32.158-.216.243-.318.162-.206.243-.308c.155-.209.318-.413.485-.616l.243-.3.257-.3.26-.291.267-.291.26-.277.272-.284.274-.277.26-.255.349-.337.223-.206.22-.2.068-.061.277-.243.262-.243.3-.26a29.05,29.05,0,0,1,3.639-2.6c1.154-.708,2.316-1.349,3.3-1.88,1.324-.721,2.7-1.419,3.881-2.021l1.618-.822-1.9,3.82c-4.609,9.244-3.667,19.422,2.792,30.25l.422.708,1.128-.827.083-.061.728-.529.128-.092.112-.077c.216-.151.432-.3.66-.459l.534-.366-.813-1.662a13.291,13.291,0,0,1,6.086-4.7,24.6,24.6,0,0,1,4.58-1.482l.728-.158-.165-.728a26.8,26.8,0,0,0-1.409-4.579,10.09,10.09,0,0,0-1.247-2.3l-.243-.3-.434-.471.682-.8.121-.148a28.52,28.52,0,0,0,3.02-4.674l.175-.349a21.857,21.857,0,0,0,.956-2.2c.053-.151.1-.3.151-.444l1.15-3.58c.383,1.189.837,2.61,1.15,3.58.046.146.1.294.153.449a22.156,22.156,0,0,0,.956,2.205l.175.354a28.5,28.5,0,0,0,3.02,4.672l.121.143.667.784.012.015-.4.437-.281.332a10.355,10.355,0,0,0-1.242,2.292,27,27,0,0,0-1.407,4.58l-.165.728.728.158a24.674,24.674,0,0,1,4.579,1.482,13.283,13.283,0,0,1,6.084,4.7l-.808,1.666.533.366.636.441.116.083.136.1c.252.177.5.356.764.546l1.193.876.422-.708c6.459-10.828,7.4-21,2.792-30.25l-1.962-3.937,3.99,1.868.09.043.094.046.085.041.408.2.155.083.087.046.08.041.381.2c.247.133.521.284.827.461l.206.119.151.087.206.121c.264.155.541.325.834.507l.32.2.41.264c.446.291.893.592,1.324.9l.128.092c.189.135.379.271.582.422l.182.133.138.1.262.2q.621.47,1.274,1.014l.216.179a31.722,31.722,0,0,1,2.629,2.477l.269.289c.094.1.189.206.284.313l.228.26c.165.184.325.371.485.57l.192.243.049.066c.058.077.126.172.184.243s.1.143.187.243a3.708,3.708,0,0,1,.243.31c.07.1.138.194.206.291l.051.07c.07.1.144.214.213.315s.139.209.206.315l.034.056c.068.1.134.208.2.318.092.148.182.3.269.454l.131.243c.087.155.169.31.257.485.044.085.087.167.131.257l.182.383.087.192.073.167.163.388c.026.066.053.131.077.2l.012.031c.017.041.034.087.056.151.049.128.094.259.141.4.1.26.172.493.243.745s.136.517.2.793c.024.1.046.211.066.32l.017.094a1.026,1.026,0,0,1,.034.189l.087.59a.333.333,0,0,1,.015.119l.022.184v.25l.022.3a1.76,1.76,0,0,1,.017.3c.017.376.017.74,0,1.1v.356a10.37,10.37,0,0,1-.429,2.11,11,11,0,0,0-3.639-2.792c-.141-.056-.264-.1-.383-.138a2.142,2.142,0,0,0-2.709.97l-.027.044a5.919,5.919,0,0,0-.41.827c-.039.092-.078.185-.114.279l-.179.454a73.04,73.04,0,0,1-7.709,15.073l-.354.514.728.728c.17.158.33.323.485.485l.039.041.388.412.1.109.354.388.09.1c.572.631,1.111,1.269,1.644,1.941.417.521.818,1.048,1.262,1.657l.058.07c.092.1.179.2.269.3l.039.043.143.167.2.243.136.169v.056l.185.184.02.024.043.058.1.148.032.058.029.029.1.143.059.087.026.039c.046.073.09.143.134.218l.063.112.061.112c.017.029.032.058.049.092l.051.1.451.97.759-.759.049-.046.085-.129.034-.051.075-.116.119-.177.092-.138.119-.177.429-.636c.18-.26.376-.546.587-.846l.179-.257a32.514,32.514,0,0,1,2.348-3.039,20.919,20.919,0,0,1,4.318,10.484,5.791,5.791,0,0,1-1.7,4.293,36.9,36.9,0,0,1-3.791,3.4l-.512.369.276.567c.034.071.075.143.121.226l.11.194c.228.41.485.9.759,1.441l.526,1.043L232.7,108.369l.922.33a15.092,15.092,0,0,1,4.427,2.583,16.2,16.2,0,0,1,2.562,2.639l.655.861-25.753,31.359.17.415a156.385,156.385,0,0,1,6.321,18.088ZM140.12,131.619h.012c.485.454.895.786,1.178,1.017l-.153.284Zm72.081,0-1.041,1.305-.155-.286C211.289,132.4,211.689,132.07,212.2,131.617Z" transform="translate(-109.154 -68)"/></svg>