<svg id="Layer_1" data-name="Layer 1" xmlns="http://www.w3.org/2000/svg" viewBox="0 0 19.01 19.14"><defs><style>.cls-1{fill:#c25cff;}</style></defs><g id="Group_5702" data-name="Group 5702"><path id="Path_149" data-name="Path 149" class="cls-1" d="M9.49,19.14C7.75,19,6,19.06,4.26,18.81A4.79,4.79,0,0,1,.07,13.94C0,11,0,8,.06,5.06A5,5,0,0,1,5,.07C7.9,0,10.84,0,13.78.06a5,5,0,0,1,5.16,4.87V5.2c.09,2.84.1,5.7,0,8.55A5.05,5.05,0,0,1,14,19a1.13,1.13,0,0,1-.26,0c-1.42.07-2.85,0-4.28,0Zm7.8-9.66c0-1.4,0-2.81,0-4.21a3.5,3.5,0,0,0-3.46-3.56h-.15c-2.78,0-5.57,0-8.35,0A3.49,3.49,0,0,0,1.71,5.08v.18q-.08,4.24,0,8.48a3.46,3.46,0,0,0,3.37,3.55h.17q4.25.08,8.48,0a3.49,3.49,0,0,0,3.55-3.45v-.09c0-1.42,0-2.85,0-4.27Z"/><path id="Path_150" data-name="Path 150" class="cls-1" d="M14.4,9.53a5,5,0,0,1-5,4.87A5,5,0,0,1,4.6,9.47a5,5,0,0,1,5-4.87A5,5,0,0,1,14.4,9.53Zm-1.7,0A3.16,3.16,0,0,0,9.58,6.3H9.49a3.16,3.16,0,0,0-3.2,3.12v.09a3.17,3.17,0,0,0,3.13,3.2H9.5a3.16,3.16,0,0,0,3.2-3.13Z"/><path id="Path_151" data-name="Path 151" class="cls-1" d="M15.71,4.37a1.08,1.08,0,0,1-1,1.12h0a1.05,1.05,0,0,1-1.11-1,.28.28,0,0,1,0-.09,1.08,1.08,0,0,1,1-1.12h.05a1.09,1.09,0,0,1,1.12,1.06Z"/></g></svg>