<svg xmlns="http://www.w3.org/2000/svg" xmlns:xlink="http://www.w3.org/1999/xlink" width="38.02" height="36.413" viewBox="0 0 38.02 36.413"><defs><style>.a{fill:url(#a);}</style><linearGradient id="a" x1="0.5" x2="0.5" y2="1" gradientUnits="objectBoundingBox"><stop offset="0" stop-color="#64f9a0"/><stop offset="1" stop-color="#5ff5f9"/></linearGradient></defs><path class="a" d="M1929.076-295.712h-8.14v-.938c0-4,.02-8-.015-12a11.367,11.367,0,0,0-.33-2.756,3.957,3.957,0,0,0-6.438-2.093,4.549,4.549,0,0,0-1.826,3.727q.01,6.509,0,13.018c0,.307,0,.614,0,.984h-8.076V-320.2h8.051v3.267a22.5,22.5,0,0,1,1.844-1.96,8.992,8.992,0,0,1,14.253,4.421c.069.231.13.465.185.7a19.407,19.407,0,0,1,.492,4.451Z" transform="translate(-1891.057 332.126)"/><path class="a" d="M1826.334-383.628a4.56,4.56,0,0,1,3.321-3.458,4.682,4.682,0,0,1,4.643,1.326,4.281,4.281,0,0,1,.607,4.738,4.512,4.512,0,0,1-2.578,2.1,4.872,4.872,0,0,1-4.374-.688A3.962,3.962,0,0,1,1826.334-383.628Z" transform="translate(-1826.258 387.246)"/><path class="a" d="M1837.281-292.27h-8.033v-24.456h8.033Z" transform="translate(-1828.742 328.656)"/></svg>