<svg id="Layer_1" data-name="Layer 1" xmlns="http://www.w3.org/2000/svg" viewBox="0 0 18.06 17.3"><defs><style>.cls-1{fill:#c25cff;}</style></defs><g id="Group_5704" data-name="Group 5704"><path id="Path_9173" data-name="Path 9173" class="cls-1" d="M18.06,17.3H14.19v-.45c0-1.9,0-3.8,0-5.7A5.8,5.8,0,0,0,14,9.84a1.88,1.88,0,0,0-2.26-1.4,1.85,1.85,0,0,0-.8.41,2.15,2.15,0,0,0-.87,1.77v6.65H6.27V5.67h3.82V7.22A9.67,9.67,0,0,1,11,6.29a4.28,4.28,0,0,1,6.77,2.1l.09.33a10,10,0,0,1,.23,2.12Z"/><path id="Path_9174" data-name="Path 9174" class="cls-1" d="M0,1.72A2.15,2.15,0,0,1,1.61.08,2.2,2.2,0,0,1,3.82.71,2,2,0,0,1,4.11,3,2.22,2.22,0,0,1,2.88,4,2.29,2.29,0,0,1,.81,3.63,1.87,1.87,0,0,1,0,1.72Z"/><path id="Path_9175" data-name="Path 9175" class="cls-1" d="M4.06,17.28H.24V5.67H4.06Z"/></g></svg>