<svg xmlns="http://www.w3.org/2000/svg" xmlns:xlink="http://www.w3.org/1999/xlink" width="18.78" height="18.783" viewBox="0 0 18.78 18.783">
  <defs>
    <linearGradient id="linear-gradient" x1="0.5" x2="0.5" y2="1" gradientUnits="objectBoundingBox">
      <stop offset="0" stop-color="#64f9a0"/>
      <stop offset="1" stop-color="#5ff5f9"/>
    </linearGradient>
  </defs>
  <path id="Path_9298" data-name="Path 9298" d="M4240.431,1347.327v1.057c-.021.018-.015.043-.015.066a6.923,6.923,0,0,1-.134,1.108,9.271,9.271,0,0,1-.924,2.637,9.391,9.391,0,0,1-6.876,4.894c-.25.038-.5.06-.751.088-.129,0-.258.025-.388.015h-.934c-.006-.025-.027-.017-.043-.018-.208-.018-.415-.038-.621-.067a9.212,9.212,0,0,1-1.965-.5,9.433,9.433,0,0,1-5.318-5,9.239,9.239,0,0,1-.776-3.088c-.008-.105-.017-.21-.025-.315a.528.528,0,0,0,0-.078c-.018-.16-.008-.32-.011-.48a1.983,1.983,0,0,0,.008-.252.377.377,0,0,0,.008-.052c.011-.261.036-.52.07-.779a9.129,9.129,0,0,1,.375-1.662,9.383,9.383,0,0,1,7.92-6.441c.236-.025.474-.038.71-.053h.617c.334.019.667.043,1,.089a9.4,9.4,0,0,1,7.663,6.5,9.084,9.084,0,0,1,.4,2.1C4240.4,1347.175,4240.44,1347.25,4240.431,1347.327Zm-4.735-2.726c0-.044,0-.088-.012-.131a.663.663,0,0,0-.03-.119.411.411,0,0,0-.4-.286.692.692,0,0,0-.266.051l-2.732,1.054-3.226,1.242-1.961.756q-.587.226-1.173.455a.907.907,0,0,0-.318.2.243.243,0,0,0,.033.409.811.811,0,0,0,.237.114l2.258.706a.132.132,0,0,0,.122-.018l2.174-1.37,3.157-1.988a.571.571,0,0,1,.152-.067.274.274,0,0,1,.122-.008c.071.012.094.063.053.12a.536.536,0,0,1-.079.082l-1.691,1.529q-1.291,1.165-2.581,2.329a.154.154,0,0,0-.056.113q-.036.54-.074,1.08-.04.584-.082,1.168c-.005.076,0,.081.074.074a.6.6,0,0,0,.359-.188q.56-.542,1.121-1.082c.06-.058.049-.048.106-.006l2.118,1.562a1.218,1.218,0,0,0,.379.217.428.428,0,0,0,.561-.243.863.863,0,0,0,.041-.1,2.865,2.865,0,0,0,.084-.35q.339-1.6.679-3.191.387-1.824.773-3.648A2.528,2.528,0,0,0,4235.7,1344.6Z" transform="translate(-4221.652 -1338.41)" fill="url(#linear-gradient)"/>
</svg>
