<svg id="Layer_1" data-name="Layer 1" xmlns="http://www.w3.org/2000/svg" viewBox="0 0 18.96 19.85"><defs><style>.cls-1{fill:#c25cff;}</style></defs><g id="Group_5703" data-name="Group 5703"><path id="Path_9170" data-name="Path 9170" class="cls-1" d="M19,.75c0-.23,0-.45,0-.66-.1,0-.14-.08-.17-.08h-17c-.15,0-.39.07-.42.16A13.55,13.55,0,0,0,.09,3.94C-.06,8.14,0,12.34,0,16.55c0,.2,0,.4.05.66H4.76v2.5c1.63.33,3,.15,3.93-1.26a3.8,3.8,0,0,1,.9-.89,1.63,1.63,0,0,1,.86-.35c1-.05,1.92,0,2.88,0a1.38,1.38,0,0,0,.85-.35q2.22-2.16,4.38-4.39a1.52,1.52,0,0,0,.39-1C19,7.89,19,4.32,19,.75Zm-1.7,9.89a1.56,1.56,0,0,1-.37.91c-.73.8-1.5,1.56-2.29,2.29a1.43,1.43,0,0,1-.84.34c-1.22,0-2.45,0-3.67,0a1.59,1.59,0,0,0-1,.4c-.72.66-1.38,1.4-2.19,2.23V14.24H3.07V1.72H17.28v3c0,2,0,3.94,0,5.91Z"/><path id="Path_9171" data-name="Path 9171" class="cls-1" d="M7.82,10.26H9.41V5.2H7.82Z"/><path id="Path_9172" data-name="Path 9172" class="cls-1" d="M12.56,10.27h1.61V5.21H12.56Z"/></g></svg>