<svg xmlns="http://www.w3.org/2000/svg" xmlns:xlink="http://www.w3.org/1999/xlink" width="39.922" height="41.787" viewBox="0 0 39.922 41.787"><defs><style>.a{fill:url(#a);}</style><linearGradient id="a" x1="0.5" x2="0.5" y2="1" gradientUnits="objectBoundingBox"><stop offset="0" stop-color="#64f9a0"/><stop offset="1" stop-color="#5ff5f9"/></linearGradient></defs><g transform="translate(-1614.122 420.744)"><path class="a" d="M1654.037-419.158c0-.482-.047-.963-.068-1.387-.2-.1-.281-.174-.366-.174q-17.946-.024-35.891-.024c-.3,0-.816.139-.884.333-.917,2.637-2.428,5.273-2.524,7.954-.318,8.839-.121,17.7-.115,26.546,0,.421.066.842.111,1.388h9.84v5.261c3.438.707,6.276.317,8.286-2.646a8.224,8.224,0,0,1,1.885-1.877,3.493,3.493,0,0,1,1.8-.738c2.023-.091,4.055.022,6.078-.069a2.955,2.955,0,0,0,1.784-.741q4.677-4.55,9.218-9.237a3.253,3.253,0,0,0,.818-2.044C1654.061-404.128,1654.041-411.643,1654.037-419.158Zm-3.575,20.808a3.163,3.163,0,0,1-.784,1.913c-1.535,1.674-3.148,3.282-4.813,4.827a2.973,2.973,0,0,1-1.785.722c-2.567.079-5.141-.025-7.707.072a3.426,3.426,0,0,0-2.031.833c-1.519,1.4-2.91,2.938-4.618,4.7v-5.491h-8.148v-26.354h29.92v6.328C1650.5-406.652,1650.532-402.5,1650.462-398.351Z" transform="translate(0 0)"/><path class="a" d="M1669.639-373.213h3.336v-10.668h-3.336Z" transform="translate(-39.046 -25.927)"/><path class="a" d="M1703.232-373.141h3.389v-10.644h-3.389Z" transform="translate(-62.673 -25.994)"/></g></svg>