<svg xmlns="http://www.w3.org/2000/svg" xmlns:xlink="http://www.w3.org/1999/xlink" width="22.242" height="18.142" viewBox="0 0 22.242 18.142">
  <defs>
    <linearGradient id="linear-gradient" x1="0.5" x2="0.5" y2="1" gradientUnits="objectBoundingBox">
      <stop offset="0" stop-color="#64f9a0"/>
      <stop offset="1" stop-color="#5ff5f9"/>
    </linearGradient>
  </defs>
  <g id="hc5ss3.tif" transform="translate(-725.081 -249.643)">
    <g id="Group_5774" data-name="Group 5774" transform="translate(725.081 249.642)">
      <path id="Path_9298" data-name="Path 9298" d="M732.813,267.784h-1.4c-.44-.047-.882-.077-1.319-.144a13.151,13.151,0,0,1-4.274-1.432c-.252-.136-.495-.289-.742-.434a9.525,9.525,0,0,0,6.7-1.945,4.606,4.606,0,0,1-2.647-.911,4.463,4.463,0,0,1-1.6-2.2c.345,0,.671.015.994,0s.646-.071.969-.109a4.956,4.956,0,0,1-2.589-1.669,4.449,4.449,0,0,1-1-2.884c.34.129.65.272.975.362s.664.127,1,.187l.009-.062a4.544,4.544,0,0,1-1.313-6.027,13.071,13.071,0,0,0,9.384,4.755c-.02-.452-.073-.879-.052-1.3a4.577,4.577,0,0,1,7.749-3.037c.07.066.193.145.266.125.524-.143,1.05-.288,1.56-.476.41-.152.8-.366,1.226-.567a4.774,4.774,0,0,1-1.883,2.455,8.469,8.469,0,0,0,2.5-.668c-.062.094-.092.141-.124.187a8.879,8.879,0,0,1-1.948,2.013.417.417,0,0,0-.192.4,11.448,11.448,0,0,1-.213,2.689,13.387,13.387,0,0,1-3.519,6.862,12.226,12.226,0,0,1-7.413,3.712C733.547,267.7,733.18,267.741,732.813,267.784Z" transform="translate(-725.081 -249.643)" fill="url(#linear-gradient)"/>
    </g>
  </g>
</svg>
