<svg id="Layer_1" data-name="Layer 1" xmlns="http://www.w3.org/2000/svg" viewBox="0 0 24.66 17.05"><defs><style>.cls-1{fill:#c25cff;}</style></defs><g id="_5wSiWi.tif" data-name="5wSiWi.tif"><g id="Group_3396" data-name="Group 3396"><path id="Path_7684" data-name="Path 7684" class="cls-1" d="M12.29,17l-.45,0c-2.33.05-4.68-.11-7-.22a8.83,8.83,0,0,1-2.34-.4A3.14,3.14,0,0,1,.32,13.71a41.77,41.77,0,0,1-.2-8.29c0-.78.19-1.55.26-2.32a3.38,3.38,0,0,1,3-2.72A75.87,75.87,0,0,1,13,0c2.2,0,4.39.1,6.58.19a14.15,14.15,0,0,1,2.05.24,3.08,3.08,0,0,1,2.6,2.71,28.81,28.81,0,0,1,.37,6.08c-.06,1.54-.22,3.08-.38,4.61a3.22,3.22,0,0,1-3,2.79c-2.58.22-5.17.27-7.77.34l-.83,0Zm3.87-8.5L10,4.75v7.54Z"/></g></g></svg>