<svg id="Layer_1" data-name="Layer 1" xmlns="http://www.w3.org/2000/svg" viewBox="0 0 22.73 16.54"><defs><style>.cls-1{fill:#9a9aa0;}</style></defs><path id="Path_7863" data-name="Path 7863" class="cls-1" d="M3.71,3c.15-.07.29-.13.43-.21A18.14,18.14,0,0,1,6.87,1.68a12.49,12.49,0,0,1,1.9-.45c.4-.07.8-.11,1.2-.15a17.54,17.54,0,0,1,2,0,13.67,13.67,0,0,1,1.56.13,14,14,0,0,1,2.63.62A15.75,15.75,0,0,1,18,2.52L19,3a.08.08,0,0,0,.07,0,1.29,1.29,0,0,0-.17-.16,11.38,11.38,0,0,0-1.68-1.24A9.88,9.88,0,0,0,15.7.94c-.44-.16-.89-.29-1.35-.41h-.06c-.06,0-.07,0,0-.09l.18-.36A.09.09,0,0,1,14.54,0a7,7,0,0,1,1.29.23,10.21,10.21,0,0,1,1.78.64,10.69,10.69,0,0,1,1.52.84l.41.27a1.2,1.2,0,0,1,.32.45,18.61,18.61,0,0,1,1.29,2.84c.27.75.5,1.52.7,2.29s.32,1.39.45,2.09c.08.48.16,1,.22,1.43s.12,1,.16,1.52c0,.25,0,.51.05.76a.14.14,0,0,1-.05.14,8,8,0,0,1-1.84,1.55,9.52,9.52,0,0,1-2.2,1,10.38,10.38,0,0,1-1.22.31,6.91,6.91,0,0,1-1.35.16.08.08,0,0,1-.09,0l-.76-1c-.05-.06,0-.08,0-.1a9.63,9.63,0,0,0,1.36-.59,10,10,0,0,0,2-1.33c.29-.26.57-.53.83-.81a.22.22,0,0,0,.08-.13l-.25.17a11.38,11.38,0,0,1-1.46.89,12.62,12.62,0,0,1-2.33.9,14.15,14.15,0,0,1-1.94.38c-.36.05-.73.08-1.1.1-.53,0-1.05,0-1.57,0s-.92,0-1.38-.09-1-.14-1.53-.25a12.87,12.87,0,0,1-2.5-.83,11.56,11.56,0,0,1-2-1.19l-.15-.1h0a.47.47,0,0,0,.09.12,10.43,10.43,0,0,0,2.59,2,10.64,10.64,0,0,0,1.54.69c.13.05.13.05.05.16l-.72,1a.12.12,0,0,1-.11.05,8.41,8.41,0,0,1-1.8-.26A10.66,10.66,0,0,1,3,15.66a9.52,9.52,0,0,1-1.72-1A8.81,8.81,0,0,1,0,13.49a.17.17,0,0,1,0-.1c0-.32,0-.63.07-1s0-.59.1-.89.08-.67.13-1q.14-.91.33-1.83C.77,8,1,7.33,1.14,6.64s.42-1.3.66-1.93A17.64,17.64,0,0,1,3,2.23a1.24,1.24,0,0,1,.41-.38A12,12,0,0,1,4.87,1,10.82,10.82,0,0,1,7.42.12,6.49,6.49,0,0,1,8.19,0a.09.09,0,0,1,.12.06,3.78,3.78,0,0,0,.17.35c0,.07,0,.09-.05.11A12.15,12.15,0,0,0,7.25.86,9.68,9.68,0,0,0,4.9,2.07c-.4.29-.79.59-1.15.91,0,0,0,0,0,.06h0Zm9.22,6.22a2.17,2.17,0,0,0,0,.36,2,2,0,0,0,.85,1.45,1.56,1.56,0,0,0,1.06.29,1.78,1.78,0,0,0,1.47-1.1A2.2,2.2,0,0,0,16.52,9a2,2,0,0,0-.85-1.44,1.62,1.62,0,0,0-2.1.19,2.12,2.12,0,0,0-.65,1.54Zm-3.11,0A2.18,2.18,0,0,0,9.2,7.75a1.64,1.64,0,0,0-2.32-.07l-.1.11a2.13,2.13,0,0,0-.57,1.63,2.05,2.05,0,0,0,.49,1.3,1.62,1.62,0,0,0,1.19.64,1.66,1.66,0,0,0,1.43-.64A2.1,2.1,0,0,0,9.81,9.3ZM3.19,12.47h0v0h0v0Z"/></svg>