<svg xmlns="http://www.w3.org/2000/svg" xmlns:xlink="http://www.w3.org/1999/xlink" width="293.451" height="221.066" viewBox="0 0 293.451 221.066"><defs><style>.a{fill:#fff;}.b{fill:url(#a);}</style><linearGradient id="a" y1="0.5" x2="1" y2="0.5" gradientUnits="objectBoundingBox"><stop offset="0.008" stop-color="#79f8ad"/><stop offset="0.17" stop-color="#74f8af"/><stop offset="0.356" stop-color="#66f9b8"/><stop offset="0.555" stop-color="#4ffac6"/><stop offset="0.761" stop-color="#2efcd9"/><stop offset="0.973" stop-color="#05fef2"/><stop offset="1" stop-color="#00fff6"/></linearGradient></defs><path class="a" d="M124.739,0A85.367,85.367,0,0,0,42.28,63.272L0,221.066H168.713a85.367,85.367,0,0,0,82.458-63.272L293.451,0Zm42.77,192.649H34.5L66.6,74.1a61.633,61.633,0,0,1,59.534-45.683h4.024L97.4,149.393H112.2l113.944.451A61.6,61.6,0,0,1,167.509,192.649Z"/><path class="b" d="M500.554,122.276H448.187l9.434-35.208A23.51,23.51,0,0,1,480.33,69.644h34.326l-3.1,11.548H481.323a10.98,10.98,0,0,0-10.606,8.138l-5.733,21.4h24.963l2.393-8.936H477.8L480.9,90.242h28.239Zm-6.035,19.15h-38.17l-7.813,29.159h24.645l2.363-8.822H461.189l3.056-11.4h27.879l-8.472,31.626h-51.7l9.314-34.759h0l4.609-17.2h51.7Z" transform="translate(-255.703 -41.227)"/></svg>