<svg id="Layer_1" data-name="Layer 1" xmlns="http://www.w3.org/2000/svg" viewBox="0 0 50.37 52.18"><defs><style>.cls-1{fill:#6e3590;}.cls-2{fill:#46255c;}.cls-3{fill:#fff;}.cls-4{fill:#9b9b9b;}.cls-5{fill:#885daa;}</style></defs><g id="Group_3400" data-name="Group 3400"><g id="Group_2168" data-name="Group 2168"><path id="Path_5734" data-name="Path 5734" class="cls-1" d="M35.85,36.5l0,0Z"/><path id="Path_5735" data-name="Path 5735" class="cls-1" d="M36,36.34l0-.05Z"/><path id="Path_5737" data-name="Path 5737" class="cls-1" d="M35.69,36.69l0,0Z"/><path id="Path_5742" data-name="Path 5742" class="cls-1" d="M36.13,36.18l.06-.06Z"/><path id="Path_5745" data-name="Path 5745" class="cls-1" d="M36.45,35.86l0,0Z"/><path id="Path_5746" data-name="Path 5746" class="cls-1" d="M37,35.36l.07-.07Z"/><path id="Path_5749" data-name="Path 5749" class="cls-1" d="M37.13,35.21l.08-.07Z"/><path id="Path_5750" data-name="Path 5750" class="cls-1" d="M36.81,35.51l.07-.07Z"/><path id="Path_5751" data-name="Path 5751" class="cls-1" d="M36.65,35.66l.06-.06Z"/><path id="Path_5752" data-name="Path 5752" class="cls-1" d="M36.28,36l.06-.06Z"/><path id="Path_5755" data-name="Path 5755" class="cls-2" d="M37.22,35.13h0Z"/><path id="Path_5757" data-name="Path 5757" class="cls-2" d="M36,36.29l.09-.1Z"/><path id="Path_5761" data-name="Path 5761" class="cls-2" d="M36.5,35.81l.15-.15Z"/><path id="Path_5765" data-name="Path 5765" class="cls-2" d="M36.19,36.12l.09-.1Z"/><path id="Path_5766" data-name="Path 5766" class="cls-2" d="M36.34,36l.11-.11Z"/><path id="Path_5768" data-name="Path 5768" class="cls-2" d="M35.88,36.46l.11-.12Z"/><path id="Path_5769" data-name="Path 5769" class="cls-2" d="M35.72,36.65l.13-.15Z"/><path id="Path_5770" data-name="Path 5770" class="cls-2" d="M36.88,35.44l.09-.08Z"/><path id="Path_5771" data-name="Path 5771" class="cls-2" d="M37,35.29l.1-.08Z"/><path id="Path_5773" data-name="Path 5773" class="cls-2" d="M36.71,35.61l.1-.1Z"/></g><g id="Group_2169" data-name="Group 2169"><path id="Path_5775" data-name="Path 5775" class="cls-1" d="M13.29,35.29l.08.07Z"/><path id="Path_5776" data-name="Path 5776" class="cls-1" d="M13.63,35.6l.06.06Z"/><path id="Path_5777" data-name="Path 5777" class="cls-1" d="M13.13,35.13l.07.07Z"/><path id="Path_5779" data-name="Path 5779" class="cls-1" d="M14.46,36.46l0,0Z"/><path id="Path_5780" data-name="Path 5780" class="cls-1" d="M14.3,36.28l0,.06Z"/><path id="Path_5781" data-name="Path 5781" class="cls-1" d="M14.15,36.12l0,.06Z"/><path id="Path_5782" data-name="Path 5782" class="cls-1" d="M14,36l.06.06Z"/><path id="Path_5783" data-name="Path 5783" class="cls-1" d="M13.84,35.81l0,0Z"/><path id="Path_5784" data-name="Path 5784" class="cls-1" d="M13.46,35.44l.07.07Z"/><path id="Path_5794" data-name="Path 5794" class="cls-1" d="M14.61,36.65l0,0Z"/><path id="Path_5797" data-name="Path 5797" class="cls-2" d="M13.69,35.66l.15.15Z"/><path id="Path_5799" data-name="Path 5799" class="cls-2" d="M13.88,35.85,14,36Z"/><path id="Path_5800" data-name="Path 5800" class="cls-2" d="M14.48,36.5l.13.15Z"/><path id="Path_5803" data-name="Path 5803" class="cls-2" d="M14.05,36l.09.1Z"/><path id="Path_5804" data-name="Path 5804" class="cls-2" d="M14.2,36.18l.09.1Z"/><path id="Path_5805" data-name="Path 5805" class="cls-2" d="M14.35,36.34l.1.12Z"/><path id="Path_5807" data-name="Path 5807" class="cls-2" d="M13.53,35.51l.1.1Z"/><path id="Path_5812" data-name="Path 5812" class="cls-2" d="M13.37,35.36l.09.08Z"/><path id="Path_5813" data-name="Path 5813" class="cls-2" d="M13.12,35.13Z"/><path id="Path_5814" data-name="Path 5814" class="cls-2" d="M13.2,35.21l.09.08Z"/></g><path id="Path_5817" data-name="Path 5817" class="cls-3" d="M45.59,19.31c-.21-.41-.58-1-.58-1a3,3,0,0,1,1.33.12l0,0-.73.9Z"/><path id="Path_5818" data-name="Path 5818" class="cls-4" d="M46.68,19.49a5.35,5.35,0,0,1-1-.17l.73-.9C46.77,19.23,46.68,19.49,46.68,19.49Z"/><path id="Path_5819" data-name="Path 5819" class="cls-3" d="M46.74,18l-.58-1a2.86,2.86,0,0,1,1.33.11v0l-.73.9Z"/><path id="Path_5820" data-name="Path 5820" class="cls-4" d="M47.83,18.2A5.33,5.33,0,0,1,46.77,18l.73-.9C47.91,18,47.83,18.2,47.83,18.2Z"/><path id="Path_5821" data-name="Path 5821" class="cls-3" d="M44.07,19.57a3.21,3.21,0,0,1,1.27.1l-.72.89C44.4,20.15,44.07,19.57,44.07,19.57Z"/><path id="Path_5822" data-name="Path 5822" class="cls-4" d="M45.74,20.79a5.89,5.89,0,0,1-1.1-.19l0-.05.73-.89,0,0C45.82,20.53,45.74,20.79,45.74,20.79Z"/><path id="Path_5823" data-name="Path 5823" class="cls-3" d="M43.06,20.87a3.4,3.4,0,0,1,1.23.08l-.7.87C43.38,21.41,43.06,20.87,43.06,20.87Z"/><path id="Path_5824" data-name="Path 5824" class="cls-4" d="M44.73,22.08a5,5,0,0,1-1.09-.18l0-.09.7-.86.09,0C44.82,21.83,44.73,22.08,44.73,22.08Z"/><path id="Path_5825" data-name="Path 5825" class="cls-3" d="M42.16,22a3.3,3.3,0,0,1,1.25.09l-.71.88C42.48,22.51,42.16,22,42.16,22Z"/><path id="Path_5826" data-name="Path 5826" class="cls-4" d="M43.83,23.17a5.16,5.16,0,0,1-1.1-.18l0-.07.72-.88.07,0C43.91,22.92,43.83,23.17,43.83,23.17Z"/><path id="Path_5827" data-name="Path 5827" class="cls-3" d="M41.27,23a3.3,3.3,0,0,1,1.25.09l-.71.88C41.6,23.6,41.27,23,41.27,23Z"/><path id="Path_5828" data-name="Path 5828" class="cls-4" d="M42.94,24.26a5.64,5.64,0,0,1-1.09-.18l0-.08.71-.87.08,0C43,24,42.94,24.26,42.94,24.26Z"/><path id="Path_5829" data-name="Path 5829" class="cls-3" d="M40.38,24.19a3.34,3.34,0,0,1,1.22.08l-.7.85C40.69,24.72,40.38,24.19,40.38,24.19Z"/><path id="Path_5830" data-name="Path 5830" class="cls-4" d="M42.05,25.4a6.82,6.82,0,0,1-1.1-.18l-.05-.1.7-.86.11,0C42.13,25.15,42.05,25.4,42.05,25.4Z"/><path id="Path_5831" data-name="Path 5831" class="cls-3" d="M39.46,25.31a3.4,3.4,0,0,1,1.23.08l-.7.86Z"/><path id="Path_5832" data-name="Path 5832" class="cls-4" d="M41.13,26.53A5.77,5.77,0,0,1,40,26.35l0-.1.7-.86.11,0C41.22,26.27,41.13,26.53,41.13,26.53Z"/><path id="Path_5833" data-name="Path 5833" class="cls-3" d="M39,26.43c.09.22.19.44.3.67l.46-.57A2.84,2.84,0,0,0,39,26.43Z"/><path id="Path_5834" data-name="Path 5834" class="cls-4" d="M39.87,26.57l-.11,0-.46.57.21.47a3.28,3.28,0,0,0,.7.1S40.3,27.41,39.87,26.57Z"/><path id="Path_5835" data-name="Path 5835" class="cls-3" d="M4.33,17.14a3,3,0,0,0-1.3.11l.74.91C4,17.75,4.33,17.14,4.33,17.14Z"/><path id="Path_5836" data-name="Path 5836" class="cls-4" d="M2.66,18.36a6.82,6.82,0,0,0,1.1-.18v0L3,17.24H3C2.58,18.1,2.66,18.36,2.66,18.36Z"/><path id="Path_5837" data-name="Path 5837" class="cls-3" d="M4.74,19.31c.22-.41.58-1,.58-1A3,3,0,0,0,4,18.39v0l.73.9Z"/><path id="Path_5838" data-name="Path 5838" class="cls-4" d="M3.65,19.49a5.45,5.45,0,0,0,1.06-.17L4,18.42C3.57,19.23,3.65,19.49,3.65,19.49Z"/><path id="Path_5839" data-name="Path 5839" class="cls-3" d="M6.27,19.57a3.26,3.26,0,0,0-1.28.1l.72.89C5.93,20.15,6.27,19.57,6.27,19.57Z"/><path id="Path_5840" data-name="Path 5840" class="cls-4" d="M4.6,20.79a5.65,5.65,0,0,0,1.09-.19l0-.05L5,19.66l-.06,0C4.51,20.53,4.6,20.79,4.6,20.79Z"/><path id="Path_5841" data-name="Path 5841" class="cls-3" d="M7.27,20.87A3.4,3.4,0,0,0,6,21l.7.87C7,21.41,7.27,20.87,7.27,20.87Z"/><path id="Path_5842" data-name="Path 5842" class="cls-4" d="M5.6,22.08a5.16,5.16,0,0,0,1.1-.18l0-.09L6,21l-.1,0C5.52,21.83,5.6,22.08,5.6,22.08Z"/><path id="Path_5843" data-name="Path 5843" class="cls-3" d="M8.18,22A3.28,3.28,0,0,0,6.93,22l.71.88C7.86,22.51,8.18,22,8.18,22Z"/><path id="Path_5844" data-name="Path 5844" class="cls-4" d="M6.51,23.17A5,5,0,0,0,7.6,23l0-.07L6.93,22l-.08,0C6.42,22.92,6.51,23.17,6.51,23.17Z"/><path id="Path_5845" data-name="Path 5845" class="cls-3" d="M9.06,23a3.3,3.3,0,0,0-1.25.09l.71.88C8.74,23.6,9.06,23,9.06,23Z"/><path id="Path_5846" data-name="Path 5846" class="cls-4" d="M7.39,24.26a5.87,5.87,0,0,0,1.1-.18l0-.08-.71-.87-.08,0C7.3,24,7.39,24.26,7.39,24.26Z"/><path id="Path_5847" data-name="Path 5847" class="cls-3" d="M10,24.18a3.4,3.4,0,0,0-1.23.08l.7.86Z"/><path id="Path_5848" data-name="Path 5848" class="cls-4" d="M8.29,25.4a6.7,6.7,0,0,0,1.09-.18l0-.1-.7-.86-.1,0C8.2,25.15,8.29,25.4,8.29,25.4Z"/><path id="Path_5849" data-name="Path 5849" class="cls-3" d="M10.87,25.31a3.33,3.33,0,0,0-1.22.08l.7.86C10.56,25.85,10.87,25.31,10.87,25.31Z"/><path id="Path_5850" data-name="Path 5850" class="cls-4" d="M9.2,26.53a5.64,5.64,0,0,0,1.09-.18l.06-.1-.7-.86-.11,0C9.11,26.27,9.2,26.53,9.2,26.53Z"/><path id="Path_5851" data-name="Path 5851" class="cls-3" d="M11.34,26.43l-.3.67-.47-.57A2.86,2.86,0,0,1,11.34,26.43Z"/><path id="Path_5852" data-name="Path 5852" class="cls-4" d="M10.46,26.57l.11,0,.47.57-.21.47a3.38,3.38,0,0,1-.7.1S10,27.41,10.46,26.57Z"/><path id="Path_5853" data-name="Path 5853" class="cls-4" d="M25.17,17.57a1.28,1.28,0,0,1,1.22,1.07c0-.1,0-.2,0-.3A1.27,1.27,0,0,0,25.32,17a1.25,1.25,0,0,0-1.39,1.11.66.66,0,0,0,0,.28,1.53,1.53,0,0,0,0,.3A1.28,1.28,0,0,1,25.17,17.57Z"/><path id="Path_5854" data-name="Path 5854" class="cls-4" d="M25.93,20.24a1.14,1.14,0,0,1-.75.36h0a1.14,1.14,0,0,1-.75-.36,1.84,1.84,0,0,0,.72,1.08h.06A1.84,1.84,0,0,0,25.93,20.24Z"/><path id="Path_5855" data-name="Path 5855" class="cls-1" d="M29.94,22.24a1.08,1.08,0,0,0,.61-.41,1,1,0,0,1-.71,0,3.58,3.58,0,0,0,2-1.72,13.53,13.53,0,0,1-5.2,1.23,1.52,1.52,0,1,1-3,.1v-.1a13.53,13.53,0,0,1-5.2-1.23,3.58,3.58,0,0,0,2,1.72,1,1,0,0,1-.72,0,1.14,1.14,0,0,0,.62.41A6.68,6.68,0,0,1,17.66,21a3.15,3.15,0,0,0,2.58,1.92,27,27,0,0,0,4.83.49h.17a27,27,0,0,0,4.83-.49A3.18,3.18,0,0,0,32.66,21,6.68,6.68,0,0,1,29.94,22.24Z"/><path id="Path_5856" data-name="Path 5856" class="cls-1" d="M12.49,19.61a3.58,3.58,0,0,0-.61,2.13A23.22,23.22,0,0,1,14.61,24a6.61,6.61,0,0,1,1.3,2.1,11.82,11.82,0,0,0-1.64-4Z"/><path id="Path_5857" data-name="Path 5857" class="cls-1" d="M13.89,26a6.77,6.77,0,0,0-.72,1.6,18.49,18.49,0,0,0,4.54,4A6.68,6.68,0,0,1,16.61,30,12.71,12.71,0,0,0,13.89,26Z"/><path id="Path_5858" data-name="Path 5858" class="cls-1" d="M12.4,29.42s-1.11,2.23-1,2.65,3,2.68,6.2,3.61a9.74,9.74,0,0,1-2-2.22C15.1,32.47,13.75,30.1,12.4,29.42Z"/><path id="Path_5859" data-name="Path 5859" class="cls-1" d="M36.44,26a6.39,6.39,0,0,1,.72,1.6,18.44,18.44,0,0,1-4.53,4A6.38,6.38,0,0,0,33.72,30,13.06,13.06,0,0,1,36.44,26Z"/><path id="Path_5860" data-name="Path 5860" class="cls-1" d="M37.94,29.42s1.11,2.23,1,2.65-3,2.68-6.2,3.61a9.74,9.74,0,0,0,2-2.22C35.24,32.47,36.58,30.1,37.94,29.42Z"/><path id="Path_5861" data-name="Path 5861" class="cls-3" d="M12.49,19.61a3.58,3.58,0,0,0-.61,2.13l.6.43A3.7,3.7,0,0,1,12.49,19.61Z"/><path id="Path_5862" data-name="Path 5862" class="cls-2" d="M14.27,22l-.4-.53a2.91,2.91,0,0,1-.15,1.65c.31.26.6.53.88.81a7.06,7.06,0,0,1,1.31,2.1A12.11,12.11,0,0,0,14.27,22Z"/><path id="Path_5863" data-name="Path 5863" class="cls-3" d="M13.89,26a6.77,6.77,0,0,0-.72,1.6,2.82,2.82,0,0,0,.43.55A7.44,7.44,0,0,1,13.89,26Z"/><path id="Path_5864" data-name="Path 5864" class="cls-2" d="M16.61,30a16.13,16.13,0,0,0-1.13-2,4.77,4.77,0,0,1-.14,1.95,14.56,14.56,0,0,0,2.37,1.76A6.68,6.68,0,0,1,16.61,30Z"/><path id="Path_5865" data-name="Path 5865" class="cls-3" d="M12.4,29.42s-1.11,2.23-1,2.65a2.32,2.32,0,0,0,.57.6A8.52,8.52,0,0,1,12.4,29.42Z"/><path id="Path_5866" data-name="Path 5866" class="cls-2" d="M15.61,33.46c-.2-.39-.53-1-.93-1.61a7.94,7.94,0,0,1-.21,2.48,15.19,15.19,0,0,0,3.16,1.35A9.7,9.7,0,0,1,15.61,33.46Z"/><path id="Path_5868" data-name="Path 5868" class="cls-5" d="M13.36,21.68c0,.08,0,.18-.18.23s-.25,0-.27-.07.05-.19.18-.23S13.33,21.59,13.36,21.68Z"/><path id="Path_5869" data-name="Path 5869" class="cls-2" d="M13.5,21.56l.05.1a.41.41,0,0,1-.37.43.54.54,0,0,1-.28,0,.47.47,0,0,0,.46.15.39.39,0,0,0,.36-.42A.33.33,0,0,0,13.5,21.56Z"/><path id="Path_5870" data-name="Path 5870" class="cls-3" d="M25.17,17a1.21,1.21,0,0,0-.93.47,1.25,1.25,0,0,0,.53.22,1.13,1.13,0,0,1,.81,0,1.34,1.34,0,0,0,.54-.22A1.25,1.25,0,0,0,25.17,17Z"/><path id="Path_5873" data-name="Path 5873" class="cls-2" d="M22,22.66A5,5,0,0,1,20.37,22a6.92,6.92,0,0,0,1.36-.16c-2.09-.34-2.59-1.46-2.59-1.46h0c-.22-.09-.45-.18-.69-.3a3.56,3.56,0,0,0,2,1.73,1,1,0,0,1-.71,0,1.11,1.11,0,0,0,.61.41A6.57,6.57,0,0,1,17.67,21,4.89,4.89,0,0,0,22,22.66Z"/><path id="Path_5874" data-name="Path 5874" class="cls-3" d="M36.44,26a6.77,6.77,0,0,1,.72,1.6,2.77,2.77,0,0,1-.42.55A7.81,7.81,0,0,0,36.44,26Z"/><path id="Path_5875" data-name="Path 5875" class="cls-2" d="M33.72,30a16.2,16.2,0,0,1,1.14-2A4.76,4.76,0,0,0,35,29.89a14.48,14.48,0,0,1-2.36,1.76A6.38,6.38,0,0,0,33.72,30Z"/><path id="Path_5876" data-name="Path 5876" class="cls-3" d="M37.94,29.42s1.11,2.23,1,2.65a2.5,2.5,0,0,1-.57.6A8.72,8.72,0,0,0,37.94,29.42Z"/><path id="Path_5877" data-name="Path 5877" class="cls-2" d="M34.73,33.46a18.36,18.36,0,0,1,.93-1.61,7.39,7.39,0,0,0,.21,2.48,15.27,15.27,0,0,1-3.17,1.35A9.74,9.74,0,0,0,34.73,33.46Z"/><g id="Group_2170" data-name="Group 2170"><path id="Path_5879" data-name="Path 5879" class="cls-1" d="M38,19.52a3.68,3.68,0,0,1,.63,2.18A24.65,24.65,0,0,0,35.81,24a7.23,7.23,0,0,0-1.34,2.16A12.53,12.53,0,0,1,36.15,22Z"/><path id="Path_5880" data-name="Path 5880" class="cls-3" d="M38,19.52a3.67,3.67,0,0,1,.62,2.18l-.61.45A3.78,3.78,0,0,0,38,19.52Z"/><path id="Path_5881" data-name="Path 5881" class="cls-2" d="M36.15,22l.41-.55a3,3,0,0,0,.15,1.7,10.17,10.17,0,0,0-.9.83,7,7,0,0,0-1.34,2.16A12.25,12.25,0,0,1,36.15,22Z"/><path id="Path_5882" data-name="Path 5882" class="cls-5" d="M37.09,21.65c0,.08,0,.19.18.24s.25,0,.28-.07,0-.19-.18-.24S37.11,21.56,37.09,21.65Z"/><path id="Path_5883" data-name="Path 5883" class="cls-2" d="M36.94,21.53a.21.21,0,0,0,0,.11.4.4,0,0,0,.37.43.57.57,0,0,0,.29,0,.47.47,0,0,1-.47.16.41.41,0,0,1-.37-.44A.33.33,0,0,1,36.94,21.53Z"/></g><path id="Path_5884" data-name="Path 5884" class="cls-2" d="M28.34,22.66A5.13,5.13,0,0,0,30,22a6.83,6.83,0,0,1-1.36-.16c2.08-.34,2.58-1.46,2.58-1.46h0a6.86,6.86,0,0,0,.69-.3,3.56,3.56,0,0,1-2,1.73,1,1,0,0,0,.72,0,1.14,1.14,0,0,1-.62.41A6.66,6.66,0,0,0,32.67,21,4.92,4.92,0,0,1,28.34,22.66Z"/><path id="Path_5886" data-name="Path 5886" class="cls-1" d="M31.14,26.07c-.57.18-1.64,1.73-1.87,1.79a18.65,18.65,0,0,1-2.24.21c-.28,0-1.45-1.44-1.86-1.44S23.59,28,23.3,28.07a18.65,18.65,0,0,1-2.24-.21c-.22-.06-1.3-1.61-1.86-1.79a.91.91,0,0,0-1,.17s1.84,4.67,2.07,5.36.42.76.95,1.28a14.17,14.17,0,0,0,2.67,2.46,3.76,3.76,0,0,0,2.52,0,14.17,14.17,0,0,0,2.67-2.46,2.55,2.55,0,0,0,.95-1.28c.23-.69,2.07-5.36,2.07-5.36A.91.91,0,0,0,31.14,26.07Z"/><path id="Path_5887" data-name="Path 5887" class="cls-3" d="M27.17,26.69a3.1,3.1,0,0,1,2.61-1.35s-.43.92-.67,1S27.63,26.39,27.17,26.69Z"/><path id="Path_5888" data-name="Path 5888" class="cls-1" d="M19.2,26.07c.56.18,1.63,1.73,1.86,1.79a18.65,18.65,0,0,0,2.24.21c.29,0,1.45-1.44,1.87-1.44S26.75,28,27,28.07a18.65,18.65,0,0,0,2.24-.21c.23-.06,1.3-1.61,1.87-1.79a.89.89,0,0,1,1,.17S30.28,30.91,30,31.6s-.41.76-.94,1.28a14.48,14.48,0,0,1-2.67,2.46,3.79,3.79,0,0,1-2.53,0,14.48,14.48,0,0,1-2.67-2.46,2.48,2.48,0,0,1-.94-1.28c-.24-.69-2.07-5.36-2.07-5.36A.91.91,0,0,1,19.2,26.07Z"/><path id="Path_5889" data-name="Path 5889" class="cls-3" d="M23.16,26.69a3.07,3.07,0,0,0-2.61-1.35s.43.92.67,1S22.7,26.39,23.16,26.69Z"/><path id="Path_5890" data-name="Path 5890" class="cls-2" d="M25.17,34.43h0a3.16,3.16,0,0,1,1.46.76c-.47-2-1.46-5.51-1.46-6,0,.53-1,4-1.47,6A3.2,3.2,0,0,1,25.17,34.43Z"/><path id="Path_5891" data-name="Path 5891" class="cls-1" d="M25.17,34.43a3.2,3.2,0,0,0-1.47.76v.05l.22.11a3.88,3.88,0,0,0,2.52,0l.22-.11,0-.05A3.11,3.11,0,0,0,25.17,34.43Z"/><path id="Path_5895" data-name="Path 5895" class="cls-1" d="M29.84,31a5,5,0,0,0,.27-1.52c0,.22-.05.45-.07.66A2.91,2.91,0,0,1,29.84,31Z"/><path id="Path_5896" data-name="Path 5896" class="cls-1" d="M30.19,28.77a.56.56,0,0,0,0,.07A.17.17,0,0,1,30.19,28.77Z"/><path id="Path_5897" data-name="Path 5897" class="cls-1" d="M30.17,28.84h0c0,.05,0,.1,0,.16S30.17,28.89,30.17,28.84Z"/><path id="Path_5898" data-name="Path 5898" class="cls-1" d="M30.16,29l0,.16A.78.78,0,0,1,30.16,29Z"/><path id="Path_5899" data-name="Path 5899" class="cls-2" d="M27.45,32.89c-.06.29,0,.58.32.53A12.93,12.93,0,0,0,29.84,31a2.9,2.9,0,0,0,.2-.87c0-.2.05-.43.07-.66l0-.15h0c0-.06,0-.11,0-.16h0c0-.05,0-.11,0-.16h0c0-.05,0-.1,0-.16a.17.17,0,0,1,0-.07.72.72,0,0,1-.29.58,10.92,10.92,0,0,1-1.81.82c-.05,0-.1-.05-.14-.16h0A16.53,16.53,0,0,1,27.45,32.89Z"/><path id="Path_5900" data-name="Path 5900" class="cls-2" d="M22.89,32.89c.06.29,0,.58-.33.53A13.31,13.31,0,0,1,20.49,31a2.9,2.9,0,0,1-.2-.87c0-.2,0-.43-.06-.66l0-.15h0l0-.16h0c0-.05,0-.11,0-.16h0a.78.78,0,0,1,0-.16s0-.05,0-.07a.71.71,0,0,0,.29.58,10.82,10.82,0,0,0,1.8.82c.06,0,.1-.05.14-.16h0A15.66,15.66,0,0,0,22.89,32.89Z"/><path id="Path_5901" data-name="Path 5901" class="cls-1" d="M30.12,29.32v.15S30.12,29.37,30.12,29.32Z"/><path id="Path_5902" data-name="Path 5902" class="cls-1" d="M30.13,29.16v.16A.86.86,0,0,0,30.13,29.16Z"/><path id="Path_5903" data-name="Path 5903" class="cls-2" d="M25.44,25.79a.49.49,0,0,1,.44,0,.9.9,0,0,0-.45-.41s0-.07.29-.16a5.24,5.24,0,0,1-.18-1H24.8a5.24,5.24,0,0,1-.18,1c.27.09.28.16.28.16a.88.88,0,0,0-.44.41.47.47,0,0,1,.43,0,1.26,1.26,0,0,0-.69.79,1.4,1.4,0,0,1,1.94,0A1.22,1.22,0,0,0,25.44,25.79Z"/><path id="Path_5904" data-name="Path 5904" class="cls-1" d="M24.15,31.36a.25.25,0,0,1,0-.15.64.64,0,0,1,.1-.13,1.12,1.12,0,0,1,.28-.16,1.74,1.74,0,0,1,1.23,0,1,1,0,0,1,.28.16.64.64,0,0,1,.1.13.25.25,0,0,1,0,.15.24.24,0,0,0-.07-.13L26,31.15a1.08,1.08,0,0,0-.27-.1,2.74,2.74,0,0,0-1.14,0,1.48,1.48,0,0,0-.27.1.31.31,0,0,0-.11.09A.23.23,0,0,0,24.15,31.36Z"/><path id="Path_5905" data-name="Path 5905" class="cls-1" d="M23.83,32.7a.34.34,0,0,1,0-.2l.06-.1a.08.08,0,0,0,0,0l0,0a1.34,1.34,0,0,1,.36-.22,3,3,0,0,1,.4-.11l.41,0a2.12,2.12,0,0,1,.82.14,1.34,1.34,0,0,1,.36.22l0,0a.08.08,0,0,0,0,0l.06.1a.34.34,0,0,1,0,.2.28.28,0,0,0-.09-.17.58.58,0,0,0-.15-.11,1.48,1.48,0,0,0-.35-.13,2.38,2.38,0,0,0-.37-.06l-.38,0-.38,0a2.5,2.5,0,0,0-.38.06,1.48,1.48,0,0,0-.35.13l-.15.11A.28.28,0,0,0,23.83,32.7Z"/><path id="Path_5906" data-name="Path 5906" class="cls-1" d="M23.39,34.42a.8.8,0,0,1,.14-.58,1.42,1.42,0,0,1,.46-.42,2.44,2.44,0,0,1,2.37,0,1.39,1.39,0,0,1,.45.42.86.86,0,0,1,.15.58,1.06,1.06,0,0,0-.26-.49,2,2,0,0,0-.45-.3,2.83,2.83,0,0,0-2.14,0,1.83,1.83,0,0,0-.46.3A1,1,0,0,0,23.39,34.42Z"/><path id="Path_5907" data-name="Path 5907" class="cls-5" d="M25.82,27l0,0Z"/><path id="Path_5908" data-name="Path 5908" class="cls-5" d="M22,28h0Z"/><path id="Path_5909" data-name="Path 5909" class="cls-5" d="M25.92,27.12l0,0Z"/><path id="Path_5911" data-name="Path 5911" class="cls-5" d="M25.74,27l0,0Z"/><path id="Path_5912" data-name="Path 5912" class="cls-5" d="M22.1,28h0Z"/><path id="Path_5913" data-name="Path 5913" class="cls-5" d="M25.49,26.77l0,0Z"/><path id="Path_5914" data-name="Path 5914" class="cls-5" d="M22.29,28h0Z"/><path id="Path_5915" data-name="Path 5915" class="cls-5" d="M25.57,26.83l0,0Z"/><path id="Path_5916" data-name="Path 5916" class="cls-5" d="M25.66,26.9l0,0Z"/><path id="Path_5917" data-name="Path 5917" class="cls-5" d="M22.2,28h0Z"/><path id="Path_5918" data-name="Path 5918" class="cls-5" d="M26.59,27.75l.05,0Z"/><path id="Path_5919" data-name="Path 5919" class="cls-5" d="M21.83,28h0Z"/><path id="Path_5920" data-name="Path 5920" class="cls-5" d="M26.64,27.79l.22.19Z"/><path id="Path_5923" data-name="Path 5923" class="cls-5" d="M21.72,28h0Z"/><path id="Path_5924" data-name="Path 5924" class="cls-5" d="M21.91,28h0Z"/><path id="Path_5925" data-name="Path 5925" class="cls-5" d="M26.48,27.64l0,0Z"/><path id="Path_5926" data-name="Path 5926" class="cls-5" d="M26.17,27.36l.3.28Z"/><path id="Path_5927" data-name="Path 5927" class="cls-5" d="M26.1,27.29l0,0Z"/><path id="Path_5928" data-name="Path 5928" class="cls-5" d="M26.54,27.7l0,0Z"/><path id="Path_5929" data-name="Path 5929" class="cls-5" d="M25.42,26.73h0Z"/><path id="Path_5930" data-name="Path 5930" class="cls-5" d="M26,27.21l0,0Z"/><path id="Path_5931" data-name="Path 5931" class="cls-5" d="M24.67,26.9l.08-.06Z"/><path id="Path_5932" data-name="Path 5932" class="cls-5" d="M24.59,27l.06,0Z"/><path id="Path_5933" data-name="Path 5933" class="cls-5" d="M23.74,27.75h0Z"/><path id="Path_5935" data-name="Path 5935" class="cls-5" d="M24.77,26.83l.05,0Z"/><path id="Path_5936" data-name="Path 5936" class="cls-5" d="M24.51,27l0,0Z"/><path id="Path_5937" data-name="Path 5937" class="cls-5" d="M24.32,27.21l.07-.06Z"/><path id="Path_5938" data-name="Path 5938" class="cls-5" d="M24.85,26.77l0,0Z"/><path id="Path_5939" data-name="Path 5939" class="cls-5" d="M24.24,27.29l0,0Z"/><path id="Path_5940" data-name="Path 5940" class="cls-5" d="M22.39,28h0Z"/><path id="Path_5941" data-name="Path 5941" class="cls-5" d="M23.8,27.7v0Z"/><path id="Path_5942" data-name="Path 5942" class="cls-5" d="M24.42,27.12l.06-.05Z"/><path id="Path_5944" data-name="Path 5944" class="cls-5" d="M22.48,28h0Z"/><path id="Path_5945" data-name="Path 5945" class="cls-5" d="M25.12,26.64h0Z"/><path id="Path_5946" data-name="Path 5946" class="cls-5" d="M25.27,26.65h0Z"/><path id="Path_5947" data-name="Path 5947" class="cls-5" d="M25.34,26.69h0Z"/><path id="Path_5948" data-name="Path 5948" class="cls-5" d="M25.06,26.65h0Z"/><path id="Path_5949" data-name="Path 5949" class="cls-5" d="M25,26.68l0,0Z"/><path id="Path_5951" data-name="Path 5951" class="cls-5" d="M24.92,26.73l.06,0Z"/><path id="Path_5952" data-name="Path 5952" class="cls-5" d="M22.57,28h0Z"/><path id="Path_5953" data-name="Path 5953" class="cls-5" d="M21.41,27.92h0Z"/><path id="Path_5954" data-name="Path 5954" class="cls-5" d="M21.22,27.89h0Z"/><path id="Path_5958" data-name="Path 5958" class="cls-5" d="M21.17,27.88h0Z"/><path id="Path_5960" data-name="Path 5960" class="cls-5" d="M21.34,27.91h0Z"/><path id="Path_5963" data-name="Path 5963" class="cls-5" d="M21.28,27.9h0Z"/><path id="Path_5965" data-name="Path 5965" class="cls-5" d="M21.06,27.86h0Z"/><path id="Path_5966" data-name="Path 5966" class="cls-5" d="M29.64,27.51a1.33,1.33,0,0,1-.36.35h0A1.33,1.33,0,0,0,29.64,27.51Z"/><path id="Path_5968" data-name="Path 5968" class="cls-5" d="M29.69,27.45l.23-.26Z"/><path id="Path_5970" data-name="Path 5970" class="cls-5" d="M21.12,27.87h0Z"/><path id="Path_5973" data-name="Path 5973" class="cls-5" d="M21.09,27.86h0Z"/><path id="Path_5975" data-name="Path 5975" class="cls-5" d="M21.48,27.92h0Z"/><path id="Path_5980" data-name="Path 5980" class="cls-5" d="M21.56,27.93h0Z"/><path id="Path_5981" data-name="Path 5981" class="cls-5" d="M21.65,28h0Z"/><path id="Path_5985" data-name="Path 5985" class="cls-5" d="M24.16,27.36l0,0Z"/><path id="Path_5990" data-name="Path 5990" class="cls-5" d="M23.7,27.79l0,0Z"/><path id="Path_5993" data-name="Path 5993" class="cls-5" d="M23.81,27.68l.05,0Z"/><path id="Path_5995" data-name="Path 5995" class="cls-5" d="M20.41,27.19l.23.27Z"/><path id="Path_5996" data-name="Path 5996" class="cls-5" d="M20.29,27.05l.12.14Z"/><path id="Path_5997" data-name="Path 5997" class="cls-5" d="M23.76,27.74l0,0Z"/><path id="Path_6004" data-name="Path 6004" class="cls-5" d="M23.47,28l.23-.19Z"/><path id="Path_6015" data-name="Path 6015" class="cls-5" d="M23.86,27.64l.3-.28Z"/><path id="Path_6016" data-name="Path 6016" class="cls-5" d="M28.16,28h0Z"/><path id="Path_6018" data-name="Path 6018" class="cls-5" d="M28.45,28h0Z"/><path id="Path_6019" data-name="Path 6019" class="cls-5" d="M28.35,28h0Z"/><path id="Path_6020" data-name="Path 6020" class="cls-5" d="M28.62,28h0Z"/><path id="Path_6021" data-name="Path 6021" class="cls-5" d="M28.54,28h0Z"/><path id="Path_6022" data-name="Path 6022" class="cls-5" d="M27.79,28h0Z"/><path id="Path_6023" data-name="Path 6023" class="cls-5" d="M28.71,27.94h0Z"/><path id="Path_6024" data-name="Path 6024" class="cls-5" d="M27.71,28h0Z"/><path id="Path_6026" data-name="Path 6026" class="cls-5" d="M28.08,28h0Z"/><path id="Path_6027" data-name="Path 6027" class="cls-5" d="M27.89,28h0Z"/><path id="Path_6028" data-name="Path 6028" class="cls-5" d="M28,28h0Z"/><path id="Path_6029" data-name="Path 6029" class="cls-5" d="M28.27,28h0Z"/><path id="Path_6030" data-name="Path 6030" class="cls-5" d="M29.18,27.88h0Z"/><path id="Path_6031" data-name="Path 6031" class="cls-5" d="M29.22,27.88h0Z"/><path id="Path_6032" data-name="Path 6032" class="cls-5" d="M29.25,27.87h0Z"/><path id="Path_6033" data-name="Path 6033" class="cls-5" d="M21.06,27.86h0a1.33,1.33,0,0,1-.36-.35A1.33,1.33,0,0,0,21.06,27.86Z"/><path id="Path_6035" data-name="Path 6035" class="cls-5" d="M29.07,27.89h0Z"/><path id="Path_6036" data-name="Path 6036" class="cls-5" d="M28.94,27.91h0Z"/><path id="Path_6037" data-name="Path 6037" class="cls-5" d="M29.13,27.89h0Z"/><path id="Path_6038" data-name="Path 6038" class="cls-5" d="M28.87,27.92h0Z"/><path id="Path_6039" data-name="Path 6039" class="cls-5" d="M29,27.9h0Z"/><path id="Path_6040" data-name="Path 6040" class="cls-5" d="M28.78,27.93h0Z"/><path id="Path_6041" data-name="Path 6041" class="cls-5" d="M24.82,26.79l0,0Z"/><path id="Path_6042" data-name="Path 6042" class="cls-5" d="M25,26.69h0Z"/><path id="Path_6043" data-name="Path 6043" class="cls-5" d="M24.19,27.33l0,0Z"/><path id="Path_6044" data-name="Path 6044" class="cls-5" d="M24.9,26.74h0Z"/><path id="Path_6045" data-name="Path 6045" class="cls-5" d="M25,26.66h0Z"/><path id="Path_6046" data-name="Path 6046" class="cls-5" d="M25.17,26.63h0Z"/><path id="Path_6048" data-name="Path 6048" class="cls-5" d="M25.23,26.64h0Z"/><path id="Path_6049" data-name="Path 6049" class="cls-5" d="M24.39,27.15l0,0Z"/><path id="Path_6050" data-name="Path 6050" class="cls-5" d="M24.28,27.25l0,0Z"/><path id="Path_6051" data-name="Path 6051" class="cls-5" d="M24.48,27.06l0,0Z"/><path id="Path_6052" data-name="Path 6052" class="cls-5" d="M24.65,26.92l0,0Z"/><path id="Path_6053" data-name="Path 6053" class="cls-5" d="M24.56,27l0,0Z"/><path id="Path_6054" data-name="Path 6054" class="cls-5" d="M24.75,26.85l0,0Z"/><path id="Path_6055" data-name="Path 6055" class="cls-5" d="M26.58,27.74h0Z"/><path id="Path_6056" data-name="Path 6056" class="cls-5" d="M25.77,27l.06.05Z"/><path id="Path_6057" data-name="Path 6057" class="cls-5" d="M26,27.15l.07.06Z"/><path id="Path_6058" data-name="Path 6058" class="cls-5" d="M25.85,27.07l.07.05Z"/><path id="Path_6059" data-name="Path 6059" class="cls-5" d="M26.05,27.24l.05.05Z"/><path id="Path_6060" data-name="Path 6060" class="cls-5" d="M26.14,27.33l0,0Z"/><path id="Path_6061" data-name="Path 6061" class="cls-5" d="M25.29,26.66l.05,0Z"/><path id="Path_6062" data-name="Path 6062" class="cls-5" d="M26.52,27.69h0Z"/><path id="Path_6063" data-name="Path 6063" class="cls-5" d="M25.68,26.92l.06,0Z"/><path id="Path_6064" data-name="Path 6064" class="cls-5" d="M25.35,26.69l.07,0Z"/><path id="Path_6065" data-name="Path 6065" class="cls-5" d="M25.44,26.74l0,0Z"/><path id="Path_6066" data-name="Path 6066" class="cls-5" d="M25.59,26.84l.07.06Z"/><path id="Path_6067" data-name="Path 6067" class="cls-5" d="M25.51,26.79l.06,0Z"/><path id="Path_6068" data-name="Path 6068" class="cls-1" d="M29,31.4l.26-.75.75-.49v0s0-.08,0-.12l-.72.5L29.5,30l.57-.25,0-.13-.55.26.15-.44-.14.08-.14.42-.58.29L29,29.8l-.13.07-.15.43-.81.4v0l.79-.35-.27.78-.7.49v0l.69-.45-.33,1-.58.47v0l.57-.44-.4,1.19h0l.46-1.24.78-.6-.33,1.07,0,0L29,31.53l.94-.73a1.36,1.36,0,0,1,0-.17Zm-.22-1.08.58-.25-.17.53-.69.48Zm.14,1.14-.8.65.35-1,.68-.44Z"/><path id="Path_6069" data-name="Path 6069" class="cls-1" d="M20.38,30.63a.8.8,0,0,0,0,.18l.94.72.38,1.09,0,0-.34-1.07.78.6.46,1.24h0l-.4-1.18.56.43v0l-.58-.48-.32-1,.68.44v0l-.7-.48-.27-.78.79.34v0l-.81-.4-.14-.42-.14-.07.16.43L20.93,30l-.13-.42-.15-.08.15.44-.54-.27v.14l.57.25.18.51L20.3,30s0,.07,0,.11v0l.75.48.27.75Zm1.43.45-.69-.48L21,30.07l.57.25Zm-.66-.37.68.44.36,1-.8-.66Z"/><path id="Path_6070" data-name="Path 6070" class="cls-5" d="M29.92,27.19l-.23.26-.05.06a1.5,1.5,0,0,1-.36.35H27.61a.32.32,0,0,0-.33.31.15.15,0,0,0,0,.07,1.76,1.76,0,0,0-.41-.45h0l-.23-.18h0l0,0h0l0,0v0l-.05,0h0l-.3-.28,0,0,0,0-.05,0,0,0L26,27.1l0,0L25.87,27l0,0-.05,0,0,0-.06-.05h0l-.07-.06,0,0,0,0h0l-.06,0h0l-.07,0h0l-.05,0h0l0,0h-.13l0,0h0l0,0h0l-.06,0h0l-.05,0h0l-.05,0,0,0-.08.06h0l-.06.05,0,0,0,0,0,0-.07.06,0,0-.07.06,0,0,0,0-.05,0,0,0-.3.28h0l0,0,0,0,0,0h0l-.05,0h0l-.22.18h0a1.46,1.46,0,0,0-.41.45.32.32,0,0,0-.26-.37H21.08a1.54,1.54,0,0,1-.37-.35l-.05-.06-.23-.26-.12-.14a5.28,5.28,0,0,0-.93-.9,5.71,5.71,0,0,1,.78,2.58s0,0,0,0a.73.73,0,0,0,.29.58,10.82,10.82,0,0,0,1.8.82c.15,0,.2-.45.37-.73a4.44,4.44,0,0,1,1.53-.82c.31-.12,1,0,1,.53,0-.54.72-.65,1-.53a4.44,4.44,0,0,1,1.53.82c.16.29.22.76.37.73a11.2,11.2,0,0,0,1.8-.82c.22-.12.25-.37.29-.58v0A5.85,5.85,0,0,1,31,26.15,5.86,5.86,0,0,0,29.92,27.19Z"/><g id="Group_3400-2" data-name="Group 3400-2"><path id="Path_7873" data-name="Path 7873" class="cls-1" d="M13.11,35.14h0c-1.1-1-2.2-1.82-2.21-1.83A8.49,8.49,0,0,0,11,36.1c.45.36.91.71,1.39,1l1-.24A7.5,7.5,0,0,0,13.11,35.14Z"/><path id="Path_7874" data-name="Path 7874" class="cls-1" d="M10.9,33.3h0a8.39,8.39,0,0,0-.55,2.26h0A8.39,8.39,0,0,1,10.9,33.3Z"/><path id="Path_7875" data-name="Path 7875" class="cls-2" d="M14.45,36.46l-.11-.12-.05-.05-.09-.1-.06-.06-.09-.1L14,36l-.11-.11,0,0-.15-.15-.06,0-.1-.1-.07-.06-.09-.09-.08-.07-.09-.08-.07-.07h0a8,8,0,0,1,.26,1.76l1.22-.26-.12-.14Z"/><path id="Path_7876" data-name="Path 7876" class="cls-2" d="M13.38,36.9h0a8,8,0,0,0-.26-1.76h0A8,8,0,0,1,13.38,36.9Z"/><path id="Path_7878" data-name="Path 7878" class="cls-3" d="M10.9,33.3h0a8.39,8.39,0,0,0-.55,2.26h0l.64.54A8.5,8.5,0,0,1,10.9,33.3Z"/><path id="Path_7879" data-name="Path 7879" class="cls-1" d="M37,37l.84.23c.53-.36,1.05-.74,1.56-1.15a8.64,8.64,0,0,0,.09-2.78h0s-1.11.82-2.22,1.83h0A7.41,7.41,0,0,0,37,37Z"/><path id="Path_7880" data-name="Path 7880" class="cls-2" d="M37.21,35.14h0l-.08.06L37,35.3l-.07.06-.1.09-.07.07-.1.09-.06,0-.15.15,0,0-.11.11-.06.06-.09.1-.06.06-.09.1,0,.05-.11.12,0,0-.13.15,0,0h0c.42.1.84.2,1.26.32A7.88,7.88,0,0,1,37.21,35.14Z"/><path id="Path_7881" data-name="Path 7881" class="cls-2" d="M37,37a7.41,7.41,0,0,1,.27-1.87h0A8.35,8.35,0,0,0,37,37Z"/><path id="Path_7882" data-name="Path 7882" class="cls-3" d="M39.35,36.09c.22-.17.43-.35.64-.53a8.71,8.71,0,0,0-.55-2.25A8.64,8.64,0,0,1,39.35,36.09Z"/></g><g id="Group_3401" data-name="Group 3401"><path id="Path_7883" data-name="Path 7883" class="cls-3" d="M18.84,51.52a.84.84,0,0,0,.31-.25l.08-.11.13.06a.75.75,0,0,0,.55.09l.62-.11.16,0h.22l.63-.09a.78.78,0,0,0,.36-.13l.07-.05.08,0a.81.81,0,0,0,.31.06h.07l.63,0,.1,0h.12l.71,0a.88.88,0,0,0,.36-.1l.07,0,.07,0a.76.76,0,0,0,.36.08c.19,0,.4,0,.63,0h.23l.71,0h0a.81.81,0,0,0,.31-.06l.08,0,.07,0a1,1,0,0,0,.35.12l.64.07H28a.83.83,0,0,0,.48-.15l.1-.08.1.09a1.93,1.93,0,0,0,.83.4h0l.1,0a1.43,1.43,0,0,0,.29,0l.24,0a2.06,2.06,0,0,0,.35-.12l.14-.07.07.14a.88.88,0,0,0,.52.4l.61.16.23.07.68.21a.83.83,0,0,0,.78-1.43l0,0,0,0v0l-.13-.23,0,0V50.3a1.37,1.37,0,0,0,0-.57l-.14-.61a2.11,2.11,0,0,0-.19-.47,2,2,0,0,0-.63-.64l.17-.28a1.72,1.72,0,0,0,.45.16c.74.11,1.5.25,2.24.4A.83.83,0,0,0,36.1,48l.12-.16.13.14a4.26,4.26,0,0,0,.74.59,3.79,3.79,0,0,0,1.09.47h0l.4.1a3.41,3.41,0,0,0,.85.11h.28a2.71,2.71,0,0,0,1-.33,2.24,2.24,0,0,0,.76-.77A2.18,2.18,0,0,0,41.79,47V45.4l.09,0a.81.81,0,0,0,.37-1.1.6.6,0,0,0-.16-.22c-.07-.08-.14-.15-.21-.24l-.09-.15v0l0-1.78a2.73,2.73,0,0,0-.24-1.13,3.94,3.94,0,0,0-.59-1,4.2,4.2,0,0,0-.86-.77,3.38,3.38,0,0,0-.41-.24l3.41-2.12L43,36.4a58.15,58.15,0,0,0-2.39-6.91l9.75-11.88-.52-.67a6.77,6.77,0,0,0-1.05-1.09A6.37,6.37,0,0,0,47,14.78l-.73-.26-6,7.51a3.08,3.08,0,0,0,.13-.91,6.49,6.49,0,0,0-1-3.08A11.53,11.53,0,0,0,38.74,17c-.33-.46-.36-.51-.52-.51h-.09l-.08.05A6.59,6.59,0,0,0,36.84,18l-.07.1-.22.32-.1.15,0,0v0h0l0,0v0l-.07-.06a1.13,1.13,0,0,1-.1-.13l0,0,0,0,0,0-.06-.06,0,0L36,18c-.17-.23-.32-.43-.48-.63s-.42-.51-.64-.76l0,0-.14-.15,0,0-.14-.16h0L34.32,16a29,29,0,0,0,2.83-5.58l.06-.17a.36.36,0,0,0,0-.09,2.56,2.56,0,0,1,.11-.24h0c.09-.14.15-.15.22-.15a.45.45,0,0,1,.16,0l.1,0a4.4,4.4,0,0,1,1.45,1.26l.29.39.2-.45a5.28,5.28,0,0,0,.37-1.43V9s0-.09,0-.13V8.76s0,0,0-.06V8.51l0-.11V8.31a.06.06,0,0,0,0,0V8.16L40,8A3.18,3.18,0,0,0,40,7.69a1.71,1.71,0,0,0-.09-.3l-.06-.17a.41.41,0,0,0,0-.08.94.94,0,0,1,0-.09l0-.07,0,0v0l0-.08a.25.25,0,0,1,0-.07l-.07-.16a.44.44,0,0,0-.06-.1,2,2,0,0,0-.11-.2l0-.09A1.74,1.74,0,0,1,39.23,6l-.08-.13,0,0-.08-.12L39,5.62l0,0-.09-.11-.09-.13-.07-.1-.08-.09,0,0L38.52,5l-.19-.22-.09-.1-.12-.13L38,4.48a11.92,11.92,0,0,0-1-1l-.09-.07-.5-.4L36.29,3l-.06-.06-.08,0-.22-.17,0,0c-.17-.12-.34-.24-.52-.35l-.15-.1-.13-.08-.32-.2-.09,0-.05,0-.09-.05-.32-.18L34,1.51h0l0,0-.22-.11h0l-.06,0A22.11,22.11,0,0,0,31.34.26l-.5,0,1.32,2.64c1.6,3.22,1.3,6.77-.88,10.57L31,13.25l-.05,0,0,0,0,0,.19-.4,0-.1c-.22-.7-1.1-1.45-2.62-2.2h0a9.89,9.89,0,0,0-1.56-.53,9.25,9.25,0,0,1,.44-1.35,3,3,0,0,1,.38-.73l.09-.1.48-.52,0,0h0l-.56-.66h0l0,0a10.68,10.68,0,0,1-1.07-1.66l-.06-.13a5.63,5.63,0,0,1-.33-.76.88.88,0,0,1-.05-.15l-.67-2.09c0-.13-.09-.26-.26-.29l-.24,0L24.2,3.78c0,.05,0,.1-.05.15a7.51,7.51,0,0,1-.34.77l-.06.12a10,10,0,0,1-1.07,1.66l0,0L22.24,7l-.15.18,0,0,.48.52.08.1a3.19,3.19,0,0,1,.39.73,8.87,8.87,0,0,1,.44,1.35,9.24,9.24,0,0,0-1.56.53h0c-1.53.76-2.4,1.5-2.62,2.2l0,.11.19.4-.05,0-.05,0,0,0-.25.17c-2.18-3.8-2.47-7.34-.87-10.56A18.53,18.53,0,0,0,19.3.53V0l-.58.38a3.29,3.29,0,0,1-.33.16L18.26.6,17.52,1l-1.47.77c-.38.2-.83.45-1.27.72a11.39,11.39,0,0,0-1.44,1l-.12.1-.1.09L13,3.76l0,0-.1.09L12.81,4l-.14.13-.1.1-.11.11-.1.11-.11.11-.1.12-.1.11-.1.12-.1.12-.2.25-.09.12-.09.13-.09.13-.09.13-.09.13-.06.1,0,0L11,6.28l0,0,0,.11,0,0-.05.1v0l0,0,0,.08,0,.05v0s0,0,0,0h0a.14.14,0,0,1,0,.06L10.62,7h0l-.06.14c0,.07-.05.14-.07.2l0,.11-.07.22-.06.23s0,.07,0,.1l0,.12s0,.07,0,.1v0s0,0,0,.08a.3.3,0,0,0,0,.1s0,0,0,0,0,.05,0,.06v0s0,.07,0,.11a2.11,2.11,0,0,0,0,.26v.53a5.16,5.16,0,0,0,.37,1.5l.2.45.29-.39A4.38,4.38,0,0,1,12.5,9.81l.1,0a.45.45,0,0,1,.16,0c.07,0,.12,0,.22.15h0a1.34,1.34,0,0,1,.12.24l0,.09.06.17A29,29,0,0,0,16,16l-.13.14-.2.22-.15.16,0,0a16.34,16.34,0,0,0-1.11,1.38.47.47,0,0,1-.1.1l0,0-.12.13,0,0-.1.12-.08.07v0l0,0h0v0l0,0a11.63,11.63,0,0,0-1.6-2l-.21-.16-.17.21a11.56,11.56,0,0,0-1.42,2.36A4.53,4.53,0,0,0,10.13,22l-6-7.51-.73.26a6.21,6.21,0,0,0-1.83,1.06,6.77,6.77,0,0,0-1,1.09L0,17.59,9.75,29.46a57.69,57.69,0,0,0-2.39,6.92l0,.18.16.12c.13.1,1.3,1,2.93,2.17q-.78.23-1.56.48a.82.82,0,0,0-.54,1,.93.93,0,0,0,.31.42l.07.05,0,2.76,0,0-.08.12a1.31,1.31,0,0,1-.22.25.85.85,0,0,0,0,1.18.86.86,0,0,0,.22.15l.09,0V47a2.17,2.17,0,0,0,.27,1.11,2.05,2.05,0,0,0,.76.76,2.32,2.32,0,0,0,1,.33H11a3.15,3.15,0,0,0,.87-.12l.41-.11a3.83,3.83,0,0,0,1.08-.46,4,4,0,0,0,.86-.72l.15-.17.11.2,0,.06a.82.82,0,0,0,.86.37l.84-.15.38-.07-.22.32a.83.83,0,0,0-.07.82l0,0v.26l0,0a.82.82,0,0,0,0,1l0,0v.18l0,0a.83.83,0,0,0,.27,1.14.82.82,0,0,0,.43.12.69.69,0,0,0,.25,0h0l.63-.18.1,0h0l.11,0,.48-.13ZM14.5,43.41a2.56,2.56,0,0,0-.2.26.52.52,0,0,0-.1.23v1.89a2.07,2.07,0,0,1-.18.78,3.08,3.08,0,0,1-.47.72,3.18,3.18,0,0,1-.69.57,2.93,2.93,0,0,1-.85.37l-.41.1a2.44,2.44,0,0,1-.85.09,1.68,1.68,0,0,1-.69-.21,1.38,1.38,0,0,1-.46-.47,1.33,1.33,0,0,1-.16-.7c0-.62,0-1.24,0-1.87A.38.38,0,0,0,9.35,45a.7.7,0,0,0-.19-.16l-.27-.16a2.44,2.44,0,0,0,.33-.39A2.38,2.38,0,0,0,9.4,44a.87.87,0,0,0,0-.28c0-.93,0-1.87,0-2.81v-.15a.38.38,0,0,0-.06-.23.8.8,0,0,0-.15-.17,1.56,1.56,0,0,0-.2-.16c.75-.24,1.51-.46,2.27-.67a2.09,2.09,0,0,0-.22.28l-.15.26a.77.77,0,0,0-.07.26l0,3a.3.3,0,0,0,0,.1.49.49,0,0,0,.06.17.63.63,0,0,0,.17.19.73.73,0,0,0,.31.17,3.73,3.73,0,0,0-.26.3,1.35,1.35,0,0,0-.2.27.51.51,0,0,0-.1.24c0,.63,0,1.26,0,1.88a.45.45,0,0,0,.22.41.63.63,0,0,0,.52,0L12,47a1,1,0,0,0,.53-.32.78.78,0,0,0,.21-.53c0-.62,0-1.24,0-1.86a.35.35,0,0,0-.1-.2,1,1,0,0,0-.19-.17l-.27-.17a3,3,0,0,0,.34-.37,2.91,2.91,0,0,0,.17-.3.6.6,0,0,0,.06-.27l0-3a.48.48,0,0,0-.07-.2.7.7,0,0,0-.15-.19,1.12,1.12,0,0,0-.2-.18c.76-.2,1.53-.37,2.3-.53a1.18,1.18,0,0,0-.22.28,2.54,2.54,0,0,0-.16.28.78.78,0,0,0-.07.3c0,1,0,1.93,0,2.9a.34.34,0,0,0,0,.1.36.36,0,0,0,.07.17.64.64,0,0,0,.16.2.88.88,0,0,0,.32.19Zm4.82,4.78-.06.08a.41.41,0,0,0-.05.09l-.3.84c-.15.42,0,0,0,0v.06l0,.06a.16.16,0,0,0,.08.06l-.13.1-.1.1a.27.27,0,0,0-.06.1l-.3.81a.14.14,0,0,0,0,.09.14.14,0,0,0,0,.07.1.1,0,0,0,0,0h0l-.65.16h0s0,0,0,0l0-.06a.16.16,0,0,0,0-.07.19.19,0,0,0,0-.08V49.58c-.14.39-.29.78-.44,1.17a.17.17,0,0,0,0,.14l0,0,0,0h0l-.66.19h0a.3.3,0,0,0,.08-.08L17,51a.29.29,0,0,0,0-.09c0-.24,0-.49,0-.74a.11.11,0,0,0,0-.07L17,50l-.09,0a.74.74,0,0,0,.13-.12.41.41,0,0,0,.05-.09.26.26,0,0,0,0-.08l0-.76a.24.24,0,0,0,0-.08l0-.05-.06,0,.59-.19-.06.09a.25.25,0,0,0,0,.07.24.24,0,0,0,0,.08c0,.42,0,.84,0,1.26L18,48.7h0a.11.11,0,0,0,0-.08l0-.06-.07,0,.08,0,.51-.14h.08a.38.38,0,0,0-.09.09.27.27,0,0,0-.07.08.11.11,0,0,0,0,.08v0c0,.41,0,.82,0,1.24.17-.47.34-.93.5-1.39a.17.17,0,0,0,0-.07s0,0,0-.06l0-.06.6-.14A.3.3,0,0,1,19.32,48.19Zm-.22-1.31c-1.33.15-2.64.36-4,.62.08-.12.16-.23.22-.34a3,3,0,0,0,.16-.31.87.87,0,0,0,.07-.31v0c0-1,0-1.92,0-2.88a.42.42,0,0,0-.1-.2,1,1,0,0,0-.19-.17L15,43.07a2.57,2.57,0,0,0,.33-.33,1.61,1.61,0,0,0,.17-.28.62.62,0,0,0,.07-.19v-.09c0-1,0-1.93,0-2.9a.64.64,0,0,0-.07-.31.86.86,0,0,0-.15-.22,1.2,1.2,0,0,0-.21-.17c.77-.15,1.55-.28,2.32-.4a1.07,1.07,0,0,0-.44.8c0,1,0,2,0,3,0,0,0,.06,0,.09a.51.51,0,0,0,.07.17,1.12,1.12,0,0,0,.16.22,1.6,1.6,0,0,0,.32.21l-.26.28a1.57,1.57,0,0,0-.2.25.45.45,0,0,0-.11.23c0,.85,0,1.71,0,2.56l1.32-.19a1.29,1.29,0,0,0,.38-.12,2.77,2.77,0,0,0,.37-.22,3,3,0,0,0,.3-.23L19.6,45c-.17.63-.34,1.25-.5,1.88Zm2.21,2.62c0,.09,0,.17,0,.24s0,.14,0,.19a.19.19,0,0,0,0,.08.14.14,0,0,0,0,.06l0,.06.05,0-.65.1.07-.09a.22.22,0,0,0,.05-.08.15.15,0,0,0,0-.09v-.18s0-.06,0-.09l-.52.09c0,.09-.06.19-.08.28a.11.11,0,0,0,0,.08l0,.07,0,.07-.64.11.06-.07.05-.06,0-.06.24-.83a.14.14,0,0,0,0-.09.16.16,0,0,0,0-.07L20,49.2l.14-.1.07-.08a.3.3,0,0,0,0-.08c.06-.24.12-.43.16-.58s.07-.23.07-.24a.11.11,0,0,0,0-.08.09.09,0,0,0,0-.06l0-.07.92-.14-.07.09-.05.07a.2.2,0,0,0,0,.07c0,.27,0,.53,0,.79v0l0,.06.05,0,.1,0-.08.08-.06.08a.12.12,0,0,0,0,.1,1.15,1.15,0,0,0,0,.26Zm-.38-2.86a1.79,1.79,0,0,0,.23-.25,1.07,1.07,0,0,0,.15-.22.53.53,0,0,0,.08-.24V42.84a.68.68,0,0,0-.1-.21,1.34,1.34,0,0,0-.2-.21,3.15,3.15,0,0,0-.29-.22,1.58,1.58,0,0,0,.34-.29,2.33,2.33,0,0,0,.17-.26,1.34,1.34,0,0,0,.07-.18V38.9l-1,.07a.84.84,0,0,0-.37.14,2,2,0,0,0-.37.27,3.6,3.6,0,0,0-.41.37l.4-1.9c1.66-.16,3.32-.25,5-.25L25,39.46a3.19,3.19,0,0,0-.4-.33,4.11,4.11,0,0,0-.39-.24,1,1,0,0,0-.38-.1l-1,0V41.3a.34.34,0,0,0,0,.1,1.27,1.27,0,0,0,.06.18,1,1,0,0,0,.17.23,1.59,1.59,0,0,0,.33.25,3.58,3.58,0,0,0-.28.26,1.42,1.42,0,0,0-.2.22.62.62,0,0,0-.1.22v3.12a.44.44,0,0,0,.07.22l.16.21a1.21,1.21,0,0,0,.24.21c-.79,0-1.58.06-2.38.12Zm4-6.42v.92l0,0-.13.09a.79.79,0,0,0-.3.33l-.15.29-.14-.29a.92.92,0,0,0-.3-.32l-.12-.07-.06,0v-1.7l.23.12.24.14,0,0a2.42,2.42,0,0,1,.31.25.88.88,0,0,0,.34.19ZM23.24,50l0,0,0,0,0-.06v-.09c-.07-.2-.14-.39-.2-.59l-.21,0c0,.2,0,.4,0,.6a.14.14,0,0,0,0,.06A.25.25,0,0,0,23,50l.06.07-.66.05.07-.08,0-.06a.14.14,0,0,0,0-.06l.06-.85s0,0,0-.06l-.05-.06-.07-.06a.34.34,0,0,0,.09-.08l.06-.07,0,0v0l.06-.79a.24.24,0,0,0,0-.08l0-.06,0-.08.75,0a.42.42,0,0,1,.22,0,.69.69,0,0,1,.19.1.61.61,0,0,1,.12.16.51.51,0,0,1,0,.2c0,.2,0,.4,0,.59a.45.45,0,0,1-.08.26.53.53,0,0,1-.22.2l.12.34.13.33a.22.22,0,0,0,0,.08l.06.07L24,50l-.73,0Zm1.1-4a.79.79,0,0,1-.55-.31l-.08,0V42.89l.05,0,.22-.2a.73.73,0,0,0,.22-.27l.14-.28.15.28a.68.68,0,0,0,.22.26l.21.19,0,0V45.6l0,0,0,0h0l-.12.14a.73.73,0,0,1-.46.23ZM25.74,50l0,0,0,0a.21.21,0,0,0,0-.15c-.09-.2-.17-.41-.25-.61h-.21c0,.2,0,.4,0,.6a.14.14,0,0,0,0,.07l.05.07.06.07h-.65l.06-.07,0-.06s0,0,0,0c0-.29,0-.57,0-.86a.05.05,0,0,0,0-.05.1.1,0,0,0-.05-.06.27.27,0,0,0-.08-.07l.09-.07.05-.07a.17.17,0,0,1,0-.05v0c0-.26,0-.53,0-.79a.19.19,0,0,0,0-.07l0-.08-.06-.07h.75a.66.66,0,0,1,.43.18.7.7,0,0,1,.13.17.83.83,0,0,1,.06.21l0,.59a.36.36,0,0,1-.06.25.52.52,0,0,1-.21.18c.05.13.1.24.15.35l.15.34a.19.19,0,0,0,0,.09l.07.07.09.06-.73,0Zm-.4-3.52a1.64,1.64,0,0,0,.21-.25,1.43,1.43,0,0,0,.16-.24.73.73,0,0,0,.07-.29v-3a.51.51,0,0,0-.1-.21,2.09,2.09,0,0,0-.2-.22l-.28-.24a2.16,2.16,0,0,0,.33-.27,1.46,1.46,0,0,0,.17-.24.67.67,0,0,0,.07-.18v-3a.54.54,0,0,0-.07-.27,1.58,1.58,0,0,0-.15-.24l-.21-.25c.77,0,1.55,0,2.33.08a1,1,0,0,0-.37.41.58.58,0,0,0-.06.29v3a.45.45,0,0,0,.07.18,1,1,0,0,0,.17.25,2.28,2.28,0,0,0,.33.29l-.28.22a1.89,1.89,0,0,0-.2.2.58.58,0,0,0-.1.21v3a.71.71,0,0,0,.07.32.94.94,0,0,0,.14.26,1.31,1.31,0,0,0,.23.24c-.77,0-1.55-.06-2.33-.06Zm2,3.63a.18.18,0,0,0,.05-.07.09.09,0,0,0,0-.06.19.19,0,0,0,0-.08c0-.27,0-.55-.07-.82l0-.06L27.31,49l-.08-.07a.27.27,0,0,0,.08-.07.09.09,0,0,0,0-.06.08.08,0,0,0,0,0v0l-.07-.81a.19.19,0,0,0,0-.07l-.11-.15.62.07-.06.05,0,.06a.22.22,0,0,0,0,.08c0,.27,0,.54.08.82v0a.08.08,0,0,0,0,.05.18.18,0,0,0,.05.07.81.81,0,0,0,.1.09l-.07.06-.05,0a.11.11,0,0,0,0,.06c0,.27.05.54.08.82a.29.29,0,0,0,0,.09l.05.07.07.07-.66-.08Zm3,0a.44.44,0,0,1,0,.2.31.31,0,0,1-.11.14.48.48,0,0,1-.18.08.65.65,0,0,1-.24,0h-.12a1.05,1.05,0,0,1-.47-.24.75.75,0,0,1-.15-.2.54.54,0,0,1-.08-.21l-.07-.53,0-.06-.07-.07-.08-.08a.16.16,0,0,0,.08-.06.1.1,0,0,0,0-.05.09.09,0,0,0,0,0v0l-.06-.51a.35.35,0,0,1,0-.2.4.4,0,0,1,.1-.15A.38.38,0,0,1,29.1,48a.45.45,0,0,1,.23,0l.11,0a.92.92,0,0,1,.23.09.75.75,0,0,1,.2.15,1.56,1.56,0,0,1,.16.2.83.83,0,0,1,.08.22l.08.51a0,0,0,0,0,0,0l0,.06.05.07a.94.94,0,0,0,.1.1l-.06.05a.1.1,0,0,0,0,0s0,0,0,0Zm2.07-.8.14.61a.33.33,0,0,1,0,.24.25.25,0,0,1-.16.14l.21.39.21.39a.36.36,0,0,0,.07.1l.08.09.09.08-.71-.22h0l0,0a.13.13,0,0,0,0-.06.15.15,0,0,0,0-.09c-.12-.23-.23-.46-.35-.68l-.21-.06.13.62a.25.25,0,0,0,0,.07.35.35,0,0,0,.05.08l.08.09-.64-.17.05-.06,0,0s0,0,0-.05c0-.29-.11-.58-.17-.87a.16.16,0,0,0,0-.07l-.06-.08-.09-.08a.18.18,0,0,0,.07-.05.09.09,0,0,0,0-.06.07.07,0,0,0,0,0v0l-.16-.81a.13.13,0,0,0,0-.08.56.56,0,0,0-.05-.08l-.07-.1.73.2.23.11.21.18a1.16,1.16,0,0,1,.16.21.92.92,0,0,1,.09.23Zm2.83-6a.86.86,0,0,0-.2.18.44.44,0,0,0-.1.19l0,3A.85.85,0,0,0,35,47a1.43,1.43,0,0,0,.15.27,1.58,1.58,0,0,0,.22.29c-.75-.15-1.51-.28-2.27-.4l.21-.21a1.39,1.39,0,0,0,.15-.19.4.4,0,0,0,.07-.21c0-1.71,0-3.42,0-5.13q-.82,2.31-1.65,4.65c-.56-1.7-1.11-3.39-1.67-5.08v5a.88.88,0,0,0,.07.32,1.75,1.75,0,0,0,.16.27,1.44,1.44,0,0,0,.22.27c-.76-.08-1.53-.15-2.31-.2a2,2,0,0,0,.23-.28,1.35,1.35,0,0,0,.15-.26.48.48,0,0,0,.07-.26v-3a.55.55,0,0,0-.1-.22,2.2,2.2,0,0,0-.2-.23l-.28-.26a1.59,1.59,0,0,0,.33-.25,1.06,1.06,0,0,0,.17-.23.48.48,0,0,0,.07-.18V38.42a.52.52,0,0,0-.07-.22,1.34,1.34,0,0,0-.16-.23,2.62,2.62,0,0,0-.22-.25c.89.06,1.79.14,2.69.24a1,1,0,0,0-.22.2.56.56,0,0,0-.14.2.31.31,0,0,0,0,.25c.41,1.23.81,2.47,1.22,3.71L33.06,39a.46.46,0,0,0,0-.26.85.85,0,0,0-.13-.25,2.75,2.75,0,0,0-.22-.26c.89.13,1.78.28,2.67.46a1.1,1.1,0,0,0-.22.21,1.2,1.2,0,0,0-.15.24.8.8,0,0,0-.06.3c0,1,0,1.89,0,2.84a.45.45,0,0,0,0,.08.66.66,0,0,0,.06.2,1.27,1.27,0,0,0,.18.27,1.52,1.52,0,0,0,.33.34,1.67,1.67,0,0,0-.28.18Zm5-3a3,3,0,0,1,.47.75,2.27,2.27,0,0,1,.18.8v1.84a.36.36,0,0,0,0,.1A.68.68,0,0,0,41,44a1.64,1.64,0,0,0,.16.29,2.17,2.17,0,0,0,.32.36,1.75,1.75,0,0,0-.27.16A.7.7,0,0,0,41,45a.46.46,0,0,0-.1.18l0,1.89a1.3,1.3,0,0,1-.17.7,1.22,1.22,0,0,1-.46.47,1.6,1.6,0,0,1-.69.22,2.22,2.22,0,0,1-.85-.08l-.41-.1a2.93,2.93,0,0,1-.85-.37,3.54,3.54,0,0,1-.7-.58,2.83,2.83,0,0,1-.48-.72,1.84,1.84,0,0,1-.18-.8V43.91a.88.88,0,0,0-.11-.24,2.43,2.43,0,0,0-.2-.25,3.65,3.65,0,0,0-.27-.3,1.16,1.16,0,0,0,.32-.2,1.63,1.63,0,0,0,.17-.2.49.49,0,0,0,.06-.17.36.36,0,0,0,0-.1c0-.61,0-1.23,0-1.84a1.4,1.4,0,0,1,.64-1.22,1.74,1.74,0,0,1,.69-.25,2.21,2.21,0,0,1,.85,0l.43.12a2.9,2.9,0,0,1,.84.38,3.39,3.39,0,0,1,.68.63ZM39,38.46h0l-.41-.11a4.27,4.27,0,0,0-.79-.1c-.13,0-.26,0-.39,0a2.65,2.65,0,0,0-.91.31l-.21.13,0-.25s0,0,0-.08a.86.86,0,0,0-.65-.62c-.89-.18-1.81-.33-2.71-.47h-.12a.89.89,0,0,0-.63.29l-.16.18-.1-.22a.83.83,0,0,0-.65-.45c-.92-.11-1.84-.19-2.74-.25h-.05a.91.91,0,0,0-.23,0l-.06,0-.05,0a.82.82,0,0,0-.3-.07c-.78,0-1.58-.07-2.37-.08h0a.72.72,0,0,0-.29.06l-.06,0-.05,0a.86.86,0,0,0-.28,0c-1.68,0-3.38.09-5.06.25a.82.82,0,0,0-.73.66l-.4,1.9a.82.82,0,0,0,.64,1,.82.82,0,0,0,.76-.23l.32-.3,0,0,.07-.06.26-.2v1.57l0,0,0,0a.79.79,0,0,1-.17.14.83.83,0,0,0-.19,1.16.86.86,0,0,0,.19.19l.17.13.06,0V44.9l-.29-.41a.83.83,0,0,0-1.16-.19.86.86,0,0,0-.14.13l-.1.1-.22.17-.26.15-.11,0h0l-.18,0-.19,0V43.52l0-.05,0,0,0,0,.24-.26a.82.82,0,0,0,0-1.17.8.8,0,0,0-.21-.15l-.11-.06V39l0,0v0l0,0,0,0a.82.82,0,0,0,.21-1.15.81.81,0,0,0-.68-.36h-.12c-.79.12-1.58.25-2.36.41a.62.62,0,0,0-.24.08l0,0h-.27q-1.17.24-2.34.54a.82.82,0,0,0-.41.24l-.07.08-.1,0a.93.93,0,0,0-.47,0h0l-.42-.25h0c-1.36-1-2.41-1.77-2.78-2.05a58.61,58.61,0,0,1,2.39-6.82l.06-.16L.7,17.6,1,17.28a5.62,5.62,0,0,1,1-1,5.44,5.44,0,0,1,1.66-1l.35-.13,8.21,10.24.2-.39c.14-.28.26-.51.36-.68l.13-.22L12.61,24a13.24,13.24,0,0,1-1.42-1.28c-1.65-1.62.35-4.67,1-5.55a22.24,22.24,0,0,1,1.51,2.06l.27.43.22-.46,0-.09,0,0,0,0a.59.59,0,0,1,0-.08h0l0-.05,0-.05h0v0l0,0v0l.08-.07v0l.05-.07,0,0,.11-.13,0,0,.1-.11,0,0c.34-.47.7-.92,1.09-1.36l0,0,.13-.15.19-.2,0,0,.18-.18.08-.08.19-.19-.13-.19a27.58,27.58,0,0,1-2.9-5.67L13.67,10a.42.42,0,0,0,0-.1,1.77,1.77,0,0,0-.15-.31l0,0a.81.81,0,0,0-1-.36l-.15.06a4.12,4.12,0,0,0-1.37,1.05,3.62,3.62,0,0,1-.16-.86V9a1.79,1.79,0,0,1,0-.23s0-.07,0-.11V8.54a.37.37,0,0,1,0-.09s0,0,0-.07v0l0-.09s0-.07,0-.1a.36.36,0,0,0,0-.1l0-.1v0L11,7.64a.42.42,0,0,0,0-.1l.06-.18.06-.14.06-.13,0,0V7l0,0,0,0,0-.09h0l0,0a.93.93,0,0,1,.05-.1l0,0,0-.08,0,0c0-.08.09-.16.14-.24l0,0,.06-.09.08-.13a.83.83,0,0,1,.08-.12.94.94,0,0,1,.09-.12A.94.94,0,0,1,12,5.7l.09-.11.18-.24.09-.11.1-.11.1-.11.1-.11.1-.1.1-.1.1-.1.1-.1.13-.13.09-.08.08-.08,0,0,.1-.09.1-.09.12-.1a11,11,0,0,1,1.37-1c.43-.26.87-.5,1.24-.7s1-.54,1.46-.76l.6-.31L17.69,2.6C16,6.08,16.31,9.9,18.74,14l.16.27.42-.31,0,0,.28-.2,0,0,0,0,.24-.17.2-.14-.3-.62a5,5,0,0,1,2.29-1.77,8.62,8.62,0,0,1,1.72-.55l.27-.06-.06-.28a9.5,9.5,0,0,0-.53-1.72,3.76,3.76,0,0,0-.47-.86L23,7.35l-.16-.17.25-.3.05-.06a10.76,10.76,0,0,0,1.13-1.76l.07-.13c.13-.27.25-.54.36-.83l.06-.16.43-1.35c.14.45.31,1,.43,1.35l.06.17a6.71,6.71,0,0,0,.36.83l.06.13a10.11,10.11,0,0,0,1.14,1.75l0,.06.25.29h0l-.15.16-.1.13a3.76,3.76,0,0,0-.47.86,10.36,10.36,0,0,0-.53,1.72l-.06.27.27.06a9.35,9.35,0,0,1,1.72.56,5,5,0,0,1,2.29,1.76l-.3.63.2.13.24.17,0,0,0,0,.29.2.45.33.16-.26C34,9.9,34.4,6.07,32.67,2.6l-.74-1.49,1.5.7,0,0,0,0h0l.15.08.06,0,0,0h0l.15.08.31.17.07,0,.06,0,.08,0,.31.19.12.07.16.1.5.34,0,0,.22.16.07,0,0,0,.1.08a5.31,5.31,0,0,1,.48.38l.08.06a12.61,12.61,0,0,1,1,.94l.1.1L37.8,5l.08.1a2,2,0,0,1,.19.22l.07.09,0,0,.06.09.07.09.1.12.07.11,0,0,.08.12a1,1,0,0,1,.08.11v0a1,1,0,0,1,.08.11,1.12,1.12,0,0,0,.1.18l.05.09.1.18a1,1,0,0,1,0,.1l.07.14,0,.07,0,.07.06.14,0,.08h0a.11.11,0,0,1,0,.06l.06.15.09.28c0,.09.05.19.07.3l0,.12v0a.64.64,0,0,0,0,.07l0,.23V8.9s0,.07,0,.11v.55a3.59,3.59,0,0,1-.17.79,4.11,4.11,0,0,0-1.36-1l-.15-.05a.81.81,0,0,0-1,.36v0a1.77,1.77,0,0,0-.15.31l0,.1-.07.17a27.32,27.32,0,0,1-2.9,5.67l-.13.19.27.27a1.07,1.07,0,0,1,.18.19h0l.14.16,0,0,.14.14,0,0c.21.24.42.48.62.73l.47.62,0,0,.1.11,0,0,0,.06.08.09,0,.07v0l.07.07h0l0,0,0,.05v0l0,.05,0,0v0a.56.56,0,0,1,.05.08l0,0,0,0s0,0,0,0l0,0,.17.36.29-.28,0,0,0-.05v0l0,0,0-.07,0,0,0-.07.17-.24c.06-.1.14-.2.22-.31l.06-.1a12.18,12.18,0,0,1,.89-1.15A7.9,7.9,0,0,1,39.8,21.1a2.18,2.18,0,0,1-.64,1.62A13.24,13.24,0,0,1,37.74,24l-.19.14.1.21,0,.09.05.07.28.54.2.39,8.2-10.26.35.12a5.88,5.88,0,0,1,1.66,1,6.05,6.05,0,0,1,1,1l.25.32L40,29.38l.06.15a58.9,58.9,0,0,1,2.38,6.8ZM11.62,23.91h0c.18.17.34.3.44.39l-.05.1Zm27.1,0-.39.49-.06-.1.45-.39Z"/><path id="Path_7884" data-name="Path 7884" class="cls-3" d="M25.75,48a.24.24,0,0,0-.14-.05h-.26c0,.32,0,.63,0,1h.26a.25.25,0,0,0,.15,0,.16.16,0,0,0,.06-.13c0-.2,0-.39,0-.58A.21.21,0,0,0,25.75,48Z"/><path id="Path_7885" data-name="Path 7885" class="cls-3" d="M20.5,49.49l.4-.07-.06-1.2C20.73,48.64,20.62,49.06,20.5,49.49Z"/><path id="Path_7886" data-name="Path 7886" class="cls-3" d="M29.86,49.45a.21.21,0,0,0,0-.06l-.06-.07-.09-.08.08-.05a.21.21,0,0,0,0-.06.07.07,0,0,0,0-.05v0c0-.17-.05-.33-.07-.49a.51.51,0,0,0-.09-.16.29.29,0,0,0-.15-.09l-.12,0a.11.11,0,0,0-.13,0,.15.15,0,0,0,0,.13l.07.49v0l0,.06.06.07.1.09-.07.06-.05,0a.14.14,0,0,0,0,.06c0,.17.05.33.07.5a.36.36,0,0,0,.08.15.3.3,0,0,0,.17.1l.12,0h0a.15.15,0,0,0,.18-.1V50C29.91,49.79,29.88,49.62,29.86,49.45Z"/><path id="Path_7887" data-name="Path 7887" class="cls-3" d="M23.26,47.94H23c0,.32,0,.63-.05.95l.27,0a.2.2,0,0,0,.15-.06.21.21,0,0,0,.07-.13c0-.2,0-.39,0-.59a.18.18,0,0,0-.05-.12A.2.2,0,0,0,23.26,47.94Z"/><path id="Path_7888" data-name="Path 7888" class="cls-3" d="M39.37,44.48a1.57,1.57,0,0,0-.19-.26,2.55,2.55,0,0,0-.26-.3,1.14,1.14,0,0,0,.32-.18.63.63,0,0,0,.17-.19.77.77,0,0,0,.07-.16s0-.06,0-.09c0-.59,0-1.18,0-1.77a1.16,1.16,0,0,0-.75-1l-.43-.11a.57.57,0,0,0-.53.1.54.54,0,0,0-.21.45c0,.59,0,1.18,0,1.77a.34.34,0,0,0,0,.1,1.18,1.18,0,0,0,.07.2,1.61,1.61,0,0,0,.17.28,2.05,2.05,0,0,0,.32.34l-.27.18a1,1,0,0,0-.2.16.39.39,0,0,0-.1.19c0,.6,0,1.21,0,1.81a1.07,1.07,0,0,0,.75.94l.42.1h0a.56.56,0,0,0,.53-.09.58.58,0,0,0,.21-.44c0-.62,0-1.23,0-1.84A.9.9,0,0,0,39.37,44.48Z"/><path id="Path_7889" data-name="Path 7889" class="cls-3" d="M32,49.15A.38.38,0,0,0,32,49a.36.36,0,0,0-.15-.1l-.26-.07.2,1,.26.07a.17.17,0,0,0,.14,0,.13.13,0,0,0,0-.12C32.13,49.55,32.08,49.35,32,49.15Z"/></g></g></svg>