<svg xmlns="http://www.w3.org/2000/svg" xmlns:xlink="http://www.w3.org/1999/xlink" width="33.257" height="25.054" viewBox="0 0 33.257 25.054">
  <defs>
    <linearGradient id="linear-gradient" x1="0.5" x2="0.5" y2="1" gradientUnits="objectBoundingBox">
      <stop offset="0" stop-color="#64f9a0"/>
      <stop offset="1" stop-color="#5ff5f9"/>
    </linearGradient>
  </defs>
  <path id="Path_9268" data-name="Path 9268" d="M33.257,0,28.466,17.883a9.675,9.675,0,0,1-9.345,7.171H0L4.792,7.171A9.675,9.675,0,0,1,14.137,0ZM25.629,16.982l-12.914-.051H11.039L14.751,3.221h-.456A6.985,6.985,0,0,0,7.548,8.4L3.91,21.833H18.984A6.981,6.981,0,0,0,25.629,16.982ZM28.722,5.555h-3.2l-.351,1.309h1.648l-.271,1.013H23.718l.65-2.425a1.244,1.244,0,0,1,1.2-.922H29l.351-1.309h-3.89A2.664,2.664,0,0,0,22.884,5.2l-1.069,3.99h5.935Zm-1.31,4.509H21.553l-.522,1.95h0l-1.056,3.939h5.859l.96-3.584h-3.16l-.346,1.292h1.627l-.268,1H21.854l.885-3.3h4.326Z" fill="url(#linear-gradient)"/>
</svg>
