<svg id="Layer_1" data-name="Layer 1" xmlns="http://www.w3.org/2000/svg" viewBox="0 0 18.75 22.01"><defs><style>.cls-1{fill:#9a9aa0;}</style></defs><path id="Path_640" data-name="Path 640" class="cls-1" d="M18.59,1.14A.57.57,0,0,0,18.16,1H15.35c0-.26,0-.48,0-.64A.34.34,0,0,0,15,0H3.76a.34.34,0,0,0-.34.32c0,.16,0,.37,0,.64H.59A.58.58,0,0,0,0,1.54v0A13.31,13.31,0,0,0,1,6.18,5.16,5.16,0,0,0,5.44,9.57a9.64,9.64,0,0,0,2.4,2.69s.91.36.08,3.38a.34.34,0,0,1-.33.25H5.31a.35.35,0,0,0-.34.34v3a.33.33,0,0,1-.33.33H3.78a.34.34,0,0,0-.33.34v1.81a.35.35,0,0,0,.33.34H15a.35.35,0,0,0,.33-.34V19.86a.34.34,0,0,0-.33-.34h-.86a.33.33,0,0,1-.33-.33v-3a.34.34,0,0,0-.34-.34H11.16a.34.34,0,0,1-.33-.25c-.83-3,.08-3.39.08-3.39a9,9,0,0,0,2.4-2.68,5.18,5.18,0,0,0,4.46-3.4,13,13,0,0,0,1-4.6A.57.57,0,0,0,18.59,1.14ZM1.39,2.3h2A17.84,17.84,0,0,0,4.67,8.06C2.17,7.25,1.54,4,1.39,2.3ZM14.08,8.06A17.84,17.84,0,0,0,15.32,2.3h2.05c-.16,1.66-.79,5-3.29,5.76Z"/></svg>