<svg id="Group_1469" data-name="Group 1469" xmlns="http://www.w3.org/2000/svg" xmlns:xlink="http://www.w3.org/1999/xlink" width="18.79" height="19.624" viewBox="0 0 18.79 19.624">
  <defs>
    <linearGradient id="linear-gradient" x1="0.5" x2="0.5" y2="1" gradientUnits="objectBoundingBox">
      <stop offset="0" stop-color="#64f9a0"/>
      <stop offset="1" stop-color="#5ff5f9"/>
    </linearGradient>
  </defs>
  <path id="Path_5502" data-name="Path 5502" d="M1431.672-411.587v9.21c0,.452-.13.58-.587.58h-.74a.436.436,0,0,1-.479-.39.479.479,0,0,1,0-.09v-.273a.426.426,0,0,0-.388-.461.4.4,0,0,0-.058,0c-.281-.01-.56-.009-.836,0a.429.429,0,0,0-.456.4.445.445,0,0,0,0,.069,3.218,3.218,0,0,1-.02.4.391.391,0,0,1-.369.343,1.494,1.494,0,0,1-.176,0h-10.7a.433.433,0,0,1-.474-.385.528.528,0,0,1,0-.065c-.006-.1,0-.2,0-.306a.43.43,0,0,0-.395-.462.445.445,0,0,0-.069,0c-.267-.007-.536-.006-.8,0a.436.436,0,0,0-.472.4.417.417,0,0,0,0,.094v.289a.421.421,0,0,1-.4.438h-.036q-.45.011-.9,0a.421.421,0,0,1-.431-.41v-18.778a.421.421,0,0,1,.416-.425h.016q.451-.012.9,0a.42.42,0,0,1,.436.4.336.336,0,0,1,0,.035c.006.144,0,.289,0,.434a.43.43,0,0,0,.38.474.424.424,0,0,0,.085,0c.274,0,.547.006.82,0a.42.42,0,0,0,.454-.384.421.421,0,0,0,0-.068c.008-.177,0-.355.017-.529a.4.4,0,0,1,.4-.368c.048,0,.1,0,.145,0h10.617c.42,0,.565.144.565.572,0,.123,0,.247,0,.369a.4.4,0,0,0,.4.405h0q.466.017.933,0a.4.4,0,0,0,.4-.407v-.01c.008-.155,0-.31,0-.466a.43.43,0,0,1,.394-.462.381.381,0,0,1,.069,0q.441-.006.885,0a.42.42,0,0,1,.455.383.415.415,0,0,1,0,.069c0,.214,0,.429,0,.643Zm-9.39-8.032h-3.523c-.383,0-.537.151-.537.533v3.119c0,.379.158.535.539.535h7.014c.391,0,.544-.153.545-.544v-3.1c0-.391-.151-.54-.547-.54Zm-.022,16.031h3.5c.405,0,.552-.146.553-.55v-3.083c0-.4-.153-.549-.556-.549h-6.982c-.413,0-.561.147-.561.561v3.071c0,.406.146.554.549.554Zm-.006-5.921h3.522c.39,0,.543-.154.543-.547v-3.083c0-.4-.149-.556-.551-.556h-7c-.4,0-.551.151-.551.555v3.07c0,.416.146.561.56.561Zm7.61,3.621v-.4a.42.42,0,0,0-.366-.468.37.37,0,0,0-.068,0c-.289-.013-.579-.013-.868,0a.419.419,0,0,0-.438.4.345.345,0,0,0,0,.067q-.005.4,0,.8a.424.424,0,0,0,.381.464.431.431,0,0,0,.06,0c.281.011.568.011.851,0a.426.426,0,0,0,.445-.406c0-.02,0-.039,0-.057,0-.134,0-.268,0-.4Zm-13.48-.008v-.4a.42.42,0,0,0-.374-.462.45.45,0,0,0-.069,0c-.28-.012-.568-.012-.851,0a.423.423,0,0,0-.445.4.351.351,0,0,0,0,.061q-.008.4,0,.8a.429.429,0,0,0,.382.472.373.373,0,0,0,.069,0c.28.01.561.01.835,0a.427.427,0,0,0,.452-.4.451.451,0,0,0,0-.057c.005-.138,0-.277,0-.416Zm13.48-3.74v-.42a.42.42,0,0,0-.382-.455.4.4,0,0,0-.05,0c-.289-.012-.578-.011-.867,0a.416.416,0,0,0-.439.39.416.416,0,0,0,0,.06c-.006.28-.006.558,0,.834a.415.415,0,0,0,.379.446h.041c.294.012.589.011.883,0a.42.42,0,0,0,.43-.411.227.227,0,0,0,0-.032c.008-.135,0-.275,0-.413Zm0-7.515c0-.14,0-.28,0-.42a.414.414,0,0,0-.389-.439.274.274,0,0,0-.041,0q-.442-.012-.883,0a.407.407,0,0,0-.42.395.336.336,0,0,0,0,.035q-.011.433,0,.866a.421.421,0,0,0,.4.436h.032c.289.007.579.008.867,0a.421.421,0,0,0,.432-.409c0-.011,0-.022,0-.033,0-.141,0-.285,0-.43Zm-13.48,7.517c0-.144.006-.289,0-.433a.412.412,0,0,0-.38-.441.382.382,0,0,0-.049,0c-.293-.012-.588-.013-.882,0a.414.414,0,0,0-.426.4c0,.015,0,.029,0,.044-.006.28-.006.558,0,.834a.425.425,0,0,0,.4.453.4.4,0,0,0,.057,0c.28.006.558.006.835,0a.421.421,0,0,0,.448-.391.409.409,0,0,0,0-.05c.006-.137,0-.277,0-.416Zm-.86-8.375h0c-.144,0-.289,0-.433,0a.416.416,0,0,0-.443.387c0,.013,0,.026,0,.039-.01.294-.01.589,0,.882a.409.409,0,0,0,.4.42h.018c.3.01.6.01.9,0a.4.4,0,0,0,.415-.387v-.016c.013-.31.014-.62,0-.93a.4.4,0,0,0-.4-.4h-.024c-.142,0-.286,0-.431,0Zm14.34,4.62h0c0-.15.005-.3,0-.449a.39.39,0,0,0-.367-.411h-.018a9.581,9.581,0,0,0-.962,0,.385.385,0,0,0-.385.384v.027c-.009.294-.008.588,0,.882a.406.406,0,0,0,.385.427h.039c.294.009.589.009.883,0a.414.414,0,0,0,.428-.4c0-.015,0-.029,0-.044,0-.139,0-.278,0-.417Zm-14.35.863c.145,0,.29,0,.434,0a.408.408,0,0,0,.431-.384.213.213,0,0,0,0-.036c.011-.294.01-.588,0-.882a.4.4,0,0,0-.369-.42.259.259,0,0,0-.041,0c-.3-.015-.61-.015-.91,0a.4.4,0,0,0-.41.388c0,.01,0,.022,0,.032q-.015.432,0,.866a.42.42,0,0,0,.4.438.373.373,0,0,0,.049,0c.137,0,.277,0,.412,0Z" transform="translate(-1412.882 421.413)" fill="url(#linear-gradient)"/>
</svg>
