<svg xmlns="http://www.w3.org/2000/svg" xmlns:xlink="http://www.w3.org/1999/xlink" width="250.181" height="38.439" viewBox="0 0 250.181 38.439">
  <defs>
    <linearGradient id="linear-gradient" x1="0.5" x2="0.5" y2="1" gradientUnits="objectBoundingBox">
      <stop offset="0.008" stop-color="#79f8ad"/>
      <stop offset="0.17" stop-color="#74f8af"/>
      <stop offset="0.356" stop-color="#66f9b8"/>
      <stop offset="0.555" stop-color="#4ffac6"/>
      <stop offset="0.761" stop-color="#2efcd9"/>
      <stop offset="0.973" stop-color="#05fef2"/>
      <stop offset="1" stop-color="#00fff6"/>
    </linearGradient>
  </defs>
  <path id="Path_9762" data-name="Path 9762" d="M-2397.2-886.464h5.014v38.427h-5.014Zm-186.107-.011,9.961,11.57-3.312,3.853-13.271-15.422Zm26.4,38.424-13.4-15.6-13.426,15.609h-6.752l33.034-38.432h6.732L-2567-867.5l16.7,19.445Zm24.953.014h-5.014v-38.427h19.106c8.248.1,12.713,3.988,12.905,11.231-.195,7.191-4.671,11.035-12.94,11.1h-9.7c0-.313,0-3.626,0-3.942h9.214a9.66,9.66,0,0,0,6.007-1.847,6.408,6.408,0,0,0,2.413-5.332c-.054-2.514-.844-4.312-2.413-5.5a10.51,10.51,0,0,0-6.393-1.77h-13.181Zm39.458-38.438h29.915v4h-24.9v30.5h25.191v3.942h-30.2Zm27.249,16.615v3.919h-17.887c0-.327,0-3.591,0-3.919Zm18.563-16.615h19.68c.055,0,5.585-.135,9.134,3.137a10.472,10.472,0,0,1,3.183,8.062l.015.488c0,1.178-.313,7.211-6.421,9.573l-.833.322s9.294,16.313,9.6,16.856h-5.5l-8.823-16.008s-10.3,0-10.662,0c0-.494,0-3.87,0-4.014h9.226c.026,0,4.091.069,6.582-2.3a6.283,6.283,0,0,0,1.868-4.752,6.565,6.565,0,0,0-3.155-6.1,10.691,10.691,0,0,0-5.312-1.244h-13.558v34.416h-5.028Zm101.179,38.438c-.095-.221-5.1-11.693-5.1-11.693h-13.572c.164-.385,1.606-3.735,1.7-3.942h10.142l-7.358-17.474s-14.193,32.885-14.291,33.109h-5.4c.236-.523,17.178-38.208,17.276-38.427h5c.106.247,16.525,37.78,16.81,38.427Z" transform="translate(2590.485 886.477)" fill="url(#linear-gradient)"/>
</svg>
